<svg xmlns="http://www.w3.org/2000/svg" width="610" height="309" viewBox="0 0 610 309">
  <g id="Grupo_167874" data-name="Grupo 167874" transform="translate(-519 -24600)">
    <g id="Rectángulo_341998" data-name="Rectángulo 341998" transform="translate(519 24600)" fill="#8979f3" stroke="#707070" stroke-width="1" opacity="0.25">
      <rect width="610" height="309" rx="25" stroke="none"/>
      <rect x="0.5" y="0.5" width="609" height="308" rx="24.5" fill="none"/>
    </g>
    <path id="Trazado_688147" data-name="Trazado 688147" d="M.844,18.647V7.011H2.531V7.1a5.923,5.923,0,0,1,1.935-.291A4.136,4.136,0,0,1,6.6,7.28,2.639,2.639,0,0,1,7.731,8.771a8.79,8.79,0,0,1,.342,2.72,8.862,8.862,0,0,1-.342,2.727A2.673,2.673,0,0,1,6.6,15.724a4.085,4.085,0,0,1-2.138.48,5.312,5.312,0,0,1-1.935-.349v2.793Zm3.622-3.985a2.019,2.019,0,0,0,1.171-.291,1.62,1.62,0,0,0,.589-.967A8.074,8.074,0,0,0,6.4,11.491a7.978,7.978,0,0,0-.175-1.905,1.581,1.581,0,0,0-.589-.953,2.059,2.059,0,0,0-1.171-.284q-1.935,0-1.935.844v3.433a2.236,2.236,0,0,0,.451,1.542A1.926,1.926,0,0,0,4.465,14.662ZM10.08,16V7.011h1.673v.742a3.2,3.2,0,0,1,.9-.662,2.575,2.575,0,0,1,1.193-.284,3.724,3.724,0,0,1,1.4.225,2.338,2.338,0,0,1,.953.727,4.912,4.912,0,0,1,.72,1.389l-1.5.684a5.212,5.212,0,0,0-.378-.945.95.95,0,0,0-.444-.422,1.938,1.938,0,0,0-.749-.116,1.747,1.747,0,0,0-1.615.778,4.348,4.348,0,0,0-.48,2.262V16ZM23.04,7.011v7.447h2.545V16H18.822V14.458h2.545V8.553H19.535V7.011ZM21.891,5.7a1.466,1.466,0,0,1-1-.255,1.275,1.275,0,0,1-.269-.938,1.275,1.275,0,0,1,.269-.938,1.466,1.466,0,0,1,1-.255,1.5,1.5,0,0,1,1,.255,1.253,1.253,0,0,1,.276.938,1.253,1.253,0,0,1-.276.938A1.5,1.5,0,0,1,21.891,5.7Zm9.4,10.3H29.775L26.545,7.011h1.731l2.255,6.5,2.3-6.5h1.716Zm7.753.2a5.928,5.928,0,0,1-2.058-.291A2.029,2.029,0,0,1,35.876,15a3.413,3.413,0,0,1-.342-1.651,3.839,3.839,0,0,1,.342-1.8,1.864,1.864,0,0,1,1.091-.887,6.687,6.687,0,0,1,2.073-.255h1.833v-.32a2.339,2.339,0,0,0-.153-.945.89.89,0,0,0-.545-.473,3.589,3.589,0,0,0-1.135-.138,2.7,2.7,0,0,0-.931.124.937.937,0,0,0-.495.444,4.254,4.254,0,0,0-.335.975l-1.6-.393a5.841,5.841,0,0,1,.655-1.658,2.381,2.381,0,0,1,1.047-.924,4.01,4.01,0,0,1,1.658-.3,3.724,3.724,0,0,1,2.7.807,3.377,3.377,0,0,1,.807,2.48v3.4a1.722,1.722,0,0,0,.116.785.54.54,0,0,0,.495.189q.116,0,.524-.029v1.542Q43.505,16,43.2,16a2.17,2.17,0,0,1-1.745-.582,2.2,2.2,0,0,1-.975.6A4.89,4.89,0,0,1,39.04,16.2Zm0-1.542a2.893,2.893,0,0,0,1.135-.175.992.992,0,0,0,.545-.6,3.766,3.766,0,0,0,.153-1.222v-.713H39.04a5.973,5.973,0,0,0-1.178.08.7.7,0,0,0-.495.364,2.247,2.247,0,0,0-.145.953,1.75,1.75,0,0,0,.145.807.842.842,0,0,0,.531.385A4.211,4.211,0,0,0,39.04,14.662ZM48.945,16.2a3.437,3.437,0,0,1-1.7-.364,2.133,2.133,0,0,1-.938-1.156,6.047,6.047,0,0,1-.3-2.087V8.378H44.2V6.836h1.8V4.364H47.68V6.836h3.011V8.378H47.68V12.6a5.233,5.233,0,0,0,.116,1.258,1.034,1.034,0,0,0,.385.625,1.357,1.357,0,0,0,.764.182,2.958,2.958,0,0,0,.778-.073.575.575,0,0,0,.349-.262,3.592,3.592,0,0,0,.255-.655l1.571.538a3.335,3.335,0,0,1-.567,1.185,1.945,1.945,0,0,1-.909.618A4.729,4.729,0,0,1,48.945,16.2Zm7.825-1.542a2.4,2.4,0,0,0,1.244-.3,3.693,3.693,0,0,0,1.04-1.055l1.338.887a4.8,4.8,0,0,1-1.535,1.571,4.269,4.269,0,0,1-2.087.436,4.986,4.986,0,0,1-2.305-.436,2.492,2.492,0,0,1-1.178-1.44,8.777,8.777,0,0,1-.356-2.822,8.777,8.777,0,0,1,.356-2.822,2.492,2.492,0,0,1,1.178-1.44,4.986,4.986,0,0,1,2.305-.436,4.5,4.5,0,0,1,2.262.473,2.658,2.658,0,0,1,1.156,1.578,10.751,10.751,0,0,1,.349,3.1h-5.92a5.414,5.414,0,0,0,.262,1.615,1.53,1.53,0,0,0,.669.836A2.49,2.49,0,0,0,56.771,14.662Zm0-6.313a2.179,2.179,0,0,0-1.542.458,2.493,2.493,0,0,0-.582,1.607h4.175a3.266,3.266,0,0,0-.189-1.244A1.157,1.157,0,0,0,58,8.538,3.218,3.218,0,0,0,56.771,8.349ZM75.4,7.011v7.447h2.545V16H71.185V14.458h2.545V8.553H71.9V7.011ZM74.255,5.7a1.466,1.466,0,0,1-1-.255,1.275,1.275,0,0,1-.269-.938,1.275,1.275,0,0,1,.269-.938,1.466,1.466,0,0,1,1-.255,1.5,1.5,0,0,1,1,.255,1.253,1.253,0,0,1,.276.938,1.253,1.253,0,0,1-.276.938A1.5,1.5,0,0,1,74.255,5.7ZM79.505,16V7.011h1.673v.218a5.068,5.068,0,0,1,2.138-.422,4.326,4.326,0,0,1,1.913.342A1.969,1.969,0,0,1,86.2,8.3a6.989,6.989,0,0,1,.291,2.276V16H84.8V10.575a5.049,5.049,0,0,0-.138-1.345,1.152,1.152,0,0,0-.451-.676,1.64,1.64,0,0,0-.895-.2,4.233,4.233,0,0,0-1.389.167.959.959,0,0,0-.6.589,4.131,4.131,0,0,0-.153,1.309V16Zm13.076.2a3.437,3.437,0,0,1-1.7-.364,2.133,2.133,0,0,1-.938-1.156,6.047,6.047,0,0,1-.3-2.087V8.378h-1.8V6.836h1.8V4.364h1.673V6.836h3.011V8.378H91.316V12.6a5.233,5.233,0,0,0,.116,1.258,1.034,1.034,0,0,0,.385.625,1.357,1.357,0,0,0,.764.182,2.958,2.958,0,0,0,.778-.073.575.575,0,0,0,.349-.262,3.591,3.591,0,0,0,.255-.655l1.571.538a3.335,3.335,0,0,1-.567,1.185,1.945,1.945,0,0,1-.909.618A4.729,4.729,0,0,1,92.582,16.2Zm17.731-9.193v7.447h2.545V16h-6.764V14.458h2.545V8.553h-1.833V7.011ZM109.164,5.7a1.466,1.466,0,0,1-1-.255,1.275,1.275,0,0,1-.269-.938,1.275,1.275,0,0,1,.269-.938,1.466,1.466,0,0,1,1-.255,1.5,1.5,0,0,1,1,.255,1.253,1.253,0,0,1,.276.938,1.253,1.253,0,0,1-.276.938A1.5,1.5,0,0,1,109.164,5.7ZM114.415,16V7.011h1.673v.218a5.068,5.068,0,0,1,2.138-.422,4.326,4.326,0,0,1,1.913.342,1.969,1.969,0,0,1,.967,1.149,6.989,6.989,0,0,1,.291,2.276V16h-1.687V10.575a5.049,5.049,0,0,0-.138-1.345,1.152,1.152,0,0,0-.451-.676,1.64,1.64,0,0,0-.895-.2,4.233,4.233,0,0,0-1.389.167.959.959,0,0,0-.6.589,4.131,4.131,0,0,0-.153,1.309V16Zm13.076.2a3.437,3.437,0,0,1-1.7-.364,2.133,2.133,0,0,1-.938-1.156,6.047,6.047,0,0,1-.3-2.087V8.378h-1.8V6.836h1.8V4.364h1.673V6.836h3.011V8.378h-3.011V12.6a5.233,5.233,0,0,0,.116,1.258,1.034,1.034,0,0,0,.385.625,1.357,1.357,0,0,0,.764.182,2.958,2.958,0,0,0,.778-.073.575.575,0,0,0,.349-.262,3.592,3.592,0,0,0,.255-.655l1.571.538a3.335,3.335,0,0,1-.567,1.185,1.945,1.945,0,0,1-.909.618A4.729,4.729,0,0,1,127.491,16.2Zm7.825-1.542a2.4,2.4,0,0,0,1.244-.3,3.693,3.693,0,0,0,1.04-1.055l1.338.887a4.8,4.8,0,0,1-1.535,1.571,4.269,4.269,0,0,1-2.087.436,4.986,4.986,0,0,1-2.305-.436,2.492,2.492,0,0,1-1.178-1.44,8.777,8.777,0,0,1-.356-2.822,8.777,8.777,0,0,1,.356-2.822,2.492,2.492,0,0,1,1.178-1.44,4.986,4.986,0,0,1,2.305-.436,4.5,4.5,0,0,1,2.262.473,2.658,2.658,0,0,1,1.156,1.578,10.751,10.751,0,0,1,.349,3.1h-5.92a5.415,5.415,0,0,0,.262,1.615,1.53,1.53,0,0,0,.669.836A2.49,2.49,0,0,0,135.316,14.662Zm0-6.313a2.179,2.179,0,0,0-1.542.458,2.493,2.493,0,0,0-.582,1.607h4.175a3.266,3.266,0,0,0-.189-1.244,1.157,1.157,0,0,0-.633-.633A3.218,3.218,0,0,0,135.316,8.349ZM140.989,16V7.011h1.673v.742a3.2,3.2,0,0,1,.9-.662,2.575,2.575,0,0,1,1.193-.284,3.724,3.724,0,0,1,1.4.225,2.338,2.338,0,0,1,.953.727,4.912,4.912,0,0,1,.72,1.389l-1.5.684a5.212,5.212,0,0,0-.378-.945.95.95,0,0,0-.444-.422,1.938,1.938,0,0,0-.749-.116,1.747,1.747,0,0,0-1.615.778,4.348,4.348,0,0,0-.48,2.262V16Zm12.48,0h-1.513l-3.229-8.989h1.731l2.255,6.5,2.3-6.5h1.716Zm7.753.2a5.928,5.928,0,0,1-2.058-.291A2.029,2.029,0,0,1,158.058,15a3.413,3.413,0,0,1-.342-1.651,3.839,3.839,0,0,1,.342-1.8,1.864,1.864,0,0,1,1.091-.887,6.686,6.686,0,0,1,2.073-.255h1.833v-.32a2.339,2.339,0,0,0-.153-.945.89.89,0,0,0-.545-.473,3.589,3.589,0,0,0-1.135-.138,2.7,2.7,0,0,0-.931.124.937.937,0,0,0-.495.444,4.255,4.255,0,0,0-.335.975l-1.6-.393a5.841,5.841,0,0,1,.655-1.658,2.381,2.381,0,0,1,1.047-.924,4.01,4.01,0,0,1,1.658-.3,3.724,3.724,0,0,1,2.7.807,3.377,3.377,0,0,1,.807,2.48v3.4a1.722,1.722,0,0,0,.116.785.54.54,0,0,0,.495.189q.116,0,.524-.029v1.542q-.175.015-.48.015a2.17,2.17,0,0,1-1.745-.582,2.2,2.2,0,0,1-.975.6A4.89,4.89,0,0,1,161.222,16.2Zm0-1.542a2.893,2.893,0,0,0,1.135-.175.992.992,0,0,0,.545-.6,3.766,3.766,0,0,0,.153-1.222v-.713h-1.833a5.973,5.973,0,0,0-1.178.08.7.7,0,0,0-.495.364,2.247,2.247,0,0,0-.145.953,1.75,1.75,0,0,0,.145.807.842.842,0,0,0,.531.385A4.211,4.211,0,0,0,161.222,14.662ZM171.68,16.2A3.339,3.339,0,0,1,170.1,15.9a1.725,1.725,0,0,1-.8-1.018,6.565,6.565,0,0,1-.24-2.007V5.905h-1.833V4.364h3.505v8.509a3.328,3.328,0,0,0,.2,1.4.763.763,0,0,0,.742.385,1.118,1.118,0,0,0,.56-.175,6.832,6.832,0,0,0,.836-.625l.931,1.425a4.459,4.459,0,0,1-1.142.72A3.247,3.247,0,0,1,171.68,16.2Zm20.175-7h-8.436V7.665h8.436Zm0,3.491h-8.436V11.156h8.436ZM205.091,16.2a6.006,6.006,0,0,1-2.2-.32,2.031,2.031,0,0,1-1.127-1.076,5.293,5.293,0,0,1-.342-2.124h1.687a3.108,3.108,0,0,0,.182,1.193,1.116,1.116,0,0,0,.6.6,3.108,3.108,0,0,0,1.193.182,3.226,3.226,0,0,0,1.193-.175,1.119,1.119,0,0,0,.611-.589,2.853,2.853,0,0,0,.189-1.156,3.7,3.7,0,0,0-.16-1.215,1.15,1.15,0,0,0-.531-.647,2.646,2.646,0,0,0-1.025-.262H203.9V9.076h1.469a2.192,2.192,0,0,0,1.345-.429,1.663,1.663,0,0,0,.371-1.229,2.281,2.281,0,0,0-.189-1.033,1.1,1.1,0,0,0-.611-.524,3.5,3.5,0,0,0-1.193-.16,3.06,3.06,0,0,0-1.178.182,1.116,1.116,0,0,0-.6.6,3.06,3.06,0,0,0-.182,1.178h-1.7a5.238,5.238,0,0,1,.342-2.116,2.034,2.034,0,0,1,1.127-1.069,6.006,6.006,0,0,1,2.2-.32,6.409,6.409,0,0,1,2.2.3,1.975,1.975,0,0,1,1.127,1,4.569,4.569,0,0,1,.342,1.956,3.939,3.939,0,0,1-.218,1.469,2.361,2.361,0,0,1-.8.96,2.5,2.5,0,0,1,.8,1.105,5.687,5.687,0,0,1,.218,1.789,5.093,5.093,0,0,1-.342,2.08,2.038,2.038,0,0,1-1.127,1.062A6.006,6.006,0,0,1,205.091,16.2Zm7.055,2.647a12.415,12.415,0,0,0,1.025-1.585,2.365,2.365,0,0,0,.284-1.047.912.912,0,0,1-.756-.262,1.671,1.671,0,0,1-.2-.975,1.31,1.31,0,0,1,.284-.967,2.144,2.144,0,0,1,2.08,0,1.31,1.31,0,0,1,.284.967,4.675,4.675,0,0,1-.371,1.913,8.293,8.293,0,0,1-1.345,1.956Zm1.673-9.615a1.523,1.523,0,0,1-1.04-.269,1.286,1.286,0,0,1-.284-.953,1.31,1.31,0,0,1,.284-.967,2.144,2.144,0,0,1,2.08,0,1.31,1.31,0,0,1,.284.967,1.286,1.286,0,0,1-.284.953A1.523,1.523,0,0,1,213.818,9.236ZM5.105,64H3.593L.364,55.011H2.095l2.255,6.5,2.3-6.5H8.364Zm7.985.2a4.045,4.045,0,0,1-2.131-.48,2.683,2.683,0,0,1-1.12-1.5,10.993,10.993,0,0,1,0-5.44,2.683,2.683,0,0,1,1.12-1.5,4.045,4.045,0,0,1,2.131-.48,4.085,4.085,0,0,1,2.138.48,2.672,2.672,0,0,1,1.127,1.5,10.993,10.993,0,0,1,0,5.44,2.672,2.672,0,0,1-1.127,1.5A4.085,4.085,0,0,1,13.091,64.2Zm0-1.542a2.059,2.059,0,0,0,1.171-.284,1.586,1.586,0,0,0,.589-.96,10.567,10.567,0,0,0,0-3.825,1.586,1.586,0,0,0-.589-.96,2.059,2.059,0,0,0-1.171-.284,2.022,2.022,0,0,0-1.164.284,1.6,1.6,0,0,0-.582.96,10.567,10.567,0,0,0,0,3.825,1.6,1.6,0,0,0,.582.96A2.022,2.022,0,0,0,13.091,62.662Zm9.949-7.651v7.447h2.545V64H18.822V62.458h2.545V56.553H19.535V55.011ZM21.891,53.7a1.466,1.466,0,0,1-1-.255,1.77,1.77,0,0,1,0-1.876,1.466,1.466,0,0,1,1-.255,1.5,1.5,0,0,1,1,.255,1.731,1.731,0,0,1,0,1.876A1.5,1.5,0,0,1,21.891,53.7Zm8.582,10.5a4.1,4.1,0,0,1-2.131-.473,2.649,2.649,0,0,1-1.12-1.491,11.051,11.051,0,0,1,0-5.455,2.683,2.683,0,0,1,1.12-1.5,4.045,4.045,0,0,1,2.131-.48,5.428,5.428,0,0,1,1.949.349V52.364h1.673V64H32.422v-.1A5.712,5.712,0,0,1,30.473,64.2Zm0-1.542a3.621,3.621,0,0,0,1.476-.225.689.689,0,0,0,.473-.618V58.385a2.211,2.211,0,0,0-.458-1.542,1.952,1.952,0,0,0-1.491-.495,1.983,1.983,0,0,0-1.164.291,1.637,1.637,0,0,0-.582.967,8.074,8.074,0,0,0-.175,1.913,7.978,7.978,0,0,0,.175,1.905,1.6,1.6,0,0,0,.582.953A2.022,2.022,0,0,0,30.473,62.662ZM48,64.2a4.032,4.032,0,0,1-2.1-.465,2.639,2.639,0,0,1-1.105-1.491,8.981,8.981,0,0,1-.342-2.756V52.364h1.673v7.127a8.584,8.584,0,0,0,.167,1.942,1.555,1.555,0,0,0,.567.953A2,2,0,0,0,48,62.662a2.033,2.033,0,0,0,1.149-.276,1.54,1.54,0,0,0,.575-.953,8.584,8.584,0,0,0,.167-1.942V52.364h1.673v7.127a8.981,8.981,0,0,1-.342,2.756,2.628,2.628,0,0,1-1.113,1.491A4.073,4.073,0,0,1,48,64.2Zm5.207,2.444V55.011h1.687V55.1a5.923,5.923,0,0,1,1.935-.291,4.136,4.136,0,0,1,2.138.473,2.639,2.639,0,0,1,1.127,1.491,11.022,11.022,0,0,1,0,5.447,2.673,2.673,0,0,1-1.127,1.505,4.085,4.085,0,0,1-2.138.48,5.312,5.312,0,0,1-1.935-.349v2.793Zm3.622-3.985A2.019,2.019,0,0,0,58,62.371a1.62,1.62,0,0,0,.589-.967,8.074,8.074,0,0,0,.175-1.913,7.978,7.978,0,0,0-.175-1.905A1.581,1.581,0,0,0,58,56.633a2.059,2.059,0,0,0-1.171-.284q-1.935,0-1.935.844v3.433a2.236,2.236,0,0,0,.451,1.542A1.926,1.926,0,0,0,56.829,62.662ZM65.382,64.2a4.1,4.1,0,0,1-2.131-.473,2.649,2.649,0,0,1-1.12-1.491,11.051,11.051,0,0,1,0-5.455,2.683,2.683,0,0,1,1.12-1.5,4.045,4.045,0,0,1,2.131-.48,5.428,5.428,0,0,1,1.949.349V52.364H69V64H67.331v-.1A5.712,5.712,0,0,1,65.382,64.2Zm0-1.542a3.621,3.621,0,0,0,1.476-.225.689.689,0,0,0,.473-.618V58.385a2.211,2.211,0,0,0-.458-1.542,1.952,1.952,0,0,0-1.491-.495,1.983,1.983,0,0,0-1.164.291,1.637,1.637,0,0,0-.582.967,8.074,8.074,0,0,0-.175,1.913,7.978,7.978,0,0,0,.175,1.905,1.6,1.6,0,0,0,.582.953A2.022,2.022,0,0,0,65.382,62.662ZM73.949,64.2a5.928,5.928,0,0,1-2.058-.291A2.029,2.029,0,0,1,70.785,63a3.413,3.413,0,0,1-.342-1.651,3.839,3.839,0,0,1,.342-1.8,1.864,1.864,0,0,1,1.091-.887,6.687,6.687,0,0,1,2.073-.255h1.833v-.32a2.339,2.339,0,0,0-.153-.945.89.89,0,0,0-.545-.473,3.589,3.589,0,0,0-1.135-.138,2.7,2.7,0,0,0-.931.124.937.937,0,0,0-.495.444,4.254,4.254,0,0,0-.335.975l-1.6-.393a5.841,5.841,0,0,1,.655-1.658,2.381,2.381,0,0,1,1.047-.924,4.01,4.01,0,0,1,1.658-.3,3.725,3.725,0,0,1,2.7.807,3.377,3.377,0,0,1,.807,2.48v3.4a1.722,1.722,0,0,0,.116.785.54.54,0,0,0,.495.189q.116,0,.524-.029v1.542q-.175.015-.48.015a2.17,2.17,0,0,1-1.745-.582,2.2,2.2,0,0,1-.975.6A4.89,4.89,0,0,1,73.949,64.2Zm0-1.542a2.893,2.893,0,0,0,1.135-.175.992.992,0,0,0,.545-.6,3.766,3.766,0,0,0,.153-1.222v-.713H73.949a5.973,5.973,0,0,0-1.178.08.7.7,0,0,0-.495.364,2.247,2.247,0,0,0-.145.953,1.75,1.75,0,0,0,.145.807.842.842,0,0,0,.531.385A4.211,4.211,0,0,0,73.949,62.662ZM83.855,64.2a3.437,3.437,0,0,1-1.7-.364,2.133,2.133,0,0,1-.938-1.156,6.047,6.047,0,0,1-.3-2.087V56.378h-1.8V54.836h1.8V52.364h1.673v2.473H85.6v1.542H82.589V60.6a5.233,5.233,0,0,0,.116,1.258,1.034,1.034,0,0,0,.385.625,1.357,1.357,0,0,0,.764.182,2.958,2.958,0,0,0,.778-.073.575.575,0,0,0,.349-.262,3.591,3.591,0,0,0,.255-.655l1.571.538A3.335,3.335,0,0,1,86.24,63.4a1.945,1.945,0,0,1-.909.618A4.729,4.729,0,0,1,83.855,64.2Zm7.825-1.542a2.4,2.4,0,0,0,1.244-.3,3.693,3.693,0,0,0,1.04-1.055L95.3,62.2a4.8,4.8,0,0,1-1.535,1.571,4.269,4.269,0,0,1-2.087.436,4.986,4.986,0,0,1-2.305-.436,2.492,2.492,0,0,1-1.178-1.44,8.777,8.777,0,0,1-.356-2.822,8.777,8.777,0,0,1,.356-2.822,2.492,2.492,0,0,1,1.178-1.44,4.986,4.986,0,0,1,2.305-.436,4.5,4.5,0,0,1,2.262.473A2.658,2.658,0,0,1,95.1,56.858a10.751,10.751,0,0,1,.349,3.1h-5.92a5.414,5.414,0,0,0,.262,1.615,1.53,1.53,0,0,0,.669.836A2.49,2.49,0,0,0,91.68,62.662Zm0-6.313a2.179,2.179,0,0,0-1.542.458,2.493,2.493,0,0,0-.582,1.607h4.175a3.266,3.266,0,0,0-.189-1.244,1.157,1.157,0,0,0-.633-.633A3.218,3.218,0,0,0,91.68,56.349Zm11.2,9.76a3.776,3.776,0,0,1-2.575-.989,6.347,6.347,0,0,1-1.731-2.785,14.42,14.42,0,0,1,0-8.305,6.347,6.347,0,0,1,1.731-2.785,3.776,3.776,0,0,1,2.575-.989V51.8a2.25,2.25,0,0,0-1.695.793,5.4,5.4,0,0,0-1.142,2.24,14,14,0,0,0,0,6.705,5.4,5.4,0,0,0,1.142,2.24,2.25,2.25,0,0,0,1.695.793Zm3.709-1.542a2.25,2.25,0,0,0,1.695-.793,5.4,5.4,0,0,0,1.142-2.24,14,14,0,0,0,0-6.705,5.4,5.4,0,0,0-1.142-2.24,2.25,2.25,0,0,0-1.695-.793V50.255a3.776,3.776,0,0,1,2.575.989,6.347,6.347,0,0,1,1.731,2.785,14.42,14.42,0,0,1,0,8.305,6.347,6.347,0,0,1-1.731,2.785,3.776,3.776,0,0,1-2.575.989ZM7.418,90.109a5.169,5.169,0,0,1-3.127-.749,2.827,2.827,0,0,1-.975-2.393,7.828,7.828,0,0,1,.145-1.309,7.652,7.652,0,0,0,.116-.989,1.626,1.626,0,0,0-.509-.844q-.509-.567-1.658-1.644,1.149-1.105,1.658-1.673a1.607,1.607,0,0,0,.509-.873,5.917,5.917,0,0,0-.116-.887,7.185,7.185,0,0,1-.145-1.338,2.849,2.849,0,0,1,.975-2.4,5.131,5.131,0,0,1,3.127-.756v1.556a5.429,5.429,0,0,0-1.455.153,1.29,1.29,0,0,0-.756.509,1.814,1.814,0,0,0-.233,1,4.866,4.866,0,0,0,.145,1.12,3.8,3.8,0,0,1,.131.9,2.582,2.582,0,0,1-.393,1.36,5.392,5.392,0,0,1-1.236,1.331,5.174,5.174,0,0,1,1.244,1.295,2.507,2.507,0,0,1,.385,1.338,4.536,4.536,0,0,1-.116.887,5.792,5.792,0,0,0-.145,1.222,1.789,1.789,0,0,0,.225.975,1.269,1.269,0,0,0,.749.5,5.429,5.429,0,0,0,1.455.153Zm33.076,12.9v7.447H43.04V112H36.276v-1.542h2.545v-5.905H36.989v-1.542ZM39.345,101.7a1.466,1.466,0,0,1-1-.255,1.77,1.77,0,0,1,0-1.876,1.466,1.466,0,0,1,1-.255,1.5,1.5,0,0,1,1,.255,1.731,1.731,0,0,1,0,1.876A1.5,1.5,0,0,1,39.345,101.7Zm9.847-1.542a5.413,5.413,0,0,1,1.578.189,1.982,1.982,0,0,1,.96.618,3.1,3.1,0,0,1,.56,1.185l-1.571.538a2.3,2.3,0,0,0-.24-.64.68.68,0,0,0-.4-.269,3.511,3.511,0,0,0-.887-.08,2.369,2.369,0,0,0-.975.153.873.873,0,0,0-.451.538,3.9,3.9,0,0,0-.131,1.171v.844h2.589v1.542H47.636V112H45.964v-6.051h-1.8v-1.542h1.8v-.844a5.218,5.218,0,0,1,.313-2,2.015,2.015,0,0,1,1.018-1.069A4.486,4.486,0,0,1,49.193,100.16Zm18.778,13.949a3.776,3.776,0,0,1-2.575-.989,6.347,6.347,0,0,1-1.731-2.785,14.42,14.42,0,0,1,0-8.305A6.347,6.347,0,0,1,65.4,99.244a3.776,3.776,0,0,1,2.575-.989V99.8a2.25,2.25,0,0,0-1.695.793,5.4,5.4,0,0,0-1.142,2.24,14,14,0,0,0,0,6.705,5.4,5.4,0,0,0,1.142,2.24,2.25,2.25,0,0,0,1.695.793ZM78.56,100.364v1.542H75.025V112H73.353V101.905H69.8v-1.542Zm5.571,2.647v7.447h2.545V112H79.913v-1.542h2.545v-5.905H80.625v-1.542ZM82.982,101.7a1.466,1.466,0,0,1-1-.255,1.77,1.77,0,0,1,0-1.876,1.466,1.466,0,0,1,1-.255,1.5,1.5,0,0,1,1,.255,1.731,1.731,0,0,1,0,1.876A1.5,1.5,0,0,1,82.982,101.7Zm4.64,10.3v-8.989h1.673v-.058q.116-.029.436-.087a3.213,3.213,0,0,1,.567-.058,2.057,2.057,0,0,1,.9.16,1.709,1.709,0,0,1,.611.582,1.9,1.9,0,0,1,1.658-.742,2.145,2.145,0,0,1,1.309.349,1.99,1.99,0,0,1,.669,1.149,9.47,9.47,0,0,1,.2,2.225V112H93.978v-5.469a7.751,7.751,0,0,0-.109-1.593q-.109-.444-.4-.444a.8.8,0,0,0-.778.407,3.533,3.533,0,0,0-.211,1.469V112H90.807v-5.382a7.924,7.924,0,0,0-.116-1.651q-.116-.473-.393-.473a.812.812,0,0,0-.785.407,3.426,3.426,0,0,0-.218,1.469V112Zm12.785-1.338a2.4,2.4,0,0,0,1.244-.3,3.693,3.693,0,0,0,1.04-1.055l1.338.887a4.8,4.8,0,0,1-1.535,1.571,4.269,4.269,0,0,1-2.087.436,4.986,4.986,0,0,1-2.305-.436,2.492,2.492,0,0,1-1.178-1.44,11.35,11.35,0,0,1,0-5.644,2.492,2.492,0,0,1,1.178-1.44,4.986,4.986,0,0,1,2.305-.436,4.5,4.5,0,0,1,2.262.473,2.658,2.658,0,0,1,1.156,1.578,10.751,10.751,0,0,1,.349,3.1h-5.92a5.414,5.414,0,0,0,.262,1.615,1.53,1.53,0,0,0,.669.836A2.49,2.49,0,0,0,100.407,110.662Zm0-6.313a2.179,2.179,0,0,0-1.542.458,2.493,2.493,0,0,0-.582,1.607h4.175a3.266,3.266,0,0,0-.189-1.244,1.157,1.157,0,0,0-.633-.633A3.218,3.218,0,0,0,100.407,104.349Zm8.684,7.855a1.523,1.523,0,0,1-1.04-.269,1.286,1.286,0,0,1-.284-.953,1.31,1.31,0,0,1,.284-.967,2.144,2.144,0,0,1,2.08,0,1.31,1.31,0,0,1,.284.967,1.286,1.286,0,0,1-.284.953A1.523,1.523,0,0,1,109.091,112.2Zm9.92-12.044a5.413,5.413,0,0,1,1.578.189,1.982,1.982,0,0,1,.96.618,3.1,3.1,0,0,1,.56,1.185l-1.571.538a2.3,2.3,0,0,0-.24-.64.68.68,0,0,0-.4-.269,3.511,3.511,0,0,0-.887-.08,2.369,2.369,0,0,0-.975.153.873.873,0,0,0-.451.538,3.9,3.9,0,0,0-.131,1.171v.844h2.589v1.542h-2.589V112h-1.673v-6.051h-1.8v-1.542h1.8v-.844a5.218,5.218,0,0,1,.313-2,2.015,2.015,0,0,1,1.018-1.069A4.486,4.486,0,0,1,119.011,100.16ZM123.535,112v-8.989h1.673v.742a3.2,3.2,0,0,1,.9-.662,2.575,2.575,0,0,1,1.193-.284,3.724,3.724,0,0,1,1.4.225,2.338,2.338,0,0,1,.953.727,4.912,4.912,0,0,1,.72,1.389l-1.5.684a5.212,5.212,0,0,0-.378-.945.95.95,0,0,0-.444-.422,1.938,1.938,0,0,0-.749-.116,1.747,1.747,0,0,0-1.615.778,4.348,4.348,0,0,0-.48,2.262V112Zm11.505.2a5.928,5.928,0,0,1-2.058-.291,2.029,2.029,0,0,1-1.105-.909,3.413,3.413,0,0,1-.342-1.651,3.839,3.839,0,0,1,.342-1.8,1.864,1.864,0,0,1,1.091-.887,6.686,6.686,0,0,1,2.073-.255h1.833v-.32a2.339,2.339,0,0,0-.153-.945.89.89,0,0,0-.545-.473,3.589,3.589,0,0,0-1.135-.138,2.7,2.7,0,0,0-.931.124.937.937,0,0,0-.495.444,4.255,4.255,0,0,0-.335.975l-1.6-.393a5.841,5.841,0,0,1,.655-1.658,2.381,2.381,0,0,1,1.047-.924,4.01,4.01,0,0,1,1.658-.3,3.724,3.724,0,0,1,2.7.807,3.377,3.377,0,0,1,.807,2.48v3.4a1.722,1.722,0,0,0,.116.785.54.54,0,0,0,.495.189q.116,0,.524-.029v1.542q-.175.015-.48.015a2.17,2.17,0,0,1-1.745-.582,2.2,2.2,0,0,1-.975.6A4.89,4.89,0,0,1,135.04,112.2Zm0-1.542a2.894,2.894,0,0,0,1.135-.175.992.992,0,0,0,.545-.6,3.766,3.766,0,0,0,.153-1.222v-.713H135.04a5.972,5.972,0,0,0-1.178.08.7.7,0,0,0-.495.364,2.247,2.247,0,0,0-.145.953,1.75,1.75,0,0,0,.145.807.842.842,0,0,0,.531.385A4.211,4.211,0,0,0,135.04,110.662ZM139.985,112v-8.989h1.673v-.058q.116-.029.436-.087a3.214,3.214,0,0,1,.567-.058,2.057,2.057,0,0,1,.9.16,1.709,1.709,0,0,1,.611.582,1.9,1.9,0,0,1,1.658-.742,2.145,2.145,0,0,1,1.309.349,1.99,1.99,0,0,1,.669,1.149,9.47,9.47,0,0,1,.2,2.225V112h-1.673v-5.469a7.749,7.749,0,0,0-.109-1.593q-.109-.444-.4-.444a.8.8,0,0,0-.778.407,3.532,3.532,0,0,0-.211,1.469V112h-1.673v-5.382a7.924,7.924,0,0,0-.116-1.651q-.116-.473-.393-.473a.812.812,0,0,0-.785.407,3.426,3.426,0,0,0-.218,1.469V112Zm12.785-1.338a2.4,2.4,0,0,0,1.244-.3,3.693,3.693,0,0,0,1.04-1.055l1.338.887a4.8,4.8,0,0,1-1.535,1.571,4.269,4.269,0,0,1-2.087.436,4.986,4.986,0,0,1-2.305-.436,2.492,2.492,0,0,1-1.178-1.44,11.351,11.351,0,0,1,0-5.644,2.492,2.492,0,0,1,1.178-1.44,4.986,4.986,0,0,1,2.305-.436,4.5,4.5,0,0,1,2.262.473,2.658,2.658,0,0,1,1.156,1.578,10.751,10.751,0,0,1,.349,3.1h-5.92a5.415,5.415,0,0,0,.262,1.615,1.53,1.53,0,0,0,.669.836A2.49,2.49,0,0,0,152.771,110.662Zm0-6.313a2.179,2.179,0,0,0-1.542.458,2.493,2.493,0,0,0-.582,1.607h4.175a3.266,3.266,0,0,0-.189-1.244,1.157,1.157,0,0,0-.633-.633A3.218,3.218,0,0,0,152.771,104.349Zm8.9,7.855a4.036,4.036,0,0,1-2.356-.6,3.378,3.378,0,0,1-1.236-1.905,16.571,16.571,0,0,1,0-7.04,3.342,3.342,0,0,1,1.236-1.9,4.074,4.074,0,0,1,2.356-.6,4.446,4.446,0,0,1,1.731.291,2.54,2.54,0,0,1,1.127.953,6.341,6.341,0,0,1,.764,1.811l-1.585.553a6.743,6.743,0,0,0-.48-1.3,1.332,1.332,0,0,0-.582-.6,2.3,2.3,0,0,0-.975-.167,2.115,2.115,0,0,0-1.382.407,2.374,2.374,0,0,0-.705,1.367,17.363,17.363,0,0,0,0,5.4,2.413,2.413,0,0,0,.705,1.375,2.089,2.089,0,0,0,1.382.415,2.3,2.3,0,0,0,.975-.167,1.345,1.345,0,0,0,.582-.582,6.336,6.336,0,0,0,.48-1.273l1.585.538a6.236,6.236,0,0,1-.764,1.789,2.562,2.562,0,0,1-1.12.945A4.435,4.435,0,0,1,161.673,112.2Zm8.509,0a4.045,4.045,0,0,1-2.131-.48,2.683,2.683,0,0,1-1.12-1.5,10.993,10.993,0,0,1,0-5.44,2.683,2.683,0,0,1,1.12-1.5,4.986,4.986,0,0,1,4.269,0,2.672,2.672,0,0,1,1.127,1.5,10.993,10.993,0,0,1,0,5.44,2.672,2.672,0,0,1-1.127,1.5A4.085,4.085,0,0,1,170.182,112.2Zm0-1.542a2.059,2.059,0,0,0,1.171-.284,1.586,1.586,0,0,0,.589-.96,10.567,10.567,0,0,0,0-3.825,1.586,1.586,0,0,0-.589-.96,2.059,2.059,0,0,0-1.171-.284,2.022,2.022,0,0,0-1.164.284,1.6,1.6,0,0,0-.582.96,10.567,10.567,0,0,0,0,3.825,1.6,1.6,0,0,0,.582.96A2.022,2.022,0,0,0,170.182,110.662Zm8.48,1.542a4.063,4.063,0,0,1-1.862-.356,2.081,2.081,0,0,1-.989-1.156,6.29,6.29,0,0,1-.305-2.182v-5.5h1.673v5.5a5.5,5.5,0,0,0,.124,1.353.963.963,0,0,0,.436.625,1.939,1.939,0,0,0,.924.175,4.624,4.624,0,0,0,1.345-.145.981.981,0,0,0,.618-.516,2.68,2.68,0,0,0,.175-1.1v-5.891h1.687V112H180.8v-.145A5.239,5.239,0,0,1,178.662,112.2Zm5.571-.2v-8.989h1.673v.218a5.068,5.068,0,0,1,2.138-.422,4.326,4.326,0,0,1,1.913.342,1.969,1.969,0,0,1,.967,1.149,6.989,6.989,0,0,1,.291,2.276V112h-1.687v-5.425a5.049,5.049,0,0,0-.138-1.345,1.152,1.152,0,0,0-.451-.676,1.64,1.64,0,0,0-.895-.2,4.233,4.233,0,0,0-1.389.167.959.959,0,0,0-.6.589,4.13,4.13,0,0,0-.153,1.309V112Zm13.076.2a3.437,3.437,0,0,1-1.7-.364,2.133,2.133,0,0,1-.938-1.156,6.047,6.047,0,0,1-.3-2.087v-4.218h-1.8v-1.542h1.8v-2.473h1.673v2.473h3.011v1.542h-3.011V108.6a5.233,5.233,0,0,0,.116,1.258,1.034,1.034,0,0,0,.385.625,1.357,1.357,0,0,0,.764.182,2.958,2.958,0,0,0,.778-.073.575.575,0,0,0,.349-.262,3.592,3.592,0,0,0,.255-.655l1.571.538a3.335,3.335,0,0,1-.567,1.185,1.945,1.945,0,0,1-.909.618A4.729,4.729,0,0,1,197.309,112.2Zm14.429-7.04a3.763,3.763,0,0,1-1.484-.233,1.405,1.405,0,0,1-.749-.778,5.335,5.335,0,0,1,0-3.069,1.405,1.405,0,0,1,.749-.778,3.763,3.763,0,0,1,1.484-.233,3.819,3.819,0,0,1,1.491.233,1.43,1.43,0,0,1,.764.778,5.176,5.176,0,0,1,0,3.069,1.43,1.43,0,0,1-.764.778A3.819,3.819,0,0,1,211.738,105.164Zm-.32,5.876h-2.153l6.953-9.716h2.153Zm.32-7.418a.783.783,0,0,0,.64-.218,1.871,1.871,0,0,0,0-1.578.8.8,0,0,0-.64-.211.753.753,0,0,0-.618.211,1.962,1.962,0,0,0,0,1.585A.753.753,0,0,0,211.738,103.622Zm4.131,8.669a3.772,3.772,0,0,1-1.476-.233,1.4,1.4,0,0,1-.756-.778,5.335,5.335,0,0,1,0-3.069,1.4,1.4,0,0,1,.756-.778,3.772,3.772,0,0,1,1.476-.233,3.819,3.819,0,0,1,1.491.233,1.43,1.43,0,0,1,.764.778,5.176,5.176,0,0,1,0,3.069,1.43,1.43,0,0,1-.764.778A3.819,3.819,0,0,1,215.869,112.291Zm0-1.542a.783.783,0,0,0,.64-.218,1.871,1.871,0,0,0,0-1.578.8.8,0,0,0-.64-.211.753.753,0,0,0-.618.211,1.962,1.962,0,0,0,0,1.585A.753.753,0,0,0,215.869,110.749Zm16.625-7.738v7.447h2.545V112h-6.764v-1.542h2.545v-5.905h-1.833v-1.542Zm-1.149-1.309a1.466,1.466,0,0,1-1-.255,1.77,1.77,0,0,1,0-1.876,1.466,1.466,0,0,1,1-.255,1.5,1.5,0,0,1,1,.255,1.731,1.731,0,0,1,0,1.876A1.5,1.5,0,0,1,231.345,101.7ZM236.6,112v-8.989h1.673v.218a5.068,5.068,0,0,1,2.138-.422,4.326,4.326,0,0,1,1.913.342,1.969,1.969,0,0,1,.967,1.149,6.989,6.989,0,0,1,.291,2.276V112h-1.687v-5.425a5.049,5.049,0,0,0-.138-1.345,1.152,1.152,0,0,0-.451-.676,1.64,1.64,0,0,0-.895-.2,4.233,4.233,0,0,0-1.389.167.959.959,0,0,0-.6.589,4.13,4.13,0,0,0-.153,1.309V112Zm13.076.2a3.437,3.437,0,0,1-1.7-.364,2.133,2.133,0,0,1-.938-1.156,6.047,6.047,0,0,1-.3-2.087v-4.218h-1.8v-1.542h1.8v-2.473h1.673v2.473h3.011v1.542h-3.011V108.6a5.233,5.233,0,0,0,.116,1.258,1.034,1.034,0,0,0,.385.625,1.357,1.357,0,0,0,.764.182,2.958,2.958,0,0,0,.778-.073.575.575,0,0,0,.349-.262,3.592,3.592,0,0,0,.255-.655l1.571.538a3.335,3.335,0,0,1-.567,1.185,1.945,1.945,0,0,1-.909.618A4.729,4.729,0,0,1,249.673,112.2Zm7.825-1.542a2.4,2.4,0,0,0,1.244-.3,3.693,3.693,0,0,0,1.04-1.055l1.338.887a4.8,4.8,0,0,1-1.535,1.571,4.269,4.269,0,0,1-2.087.436,4.986,4.986,0,0,1-2.305-.436,2.492,2.492,0,0,1-1.178-1.44,11.351,11.351,0,0,1,0-5.644,2.492,2.492,0,0,1,1.178-1.44,4.986,4.986,0,0,1,2.305-.436,4.5,4.5,0,0,1,2.262.473,2.658,2.658,0,0,1,1.156,1.578,10.752,10.752,0,0,1,.349,3.1h-5.92a5.415,5.415,0,0,0,.262,1.615,1.53,1.53,0,0,0,.669.836A2.49,2.49,0,0,0,257.5,110.662Zm0-6.313a2.179,2.179,0,0,0-1.542.458,2.493,2.493,0,0,0-.582,1.607h4.175a3.266,3.266,0,0,0-.189-1.244,1.157,1.157,0,0,0-.633-.633A3.218,3.218,0,0,0,257.5,104.349ZM263.171,112v-8.989h1.673v.742a3.2,3.2,0,0,1,.9-.662,2.575,2.575,0,0,1,1.193-.284,3.724,3.724,0,0,1,1.4.225,2.338,2.338,0,0,1,.953.727,4.913,4.913,0,0,1,.72,1.389l-1.5.684a5.213,5.213,0,0,0-.378-.945.95.95,0,0,0-.444-.422,1.938,1.938,0,0,0-.749-.116,1.746,1.746,0,0,0-1.615.778,4.348,4.348,0,0,0-.48,2.262V112Zm12.48,0h-1.513l-3.229-8.989h1.731l2.255,6.5,2.3-6.5h1.716Zm7.753.2a5.928,5.928,0,0,1-2.058-.291A2.029,2.029,0,0,1,280.24,111a3.413,3.413,0,0,1-.342-1.651,3.839,3.839,0,0,1,.342-1.8,1.864,1.864,0,0,1,1.091-.887,6.686,6.686,0,0,1,2.073-.255h1.833v-.32a2.339,2.339,0,0,0-.153-.945.89.89,0,0,0-.545-.473,3.589,3.589,0,0,0-1.135-.138,2.7,2.7,0,0,0-.931.124.937.937,0,0,0-.495.444,4.254,4.254,0,0,0-.335.975l-1.6-.393a5.841,5.841,0,0,1,.655-1.658,2.381,2.381,0,0,1,1.047-.924,4.01,4.01,0,0,1,1.658-.3,3.724,3.724,0,0,1,2.7.807,3.377,3.377,0,0,1,.807,2.48v3.4a1.722,1.722,0,0,0,.116.785.54.54,0,0,0,.495.189q.116,0,.524-.029v1.542q-.175.015-.48.015a2.17,2.17,0,0,1-1.745-.582,2.2,2.2,0,0,1-.975.6A4.89,4.89,0,0,1,283.4,112.2Zm0-1.542a2.893,2.893,0,0,0,1.135-.175.992.992,0,0,0,.545-.6,3.766,3.766,0,0,0,.153-1.222v-.713H283.4a5.972,5.972,0,0,0-1.178.08.7.7,0,0,0-.495.364,2.246,2.246,0,0,0-.145.953,1.75,1.75,0,0,0,.145.807.842.842,0,0,0,.531.385A4.211,4.211,0,0,0,283.4,110.662Zm10.458,1.542a3.339,3.339,0,0,1-1.578-.305,1.725,1.725,0,0,1-.8-1.018,6.565,6.565,0,0,1-.24-2.007v-6.967h-1.833v-1.542h3.505v8.509a3.328,3.328,0,0,0,.2,1.4.763.763,0,0,0,.742.385,1.118,1.118,0,0,0,.56-.175,6.833,6.833,0,0,0,.836-.625l.931,1.425a4.459,4.459,0,0,1-1.142.72A3.247,3.247,0,0,1,293.862,112.2Zm28.9-7H305.6v-1.542h17.164Zm0,3.491H305.6v-1.542h17.164ZM336,112.2a2.9,2.9,0,0,1-1.964-.785,5.191,5.191,0,0,1-1.389-2.167,9.636,9.636,0,0,1,0-6.138,5.191,5.191,0,0,1,1.389-2.167,2.847,2.847,0,0,1,3.927,0,5.249,5.249,0,0,1,1.4,2.167,9.506,9.506,0,0,1,0,6.138,5.249,5.249,0,0,1-1.4,2.167A2.9,2.9,0,0,1,336,112.2Zm0-1.542a1.424,1.424,0,0,0,1.062-.6,4.415,4.415,0,0,0,.815-1.629,8.473,8.473,0,0,0,0-4.509,4.415,4.415,0,0,0-.815-1.629,1.243,1.243,0,0,0-2.124,0,4.415,4.415,0,0,0-.815,1.629,8.473,8.473,0,0,0,0,4.509,4.415,4.415,0,0,0,.815,1.629A1.424,1.424,0,0,0,336,110.662Zm0-3.36a1.207,1.207,0,0,1-.858-.313,1.055,1.055,0,0,1-.335-.807,1.015,1.015,0,0,1,.335-.785,1.223,1.223,0,0,1,.858-.305,1.25,1.25,0,0,1,.865.305,1,1,0,0,1,.342.785,1.044,1.044,0,0,1-.342.807A1.233,1.233,0,0,1,336,107.3Zm6.225,5.265a2.25,2.25,0,0,0,1.695-.793,5.4,5.4,0,0,0,1.142-2.24,14,14,0,0,0,0-6.705,5.4,5.4,0,0,0-1.142-2.24,2.25,2.25,0,0,0-1.695-.793V98.255a3.776,3.776,0,0,1,2.575.989,6.346,6.346,0,0,1,1.731,2.785,14.42,14.42,0,0,1,0,8.305,6.346,6.346,0,0,1-1.731,2.785,3.776,3.776,0,0,1-2.575.989Zm-299.9,25.542a5.169,5.169,0,0,1-3.127-.749,2.827,2.827,0,0,1-.975-2.393,7.828,7.828,0,0,1,.145-1.309,7.652,7.652,0,0,0,.116-.989,1.626,1.626,0,0,0-.509-.844q-.509-.567-1.658-1.644,1.149-1.105,1.658-1.673a1.607,1.607,0,0,0,.509-.873,5.917,5.917,0,0,0-.116-.887,7.185,7.185,0,0,1-.145-1.338,2.849,2.849,0,0,1,.975-2.4,5.131,5.131,0,0,1,3.127-.756v1.556a5.429,5.429,0,0,0-1.455.153,1.29,1.29,0,0,0-.756.509,1.814,1.814,0,0,0-.233,1,4.866,4.866,0,0,0,.145,1.12,3.8,3.8,0,0,1,.131.9,2.582,2.582,0,0,1-.393,1.36,5.392,5.392,0,0,1-1.236,1.331,5.174,5.174,0,0,1,1.244,1.295,2.507,2.507,0,0,1,.385,1.338,4.536,4.536,0,0,1-.116.887,5.792,5.792,0,0,0-.145,1.222,1.789,1.789,0,0,0,.225.975,1.269,1.269,0,0,0,.749.5,5.429,5.429,0,0,0,1.455.153Zm35.622,10.255v1.542h-5.44v3.171H76v1.542H72.509v3.84h5.44V160H70.836V148.364Zm6.967,2.647h1.92l-2.967,4.495L86.836,160h-1.92l-2.007-3.04L80.9,160h-1.92l2.967-4.495-2.967-4.495H80.9l2.007,3.04ZM91.4,160.2a5.927,5.927,0,0,1-2.058-.291A2.029,2.029,0,0,1,88.24,159a3.413,3.413,0,0,1-.342-1.651,3.839,3.839,0,0,1,.342-1.8,1.864,1.864,0,0,1,1.091-.887,6.687,6.687,0,0,1,2.073-.255h1.833v-.32a2.339,2.339,0,0,0-.153-.945.89.89,0,0,0-.545-.473,3.589,3.589,0,0,0-1.135-.138,2.7,2.7,0,0,0-.931.124.937.937,0,0,0-.495.444,4.255,4.255,0,0,0-.335.975l-1.6-.393a5.841,5.841,0,0,1,.655-1.658,2.381,2.381,0,0,1,1.047-.924,4.01,4.01,0,0,1,1.658-.3,3.724,3.724,0,0,1,2.7.807,3.377,3.377,0,0,1,.807,2.48v3.4a1.722,1.722,0,0,0,.116.785.54.54,0,0,0,.495.189q.116,0,.524-.029v1.542q-.175.015-.48.015a2.17,2.17,0,0,1-1.745-.582,2.2,2.2,0,0,1-.975.6A4.889,4.889,0,0,1,91.4,160.2Zm0-1.542a2.893,2.893,0,0,0,1.135-.175.992.992,0,0,0,.545-.6,3.766,3.766,0,0,0,.153-1.222v-.713H91.4a5.973,5.973,0,0,0-1.178.08.7.7,0,0,0-.495.364,2.247,2.247,0,0,0-.145.953,1.75,1.75,0,0,0,.145.807.842.842,0,0,0,.531.385A4.211,4.211,0,0,0,91.4,158.662ZM96.349,160v-8.989h1.673v-.058q.116-.029.436-.087a3.213,3.213,0,0,1,.567-.058,2.057,2.057,0,0,1,.9.16,1.709,1.709,0,0,1,.611.582,1.9,1.9,0,0,1,1.658-.742,2.145,2.145,0,0,1,1.309.349,1.99,1.99,0,0,1,.669,1.149,9.47,9.47,0,0,1,.2,2.225V160h-1.673v-5.469a7.751,7.751,0,0,0-.109-1.593q-.109-.444-.4-.444a.8.8,0,0,0-.778.407,3.532,3.532,0,0,0-.211,1.469V160H99.535v-5.382a7.924,7.924,0,0,0-.116-1.651q-.116-.473-.393-.473a.812.812,0,0,0-.785.407,3.426,3.426,0,0,0-.218,1.469V160Zm9.222,2.647V151.011h1.687v.087a5.923,5.923,0,0,1,1.935-.291,4.136,4.136,0,0,1,2.138.473,2.639,2.639,0,0,1,1.127,1.491,11.022,11.022,0,0,1,0,5.447,2.673,2.673,0,0,1-1.127,1.505,4.085,4.085,0,0,1-2.138.48,5.312,5.312,0,0,1-1.935-.349v2.793Zm3.622-3.985a2.019,2.019,0,0,0,1.171-.291,1.62,1.62,0,0,0,.589-.967,8.074,8.074,0,0,0,.175-1.913,7.978,7.978,0,0,0-.175-1.905,1.581,1.581,0,0,0-.589-.953,2.059,2.059,0,0,0-1.171-.284q-1.935,0-1.935.844v3.433a2.236,2.236,0,0,0,.451,1.542A1.926,1.926,0,0,0,109.193,158.662Zm10.124,1.542a3.339,3.339,0,0,1-1.578-.305,1.725,1.725,0,0,1-.8-1.018,6.565,6.565,0,0,1-.24-2.007v-6.967h-1.833v-1.542h3.505v8.509a3.328,3.328,0,0,0,.2,1.4.763.763,0,0,0,.742.385,1.118,1.118,0,0,0,.56-.175,6.832,6.832,0,0,0,.836-.625l.931,1.425a4.459,4.459,0,0,1-1.142.72A3.247,3.247,0,0,1,119.316,160.2Zm7.273-1.542a2.4,2.4,0,0,0,1.244-.3,3.693,3.693,0,0,0,1.04-1.055l1.338.887a4.8,4.8,0,0,1-1.535,1.571,4.269,4.269,0,0,1-2.087.436,4.986,4.986,0,0,1-2.305-.436,2.492,2.492,0,0,1-1.178-1.44,11.35,11.35,0,0,1,0-5.644,2.492,2.492,0,0,1,1.178-1.44,4.986,4.986,0,0,1,2.305-.436,4.5,4.5,0,0,1,2.262.473,2.658,2.658,0,0,1,1.156,1.578,10.751,10.751,0,0,1,.349,3.1h-5.92a5.414,5.414,0,0,0,.262,1.615,1.53,1.53,0,0,0,.669.836A2.49,2.49,0,0,0,126.589,158.662Zm0-6.313a2.179,2.179,0,0,0-1.542.458,2.493,2.493,0,0,0-.582,1.607h4.175a3.266,3.266,0,0,0-.189-1.244,1.157,1.157,0,0,0-.633-.633A3.218,3.218,0,0,0,126.589,152.349Zm12.451-3.985v1.542H133.6v3.171h3.491v1.542H133.6v3.84h5.44V160h-7.113V148.364Zm6.967,2.647h1.92l-2.967,4.495L147.927,160h-1.92L144,156.96,141.993,160h-1.92l2.967-4.495-2.967-4.495h1.92l2.007,3.04Zm3.2,11.636V151.011h1.687v.087a5.923,5.923,0,0,1,1.935-.291,4.136,4.136,0,0,1,2.138.473,2.639,2.639,0,0,1,1.127,1.491,11.022,11.022,0,0,1,0,5.447,2.673,2.673,0,0,1-1.127,1.505,4.085,4.085,0,0,1-2.138.48,5.312,5.312,0,0,1-1.935-.349v2.793Zm3.622-3.985a2.019,2.019,0,0,0,1.171-.291,1.62,1.62,0,0,0,.589-.967,8.074,8.074,0,0,0,.175-1.913,7.978,7.978,0,0,0-.175-1.905,1.581,1.581,0,0,0-.589-.953,2.059,2.059,0,0,0-1.171-.284q-1.935,0-1.935.844v3.433a2.236,2.236,0,0,0,.451,1.542A1.927,1.927,0,0,0,152.829,158.662Zm8.669,0a2.4,2.4,0,0,0,1.244-.3,3.693,3.693,0,0,0,1.04-1.055l1.338.887a4.8,4.8,0,0,1-1.535,1.571,4.269,4.269,0,0,1-2.087.436,4.986,4.986,0,0,1-2.305-.436,2.492,2.492,0,0,1-1.178-1.44,11.351,11.351,0,0,1,0-5.644,2.492,2.492,0,0,1,1.178-1.44,4.986,4.986,0,0,1,2.305-.436,4.5,4.5,0,0,1,2.262.473,2.658,2.658,0,0,1,1.156,1.578,10.751,10.751,0,0,1,.349,3.1h-5.92a5.415,5.415,0,0,0,.262,1.615,1.53,1.53,0,0,0,.669.836A2.49,2.49,0,0,0,161.5,158.662Zm0-6.313a2.179,2.179,0,0,0-1.542.458,2.493,2.493,0,0,0-.582,1.607h4.175a3.266,3.266,0,0,0-.189-1.244,1.157,1.157,0,0,0-.633-.633A3.218,3.218,0,0,0,161.5,152.349Zm5.28,7.651v-8.989h1.673v.218a5.068,5.068,0,0,1,2.138-.422,4.326,4.326,0,0,1,1.913.342,1.969,1.969,0,0,1,.967,1.149,6.989,6.989,0,0,1,.291,2.276V160h-1.687v-5.425a5.049,5.049,0,0,0-.138-1.345,1.152,1.152,0,0,0-.451-.676,1.64,1.64,0,0,0-.895-.2,4.233,4.233,0,0,0-1.389.167.959.959,0,0,0-.6.589,4.13,4.13,0,0,0-.153,1.309V160Zm11.767.2a3.616,3.616,0,0,1-1.913-.436,3.778,3.778,0,0,1-1.273-1.542l1.324-1.091a6.143,6.143,0,0,0,.5.975,1.149,1.149,0,0,0,.516.429,2.313,2.313,0,0,0,.844.124,7.306,7.306,0,0,0,1.513-.116,1.122,1.122,0,0,0,.7-.385,1.346,1.346,0,0,0,.189-.778,1.389,1.389,0,0,0-.153-.742.941.941,0,0,0-.545-.349,9.326,9.326,0,0,0-1.324-.233,5.729,5.729,0,0,1-2.545-.778,2.021,2.021,0,0,1-.785-1.767,2.95,2.95,0,0,1,.364-1.564,2.114,2.114,0,0,1,1.164-.865,6.786,6.786,0,0,1,2.153-.276,4.309,4.309,0,0,1,1.993.378,3.513,3.513,0,0,1,1.295,1.338l-1.222,1.193a5.357,5.357,0,0,0-.553-.873,1.227,1.227,0,0,0-.567-.385,3.191,3.191,0,0,0-.945-.109,5.831,5.831,0,0,0-1.258.1.916.916,0,0,0-.589.349,1.315,1.315,0,0,0-.16.713.711.711,0,0,0,.175.524,1.107,1.107,0,0,0,.524.262q.349.087,1.076.189a10.274,10.274,0,0,1,2.145.5,2.154,2.154,0,0,1,1.105.858,2.938,2.938,0,0,1,.342,1.535,2.973,2.973,0,0,1-.4,1.636,2.294,2.294,0,0,1-1.295.9A8.161,8.161,0,0,1,178.545,160.2Zm10.313-9.193v7.447H191.4V160H184.64v-1.542h2.545v-5.905h-1.833v-1.542Zm-1.149-1.309a1.466,1.466,0,0,1-1-.255,1.77,1.77,0,0,1,0-1.876,1.466,1.466,0,0,1,1-.255,1.5,1.5,0,0,1,1,.255,1.731,1.731,0,0,1,0,1.876A1.5,1.5,0,0,1,187.709,149.7Zm9.4,10.3h-1.513l-3.229-8.989h1.731l2.255,6.5,2.3-6.5h1.716Zm8.029-1.338a2.4,2.4,0,0,0,1.244-.3,3.693,3.693,0,0,0,1.04-1.055l1.338.887a4.8,4.8,0,0,1-1.535,1.571,4.269,4.269,0,0,1-2.087.436,4.986,4.986,0,0,1-2.305-.436,2.492,2.492,0,0,1-1.178-1.44,11.351,11.351,0,0,1,0-5.644,2.492,2.492,0,0,1,1.178-1.44,4.986,4.986,0,0,1,2.305-.436,4.5,4.5,0,0,1,2.262.473,2.658,2.658,0,0,1,1.156,1.578,10.751,10.751,0,0,1,.349,3.1h-5.92a5.415,5.415,0,0,0,.262,1.615,1.53,1.53,0,0,0,.669.836A2.49,2.49,0,0,0,205.135,158.662Zm0-6.313a2.179,2.179,0,0,0-1.542.458,2.493,2.493,0,0,0-.582,1.607h4.175a3.266,3.266,0,0,0-.189-1.244,1.157,1.157,0,0,0-.633-.633A3.218,3.218,0,0,0,205.135,152.349Zm12.465-3.985v1.542h-5.44v3.84h3.476v1.542H212.16V160h-1.673V148.364Zm4.7,11.84a4.063,4.063,0,0,1-1.862-.356,2.081,2.081,0,0,1-.989-1.156,6.29,6.29,0,0,1-.305-2.182v-5.5h1.673v5.5a5.5,5.5,0,0,0,.124,1.353.962.962,0,0,0,.436.625,1.939,1.939,0,0,0,.924.175,4.624,4.624,0,0,0,1.345-.145.981.981,0,0,0,.618-.516,2.68,2.68,0,0,0,.175-1.1v-5.891h1.687V160h-1.687v-.145A5.239,5.239,0,0,1,222.3,160.2Zm5.571-.2v-8.989h1.673v.218a5.068,5.068,0,0,1,2.138-.422,4.326,4.326,0,0,1,1.913.342,1.969,1.969,0,0,1,.967,1.149,6.989,6.989,0,0,1,.291,2.276V160h-1.687v-5.425a5.049,5.049,0,0,0-.138-1.345,1.152,1.152,0,0,0-.451-.676,1.64,1.64,0,0,0-.895-.2,4.233,4.233,0,0,0-1.389.167.959.959,0,0,0-.6.589,4.13,4.13,0,0,0-.153,1.309V160Zm12.393.2a4.717,4.717,0,0,1-2.3-.473,2.687,2.687,0,0,1-1.215-1.491,10.266,10.266,0,0,1,0-5.469,2.671,2.671,0,0,1,1.229-1.491,4.878,4.878,0,0,1,2.342-.473,3.928,3.928,0,0,1,2.022.451,4.57,4.57,0,0,1,1.455,1.6l-1.4.829a5.922,5.922,0,0,0-.625-.844,1.431,1.431,0,0,0-.589-.385,3.522,3.522,0,0,0-2.255.175,1.544,1.544,0,0,0-.684.953,9.485,9.485,0,0,0,0,3.84,1.574,1.574,0,0,0,.662.953,2.627,2.627,0,0,0,1.353.284,2.726,2.726,0,0,0,.865-.116,1.62,1.62,0,0,0,.625-.4,5.753,5.753,0,0,0,.662-.851l1.382.844a4.737,4.737,0,0,1-1.491,1.615A4,4,0,0,1,240.262,160.2Zm9.411,0a3.437,3.437,0,0,1-1.7-.364,2.133,2.133,0,0,1-.938-1.156,6.047,6.047,0,0,1-.3-2.087v-4.218h-1.8v-1.542h1.8v-2.473h1.673v2.473h3.011v1.542h-3.011V156.6a5.233,5.233,0,0,0,.116,1.258,1.034,1.034,0,0,0,.385.625,1.357,1.357,0,0,0,.764.182,2.958,2.958,0,0,0,.778-.073.575.575,0,0,0,.349-.262,3.592,3.592,0,0,0,.255-.655l1.571.538a3.335,3.335,0,0,1-.567,1.185,1.945,1.945,0,0,1-.909.618A4.729,4.729,0,0,1,249.673,160.2Zm9-9.193v7.447h2.545V160h-6.764v-1.542H257v-5.905h-1.833v-1.542Zm-1.149-1.309a1.466,1.466,0,0,1-1-.255,1.77,1.77,0,0,1,0-1.876,1.466,1.466,0,0,1,1-.255,1.5,1.5,0,0,1,1,.255,1.731,1.731,0,0,1,0,1.876A1.5,1.5,0,0,1,257.527,149.7Zm8.655,10.5a4.045,4.045,0,0,1-2.131-.48,2.683,2.683,0,0,1-1.12-1.5,10.993,10.993,0,0,1,0-5.44,2.683,2.683,0,0,1,1.12-1.5,4.986,4.986,0,0,1,4.269,0,2.672,2.672,0,0,1,1.127,1.5,10.993,10.993,0,0,1,0,5.44,2.672,2.672,0,0,1-1.127,1.5A4.085,4.085,0,0,1,266.182,160.2Zm0-1.542a2.059,2.059,0,0,0,1.171-.284,1.586,1.586,0,0,0,.589-.96,10.567,10.567,0,0,0,0-3.825,1.586,1.586,0,0,0-.589-.96,2.059,2.059,0,0,0-1.171-.284,2.022,2.022,0,0,0-1.164.284,1.6,1.6,0,0,0-.582.96,10.567,10.567,0,0,0,0,3.825,1.6,1.6,0,0,0,.582.96A2.022,2.022,0,0,0,266.182,158.662ZM271.505,160v-8.989h1.673v.218a5.068,5.068,0,0,1,2.138-.422,4.326,4.326,0,0,1,1.913.342,1.969,1.969,0,0,1,.967,1.149,6.989,6.989,0,0,1,.291,2.276V160H276.8v-5.425a5.049,5.049,0,0,0-.138-1.345,1.152,1.152,0,0,0-.451-.676,1.64,1.64,0,0,0-.895-.2,4.233,4.233,0,0,0-1.389.167.959.959,0,0,0-.6.589,4.13,4.13,0,0,0-.153,1.309V160Zm14.647,2.109a3.776,3.776,0,0,1-2.575-.989,6.346,6.346,0,0,1-1.731-2.785,14.419,14.419,0,0,1,0-8.305,6.346,6.346,0,0,1,1.731-2.785,3.776,3.776,0,0,1,2.575-.989V147.8a2.25,2.25,0,0,0-1.695.793,5.4,5.4,0,0,0-1.142,2.24,14,14,0,0,0,0,6.705,5.4,5.4,0,0,0,1.142,2.24,2.25,2.25,0,0,0,1.695.793Zm3.709-1.542a2.25,2.25,0,0,0,1.695-.793,5.4,5.4,0,0,0,1.142-2.24,14,14,0,0,0,0-6.705,5.4,5.4,0,0,0-1.142-2.24,2.25,2.25,0,0,0-1.695-.793v-1.542a3.776,3.776,0,0,1,2.575.989,6.346,6.346,0,0,1,1.731,2.785,14.42,14.42,0,0,1,0,8.305,6.346,6.346,0,0,1-1.731,2.785,3.776,3.776,0,0,1-2.575.989Zm9.556,2.284a12.414,12.414,0,0,0,1.025-1.585,2.365,2.365,0,0,0,.284-1.047.912.912,0,0,1-.756-.262,1.671,1.671,0,0,1-.2-.975,1.31,1.31,0,0,1,.284-.967,2.144,2.144,0,0,1,2.08,0,1.31,1.31,0,0,1,.284.967,4.674,4.674,0,0,1-.371,1.913,8.294,8.294,0,0,1-1.345,1.956Zm1.673-9.615a1.523,1.523,0,0,1-1.04-.269,1.286,1.286,0,0,1-.284-.953,1.31,1.31,0,0,1,.284-.967,2.144,2.144,0,0,1,2.08,0,1.31,1.31,0,0,1,.284.967,1.285,1.285,0,0,1-.284.953A1.523,1.523,0,0,1,301.091,153.236ZM36.218,184.553a5.429,5.429,0,0,0,1.455-.153,1.3,1.3,0,0,0,.756-.5,1.745,1.745,0,0,0,.233-.975,5.792,5.792,0,0,0-.145-1.222,4.536,4.536,0,0,1-.116-.887,2.543,2.543,0,0,1,.378-1.338,5.043,5.043,0,0,1,1.236-1.295,5.066,5.066,0,0,1-1.229-1.316,2.643,2.643,0,0,1-.385-1.375,3.8,3.8,0,0,1,.131-.9,4.867,4.867,0,0,0,.145-1.12,1.814,1.814,0,0,0-.233-1,1.293,1.293,0,0,0-.764-.509,5.514,5.514,0,0,0-1.462-.153v-1.556a5.165,5.165,0,0,1,3.135.756,2.839,2.839,0,0,1,.982,2.4,7.185,7.185,0,0,1-.145,1.338,5.917,5.917,0,0,0-.116.887,1.664,1.664,0,0,0,.509.887q.509.582,1.644,1.658-1.12,1.047-1.636,1.629a1.679,1.679,0,0,0-.516.858,7.652,7.652,0,0,0,.116.989,7.828,7.828,0,0,1,.145,1.309,2.818,2.818,0,0,1-.982,2.393,5.2,5.2,0,0,1-3.135.749Zm-34.909,24a5.429,5.429,0,0,0,1.455-.153,1.3,1.3,0,0,0,.756-.5,1.745,1.745,0,0,0,.233-.975,5.792,5.792,0,0,0-.145-1.222,4.536,4.536,0,0,1-.116-.887,2.543,2.543,0,0,1,.378-1.338,5.043,5.043,0,0,1,1.236-1.295,5.066,5.066,0,0,1-1.229-1.316,2.643,2.643,0,0,1-.385-1.375,3.8,3.8,0,0,1,.131-.9,4.867,4.867,0,0,0,.145-1.12,1.814,1.814,0,0,0-.233-1,1.293,1.293,0,0,0-.764-.509,5.514,5.514,0,0,0-1.462-.153v-1.556a5.165,5.165,0,0,1,3.135.756,2.839,2.839,0,0,1,.982,2.4,7.185,7.185,0,0,1-.145,1.338,5.917,5.917,0,0,0-.116.887,1.664,1.664,0,0,0,.509.887q.509.582,1.644,1.658-1.12,1.047-1.636,1.629a1.679,1.679,0,0,0-.516.858,7.651,7.651,0,0,0,.116.989,7.828,7.828,0,0,1,.145,1.309,2.818,2.818,0,0,1-.982,2.393,5.2,5.2,0,0,1-3.135.749Z" transform="translate(650.637 24647.684)" fill="#12263f"/>
  </g>
</svg>
