<svg xmlns="http://www.w3.org/2000/svg" width="610" height="313" viewBox="0 0 610 313">
  <g id="Grupo_167870" data-name="Grupo 167870" transform="translate(-519 -22578)">
    <g id="Rectángulo_341994" data-name="Rectángulo 341994" transform="translate(519 22578)" fill="#8979f3" stroke="#707070" stroke-width="1" opacity="0.25">
      <rect width="610" height="313" rx="25" stroke="none"/>
      <rect x="0.5" y="0.5" width="609" height="312" rx="24.5" fill="none"/>
    </g>
    <path id="Trazado_688142" data-name="Trazado 688142" d="M44.48,18.647V7.011h1.687V7.1A5.923,5.923,0,0,1,48.1,6.807a4.136,4.136,0,0,1,2.138.473,2.639,2.639,0,0,1,1.127,1.491,8.79,8.79,0,0,1,.342,2.72,8.862,8.862,0,0,1-.342,2.727,2.673,2.673,0,0,1-1.127,1.505,4.085,4.085,0,0,1-2.138.48,5.312,5.312,0,0,1-1.935-.349v2.793ZM48.1,14.662a2.019,2.019,0,0,0,1.171-.291,1.62,1.62,0,0,0,.589-.967,8.074,8.074,0,0,0,.175-1.913,7.978,7.978,0,0,0-.175-1.905,1.581,1.581,0,0,0-.589-.953A2.059,2.059,0,0,0,48.1,8.349q-1.935,0-1.935.844v3.433a2.236,2.236,0,0,0,.451,1.542A1.926,1.926,0,0,0,48.1,14.662ZM53.716,16V7.011h1.673v.742a3.2,3.2,0,0,1,.9-.662,2.575,2.575,0,0,1,1.193-.284,3.724,3.724,0,0,1,1.4.225,2.338,2.338,0,0,1,.953.727,4.912,4.912,0,0,1,.72,1.389l-1.5.684a5.212,5.212,0,0,0-.378-.945.95.95,0,0,0-.444-.422,1.938,1.938,0,0,0-.749-.116,1.747,1.747,0,0,0-1.615.778,4.348,4.348,0,0,0-.48,2.262V16Zm12.96-8.989v7.447h2.545V16H62.458V14.458H65V8.553H63.171V7.011ZM65.527,5.7a1.466,1.466,0,0,1-1-.255,1.276,1.276,0,0,1-.269-.938,1.276,1.276,0,0,1,.269-.938,1.466,1.466,0,0,1,1-.255,1.5,1.5,0,0,1,1,.255,1.253,1.253,0,0,1,.276.938,1.253,1.253,0,0,1-.276.938A1.5,1.5,0,0,1,65.527,5.7Zm9.4,10.3H73.411L70.182,7.011h1.731l2.255,6.5,2.3-6.5h1.716Zm7.753.2a5.928,5.928,0,0,1-2.058-.291A2.029,2.029,0,0,1,79.513,15a3.413,3.413,0,0,1-.342-1.651,3.839,3.839,0,0,1,.342-1.8,1.864,1.864,0,0,1,1.091-.887,6.687,6.687,0,0,1,2.073-.255h1.833v-.32a2.339,2.339,0,0,0-.153-.945.89.89,0,0,0-.545-.473,3.589,3.589,0,0,0-1.135-.138,2.7,2.7,0,0,0-.931.124.937.937,0,0,0-.495.444,4.254,4.254,0,0,0-.335.975l-1.6-.393a5.841,5.841,0,0,1,.655-1.658,2.381,2.381,0,0,1,1.047-.924,4.01,4.01,0,0,1,1.658-.3,3.725,3.725,0,0,1,2.7.807,3.377,3.377,0,0,1,.807,2.48v3.4a1.721,1.721,0,0,0,.116.785.54.54,0,0,0,.495.189q.116,0,.524-.029v1.542q-.175.015-.48.015a2.17,2.17,0,0,1-1.745-.582,2.2,2.2,0,0,1-.975.6A4.89,4.89,0,0,1,82.676,16.2Zm0-1.542a2.893,2.893,0,0,0,1.135-.175.992.992,0,0,0,.545-.6,3.766,3.766,0,0,0,.153-1.222v-.713H82.676a5.973,5.973,0,0,0-1.178.08A.7.7,0,0,0,81,12.4a2.247,2.247,0,0,0-.145.953A1.75,1.75,0,0,0,81,14.16a.842.842,0,0,0,.531.385A4.211,4.211,0,0,0,82.676,14.662ZM92.582,16.2a3.437,3.437,0,0,1-1.7-.364,2.133,2.133,0,0,1-.938-1.156,6.047,6.047,0,0,1-.3-2.087V8.378h-1.8V6.836h1.8V4.364h1.673V6.836h3.011V8.378H91.316V12.6a5.233,5.233,0,0,0,.116,1.258,1.034,1.034,0,0,0,.385.625,1.357,1.357,0,0,0,.764.182,2.958,2.958,0,0,0,.778-.073.575.575,0,0,0,.349-.262,3.591,3.591,0,0,0,.255-.655l1.571.538a3.335,3.335,0,0,1-.567,1.185,1.945,1.945,0,0,1-.909.618A4.729,4.729,0,0,1,92.582,16.2Zm7.825-1.542a2.4,2.4,0,0,0,1.244-.3,3.693,3.693,0,0,0,1.04-1.055l1.338.887a4.8,4.8,0,0,1-1.535,1.571,4.269,4.269,0,0,1-2.087.436,4.986,4.986,0,0,1-2.305-.436,2.492,2.492,0,0,1-1.178-1.44,8.777,8.777,0,0,1-.356-2.822,8.777,8.777,0,0,1,.356-2.822A2.492,2.492,0,0,1,98.1,7.244a4.986,4.986,0,0,1,2.305-.436,4.5,4.5,0,0,1,2.262.473,2.658,2.658,0,0,1,1.156,1.578,10.751,10.751,0,0,1,.349,3.1h-5.92a5.414,5.414,0,0,0,.262,1.615,1.53,1.53,0,0,0,.669.836A2.49,2.49,0,0,0,100.407,14.662Zm0-6.313a2.179,2.179,0,0,0-1.542.458,2.493,2.493,0,0,0-.582,1.607h4.175a3.266,3.266,0,0,0-.189-1.244,1.157,1.157,0,0,0-.633-.633A3.218,3.218,0,0,0,100.407,8.349ZM119.04,7.011v7.447h2.545V16h-6.764V14.458h2.545V8.553h-1.833V7.011ZM117.891,5.7a1.466,1.466,0,0,1-1-.255,1.275,1.275,0,0,1-.269-.938,1.275,1.275,0,0,1,.269-.938,1.466,1.466,0,0,1,1-.255,1.5,1.5,0,0,1,1,.255,1.253,1.253,0,0,1,.276.938,1.253,1.253,0,0,1-.276.938A1.5,1.5,0,0,1,117.891,5.7ZM123.142,16V7.011h1.673v.218a5.068,5.068,0,0,1,2.138-.422,4.326,4.326,0,0,1,1.913.342,1.969,1.969,0,0,1,.967,1.149,6.989,6.989,0,0,1,.291,2.276V16h-1.687V10.575a5.049,5.049,0,0,0-.138-1.345,1.152,1.152,0,0,0-.451-.676,1.64,1.64,0,0,0-.895-.2,4.233,4.233,0,0,0-1.389.167.959.959,0,0,0-.6.589,4.131,4.131,0,0,0-.153,1.309V16Zm13.076.2a3.437,3.437,0,0,1-1.7-.364,2.133,2.133,0,0,1-.938-1.156,6.047,6.047,0,0,1-.3-2.087V8.378h-1.8V6.836h1.8V4.364h1.673V6.836h3.011V8.378h-3.011V12.6a5.233,5.233,0,0,0,.116,1.258,1.034,1.034,0,0,0,.385.625,1.357,1.357,0,0,0,.764.182,2.958,2.958,0,0,0,.778-.073.575.575,0,0,0,.349-.262,3.592,3.592,0,0,0,.255-.655l1.571.538A3.335,3.335,0,0,1,138.6,15.4a1.945,1.945,0,0,1-.909.618A4.729,4.729,0,0,1,136.218,16.2Zm16.145,0a3.616,3.616,0,0,1-1.913-.436,3.778,3.778,0,0,1-1.273-1.542l1.324-1.091a6.143,6.143,0,0,0,.5.975,1.149,1.149,0,0,0,.516.429,2.313,2.313,0,0,0,.844.124,7.306,7.306,0,0,0,1.513-.116,1.122,1.122,0,0,0,.7-.385,1.346,1.346,0,0,0,.189-.778,1.389,1.389,0,0,0-.153-.742.941.941,0,0,0-.545-.349,9.326,9.326,0,0,0-1.324-.233,5.729,5.729,0,0,1-2.545-.778,2.021,2.021,0,0,1-.785-1.767,2.951,2.951,0,0,1,.364-1.564,2.114,2.114,0,0,1,1.164-.865,6.786,6.786,0,0,1,2.153-.276,4.309,4.309,0,0,1,1.993.378,3.513,3.513,0,0,1,1.295,1.338l-1.222,1.193a5.357,5.357,0,0,0-.553-.873,1.227,1.227,0,0,0-.567-.385,3.191,3.191,0,0,0-.945-.109,5.832,5.832,0,0,0-1.258.1.916.916,0,0,0-.589.349,1.315,1.315,0,0,0-.16.713.711.711,0,0,0,.175.524,1.107,1.107,0,0,0,.524.262q.349.087,1.076.189a10.274,10.274,0,0,1,2.145.5,2.154,2.154,0,0,1,1.105.858,2.938,2.938,0,0,1,.342,1.535,2.973,2.973,0,0,1-.4,1.636,2.294,2.294,0,0,1-1.295.9A8.161,8.161,0,0,1,152.364,16.2Zm9.353,0a4.717,4.717,0,0,1-2.3-.473A2.687,2.687,0,0,1,158.2,14.24a8.2,8.2,0,0,1-.371-2.735,8.2,8.2,0,0,1,.371-2.735,2.671,2.671,0,0,1,1.229-1.491,4.878,4.878,0,0,1,2.342-.473,3.929,3.929,0,0,1,2.022.451,4.57,4.57,0,0,1,1.455,1.6l-1.4.829a5.923,5.923,0,0,0-.625-.844,1.431,1.431,0,0,0-.589-.385,3.522,3.522,0,0,0-2.255.175,1.544,1.544,0,0,0-.684.953,7.2,7.2,0,0,0-.2,1.92,7.2,7.2,0,0,0,.2,1.92,1.574,1.574,0,0,0,.662.953,2.627,2.627,0,0,0,1.353.284,2.725,2.725,0,0,0,.865-.116,1.62,1.62,0,0,0,.625-.4,5.752,5.752,0,0,0,.662-.851l1.382.844a4.737,4.737,0,0,1-1.491,1.615A4,4,0,0,1,161.716,16.2Zm8.465,0a4.045,4.045,0,0,1-2.131-.48,2.683,2.683,0,0,1-1.12-1.5,8.789,8.789,0,0,1-.342-2.72,8.789,8.789,0,0,1,.342-2.72,2.683,2.683,0,0,1,1.12-1.5,4.986,4.986,0,0,1,4.269,0,2.672,2.672,0,0,1,1.127,1.5,8.789,8.789,0,0,1,.342,2.72,8.789,8.789,0,0,1-.342,2.72,2.672,2.672,0,0,1-1.127,1.5A4.085,4.085,0,0,1,170.182,16.2Zm0-1.542a2.059,2.059,0,0,0,1.171-.284,1.586,1.586,0,0,0,.589-.96,8.074,8.074,0,0,0,.175-1.913,8.074,8.074,0,0,0-.175-1.913,1.586,1.586,0,0,0-.589-.96,2.059,2.059,0,0,0-1.171-.284,2.022,2.022,0,0,0-1.164.284,1.6,1.6,0,0,0-.582.96,8.074,8.074,0,0,0-.175,1.913,8.074,8.074,0,0,0,.175,1.913,1.6,1.6,0,0,0,.582.96A2.022,2.022,0,0,0,170.182,14.662ZM175.9,16V7.011h1.673v.742a3.2,3.2,0,0,1,.9-.662,2.575,2.575,0,0,1,1.193-.284,3.724,3.724,0,0,1,1.4.225,2.338,2.338,0,0,1,.953.727,4.912,4.912,0,0,1,.72,1.389l-1.5.684a5.212,5.212,0,0,0-.378-.945.95.95,0,0,0-.444-.422,1.938,1.938,0,0,0-.749-.116,1.747,1.747,0,0,0-1.615.778,4.348,4.348,0,0,0-.48,2.262V16Zm11.782-1.338a2.4,2.4,0,0,0,1.244-.3,3.693,3.693,0,0,0,1.04-1.055l1.338.887a4.8,4.8,0,0,1-1.535,1.571,4.269,4.269,0,0,1-2.087.436,4.986,4.986,0,0,1-2.305-.436,2.492,2.492,0,0,1-1.178-1.44,8.777,8.777,0,0,1-.356-2.822,8.777,8.777,0,0,1,.356-2.822,2.492,2.492,0,0,1,1.178-1.44,4.986,4.986,0,0,1,2.305-.436,4.5,4.5,0,0,1,2.262.473A2.658,2.658,0,0,1,191.1,8.858a10.751,10.751,0,0,1,.349,3.1h-5.92a5.415,5.415,0,0,0,.262,1.615,1.53,1.53,0,0,0,.669.836A2.49,2.49,0,0,0,187.68,14.662Zm0-6.313a2.179,2.179,0,0,0-1.542.458,2.493,2.493,0,0,0-.582,1.607h4.175a3.266,3.266,0,0,0-.189-1.244,1.157,1.157,0,0,0-.633-.633A3.218,3.218,0,0,0,187.68,8.349Zm7.011,10.5a12.415,12.415,0,0,0,1.025-1.585A2.365,2.365,0,0,0,196,16.218a.912.912,0,0,1-.756-.262,1.671,1.671,0,0,1-.2-.975,1.31,1.31,0,0,1,.284-.967,2.144,2.144,0,0,1,2.08,0,1.31,1.31,0,0,1,.284.967,4.675,4.675,0,0,1-.371,1.913,8.294,8.294,0,0,1-1.345,1.956Zm1.673-9.615a1.523,1.523,0,0,1-1.04-.269,1.286,1.286,0,0,1-.284-.953,1.31,1.31,0,0,1,.284-.967,2.144,2.144,0,0,1,2.08,0,1.31,1.31,0,0,1,.284.967,1.286,1.286,0,0,1-.284.953A1.523,1.523,0,0,1,196.364,9.236ZM.844,66.647V55.011H2.531V55.1a5.923,5.923,0,0,1,1.935-.291A4.136,4.136,0,0,1,6.6,55.28a2.639,2.639,0,0,1,1.127,1.491,8.79,8.79,0,0,1,.342,2.72,8.862,8.862,0,0,1-.342,2.727A2.673,2.673,0,0,1,6.6,63.724a4.085,4.085,0,0,1-2.138.48,5.312,5.312,0,0,1-1.935-.349v2.793Zm3.622-3.985a2.019,2.019,0,0,0,1.171-.291,1.62,1.62,0,0,0,.589-.967A8.074,8.074,0,0,0,6.4,59.491a7.978,7.978,0,0,0-.175-1.905,1.581,1.581,0,0,0-.589-.953,2.059,2.059,0,0,0-1.171-.284q-1.935,0-1.935.844v3.433a2.236,2.236,0,0,0,.451,1.542A1.927,1.927,0,0,0,4.465,62.662ZM12.844,64.2a4.063,4.063,0,0,1-1.862-.356,2.081,2.081,0,0,1-.989-1.156,6.29,6.29,0,0,1-.305-2.182v-5.5H11.36v5.5a5.5,5.5,0,0,0,.124,1.353.962.962,0,0,0,.436.625,1.939,1.939,0,0,0,.924.175,4.624,4.624,0,0,0,1.345-.145A.981.981,0,0,0,14.807,62a2.68,2.68,0,0,0,.175-1.1V55.011h1.687V64H14.982v-.145A5.239,5.239,0,0,1,12.844,64.2Zm9.149,0a5.185,5.185,0,0,1-2.058-.342,3.826,3.826,0,0,1-1.447-1.2v-10.3H20.16v2.764a5.126,5.126,0,0,1,1.833-.32,3.869,3.869,0,0,1,2.073.48,2.675,2.675,0,0,1,1.1,1.5,11.284,11.284,0,0,1,0,5.455,2.64,2.64,0,0,1-1.1,1.491A3.917,3.917,0,0,1,21.993,64.2Zm0-1.542a1.863,1.863,0,0,0,1.105-.284,1.6,1.6,0,0,0,.56-.953,8.313,8.313,0,0,0,.167-1.905,8.413,8.413,0,0,0-.167-1.913,1.643,1.643,0,0,0-.56-.967,1.828,1.828,0,0,0-1.105-.291,3,3,0,0,0-1.142.167.97.97,0,0,0-.538.6,4.151,4.151,0,0,0-.153,1.295v3.709a1.835,1.835,0,0,0,.727.429A4.239,4.239,0,0,0,21.993,62.662ZM32.044,64.2a3.339,3.339,0,0,1-1.578-.305,1.725,1.725,0,0,1-.8-1.018,6.565,6.565,0,0,1-.24-2.007V53.905H27.593V52.364H31.1v8.509a3.328,3.328,0,0,0,.2,1.4.763.763,0,0,0,.742.385,1.118,1.118,0,0,0,.56-.175,6.833,6.833,0,0,0,.836-.625l.931,1.425a4.459,4.459,0,0,1-1.142.72A3.247,3.247,0,0,1,32.044,64.2Zm8.451-9.193v7.447H43.04V64H36.276V62.458h2.545V56.553H36.989V55.011ZM39.345,53.7a1.466,1.466,0,0,1-1-.255,1.77,1.77,0,0,1,0-1.876,1.466,1.466,0,0,1,1-.255,1.5,1.5,0,0,1,1,.255,1.731,1.731,0,0,1,0,1.876A1.5,1.5,0,0,1,39.345,53.7Zm8.916,10.5a4.717,4.717,0,0,1-2.3-.473,2.687,2.687,0,0,1-1.215-1.491,10.266,10.266,0,0,1,0-5.469,2.67,2.67,0,0,1,1.229-1.491,4.878,4.878,0,0,1,2.342-.473,3.929,3.929,0,0,1,2.022.451,4.57,4.57,0,0,1,1.455,1.6l-1.4.829a5.923,5.923,0,0,0-.625-.844,1.431,1.431,0,0,0-.589-.385,3.522,3.522,0,0,0-2.255.175,1.544,1.544,0,0,0-.684.953,9.485,9.485,0,0,0,0,3.84,1.574,1.574,0,0,0,.662.953,2.627,2.627,0,0,0,1.353.284,2.726,2.726,0,0,0,.865-.116,1.62,1.62,0,0,0,.625-.4,5.752,5.752,0,0,0,.662-.851l1.382.844a4.737,4.737,0,0,1-1.491,1.615A4,4,0,0,1,48.262,64.2ZM66.2,64H64.684l-3.229-8.989h1.731l2.255,6.5,2.3-6.5h1.716Zm7.985.2a4.045,4.045,0,0,1-2.131-.48,2.683,2.683,0,0,1-1.12-1.5,10.993,10.993,0,0,1,0-5.44,2.683,2.683,0,0,1,1.12-1.5,4.986,4.986,0,0,1,4.269,0,2.672,2.672,0,0,1,1.127,1.5,10.993,10.993,0,0,1,0,5.44,2.672,2.672,0,0,1-1.127,1.5A4.085,4.085,0,0,1,74.182,64.2Zm0-1.542a2.059,2.059,0,0,0,1.171-.284,1.586,1.586,0,0,0,.589-.96,10.567,10.567,0,0,0,0-3.825,1.586,1.586,0,0,0-.589-.96,2.059,2.059,0,0,0-1.171-.284,2.022,2.022,0,0,0-1.164.284,1.6,1.6,0,0,0-.582.96,10.567,10.567,0,0,0,0,3.825,1.6,1.6,0,0,0,.582.96A2.022,2.022,0,0,0,74.182,62.662Zm9.949-7.651v7.447h2.545V64H79.913V62.458h2.545V56.553H80.625V55.011ZM82.982,53.7a1.466,1.466,0,0,1-1-.255,1.77,1.77,0,0,1,0-1.876,1.466,1.466,0,0,1,1-.255,1.5,1.5,0,0,1,1,.255,1.731,1.731,0,0,1,0,1.876A1.5,1.5,0,0,1,82.982,53.7Zm8.582,10.5a4.1,4.1,0,0,1-2.131-.473,2.649,2.649,0,0,1-1.12-1.491,11.051,11.051,0,0,1,0-5.455,2.683,2.683,0,0,1,1.12-1.5,4.045,4.045,0,0,1,2.131-.48,5.428,5.428,0,0,1,1.949.349V52.364h1.673V64H93.513v-.1A5.712,5.712,0,0,1,91.564,64.2Zm0-1.542a3.621,3.621,0,0,0,1.476-.225.689.689,0,0,0,.473-.618V58.385a2.212,2.212,0,0,0-.458-1.542,1.952,1.952,0,0,0-1.491-.495,1.983,1.983,0,0,0-1.164.291,1.637,1.637,0,0,0-.582.967,8.074,8.074,0,0,0-.175,1.913,7.978,7.978,0,0,0,.175,1.905,1.6,1.6,0,0,0,.582.953A2.022,2.022,0,0,0,91.564,62.662Zm20.727-10.3v1.542h-2.356v8.553h2.356V64h-6.385V62.458h2.356V53.905h-2.356V52.364ZM114.415,64V55.011h1.673v.218a5.068,5.068,0,0,1,2.138-.422,4.326,4.326,0,0,1,1.913.342,1.969,1.969,0,0,1,.967,1.149,6.989,6.989,0,0,1,.291,2.276V64h-1.687V58.575a5.049,5.049,0,0,0-.138-1.345,1.152,1.152,0,0,0-.451-.676,1.64,1.64,0,0,0-.895-.2,4.233,4.233,0,0,0-1.389.167.959.959,0,0,0-.6.589,4.131,4.131,0,0,0-.153,1.309V64Zm12.393.2a4.717,4.717,0,0,1-2.3-.473,2.687,2.687,0,0,1-1.215-1.491,10.266,10.266,0,0,1,0-5.469,2.671,2.671,0,0,1,1.229-1.491,4.878,4.878,0,0,1,2.342-.473,3.929,3.929,0,0,1,2.022.451,4.57,4.57,0,0,1,1.455,1.6l-1.4.829a5.922,5.922,0,0,0-.625-.844,1.43,1.43,0,0,0-.589-.385,3.522,3.522,0,0,0-2.255.175,1.544,1.544,0,0,0-.684.953,9.485,9.485,0,0,0,0,3.84,1.574,1.574,0,0,0,.662.953,2.627,2.627,0,0,0,1.353.284,2.726,2.726,0,0,0,.865-.116,1.62,1.62,0,0,0,.625-.4,5.752,5.752,0,0,0,.662-.851l1.382.844a4.737,4.737,0,0,1-1.491,1.615A4,4,0,0,1,126.807,64.2Zm5.455-.2V55.011h1.673v.742a3.2,3.2,0,0,1,.9-.662,2.575,2.575,0,0,1,1.193-.284,3.724,3.724,0,0,1,1.4.225,2.338,2.338,0,0,1,.953.727,4.912,4.912,0,0,1,.72,1.389l-1.5.684a5.212,5.212,0,0,0-.378-.945.95.95,0,0,0-.444-.422,1.938,1.938,0,0,0-.749-.116,1.747,1.747,0,0,0-1.615.778,4.348,4.348,0,0,0-.48,2.262V64Zm11.782-1.338a2.4,2.4,0,0,0,1.244-.3,3.693,3.693,0,0,0,1.04-1.055l1.338.887a4.8,4.8,0,0,1-1.535,1.571,4.269,4.269,0,0,1-2.087.436,4.986,4.986,0,0,1-2.305-.436,2.492,2.492,0,0,1-1.178-1.44,8.777,8.777,0,0,1-.356-2.822,8.777,8.777,0,0,1,.356-2.822,2.492,2.492,0,0,1,1.178-1.44,4.986,4.986,0,0,1,2.305-.436,4.5,4.5,0,0,1,2.262.473,2.658,2.658,0,0,1,1.156,1.578,10.751,10.751,0,0,1,.349,3.1h-5.92a5.415,5.415,0,0,0,.262,1.615,1.53,1.53,0,0,0,.669.836A2.49,2.49,0,0,0,144.044,62.662Zm0-6.313a2.179,2.179,0,0,0-1.542.458,2.493,2.493,0,0,0-.582,1.607h4.175a3.266,3.266,0,0,0-.189-1.244,1.157,1.157,0,0,0-.633-.633A3.218,3.218,0,0,0,144.044,56.349ZM148.713,64V55.011h1.673v-.058q.116-.029.436-.087a3.214,3.214,0,0,1,.567-.058,2.057,2.057,0,0,1,.9.16,1.709,1.709,0,0,1,.611.582,1.9,1.9,0,0,1,1.658-.742,2.145,2.145,0,0,1,1.309.349,1.99,1.99,0,0,1,.669,1.149,9.47,9.47,0,0,1,.2,2.225V64h-1.673V58.531a7.749,7.749,0,0,0-.109-1.593q-.109-.444-.4-.444a.8.8,0,0,0-.778.407,3.532,3.532,0,0,0-.211,1.469V64H151.9V58.618a7.924,7.924,0,0,0-.116-1.651q-.116-.473-.393-.473a.812.812,0,0,0-.785.407,3.426,3.426,0,0,0-.218,1.469V64ZM161.5,62.662a2.4,2.4,0,0,0,1.244-.3,3.693,3.693,0,0,0,1.04-1.055l1.338.887a4.8,4.8,0,0,1-1.535,1.571,4.269,4.269,0,0,1-2.087.436,4.986,4.986,0,0,1-2.305-.436,2.492,2.492,0,0,1-1.178-1.44,8.777,8.777,0,0,1-.356-2.822,8.777,8.777,0,0,1,.356-2.822,2.492,2.492,0,0,1,1.178-1.44,4.986,4.986,0,0,1,2.305-.436,4.5,4.5,0,0,1,2.262.473,2.658,2.658,0,0,1,1.156,1.578,10.751,10.751,0,0,1,.349,3.1h-5.92a5.415,5.415,0,0,0,.262,1.615,1.53,1.53,0,0,0,.669.836A2.49,2.49,0,0,0,161.5,62.662Zm0-6.313a2.179,2.179,0,0,0-1.542.458,2.493,2.493,0,0,0-.582,1.607h4.175a3.266,3.266,0,0,0-.189-1.244,1.157,1.157,0,0,0-.633-.633A3.218,3.218,0,0,0,161.5,56.349ZM166.778,64V55.011h1.673v.218a5.068,5.068,0,0,1,2.138-.422,4.326,4.326,0,0,1,1.913.342,1.969,1.969,0,0,1,.967,1.149,6.989,6.989,0,0,1,.291,2.276V64h-1.687V58.575a5.049,5.049,0,0,0-.138-1.345,1.152,1.152,0,0,0-.451-.676,1.64,1.64,0,0,0-.895-.2,4.233,4.233,0,0,0-1.389.167.959.959,0,0,0-.6.589,4.13,4.13,0,0,0-.153,1.309V64Zm13.076.2a3.437,3.437,0,0,1-1.7-.364,2.133,2.133,0,0,1-.938-1.156,6.047,6.047,0,0,1-.3-2.087V56.378h-1.8V54.836h1.8V52.364h1.673v2.473H181.6v1.542h-3.011V60.6a5.233,5.233,0,0,0,.116,1.258,1.034,1.034,0,0,0,.385.625,1.357,1.357,0,0,0,.764.182,2.958,2.958,0,0,0,.778-.073.575.575,0,0,0,.349-.262,3.592,3.592,0,0,0,.255-.655l1.571.538a3.335,3.335,0,0,1-.567,1.185,1.945,1.945,0,0,1-.909.618A4.729,4.729,0,0,1,179.855,64.2Zm7.782,0a7.088,7.088,0,0,1-1.825-.2,2.8,2.8,0,0,1-1.207-.655,4.126,4.126,0,0,1-.865-1.258l1.295-1.222a4.522,4.522,0,0,0,.524,1.12,1.408,1.408,0,0,0,.727.516,4.579,4.579,0,0,0,1.353.153,3.478,3.478,0,0,0,1.28-.182,1.084,1.084,0,0,0,.611-.6,3.38,3.38,0,0,0,.175-1.236,1.819,1.819,0,0,0-.189-.916,1.494,1.494,0,0,0-.625-.545,10.648,10.648,0,0,0-1.4-.545,11.3,11.3,0,0,1-2.029-.844,2.7,2.7,0,0,1-1.025-.96,2.854,2.854,0,0,1-.32-1.44,4.361,4.361,0,0,1,.342-1.884,2.067,2.067,0,0,1,1.105-1.025,5.482,5.482,0,0,1,2.073-.32,6.738,6.738,0,0,1,1.68.175,2.794,2.794,0,0,1,1.127.575,3.786,3.786,0,0,1,.844,1.113l-1.193,1.295a4.559,4.559,0,0,0-.524-1.025,1.294,1.294,0,0,0-.684-.458,4.59,4.59,0,0,0-1.251-.131,3.469,3.469,0,0,0-1.156.145.9.9,0,0,0-.538.5,2.749,2.749,0,0,0-.153,1.04,1.5,1.5,0,0,0,.16.771,1.226,1.226,0,0,0,.545.444,10.911,10.911,0,0,0,1.273.458,11.3,11.3,0,0,1,2.16.873A2.769,2.769,0,0,1,191.033,59a3.43,3.43,0,0,1,.342,1.636,4.941,4.941,0,0,1-.364,2.08,2.254,2.254,0,0,1-1.171,1.127A5.569,5.569,0,0,1,187.636,64.2Zm8.989,0a4.717,4.717,0,0,1-2.3-.473,2.687,2.687,0,0,1-1.215-1.491,10.266,10.266,0,0,1,0-5.469,2.671,2.671,0,0,1,1.229-1.491,4.878,4.878,0,0,1,2.342-.473,3.929,3.929,0,0,1,2.022.451,4.57,4.57,0,0,1,1.455,1.6l-1.4.829a5.923,5.923,0,0,0-.625-.844,1.431,1.431,0,0,0-.589-.385,3.522,3.522,0,0,0-2.255.175,1.544,1.544,0,0,0-.684.953,9.485,9.485,0,0,0,0,3.84,1.574,1.574,0,0,0,.662.953,2.627,2.627,0,0,0,1.353.284,2.726,2.726,0,0,0,.865-.116,1.62,1.62,0,0,0,.625-.4,5.752,5.752,0,0,0,.662-.851l1.382.844a4.737,4.737,0,0,1-1.491,1.615A4,4,0,0,1,196.625,64.2Zm8.465,0a4.045,4.045,0,0,1-2.131-.48,2.683,2.683,0,0,1-1.12-1.5,10.993,10.993,0,0,1,0-5.44,2.683,2.683,0,0,1,1.12-1.5,4.986,4.986,0,0,1,4.269,0,2.672,2.672,0,0,1,1.127,1.5,10.993,10.993,0,0,1,0,5.44,2.672,2.672,0,0,1-1.127,1.5A4.085,4.085,0,0,1,205.091,64.2Zm0-1.542a2.059,2.059,0,0,0,1.171-.284,1.586,1.586,0,0,0,.589-.96,10.567,10.567,0,0,0,0-3.825,1.586,1.586,0,0,0-.589-.96,2.059,2.059,0,0,0-1.171-.284,2.022,2.022,0,0,0-1.164.284,1.6,1.6,0,0,0-.582.96,10.567,10.567,0,0,0,0,3.825,1.6,1.6,0,0,0,.582.96A2.022,2.022,0,0,0,205.091,62.662ZM210.807,64V55.011h1.673v.742a3.2,3.2,0,0,1,.9-.662,2.575,2.575,0,0,1,1.193-.284,3.724,3.724,0,0,1,1.4.225,2.338,2.338,0,0,1,.953.727,4.912,4.912,0,0,1,.72,1.389l-1.5.684a5.212,5.212,0,0,0-.378-.945.95.95,0,0,0-.444-.422,1.938,1.938,0,0,0-.749-.116,1.747,1.747,0,0,0-1.615.778,4.348,4.348,0,0,0-.48,2.262V64Zm11.782-1.338a2.4,2.4,0,0,0,1.244-.3,3.693,3.693,0,0,0,1.04-1.055l1.338.887a4.8,4.8,0,0,1-1.535,1.571,4.269,4.269,0,0,1-2.087.436,4.986,4.986,0,0,1-2.305-.436,2.492,2.492,0,0,1-1.178-1.44,8.777,8.777,0,0,1-.356-2.822,8.777,8.777,0,0,1,.356-2.822,2.492,2.492,0,0,1,1.178-1.44,4.986,4.986,0,0,1,2.305-.436,4.5,4.5,0,0,1,2.262.473,2.658,2.658,0,0,1,1.156,1.578,10.751,10.751,0,0,1,.349,3.1h-5.92a5.415,5.415,0,0,0,.262,1.615,1.53,1.53,0,0,0,.669.836A2.49,2.49,0,0,0,222.589,62.662Zm0-6.313a2.179,2.179,0,0,0-1.542.458,2.493,2.493,0,0,0-.582,1.607h4.175a3.266,3.266,0,0,0-.189-1.244,1.157,1.157,0,0,0-.633-.633A3.218,3.218,0,0,0,222.589,56.349Zm11.2,9.76a3.776,3.776,0,0,1-2.575-.989,6.347,6.347,0,0,1-1.731-2.785,14.42,14.42,0,0,1,0-8.305,6.347,6.347,0,0,1,1.731-2.785,3.776,3.776,0,0,1,2.575-.989V51.8a2.25,2.25,0,0,0-1.695.793,5.4,5.4,0,0,0-1.142,2.24,14,14,0,0,0,0,6.705,5.4,5.4,0,0,0,1.142,2.24,2.25,2.25,0,0,0,1.695.793Zm7.433-11.1v7.447h2.545V64H237V62.458h2.545V56.553h-1.833V55.011ZM240.073,53.7a1.466,1.466,0,0,1-1-.255,1.77,1.77,0,0,1,0-1.876,1.466,1.466,0,0,1,1-.255,1.5,1.5,0,0,1,1,.255,1.731,1.731,0,0,1,0,1.876A1.5,1.5,0,0,1,240.073,53.7ZM245.324,64V55.011H247v.218a5.068,5.068,0,0,1,2.138-.422,4.326,4.326,0,0,1,1.913.342,1.969,1.969,0,0,1,.967,1.149,6.989,6.989,0,0,1,.291,2.276V64h-1.687V58.575a5.049,5.049,0,0,0-.138-1.345,1.152,1.152,0,0,0-.451-.676,1.64,1.64,0,0,0-.895-.2,4.233,4.233,0,0,0-1.389.167.959.959,0,0,0-.6.589A4.13,4.13,0,0,0,247,58.415V64Zm13.076.2a3.437,3.437,0,0,1-1.7-.364,2.133,2.133,0,0,1-.938-1.156,6.047,6.047,0,0,1-.3-2.087V56.378h-1.8V54.836h1.8V52.364h1.673v2.473h3.011v1.542h-3.011V60.6a5.233,5.233,0,0,0,.116,1.258,1.034,1.034,0,0,0,.385.625,1.357,1.357,0,0,0,.764.182,2.958,2.958,0,0,0,.778-.073.575.575,0,0,0,.349-.262,3.593,3.593,0,0,0,.255-.655l1.571.538a3.335,3.335,0,0,1-.567,1.185,1.945,1.945,0,0,1-.909.618A4.729,4.729,0,0,1,258.4,64.2Zm17.731-9.193v7.447h2.545V64h-6.764V62.458h2.545V56.553h-1.833V55.011ZM274.982,53.7a1.466,1.466,0,0,1-1-.255,1.77,1.77,0,0,1,0-1.876,1.466,1.466,0,0,1,1-.255,1.5,1.5,0,0,1,1,.255,1.731,1.731,0,0,1,0,1.876A1.5,1.5,0,0,1,274.982,53.7ZM280.233,64V55.011h1.673v.218a5.068,5.068,0,0,1,2.138-.422,4.326,4.326,0,0,1,1.913.342,1.969,1.969,0,0,1,.967,1.149,6.989,6.989,0,0,1,.291,2.276V64h-1.687V58.575a5.049,5.049,0,0,0-.138-1.345,1.152,1.152,0,0,0-.451-.676,1.64,1.64,0,0,0-.895-.2,4.233,4.233,0,0,0-1.389.167.959.959,0,0,0-.6.589,4.13,4.13,0,0,0-.153,1.309V64Zm12.393.2a4.717,4.717,0,0,1-2.3-.473,2.687,2.687,0,0,1-1.215-1.491,10.266,10.266,0,0,1,0-5.469,2.671,2.671,0,0,1,1.229-1.491,4.878,4.878,0,0,1,2.342-.473,3.929,3.929,0,0,1,2.022.451,4.57,4.57,0,0,1,1.455,1.6l-1.4.829a5.925,5.925,0,0,0-.625-.844,1.43,1.43,0,0,0-.589-.385,3.522,3.522,0,0,0-2.255.175,1.544,1.544,0,0,0-.684.953,9.485,9.485,0,0,0,0,3.84,1.574,1.574,0,0,0,.662.953,2.627,2.627,0,0,0,1.353.284,2.726,2.726,0,0,0,.865-.116,1.62,1.62,0,0,0,.625-.4,5.751,5.751,0,0,0,.662-.851l1.382.844a4.737,4.737,0,0,1-1.491,1.615A4,4,0,0,1,292.625,64.2Zm5.455-.2V55.011h1.673v.742a3.2,3.2,0,0,1,.9-.662,2.575,2.575,0,0,1,1.193-.284,3.724,3.724,0,0,1,1.4.225,2.338,2.338,0,0,1,.953.727,4.913,4.913,0,0,1,.72,1.389l-1.5.684a5.213,5.213,0,0,0-.378-.945.95.95,0,0,0-.444-.422,1.938,1.938,0,0,0-.749-.116,1.746,1.746,0,0,0-1.615.778,4.348,4.348,0,0,0-.48,2.262V64Zm11.782-1.338a2.4,2.4,0,0,0,1.244-.3,3.693,3.693,0,0,0,1.04-1.055l1.338.887a4.8,4.8,0,0,1-1.535,1.571,4.269,4.269,0,0,1-2.087.436,4.986,4.986,0,0,1-2.305-.436,2.492,2.492,0,0,1-1.178-1.44,8.777,8.777,0,0,1-.356-2.822,8.777,8.777,0,0,1,.356-2.822,2.492,2.492,0,0,1,1.178-1.44,4.986,4.986,0,0,1,2.305-.436,4.5,4.5,0,0,1,2.262.473,2.658,2.658,0,0,1,1.156,1.578,10.752,10.752,0,0,1,.349,3.1h-5.92a5.414,5.414,0,0,0,.262,1.615,1.53,1.53,0,0,0,.669.836A2.49,2.49,0,0,0,309.862,62.662Zm0-6.313a2.179,2.179,0,0,0-1.542.458,2.493,2.493,0,0,0-.582,1.607h4.175a3.266,3.266,0,0,0-.189-1.244,1.157,1.157,0,0,0-.633-.633A3.218,3.218,0,0,0,309.862,56.349ZM314.531,64V55.011H316.2v-.058q.116-.029.436-.087a3.213,3.213,0,0,1,.567-.058,2.057,2.057,0,0,1,.9.16,1.709,1.709,0,0,1,.611.582,1.9,1.9,0,0,1,1.658-.742,2.145,2.145,0,0,1,1.309.349,1.99,1.99,0,0,1,.669,1.149,9.471,9.471,0,0,1,.2,2.225V64h-1.673V58.531a7.751,7.751,0,0,0-.109-1.593q-.109-.444-.4-.444a.8.8,0,0,0-.778.407,3.533,3.533,0,0,0-.211,1.469V64h-1.673V58.618a7.924,7.924,0,0,0-.116-1.651q-.116-.473-.393-.473a.812.812,0,0,0-.785.407,3.426,3.426,0,0,0-.218,1.469V64Zm12.785-1.338a2.4,2.4,0,0,0,1.244-.3,3.693,3.693,0,0,0,1.04-1.055l1.338.887a4.8,4.8,0,0,1-1.535,1.571,4.269,4.269,0,0,1-2.087.436,4.986,4.986,0,0,1-2.305-.436,2.492,2.492,0,0,1-1.178-1.44,8.777,8.777,0,0,1-.356-2.822,8.777,8.777,0,0,1,.356-2.822,2.492,2.492,0,0,1,1.178-1.44,4.986,4.986,0,0,1,2.305-.436,4.5,4.5,0,0,1,2.262.473,2.658,2.658,0,0,1,1.156,1.578,10.752,10.752,0,0,1,.349,3.1h-5.92a5.414,5.414,0,0,0,.262,1.615,1.53,1.53,0,0,0,.669.836A2.49,2.49,0,0,0,327.316,62.662Zm0-6.313a2.179,2.179,0,0,0-1.542.458,2.493,2.493,0,0,0-.582,1.607h4.175a3.266,3.266,0,0,0-.189-1.244,1.157,1.157,0,0,0-.633-.633A3.218,3.218,0,0,0,327.316,56.349ZM332.6,64V55.011h1.673v.218a5.068,5.068,0,0,1,2.138-.422,4.326,4.326,0,0,1,1.913.342,1.969,1.969,0,0,1,.967,1.149,6.989,6.989,0,0,1,.291,2.276V64h-1.687V58.575a5.049,5.049,0,0,0-.138-1.345,1.152,1.152,0,0,0-.451-.676,1.64,1.64,0,0,0-.895-.2,4.233,4.233,0,0,0-1.389.167.959.959,0,0,0-.6.589,4.13,4.13,0,0,0-.153,1.309V64Zm13.076.2a3.437,3.437,0,0,1-1.7-.364,2.133,2.133,0,0,1-.938-1.156,6.047,6.047,0,0,1-.3-2.087V56.378h-1.8V54.836h1.8V52.364h1.673v2.473h3.011v1.542h-3.011V60.6a5.233,5.233,0,0,0,.116,1.258,1.034,1.034,0,0,0,.385.625,1.357,1.357,0,0,0,.764.182,2.958,2.958,0,0,0,.778-.073.575.575,0,0,0,.349-.262,3.593,3.593,0,0,0,.255-.655l1.571.538a3.335,3.335,0,0,1-.567,1.185,1.945,1.945,0,0,1-.909.618A4.729,4.729,0,0,1,345.673,64.2Zm4.32-.2V52.364h3.229a5.828,5.828,0,0,1,2.109.313,2.129,2.129,0,0,1,1.142.982,3.819,3.819,0,0,1,.356,1.789,4.059,4.059,0,0,1-.189,1.4,2.08,2.08,0,0,1-.655.873,2.315,2.315,0,0,1,.931,1.033,4.574,4.574,0,0,1,.276,1.789,4.834,4.834,0,0,1-.349,2.015,2.183,2.183,0,0,1-1.135,1.1,5.322,5.322,0,0,1-2.124.349Zm3.229-6.924a5.3,5.3,0,0,0,1.229-.1.8.8,0,0,0,.545-.436,2.71,2.71,0,0,0,.16-1.091A2.185,2.185,0,0,0,355,54.5a.93.93,0,0,0-.567-.458,3.985,3.985,0,0,0-1.207-.138h-1.556v3.171Zm.364,5.382a3.282,3.282,0,0,0,1.193-.167,1.015,1.015,0,0,0,.575-.575,3.23,3.23,0,0,0,.167-1.178,3.692,3.692,0,0,0-.16-1.273.849.849,0,0,0-.553-.524,4.406,4.406,0,0,0-1.222-.124h-1.92v3.84Zm6.182,4.393a2.956,2.956,0,0,1-.989-.145,3.862,3.862,0,0,1-.9-.495l.669-1.411a7.679,7.679,0,0,0,.756.422,1.172,1.172,0,0,0,.465.087,2.06,2.06,0,0,0,.844-.145,1.366,1.366,0,0,0,.56-.5,4.5,4.5,0,0,0,.473-1.055l-3.011-8.6h1.745l2.153,6.4,2.182-6.4h1.76l-3.127,8.713a7.973,7.973,0,0,1-.887,1.862,2.8,2.8,0,0,1-1.1.967A3.735,3.735,0,0,1,359.767,66.851Zm8.64-2.284a2.25,2.25,0,0,0,1.695-.793,5.4,5.4,0,0,0,1.142-2.24,14,14,0,0,0,0-6.705,5.4,5.4,0,0,0-1.142-2.24,2.25,2.25,0,0,0-1.695-.793V50.255a3.776,3.776,0,0,1,2.575.989,6.346,6.346,0,0,1,1.731,2.785,14.42,14.42,0,0,1,0,8.305,6.346,6.346,0,0,1-1.731,2.785,3.776,3.776,0,0,1-2.575.989ZM7.418,90.109a5.169,5.169,0,0,1-3.127-.749,2.827,2.827,0,0,1-.975-2.393,7.828,7.828,0,0,1,.145-1.309,7.652,7.652,0,0,0,.116-.989,1.626,1.626,0,0,0-.509-.844q-.509-.567-1.658-1.644,1.149-1.105,1.658-1.673a1.607,1.607,0,0,0,.509-.873,5.917,5.917,0,0,0-.116-.887,7.185,7.185,0,0,1-.145-1.338,2.849,2.849,0,0,1,.975-2.4,5.131,5.131,0,0,1,3.127-.756v1.556a5.429,5.429,0,0,0-1.455.153,1.29,1.29,0,0,0-.756.509,1.814,1.814,0,0,0-.233,1,4.866,4.866,0,0,0,.145,1.12,3.8,3.8,0,0,1,.131.9,2.582,2.582,0,0,1-.393,1.36,5.392,5.392,0,0,1-1.236,1.331,5.174,5.174,0,0,1,1.244,1.295,2.507,2.507,0,0,1,.385,1.338,4.536,4.536,0,0,1-.116.887,5.792,5.792,0,0,0-.145,1.222,1.789,1.789,0,0,0,.225.975,1.269,1.269,0,0,0,.749.5,5.429,5.429,0,0,0,1.455.153ZM38.909,112.2A3.616,3.616,0,0,1,37,111.767a3.778,3.778,0,0,1-1.273-1.542l1.324-1.091a6.144,6.144,0,0,0,.5.975,1.149,1.149,0,0,0,.516.429,2.313,2.313,0,0,0,.844.124,7.306,7.306,0,0,0,1.513-.116,1.122,1.122,0,0,0,.7-.385,1.346,1.346,0,0,0,.189-.778,1.389,1.389,0,0,0-.153-.742.941.941,0,0,0-.545-.349,9.326,9.326,0,0,0-1.324-.233,5.729,5.729,0,0,1-2.545-.778,2.021,2.021,0,0,1-.785-1.767,2.95,2.95,0,0,1,.364-1.564,2.114,2.114,0,0,1,1.164-.865,6.786,6.786,0,0,1,2.153-.276,4.309,4.309,0,0,1,1.993.378,3.513,3.513,0,0,1,1.295,1.338L41.7,105.716a5.357,5.357,0,0,0-.553-.873,1.227,1.227,0,0,0-.567-.385,3.191,3.191,0,0,0-.945-.109,5.832,5.832,0,0,0-1.258.1.916.916,0,0,0-.589.349,1.315,1.315,0,0,0-.16.713.711.711,0,0,0,.175.524,1.107,1.107,0,0,0,.524.262q.349.087,1.076.189a10.274,10.274,0,0,1,2.145.5,2.154,2.154,0,0,1,1.105.858A2.938,2.938,0,0,1,43,109.382a2.973,2.973,0,0,1-.4,1.636,2.294,2.294,0,0,1-1.295.9A8.161,8.161,0,0,1,38.909,112.2Zm9.353,0a4.717,4.717,0,0,1-2.3-.473,2.687,2.687,0,0,1-1.215-1.491,10.266,10.266,0,0,1,0-5.469,2.671,2.671,0,0,1,1.229-1.491,4.878,4.878,0,0,1,2.342-.473,3.929,3.929,0,0,1,2.022.451,4.57,4.57,0,0,1,1.455,1.6l-1.4.829a5.923,5.923,0,0,0-.625-.844,1.431,1.431,0,0,0-.589-.385,3.522,3.522,0,0,0-2.255.175,1.544,1.544,0,0,0-.684.953,9.485,9.485,0,0,0,0,3.84,1.574,1.574,0,0,0,.662.953,2.627,2.627,0,0,0,1.353.284,2.726,2.726,0,0,0,.865-.116,1.62,1.62,0,0,0,.625-.4,5.752,5.752,0,0,0,.662-.851l1.382.844a4.737,4.737,0,0,1-1.491,1.615A4,4,0,0,1,48.262,112.2Zm8.465,0a4.045,4.045,0,0,1-2.131-.48,2.683,2.683,0,0,1-1.12-1.5,10.993,10.993,0,0,1,0-5.44,2.683,2.683,0,0,1,1.12-1.5,4.986,4.986,0,0,1,4.269,0,2.672,2.672,0,0,1,1.127,1.5,10.993,10.993,0,0,1,0,5.44,2.672,2.672,0,0,1-1.127,1.5A4.085,4.085,0,0,1,56.727,112.2Zm0-1.542a2.059,2.059,0,0,0,1.171-.284,1.586,1.586,0,0,0,.589-.96,10.567,10.567,0,0,0,0-3.825,1.586,1.586,0,0,0-.589-.96,2.059,2.059,0,0,0-1.171-.284,2.022,2.022,0,0,0-1.164.284,1.6,1.6,0,0,0-.582.96,10.567,10.567,0,0,0,0,3.825,1.6,1.6,0,0,0,.582.96A2.022,2.022,0,0,0,56.727,110.662ZM62.444,112v-8.989h1.673v.742a3.2,3.2,0,0,1,.9-.662,2.575,2.575,0,0,1,1.193-.284,3.724,3.724,0,0,1,1.4.225,2.338,2.338,0,0,1,.953.727,4.912,4.912,0,0,1,.72,1.389l-1.5.684a5.212,5.212,0,0,0-.378-.945.95.95,0,0,0-.444-.422,1.938,1.938,0,0,0-.749-.116,1.747,1.747,0,0,0-1.615.778,4.348,4.348,0,0,0-.48,2.262V112Zm11.782-1.338a2.4,2.4,0,0,0,1.244-.3,3.693,3.693,0,0,0,1.04-1.055l1.338.887a4.8,4.8,0,0,1-1.535,1.571,4.269,4.269,0,0,1-2.087.436,4.986,4.986,0,0,1-2.305-.436,2.492,2.492,0,0,1-1.178-1.44,11.35,11.35,0,0,1,0-5.644,2.492,2.492,0,0,1,1.178-1.44,4.986,4.986,0,0,1,2.305-.436,4.5,4.5,0,0,1,2.262.473,2.658,2.658,0,0,1,1.156,1.578,10.751,10.751,0,0,1,.349,3.1h-5.92a5.414,5.414,0,0,0,.262,1.615,1.53,1.53,0,0,0,.669.836A2.49,2.49,0,0,0,74.225,110.662Zm0-6.313a2.179,2.179,0,0,0-1.542.458,2.493,2.493,0,0,0-.582,1.607h4.175a3.266,3.266,0,0,0-.189-1.244,1.157,1.157,0,0,0-.633-.633A3.218,3.218,0,0,0,74.225,104.349Zm18.182,1.062h3.447v1.542H92.407v3.433H90.865v-3.433H87.418v-1.542h3.447v-3.447h1.542Zm12.175-.2H96.145v-1.542h8.436Zm0,3.491H96.145v-1.542h8.436Zm14.458-5.687v7.447h2.545V112h-6.764v-1.542h2.545v-5.905h-1.833v-1.542Zm-1.149-1.309a1.466,1.466,0,0,1-1-.255,1.77,1.77,0,0,1,0-1.876,1.466,1.466,0,0,1,1-.255,1.5,1.5,0,0,1,1,.255,1.731,1.731,0,0,1,0,1.876A1.5,1.5,0,0,1,117.891,101.7Zm5.251,10.3v-8.989h1.673v.218a5.068,5.068,0,0,1,2.138-.422,4.326,4.326,0,0,1,1.913.342,1.969,1.969,0,0,1,.967,1.149,6.989,6.989,0,0,1,.291,2.276V112h-1.687v-5.425a5.05,5.05,0,0,0-.138-1.345,1.152,1.152,0,0,0-.451-.676,1.64,1.64,0,0,0-.895-.2,4.233,4.233,0,0,0-1.389.167.959.959,0,0,0-.6.589,4.131,4.131,0,0,0-.153,1.309V112Zm12.393.2a4.717,4.717,0,0,1-2.3-.473,2.687,2.687,0,0,1-1.215-1.491,10.266,10.266,0,0,1,0-5.469,2.671,2.671,0,0,1,1.229-1.491,4.878,4.878,0,0,1,2.342-.473,3.929,3.929,0,0,1,2.022.451,4.57,4.57,0,0,1,1.455,1.6l-1.4.829a5.923,5.923,0,0,0-.625-.844,1.431,1.431,0,0,0-.589-.385,3.522,3.522,0,0,0-2.255.175,1.544,1.544,0,0,0-.684.953,9.485,9.485,0,0,0,0,3.84,1.574,1.574,0,0,0,.662.953,2.627,2.627,0,0,0,1.353.284,2.726,2.726,0,0,0,.865-.116,1.62,1.62,0,0,0,.625-.4,5.753,5.753,0,0,0,.662-.851l1.382.844a4.737,4.737,0,0,1-1.491,1.615A4,4,0,0,1,135.535,112.2Zm5.455-.2v-8.989h1.673v.742a3.2,3.2,0,0,1,.9-.662,2.575,2.575,0,0,1,1.193-.284,3.724,3.724,0,0,1,1.4.225,2.338,2.338,0,0,1,.953.727,4.912,4.912,0,0,1,.72,1.389l-1.5.684a5.212,5.212,0,0,0-.378-.945.95.95,0,0,0-.444-.422,1.938,1.938,0,0,0-.749-.116,1.747,1.747,0,0,0-1.615.778,4.348,4.348,0,0,0-.48,2.262V112Zm11.782-1.338a2.4,2.4,0,0,0,1.244-.3,3.693,3.693,0,0,0,1.04-1.055l1.338.887a4.8,4.8,0,0,1-1.535,1.571,4.269,4.269,0,0,1-2.087.436,4.986,4.986,0,0,1-2.305-.436,2.492,2.492,0,0,1-1.178-1.44,11.351,11.351,0,0,1,0-5.644,2.492,2.492,0,0,1,1.178-1.44,4.986,4.986,0,0,1,2.305-.436,4.5,4.5,0,0,1,2.262.473,2.658,2.658,0,0,1,1.156,1.578,10.751,10.751,0,0,1,.349,3.1h-5.92a5.415,5.415,0,0,0,.262,1.615,1.53,1.53,0,0,0,.669.836A2.49,2.49,0,0,0,152.771,110.662Zm0-6.313a2.179,2.179,0,0,0-1.542.458,2.493,2.493,0,0,0-.582,1.607h4.175a3.266,3.266,0,0,0-.189-1.244,1.157,1.157,0,0,0-.633-.633A3.218,3.218,0,0,0,152.771,104.349ZM157.44,112v-8.989h1.673v-.058q.116-.029.436-.087a3.214,3.214,0,0,1,.567-.058,2.057,2.057,0,0,1,.9.16,1.709,1.709,0,0,1,.611.582,1.9,1.9,0,0,1,1.658-.742,2.145,2.145,0,0,1,1.309.349,1.99,1.99,0,0,1,.669,1.149,9.47,9.47,0,0,1,.2,2.225V112H163.8v-5.469a7.749,7.749,0,0,0-.109-1.593q-.109-.444-.4-.444a.8.8,0,0,0-.778.407,3.532,3.532,0,0,0-.211,1.469V112h-1.673v-5.382a7.924,7.924,0,0,0-.116-1.651q-.116-.473-.393-.473a.812.812,0,0,0-.785.407,3.426,3.426,0,0,0-.218,1.469V112Zm12.785-1.338a2.4,2.4,0,0,0,1.244-.3,3.693,3.693,0,0,0,1.04-1.055l1.338.887a4.8,4.8,0,0,1-1.535,1.571,4.269,4.269,0,0,1-2.087.436,4.986,4.986,0,0,1-2.305-.436,2.492,2.492,0,0,1-1.178-1.44,11.351,11.351,0,0,1,0-5.644,2.492,2.492,0,0,1,1.178-1.44,4.986,4.986,0,0,1,2.305-.436,4.5,4.5,0,0,1,2.262.473,2.658,2.658,0,0,1,1.156,1.578,10.751,10.751,0,0,1,.349,3.1h-5.92a5.415,5.415,0,0,0,.262,1.615,1.53,1.53,0,0,0,.669.836A2.49,2.49,0,0,0,170.225,110.662Zm0-6.313a2.179,2.179,0,0,0-1.542.458,2.493,2.493,0,0,0-.582,1.607h4.175a3.266,3.266,0,0,0-.189-1.244,1.157,1.157,0,0,0-.633-.633A3.218,3.218,0,0,0,170.225,104.349Zm5.28,7.651v-8.989h1.673v.218a5.068,5.068,0,0,1,2.138-.422,4.326,4.326,0,0,1,1.913.342,1.969,1.969,0,0,1,.967,1.149,6.989,6.989,0,0,1,.291,2.276V112H180.8v-5.425a5.049,5.049,0,0,0-.138-1.345,1.152,1.152,0,0,0-.451-.676,1.64,1.64,0,0,0-.895-.2,4.233,4.233,0,0,0-1.389.167.959.959,0,0,0-.6.589,4.13,4.13,0,0,0-.153,1.309V112Zm13.076.2a3.437,3.437,0,0,1-1.7-.364,2.133,2.133,0,0,1-.938-1.156,6.047,6.047,0,0,1-.3-2.087v-4.218h-1.8v-1.542h1.8v-2.473h1.673v2.473h3.011v1.542h-3.011V108.6a5.233,5.233,0,0,0,.116,1.258,1.034,1.034,0,0,0,.385.625,1.357,1.357,0,0,0,.764.182,2.958,2.958,0,0,0,.778-.073.575.575,0,0,0,.349-.262,3.592,3.592,0,0,0,.255-.655l1.571.538a3.335,3.335,0,0,1-.567,1.185,1.945,1.945,0,0,1-.909.618A4.729,4.729,0,0,1,188.582,112.2Zm4.32-.2V100.364h3.229a5.828,5.828,0,0,1,2.109.313,2.129,2.129,0,0,1,1.142.982,3.819,3.819,0,0,1,.356,1.789,4.06,4.06,0,0,1-.189,1.4,2.08,2.08,0,0,1-.655.873,2.315,2.315,0,0,1,.931,1.033,4.574,4.574,0,0,1,.276,1.789,4.834,4.834,0,0,1-.349,2.015,2.183,2.183,0,0,1-1.135,1.1,5.321,5.321,0,0,1-2.124.349Zm3.229-6.924a5.3,5.3,0,0,0,1.229-.1.8.8,0,0,0,.545-.436,2.71,2.71,0,0,0,.16-1.091,2.185,2.185,0,0,0-.16-.945.93.93,0,0,0-.567-.458,3.985,3.985,0,0,0-1.207-.138h-1.556v3.171Zm.364,5.382a3.282,3.282,0,0,0,1.193-.167,1.015,1.015,0,0,0,.575-.575,3.23,3.23,0,0,0,.167-1.178,3.692,3.692,0,0,0-.16-1.273.849.849,0,0,0-.553-.524,4.406,4.406,0,0,0-1.222-.124h-1.92v3.84Zm6.182,4.393a2.956,2.956,0,0,1-.989-.145,3.862,3.862,0,0,1-.9-.495l.669-1.411a7.679,7.679,0,0,0,.756.422,1.172,1.172,0,0,0,.465.087,2.06,2.06,0,0,0,.844-.145,1.366,1.366,0,0,0,.56-.5,4.5,4.5,0,0,0,.473-1.055l-3.011-8.6h1.745l2.153,6.4,2.182-6.4h1.76l-3.127,8.713a7.972,7.972,0,0,1-.887,1.862,2.8,2.8,0,0,1-1.1.967A3.735,3.735,0,0,1,202.676,114.851Zm9.469,0a12.415,12.415,0,0,0,1.025-1.585,2.365,2.365,0,0,0,.284-1.047.912.912,0,0,1-.756-.262,1.671,1.671,0,0,1-.2-.975,1.31,1.31,0,0,1,.284-.967,2.144,2.144,0,0,1,2.08,0,1.31,1.31,0,0,1,.284.967,4.675,4.675,0,0,1-.371,1.913,8.293,8.293,0,0,1-1.345,1.956Zm1.673-9.615a1.523,1.523,0,0,1-1.04-.269,1.286,1.286,0,0,1-.284-.953,1.31,1.31,0,0,1,.284-.967,2.144,2.144,0,0,1,2.08,0,1.31,1.31,0,0,1,.284.967,1.286,1.286,0,0,1-.284.953A1.523,1.523,0,0,1,213.818,105.236ZM39.462,124.364a3.828,3.828,0,0,1,2.247.582,3.265,3.265,0,0,1,1.185,1.84,16.043,16.043,0,0,1,0,6.793,3.265,3.265,0,0,1-1.185,1.84,3.828,3.828,0,0,1-2.247.582H35.68V124.364Zm0,10.095a1.894,1.894,0,0,0,1.273-.393,2.314,2.314,0,0,0,.655-1.309,16.976,16.976,0,0,0,0-5.149,2.314,2.314,0,0,0-.655-1.309,1.894,1.894,0,0,0-1.273-.393H37.353v8.553Zm9.76-7.447v7.447h2.545V136H45v-1.542h2.545v-5.905H45.716v-1.542ZM48.073,125.7a1.466,1.466,0,0,1-1-.255,1.77,1.77,0,0,1,0-1.876,1.466,1.466,0,0,1,1-.255,1.5,1.5,0,0,1,1,.255,1.731,1.731,0,0,1,0,1.876A1.5,1.5,0,0,1,48.073,125.7Zm8.291,10.5a3.616,3.616,0,0,1-1.913-.436,3.778,3.778,0,0,1-1.273-1.542l1.324-1.091a6.143,6.143,0,0,0,.5.975,1.149,1.149,0,0,0,.516.429,2.313,2.313,0,0,0,.844.124,7.306,7.306,0,0,0,1.513-.116,1.122,1.122,0,0,0,.7-.385,1.346,1.346,0,0,0,.189-.778,1.389,1.389,0,0,0-.153-.742.941.941,0,0,0-.545-.349,9.326,9.326,0,0,0-1.324-.233,5.729,5.729,0,0,1-2.545-.778,2.021,2.021,0,0,1-.785-1.767,2.95,2.95,0,0,1,.364-1.564,2.114,2.114,0,0,1,1.164-.865,6.786,6.786,0,0,1,2.153-.276,4.309,4.309,0,0,1,1.993.378,3.513,3.513,0,0,1,1.295,1.338l-1.222,1.193a5.357,5.357,0,0,0-.553-.873,1.227,1.227,0,0,0-.567-.385,3.191,3.191,0,0,0-.945-.109,5.831,5.831,0,0,0-1.258.1.916.916,0,0,0-.589.349,1.315,1.315,0,0,0-.16.713.711.711,0,0,0,.175.524,1.107,1.107,0,0,0,.524.262q.349.087,1.076.189a10.274,10.274,0,0,1,2.145.5,2.154,2.154,0,0,1,1.105.858,2.938,2.938,0,0,1,.342,1.535,2.973,2.973,0,0,1-.4,1.636,2.294,2.294,0,0,1-1.295.9A8.161,8.161,0,0,1,56.364,136.2Zm5.571,2.444V127.011h1.687v.087a5.923,5.923,0,0,1,1.935-.291,4.136,4.136,0,0,1,2.138.473,2.639,2.639,0,0,1,1.127,1.491,11.022,11.022,0,0,1,0,5.447,2.673,2.673,0,0,1-1.127,1.505,4.085,4.085,0,0,1-2.138.48,5.312,5.312,0,0,1-1.935-.349v2.793Zm3.622-3.985a2.019,2.019,0,0,0,1.171-.291,1.62,1.62,0,0,0,.589-.967,8.074,8.074,0,0,0,.175-1.913,7.978,7.978,0,0,0-.175-1.905,1.581,1.581,0,0,0-.589-.953,2.059,2.059,0,0,0-1.171-.284q-1.935,0-1.935.844v3.433a2.236,2.236,0,0,0,.451,1.542A1.927,1.927,0,0,0,65.556,134.662ZM75.68,136.2A3.339,3.339,0,0,1,74.1,135.9a1.725,1.725,0,0,1-.8-1.018,6.565,6.565,0,0,1-.24-2.007v-6.967H71.229v-1.542h3.505v8.509a3.328,3.328,0,0,0,.2,1.4.763.763,0,0,0,.742.385,1.118,1.118,0,0,0,.56-.175,6.832,6.832,0,0,0,.836-.625l.931,1.425a4.459,4.459,0,0,1-1.142.72A3.247,3.247,0,0,1,75.68,136.2Zm7,0a5.927,5.927,0,0,1-2.058-.291A2.029,2.029,0,0,1,79.513,135a3.413,3.413,0,0,1-.342-1.651,3.839,3.839,0,0,1,.342-1.8,1.864,1.864,0,0,1,1.091-.887,6.687,6.687,0,0,1,2.073-.255h1.833v-.32a2.339,2.339,0,0,0-.153-.945.89.89,0,0,0-.545-.473,3.589,3.589,0,0,0-1.135-.138,2.7,2.7,0,0,0-.931.124.937.937,0,0,0-.495.444,4.255,4.255,0,0,0-.335.975l-1.6-.393a5.841,5.841,0,0,1,.655-1.658,2.381,2.381,0,0,1,1.047-.924,4.01,4.01,0,0,1,1.658-.3,3.724,3.724,0,0,1,2.7.807,3.377,3.377,0,0,1,.807,2.48v3.4a1.721,1.721,0,0,0,.116.785.54.54,0,0,0,.495.189q.116,0,.524-.029v1.542q-.175.015-.48.015a2.17,2.17,0,0,1-1.745-.582,2.2,2.2,0,0,1-.975.6A4.889,4.889,0,0,1,82.676,136.2Zm0-1.542a2.894,2.894,0,0,0,1.135-.175.992.992,0,0,0,.545-.6,3.766,3.766,0,0,0,.153-1.222v-.713H82.676a5.973,5.973,0,0,0-1.178.08A.7.7,0,0,0,81,132.4a2.247,2.247,0,0,0-.145.953,1.75,1.75,0,0,0,.145.807.842.842,0,0,0,.531.385A4.211,4.211,0,0,0,82.676,134.662Zm6.545,4.189a2.956,2.956,0,0,1-.989-.145,3.862,3.862,0,0,1-.9-.495L88,136.8a7.677,7.677,0,0,0,.756.422,1.172,1.172,0,0,0,.465.087,2.06,2.06,0,0,0,.844-.145,1.366,1.366,0,0,0,.56-.5,4.5,4.5,0,0,0,.473-1.055l-3.011-8.6h1.745l2.153,6.4,2.182-6.4h1.76L92.8,135.724a7.972,7.972,0,0,1-.887,1.862,2.8,2.8,0,0,1-1.1.967A3.736,3.736,0,0,1,89.222,138.851Zm11.142-2.647a7.089,7.089,0,0,1-1.825-.2,2.8,2.8,0,0,1-1.207-.655,4.126,4.126,0,0,1-.865-1.258l1.295-1.222a4.521,4.521,0,0,0,.524,1.12,1.408,1.408,0,0,0,.727.516,4.579,4.579,0,0,0,1.353.153,3.478,3.478,0,0,0,1.28-.182,1.084,1.084,0,0,0,.611-.6,3.38,3.38,0,0,0,.175-1.236,1.819,1.819,0,0,0-.189-.916,1.494,1.494,0,0,0-.625-.545,10.648,10.648,0,0,0-1.4-.545,11.3,11.3,0,0,1-2.029-.844,2.7,2.7,0,0,1-1.025-.96,2.854,2.854,0,0,1-.32-1.44,4.361,4.361,0,0,1,.342-1.884,2.067,2.067,0,0,1,1.105-1.025,5.482,5.482,0,0,1,2.073-.32,6.738,6.738,0,0,1,1.68.175,2.794,2.794,0,0,1,1.127.575,3.786,3.786,0,0,1,.844,1.113l-1.193,1.295a4.558,4.558,0,0,0-.524-1.025,1.294,1.294,0,0,0-.684-.458,4.59,4.59,0,0,0-1.251-.131,3.469,3.469,0,0,0-1.156.145.9.9,0,0,0-.538.5,2.75,2.75,0,0,0-.153,1.04,1.5,1.5,0,0,0,.16.771,1.226,1.226,0,0,0,.545.444,10.909,10.909,0,0,0,1.273.458,11.3,11.3,0,0,1,2.16.873A2.769,2.769,0,0,1,103.76,131a3.43,3.43,0,0,1,.342,1.636,4.941,4.941,0,0,1-.364,2.08,2.254,2.254,0,0,1-1.171,1.127A5.568,5.568,0,0,1,100.364,136.2Zm8.989,0a4.717,4.717,0,0,1-2.3-.473,2.687,2.687,0,0,1-1.215-1.491,10.266,10.266,0,0,1,0-5.469,2.671,2.671,0,0,1,1.229-1.491,4.878,4.878,0,0,1,2.342-.473,3.929,3.929,0,0,1,2.022.451,4.57,4.57,0,0,1,1.455,1.6l-1.4.829a5.922,5.922,0,0,0-.625-.844,1.431,1.431,0,0,0-.589-.385,3.522,3.522,0,0,0-2.255.175,1.544,1.544,0,0,0-.684.953,9.485,9.485,0,0,0,0,3.84,1.574,1.574,0,0,0,.662.953,2.627,2.627,0,0,0,1.353.284,2.726,2.726,0,0,0,.865-.116,1.62,1.62,0,0,0,.625-.4,5.752,5.752,0,0,0,.662-.851l1.382.844a4.737,4.737,0,0,1-1.491,1.615A4,4,0,0,1,109.353,136.2Zm8.465,0a4.045,4.045,0,0,1-2.131-.48,2.683,2.683,0,0,1-1.12-1.5,10.993,10.993,0,0,1,0-5.44,2.683,2.683,0,0,1,1.12-1.5,4.986,4.986,0,0,1,4.269,0,2.672,2.672,0,0,1,1.127,1.5,10.993,10.993,0,0,1,0,5.44,2.672,2.672,0,0,1-1.127,1.5A4.085,4.085,0,0,1,117.818,136.2Zm0-1.542a2.059,2.059,0,0,0,1.171-.284,1.586,1.586,0,0,0,.589-.96,10.567,10.567,0,0,0,0-3.825,1.586,1.586,0,0,0-.589-.96,2.059,2.059,0,0,0-1.171-.284,2.022,2.022,0,0,0-1.164.284,1.6,1.6,0,0,0-.582.96,10.567,10.567,0,0,0,0,3.825,1.6,1.6,0,0,0,.582.96A2.022,2.022,0,0,0,117.818,134.662ZM123.535,136v-8.989h1.673v.742a3.2,3.2,0,0,1,.9-.662,2.575,2.575,0,0,1,1.193-.284,3.724,3.724,0,0,1,1.4.225,2.338,2.338,0,0,1,.953.727,4.912,4.912,0,0,1,.72,1.389l-1.5.684a5.212,5.212,0,0,0-.378-.945.95.95,0,0,0-.444-.422,1.938,1.938,0,0,0-.749-.116,1.747,1.747,0,0,0-1.615.778,4.348,4.348,0,0,0-.48,2.262V136Zm11.782-1.338a2.4,2.4,0,0,0,1.244-.3,3.693,3.693,0,0,0,1.04-1.055l1.338.887a4.8,4.8,0,0,1-1.535,1.571,4.269,4.269,0,0,1-2.087.436,4.986,4.986,0,0,1-2.305-.436,2.492,2.492,0,0,1-1.178-1.44,11.351,11.351,0,0,1,0-5.644,2.492,2.492,0,0,1,1.178-1.44,4.986,4.986,0,0,1,2.305-.436,4.5,4.5,0,0,1,2.262.473,2.658,2.658,0,0,1,1.156,1.578,10.751,10.751,0,0,1,.349,3.1h-5.92a5.415,5.415,0,0,0,.262,1.615,1.53,1.53,0,0,0,.669.836A2.49,2.49,0,0,0,135.316,134.662Zm0-6.313a2.179,2.179,0,0,0-1.542.458,2.493,2.493,0,0,0-.582,1.607h4.175a3.266,3.266,0,0,0-.189-1.244,1.157,1.157,0,0,0-.633-.633A3.218,3.218,0,0,0,135.316,128.349Zm11.2,9.76a3.776,3.776,0,0,1-2.575-.989,6.347,6.347,0,0,1-1.731-2.785,14.42,14.42,0,0,1,0-8.305,6.347,6.347,0,0,1,1.731-2.785,3.776,3.776,0,0,1,2.575-.989V123.8a2.25,2.25,0,0,0-1.695.793,5.4,5.4,0,0,0-1.142,2.24,14,14,0,0,0,0,6.705,5.4,5.4,0,0,0,1.142,2.24,2.25,2.25,0,0,0,1.695.793Zm5.847-1.905a3.616,3.616,0,0,1-1.913-.436,3.778,3.778,0,0,1-1.273-1.542l1.324-1.091a6.143,6.143,0,0,0,.5.975,1.149,1.149,0,0,0,.516.429,2.313,2.313,0,0,0,.844.124,7.306,7.306,0,0,0,1.513-.116,1.122,1.122,0,0,0,.7-.385,1.346,1.346,0,0,0,.189-.778,1.389,1.389,0,0,0-.153-.742.941.941,0,0,0-.545-.349,9.326,9.326,0,0,0-1.324-.233,5.729,5.729,0,0,1-2.545-.778,2.021,2.021,0,0,1-.785-1.767,2.951,2.951,0,0,1,.364-1.564,2.114,2.114,0,0,1,1.164-.865,6.786,6.786,0,0,1,2.153-.276,4.309,4.309,0,0,1,1.993.378,3.513,3.513,0,0,1,1.295,1.338l-1.222,1.193a5.357,5.357,0,0,0-.553-.873,1.227,1.227,0,0,0-.567-.385,3.191,3.191,0,0,0-.945-.109,5.831,5.831,0,0,0-1.258.1.916.916,0,0,0-.589.349,1.315,1.315,0,0,0-.16.713.711.711,0,0,0,.175.524,1.107,1.107,0,0,0,.524.262q.349.087,1.076.189a10.274,10.274,0,0,1,2.145.5,2.154,2.154,0,0,1,1.105.858,2.938,2.938,0,0,1,.342,1.535,2.973,2.973,0,0,1-.4,1.636,2.294,2.294,0,0,1-1.295.9A8.161,8.161,0,0,1,152.364,136.2Zm9.353,0a4.717,4.717,0,0,1-2.3-.473,2.687,2.687,0,0,1-1.215-1.491,10.266,10.266,0,0,1,0-5.469,2.671,2.671,0,0,1,1.229-1.491,4.878,4.878,0,0,1,2.342-.473,3.929,3.929,0,0,1,2.022.451,4.57,4.57,0,0,1,1.455,1.6l-1.4.829a5.922,5.922,0,0,0-.625-.844,1.431,1.431,0,0,0-.589-.385,3.522,3.522,0,0,0-2.255.175,1.544,1.544,0,0,0-.684.953,9.485,9.485,0,0,0,0,3.84,1.574,1.574,0,0,0,.662.953,2.627,2.627,0,0,0,1.353.284,2.726,2.726,0,0,0,.865-.116,1.62,1.62,0,0,0,.625-.4,5.753,5.753,0,0,0,.662-.851l1.382.844a4.737,4.737,0,0,1-1.491,1.615A4,4,0,0,1,161.716,136.2Zm8.465,0a4.045,4.045,0,0,1-2.131-.48,2.683,2.683,0,0,1-1.12-1.5,10.993,10.993,0,0,1,0-5.44,2.683,2.683,0,0,1,1.12-1.5,4.986,4.986,0,0,1,4.269,0,2.672,2.672,0,0,1,1.127,1.5,10.993,10.993,0,0,1,0,5.44,2.672,2.672,0,0,1-1.127,1.5A4.085,4.085,0,0,1,170.182,136.2Zm0-1.542a2.059,2.059,0,0,0,1.171-.284,1.586,1.586,0,0,0,.589-.96,10.567,10.567,0,0,0,0-3.825,1.586,1.586,0,0,0-.589-.96,2.059,2.059,0,0,0-1.171-.284,2.022,2.022,0,0,0-1.164.284,1.6,1.6,0,0,0-.582.96,10.567,10.567,0,0,0,0,3.825,1.6,1.6,0,0,0,.582.96A2.022,2.022,0,0,0,170.182,134.662ZM175.9,136v-8.989h1.673v.742a3.2,3.2,0,0,1,.9-.662,2.575,2.575,0,0,1,1.193-.284,3.724,3.724,0,0,1,1.4.225,2.338,2.338,0,0,1,.953.727,4.912,4.912,0,0,1,.72,1.389l-1.5.684a5.212,5.212,0,0,0-.378-.945.95.95,0,0,0-.444-.422,1.938,1.938,0,0,0-.749-.116,1.747,1.747,0,0,0-1.615.778,4.348,4.348,0,0,0-.48,2.262V136Zm11.782-1.338a2.4,2.4,0,0,0,1.244-.3,3.693,3.693,0,0,0,1.04-1.055l1.338.887a4.8,4.8,0,0,1-1.535,1.571,4.269,4.269,0,0,1-2.087.436,4.986,4.986,0,0,1-2.305-.436,2.492,2.492,0,0,1-1.178-1.44,11.351,11.351,0,0,1,0-5.644,2.492,2.492,0,0,1,1.178-1.44,4.986,4.986,0,0,1,2.305-.436,4.5,4.5,0,0,1,2.262.473,2.658,2.658,0,0,1,1.156,1.578,10.751,10.751,0,0,1,.349,3.1h-5.92a5.415,5.415,0,0,0,.262,1.615,1.53,1.53,0,0,0,.669.836A2.49,2.49,0,0,0,187.68,134.662Zm0-6.313a2.179,2.179,0,0,0-1.542.458,2.493,2.493,0,0,0-.582,1.607h4.175a3.266,3.266,0,0,0-.189-1.244,1.157,1.157,0,0,0-.633-.633A3.218,3.218,0,0,0,187.68,128.349Zm6.182,8.218a2.25,2.25,0,0,0,1.695-.793,5.4,5.4,0,0,0,1.142-2.24,14,14,0,0,0,0-6.705,5.4,5.4,0,0,0-1.142-2.24,2.25,2.25,0,0,0-1.695-.793v-1.542a3.776,3.776,0,0,1,2.575.989,6.347,6.347,0,0,1,1.731,2.785,14.42,14.42,0,0,1,0,8.305,6.347,6.347,0,0,1-1.731,2.785,3.776,3.776,0,0,1-2.575.989Zm9.556,2.284a12.415,12.415,0,0,0,1.025-1.585,2.365,2.365,0,0,0,.284-1.047.912.912,0,0,1-.756-.262,1.671,1.671,0,0,1-.2-.975,1.31,1.31,0,0,1,.284-.967,2.144,2.144,0,0,1,2.08,0,1.31,1.31,0,0,1,.284.967,4.675,4.675,0,0,1-.371,1.913,8.293,8.293,0,0,1-1.345,1.956Zm1.673-9.615a1.523,1.523,0,0,1-1.04-.269,1.286,1.286,0,0,1-.284-.953,1.31,1.31,0,0,1,.284-.967,2.144,2.144,0,0,1,2.08,0,1.31,1.31,0,0,1,.284.967,1.286,1.286,0,0,1-.284.953A1.523,1.523,0,0,1,205.091,129.236ZM1.309,160.553a5.429,5.429,0,0,0,1.455-.153,1.3,1.3,0,0,0,.756-.5,1.745,1.745,0,0,0,.233-.975,5.792,5.792,0,0,0-.145-1.222,4.536,4.536,0,0,1-.116-.887,2.543,2.543,0,0,1,.378-1.338,5.043,5.043,0,0,1,1.236-1.295,5.066,5.066,0,0,1-1.229-1.316,2.643,2.643,0,0,1-.385-1.375,3.8,3.8,0,0,1,.131-.9,4.867,4.867,0,0,0,.145-1.12,1.814,1.814,0,0,0-.233-1,1.293,1.293,0,0,0-.764-.509,5.514,5.514,0,0,0-1.462-.153v-1.556a5.165,5.165,0,0,1,3.135.756,2.839,2.839,0,0,1,.982,2.4,7.185,7.185,0,0,1-.145,1.338,5.917,5.917,0,0,0-.116.887,1.664,1.664,0,0,0,.509.887q.509.582,1.644,1.658-1.12,1.047-1.636,1.629a1.679,1.679,0,0,0-.516.858,7.651,7.651,0,0,0,.116.989,7.828,7.828,0,0,1,.145,1.309,2.818,2.818,0,0,1-.982,2.393,5.2,5.2,0,0,1-3.135.749Z" transform="translate(637.156 22651.684)" fill="#12263f"/>
  </g>
</svg>
