<svg xmlns="http://www.w3.org/2000/svg" width="610" height="235" viewBox="0 0 610 235">
  <g id="Grupo_167877" data-name="Grupo 167877" transform="translate(-519 -27616)">
    <rect id="Rectángulo_342046" data-name="Rectángulo 342046" width="610" height="235" rx="25" transform="translate(519 27616)" fill="#05dbf3" opacity="0.2"/>
    <path id="Trazado_688250" data-name="Trazado 688250" d="M57.3,18.48H55.515L51.7,7.869h2.043l2.661,7.675,2.713-7.675h2.026Zm9.426.24a4.775,4.775,0,0,1-2.515-.567,3.168,3.168,0,0,1-1.322-1.769,10.376,10.376,0,0,1-.4-3.211,10.376,10.376,0,0,1,.4-3.211A3.168,3.168,0,0,1,64.212,8.2a5.886,5.886,0,0,1,5.039,0,3.154,3.154,0,0,1,1.331,1.769,10.376,10.376,0,0,1,.4,3.211,10.376,10.376,0,0,1-.4,3.211,3.154,3.154,0,0,1-1.331,1.769A4.822,4.822,0,0,1,66.727,18.721Zm0-1.82a2.43,2.43,0,0,0,1.382-.335,1.872,1.872,0,0,0,.7-1.133,9.531,9.531,0,0,0,.206-2.258,9.531,9.531,0,0,0-.206-2.258,1.872,1.872,0,0,0-.7-1.133,2.43,2.43,0,0,0-1.382-.335,2.387,2.387,0,0,0-1.374.335,1.891,1.891,0,0,0-.687,1.133,9.531,9.531,0,0,0-.206,2.258,9.531,9.531,0,0,0,.206,2.258,1.891,1.891,0,0,0,.687,1.133A2.387,2.387,0,0,0,66.727,16.9ZM78.471,7.869V16.66h3v1.82H73.492V16.66h3V9.689H74.333V7.869ZM77.115,6.324a1.731,1.731,0,0,1-1.176-.3,1.506,1.506,0,0,1-.318-1.107,1.506,1.506,0,0,1,.318-1.107,1.731,1.731,0,0,1,1.176-.3,1.768,1.768,0,0,1,1.185.3,1.479,1.479,0,0,1,.326,1.107A1.479,1.479,0,0,1,78.3,6.023,1.768,1.768,0,0,1,77.115,6.324Zm10.13,12.4a4.834,4.834,0,0,1-2.515-.558,3.127,3.127,0,0,1-1.322-1.76,10.375,10.375,0,0,1-.4-3.211,10.445,10.445,0,0,1,.4-3.228A3.168,3.168,0,0,1,84.73,8.2a4.775,4.775,0,0,1,2.515-.567,6.408,6.408,0,0,1,2.3.412v-3.3h1.975V18.48H89.546v-.12A6.743,6.743,0,0,1,87.245,18.721Zm0-1.82a4.274,4.274,0,0,0,1.743-.266.813.813,0,0,0,.558-.73V11.853a2.611,2.611,0,0,0-.541-1.82,2.3,2.3,0,0,0-1.76-.584,2.341,2.341,0,0,0-1.374.343,1.932,1.932,0,0,0-.687,1.142,9.531,9.531,0,0,0-.206,2.258,9.418,9.418,0,0,0,.206,2.249,1.885,1.885,0,0,0,.687,1.125A2.387,2.387,0,0,0,87.245,16.9Zm20.69,1.82a4.76,4.76,0,0,1-2.481-.549,3.115,3.115,0,0,1-1.3-1.76,10.6,10.6,0,0,1-.4-3.254V4.744h1.975v8.413a10.132,10.132,0,0,0,.2,2.292,1.836,1.836,0,0,0,.67,1.125,2.357,2.357,0,0,0,1.348.326,2.4,2.4,0,0,0,1.356-.326,1.818,1.818,0,0,0,.678-1.125,10.132,10.132,0,0,0,.2-2.292V4.744h1.975v8.413a10.6,10.6,0,0,1-.4,3.254,3.1,3.1,0,0,1-1.314,1.76A4.808,4.808,0,0,1,107.935,18.721Zm6.147,2.885V7.869h1.992v.1a6.992,6.992,0,0,1,2.284-.343,4.882,4.882,0,0,1,2.524.558,3.115,3.115,0,0,1,1.331,1.76,10.376,10.376,0,0,1,.4,3.211,10.461,10.461,0,0,1-.4,3.219,3.156,3.156,0,0,1-1.331,1.777,4.822,4.822,0,0,1-2.524.567,6.271,6.271,0,0,1-2.284-.412v3.3Zm4.275-4.7a2.383,2.383,0,0,0,1.382-.343,1.913,1.913,0,0,0,.7-1.142,9.531,9.531,0,0,0,.206-2.258,9.418,9.418,0,0,0-.206-2.249,1.866,1.866,0,0,0-.7-1.125,2.43,2.43,0,0,0-1.382-.335q-2.284,0-2.284,1V14.5a2.639,2.639,0,0,0,.532,1.82A2.274,2.274,0,0,0,118.357,16.9Zm10.1,1.82a4.834,4.834,0,0,1-2.515-.558,3.127,3.127,0,0,1-1.322-1.76,10.375,10.375,0,0,1-.4-3.211,10.445,10.445,0,0,1,.4-3.228A3.168,3.168,0,0,1,125.938,8.2a4.775,4.775,0,0,1,2.515-.567,6.408,6.408,0,0,1,2.3.412v-3.3h1.975V18.48h-1.975v-.12A6.743,6.743,0,0,1,128.453,18.721Zm0-1.82a4.274,4.274,0,0,0,1.743-.266.814.814,0,0,0,.558-.73V11.853a2.611,2.611,0,0,0-.541-1.82,2.3,2.3,0,0,0-1.76-.584,2.341,2.341,0,0,0-1.374.343,1.932,1.932,0,0,0-.687,1.142,9.531,9.531,0,0,0-.206,2.258,9.418,9.418,0,0,0,.206,2.249,1.885,1.885,0,0,0,.687,1.125A2.387,2.387,0,0,0,128.453,16.9Zm10.113,1.82a7,7,0,0,1-2.43-.343,2.4,2.4,0,0,1-1.3-1.073,4.029,4.029,0,0,1-.4-1.949,4.532,4.532,0,0,1,.4-2.121,2.2,2.2,0,0,1,1.288-1.047,7.893,7.893,0,0,1,2.447-.3h2.163v-.378a2.761,2.761,0,0,0-.18-1.116,1.05,1.05,0,0,0-.644-.558,4.236,4.236,0,0,0-1.339-.163,3.193,3.193,0,0,0-1.1.146,1.106,1.106,0,0,0-.584.524,5.022,5.022,0,0,0-.395,1.15l-1.889-.464a6.9,6.9,0,0,1,.773-1.957,2.811,2.811,0,0,1,1.236-1.09,4.734,4.734,0,0,1,1.957-.352,4.4,4.4,0,0,1,3.185.953,3.987,3.987,0,0,1,.953,2.927v4.018a2.032,2.032,0,0,0,.137.927.637.637,0,0,0,.584.223q.137,0,.618-.034v1.82q-.206.017-.567.017a2.562,2.562,0,0,1-2.06-.687,2.6,2.6,0,0,1-1.15.713A5.772,5.772,0,0,1,138.567,18.721Zm0-1.82a3.416,3.416,0,0,0,1.339-.206,1.171,1.171,0,0,0,.644-.7,4.445,4.445,0,0,0,.18-1.442v-.841h-2.163a7.05,7.05,0,0,0-1.391.094.822.822,0,0,0-.584.429,2.652,2.652,0,0,0-.172,1.125,2.066,2.066,0,0,0,.172.953.994.994,0,0,0,.627.455A4.97,4.97,0,0,0,138.567,16.9Zm11.693,1.82a4.057,4.057,0,0,1-2.009-.429,2.518,2.518,0,0,1-1.107-1.365,7.138,7.138,0,0,1-.352-2.464V9.483h-2.129V7.663h2.129V4.744h1.975V7.663h3.554v1.82h-3.554v4.979a6.178,6.178,0,0,0,.137,1.485,1.22,1.22,0,0,0,.455.738,1.6,1.6,0,0,0,.9.215,3.492,3.492,0,0,0,.919-.086.679.679,0,0,0,.412-.309,4.239,4.239,0,0,0,.3-.773l1.854.635a3.937,3.937,0,0,1-.67,1.4A2.3,2.3,0,0,1,152,18.5,5.582,5.582,0,0,1,150.259,18.721ZM159.5,16.9a2.831,2.831,0,0,0,1.468-.352,4.36,4.36,0,0,0,1.228-1.245l1.58,1.047a5.661,5.661,0,0,1-1.811,1.854,5.039,5.039,0,0,1-2.464.515,5.886,5.886,0,0,1-2.721-.515,2.942,2.942,0,0,1-1.391-1.7,10.361,10.361,0,0,1-.421-3.331,10.361,10.361,0,0,1,.421-3.331,2.942,2.942,0,0,1,1.391-1.7,5.886,5.886,0,0,1,2.721-.515,5.314,5.314,0,0,1,2.67.558,3.138,3.138,0,0,1,1.365,1.863,12.69,12.69,0,0,1,.412,3.657h-6.988a6.392,6.392,0,0,0,.309,1.906,1.806,1.806,0,0,0,.79.987A2.939,2.939,0,0,0,159.5,16.9Zm0-7.452a2.572,2.572,0,0,0-1.82.541,2.943,2.943,0,0,0-.687,1.9h4.928a3.856,3.856,0,0,0-.223-1.468,1.366,1.366,0,0,0-.747-.747A3.8,3.8,0,0,0,159.5,9.449ZM172.718,20.97a4.457,4.457,0,0,1-3.039-1.168,7.492,7.492,0,0,1-2.043-3.288,15.216,15.216,0,0,1-.721-4.9,15.216,15.216,0,0,1,.721-4.9,7.492,7.492,0,0,1,2.043-3.288,4.457,4.457,0,0,1,3.039-1.168v1.82a2.656,2.656,0,0,0-2,.936,6.377,6.377,0,0,0-1.348,2.644,14.665,14.665,0,0,0-.481,3.958,14.665,14.665,0,0,0,.481,3.958,6.377,6.377,0,0,0,1.348,2.644,2.656,2.656,0,0,0,2,.936Zm4.378-1.82a2.656,2.656,0,0,0,2-.936,6.377,6.377,0,0,0,1.348-2.644,14.665,14.665,0,0,0,.481-3.958,14.665,14.665,0,0,0-.481-3.958A6.377,6.377,0,0,0,179.1,5.01a2.656,2.656,0,0,0-2-.936V2.255a4.457,4.457,0,0,1,3.039,1.168,7.492,7.492,0,0,1,2.043,3.288,15.216,15.216,0,0,1,.721,4.9,15.216,15.216,0,0,1-.721,4.9,7.492,7.492,0,0,1-2.043,3.288A4.457,4.457,0,0,1,177.1,20.97ZM8.521,49.3a6.1,6.1,0,0,1-3.692-.884,3.338,3.338,0,0,1-1.15-2.824,9.241,9.241,0,0,1,.172-1.545,9.032,9.032,0,0,0,.137-1.168,1.919,1.919,0,0,0-.6-1q-.6-.67-1.957-1.94,1.356-1.3,1.957-1.975a1.9,1.9,0,0,0,.6-1.03,6.985,6.985,0,0,0-.137-1.047,8.482,8.482,0,0,1-.172-1.58,3.363,3.363,0,0,1,1.15-2.833,6.056,6.056,0,0,1,3.692-.893v1.837A6.408,6.408,0,0,0,6.8,32.6a1.523,1.523,0,0,0-.893.6,2.141,2.141,0,0,0-.275,1.176A5.745,5.745,0,0,0,5.808,35.7a4.491,4.491,0,0,1,.155,1.065A3.048,3.048,0,0,1,5.5,38.372a6.365,6.365,0,0,1-1.459,1.571,6.108,6.108,0,0,1,1.468,1.528,2.959,2.959,0,0,1,.455,1.58A5.355,5.355,0,0,1,5.825,44.1a6.838,6.838,0,0,0-.172,1.442,2.112,2.112,0,0,0,.266,1.15,1.5,1.5,0,0,0,.884.592,6.408,6.408,0,0,0,1.717.18Zm37.6,26.081a4.76,4.76,0,0,1-2.481-.549,3.115,3.115,0,0,1-1.3-1.76,10.6,10.6,0,0,1-.4-3.254V61.405h1.975v8.413a10.133,10.133,0,0,0,.2,2.292,1.836,1.836,0,0,0,.67,1.125,2.357,2.357,0,0,0,1.348.326,2.4,2.4,0,0,0,1.356-.326,1.818,1.818,0,0,0,.678-1.125,10.132,10.132,0,0,0,.2-2.292V61.405H50.33v8.413a10.6,10.6,0,0,1-.4,3.254,3.1,3.1,0,0,1-1.314,1.76A4.808,4.808,0,0,1,46.123,75.382Zm6.147,2.885V64.53h1.992v.1a6.992,6.992,0,0,1,2.284-.343,4.882,4.882,0,0,1,2.524.558,3.115,3.115,0,0,1,1.331,1.76,13.011,13.011,0,0,1,0,6.43,3.156,3.156,0,0,1-1.331,1.777,4.822,4.822,0,0,1-2.524.567,6.271,6.271,0,0,1-2.284-.412v3.3Zm4.275-4.7a2.383,2.383,0,0,0,1.382-.343,1.913,1.913,0,0,0,.7-1.142,9.531,9.531,0,0,0,.206-2.258,9.417,9.417,0,0,0-.206-2.249,1.866,1.866,0,0,0-.7-1.125,2.43,2.43,0,0,0-1.382-.335q-2.284,0-2.284,1v4.052a2.639,2.639,0,0,0,.532,1.82A2.274,2.274,0,0,0,56.545,73.562Zm10.1,1.82a4.834,4.834,0,0,1-2.515-.558,3.127,3.127,0,0,1-1.322-1.76,13.045,13.045,0,0,1,0-6.439,3.168,3.168,0,0,1,1.322-1.769,4.775,4.775,0,0,1,2.515-.567,6.408,6.408,0,0,1,2.3.412v-3.3h1.975V75.141H68.942v-.12A6.743,6.743,0,0,1,66.641,75.382Zm0-1.82a4.274,4.274,0,0,0,1.743-.266.814.814,0,0,0,.558-.73V68.514a2.611,2.611,0,0,0-.541-1.82,2.3,2.3,0,0,0-1.76-.584,2.341,2.341,0,0,0-1.374.343,1.932,1.932,0,0,0-.687,1.142,9.531,9.531,0,0,0-.206,2.258,9.418,9.418,0,0,0,.206,2.249,1.885,1.885,0,0,0,.687,1.125A2.387,2.387,0,0,0,66.641,73.562Zm10.113,1.82a7,7,0,0,1-2.43-.343,2.4,2.4,0,0,1-1.3-1.073,4.029,4.029,0,0,1-.4-1.949,4.532,4.532,0,0,1,.4-2.12,2.2,2.2,0,0,1,1.288-1.047,7.893,7.893,0,0,1,2.447-.3h2.163V68.17a2.761,2.761,0,0,0-.18-1.116,1.05,1.05,0,0,0-.644-.558,4.236,4.236,0,0,0-1.339-.163,3.193,3.193,0,0,0-1.1.146,1.106,1.106,0,0,0-.584.524,5.022,5.022,0,0,0-.395,1.15l-1.889-.464a6.9,6.9,0,0,1,.773-1.957,2.811,2.811,0,0,1,1.236-1.09,4.734,4.734,0,0,1,1.957-.352,4.4,4.4,0,0,1,3.185.953,3.987,3.987,0,0,1,.953,2.927v4.018a2.032,2.032,0,0,0,.137.927.637.637,0,0,0,.584.223q.137,0,.618-.034v1.82q-.206.017-.567.017a2.562,2.562,0,0,1-2.06-.687,2.6,2.6,0,0,1-1.15.713A5.772,5.772,0,0,1,76.754,75.382Zm0-1.82a3.416,3.416,0,0,0,1.339-.206,1.171,1.171,0,0,0,.644-.7,4.445,4.445,0,0,0,.18-1.442v-.841H76.754a7.05,7.05,0,0,0-1.391.094.822.822,0,0,0-.584.429,2.652,2.652,0,0,0-.172,1.125,2.066,2.066,0,0,0,.172.953.994.994,0,0,0,.627.455A4.97,4.97,0,0,0,76.754,73.562Zm11.693,1.82a4.057,4.057,0,0,1-2.009-.429,2.518,2.518,0,0,1-1.107-1.365,7.138,7.138,0,0,1-.352-2.464V66.144H82.85v-1.82h2.129V61.405h1.975v2.919h3.554v1.82H86.953v4.979a6.177,6.177,0,0,0,.137,1.485,1.22,1.22,0,0,0,.455.738,1.6,1.6,0,0,0,.9.215,3.491,3.491,0,0,0,.919-.086.679.679,0,0,0,.412-.309,4.239,4.239,0,0,0,.3-.773l1.854.635a3.937,3.937,0,0,1-.67,1.4,2.3,2.3,0,0,1-1.073.73A5.582,5.582,0,0,1,88.447,75.382Zm9.237-1.82a2.831,2.831,0,0,0,1.468-.352,4.36,4.36,0,0,0,1.228-1.245l1.58,1.047a5.661,5.661,0,0,1-1.811,1.854,5.039,5.039,0,0,1-2.464.515,5.886,5.886,0,0,1-2.721-.515,2.942,2.942,0,0,1-1.391-1.7,10.361,10.361,0,0,1-.421-3.331,10.361,10.361,0,0,1,.421-3.331,2.942,2.942,0,0,1,1.391-1.7,5.886,5.886,0,0,1,2.721-.515,5.314,5.314,0,0,1,2.67.558,3.138,3.138,0,0,1,1.365,1.863,12.69,12.69,0,0,1,.412,3.657H95.143a6.391,6.391,0,0,0,.309,1.906,1.806,1.806,0,0,0,.79.987A2.939,2.939,0,0,0,97.685,73.562Zm0-7.452a2.572,2.572,0,0,0-1.82.541,2.943,2.943,0,0,0-.687,1.9h4.928a3.855,3.855,0,0,0-.223-1.468,1.366,1.366,0,0,0-.747-.747A3.8,3.8,0,0,0,97.685,66.11Zm15.419-4.7v1.82h-4.172V75.141h-1.975V63.225h-4.189v-1.82Zm1.58,13.736V64.53h1.975v.876a3.775,3.775,0,0,1,1.065-.781,3.039,3.039,0,0,1,1.408-.335,4.4,4.4,0,0,1,1.648.266,2.76,2.76,0,0,1,1.125.859,5.8,5.8,0,0,1,.85,1.64l-1.769.807a6.152,6.152,0,0,0-.446-1.116,1.121,1.121,0,0,0-.524-.5,2.288,2.288,0,0,0-.884-.137,2.062,2.062,0,0,0-1.906.919,5.133,5.133,0,0,0-.567,2.67v5.443Zm13.582.24a7,7,0,0,1-2.43-.343,2.4,2.4,0,0,1-1.3-1.073,4.029,4.029,0,0,1-.4-1.949,4.532,4.532,0,0,1,.4-2.12,2.2,2.2,0,0,1,1.288-1.047,7.893,7.893,0,0,1,2.447-.3h2.163V68.17a2.761,2.761,0,0,0-.18-1.116,1.05,1.05,0,0,0-.644-.558,4.236,4.236,0,0,0-1.339-.163,3.193,3.193,0,0,0-1.1.146,1.106,1.106,0,0,0-.584.524,5.022,5.022,0,0,0-.395,1.15L124.3,67.69a6.9,6.9,0,0,1,.773-1.957,2.811,2.811,0,0,1,1.236-1.09,4.734,4.734,0,0,1,1.957-.352,4.4,4.4,0,0,1,3.185.953,3.987,3.987,0,0,1,.953,2.927v4.018a2.032,2.032,0,0,0,.137.927.637.637,0,0,0,.584.223q.137,0,.618-.034v1.82q-.206.017-.567.017a2.562,2.562,0,0,1-2.06-.687,2.6,2.6,0,0,1-1.15.713A5.772,5.772,0,0,1,128.264,75.382Zm0-1.82a3.416,3.416,0,0,0,1.339-.206,1.171,1.171,0,0,0,.644-.7,4.445,4.445,0,0,0,.18-1.442v-.841h-2.163a7.05,7.05,0,0,0-1.391.094.822.822,0,0,0-.584.429,2.652,2.652,0,0,0-.172,1.125,2.066,2.066,0,0,0,.172.953.994.994,0,0,0,.627.455A4.97,4.97,0,0,0,128.264,73.562Zm6.559,1.58V64.53H136.8v.258a5.983,5.983,0,0,1,2.524-.5,5.107,5.107,0,0,1,2.258.4,2.324,2.324,0,0,1,1.142,1.356,8.25,8.25,0,0,1,.343,2.687v6.4h-1.992v-6.4a5.96,5.96,0,0,0-.163-1.588,1.36,1.36,0,0,0-.532-.8,1.936,1.936,0,0,0-1.056-.24,5,5,0,0,0-1.64.2,1.132,1.132,0,0,0-.7.7,4.876,4.876,0,0,0-.18,1.545v6.593Zm13.891.24a4.269,4.269,0,0,1-2.258-.515,4.46,4.46,0,0,1-1.5-1.82l1.562-1.288a7.253,7.253,0,0,0,.592,1.15,1.357,1.357,0,0,0,.61.507,2.73,2.73,0,0,0,1,.146,8.624,8.624,0,0,0,1.786-.137,1.324,1.324,0,0,0,.824-.455,1.589,1.589,0,0,0,.223-.919,1.639,1.639,0,0,0-.18-.876,1.11,1.11,0,0,0-.644-.412,11.008,11.008,0,0,0-1.562-.275,6.763,6.763,0,0,1-3-.919,2.386,2.386,0,0,1-.927-2.086,3.483,3.483,0,0,1,.429-1.846,2.5,2.5,0,0,1,1.374-1.022,8.01,8.01,0,0,1,2.541-.326,5.086,5.086,0,0,1,2.352.446,4.146,4.146,0,0,1,1.528,1.58l-1.442,1.408a6.323,6.323,0,0,0-.652-1.03,1.448,1.448,0,0,0-.67-.455,3.766,3.766,0,0,0-1.116-.129,6.884,6.884,0,0,0-1.485.12,1.081,1.081,0,0,0-.7.412,1.553,1.553,0,0,0-.189.841.84.84,0,0,0,.206.618,1.306,1.306,0,0,0,.618.309q.412.1,1.271.223a12.128,12.128,0,0,1,2.533.592,2.543,2.543,0,0,1,1.3,1.013,3.468,3.468,0,0,1,.4,1.811,3.51,3.51,0,0,1-.472,1.932,2.708,2.708,0,0,1-1.528,1.065A9.634,9.634,0,0,1,148.714,75.382Zm12.139-14.217a6.39,6.39,0,0,1,1.863.223,2.339,2.339,0,0,1,1.133.73,3.664,3.664,0,0,1,.661,1.4l-1.854.635a2.72,2.72,0,0,0-.283-.755.8.8,0,0,0-.472-.318,4.144,4.144,0,0,0-1.047-.094,2.8,2.8,0,0,0-1.15.18,1.03,1.03,0,0,0-.532.635,4.6,4.6,0,0,0-.155,1.382v1h3.056V68h-3.056v7.143h-1.975V68h-2.129v-1.82h2.129v-1a6.16,6.16,0,0,1,.369-2.361,2.379,2.379,0,0,1,1.2-1.262A5.3,5.3,0,0,1,160.853,61.165Zm8.894,14.217a4.775,4.775,0,0,1-2.515-.567,3.168,3.168,0,0,1-1.322-1.769,12.976,12.976,0,0,1,0-6.422,3.168,3.168,0,0,1,1.322-1.769,5.886,5.886,0,0,1,5.039,0,3.154,3.154,0,0,1,1.331,1.769,12.977,12.977,0,0,1,0,6.422,3.154,3.154,0,0,1-1.331,1.769A4.822,4.822,0,0,1,169.747,75.382Zm0-1.82a2.43,2.43,0,0,0,1.382-.335,1.872,1.872,0,0,0,.7-1.133,12.473,12.473,0,0,0,0-4.516,1.872,1.872,0,0,0-.7-1.133,2.43,2.43,0,0,0-1.382-.335,2.387,2.387,0,0,0-1.374.335,1.891,1.891,0,0,0-.687,1.133,12.474,12.474,0,0,0,0,4.516,1.891,1.891,0,0,0,.687,1.133A2.387,2.387,0,0,0,169.747,73.562Zm6.748,1.58V64.53h1.975v.876a3.775,3.775,0,0,1,1.065-.781,3.039,3.039,0,0,1,1.408-.335,4.4,4.4,0,0,1,1.648.266,2.76,2.76,0,0,1,1.125.859,5.8,5.8,0,0,1,.85,1.64l-1.769.807a6.152,6.152,0,0,0-.446-1.116,1.121,1.121,0,0,0-.524-.5,2.288,2.288,0,0,0-.884-.137,2.062,2.062,0,0,0-1.906.919,5.133,5.133,0,0,0-.567,2.67v5.443Zm9.117,0V64.53h1.975v-.069q.137-.034.515-.1a3.794,3.794,0,0,1,.67-.069,2.428,2.428,0,0,1,1.065.189,2.017,2.017,0,0,1,.721.687,2.243,2.243,0,0,1,1.957-.876,2.532,2.532,0,0,1,1.545.412,2.349,2.349,0,0,1,.79,1.356,11.178,11.178,0,0,1,.24,2.627v6.456h-1.975V68.686a9.148,9.148,0,0,0-.129-1.88q-.129-.524-.472-.524a.939.939,0,0,0-.919.481,4.17,4.17,0,0,0-.249,1.734v6.645h-1.975V68.789a9.354,9.354,0,0,0-.137-1.949q-.137-.558-.464-.558a.958.958,0,0,0-.927.481,4.044,4.044,0,0,0-.258,1.734v6.645ZM201,61.405a6.228,6.228,0,0,1,2.49.412,2.609,2.609,0,0,1,1.348,1.3,5.714,5.714,0,0,1,.421,2.4,6.079,6.079,0,0,1-.412,2.49,2.4,2.4,0,0,1-1.331,1.262,6.926,6.926,0,0,1-2.515.369h-2.249v5.494h-1.975V61.405h1.889l.086-.086v.086Zm0,6.422a4.679,4.679,0,0,0,1.442-.163,1.055,1.055,0,0,0,.652-.635,4.358,4.358,0,0,0,.189-1.5,3.947,3.947,0,0,0-.2-1.417,1.2,1.2,0,0,0-.678-.687,3.874,3.874,0,0,0-1.408-.2h-2.249v4.6Zm9.959,7.555a4.775,4.775,0,0,1-2.515-.567,3.168,3.168,0,0,1-1.322-1.769,12.976,12.976,0,0,1,0-6.422,3.168,3.168,0,0,1,1.322-1.769,5.886,5.886,0,0,1,5.039,0,3.154,3.154,0,0,1,1.331,1.769,12.977,12.977,0,0,1,0,6.422,3.154,3.154,0,0,1-1.331,1.769A4.822,4.822,0,0,1,210.955,75.382Zm0-1.82a2.43,2.43,0,0,0,1.382-.335,1.872,1.872,0,0,0,.7-1.133,12.474,12.474,0,0,0,0-4.516,1.872,1.872,0,0,0-.7-1.133,2.43,2.43,0,0,0-1.382-.335,2.387,2.387,0,0,0-1.374.335,1.891,1.891,0,0,0-.687,1.133,12.474,12.474,0,0,0,0,4.516,1.891,1.891,0,0,0,.687,1.133A2.387,2.387,0,0,0,210.955,73.562Zm9.873,1.82a4.269,4.269,0,0,1-2.258-.515,4.46,4.46,0,0,1-1.5-1.82l1.562-1.288a7.251,7.251,0,0,0,.592,1.15,1.357,1.357,0,0,0,.61.507,2.73,2.73,0,0,0,1,.146,8.624,8.624,0,0,0,1.786-.137,1.324,1.324,0,0,0,.824-.455,1.589,1.589,0,0,0,.223-.919,1.639,1.639,0,0,0-.18-.876,1.11,1.11,0,0,0-.644-.412,11.007,11.007,0,0,0-1.562-.275,6.763,6.763,0,0,1-3-.919,2.386,2.386,0,0,1-.927-2.086,3.483,3.483,0,0,1,.429-1.846,2.5,2.5,0,0,1,1.374-1.022,8.01,8.01,0,0,1,2.541-.326,5.086,5.086,0,0,1,2.352.446,4.147,4.147,0,0,1,1.528,1.58l-1.442,1.408a6.324,6.324,0,0,0-.652-1.03,1.448,1.448,0,0,0-.67-.455,3.766,3.766,0,0,0-1.116-.129,6.884,6.884,0,0,0-1.485.12,1.081,1.081,0,0,0-.7.412,1.553,1.553,0,0,0-.189.841.84.84,0,0,0,.206.618,1.306,1.306,0,0,0,.618.309q.412.1,1.271.223a12.128,12.128,0,0,1,2.533.592,2.543,2.543,0,0,1,1.3,1.013,3.468,3.468,0,0,1,.4,1.811,3.51,3.51,0,0,1-.472,1.932,2.707,2.707,0,0,1-1.528,1.065A9.634,9.634,0,0,1,220.828,75.382ZM233,64.53v8.791h3v1.82h-7.984v-1.82h3V66.35h-2.163V64.53Zm-1.356-1.545a1.731,1.731,0,0,1-1.176-.3,2.089,2.089,0,0,1,0-2.215,1.731,1.731,0,0,1,1.176-.3,1.768,1.768,0,0,1,1.185.3,2.043,2.043,0,0,1,0,2.215A1.768,1.768,0,0,1,231.645,62.985Zm11.332,12.4a4.057,4.057,0,0,1-2.009-.429,2.518,2.518,0,0,1-1.107-1.365,7.138,7.138,0,0,1-.352-2.464V66.144H237.38v-1.82h2.129V61.405h1.975v2.919h3.554v1.82h-3.554v4.979a6.178,6.178,0,0,0,.137,1.485,1.22,1.22,0,0,0,.455.738,1.6,1.6,0,0,0,.9.215,3.491,3.491,0,0,0,.919-.086.679.679,0,0,0,.412-.309,4.24,4.24,0,0,0,.3-.773l1.854.635a3.937,3.937,0,0,1-.67,1.4,2.3,2.3,0,0,1-1.073.73A5.582,5.582,0,0,1,242.978,75.382ZM253.606,64.53v8.791h3v1.82h-7.984v-1.82h3V66.35h-2.163V64.53Zm-1.356-1.545a1.731,1.731,0,0,1-1.176-.3,2.089,2.089,0,0,1,0-2.215,1.731,1.731,0,0,1,1.176-.3,1.768,1.768,0,0,1,1.185.3,2.043,2.043,0,0,1,0,2.215A1.768,1.768,0,0,1,252.249,62.985Zm10.216,12.4a4.775,4.775,0,0,1-2.515-.567,3.168,3.168,0,0,1-1.322-1.769,12.976,12.976,0,0,1,0-6.422,3.168,3.168,0,0,1,1.322-1.769,5.886,5.886,0,0,1,5.039,0,3.155,3.155,0,0,1,1.331,1.769,12.976,12.976,0,0,1,0,6.422,3.154,3.154,0,0,1-1.331,1.769A4.822,4.822,0,0,1,262.466,75.382Zm0-1.82a2.43,2.43,0,0,0,1.382-.335,1.872,1.872,0,0,0,.7-1.133,12.473,12.473,0,0,0,0-4.516,1.872,1.872,0,0,0-.7-1.133,2.43,2.43,0,0,0-1.382-.335,2.387,2.387,0,0,0-1.374.335,1.891,1.891,0,0,0-.687,1.133,12.475,12.475,0,0,0,0,4.516,1.891,1.891,0,0,0,.687,1.133A2.387,2.387,0,0,0,262.466,73.562Zm6.284,1.58V64.53h1.975v.258a5.983,5.983,0,0,1,2.524-.5,5.107,5.107,0,0,1,2.258.4,2.324,2.324,0,0,1,1.142,1.356,8.251,8.251,0,0,1,.343,2.687v6.4H275v-6.4a5.961,5.961,0,0,0-.163-1.588,1.36,1.36,0,0,0-.532-.8,1.936,1.936,0,0,0-1.056-.24,5,5,0,0,0-1.64.2,1.132,1.132,0,0,0-.7.7,4.875,4.875,0,0,0-.18,1.545v6.593Zm17.29,2.49A4.457,4.457,0,0,1,283,76.464a7.492,7.492,0,0,1-2.043-3.288,17.022,17.022,0,0,1,0-9.8A7.492,7.492,0,0,1,283,60.083a4.457,4.457,0,0,1,3.039-1.168v1.82a2.656,2.656,0,0,0-2,.936,6.377,6.377,0,0,0-1.348,2.644,16.531,16.531,0,0,0,0,7.915,6.377,6.377,0,0,0,1.348,2.644,2.656,2.656,0,0,0,2,.936Zm4.378-1.82a2.656,2.656,0,0,0,2-.936,6.377,6.377,0,0,0,1.348-2.644,16.53,16.53,0,0,0,0-7.915,6.377,6.377,0,0,0-1.348-2.644,2.656,2.656,0,0,0-2-.936v-1.82a4.457,4.457,0,0,1,3.039,1.168,7.492,7.492,0,0,1,2.043,3.288,17.021,17.021,0,0,1,0,9.8,7.492,7.492,0,0,1-2.043,3.288,4.457,4.457,0,0,1-3.039,1.168Zm11.281,2.7a14.652,14.652,0,0,0,1.211-1.872,2.791,2.791,0,0,0,.335-1.236,1.077,1.077,0,0,1-.893-.309,1.972,1.972,0,0,1-.24-1.15,1.546,1.546,0,0,1,.335-1.142,2.531,2.531,0,0,1,2.455,0,1.546,1.546,0,0,1,.335,1.142A5.518,5.518,0,0,1,304.8,76.2a9.791,9.791,0,0,1-1.588,2.309Zm1.975-11.349a1.8,1.8,0,0,1-1.228-.318,1.518,1.518,0,0,1-.335-1.125,1.546,1.546,0,0,1,.335-1.142,2.531,2.531,0,0,1,2.455,0,1.546,1.546,0,0,1,.335,1.142,1.517,1.517,0,0,1-.335,1.125A1.8,1.8,0,0,1,303.674,67.157ZM46.123,103.712a4.76,4.76,0,0,1-2.481-.549,3.115,3.115,0,0,1-1.3-1.76,10.6,10.6,0,0,1-.4-3.254V89.736h1.975v8.413a10.133,10.133,0,0,0,.2,2.292,1.836,1.836,0,0,0,.67,1.125,2.357,2.357,0,0,0,1.348.326,2.4,2.4,0,0,0,1.356-.326,1.818,1.818,0,0,0,.678-1.125,10.133,10.133,0,0,0,.2-2.292V89.736H50.33v8.413a10.6,10.6,0,0,1-.4,3.254,3.1,3.1,0,0,1-1.314,1.76A4.808,4.808,0,0,1,46.123,103.712ZM52.27,106.6V92.861h1.992v.1a6.992,6.992,0,0,1,2.284-.343,4.882,4.882,0,0,1,2.524.558,3.115,3.115,0,0,1,1.331,1.76,13.011,13.011,0,0,1,0,6.43,3.156,3.156,0,0,1-1.331,1.777,4.822,4.822,0,0,1-2.524.567,6.271,6.271,0,0,1-2.284-.412v3.3Zm4.275-4.7a2.383,2.383,0,0,0,1.382-.343,1.913,1.913,0,0,0,.7-1.142,9.531,9.531,0,0,0,.206-2.258,9.417,9.417,0,0,0-.206-2.249,1.867,1.867,0,0,0-.7-1.125,2.43,2.43,0,0,0-1.382-.335q-2.284,0-2.284,1v4.052a2.639,2.639,0,0,0,.532,1.82A2.274,2.274,0,0,0,56.545,101.892Zm10.1,1.82a4.835,4.835,0,0,1-2.515-.558,3.127,3.127,0,0,1-1.322-1.76,13.045,13.045,0,0,1,0-6.439,3.168,3.168,0,0,1,1.322-1.769,4.775,4.775,0,0,1,2.515-.567,6.408,6.408,0,0,1,2.3.412v-3.3h1.975v13.736H68.942v-.12A6.743,6.743,0,0,1,66.641,103.712Zm0-1.82a4.274,4.274,0,0,0,1.743-.266.814.814,0,0,0,.558-.73V96.844a2.611,2.611,0,0,0-.541-1.82,2.3,2.3,0,0,0-1.76-.584,2.341,2.341,0,0,0-1.374.343,1.932,1.932,0,0,0-.687,1.142,9.531,9.531,0,0,0-.206,2.258,9.418,9.418,0,0,0,.206,2.249,1.885,1.885,0,0,0,.687,1.125A2.387,2.387,0,0,0,66.641,101.892Zm10.113,1.82a7,7,0,0,1-2.43-.343,2.4,2.4,0,0,1-1.3-1.073,4.029,4.029,0,0,1-.4-1.949,4.532,4.532,0,0,1,.4-2.121,2.2,2.2,0,0,1,1.288-1.047,7.893,7.893,0,0,1,2.447-.3h2.163V96.5a2.761,2.761,0,0,0-.18-1.116,1.05,1.05,0,0,0-.644-.558,4.236,4.236,0,0,0-1.339-.163,3.193,3.193,0,0,0-1.1.146,1.106,1.106,0,0,0-.584.524,5.022,5.022,0,0,0-.395,1.15l-1.889-.464a6.9,6.9,0,0,1,.773-1.957,2.811,2.811,0,0,1,1.236-1.09,4.734,4.734,0,0,1,1.957-.352,4.4,4.4,0,0,1,3.185.953,3.987,3.987,0,0,1,.953,2.927v4.018a2.032,2.032,0,0,0,.137.927.637.637,0,0,0,.584.223q.137,0,.618-.034v1.82q-.206.017-.567.017a2.562,2.562,0,0,1-2.06-.687,2.6,2.6,0,0,1-1.15.713A5.772,5.772,0,0,1,76.754,103.712Zm0-1.82a3.416,3.416,0,0,0,1.339-.206,1.171,1.171,0,0,0,.644-.7,4.445,4.445,0,0,0,.18-1.442V98.7H76.754a7.05,7.05,0,0,0-1.391.094.822.822,0,0,0-.584.429,2.652,2.652,0,0,0-.172,1.125,2.066,2.066,0,0,0,.172.953.994.994,0,0,0,.627.455A4.971,4.971,0,0,0,76.754,101.892Zm11.693,1.82a4.057,4.057,0,0,1-2.009-.429,2.518,2.518,0,0,1-1.107-1.365,7.138,7.138,0,0,1-.352-2.464V94.475H82.85v-1.82h2.129V89.736h1.975v2.919h3.554v1.82H86.953v4.979a6.177,6.177,0,0,0,.137,1.485,1.221,1.221,0,0,0,.455.738,1.6,1.6,0,0,0,.9.215,3.492,3.492,0,0,0,.919-.086.679.679,0,0,0,.412-.309,4.239,4.239,0,0,0,.3-.773l1.854.635a3.937,3.937,0,0,1-.67,1.4,2.3,2.3,0,0,1-1.073.73A5.582,5.582,0,0,1,88.447,103.712Zm9.237-1.82a2.831,2.831,0,0,0,1.468-.352,4.36,4.36,0,0,0,1.228-1.245l1.58,1.047a5.661,5.661,0,0,1-1.811,1.854,5.039,5.039,0,0,1-2.464.515,5.886,5.886,0,0,1-2.721-.515,2.942,2.942,0,0,1-1.391-1.7,13.4,13.4,0,0,1,0-6.662,2.942,2.942,0,0,1,1.391-1.7,5.886,5.886,0,0,1,2.721-.515,5.314,5.314,0,0,1,2.67.558,3.138,3.138,0,0,1,1.365,1.863,12.69,12.69,0,0,1,.412,3.657H95.143a6.391,6.391,0,0,0,.309,1.906,1.806,1.806,0,0,0,.79.987A2.939,2.939,0,0,0,97.685,101.892Zm0-7.452a2.572,2.572,0,0,0-1.82.541,2.943,2.943,0,0,0-.687,1.9h4.928a3.855,3.855,0,0,0-.223-1.468,1.366,1.366,0,0,0-.747-.747A3.8,3.8,0,0,0,97.685,94.441Zm15.127,9.031h-2.043l-.876-3.194h-3.915l-.876,3.194h-2.043L106.9,89.736h2.078Zm-4.876-10.354-1.459,5.34h2.919Zm6.284,10.354V92.861h1.975v.258a5.983,5.983,0,0,1,2.524-.5,5.107,5.107,0,0,1,2.258.4,2.324,2.324,0,0,1,1.142,1.356,8.251,8.251,0,0,1,.343,2.687v6.4h-1.992v-6.4a5.96,5.96,0,0,0-.163-1.588,1.36,1.36,0,0,0-.532-.8,1.936,1.936,0,0,0-1.056-.24,5,5,0,0,0-1.64.2,1.132,1.132,0,0,0-.7.7,4.876,4.876,0,0,0-.18,1.545v6.593Zm15.762-10.611v8.791h3v1.82H125v-1.82h3V94.681h-2.163v-1.82Zm-1.356-1.545a1.731,1.731,0,0,1-1.176-.3,2.089,2.089,0,0,1,0-2.215,1.731,1.731,0,0,1,1.176-.3,1.768,1.768,0,0,1,1.185.3,2.043,2.043,0,0,1,0,2.215A1.768,1.768,0,0,1,128.625,91.316Zm5.477,12.156V92.861h1.975v-.069q.137-.034.515-.1a3.794,3.794,0,0,1,.67-.069,2.429,2.429,0,0,1,1.065.189,2.017,2.017,0,0,1,.721.687A2.243,2.243,0,0,1,141,92.621a2.532,2.532,0,0,1,1.545.412,2.349,2.349,0,0,1,.79,1.356,11.178,11.178,0,0,1,.24,2.627v6.456h-1.975V97.016a9.149,9.149,0,0,0-.129-1.88q-.129-.524-.472-.524a.939.939,0,0,0-.919.481,4.17,4.17,0,0,0-.249,1.734v6.645h-1.975V97.119a9.353,9.353,0,0,0-.137-1.949q-.137-.558-.464-.558a.958.958,0,0,0-.927.481,4.044,4.044,0,0,0-.258,1.734v6.645Zm14.766.24a7,7,0,0,1-2.43-.343,2.4,2.4,0,0,1-1.3-1.073,4.029,4.029,0,0,1-.4-1.949,4.532,4.532,0,0,1,.4-2.121,2.2,2.2,0,0,1,1.288-1.047,7.893,7.893,0,0,1,2.447-.3h2.163V96.5a2.761,2.761,0,0,0-.18-1.116,1.05,1.05,0,0,0-.644-.558,4.236,4.236,0,0,0-1.339-.163,3.193,3.193,0,0,0-1.1.146,1.106,1.106,0,0,0-.584.524,5.022,5.022,0,0,0-.395,1.15L144.9,96.02a6.9,6.9,0,0,1,.773-1.957,2.811,2.811,0,0,1,1.236-1.09,4.734,4.734,0,0,1,1.957-.352,4.4,4.4,0,0,1,3.185.953,3.987,3.987,0,0,1,.953,2.927v4.018a2.032,2.032,0,0,0,.137.927.637.637,0,0,0,.584.223q.137,0,.618-.034v1.82q-.206.017-.567.017a2.562,2.562,0,0,1-2.06-.687,2.6,2.6,0,0,1-1.15.713A5.772,5.772,0,0,1,148.869,103.712Zm0-1.82a3.416,3.416,0,0,0,1.339-.206,1.171,1.171,0,0,0,.644-.7,4.445,4.445,0,0,0,.18-1.442V98.7h-2.163a7.05,7.05,0,0,0-1.391.094.822.822,0,0,0-.584.429,2.652,2.652,0,0,0-.172,1.125,2.066,2.066,0,0,0,.172.953.994.994,0,0,0,.627.455A4.971,4.971,0,0,0,148.869,101.892Zm11.693,1.82a4.057,4.057,0,0,1-2.009-.429,2.518,2.518,0,0,1-1.107-1.365,7.138,7.138,0,0,1-.352-2.464V94.475h-2.129v-1.82h2.129V89.736h1.975v2.919h3.554v1.82h-3.554v4.979a6.178,6.178,0,0,0,.137,1.485,1.22,1.22,0,0,0,.455.738,1.6,1.6,0,0,0,.9.215,3.492,3.492,0,0,0,.919-.086.679.679,0,0,0,.412-.309,4.24,4.24,0,0,0,.3-.773l1.854.635a3.936,3.936,0,0,1-.67,1.4,2.3,2.3,0,0,1-1.073.73A5.583,5.583,0,0,1,160.561,103.712ZM171.19,92.861v8.791h3v1.82H166.21v-1.82h3V94.681h-2.163v-1.82Zm-1.356-1.545a1.731,1.731,0,0,1-1.176-.3,2.089,2.089,0,0,1,0-2.215,1.731,1.731,0,0,1,1.176-.3,1.768,1.768,0,0,1,1.185.3,2.043,2.043,0,0,1,0,2.215A1.768,1.768,0,0,1,169.833,91.316Zm10.216,12.4a4.775,4.775,0,0,1-2.515-.567,3.168,3.168,0,0,1-1.322-1.769,12.976,12.976,0,0,1,0-6.422,3.168,3.168,0,0,1,1.322-1.769,5.886,5.886,0,0,1,5.039,0,3.154,3.154,0,0,1,1.331,1.769,12.977,12.977,0,0,1,0,6.422,3.155,3.155,0,0,1-1.331,1.769A4.822,4.822,0,0,1,180.049,103.712Zm0-1.82a2.43,2.43,0,0,0,1.382-.335,1.872,1.872,0,0,0,.7-1.133,12.474,12.474,0,0,0,0-4.516,1.872,1.872,0,0,0-.7-1.133,2.43,2.43,0,0,0-1.382-.335,2.387,2.387,0,0,0-1.374.335,1.891,1.891,0,0,0-.687,1.133,12.474,12.474,0,0,0,0,4.516,1.891,1.891,0,0,0,.687,1.133A2.387,2.387,0,0,0,180.049,101.892Zm6.284,1.58V92.861h1.975v.258a5.983,5.983,0,0,1,2.524-.5,5.107,5.107,0,0,1,2.258.4,2.324,2.324,0,0,1,1.142,1.356,8.25,8.25,0,0,1,.343,2.687v6.4h-1.992v-6.4a5.961,5.961,0,0,0-.163-1.588,1.36,1.36,0,0,0-.532-.8,1.936,1.936,0,0,0-1.056-.24,5,5,0,0,0-1.64.2,1.132,1.132,0,0,0-.7.7,4.876,4.876,0,0,0-.18,1.545v6.593Zm13.891.24a4.268,4.268,0,0,1-2.258-.515,4.46,4.46,0,0,1-1.5-1.82l1.562-1.288a7.252,7.252,0,0,0,.592,1.15,1.357,1.357,0,0,0,.61.507,2.731,2.731,0,0,0,1,.146,8.625,8.625,0,0,0,1.786-.137,1.324,1.324,0,0,0,.824-.455,1.589,1.589,0,0,0,.223-.919,1.639,1.639,0,0,0-.18-.876,1.11,1.11,0,0,0-.644-.412,11.007,11.007,0,0,0-1.562-.275,6.763,6.763,0,0,1-3-.919,2.386,2.386,0,0,1-.927-2.086,3.483,3.483,0,0,1,.429-1.846,2.5,2.5,0,0,1,1.374-1.022,8.01,8.01,0,0,1,2.541-.326,5.086,5.086,0,0,1,2.352.446,4.146,4.146,0,0,1,1.528,1.58l-1.442,1.408a6.323,6.323,0,0,0-.652-1.03,1.448,1.448,0,0,0-.67-.455,3.766,3.766,0,0,0-1.116-.129,6.884,6.884,0,0,0-1.485.12,1.081,1.081,0,0,0-.7.412,1.552,1.552,0,0,0-.189.841.84.84,0,0,0,.206.618,1.306,1.306,0,0,0,.618.309q.412.1,1.271.223a12.128,12.128,0,0,1,2.533.592,2.543,2.543,0,0,1,1.3,1.013,3.468,3.468,0,0,1,.4,1.811,3.51,3.51,0,0,1-.472,1.932,2.708,2.708,0,0,1-1.528,1.065A9.634,9.634,0,0,1,200.224,103.712Zm13.7,2.249a4.457,4.457,0,0,1-3.039-1.168,7.492,7.492,0,0,1-2.043-3.288,17.022,17.022,0,0,1,0-9.8,7.492,7.492,0,0,1,2.043-3.288,4.457,4.457,0,0,1,3.039-1.168v1.82a2.656,2.656,0,0,0-2,.936,6.377,6.377,0,0,0-1.348,2.644,16.531,16.531,0,0,0,0,7.915,6.377,6.377,0,0,0,1.348,2.644,2.656,2.656,0,0,0,2,.936Zm4.378-1.82a2.656,2.656,0,0,0,2-.936,6.377,6.377,0,0,0,1.348-2.644,16.531,16.531,0,0,0,0-7.915A6.377,6.377,0,0,0,220.3,90a2.656,2.656,0,0,0-2-.936v-1.82a4.457,4.457,0,0,1,3.039,1.168,7.492,7.492,0,0,1,2.043,3.288,17.021,17.021,0,0,1,0,9.8,7.492,7.492,0,0,1-2.043,3.288,4.457,4.457,0,0,1-3.039,1.168Zm11.281,2.7a14.655,14.655,0,0,0,1.21-1.872,2.791,2.791,0,0,0,.335-1.236,1.077,1.077,0,0,1-.893-.309,1.972,1.972,0,0,1-.24-1.15,1.546,1.546,0,0,1,.335-1.142,2.531,2.531,0,0,1,2.455,0,1.546,1.546,0,0,1,.335,1.142,5.518,5.518,0,0,1-.438,2.258,9.79,9.79,0,0,1-1.588,2.309Zm1.975-11.349a1.8,1.8,0,0,1-1.228-.318A1.517,1.517,0,0,1,230,94.046a1.546,1.546,0,0,1,.335-1.142,2.531,2.531,0,0,1,2.455,0,1.546,1.546,0,0,1,.335,1.142,1.518,1.518,0,0,1-.335,1.125A1.8,1.8,0,0,1,231.56,95.488ZM1.309,132.455a6.408,6.408,0,0,0,1.717-.18,1.539,1.539,0,0,0,.893-.592,2.06,2.06,0,0,0,.275-1.15,6.838,6.838,0,0,0-.172-1.442,5.355,5.355,0,0,1-.137-1.047,3,3,0,0,1,.446-1.58,5.953,5.953,0,0,1,1.459-1.528,5.981,5.981,0,0,1-1.451-1.554,3.12,3.12,0,0,1-.455-1.623,4.491,4.491,0,0,1,.155-1.065,5.745,5.745,0,0,0,.172-1.322,2.141,2.141,0,0,0-.275-1.176,1.527,1.527,0,0,0-.9-.6,6.509,6.509,0,0,0-1.726-.18v-1.837a6.1,6.1,0,0,1,3.7.893A3.351,3.351,0,0,1,6.168,119.3,8.482,8.482,0,0,1,6,120.882a6.985,6.985,0,0,0-.137,1.047,1.964,1.964,0,0,0,.6,1.047q.6.687,1.94,1.957-1.322,1.236-1.932,1.923a1.981,1.981,0,0,0-.61,1.013A9.032,9.032,0,0,0,6,129.038a9.24,9.24,0,0,1,.172,1.545,3.326,3.326,0,0,1-1.159,2.824,6.143,6.143,0,0,1-3.7.884Z" transform="translate(670.691 27664.746)" fill="#12263f"/>
  </g>
</svg>
