<svg xmlns="http://www.w3.org/2000/svg" width="27.089" height="27.09" viewBox="0 0 27.089 27.09">
  <g id="codigo-binario" transform="translate(-1 -1)">
    <path id="Trazado_688220" data-name="Trazado 688220" d="M18,46H29.209v2.8H18Z" transform="translate(-9.06 -23.983)" fill="#afb5bf"/>
    <path id="Trazado_688221" data-name="Trazado 688221" d="M28.659,52.868a.4.4,0,0,0-.145-.135L25.479,51H14.269l-3.036,1.733a.4.4,0,0,0-.145.135.467.467,0,0,0-.089.271v1.13a.467.467,0,0,0,.467.467H28.281a.467.467,0,0,0,.467-.467v-1.13A.467.467,0,0,0,28.659,52.868Z" transform="translate(-5.33 -26.648)" fill="#ccd0da"/>
    <path id="Trazado_688222" data-name="Trazado 688222" d="M28.748,55.271V56.4a.467.467,0,0,1-.467.467H11.467A.467.467,0,0,1,11,56.4v-1.13A.467.467,0,0,1,11.089,55h17.57A.467.467,0,0,1,28.748,55.271Z" transform="translate(-5.33 -28.779)" fill="#afb5bf"/>
    <path id="Trazado_688223" data-name="Trazado 688223" d="M28.089,37.934v2.335a1.4,1.4,0,0,1-1.4,1.4H2.4a1.4,1.4,0,0,1-1.4-1.4V37.934L1.934,37H27.622Z" transform="translate(0 -19.186)" fill="#ccd0da"/>
    <path id="Trazado_688224" data-name="Trazado 688224" d="M28.089,2.4V18.748H1V2.4A1.4,1.4,0,0,1,2.4,1H26.688a1.4,1.4,0,0,1,1.4,1.4Z" fill="#276f82"/>
    <path id="Trazado_688225" data-name="Trazado 688225" d="M29.335,42.934H27.467a.467.467,0,0,1,0-.934h1.868a.467.467,0,1,1,0,.934Z" transform="translate(-13.857 -21.851)" fill="#8991a0"/>
    <g id="Grupo_167799" data-name="Grupo 167799" transform="translate(4.269 3.335)">
      <path id="Trazado_688226" data-name="Trazado 688226" d="M9.4,6A1.4,1.4,0,0,0,8,7.4v.934a1.4,1.4,0,0,0,2.8,0V7.4A1.4,1.4,0,0,0,9.4,6Zm.467,2.335a.467.467,0,1,1-.934,0V7.4a.467.467,0,1,1,.934,0Z" transform="translate(-8 -6)" fill="#f0f2f5"/>
      <path id="Trazado_688227" data-name="Trazado 688227" d="M17.4,8.8V6.467a.467.467,0,0,0-.8-.33l-.467.467a.467.467,0,0,0,.33.8V8.8a.467.467,0,0,0,0,.934H17.4a.467.467,0,1,0,0-.934Z" transform="translate(-12.264 -6)" fill="#f0f2f5"/>
      <path id="Trazado_688228" data-name="Trazado 688228" d="M22.4,6A1.4,1.4,0,0,0,21,7.4v.934a1.4,1.4,0,0,0,2.8,0V7.4A1.4,1.4,0,0,0,22.4,6Zm.467,2.335a.467.467,0,0,1-.934,0V7.4a.467.467,0,0,1,.934,0Z" transform="translate(-14.928 -6)" fill="#f0f2f5"/>
      <path id="Trazado_688229" data-name="Trazado 688229" d="M47.4,6A1.4,1.4,0,0,0,46,7.4v.934a1.4,1.4,0,1,0,2.8,0V7.4A1.4,1.4,0,0,0,47.4,6Zm.467,2.335a.467.467,0,0,1-.934,0V7.4a.467.467,0,0,1,.934,0Z" transform="translate(-28.252 -6)" fill="#f0f2f5"/>
      <path id="Trazado_688230" data-name="Trazado 688230" d="M30.4,8.8V6.467a.467.467,0,0,0-.8-.33l-.467.467a.467.467,0,0,0,.33.8V8.8a.467.467,0,0,0,0,.934H30.4a.467.467,0,1,0,0-.934Z" transform="translate(-19.192 -6)" fill="#f0f2f5"/>
      <path id="Trazado_688231" data-name="Trazado 688231" d="M36.4,8.8V6.467a.467.467,0,0,0-.8-.33l-.467.467a.467.467,0,0,0,.33.8V8.8a.467.467,0,0,0,0,.934H36.4a.467.467,0,0,0,0-.934Z" transform="translate(-22.39 -6)" fill="#f0f2f5"/>
      <path id="Trazado_688232" data-name="Trazado 688232" d="M42.4,8.8V6.467a.467.467,0,0,0-.8-.33l-.467.467a.467.467,0,0,0,.33.8V8.8a.467.467,0,0,0,0,.934H42.4a.467.467,0,1,0,0-.934Z" transform="translate(-25.587 -6)" fill="#f0f2f5"/>
    </g>
    <path id="Trazado_688233" data-name="Trazado 688233" d="M27.885,16.934H5.467a.467.467,0,1,1,0-.934H27.885a.467.467,0,1,1,0,.934Z" transform="translate(-2.132 -7.994)" fill="#1e505b"/>
    <path id="Trazado_688234" data-name="Trazado 688234" d="M11.934,21.934h-.467a.467.467,0,1,1,0-.934h.467a.467.467,0,1,1,0,.934Z" transform="translate(-5.33 -10.659)" fill="#f0f2f5"/>
    <path id="Trazado_688235" data-name="Trazado 688235" d="M11.934,25.934h-.467a.467.467,0,1,1,0-.934h.467a.467.467,0,1,1,0,.934Z" transform="translate(-5.33 -12.791)" fill="#f0f2f5"/>
    <path id="Trazado_688236" data-name="Trazado 688236" d="M11.934,29.934h-.467a.467.467,0,1,1,0-.934h.467a.467.467,0,1,1,0,.934Z" transform="translate(-5.33 -14.923)" fill="#f0f2f5"/>
    <path id="Trazado_688237" data-name="Trazado 688237" d="M11.934,33.934h-.467a.467.467,0,1,1,0-.934h.467a.467.467,0,1,1,0,.934Z" transform="translate(-5.33 -17.054)" fill="#f0f2f5"/>
    <path id="Trazado_688238" data-name="Trazado 688238" d="M20.934,33.934h-.467a.467.467,0,0,1,0-.934h.467a.467.467,0,1,1,0,.934Z" transform="translate(-10.126 -17.054)" fill="#40ccf1"/>
    <path id="Trazado_688239" data-name="Trazado 688239" d="M28.736,33.934H25.467a.467.467,0,0,1,0-.934h3.269a.467.467,0,1,1,0,.934Z" transform="translate(-12.791 -17.054)" fill="#9e82ec"/>
    <path id="Trazado_688240" data-name="Trazado 688240" d="M41.6,33.934H36.467a.467.467,0,0,1,0-.934H41.6a.467.467,0,0,1,0,.934Z" transform="translate(-18.653 -17.054)" fill="#fccb55"/>
    <path id="Trazado_688241" data-name="Trazado 688241" d="M36.275,25.934H26.467a.467.467,0,0,1,0-.934h9.808a.467.467,0,1,1,0,.934Z" transform="translate(-13.324 -12.791)" fill="#9e82ec"/>
    <path id="Trazado_688242" data-name="Trazado 688242" d="M21.4,25.934h-.934a.467.467,0,0,1,0-.934H21.4a.467.467,0,1,1,0,.934Z" transform="translate(-10.126 -12.791)" fill="#40ccf1"/>
    <path id="Trazado_688243" data-name="Trazado 688243" d="M22.335,29.934H20.467a.467.467,0,0,1,0-.934h1.868a.467.467,0,1,1,0,.934Z" transform="translate(-10.126 -14.923)" fill="#40ccf1"/>
    <path id="Trazado_688244" data-name="Trazado 688244" d="M30.335,29.934H28.467a.467.467,0,0,1,0-.934h1.868a.467.467,0,1,1,0,.934Z" transform="translate(-14.39 -14.923)" fill="#9e82ec"/>
    <path id="Trazado_688245" data-name="Trazado 688245" d="M22.335,21.934H20.467a.467.467,0,0,1,0-.934h1.868a.467.467,0,1,1,0,.934Z" transform="translate(-10.126 -10.659)" fill="#40ccf1"/>
    <path id="Trazado_688246" data-name="Trazado 688246" d="M33.138,21.934h-4.67a.467.467,0,0,1,0-.934h4.67a.467.467,0,0,1,0,.934Z" transform="translate(-14.39 -10.659)" fill="#9e82ec"/>
    <path id="Trazado_688247" data-name="Trazado 688247" d="M38.335,29.934H36.467a.467.467,0,1,1,0-.934h1.868a.467.467,0,1,1,0,.934Z" transform="translate(-18.653 -14.923)" fill="#fccb55"/>
    <path id="Trazado_688248" data-name="Trazado 688248" d="M16,26.742V16.467a.467.467,0,1,1,.934,0V26.742Z" transform="translate(-7.994 -7.994)" fill="#1e505b"/>
  </g>
</svg>
