<svg xmlns="http://www.w3.org/2000/svg" width="610" height="367" viewBox="0 0 610 367">
  <g id="Grupo_167876" data-name="Grupo 167876" transform="translate(-519 -26033)">
    <g id="Rectángulo_342042" data-name="Rectángulo 342042" transform="translate(519 26033)" fill="#8979f3" stroke="#707070" stroke-width="1" opacity="0.25">
      <rect width="610" height="367" rx="25" stroke="none"/>
      <rect x="0.5" y="0.5" width="609" height="366" rx="24.5" fill="none"/>
    </g>
    <path id="Trazado_688219" data-name="Trazado 688219" d="M.893,20.232V7.393H2.755v.1a6.535,6.535,0,0,1,2.134-.321,4.564,4.564,0,0,1,2.359.522A2.911,2.911,0,0,1,8.492,9.335a9.7,9.7,0,0,1,.377,3,9.778,9.778,0,0,1-.377,3.009,2.95,2.95,0,0,1-1.244,1.661,4.507,4.507,0,0,1-2.359.53,5.861,5.861,0,0,1-2.134-.385v3.081Zm4-4.4a2.227,2.227,0,0,0,1.292-.321,1.788,1.788,0,0,0,.65-1.067,8.908,8.908,0,0,0,.193-2.11,8.8,8.8,0,0,0-.193-2.1,1.745,1.745,0,0,0-.65-1.051,2.271,2.271,0,0,0-1.292-.313q-2.134,0-2.134.931v3.787a2.467,2.467,0,0,0,.5,1.7A2.126,2.126,0,0,0,4.889,15.834Zm6.195,1.476V7.393H12.93v.818a3.528,3.528,0,0,1,1-.73,2.841,2.841,0,0,1,1.316-.313,4.109,4.109,0,0,1,1.541.249,2.58,2.58,0,0,1,1.051.8,5.42,5.42,0,0,1,.794,1.533l-1.653.754a5.75,5.75,0,0,0-.417-1.043A1.048,1.048,0,0,0,16.067,9a2.138,2.138,0,0,0-.827-.128,1.927,1.927,0,0,0-1.781.859,4.8,4.8,0,0,0-.53,2.5v5.087Zm14.3-9.918V15.61h2.809v1.7H20.729v-1.7h2.809V9.094H21.516v-1.7ZM24.116,5.948a1.618,1.618,0,0,1-1.1-.281,1.407,1.407,0,0,1-.3-1.035,1.407,1.407,0,0,1,.3-1.035,1.618,1.618,0,0,1,1.1-.281,1.652,1.652,0,0,1,1.107.281,1.383,1.383,0,0,1,.3,1.035,1.383,1.383,0,0,1-.3,1.035A1.652,1.652,0,0,1,24.116,5.948ZM34.483,17.311H32.814L29.251,7.393h1.91l2.488,7.174,2.536-7.174h1.894Zm8.554.225a6.54,6.54,0,0,1-2.271-.321,2.239,2.239,0,0,1-1.22-1,3.766,3.766,0,0,1-.377-1.822,4.236,4.236,0,0,1,.377-1.982,2.057,2.057,0,0,1,1.2-.979,7.378,7.378,0,0,1,2.287-.281h2.022V10.8a2.581,2.581,0,0,0-.169-1.043.982.982,0,0,0-.6-.522,3.96,3.96,0,0,0-1.252-.152,2.984,2.984,0,0,0-1.027.136,1.034,1.034,0,0,0-.546.489,4.694,4.694,0,0,0-.369,1.075l-1.765-.433a6.445,6.445,0,0,1,.722-1.83A2.627,2.627,0,0,1,41.207,7.5a4.425,4.425,0,0,1,1.83-.329,4.109,4.109,0,0,1,2.977.891A3.726,3.726,0,0,1,46.9,10.8V14.55a1.9,1.9,0,0,0,.128.867.6.6,0,0,0,.546.209q.128,0,.578-.032v1.7q-.193.016-.53.016a2.394,2.394,0,0,1-1.926-.642,2.429,2.429,0,0,1-1.075.666A5.4,5.4,0,0,1,43.037,17.535Zm0-1.7a3.192,3.192,0,0,0,1.252-.193,1.1,1.1,0,0,0,.6-.658,4.155,4.155,0,0,0,.169-1.348v-.786H43.037a6.59,6.59,0,0,0-1.3.088.769.769,0,0,0-.546.4,2.479,2.479,0,0,0-.16,1.051,1.931,1.931,0,0,0,.16.891.929.929,0,0,0,.586.425A4.646,4.646,0,0,0,43.037,15.834Zm10.929,1.7a3.792,3.792,0,0,1-1.878-.4,2.354,2.354,0,0,1-1.035-1.276,6.672,6.672,0,0,1-.329-2.3V8.9h-1.99V7.2h1.99V4.472H52.57V7.2h3.322V8.9H52.57v4.654a5.774,5.774,0,0,0,.128,1.388,1.141,1.141,0,0,0,.425.69,1.5,1.5,0,0,0,.843.2,3.264,3.264,0,0,0,.859-.08.635.635,0,0,0,.385-.289,3.963,3.963,0,0,0,.281-.722l1.733.594a3.68,3.68,0,0,1-.626,1.308,2.146,2.146,0,0,1-1,.682A5.218,5.218,0,0,1,53.966,17.535Zm8.634-1.7a2.646,2.646,0,0,0,1.372-.329,4.075,4.075,0,0,0,1.147-1.164l1.476.979A5.291,5.291,0,0,1,64.9,17.054a4.71,4.71,0,0,1-2.3.481,5.5,5.5,0,0,1-2.544-.481,2.75,2.75,0,0,1-1.3-1.589,9.684,9.684,0,0,1-.393-3.113,9.684,9.684,0,0,1,.393-3.113,2.75,2.75,0,0,1,1.3-1.589A5.5,5.5,0,0,1,62.6,7.168a4.967,4.967,0,0,1,2.5.522,2.933,2.933,0,0,1,1.276,1.741,11.862,11.862,0,0,1,.385,3.418H60.225a5.974,5.974,0,0,0,.289,1.781,1.688,1.688,0,0,0,.738.923A2.747,2.747,0,0,0,62.6,15.834Zm0-6.965a2.4,2.4,0,0,0-1.7.506,2.75,2.75,0,0,0-.642,1.773h4.606a3.6,3.6,0,0,0-.209-1.372,1.277,1.277,0,0,0-.7-.7A3.55,3.55,0,0,0,62.6,8.869Zm21.938,8.442-3.611-5.136H79.9v5.136H78.055V4.472H82a5.822,5.822,0,0,1,2.327.385,2.439,2.439,0,0,1,1.26,1.22,5.341,5.341,0,0,1,.393,2.247,6.248,6.248,0,0,1-.289,2.1,2.271,2.271,0,0,1-.931,1.188,4.023,4.023,0,0,1-1.717.514l3.627,5.184ZM79.9,6.173v4.3H82a4.374,4.374,0,0,0,1.348-.152.986.986,0,0,0,.61-.594,4.074,4.074,0,0,0,.177-1.4A3.69,3.69,0,0,0,83.953,7a1.118,1.118,0,0,0-.634-.642A3.621,3.621,0,0,0,82,6.173Zm11.587,9.661a2.646,2.646,0,0,0,1.372-.329,4.075,4.075,0,0,0,1.147-1.164l1.476.979a5.291,5.291,0,0,1-1.693,1.733,4.71,4.71,0,0,1-2.3.481,5.5,5.5,0,0,1-2.544-.481,2.75,2.75,0,0,1-1.3-1.589,9.684,9.684,0,0,1-.393-3.113,9.684,9.684,0,0,1,.393-3.113,2.75,2.75,0,0,1,1.3-1.589,5.5,5.5,0,0,1,2.544-.481,4.967,4.967,0,0,1,2.5.522,2.933,2.933,0,0,1,1.276,1.741,11.862,11.862,0,0,1,.385,3.418H89.113a5.974,5.974,0,0,0,.289,1.781,1.688,1.688,0,0,0,.738.923A2.747,2.747,0,0,0,91.488,15.834Zm0-6.965a2.4,2.4,0,0,0-1.7.506,2.75,2.75,0,0,0-.642,1.773h4.606a3.6,3.6,0,0,0-.209-1.372,1.277,1.277,0,0,0-.7-.7A3.55,3.55,0,0,0,91.488,8.869Zm5.826,8.442V7.393h1.846v.241a5.592,5.592,0,0,1,2.359-.465,4.773,4.773,0,0,1,2.11.377A2.173,2.173,0,0,1,104.7,8.813a7.712,7.712,0,0,1,.321,2.512v5.986h-1.862V11.325A5.571,5.571,0,0,0,103,9.84a1.271,1.271,0,0,0-.5-.746,1.809,1.809,0,0,0-.987-.225,4.671,4.671,0,0,0-1.533.185,1.058,1.058,0,0,0-.658.65,4.557,4.557,0,0,0-.169,1.444v6.163Zm13.3.225a4.519,4.519,0,0,1-2.351-.522,2.923,2.923,0,0,1-1.236-1.645,9.7,9.7,0,0,1-.377-3,9.763,9.763,0,0,1,.377-3.017A2.961,2.961,0,0,1,108.267,7.7a4.463,4.463,0,0,1,2.351-.53,5.989,5.989,0,0,1,2.151.385V4.472h1.846V17.311h-1.846V17.2A6.3,6.3,0,0,1,110.618,17.535Zm0-1.7a4,4,0,0,0,1.629-.249.76.76,0,0,0,.522-.682V11.116a2.44,2.44,0,0,0-.506-1.7,2.153,2.153,0,0,0-1.645-.546,2.188,2.188,0,0,0-1.284.321,1.806,1.806,0,0,0-.642,1.067,8.909,8.909,0,0,0-.193,2.11,8.8,8.8,0,0,0,.193,2.1,1.762,1.762,0,0,0,.642,1.051A2.231,2.231,0,0,0,110.618,15.834Zm9.758,0a2.646,2.646,0,0,0,1.372-.329,4.075,4.075,0,0,0,1.147-1.164l1.476.979a5.291,5.291,0,0,1-1.693,1.733,4.71,4.71,0,0,1-2.3.481,5.5,5.5,0,0,1-2.544-.481,2.75,2.75,0,0,1-1.3-1.589,9.684,9.684,0,0,1-.393-3.113,9.684,9.684,0,0,1,.393-3.113,2.75,2.75,0,0,1,1.3-1.589,5.5,5.5,0,0,1,2.544-.481,4.967,4.967,0,0,1,2.5.522,2.933,2.933,0,0,1,1.276,1.741,11.862,11.862,0,0,1,.385,3.418H118a5.974,5.974,0,0,0,.289,1.781,1.688,1.688,0,0,0,.738.923A2.747,2.747,0,0,0,120.375,15.834Zm0-6.965a2.4,2.4,0,0,0-1.7.506,2.75,2.75,0,0,0-.642,1.773h4.606a3.6,3.6,0,0,0-.209-1.372,1.277,1.277,0,0,0-.7-.7A3.55,3.55,0,0,0,120.375,8.869Zm6.259,8.442V7.393h1.846v.818a3.528,3.528,0,0,1,1-.73,2.841,2.841,0,0,1,1.316-.313,4.109,4.109,0,0,1,1.541.249,2.58,2.58,0,0,1,1.051.8,5.419,5.419,0,0,1,.794,1.533l-1.653.754a5.751,5.751,0,0,0-.417-1.043A1.048,1.048,0,0,0,131.617,9a2.138,2.138,0,0,0-.827-.128,1.927,1.927,0,0,0-1.781.859,4.8,4.8,0,0,0-.53,2.5v5.087Zm13-1.476a2.646,2.646,0,0,0,1.372-.329,4.075,4.075,0,0,0,1.147-1.164l1.476.979a5.291,5.291,0,0,1-1.693,1.733,4.71,4.71,0,0,1-2.3.481,5.5,5.5,0,0,1-2.544-.481,2.75,2.75,0,0,1-1.3-1.589,9.684,9.684,0,0,1-.393-3.113,9.684,9.684,0,0,1,.393-3.113,2.75,2.75,0,0,1,1.3-1.589,5.5,5.5,0,0,1,2.544-.481,4.967,4.967,0,0,1,2.5.522,2.933,2.933,0,0,1,1.276,1.741,11.862,11.862,0,0,1,.385,3.418h-6.532a5.973,5.973,0,0,0,.289,1.781,1.688,1.688,0,0,0,.738.923A2.747,2.747,0,0,0,139.634,15.834Zm0-6.965a2.4,2.4,0,0,0-1.7.506,2.75,2.75,0,0,0-.642,1.773H141.9a3.6,3.6,0,0,0-.209-1.372,1.277,1.277,0,0,0-.7-.7A3.55,3.55,0,0,0,139.634,8.869Zm6.259,8.442V7.393h1.846v.818a3.528,3.528,0,0,1,1-.73,2.841,2.841,0,0,1,1.316-.313,4.109,4.109,0,0,1,1.541.249,2.579,2.579,0,0,1,1.051.8,5.419,5.419,0,0,1,.794,1.533l-1.653.754a5.75,5.75,0,0,0-.417-1.043A1.048,1.048,0,0,0,150.876,9a2.139,2.139,0,0,0-.827-.128,1.927,1.927,0,0,0-1.781.859,4.8,4.8,0,0,0-.53,2.5v5.087Zm18.151,0V7.393h1.846V7.329q.128-.032.481-.1A3.546,3.546,0,0,1,167,7.168a2.27,2.27,0,0,1,1,.177,1.886,1.886,0,0,1,.674.642,2.1,2.1,0,0,1,1.83-.818,2.366,2.366,0,0,1,1.444.385,2.2,2.2,0,0,1,.738,1.268,10.448,10.448,0,0,1,.225,2.455v6.034h-1.846V11.276a8.55,8.55,0,0,0-.12-1.757q-.12-.489-.441-.489a.878.878,0,0,0-.859.449A3.9,3.9,0,0,0,169.4,11.1v6.211h-1.846V11.373a8.742,8.742,0,0,0-.128-1.822Q167.3,9.03,167,9.03a.9.9,0,0,0-.867.449,3.78,3.78,0,0,0-.241,1.621v6.211Zm11.395,3.146a3.262,3.262,0,0,1-1.091-.16,4.261,4.261,0,0,1-1-.546l.738-1.557a8.474,8.474,0,0,0,.835.465,1.293,1.293,0,0,0,.514.1,2.273,2.273,0,0,0,.931-.16,1.507,1.507,0,0,0,.618-.554,4.961,4.961,0,0,0,.522-1.164l-3.322-9.485h1.926l2.375,7.061,2.407-7.061h1.942l-3.45,9.613a8.8,8.8,0,0,1-.979,2.054,3.087,3.087,0,0,1-1.212,1.067A4.121,4.121,0,0,1,175.438,20.456Zm15.022-3.146-3.611-5.136h-1.027v5.136h-1.846V4.472h3.948a5.822,5.822,0,0,1,2.327.385,2.439,2.439,0,0,1,1.26,1.22,5.341,5.341,0,0,1,.393,2.247,6.249,6.249,0,0,1-.289,2.1,2.271,2.271,0,0,1-.931,1.188,4.023,4.023,0,0,1-1.717.514l3.627,5.184ZM185.822,6.173v4.3h2.1a4.374,4.374,0,0,0,1.348-.152.986.986,0,0,0,.61-.594,4.073,4.073,0,0,0,.177-1.4A3.69,3.69,0,0,0,189.874,7a1.118,1.118,0,0,0-.634-.642,3.621,3.621,0,0,0-1.316-.185Zm11.587,9.661a2.646,2.646,0,0,0,1.372-.329,4.075,4.075,0,0,0,1.147-1.164l1.476.979a5.291,5.291,0,0,1-1.693,1.733,4.71,4.71,0,0,1-2.3.481,5.5,5.5,0,0,1-2.544-.481,2.75,2.75,0,0,1-1.3-1.589,9.684,9.684,0,0,1-.393-3.113,9.684,9.684,0,0,1,.393-3.113,2.75,2.75,0,0,1,1.3-1.589,5.5,5.5,0,0,1,2.544-.481,4.967,4.967,0,0,1,2.5.522,2.933,2.933,0,0,1,1.276,1.741,11.862,11.862,0,0,1,.385,3.418h-6.532a5.974,5.974,0,0,0,.289,1.781,1.688,1.688,0,0,0,.738.923A2.747,2.747,0,0,0,197.409,15.834Zm0-6.965a2.4,2.4,0,0,0-1.7.506,2.75,2.75,0,0,0-.642,1.773h4.606a3.6,3.6,0,0,0-.209-1.372,1.277,1.277,0,0,0-.7-.7A3.55,3.55,0,0,0,197.409,8.869Zm5.826,8.442V7.393h1.846v.241a5.592,5.592,0,0,1,2.359-.465,4.773,4.773,0,0,1,2.11.377,2.173,2.173,0,0,1,1.067,1.268,7.712,7.712,0,0,1,.321,2.512v5.986h-1.862V11.325a5.571,5.571,0,0,0-.152-1.484,1.271,1.271,0,0,0-.5-.746,1.809,1.809,0,0,0-.987-.225,4.671,4.671,0,0,0-1.533.185,1.058,1.058,0,0,0-.658.65,4.557,4.557,0,0,0-.169,1.444v6.163Zm13.3.225a4.519,4.519,0,0,1-2.351-.522,2.923,2.923,0,0,1-1.236-1.645,9.7,9.7,0,0,1-.377-3,9.764,9.764,0,0,1,.377-3.017A2.961,2.961,0,0,1,214.188,7.7a4.463,4.463,0,0,1,2.351-.53,5.989,5.989,0,0,1,2.151.385V4.472h1.846V17.311h-1.846V17.2A6.3,6.3,0,0,1,216.539,17.535Zm0-1.7a4,4,0,0,0,1.629-.249.76.76,0,0,0,.522-.682V11.116a2.44,2.44,0,0,0-.506-1.7,2.153,2.153,0,0,0-1.645-.546,2.188,2.188,0,0,0-1.284.321,1.806,1.806,0,0,0-.642,1.067,8.909,8.909,0,0,0-.193,2.11,8.8,8.8,0,0,0,.193,2.1,1.762,1.762,0,0,0,.642,1.051A2.231,2.231,0,0,0,216.539,15.834Zm9.758,0a2.646,2.646,0,0,0,1.372-.329,4.075,4.075,0,0,0,1.147-1.164l1.476.979a5.291,5.291,0,0,1-1.693,1.733,4.71,4.71,0,0,1-2.3.481,5.5,5.5,0,0,1-2.544-.481,2.75,2.75,0,0,1-1.3-1.589,9.684,9.684,0,0,1-.393-3.113,9.684,9.684,0,0,1,.393-3.113,2.75,2.75,0,0,1,1.3-1.589,5.5,5.5,0,0,1,2.544-.481,4.967,4.967,0,0,1,2.5.522,2.933,2.933,0,0,1,1.276,1.741,11.862,11.862,0,0,1,.385,3.418h-6.532a5.974,5.974,0,0,0,.289,1.781,1.688,1.688,0,0,0,.738.923A2.747,2.747,0,0,0,226.3,15.834Zm0-6.965a2.4,2.4,0,0,0-1.7.506,2.75,2.75,0,0,0-.642,1.773h4.606a3.6,3.6,0,0,0-.209-1.372,1.277,1.277,0,0,0-.7-.7A3.55,3.55,0,0,0,226.3,8.869Zm6.259,8.442V7.393H234.4v.818a3.528,3.528,0,0,1,1-.73,2.841,2.841,0,0,1,1.316-.313,4.109,4.109,0,0,1,1.541.249,2.58,2.58,0,0,1,1.051.8,5.419,5.419,0,0,1,.794,1.533l-1.653.754a5.75,5.75,0,0,0-.417-1.043A1.048,1.048,0,0,0,237.538,9a2.138,2.138,0,0,0-.827-.128,1.927,1.927,0,0,0-1.781.859,4.8,4.8,0,0,0-.53,2.5v5.087Zm13-1.476a2.646,2.646,0,0,0,1.372-.329,4.075,4.075,0,0,0,1.147-1.164l1.476.979a5.291,5.291,0,0,1-1.693,1.733,4.71,4.71,0,0,1-2.3.481,5.5,5.5,0,0,1-2.544-.481,2.75,2.75,0,0,1-1.3-1.589,9.684,9.684,0,0,1-.393-3.113,9.684,9.684,0,0,1,.393-3.113,2.75,2.75,0,0,1,1.3-1.589,5.5,5.5,0,0,1,2.544-.481,4.967,4.967,0,0,1,2.5.522,2.933,2.933,0,0,1,1.276,1.741,11.862,11.862,0,0,1,.385,3.418H243.18a5.974,5.974,0,0,0,.289,1.781,1.688,1.688,0,0,0,.738.923A2.747,2.747,0,0,0,245.555,15.834Zm0-6.965a2.4,2.4,0,0,0-1.7.506,2.75,2.75,0,0,0-.642,1.773h4.606a3.6,3.6,0,0,0-.209-1.372,1.277,1.277,0,0,0-.7-.7A3.55,3.55,0,0,0,245.555,8.869Zm6.259,8.442V7.393h1.846v.818a3.528,3.528,0,0,1,1-.73,2.841,2.841,0,0,1,1.316-.313,4.109,4.109,0,0,1,1.541.249,2.58,2.58,0,0,1,1.051.8,5.419,5.419,0,0,1,.794,1.533l-1.653.754a5.752,5.752,0,0,0-.417-1.043A1.048,1.048,0,0,0,256.8,9a2.139,2.139,0,0,0-.827-.128,1.927,1.927,0,0,0-1.781.859,4.8,4.8,0,0,0-.53,2.5v5.087Zm11.106,3.146a13.7,13.7,0,0,0,1.131-1.749,2.609,2.609,0,0,0,.313-1.156,1.007,1.007,0,0,1-.835-.289,1.844,1.844,0,0,1-.225-1.075,1.445,1.445,0,0,1,.313-1.067,2.366,2.366,0,0,1,2.295,0,1.445,1.445,0,0,1,.313,1.067,5.158,5.158,0,0,1-.409,2.11,9.15,9.15,0,0,1-1.484,2.159Zm1.846-10.608a1.68,1.68,0,0,1-1.147-.3A1.418,1.418,0,0,1,263.3,8.5a1.445,1.445,0,0,1,.313-1.067,2.366,2.366,0,0,1,2.295,0,1.445,1.445,0,0,1,.313,1.067,1.418,1.418,0,0,1-.313,1.051A1.68,1.68,0,0,1,264.765,9.848ZM5.6,70.271H3.926L.364,60.353h1.91l2.488,7.174L7.3,60.353H9.19Zm8.811.225a4.463,4.463,0,0,1-2.351-.53,2.961,2.961,0,0,1-1.236-1.653,12.129,12.129,0,0,1,0-6,2.961,2.961,0,0,1,1.236-1.653,4.463,4.463,0,0,1,2.351-.53,4.507,4.507,0,0,1,2.359.53,2.948,2.948,0,0,1,1.244,1.653,12.129,12.129,0,0,1,0,6,2.948,2.948,0,0,1-1.244,1.653A4.507,4.507,0,0,1,14.406,70.5Zm0-1.7a2.271,2.271,0,0,0,1.292-.313,1.75,1.75,0,0,0,.65-1.059,11.659,11.659,0,0,0,0-4.221,1.75,1.75,0,0,0-.65-1.059,2.271,2.271,0,0,0-1.292-.313,2.231,2.231,0,0,0-1.284.313A1.767,1.767,0,0,0,12.48,63.2a11.66,11.66,0,0,0,0,4.221,1.767,1.767,0,0,0,.642,1.059A2.231,2.231,0,0,0,14.406,68.795Zm10.977-8.442V68.57h2.809v1.7H20.729v-1.7h2.809V62.054H21.516v-1.7Zm-1.268-1.444a1.618,1.618,0,0,1-1.1-.281,1.953,1.953,0,0,1,0-2.07,1.618,1.618,0,0,1,1.1-.281,1.652,1.652,0,0,1,1.107.281,1.909,1.909,0,0,1,0,2.07A1.652,1.652,0,0,1,24.116,58.909ZM33.584,70.5a4.519,4.519,0,0,1-2.351-.522A2.923,2.923,0,0,1,30,68.329a12.193,12.193,0,0,1,0-6.018,2.961,2.961,0,0,1,1.236-1.653,4.463,4.463,0,0,1,2.351-.53,5.989,5.989,0,0,1,2.151.385V57.432H37.58V70.271H35.735v-.112A6.3,6.3,0,0,1,33.584,70.5Zm0-1.7a4,4,0,0,0,1.629-.249.76.76,0,0,0,.522-.682V64.077a2.44,2.44,0,0,0-.506-1.7,2.153,2.153,0,0,0-1.645-.546,2.188,2.188,0,0,0-1.284.321,1.806,1.806,0,0,0-.642,1.067,8.909,8.909,0,0,0-.193,2.11,8.8,8.8,0,0,0,.193,2.1,1.762,1.762,0,0,0,.642,1.051A2.231,2.231,0,0,0,33.584,68.795Zm19.339,1.7a7.821,7.821,0,0,1-2.014-.217,3.1,3.1,0,0,1-1.332-.722,4.552,4.552,0,0,1-.955-1.388l1.428-1.348a4.989,4.989,0,0,0,.578,1.236,1.553,1.553,0,0,0,.8.57,5.052,5.052,0,0,0,1.493.169,3.837,3.837,0,0,0,1.412-.2,1.2,1.2,0,0,0,.674-.666,3.729,3.729,0,0,0,.193-1.364,2.007,2.007,0,0,0-.209-1.011,1.649,1.649,0,0,0-.69-.6,11.748,11.748,0,0,0-1.541-.6,12.466,12.466,0,0,1-2.239-.931,2.984,2.984,0,0,1-1.131-1.059,3.149,3.149,0,0,1-.353-1.589,4.811,4.811,0,0,1,.377-2.078,2.281,2.281,0,0,1,1.22-1.131,6.048,6.048,0,0,1,2.287-.353,7.434,7.434,0,0,1,1.854.193,3.082,3.082,0,0,1,1.244.634,4.177,4.177,0,0,1,.931,1.228L55.635,60.69a5.029,5.029,0,0,0-.578-1.131,1.428,1.428,0,0,0-.754-.506,5.065,5.065,0,0,0-1.38-.144,3.827,3.827,0,0,0-1.276.16,1,1,0,0,0-.594.554,3.034,3.034,0,0,0-.169,1.147,1.653,1.653,0,0,0,.177.851,1.353,1.353,0,0,0,.6.489,12.038,12.038,0,0,0,1.4.506,12.465,12.465,0,0,1,2.383.963,3.055,3.055,0,0,1,1.22,1.18,3.785,3.785,0,0,1,.377,1.805,5.452,5.452,0,0,1-.4,2.295A2.487,2.487,0,0,1,55.354,70.1,6.144,6.144,0,0,1,52.923,70.5Zm10.672,0a3.792,3.792,0,0,1-1.878-.4,2.354,2.354,0,0,1-1.035-1.276,6.672,6.672,0,0,1-.329-2.3V61.862h-1.99v-1.7h1.99V57.432H62.2v2.728h3.322v1.7H62.2v4.654a5.774,5.774,0,0,0,.128,1.388,1.141,1.141,0,0,0,.425.69,1.5,1.5,0,0,0,.843.2,3.263,3.263,0,0,0,.859-.08.635.635,0,0,0,.385-.289,3.964,3.964,0,0,0,.281-.722l1.733.594a3.68,3.68,0,0,1-.626,1.308,2.146,2.146,0,0,1-1,.682A5.218,5.218,0,0,1,63.6,70.5Zm8.329,0a6.54,6.54,0,0,1-2.271-.321,2.239,2.239,0,0,1-1.22-1,3.766,3.766,0,0,1-.377-1.822,4.236,4.236,0,0,1,.377-1.982,2.057,2.057,0,0,1,1.2-.979,7.378,7.378,0,0,1,2.287-.281h2.022v-.353a2.581,2.581,0,0,0-.169-1.043.982.982,0,0,0-.6-.522,3.96,3.96,0,0,0-1.252-.152,2.984,2.984,0,0,0-1.027.136,1.034,1.034,0,0,0-.546.489,4.693,4.693,0,0,0-.369,1.075l-1.765-.433a6.445,6.445,0,0,1,.722-1.83,2.627,2.627,0,0,1,1.156-1.019,4.425,4.425,0,0,1,1.83-.329,4.109,4.109,0,0,1,2.977.891,3.726,3.726,0,0,1,.891,2.736v3.755a1.9,1.9,0,0,0,.128.867.6.6,0,0,0,.546.209q.128,0,.578-.032v1.7q-.193.016-.53.016a2.4,2.4,0,0,1-1.926-.642,2.429,2.429,0,0,1-1.075.666A5.4,5.4,0,0,1,71.925,70.5Zm0-1.7a3.192,3.192,0,0,0,1.252-.193,1.1,1.1,0,0,0,.6-.658,4.155,4.155,0,0,0,.169-1.348V65.81H71.925a6.591,6.591,0,0,0-1.3.088.769.769,0,0,0-.546.4,2.479,2.479,0,0,0-.16,1.051,1.931,1.931,0,0,0,.16.891.929.929,0,0,0,.586.425A4.646,4.646,0,0,0,71.925,68.795Zm6.564,1.476V60.353h1.846v.818a3.528,3.528,0,0,1,1-.73,2.841,2.841,0,0,1,1.316-.313,4.109,4.109,0,0,1,1.541.249,2.58,2.58,0,0,1,1.051.8,5.42,5.42,0,0,1,.794,1.533l-1.653.754a5.75,5.75,0,0,0-.417-1.043,1.048,1.048,0,0,0-.489-.465,2.138,2.138,0,0,0-.826-.128,1.927,1.927,0,0,0-1.781.859,4.8,4.8,0,0,0-.53,2.5v5.087Zm13.994.225a3.792,3.792,0,0,1-1.878-.4,2.354,2.354,0,0,1-1.035-1.276,6.672,6.672,0,0,1-.329-2.3V61.862h-1.99v-1.7h1.99V57.432h1.846v2.728h3.322v1.7H91.087v4.654a5.774,5.774,0,0,0,.128,1.388,1.141,1.141,0,0,0,.425.69,1.5,1.5,0,0,0,.843.2,3.263,3.263,0,0,0,.859-.08.635.635,0,0,0,.385-.289,3.963,3.963,0,0,0,.281-.722l1.733.594a3.679,3.679,0,0,1-.626,1.308,2.146,2.146,0,0,1-1,.682A5.218,5.218,0,0,1,92.483,70.5Zm11.362,2.1A4.166,4.166,0,0,1,101,71.507a7,7,0,0,1-1.91-3.073,15.91,15.91,0,0,1,0-9.164A7,7,0,0,1,101,56.2a4.166,4.166,0,0,1,2.841-1.091v1.7a2.483,2.483,0,0,0-1.87.875,5.961,5.961,0,0,0-1.26,2.471,15.451,15.451,0,0,0,0,7.4,5.961,5.961,0,0,0,1.26,2.471,2.483,2.483,0,0,0,1.87.875Zm4.092-1.7a2.483,2.483,0,0,0,1.87-.875,5.961,5.961,0,0,0,1.26-2.471,15.451,15.451,0,0,0,0-7.4,5.961,5.961,0,0,0-1.26-2.471,2.483,2.483,0,0,0-1.87-.875v-1.7a4.166,4.166,0,0,1,2.841,1.091,7,7,0,0,1,1.91,3.073,15.91,15.91,0,0,1,0,9.164,7,7,0,0,1-1.91,3.073,4.166,4.166,0,0,1-2.841,1.091ZM8.147,99.079a5.7,5.7,0,0,1-3.45-.827,3.12,3.12,0,0,1-1.075-2.64,8.637,8.637,0,0,1,.16-1.444,8.442,8.442,0,0,0,.128-1.091,1.794,1.794,0,0,0-.562-.931q-.562-.626-1.83-1.813,1.268-1.22,1.83-1.846a1.773,1.773,0,0,0,.562-.963,6.529,6.529,0,0,0-.128-.979,7.928,7.928,0,0,1-.16-1.476A3.143,3.143,0,0,1,4.7,82.42a5.661,5.661,0,0,1,3.45-.835V83.3a5.99,5.99,0,0,0-1.6.169,1.423,1.423,0,0,0-.835.562,2,2,0,0,0-.257,1.1,5.369,5.369,0,0,0,.16,1.236,4.2,4.2,0,0,1,.144,1,2.849,2.849,0,0,1-.433,1.5,5.949,5.949,0,0,1-1.364,1.468A5.709,5.709,0,0,1,5.331,91.76a2.766,2.766,0,0,1,.425,1.476,5.005,5.005,0,0,1-.128.979,6.391,6.391,0,0,0-.16,1.348,1.974,1.974,0,0,0,.249,1.075,1.4,1.4,0,0,0,.827.554,5.99,5.99,0,0,0,1.6.169Zm30.717,24.153v-9.918H40.71v-.064q.128-.032.481-.1a3.545,3.545,0,0,1,.626-.064,2.27,2.27,0,0,1,1,.177,1.885,1.885,0,0,1,.674.642,2.1,2.1,0,0,1,1.83-.818,2.366,2.366,0,0,1,1.444.385,2.2,2.2,0,0,1,.738,1.268,10.449,10.449,0,0,1,.225,2.455v6.034H45.878V117.2a8.551,8.551,0,0,0-.12-1.757q-.12-.489-.441-.489a.878.878,0,0,0-.859.449,3.9,3.9,0,0,0-.233,1.621v6.211H42.379v-5.938a8.743,8.743,0,0,0-.128-1.822q-.128-.522-.433-.522a.9.9,0,0,0-.867.449,3.78,3.78,0,0,0-.241,1.621v6.211Zm11.395,3.146a3.262,3.262,0,0,1-1.091-.16,4.261,4.261,0,0,1-1-.546l.738-1.557a8.472,8.472,0,0,0,.835.465,1.293,1.293,0,0,0,.514.1,2.273,2.273,0,0,0,.931-.16,1.507,1.507,0,0,0,.618-.554,4.962,4.962,0,0,0,.522-1.164l-3.322-9.485h1.926l2.375,7.061,2.407-7.061h1.942l-3.45,9.613a8.8,8.8,0,0,1-.979,2.054,3.087,3.087,0,0,1-1.212,1.067A4.122,4.122,0,0,1,50.259,126.377Zm15.022-3.146L61.669,118.1H60.642v5.136H58.8V110.393h3.948a5.821,5.821,0,0,1,2.327.385,2.439,2.439,0,0,1,1.26,1.22,5.341,5.341,0,0,1,.393,2.247,6.249,6.249,0,0,1-.289,2.1,2.271,2.271,0,0,1-.931,1.188,4.023,4.023,0,0,1-1.717.514l3.627,5.184Zm-4.638-11.138v4.3h2.1a4.374,4.374,0,0,0,1.348-.152.986.986,0,0,0,.61-.594,4.074,4.074,0,0,0,.177-1.4,3.69,3.69,0,0,0-.185-1.324,1.118,1.118,0,0,0-.634-.642,3.621,3.621,0,0,0-1.316-.185Zm11.587,9.661a2.646,2.646,0,0,0,1.372-.329,4.075,4.075,0,0,0,1.147-1.164l1.476.979a5.291,5.291,0,0,1-1.693,1.733,4.71,4.71,0,0,1-2.3.481,5.5,5.5,0,0,1-2.544-.481,2.75,2.75,0,0,1-1.3-1.589,12.523,12.523,0,0,1,0-6.227,2.75,2.75,0,0,1,1.3-1.589,5.5,5.5,0,0,1,2.544-.481,4.967,4.967,0,0,1,2.5.522A2.933,2.933,0,0,1,76,115.352a11.862,11.862,0,0,1,.385,3.418H69.854a5.974,5.974,0,0,0,.289,1.781,1.688,1.688,0,0,0,.738.923A2.747,2.747,0,0,0,72.229,121.755Zm0-6.965a2.4,2.4,0,0,0-1.7.506,2.75,2.75,0,0,0-.642,1.773h4.606a3.6,3.6,0,0,0-.209-1.372,1.277,1.277,0,0,0-.7-.7A3.55,3.55,0,0,0,72.229,114.79Zm5.826,8.442v-9.918H79.9v.241a5.592,5.592,0,0,1,2.359-.465,4.773,4.773,0,0,1,2.11.377,2.173,2.173,0,0,1,1.067,1.268,7.712,7.712,0,0,1,.321,2.512v5.986H83.9v-5.986a5.571,5.571,0,0,0-.152-1.485,1.271,1.271,0,0,0-.5-.746,1.809,1.809,0,0,0-.987-.225,4.67,4.67,0,0,0-1.533.185,1.058,1.058,0,0,0-.658.65,4.558,4.558,0,0,0-.169,1.444v6.163Zm13.3.225a4.519,4.519,0,0,1-2.351-.522,2.923,2.923,0,0,1-1.236-1.645,12.193,12.193,0,0,1,0-6.018,2.961,2.961,0,0,1,1.236-1.653,4.463,4.463,0,0,1,2.351-.53,5.989,5.989,0,0,1,2.151.385v-3.081h1.846v12.839H93.51v-.112A6.3,6.3,0,0,1,91.359,123.456Zm0-1.7a4,4,0,0,0,1.629-.249.76.76,0,0,0,.522-.682v-3.787a2.44,2.44,0,0,0-.506-1.7,2.153,2.153,0,0,0-1.645-.546,2.188,2.188,0,0,0-1.284.321,1.806,1.806,0,0,0-.642,1.067,8.909,8.909,0,0,0-.193,2.11,8.8,8.8,0,0,0,.193,2.1,1.762,1.762,0,0,0,.642,1.051A2.231,2.231,0,0,0,91.359,121.755Zm9.758,0a2.646,2.646,0,0,0,1.372-.329,4.075,4.075,0,0,0,1.147-1.164l1.476.979a5.291,5.291,0,0,1-1.693,1.733,4.71,4.71,0,0,1-2.3.481,5.5,5.5,0,0,1-2.544-.481,2.75,2.75,0,0,1-1.3-1.589,12.523,12.523,0,0,1,0-6.227,2.75,2.75,0,0,1,1.3-1.589,5.5,5.5,0,0,1,2.544-.481,4.967,4.967,0,0,1,2.5.522,2.933,2.933,0,0,1,1.276,1.741,11.862,11.862,0,0,1,.385,3.418H98.742a5.974,5.974,0,0,0,.289,1.781,1.688,1.688,0,0,0,.738.923A2.747,2.747,0,0,0,101.117,121.755Zm0-6.965a2.4,2.4,0,0,0-1.7.506,2.75,2.75,0,0,0-.642,1.773h4.606a3.6,3.6,0,0,0-.209-1.372,1.277,1.277,0,0,0-.7-.7A3.55,3.55,0,0,0,101.117,114.79Zm6.259,8.442v-9.918h1.846v.818a3.528,3.528,0,0,1,1-.73,2.841,2.841,0,0,1,1.316-.313,4.109,4.109,0,0,1,1.541.249,2.58,2.58,0,0,1,1.051.8,5.419,5.419,0,0,1,.794,1.533l-1.653.754a5.751,5.751,0,0,0-.417-1.043,1.048,1.048,0,0,0-.489-.465,2.139,2.139,0,0,0-.826-.128,1.927,1.927,0,0,0-1.781.859,4.8,4.8,0,0,0-.53,2.5v5.087Zm13-1.476a2.646,2.646,0,0,0,1.372-.329,4.075,4.075,0,0,0,1.147-1.164l1.476.979a5.291,5.291,0,0,1-1.693,1.733,4.71,4.71,0,0,1-2.3.481,5.5,5.5,0,0,1-2.544-.481,2.75,2.75,0,0,1-1.3-1.589,12.523,12.523,0,0,1,0-6.227,2.75,2.75,0,0,1,1.3-1.589,5.5,5.5,0,0,1,2.544-.481,4.967,4.967,0,0,1,2.5.522,2.933,2.933,0,0,1,1.276,1.741,11.862,11.862,0,0,1,.385,3.418H118a5.974,5.974,0,0,0,.289,1.781,1.688,1.688,0,0,0,.738.923A2.747,2.747,0,0,0,120.375,121.755Zm0-6.965a2.4,2.4,0,0,0-1.7.506,2.75,2.75,0,0,0-.642,1.773h4.606a3.6,3.6,0,0,0-.209-1.372,1.277,1.277,0,0,0-.7-.7A3.55,3.55,0,0,0,120.375,114.79Zm6.259,8.442v-9.918h1.846v.818a3.528,3.528,0,0,1,1-.73,2.841,2.841,0,0,1,1.316-.313,4.109,4.109,0,0,1,1.541.249,2.58,2.58,0,0,1,1.051.8,5.419,5.419,0,0,1,.794,1.533l-1.653.754a5.751,5.751,0,0,0-.417-1.043,1.048,1.048,0,0,0-.489-.465,2.139,2.139,0,0,0-.827-.128,1.927,1.927,0,0,0-1.781.859,4.8,4.8,0,0,0-.53,2.5v5.087Zm27.235-7.495h-9.308v-1.7h9.308Zm0,3.852h-9.308v-1.7h9.308Zm14.909,3.868a5.111,5.111,0,0,1-2.72-.61,3.409,3.409,0,0,1-1.388-2.038,19.344,19.344,0,0,1,0-7.992,3.409,3.409,0,0,1,1.388-2.038,5.111,5.111,0,0,1,2.72-.61,5.167,5.167,0,0,1,2.054.345,2.788,2.788,0,0,1,1.276,1.156,8.221,8.221,0,0,1,.843,2.271l-1.765.433a6.22,6.22,0,0,0-.538-1.509,1.848,1.848,0,0,0-.738-.762,2.417,2.417,0,0,0-1.131-.233,2.55,2.55,0,0,0-1.613.449,2.612,2.612,0,0,0-.818,1.509,17.938,17.938,0,0,0,0,5.954,2.655,2.655,0,0,0,.818,1.517,2.517,2.517,0,0,0,1.613.457,2.128,2.128,0,0,0,1.332-.353,2.757,2.757,0,0,0,.77-1.3v-2.07H168.1v-1.7h4.638v4.028a6.6,6.6,0,0,1-.867,1.862,2.718,2.718,0,0,1-1.212.947A5.194,5.194,0,0,1,168.778,123.456Zm9.372-1.7a2.646,2.646,0,0,0,1.372-.329,4.075,4.075,0,0,0,1.147-1.164l1.476.979a5.291,5.291,0,0,1-1.693,1.733,4.71,4.71,0,0,1-2.3.481,5.5,5.5,0,0,1-2.544-.481,2.75,2.75,0,0,1-1.3-1.589,12.524,12.524,0,0,1,0-6.227,2.75,2.75,0,0,1,1.3-1.589,5.5,5.5,0,0,1,2.544-.481,4.967,4.967,0,0,1,2.5.522,2.933,2.933,0,0,1,1.276,1.741,11.862,11.862,0,0,1,.385,3.418h-6.532a5.974,5.974,0,0,0,.289,1.781,1.688,1.688,0,0,0,.738.923A2.747,2.747,0,0,0,178.15,121.755Zm0-6.965a2.4,2.4,0,0,0-1.7.506,2.75,2.75,0,0,0-.642,1.773h4.606a3.6,3.6,0,0,0-.209-1.372,1.277,1.277,0,0,0-.7-.7A3.55,3.55,0,0,0,178.15,114.79Zm10.624,8.666a3.792,3.792,0,0,1-1.878-.4,2.353,2.353,0,0,1-1.035-1.276,6.672,6.672,0,0,1-.329-2.3v-4.654h-1.99v-1.7h1.99v-2.728h1.846v2.728H190.7v1.7h-3.322v4.654a5.774,5.774,0,0,0,.128,1.388,1.141,1.141,0,0,0,.425.69,1.5,1.5,0,0,0,.843.2,3.263,3.263,0,0,0,.859-.08.635.635,0,0,0,.385-.289,3.963,3.963,0,0,0,.281-.722l1.733.594a3.68,3.68,0,0,1-.626,1.308,2.146,2.146,0,0,1-1,.682A5.218,5.218,0,0,1,188.775,123.456Zm8.827,0a4.453,4.453,0,0,1-2.6-.666,3.727,3.727,0,0,1-1.364-2.1,18.284,18.284,0,0,1,0-7.768A3.687,3.687,0,0,1,195,110.826a4.5,4.5,0,0,1,2.6-.658,4.906,4.906,0,0,1,1.91.321,2.8,2.8,0,0,1,1.244,1.051,7,7,0,0,1,.843,2l-1.749.61a7.441,7.441,0,0,0-.53-1.436,1.47,1.47,0,0,0-.642-.658,2.54,2.54,0,0,0-1.075-.185,2.334,2.334,0,0,0-1.525.449,2.619,2.619,0,0,0-.778,1.509,19.158,19.158,0,0,0,0,5.954,2.663,2.663,0,0,0,.778,1.517,2.305,2.305,0,0,0,1.525.457,2.54,2.54,0,0,0,1.075-.185,1.484,1.484,0,0,0,.642-.642,6.991,6.991,0,0,0,.53-1.4l1.749.594a6.881,6.881,0,0,1-.843,1.974,2.827,2.827,0,0,1-1.236,1.043A4.894,4.894,0,0,1,197.6,123.456Zm9.388,0a4.463,4.463,0,0,1-2.351-.53,2.961,2.961,0,0,1-1.236-1.653,12.129,12.129,0,0,1,0-6,2.961,2.961,0,0,1,1.236-1.653,5.5,5.5,0,0,1,4.71,0,2.949,2.949,0,0,1,1.244,1.653,12.129,12.129,0,0,1,0,6,2.948,2.948,0,0,1-1.244,1.653A4.507,4.507,0,0,1,206.99,123.456Zm0-1.7a2.271,2.271,0,0,0,1.292-.313,1.75,1.75,0,0,0,.65-1.059,11.66,11.66,0,0,0,0-4.221,1.75,1.75,0,0,0-.65-1.059,2.271,2.271,0,0,0-1.292-.313,2.231,2.231,0,0,0-1.284.313,1.767,1.767,0,0,0-.642,1.059,11.66,11.66,0,0,0,0,4.221,1.767,1.767,0,0,0,.642,1.059A2.231,2.231,0,0,0,206.99,121.755Zm5.2,1.476v-9.918h1.846v-.064q.128-.032.481-.1a3.545,3.545,0,0,1,.626-.064,2.27,2.27,0,0,1,1,.177,1.885,1.885,0,0,1,.674.642,2.1,2.1,0,0,1,1.83-.818,2.366,2.366,0,0,1,1.444.385,2.2,2.2,0,0,1,.738,1.268,10.449,10.449,0,0,1,.225,2.455v6.034H219.2V117.2a8.55,8.55,0,0,0-.12-1.757q-.12-.489-.441-.489a.878.878,0,0,0-.859.449,3.9,3.9,0,0,0-.233,1.621v6.211H215.7v-5.938a8.743,8.743,0,0,0-.128-1.822q-.128-.522-.433-.522a.9.9,0,0,0-.867.449,3.78,3.78,0,0,0-.241,1.621v6.211Zm10.175,2.921V113.314h1.862v.1a6.535,6.535,0,0,1,2.134-.321,4.564,4.564,0,0,1,2.359.522,2.911,2.911,0,0,1,1.244,1.645,12.161,12.161,0,0,1,0,6.01,2.95,2.95,0,0,1-1.244,1.661,4.507,4.507,0,0,1-2.359.53,5.861,5.861,0,0,1-2.134-.385v3.081Zm4-4.4a2.227,2.227,0,0,0,1.292-.321,1.788,1.788,0,0,0,.65-1.067,8.909,8.909,0,0,0,.193-2.11,8.8,8.8,0,0,0-.193-2.1,1.745,1.745,0,0,0-.65-1.051,2.271,2.271,0,0,0-1.292-.313q-2.134,0-2.134.931v3.787a2.467,2.467,0,0,0,.5,1.7A2.126,2.126,0,0,0,226.361,121.755Zm9.517,1.7a4.463,4.463,0,0,1-2.351-.53,2.961,2.961,0,0,1-1.236-1.653,12.129,12.129,0,0,1,0-6,2.961,2.961,0,0,1,1.236-1.653,5.5,5.5,0,0,1,4.71,0,2.948,2.948,0,0,1,1.244,1.653,12.129,12.129,0,0,1,0,6,2.948,2.948,0,0,1-1.244,1.653A4.507,4.507,0,0,1,235.877,123.456Zm0-1.7a2.271,2.271,0,0,0,1.292-.313,1.75,1.75,0,0,0,.65-1.059,11.66,11.66,0,0,0,0-4.221,1.75,1.75,0,0,0-.65-1.059,2.271,2.271,0,0,0-1.292-.313,2.231,2.231,0,0,0-1.284.313,1.767,1.767,0,0,0-.642,1.059,11.66,11.66,0,0,0,0,4.221,1.767,1.767,0,0,0,.642,1.059A2.231,2.231,0,0,0,235.877,121.755Zm5.874,1.476v-9.918H243.6v.241a5.592,5.592,0,0,1,2.359-.465,4.773,4.773,0,0,1,2.11.377,2.172,2.172,0,0,1,1.067,1.268,7.711,7.711,0,0,1,.321,2.512v5.986h-1.862v-5.986a5.571,5.571,0,0,0-.152-1.485,1.271,1.271,0,0,0-.5-.746,1.809,1.809,0,0,0-.987-.225,4.67,4.67,0,0,0-1.533.185,1.058,1.058,0,0,0-.658.65,4.557,4.557,0,0,0-.169,1.444v6.163Zm13.433-1.476a2.646,2.646,0,0,0,1.372-.329,4.075,4.075,0,0,0,1.147-1.164l1.476.979a5.291,5.291,0,0,1-1.693,1.733,4.71,4.71,0,0,1-2.3.481,5.5,5.5,0,0,1-2.544-.481,2.75,2.75,0,0,1-1.3-1.589,12.523,12.523,0,0,1,0-6.227,2.75,2.75,0,0,1,1.3-1.589,5.5,5.5,0,0,1,2.544-.481,4.967,4.967,0,0,1,2.5.522,2.933,2.933,0,0,1,1.276,1.741,11.862,11.862,0,0,1,.385,3.418h-6.532a5.974,5.974,0,0,0,.289,1.781,1.688,1.688,0,0,0,.738.923A2.747,2.747,0,0,0,255.184,121.755Zm0-6.965a2.4,2.4,0,0,0-1.7.506,2.75,2.75,0,0,0-.642,1.773h4.606a3.6,3.6,0,0,0-.209-1.372,1.277,1.277,0,0,0-.7-.7A3.551,3.551,0,0,0,255.184,114.79Zm5.826,8.442v-9.918h1.846v.241a5.592,5.592,0,0,1,2.359-.465,4.773,4.773,0,0,1,2.11.377,2.172,2.172,0,0,1,1.067,1.268,7.711,7.711,0,0,1,.321,2.512v5.986h-1.862v-5.986a5.572,5.572,0,0,0-.152-1.485,1.271,1.271,0,0,0-.5-.746,1.809,1.809,0,0,0-.987-.225,4.67,4.67,0,0,0-1.533.185,1.058,1.058,0,0,0-.658.65,4.558,4.558,0,0,0-.169,1.444v6.163Zm14.428.225a3.792,3.792,0,0,1-1.878-.4,2.354,2.354,0,0,1-1.035-1.276,6.672,6.672,0,0,1-.329-2.3v-4.654h-1.99v-1.7h1.99v-2.728h1.846v2.728h3.322v1.7h-3.322v4.654a5.774,5.774,0,0,0,.128,1.388,1.141,1.141,0,0,0,.425.69,1.5,1.5,0,0,0,.843.2,3.263,3.263,0,0,0,.859-.08.635.635,0,0,0,.385-.289,3.962,3.962,0,0,0,.281-.722l1.733.594a3.68,3.68,0,0,1-.626,1.308,2.146,2.146,0,0,1-1,.682A5.218,5.218,0,0,1,275.437,123.456Zm12.775-1.589-1.252,1.252-7.174-6.307,7.174-6.307,1.252,1.252-5.745,5.055Zm8.169,1.364L292.77,118.1h-1.027v5.136H289.9V110.393h3.948a5.822,5.822,0,0,1,2.327.385,2.439,2.439,0,0,1,1.26,1.22,5.34,5.34,0,0,1,.393,2.247,6.249,6.249,0,0,1-.289,2.1,2.271,2.271,0,0,1-.931,1.188,4.023,4.023,0,0,1-1.717.514l3.627,5.184Zm-4.638-11.138v4.3h2.1a4.374,4.374,0,0,0,1.348-.152.986.986,0,0,0,.61-.594,4.074,4.074,0,0,0,.177-1.4,3.69,3.69,0,0,0-.185-1.324,1.118,1.118,0,0,0-.634-.642,3.621,3.621,0,0,0-1.316-.185Zm11.587,9.661a2.646,2.646,0,0,0,1.372-.329,4.075,4.075,0,0,0,1.147-1.164l1.476.979a5.291,5.291,0,0,1-1.693,1.733,4.71,4.71,0,0,1-2.3.481,5.5,5.5,0,0,1-2.544-.481,2.75,2.75,0,0,1-1.3-1.589,12.522,12.522,0,0,1,0-6.227,2.75,2.75,0,0,1,1.3-1.589,5.5,5.5,0,0,1,2.544-.481,4.967,4.967,0,0,1,2.5.522,2.933,2.933,0,0,1,1.276,1.741,11.863,11.863,0,0,1,.385,3.418h-6.532a5.974,5.974,0,0,0,.289,1.781,1.688,1.688,0,0,0,.738.923A2.747,2.747,0,0,0,303.33,121.755Zm0-6.965a2.4,2.4,0,0,0-1.7.506,2.751,2.751,0,0,0-.642,1.773h4.606a3.6,3.6,0,0,0-.209-1.372,1.277,1.277,0,0,0-.7-.7A3.55,3.55,0,0,0,303.33,114.79Zm5.826,8.442v-9.918H311v.241a5.592,5.592,0,0,1,2.359-.465,4.773,4.773,0,0,1,2.11.377,2.173,2.173,0,0,1,1.067,1.268,7.712,7.712,0,0,1,.321,2.512v5.986H315v-5.986a5.571,5.571,0,0,0-.152-1.485,1.271,1.271,0,0,0-.5-.746,1.809,1.809,0,0,0-.987-.225,4.67,4.67,0,0,0-1.533.185,1.058,1.058,0,0,0-.658.65,4.557,4.557,0,0,0-.169,1.444v6.163Zm13.3.225a4.519,4.519,0,0,1-2.351-.522,2.923,2.923,0,0,1-1.236-1.645,12.192,12.192,0,0,1,0-6.018,2.961,2.961,0,0,1,1.236-1.653,4.463,4.463,0,0,1,2.351-.53,5.989,5.989,0,0,1,2.15.385v-3.081h1.846v12.839H324.61v-.112A6.3,6.3,0,0,1,322.46,123.456Zm0-1.7a4,4,0,0,0,1.629-.249.76.76,0,0,0,.522-.682v-3.787a2.44,2.44,0,0,0-.505-1.7,2.153,2.153,0,0,0-1.645-.546,2.188,2.188,0,0,0-1.284.321,1.806,1.806,0,0,0-.642,1.067,8.909,8.909,0,0,0-.193,2.11,8.8,8.8,0,0,0,.193,2.1,1.762,1.762,0,0,0,.642,1.051A2.231,2.231,0,0,0,322.46,121.755Zm9.758,0a2.646,2.646,0,0,0,1.372-.329,4.075,4.075,0,0,0,1.147-1.164l1.476.979a5.291,5.291,0,0,1-1.693,1.733,4.71,4.71,0,0,1-2.3.481,5.5,5.5,0,0,1-2.544-.481,2.75,2.75,0,0,1-1.3-1.589,12.522,12.522,0,0,1,0-6.227,2.75,2.75,0,0,1,1.3-1.589,5.5,5.5,0,0,1,2.544-.481,4.967,4.967,0,0,1,2.5.522,2.933,2.933,0,0,1,1.276,1.741,11.863,11.863,0,0,1,.385,3.418h-6.532a5.974,5.974,0,0,0,.289,1.781,1.688,1.688,0,0,0,.738.923A2.747,2.747,0,0,0,332.217,121.755Zm0-6.965a2.4,2.4,0,0,0-1.7.506,2.751,2.751,0,0,0-.642,1.773h4.606a3.6,3.6,0,0,0-.209-1.372,1.277,1.277,0,0,0-.7-.7A3.55,3.55,0,0,0,332.217,114.79Zm6.259,8.442v-9.918h1.846v.818a3.528,3.528,0,0,1,1-.73,2.841,2.841,0,0,1,1.316-.313,4.109,4.109,0,0,1,1.541.249,2.579,2.579,0,0,1,1.051.8,5.42,5.42,0,0,1,.794,1.533l-1.653.754a5.752,5.752,0,0,0-.417-1.043,1.048,1.048,0,0,0-.489-.465,2.139,2.139,0,0,0-.827-.128,1.927,1.927,0,0,0-1.781.859,4.8,4.8,0,0,0-.53,2.5v5.087Zm13-1.476a2.646,2.646,0,0,0,1.372-.329A4.075,4.075,0,0,0,354,120.263l1.476.979a5.291,5.291,0,0,1-1.693,1.733,4.71,4.71,0,0,1-2.3.481,5.5,5.5,0,0,1-2.544-.481,2.75,2.75,0,0,1-1.3-1.589,12.522,12.522,0,0,1,0-6.227,2.75,2.75,0,0,1,1.3-1.589,5.5,5.5,0,0,1,2.544-.481,4.967,4.967,0,0,1,2.5.522,2.933,2.933,0,0,1,1.276,1.741,11.86,11.86,0,0,1,.385,3.418H349.1a5.975,5.975,0,0,0,.289,1.781,1.688,1.688,0,0,0,.738.923A2.747,2.747,0,0,0,351.476,121.755Zm0-6.965a2.4,2.4,0,0,0-1.7.506,2.751,2.751,0,0,0-.642,1.773h4.606a3.6,3.6,0,0,0-.209-1.372,1.277,1.277,0,0,0-.7-.7A3.55,3.55,0,0,0,351.476,114.79Zm6.259,8.442v-9.918h1.846v.818a3.528,3.528,0,0,1,1-.73,2.841,2.841,0,0,1,1.316-.313,4.109,4.109,0,0,1,1.541.249,2.579,2.579,0,0,1,1.051.8,5.421,5.421,0,0,1,.794,1.533l-1.653.754a5.752,5.752,0,0,0-.417-1.043,1.048,1.048,0,0,0-.49-.465,2.138,2.138,0,0,0-.826-.128,1.927,1.927,0,0,0-1.781.859,4.8,4.8,0,0,0-.53,2.5v5.087Zm17.188-6.419-7.174,6.307-1.236-1.252,5.729-5.055-5.729-5.055,1.236-1.252Zm8.169,8.747a4.166,4.166,0,0,1-2.841-1.091,7,7,0,0,1-1.91-3.073,15.909,15.909,0,0,1,0-9.164,7,7,0,0,1,1.91-3.073,4.166,4.166,0,0,1,2.841-1.091v1.7a2.483,2.483,0,0,0-1.87.875,5.96,5.96,0,0,0-1.26,2.471,15.45,15.45,0,0,0,0,7.4,5.96,5.96,0,0,0,1.26,2.471,2.483,2.483,0,0,0,1.87.875Zm4.092-1.7a2.483,2.483,0,0,0,1.87-.875,5.96,5.96,0,0,0,1.26-2.471,15.451,15.451,0,0,0,0-7.4,5.96,5.96,0,0,0-1.26-2.471,2.483,2.483,0,0,0-1.87-.875v-1.7a4.166,4.166,0,0,1,2.841,1.091,7,7,0,0,1,1.91,3.073,15.91,15.91,0,0,1,0,9.164,7,7,0,0,1-1.91,3.073,4.166,4.166,0,0,1-2.841,1.091Zm10.544,2.52a13.7,13.7,0,0,0,1.131-1.749,2.609,2.609,0,0,0,.313-1.156,1.007,1.007,0,0,1-.835-.289,1.844,1.844,0,0,1-.225-1.075,1.445,1.445,0,0,1,.313-1.067,2.366,2.366,0,0,1,2.295,0,1.445,1.445,0,0,1,.313,1.067,5.157,5.157,0,0,1-.409,2.11,9.151,9.151,0,0,1-1.484,2.159Zm1.846-10.608a1.68,1.68,0,0,1-1.147-.3,1.418,1.418,0,0,1-.313-1.051,1.445,1.445,0,0,1,.313-1.067,2.366,2.366,0,0,1,2.295,0,1.445,1.445,0,0,1,.313,1.067,1.418,1.418,0,0,1-.313,1.051A1.68,1.68,0,0,1,399.574,115.769ZM1.407,150.322a5.989,5.989,0,0,0,1.6-.169,1.438,1.438,0,0,0,.835-.554,1.925,1.925,0,0,0,.257-1.075,6.391,6.391,0,0,0-.16-1.348,5.005,5.005,0,0,1-.128-.979,2.805,2.805,0,0,1,.417-1.476A5.564,5.564,0,0,1,5.6,143.293a5.59,5.59,0,0,1-1.356-1.452,2.916,2.916,0,0,1-.425-1.517,4.2,4.2,0,0,1,.144-1,5.37,5.37,0,0,0,.16-1.236,2,2,0,0,0-.257-1.1,1.427,1.427,0,0,0-.843-.562,6.084,6.084,0,0,0-1.613-.169v-1.717a5.7,5.7,0,0,1,3.458.835,3.132,3.132,0,0,1,1.083,2.648,7.928,7.928,0,0,1-.16,1.476,6.529,6.529,0,0,0-.128.979,1.835,1.835,0,0,0,.562.979q.562.642,1.813,1.83-1.236,1.156-1.805,1.8a1.852,1.852,0,0,0-.57.947,8.442,8.442,0,0,0,.128,1.091,8.637,8.637,0,0,1,.16,1.444,3.109,3.109,0,0,1-1.083,2.64,5.742,5.742,0,0,1-3.458.826ZM5.6,202.673H3.926L.364,192.755h1.91l2.488,7.174L7.3,192.755H9.19Zm8.811.225a4.463,4.463,0,0,1-2.351-.53,2.961,2.961,0,0,1-1.236-1.653,12.129,12.129,0,0,1,0-6,2.961,2.961,0,0,1,1.236-1.653,4.463,4.463,0,0,1,2.351-.53,4.507,4.507,0,0,1,2.359.53,2.948,2.948,0,0,1,1.244,1.653,12.129,12.129,0,0,1,0,6,2.948,2.948,0,0,1-1.244,1.653A4.507,4.507,0,0,1,14.406,202.9Zm0-1.7a2.271,2.271,0,0,0,1.292-.313,1.75,1.75,0,0,0,.65-1.059,11.659,11.659,0,0,0,0-4.221,1.75,1.75,0,0,0-.65-1.059,2.271,2.271,0,0,0-1.292-.313,2.231,2.231,0,0,0-1.284.313,1.767,1.767,0,0,0-.642,1.059,11.659,11.659,0,0,0,0,4.221,1.767,1.767,0,0,0,.642,1.059A2.231,2.231,0,0,0,14.406,201.2Zm10.977-8.442v8.217h2.809v1.7H20.729v-1.7h2.809v-6.516H21.516v-1.7Zm-1.268-1.444a1.618,1.618,0,0,1-1.1-.281,1.953,1.953,0,0,1,0-2.07,1.618,1.618,0,0,1,1.1-.281,1.652,1.652,0,0,1,1.107.281,1.909,1.909,0,0,1,0,2.07A1.652,1.652,0,0,1,24.116,191.31ZM33.584,202.9a4.519,4.519,0,0,1-2.351-.522A2.923,2.923,0,0,1,30,200.731a12.193,12.193,0,0,1,0-6.018,2.961,2.961,0,0,1,1.236-1.653,4.463,4.463,0,0,1,2.351-.53,5.989,5.989,0,0,1,2.151.385v-3.081H37.58v12.839H35.735v-.112A6.3,6.3,0,0,1,33.584,202.9Zm0-1.7a4,4,0,0,0,1.629-.249.76.76,0,0,0,.522-.682v-3.787a2.44,2.44,0,0,0-.506-1.7,2.153,2.153,0,0,0-1.645-.546,2.188,2.188,0,0,0-1.284.321,1.806,1.806,0,0,0-.642,1.067,8.909,8.909,0,0,0-.193,2.11,8.8,8.8,0,0,0,.193,2.1,1.762,1.762,0,0,0,.642,1.051A2.231,2.231,0,0,0,33.584,201.2Zm19.339,1.7a4.449,4.449,0,0,1-2.319-.514,2.912,2.912,0,0,1-1.22-1.645,9.91,9.91,0,0,1-.377-3.041v-7.864h1.846V197.7a9.471,9.471,0,0,0,.185,2.143,1.716,1.716,0,0,0,.626,1.051,2.2,2.2,0,0,0,1.26.3,2.243,2.243,0,0,0,1.268-.3,1.7,1.7,0,0,0,.634-1.051,9.471,9.471,0,0,0,.185-2.143v-7.864h1.846V197.7a9.91,9.91,0,0,1-.377,3.041,2.9,2.9,0,0,1-1.228,1.645A4.494,4.494,0,0,1,52.923,202.9Zm5.745,2.7V192.755H60.53v.1a6.535,6.535,0,0,1,2.134-.321,4.564,4.564,0,0,1,2.359.522,2.911,2.911,0,0,1,1.244,1.645,12.161,12.161,0,0,1,0,6.01,2.95,2.95,0,0,1-1.244,1.661,4.507,4.507,0,0,1-2.359.53,5.861,5.861,0,0,1-2.134-.385v3.081Zm4-4.4a2.227,2.227,0,0,0,1.292-.321,1.788,1.788,0,0,0,.65-1.067,8.908,8.908,0,0,0,.193-2.11,8.8,8.8,0,0,0-.193-2.1,1.745,1.745,0,0,0-.65-1.051,2.271,2.271,0,0,0-1.292-.313q-2.134,0-2.134.931v3.787a2.467,2.467,0,0,0,.5,1.7A2.126,2.126,0,0,0,62.664,201.2Zm9.437,1.7a4.519,4.519,0,0,1-2.351-.522,2.923,2.923,0,0,1-1.236-1.645,12.193,12.193,0,0,1,0-6.018,2.961,2.961,0,0,1,1.236-1.653,4.463,4.463,0,0,1,2.351-.53,5.989,5.989,0,0,1,2.151.385v-3.081H76.1v12.839H74.252v-.112A6.3,6.3,0,0,1,72.1,202.9Zm0-1.7a4,4,0,0,0,1.629-.249.76.76,0,0,0,.522-.682v-3.787a2.44,2.44,0,0,0-.506-1.7,2.153,2.153,0,0,0-1.645-.546,2.188,2.188,0,0,0-1.284.321,1.806,1.806,0,0,0-.642,1.067,8.909,8.909,0,0,0-.193,2.11,8.8,8.8,0,0,0,.193,2.1,1.762,1.762,0,0,0,.642,1.051A2.231,2.231,0,0,0,72.1,201.2Zm9.453,1.7a6.539,6.539,0,0,1-2.271-.321,2.239,2.239,0,0,1-1.22-1,3.766,3.766,0,0,1-.377-1.822,4.236,4.236,0,0,1,.377-1.982,2.056,2.056,0,0,1,1.2-.979,7.377,7.377,0,0,1,2.287-.281h2.022v-.353a2.581,2.581,0,0,0-.169-1.043.982.982,0,0,0-.6-.522,3.96,3.96,0,0,0-1.252-.152,2.984,2.984,0,0,0-1.027.136,1.034,1.034,0,0,0-.546.489,4.694,4.694,0,0,0-.369,1.075l-1.765-.433a6.445,6.445,0,0,1,.722-1.83,2.627,2.627,0,0,1,1.156-1.019,4.424,4.424,0,0,1,1.83-.329,4.109,4.109,0,0,1,2.977.891,3.726,3.726,0,0,1,.891,2.736v3.755a1.9,1.9,0,0,0,.128.867.6.6,0,0,0,.546.209q.128,0,.578-.032v1.7q-.193.016-.53.016a2.394,2.394,0,0,1-1.926-.642,2.429,2.429,0,0,1-1.075.666A5.4,5.4,0,0,1,81.554,202.9Zm0-1.7A3.193,3.193,0,0,0,82.806,201a1.1,1.1,0,0,0,.6-.658A4.155,4.155,0,0,0,83.576,199v-.786H81.554a6.589,6.589,0,0,0-1.3.088.769.769,0,0,0-.546.4,2.479,2.479,0,0,0-.16,1.051,1.931,1.931,0,0,0,.16.891.929.929,0,0,0,.586.425A4.645,4.645,0,0,0,81.554,201.2Zm10.929,1.7a3.792,3.792,0,0,1-1.878-.4,2.354,2.354,0,0,1-1.035-1.276,6.672,6.672,0,0,1-.329-2.3v-4.654h-1.99v-1.7h1.99v-2.728h1.846v2.728h3.322v1.7H91.087v4.654a5.774,5.774,0,0,0,.128,1.388,1.141,1.141,0,0,0,.425.69,1.5,1.5,0,0,0,.843.2,3.264,3.264,0,0,0,.859-.08.635.635,0,0,0,.385-.289,3.962,3.962,0,0,0,.281-.722l1.733.594a3.68,3.68,0,0,1-.626,1.308,2.146,2.146,0,0,1-1,.682A5.217,5.217,0,0,1,92.483,202.9Zm8.634-1.7a2.646,2.646,0,0,0,1.372-.329,4.075,4.075,0,0,0,1.147-1.164l1.476.979a5.291,5.291,0,0,1-1.693,1.733,4.71,4.71,0,0,1-2.3.481,5.5,5.5,0,0,1-2.544-.481,2.75,2.75,0,0,1-1.3-1.589,12.523,12.523,0,0,1,0-6.227,2.75,2.75,0,0,1,1.3-1.589,5.5,5.5,0,0,1,2.544-.481,4.967,4.967,0,0,1,2.5.522,2.933,2.933,0,0,1,1.276,1.741,11.862,11.862,0,0,1,.385,3.418H98.742a5.973,5.973,0,0,0,.289,1.781,1.688,1.688,0,0,0,.738.923A2.747,2.747,0,0,0,101.117,201.2Zm0-6.965a2.4,2.4,0,0,0-1.7.506,2.75,2.75,0,0,0-.642,1.773h4.606a3.6,3.6,0,0,0-.209-1.372,1.277,1.277,0,0,0-.7-.7A3.551,3.551,0,0,0,101.117,194.231ZM113.474,205a4.166,4.166,0,0,1-2.841-1.091,7,7,0,0,1-1.91-3.073,15.91,15.91,0,0,1,0-9.164,7,7,0,0,1,1.91-3.073,4.166,4.166,0,0,1,2.841-1.091v1.7a2.483,2.483,0,0,0-1.87.875,5.961,5.961,0,0,0-1.26,2.471,15.451,15.451,0,0,0,0,7.4,5.961,5.961,0,0,0,1.26,2.471,2.483,2.483,0,0,0,1.87.875Zm4.092-1.7a2.483,2.483,0,0,0,1.87-.875,5.961,5.961,0,0,0,1.26-2.471,15.451,15.451,0,0,0,0-7.4,5.961,5.961,0,0,0-1.26-2.471,2.483,2.483,0,0,0-1.87-.875v-1.7a4.166,4.166,0,0,1,2.841,1.091,7,7,0,0,1,1.91,3.073,15.91,15.91,0,0,1,0,9.164,7,7,0,0,1-1.91,3.073A4.166,4.166,0,0,1,117.567,205ZM8.147,231.48a5.7,5.7,0,0,1-3.45-.826,3.12,3.12,0,0,1-1.075-2.64,8.637,8.637,0,0,1,.16-1.444,8.442,8.442,0,0,0,.128-1.091,1.794,1.794,0,0,0-.562-.931q-.562-.626-1.83-1.813,1.268-1.22,1.83-1.846a1.773,1.773,0,0,0,.562-.963,6.529,6.529,0,0,0-.128-.979,7.928,7.928,0,0,1-.16-1.476A3.143,3.143,0,0,1,4.7,214.821a5.661,5.661,0,0,1,3.45-.835V215.7a5.99,5.99,0,0,0-1.6.169,1.423,1.423,0,0,0-.835.562,2,2,0,0,0-.257,1.1,5.37,5.37,0,0,0,.16,1.236,4.2,4.2,0,0,1,.144,1,2.849,2.849,0,0,1-.433,1.5,5.95,5.95,0,0,1-1.364,1.468,5.709,5.709,0,0,1,1.372,1.428,2.766,2.766,0,0,1,.425,1.476,5.005,5.005,0,0,1-.128.979,6.391,6.391,0,0,0-.16,1.348,1.974,1.974,0,0,0,.249,1.075,1.4,1.4,0,0,0,.827.554,5.99,5.99,0,0,0,1.6.169Zm39.3,11.314v1.7h-6v3.5H45.3v1.7H41.448v4.237h6v1.7H39.6V242.794Zm7.687,2.921h2.118l-3.274,4.959,3.274,4.959H55.138l-2.215-3.354-2.215,3.354H48.59l3.274-4.959-3.274-4.959h2.118l2.215,3.354ZM62.3,255.858a6.54,6.54,0,0,1-2.271-.321,2.239,2.239,0,0,1-1.22-1,3.766,3.766,0,0,1-.377-1.822,4.236,4.236,0,0,1,.377-1.982,2.056,2.056,0,0,1,1.2-.979,7.378,7.378,0,0,1,2.287-.281h2.022v-.353a2.581,2.581,0,0,0-.169-1.043.982.982,0,0,0-.6-.522A3.96,3.96,0,0,0,62.3,247.4a2.984,2.984,0,0,0-1.027.136,1.034,1.034,0,0,0-.546.489,4.694,4.694,0,0,0-.369,1.075l-1.765-.433a6.445,6.445,0,0,1,.722-1.83,2.627,2.627,0,0,1,1.156-1.019,4.425,4.425,0,0,1,1.83-.329,4.109,4.109,0,0,1,2.977.891,3.726,3.726,0,0,1,.891,2.736v3.755a1.9,1.9,0,0,0,.128.867.6.6,0,0,0,.546.209q.128,0,.578-.032v1.7q-.193.016-.53.016a2.394,2.394,0,0,1-1.926-.642,2.429,2.429,0,0,1-1.075.666A5.4,5.4,0,0,1,62.3,255.858Zm0-1.7a3.192,3.192,0,0,0,1.252-.193,1.1,1.1,0,0,0,.6-.658,4.155,4.155,0,0,0,.169-1.348v-.786H62.3a6.59,6.59,0,0,0-1.3.088.769.769,0,0,0-.546.4,2.479,2.479,0,0,0-.16,1.051,1.931,1.931,0,0,0,.16.891.929.929,0,0,0,.586.425A4.646,4.646,0,0,0,62.3,254.157Zm5.457,1.476v-9.918H69.6v-.064q.128-.032.481-.1a3.545,3.545,0,0,1,.626-.064,2.27,2.27,0,0,1,1,.177,1.886,1.886,0,0,1,.674.642,2.1,2.1,0,0,1,1.83-.818,2.366,2.366,0,0,1,1.444.385,2.2,2.2,0,0,1,.738,1.268,10.449,10.449,0,0,1,.225,2.455v6.034H74.765V249.6a8.551,8.551,0,0,0-.12-1.757q-.12-.489-.441-.489a.878.878,0,0,0-.859.449,3.9,3.9,0,0,0-.233,1.621v6.211H71.267V249.7a8.743,8.743,0,0,0-.128-1.822q-.128-.522-.433-.522a.9.9,0,0,0-.867.449,3.78,3.78,0,0,0-.241,1.621v6.211Zm10.175,2.921V245.715h1.862v.1a6.535,6.535,0,0,1,2.134-.321,4.564,4.564,0,0,1,2.359.522,2.911,2.911,0,0,1,1.244,1.645,12.161,12.161,0,0,1,0,6.01,2.949,2.949,0,0,1-1.244,1.661,4.507,4.507,0,0,1-2.359.53,5.861,5.861,0,0,1-2.134-.385v3.081Zm4-4.4a2.227,2.227,0,0,0,1.292-.321,1.788,1.788,0,0,0,.65-1.067,8.908,8.908,0,0,0,.193-2.11,8.8,8.8,0,0,0-.193-2.1,1.745,1.745,0,0,0-.65-1.051,2.271,2.271,0,0,0-1.292-.313q-2.134,0-2.134.931v3.787a2.467,2.467,0,0,0,.5,1.7A2.126,2.126,0,0,0,81.923,254.157Zm11.17,1.7a3.684,3.684,0,0,1-1.741-.337,1.9,1.9,0,0,1-.883-1.123,7.244,7.244,0,0,1-.265-2.215V244.5H88.182v-1.7H92.05v9.388a3.672,3.672,0,0,0,.225,1.549.842.842,0,0,0,.818.425,1.233,1.233,0,0,0,.618-.193,7.538,7.538,0,0,0,.923-.69l1.027,1.573a4.92,4.92,0,0,1-1.26.794A3.583,3.583,0,0,1,93.093,255.858Zm8.024-1.7a2.646,2.646,0,0,0,1.372-.329,4.075,4.075,0,0,0,1.147-1.164l1.476.979a5.291,5.291,0,0,1-1.693,1.733,4.71,4.71,0,0,1-2.3.481,5.5,5.5,0,0,1-2.544-.481,2.75,2.75,0,0,1-1.3-1.589,12.523,12.523,0,0,1,0-6.227,2.75,2.75,0,0,1,1.3-1.589,5.5,5.5,0,0,1,2.544-.481,4.967,4.967,0,0,1,2.5.522,2.933,2.933,0,0,1,1.276,1.741,11.862,11.862,0,0,1,.385,3.418H98.742a5.973,5.973,0,0,0,.289,1.781,1.688,1.688,0,0,0,.738.923A2.747,2.747,0,0,0,101.117,254.157Zm0-6.965a2.4,2.4,0,0,0-1.7.506,2.75,2.75,0,0,0-.642,1.773h4.606a3.6,3.6,0,0,0-.209-1.372,1.277,1.277,0,0,0-.7-.7A3.55,3.55,0,0,0,101.117,247.192Zm13.754-4.4v1.7h-6v4.237H112.7v1.7h-3.836v5.2h-1.846V242.794Zm5.184,13.064a4.483,4.483,0,0,1-2.054-.393,2.3,2.3,0,0,1-1.091-1.276,6.94,6.94,0,0,1-.337-2.407v-6.066h1.846v6.066a6.064,6.064,0,0,0,.136,1.493,1.062,1.062,0,0,0,.481.69,2.14,2.14,0,0,0,1.019.193,5.1,5.1,0,0,0,1.484-.161,1.082,1.082,0,0,0,.682-.57,2.957,2.957,0,0,0,.193-1.212v-6.5h1.862v9.918h-1.862v-.16A5.781,5.781,0,0,1,120.054,255.858Zm6.147-.225v-9.918h1.846v.241a5.592,5.592,0,0,1,2.359-.465,4.773,4.773,0,0,1,2.11.377,2.173,2.173,0,0,1,1.067,1.268,7.712,7.712,0,0,1,.321,2.512v5.986h-1.862v-5.986a5.571,5.571,0,0,0-.152-1.484,1.271,1.271,0,0,0-.5-.746,1.809,1.809,0,0,0-.987-.225,4.671,4.671,0,0,0-1.533.185,1.058,1.058,0,0,0-.658.65,4.558,4.558,0,0,0-.169,1.444v6.163Zm13.673.225a5.2,5.2,0,0,1-2.536-.522,2.964,2.964,0,0,1-1.34-1.645,11.327,11.327,0,0,1,0-6.034,2.947,2.947,0,0,1,1.356-1.645,5.382,5.382,0,0,1,2.584-.522,4.334,4.334,0,0,1,2.231.5,5.042,5.042,0,0,1,1.6,1.765l-1.541.915a6.533,6.533,0,0,0-.69-.931,1.578,1.578,0,0,0-.65-.425,3.886,3.886,0,0,0-2.488.193,1.7,1.7,0,0,0-.754,1.051,10.465,10.465,0,0,0,0,4.237,1.737,1.737,0,0,0,.73,1.051,2.9,2.9,0,0,0,1.493.313,3.007,3.007,0,0,0,.955-.128,1.788,1.788,0,0,0,.69-.441,6.347,6.347,0,0,0,.73-.939l1.525.931a5.227,5.227,0,0,1-1.645,1.781A4.416,4.416,0,0,1,139.874,255.858Zm10.383,0a3.792,3.792,0,0,1-1.878-.4,2.353,2.353,0,0,1-1.035-1.276,6.672,6.672,0,0,1-.329-2.3v-4.654h-1.99v-1.7h1.99v-2.728h1.846v2.728h3.322v1.7h-3.322v4.654a5.774,5.774,0,0,0,.128,1.388,1.141,1.141,0,0,0,.425.69,1.5,1.5,0,0,0,.843.2,3.264,3.264,0,0,0,.859-.08.635.635,0,0,0,.385-.289,3.963,3.963,0,0,0,.281-.722l1.733.594a3.68,3.68,0,0,1-.626,1.308,2.146,2.146,0,0,1-1,.682A5.217,5.217,0,0,1,150.258,255.858Zm9.934-10.143v8.217H163v1.7h-7.463v-1.7h2.809v-6.516h-2.022v-1.7Zm-1.268-1.444a1.618,1.618,0,0,1-1.1-.281,1.953,1.953,0,0,1,0-2.07,1.618,1.618,0,0,1,1.1-.281,1.652,1.652,0,0,1,1.107.281,1.909,1.909,0,0,1,0,2.07A1.652,1.652,0,0,1,158.924,244.271Zm9.549,11.587a4.463,4.463,0,0,1-2.351-.53,2.961,2.961,0,0,1-1.236-1.653,12.129,12.129,0,0,1,0-6,2.961,2.961,0,0,1,1.236-1.653,5.5,5.5,0,0,1,4.71,0,2.948,2.948,0,0,1,1.244,1.653,12.129,12.129,0,0,1,0,6,2.948,2.948,0,0,1-1.244,1.653A4.507,4.507,0,0,1,168.473,255.858Zm0-1.7a2.272,2.272,0,0,0,1.292-.313,1.75,1.75,0,0,0,.65-1.059,11.66,11.66,0,0,0,0-4.221,1.75,1.75,0,0,0-.65-1.059,2.271,2.271,0,0,0-1.292-.313,2.231,2.231,0,0,0-1.284.313,1.767,1.767,0,0,0-.642,1.059,11.66,11.66,0,0,0,0,4.221,1.767,1.767,0,0,0,.642,1.059A2.231,2.231,0,0,0,168.473,254.157Zm5.874,1.476v-9.918h1.846v.241a5.592,5.592,0,0,1,2.359-.465,4.773,4.773,0,0,1,2.11.377,2.172,2.172,0,0,1,1.067,1.268,7.711,7.711,0,0,1,.321,2.512v5.986h-1.862v-5.986a5.571,5.571,0,0,0-.152-1.484,1.271,1.271,0,0,0-.5-.746,1.809,1.809,0,0,0-.987-.225,4.671,4.671,0,0,0-1.533.185,1.058,1.058,0,0,0-.658.65,4.557,4.557,0,0,0-.169,1.444v6.163Zm16.161,2.327a4.166,4.166,0,0,1-2.841-1.091,7,7,0,0,1-1.91-3.073,15.91,15.91,0,0,1,0-9.164,7,7,0,0,1,1.91-3.073,4.166,4.166,0,0,1,2.841-1.091v1.7a2.483,2.483,0,0,0-1.87.875,5.961,5.961,0,0,0-1.26,2.471,15.451,15.451,0,0,0,0,7.4,5.961,5.961,0,0,0,1.26,2.471,2.483,2.483,0,0,0,1.87.875Zm2.423-2.327v-9.918h1.846v-.064q.128-.032.481-.1a3.545,3.545,0,0,1,.626-.064,2.27,2.27,0,0,1,1,.177,1.886,1.886,0,0,1,.674.642,2.1,2.1,0,0,1,1.83-.818,2.366,2.366,0,0,1,1.444.385,2.2,2.2,0,0,1,.738,1.268,10.448,10.448,0,0,1,.225,2.455v6.034h-1.846V249.6a8.551,8.551,0,0,0-.12-1.757q-.12-.489-.441-.489a.878.878,0,0,0-.859.449,3.9,3.9,0,0,0-.233,1.621v6.211h-1.846V249.7a8.743,8.743,0,0,0-.128-1.822q-.128-.522-.433-.522a.9.9,0,0,0-.867.449,3.78,3.78,0,0,0-.241,1.621v6.211Zm11.395,3.146a3.262,3.262,0,0,1-1.091-.16,4.261,4.261,0,0,1-1-.546l.738-1.557a8.479,8.479,0,0,0,.835.465,1.293,1.293,0,0,0,.514.1,2.273,2.273,0,0,0,.931-.161,1.507,1.507,0,0,0,.618-.554,4.962,4.962,0,0,0,.522-1.164l-3.322-9.485H205l2.375,7.061,2.407-7.061h1.942l-3.45,9.613a8.8,8.8,0,0,1-.979,2.054,3.087,3.087,0,0,1-1.212,1.067A4.121,4.121,0,0,1,204.326,258.779Zm15.022-3.146-3.611-5.136h-1.027v5.136h-1.846V242.794h3.948a5.822,5.822,0,0,1,2.327.385,2.439,2.439,0,0,1,1.26,1.22,5.341,5.341,0,0,1,.393,2.247,6.248,6.248,0,0,1-.289,2.1,2.271,2.271,0,0,1-.931,1.188,4.023,4.023,0,0,1-1.717.514l3.627,5.184ZM214.709,244.5v4.3h2.1a4.374,4.374,0,0,0,1.348-.152.986.986,0,0,0,.61-.594,4.073,4.073,0,0,0,.177-1.4,3.69,3.69,0,0,0-.185-1.324,1.118,1.118,0,0,0-.634-.642,3.622,3.622,0,0,0-1.316-.185Zm11.587,9.661a2.646,2.646,0,0,0,1.372-.329,4.075,4.075,0,0,0,1.147-1.164l1.476.979a5.291,5.291,0,0,1-1.693,1.733,4.71,4.71,0,0,1-2.3.481,5.5,5.5,0,0,1-2.544-.481,2.75,2.75,0,0,1-1.3-1.589,12.523,12.523,0,0,1,0-6.227,2.75,2.75,0,0,1,1.3-1.589,5.5,5.5,0,0,1,2.544-.481,4.967,4.967,0,0,1,2.5.522,2.933,2.933,0,0,1,1.276,1.741,11.862,11.862,0,0,1,.385,3.418h-6.532a5.974,5.974,0,0,0,.289,1.781,1.688,1.688,0,0,0,.738.923A2.747,2.747,0,0,0,226.3,254.157Zm0-6.965a2.4,2.4,0,0,0-1.7.506,2.751,2.751,0,0,0-.642,1.773h4.606a3.6,3.6,0,0,0-.209-1.372,1.277,1.277,0,0,0-.7-.7A3.55,3.55,0,0,0,226.3,247.192Zm5.826,8.442v-9.918h1.846v.241a5.592,5.592,0,0,1,2.359-.465,4.773,4.773,0,0,1,2.11.377,2.173,2.173,0,0,1,1.067,1.268,7.712,7.712,0,0,1,.321,2.512v5.986h-1.862v-5.986a5.572,5.572,0,0,0-.152-1.484,1.271,1.271,0,0,0-.5-.746,1.809,1.809,0,0,0-.987-.225,4.671,4.671,0,0,0-1.533.185,1.058,1.058,0,0,0-.658.65,4.558,4.558,0,0,0-.169,1.444v6.163Zm13.3.225a4.519,4.519,0,0,1-2.351-.522,2.923,2.923,0,0,1-1.236-1.645,12.193,12.193,0,0,1,0-6.018,2.961,2.961,0,0,1,1.236-1.653,4.463,4.463,0,0,1,2.351-.53,5.989,5.989,0,0,1,2.151.385v-3.081h1.846v12.839h-1.846v-.112A6.3,6.3,0,0,1,245.426,255.858Zm0-1.7a4,4,0,0,0,1.629-.249.76.76,0,0,0,.522-.682v-3.787a2.44,2.44,0,0,0-.506-1.7,2.153,2.153,0,0,0-1.645-.546,2.188,2.188,0,0,0-1.284.321,1.806,1.806,0,0,0-.642,1.067,8.909,8.909,0,0,0-.193,2.11,8.8,8.8,0,0,0,.193,2.1,1.762,1.762,0,0,0,.642,1.051A2.231,2.231,0,0,0,245.426,254.157Zm9.758,0a2.646,2.646,0,0,0,1.372-.329,4.075,4.075,0,0,0,1.147-1.164l1.476.979a5.291,5.291,0,0,1-1.693,1.733,4.71,4.71,0,0,1-2.3.481,5.5,5.5,0,0,1-2.544-.481,2.75,2.75,0,0,1-1.3-1.589,12.523,12.523,0,0,1,0-6.227,2.75,2.75,0,0,1,1.3-1.589,5.5,5.5,0,0,1,2.544-.481,4.967,4.967,0,0,1,2.5.522,2.933,2.933,0,0,1,1.276,1.741,11.862,11.862,0,0,1,.385,3.418h-6.532a5.974,5.974,0,0,0,.289,1.781,1.688,1.688,0,0,0,.738.923A2.747,2.747,0,0,0,255.184,254.157Zm0-6.965a2.4,2.4,0,0,0-1.7.506,2.751,2.751,0,0,0-.642,1.773h4.606a3.6,3.6,0,0,0-.209-1.372,1.277,1.277,0,0,0-.7-.7A3.551,3.551,0,0,0,255.184,247.192Zm6.259,8.442v-9.918h1.846v.818a3.528,3.528,0,0,1,1-.73,2.84,2.84,0,0,1,1.316-.313,4.109,4.109,0,0,1,1.541.249,2.579,2.579,0,0,1,1.051.8,5.42,5.42,0,0,1,.794,1.533l-1.653.754a5.751,5.751,0,0,0-.417-1.043,1.048,1.048,0,0,0-.489-.465,2.139,2.139,0,0,0-.827-.128,1.927,1.927,0,0,0-1.781.859,4.8,4.8,0,0,0-.53,2.5v5.087Zm13-1.476a2.646,2.646,0,0,0,1.372-.329,4.075,4.075,0,0,0,1.147-1.164l1.476.979a5.291,5.291,0,0,1-1.693,1.733,4.71,4.71,0,0,1-2.3.481,5.5,5.5,0,0,1-2.544-.481,2.75,2.75,0,0,1-1.3-1.589,12.523,12.523,0,0,1,0-6.227,2.75,2.75,0,0,1,1.3-1.589,5.5,5.5,0,0,1,2.544-.481,4.967,4.967,0,0,1,2.5.522,2.933,2.933,0,0,1,1.276,1.741,11.862,11.862,0,0,1,.385,3.418h-6.532a5.974,5.974,0,0,0,.289,1.781,1.688,1.688,0,0,0,.738.923A2.747,2.747,0,0,0,274.442,254.157Zm0-6.965a2.4,2.4,0,0,0-1.7.506,2.75,2.75,0,0,0-.642,1.773h4.606a3.6,3.6,0,0,0-.209-1.372,1.277,1.277,0,0,0-.7-.7A3.55,3.55,0,0,0,274.442,247.192Zm6.259,8.442v-9.918h1.846v.818a3.528,3.528,0,0,1,1-.73,2.841,2.841,0,0,1,1.316-.313,4.109,4.109,0,0,1,1.541.249,2.579,2.579,0,0,1,1.051.8,5.42,5.42,0,0,1,.794,1.533l-1.653.754a5.752,5.752,0,0,0-.417-1.043,1.048,1.048,0,0,0-.489-.465,2.139,2.139,0,0,0-.827-.128,1.927,1.927,0,0,0-1.781.859,4.8,4.8,0,0,0-.53,2.5v5.087Zm10.191.626a2.483,2.483,0,0,0,1.87-.875,5.96,5.96,0,0,0,1.26-2.471,15.45,15.45,0,0,0,0-7.4,5.96,5.96,0,0,0-1.26-2.471,2.483,2.483,0,0,0-1.87-.875v-1.7a4.166,4.166,0,0,1,2.841,1.091,7,7,0,0,1,1.91,3.073,15.91,15.91,0,0,1,0,9.164,7,7,0,0,1-1.91,3.073,4.166,4.166,0,0,1-2.841,1.091Zm10.544,2.52a13.694,13.694,0,0,0,1.131-1.749,2.609,2.609,0,0,0,.313-1.156,1.007,1.007,0,0,1-.835-.289,1.843,1.843,0,0,1-.225-1.075,1.445,1.445,0,0,1,.313-1.067,2.366,2.366,0,0,1,2.295,0,1.445,1.445,0,0,1,.313,1.067,5.158,5.158,0,0,1-.409,2.11,9.152,9.152,0,0,1-1.485,2.159Zm1.846-10.608a1.68,1.68,0,0,1-1.147-.3,1.418,1.418,0,0,1-.313-1.051,1.445,1.445,0,0,1,.313-1.067,2.366,2.366,0,0,1,2.295,0,1.445,1.445,0,0,1,.313,1.067,1.418,1.418,0,0,1-.313,1.051A1.68,1.68,0,0,1,303.282,248.17ZM1.407,282.723a5.99,5.99,0,0,0,1.6-.169A1.438,1.438,0,0,0,3.846,282a1.925,1.925,0,0,0,.257-1.075,6.391,6.391,0,0,0-.16-1.348,5,5,0,0,1-.128-.979,2.805,2.805,0,0,1,.417-1.476A5.564,5.564,0,0,1,5.6,275.694a5.59,5.59,0,0,1-1.356-1.452,2.917,2.917,0,0,1-.425-1.517,4.2,4.2,0,0,1,.144-.995,5.37,5.37,0,0,0,.16-1.236,2,2,0,0,0-.257-1.1,1.427,1.427,0,0,0-.843-.562,6.084,6.084,0,0,0-1.613-.169v-1.717a5.7,5.7,0,0,1,3.458.835,3.132,3.132,0,0,1,1.083,2.648,7.928,7.928,0,0,1-.16,1.476,6.529,6.529,0,0,0-.128.979,1.836,1.836,0,0,0,.562.979q.562.642,1.813,1.83-1.236,1.156-1.805,1.8a1.852,1.852,0,0,0-.57.947,8.442,8.442,0,0,0,.128,1.091,8.637,8.637,0,0,1,.16,1.444,3.109,3.109,0,0,1-1.083,2.64,5.741,5.741,0,0,1-3.458.827Z" transform="translate(623.637 26072.684)" fill="#12263f"/>
  </g>
</svg>
