<svg xmlns="http://www.w3.org/2000/svg" width="610" height="491" viewBox="0 0 610 491">
  <g id="Grupo_167878" data-name="Grupo 167878" transform="translate(-519 -28004)">
    <rect id="Rectángulo_342047" data-name="Rectángulo 342047" width="610" height="491" rx="25" transform="translate(519 28004)" fill="#05dbf3" opacity="0.2"/>
    <path id="Trazado_688251" data-name="Trazado 688251" d="M.875,19.634V7.249h1.8v.093a6.3,6.3,0,0,1,2.059-.31,4.4,4.4,0,0,1,2.276.5,2.808,2.808,0,0,1,1.2,1.587,9.355,9.355,0,0,1,.364,2.9,9.432,9.432,0,0,1-.364,2.9,2.845,2.845,0,0,1-1.2,1.6,4.348,4.348,0,0,1-2.276.511,5.654,5.654,0,0,1-2.059-.372v2.972Zm3.855-4.242a2.149,2.149,0,0,0,1.246-.31,1.725,1.725,0,0,0,.627-1.03,8.594,8.594,0,0,0,.186-2.036A8.491,8.491,0,0,0,6.6,9.989a1.683,1.683,0,0,0-.627-1.014,2.191,2.191,0,0,0-1.246-.3q-2.059,0-2.059.9v3.654a2.38,2.38,0,0,0,.48,1.641A2.05,2.05,0,0,0,4.729,15.392Zm5.976,1.424V7.249h1.78v.79a3.4,3.4,0,0,1,.96-.7,2.74,2.74,0,0,1,1.269-.3,3.964,3.964,0,0,1,1.486.24,2.488,2.488,0,0,1,1.014.774,5.228,5.228,0,0,1,.766,1.478l-1.595.728a5.547,5.547,0,0,0-.4-1.006,1.011,1.011,0,0,0-.472-.449,2.063,2.063,0,0,0-.8-.124A1.859,1.859,0,0,0,13,9.5a4.628,4.628,0,0,0-.511,2.407v4.908ZM24.5,7.249v7.927h2.709v1.641h-7.2V15.175h2.709V8.89H20.768V7.249ZM23.276,5.855a1.561,1.561,0,0,1-1.06-.271,1.358,1.358,0,0,1-.286-1,1.358,1.358,0,0,1,.286-1,1.561,1.561,0,0,1,1.06-.271,1.594,1.594,0,0,1,1.068.271,1.334,1.334,0,0,1,.294,1,1.334,1.334,0,0,1-.294,1A1.594,1.594,0,0,1,23.276,5.855Zm10,10.961h-1.61L28.23,7.249h1.842l2.4,6.92,2.446-6.92h1.827Zm8.252.217a6.309,6.309,0,0,1-2.191-.31,2.16,2.16,0,0,1-1.177-.968A3.633,3.633,0,0,1,37.8,14a4.086,4.086,0,0,1,.364-1.912,1.984,1.984,0,0,1,1.161-.944,7.117,7.117,0,0,1,2.206-.271H43.48v-.341a2.49,2.49,0,0,0-.163-1.006.947.947,0,0,0-.581-.5,3.82,3.82,0,0,0-1.208-.147,2.879,2.879,0,0,0-.991.132,1,1,0,0,0-.526.472,4.528,4.528,0,0,0-.356,1.037l-1.7-.418a6.217,6.217,0,0,1,.7-1.765,2.534,2.534,0,0,1,1.115-.983,4.268,4.268,0,0,1,1.765-.317,3.964,3.964,0,0,1,2.872.859,3.6,3.6,0,0,1,.859,2.64v3.623a1.832,1.832,0,0,0,.124.836.575.575,0,0,0,.526.2q.124,0,.557-.031V16.8q-.186.015-.511.015A2.31,2.31,0,0,1,44.1,16.2a2.343,2.343,0,0,1-1.037.642A5.2,5.2,0,0,1,41.529,17.033Zm0-1.641a3.08,3.08,0,0,0,1.208-.186,1.056,1.056,0,0,0,.581-.635,4.008,4.008,0,0,0,.163-1.3v-.759H41.529a6.357,6.357,0,0,0-1.254.085.741.741,0,0,0-.526.387A2.391,2.391,0,0,0,39.594,14a1.863,1.863,0,0,0,.155.859.9.9,0,0,0,.565.41A4.482,4.482,0,0,0,41.529,15.392Zm10.543,1.641a3.658,3.658,0,0,1-1.811-.387,2.27,2.27,0,0,1-1-1.231,6.436,6.436,0,0,1-.317-2.222V8.7h-1.92V7.063h1.92V4.431h1.78V7.063h3.2V8.7h-3.2v4.49a5.57,5.57,0,0,0,.124,1.339,1.1,1.1,0,0,0,.41.666,1.444,1.444,0,0,0,.813.194,3.148,3.148,0,0,0,.828-.077.612.612,0,0,0,.372-.279,3.823,3.823,0,0,0,.271-.7l1.672.573a3.55,3.55,0,0,1-.6,1.262,2.07,2.07,0,0,1-.968.658A5.033,5.033,0,0,1,52.072,17.033ZM60.4,15.392a2.552,2.552,0,0,0,1.324-.317,3.931,3.931,0,0,0,1.107-1.122l1.424.944a5.1,5.1,0,0,1-1.633,1.672,4.543,4.543,0,0,1-2.222.464,5.307,5.307,0,0,1-2.454-.464,2.653,2.653,0,0,1-1.254-1.533,9.342,9.342,0,0,1-.379-3,9.342,9.342,0,0,1,.379-3A2.653,2.653,0,0,1,57.947,7.5,5.307,5.307,0,0,1,60.4,7.032a4.791,4.791,0,0,1,2.407.5,2.829,2.829,0,0,1,1.231,1.68,11.443,11.443,0,0,1,.372,3.3h-6.3a5.763,5.763,0,0,0,.279,1.718,1.628,1.628,0,0,0,.712.89A2.65,2.65,0,0,0,60.4,15.392Zm0-6.719a2.319,2.319,0,0,0-1.641.488,2.653,2.653,0,0,0-.619,1.711h4.443a3.476,3.476,0,0,0-.2-1.324,1.232,1.232,0,0,0-.673-.673A3.425,3.425,0,0,0,60.4,8.673Zm21.163,8.143-3.483-4.954H77.09v4.954H75.31V4.431h3.808a5.616,5.616,0,0,1,2.245.372,2.353,2.353,0,0,1,1.215,1.177,5.152,5.152,0,0,1,.379,2.167,6.028,6.028,0,0,1-.279,2.028,2.191,2.191,0,0,1-.9,1.146,3.881,3.881,0,0,1-1.657.5l3.5,5ZM77.09,6.072v4.149h2.028a4.219,4.219,0,0,0,1.3-.147.952.952,0,0,0,.588-.573,3.93,3.93,0,0,0,.17-1.355A3.56,3.56,0,0,0,81,6.869a1.079,1.079,0,0,0-.612-.619,3.493,3.493,0,0,0-1.269-.178Zm11.178,9.32a2.552,2.552,0,0,0,1.324-.317A3.931,3.931,0,0,0,90.7,13.952l1.424.944a5.1,5.1,0,0,1-1.633,1.672,4.543,4.543,0,0,1-2.222.464,5.307,5.307,0,0,1-2.454-.464,2.653,2.653,0,0,1-1.254-1.533,9.342,9.342,0,0,1-.379-3,9.342,9.342,0,0,1,.379-3A2.653,2.653,0,0,1,85.814,7.5a5.307,5.307,0,0,1,2.454-.464,4.791,4.791,0,0,1,2.407.5,2.829,2.829,0,0,1,1.231,1.68,11.442,11.442,0,0,1,.372,3.3h-6.3a5.763,5.763,0,0,0,.279,1.718,1.628,1.628,0,0,0,.712.89A2.65,2.65,0,0,0,88.268,15.392Zm0-6.719a2.319,2.319,0,0,0-1.641.488,2.653,2.653,0,0,0-.619,1.711h4.443a3.476,3.476,0,0,0-.2-1.324,1.232,1.232,0,0,0-.673-.673A3.425,3.425,0,0,0,88.268,8.673Zm5.62,8.143V7.249h1.78v.232a5.394,5.394,0,0,1,2.276-.449A4.6,4.6,0,0,1,99.98,7.4a2.1,2.1,0,0,1,1.03,1.223,7.439,7.439,0,0,1,.31,2.423v5.775h-1.8V11.042a5.374,5.374,0,0,0-.147-1.432,1.226,1.226,0,0,0-.48-.72,1.745,1.745,0,0,0-.952-.217,4.505,4.505,0,0,0-1.478.178,1.021,1.021,0,0,0-.635.627,4.4,4.4,0,0,0-.163,1.393v5.945Zm12.834.217a4.359,4.359,0,0,1-2.268-.5,2.82,2.82,0,0,1-1.192-1.587,9.355,9.355,0,0,1-.364-2.9,9.418,9.418,0,0,1,.364-2.911,2.856,2.856,0,0,1,1.192-1.595,4.305,4.305,0,0,1,2.268-.511A5.778,5.778,0,0,1,108.8,7.4V4.431h1.78V16.816H108.8v-.108A6.08,6.08,0,0,1,106.722,17.033Zm0-1.641a3.854,3.854,0,0,0,1.571-.24.733.733,0,0,0,.5-.658V10.84a2.354,2.354,0,0,0-.488-1.641,2.077,2.077,0,0,0-1.587-.526,2.111,2.111,0,0,0-1.239.31,1.742,1.742,0,0,0-.619,1.03,8.594,8.594,0,0,0-.186,2.036,8.492,8.492,0,0,0,.186,2.028,1.7,1.7,0,0,0,.619,1.014A2.152,2.152,0,0,0,106.722,15.392Zm9.413,0a2.552,2.552,0,0,0,1.324-.317,3.931,3.931,0,0,0,1.107-1.122l1.424.944a5.1,5.1,0,0,1-1.633,1.672,4.543,4.543,0,0,1-2.222.464,5.307,5.307,0,0,1-2.454-.464,2.653,2.653,0,0,1-1.254-1.533,9.342,9.342,0,0,1-.379-3,9.342,9.342,0,0,1,.379-3A2.653,2.653,0,0,1,113.681,7.5a5.307,5.307,0,0,1,2.454-.464,4.791,4.791,0,0,1,2.407.5,2.829,2.829,0,0,1,1.231,1.68,11.442,11.442,0,0,1,.372,3.3h-6.3a5.763,5.763,0,0,0,.279,1.718,1.628,1.628,0,0,0,.712.89A2.65,2.65,0,0,0,116.135,15.392Zm0-6.719a2.319,2.319,0,0,0-1.641.488,2.653,2.653,0,0,0-.619,1.711h4.443a3.476,3.476,0,0,0-.2-1.324,1.232,1.232,0,0,0-.673-.673A3.425,3.425,0,0,0,116.135,8.673Zm6.038,8.143V7.249h1.78v.79a3.4,3.4,0,0,1,.96-.7,2.74,2.74,0,0,1,1.269-.3,3.964,3.964,0,0,1,1.486.24,2.488,2.488,0,0,1,1.014.774,5.228,5.228,0,0,1,.766,1.478l-1.595.728a5.547,5.547,0,0,0-.4-1.006,1.011,1.011,0,0,0-.472-.449,2.063,2.063,0,0,0-.8-.124,1.859,1.859,0,0,0-1.718.828,4.628,4.628,0,0,0-.511,2.407v4.908Zm12.54-1.424a2.552,2.552,0,0,0,1.324-.317,3.931,3.931,0,0,0,1.107-1.122l1.424.944a5.1,5.1,0,0,1-1.633,1.672,4.543,4.543,0,0,1-2.222.464,5.307,5.307,0,0,1-2.454-.464,2.653,2.653,0,0,1-1.254-1.533,9.342,9.342,0,0,1-.379-3,9.342,9.342,0,0,1,.379-3A2.653,2.653,0,0,1,132.259,7.5a5.307,5.307,0,0,1,2.454-.464,4.791,4.791,0,0,1,2.407.5,2.829,2.829,0,0,1,1.231,1.68,11.442,11.442,0,0,1,.372,3.3h-6.3a5.763,5.763,0,0,0,.279,1.718,1.628,1.628,0,0,0,.712.89A2.65,2.65,0,0,0,134.713,15.392Zm0-6.719a2.319,2.319,0,0,0-1.641.488,2.653,2.653,0,0,0-.619,1.711H136.9a3.476,3.476,0,0,0-.2-1.324,1.232,1.232,0,0,0-.673-.673A3.425,3.425,0,0,0,134.713,8.673Zm6.038,8.143V7.249h1.78v.79a3.4,3.4,0,0,1,.96-.7,2.74,2.74,0,0,1,1.269-.3,3.964,3.964,0,0,1,1.486.24,2.488,2.488,0,0,1,1.014.774,5.228,5.228,0,0,1,.766,1.478l-1.595.728a5.546,5.546,0,0,0-.4-1.006,1.011,1.011,0,0,0-.472-.449,2.063,2.063,0,0,0-.8-.124,1.859,1.859,0,0,0-1.718.828,4.628,4.628,0,0,0-.511,2.407v4.908Zm17.51,0V7.249h1.78V7.187q.124-.031.464-.093a3.42,3.42,0,0,1,.6-.062,2.189,2.189,0,0,1,.96.17,1.819,1.819,0,0,1,.65.619,2.022,2.022,0,0,1,1.765-.79,2.283,2.283,0,0,1,1.393.372,2.118,2.118,0,0,1,.712,1.223A10.08,10.08,0,0,1,166.806,11v5.821h-1.78V11a8.248,8.248,0,0,0-.116-1.7q-.116-.472-.426-.472a.847.847,0,0,0-.828.433,3.76,3.76,0,0,0-.224,1.564v5.991h-1.78V11.088a8.434,8.434,0,0,0-.124-1.757q-.124-.5-.418-.5a.864.864,0,0,0-.836.433,3.646,3.646,0,0,0-.232,1.564v5.991Zm10.992,3.034A3.146,3.146,0,0,1,168.2,19.7a4.11,4.11,0,0,1-.96-.526l.712-1.5a8.173,8.173,0,0,0,.805.449,1.247,1.247,0,0,0,.5.093,2.193,2.193,0,0,0,.9-.155,1.454,1.454,0,0,0,.6-.534,4.786,4.786,0,0,0,.5-1.122l-3.2-9.15H169.9l2.291,6.812,2.322-6.812h1.873l-3.329,9.273a8.485,8.485,0,0,1-.944,1.982,2.978,2.978,0,0,1-1.169,1.03A3.976,3.976,0,0,1,169.252,19.851Zm14.491-3.034-3.483-4.954h-.991v4.954h-1.78V4.431H181.3a5.616,5.616,0,0,1,2.245.372,2.353,2.353,0,0,1,1.215,1.177,5.152,5.152,0,0,1,.379,2.167,6.027,6.027,0,0,1-.279,2.028,2.191,2.191,0,0,1-.9,1.146,3.881,3.881,0,0,1-1.657.5l3.5,5ZM179.269,6.072v4.149H181.3a4.219,4.219,0,0,0,1.3-.147.952.952,0,0,0,.588-.573,3.929,3.929,0,0,0,.17-1.355,3.559,3.559,0,0,0-.178-1.277,1.079,1.079,0,0,0-.612-.619,3.493,3.493,0,0,0-1.27-.178Zm11.178,9.32a2.552,2.552,0,0,0,1.324-.317,3.931,3.931,0,0,0,1.107-1.122l1.424.944a5.1,5.1,0,0,1-1.633,1.672,4.543,4.543,0,0,1-2.222.464,5.307,5.307,0,0,1-2.454-.464,2.653,2.653,0,0,1-1.254-1.533,9.342,9.342,0,0,1-.379-3,9.342,9.342,0,0,1,.379-3A2.653,2.653,0,0,1,187.993,7.5a5.307,5.307,0,0,1,2.454-.464,4.791,4.791,0,0,1,2.407.5,2.829,2.829,0,0,1,1.231,1.68,11.442,11.442,0,0,1,.372,3.3h-6.3a5.764,5.764,0,0,0,.279,1.718,1.628,1.628,0,0,0,.712.89A2.65,2.65,0,0,0,190.447,15.392Zm0-6.719a2.319,2.319,0,0,0-1.641.488,2.653,2.653,0,0,0-.619,1.711h4.443a3.476,3.476,0,0,0-.2-1.324,1.232,1.232,0,0,0-.673-.673A3.425,3.425,0,0,0,190.447,8.673Zm5.62,8.143V7.249h1.78v.232a5.394,5.394,0,0,1,2.276-.449,4.6,4.6,0,0,1,2.036.364,2.1,2.1,0,0,1,1.03,1.223,7.439,7.439,0,0,1,.31,2.423v5.775h-1.8V11.042a5.374,5.374,0,0,0-.147-1.432,1.226,1.226,0,0,0-.48-.72,1.745,1.745,0,0,0-.952-.217,4.506,4.506,0,0,0-1.478.178,1.021,1.021,0,0,0-.635.627,4.4,4.4,0,0,0-.163,1.393v5.945Zm12.834.217a4.359,4.359,0,0,1-2.268-.5,2.82,2.82,0,0,1-1.192-1.587,9.355,9.355,0,0,1-.364-2.9,9.419,9.419,0,0,1,.364-2.911,2.856,2.856,0,0,1,1.192-1.595,4.305,4.305,0,0,1,2.268-.511,5.778,5.778,0,0,1,2.075.372V4.431h1.78V16.816h-1.78v-.108A6.08,6.08,0,0,1,208.9,17.033Zm0-1.641a3.854,3.854,0,0,0,1.571-.24.734.734,0,0,0,.5-.658V10.84a2.354,2.354,0,0,0-.488-1.641,2.077,2.077,0,0,0-1.587-.526,2.111,2.111,0,0,0-1.239.31,1.742,1.742,0,0,0-.619,1.03,8.594,8.594,0,0,0-.186,2.036,8.491,8.491,0,0,0,.186,2.028,1.7,1.7,0,0,0,.619,1.014A2.152,2.152,0,0,0,208.9,15.392Zm9.413,0a2.552,2.552,0,0,0,1.324-.317,3.931,3.931,0,0,0,1.107-1.122l1.424.944a5.1,5.1,0,0,1-1.633,1.672,4.543,4.543,0,0,1-2.222.464,5.307,5.307,0,0,1-2.454-.464,2.653,2.653,0,0,1-1.254-1.533,9.342,9.342,0,0,1-.379-3,9.342,9.342,0,0,1,.379-3A2.653,2.653,0,0,1,215.86,7.5a5.307,5.307,0,0,1,2.454-.464,4.791,4.791,0,0,1,2.407.5,2.829,2.829,0,0,1,1.231,1.68,11.442,11.442,0,0,1,.372,3.3h-6.3a5.764,5.764,0,0,0,.279,1.718,1.628,1.628,0,0,0,.712.89A2.65,2.65,0,0,0,218.313,15.392Zm0-6.719a2.319,2.319,0,0,0-1.641.488,2.653,2.653,0,0,0-.619,1.711H220.5a3.476,3.476,0,0,0-.2-1.324,1.232,1.232,0,0,0-.673-.673A3.425,3.425,0,0,0,218.313,8.673Zm6.038,8.143V7.249h1.78v.79a3.4,3.4,0,0,1,.96-.7,2.74,2.74,0,0,1,1.269-.3,3.964,3.964,0,0,1,1.486.24,2.488,2.488,0,0,1,1.014.774,5.228,5.228,0,0,1,.766,1.478l-1.595.728a5.546,5.546,0,0,0-.4-1.006,1.011,1.011,0,0,0-.472-.449,2.063,2.063,0,0,0-.8-.124,1.859,1.859,0,0,0-1.718.828,4.628,4.628,0,0,0-.511,2.407v4.908Zm12.54-1.424a2.552,2.552,0,0,0,1.324-.317,3.931,3.931,0,0,0,1.107-1.122l1.424.944a5.1,5.1,0,0,1-1.633,1.672,4.543,4.543,0,0,1-2.222.464,5.307,5.307,0,0,1-2.454-.464,2.653,2.653,0,0,1-1.254-1.533,9.342,9.342,0,0,1-.379-3,9.342,9.342,0,0,1,.379-3A2.653,2.653,0,0,1,234.438,7.5a5.307,5.307,0,0,1,2.454-.464,4.791,4.791,0,0,1,2.407.5,2.829,2.829,0,0,1,1.231,1.68,11.442,11.442,0,0,1,.372,3.3h-6.3a5.764,5.764,0,0,0,.279,1.718,1.628,1.628,0,0,0,.712.89A2.65,2.65,0,0,0,236.891,15.392Zm0-6.719a2.319,2.319,0,0,0-1.641.488,2.653,2.653,0,0,0-.619,1.711h4.443a3.477,3.477,0,0,0-.2-1.324,1.232,1.232,0,0,0-.673-.673A3.425,3.425,0,0,0,236.891,8.673Zm6.038,8.143V7.249h1.78v.79a3.4,3.4,0,0,1,.96-.7,2.74,2.74,0,0,1,1.269-.3,3.964,3.964,0,0,1,1.486.24,2.488,2.488,0,0,1,1.014.774,5.228,5.228,0,0,1,.766,1.478l-1.595.728a5.548,5.548,0,0,0-.4-1.006,1.011,1.011,0,0,0-.472-.449,2.063,2.063,0,0,0-.8-.124,1.859,1.859,0,0,0-1.718.828,4.628,4.628,0,0,0-.511,2.407v4.908Zm10.713,3.034a13.213,13.213,0,0,0,1.091-1.687,2.517,2.517,0,0,0,.3-1.115.971.971,0,0,1-.805-.279,1.778,1.778,0,0,1-.217-1.037,1.394,1.394,0,0,1,.3-1.03,2.282,2.282,0,0,1,2.214,0,1.394,1.394,0,0,1,.3,1.03,4.975,4.975,0,0,1-.395,2.036A8.827,8.827,0,0,1,255,19.851Zm1.78-10.233a1.621,1.621,0,0,1-1.107-.286,1.368,1.368,0,0,1-.3-1.014,1.394,1.394,0,0,1,.3-1.03,2.282,2.282,0,0,1,2.214,0,1.394,1.394,0,0,1,.3,1.03,1.368,1.368,0,0,1-.3,1.014A1.621,1.621,0,0,1,255.423,9.617ZM5.411,67.906H3.8L.364,58.338H2.206l2.4,6.92,2.446-6.92H8.879Zm8.5.217a4.305,4.305,0,0,1-2.268-.511,2.856,2.856,0,0,1-1.192-1.595,11.7,11.7,0,0,1,0-5.79,2.856,2.856,0,0,1,1.192-1.595,4.305,4.305,0,0,1,2.268-.511,4.348,4.348,0,0,1,2.276.511,2.844,2.844,0,0,1,1.2,1.595,11.7,11.7,0,0,1,0,5.79,2.844,2.844,0,0,1-1.2,1.595A4.348,4.348,0,0,1,13.91,68.122Zm0-1.641a2.191,2.191,0,0,0,1.246-.3,1.688,1.688,0,0,0,.627-1.022,11.248,11.248,0,0,0,0-4.072,1.688,1.688,0,0,0-.627-1.022,2.191,2.191,0,0,0-1.246-.3,2.152,2.152,0,0,0-1.239.3,1.7,1.7,0,0,0-.619,1.022,11.248,11.248,0,0,0,0,4.072,1.7,1.7,0,0,0,.619,1.022A2.152,2.152,0,0,0,13.91,66.481ZM24.5,58.338v7.927h2.709v1.641h-7.2V66.265h2.709V59.979H20.768V58.338Zm-1.223-1.393a1.561,1.561,0,0,1-1.06-.271,1.884,1.884,0,0,1,0-2,1.561,1.561,0,0,1,1.06-.271,1.594,1.594,0,0,1,1.068.271,1.842,1.842,0,0,1,0,2A1.594,1.594,0,0,1,23.276,56.945Zm9.134,11.178a4.359,4.359,0,0,1-2.268-.5,2.82,2.82,0,0,1-1.192-1.587,11.762,11.762,0,0,1,0-5.806,2.856,2.856,0,0,1,1.192-1.595,4.305,4.305,0,0,1,2.268-.511,5.778,5.778,0,0,1,2.075.372V55.52h1.78V67.906h-1.78V67.8A6.08,6.08,0,0,1,32.411,68.122Zm0-1.641a3.854,3.854,0,0,0,1.571-.24.734.734,0,0,0,.5-.658V61.93A2.354,2.354,0,0,0,34,60.289a2.077,2.077,0,0,0-1.587-.526,2.111,2.111,0,0,0-1.239.31,1.742,1.742,0,0,0-.619,1.03,8.594,8.594,0,0,0-.186,2.036,8.492,8.492,0,0,0,.186,2.028,1.7,1.7,0,0,0,.619,1.014A2.152,2.152,0,0,0,32.411,66.481Zm18.655,1.641a7.544,7.544,0,0,1-1.943-.209,2.985,2.985,0,0,1-1.285-.7,4.391,4.391,0,0,1-.921-1.339l1.378-1.3a4.812,4.812,0,0,0,.557,1.192,1.5,1.5,0,0,0,.774.55,4.874,4.874,0,0,0,1.44.163,3.7,3.7,0,0,0,1.362-.194,1.154,1.154,0,0,0,.65-.642,3.6,3.6,0,0,0,.186-1.316,1.936,1.936,0,0,0-.2-.975,1.591,1.591,0,0,0-.666-.581,11.333,11.333,0,0,0-1.486-.581,12.025,12.025,0,0,1-2.16-.9,2.879,2.879,0,0,1-1.091-1.022,3.037,3.037,0,0,1-.341-1.533,4.641,4.641,0,0,1,.364-2,2.2,2.2,0,0,1,1.177-1.091,5.834,5.834,0,0,1,2.206-.341,7.172,7.172,0,0,1,1.788.186,2.974,2.974,0,0,1,1.2.612,4.029,4.029,0,0,1,.9,1.184l-1.269,1.378a4.852,4.852,0,0,0-.557-1.091,1.378,1.378,0,0,0-.728-.488,4.885,4.885,0,0,0-1.331-.139,3.692,3.692,0,0,0-1.231.155.962.962,0,0,0-.573.534A2.927,2.927,0,0,0,49.1,58.74a1.6,1.6,0,0,0,.17.821,1.305,1.305,0,0,0,.581.472,11.613,11.613,0,0,0,1.355.488,12.024,12.024,0,0,1,2.3.929,2.947,2.947,0,0,1,1.177,1.138,3.651,3.651,0,0,1,.364,1.742,5.26,5.26,0,0,1-.387,2.214,2.4,2.4,0,0,1-1.246,1.2A5.927,5.927,0,0,1,51.066,68.122Zm10.3,0a3.658,3.658,0,0,1-1.811-.387,2.27,2.27,0,0,1-1-1.231,6.436,6.436,0,0,1-.317-2.222v-4.49h-1.92V58.152h1.92V55.52h1.78v2.632h3.2v1.641h-3.2v4.49a5.57,5.57,0,0,0,.124,1.339,1.1,1.1,0,0,0,.41.666,1.444,1.444,0,0,0,.813.194,3.148,3.148,0,0,0,.828-.077.612.612,0,0,0,.372-.279,3.823,3.823,0,0,0,.271-.7L64.5,66a3.55,3.55,0,0,1-.6,1.262,2.07,2.07,0,0,1-.968.658A5.034,5.034,0,0,1,61.361,68.122Zm8.035,0a6.309,6.309,0,0,1-2.191-.31,2.16,2.16,0,0,1-1.177-.968,3.633,3.633,0,0,1-.364-1.757,4.086,4.086,0,0,1,.364-1.912,1.984,1.984,0,0,1,1.161-.944,7.117,7.117,0,0,1,2.206-.271h1.951V61.62a2.49,2.49,0,0,0-.163-1.006.947.947,0,0,0-.581-.5,3.82,3.82,0,0,0-1.208-.147,2.879,2.879,0,0,0-.991.132,1,1,0,0,0-.526.472,4.528,4.528,0,0,0-.356,1.037l-1.7-.418a6.217,6.217,0,0,1,.7-1.765,2.534,2.534,0,0,1,1.115-.983,4.268,4.268,0,0,1,1.765-.317,3.964,3.964,0,0,1,2.872.859,3.6,3.6,0,0,1,.859,2.64v3.623a1.832,1.832,0,0,0,.124.836.575.575,0,0,0,.526.2q.124,0,.557-.031V67.89q-.186.015-.511.015a2.31,2.31,0,0,1-1.858-.619,2.343,2.343,0,0,1-1.037.642A5.2,5.2,0,0,1,69.4,68.122Zm0-1.641A3.08,3.08,0,0,0,70.6,66.3a1.056,1.056,0,0,0,.581-.635,4.008,4.008,0,0,0,.163-1.3V63.6H69.4a6.357,6.357,0,0,0-1.254.085.741.741,0,0,0-.526.387,2.391,2.391,0,0,0-.155,1.014,1.863,1.863,0,0,0,.155.859.9.9,0,0,0,.565.41A4.482,4.482,0,0,0,69.4,66.481Zm6.332,1.424V58.338h1.78v.79a3.4,3.4,0,0,1,.96-.7,2.74,2.74,0,0,1,1.269-.3,3.964,3.964,0,0,1,1.486.24,2.488,2.488,0,0,1,1.014.774A5.228,5.228,0,0,1,83,60.614l-1.595.728a5.548,5.548,0,0,0-.4-1.006,1.011,1.011,0,0,0-.472-.449,2.063,2.063,0,0,0-.8-.124,1.859,1.859,0,0,0-1.718.828A4.628,4.628,0,0,0,77.508,63v4.908Zm13.5.217a3.658,3.658,0,0,1-1.811-.387,2.27,2.27,0,0,1-1-1.231,6.436,6.436,0,0,1-.317-2.222v-4.49h-1.92V58.152H86.1V55.52h1.78v2.632h3.2v1.641h-3.2v4.49A5.57,5.57,0,0,0,88,65.622a1.1,1.1,0,0,0,.41.666,1.444,1.444,0,0,0,.813.194,3.148,3.148,0,0,0,.828-.077.612.612,0,0,0,.372-.279,3.822,3.822,0,0,0,.271-.7L92.371,66a3.55,3.55,0,0,1-.6,1.262,2.07,2.07,0,0,1-.968.658A5.034,5.034,0,0,1,89.228,68.122Zm10.961,2.028a4.019,4.019,0,0,1-2.74-1.053,6.755,6.755,0,0,1-1.842-2.965,15.348,15.348,0,0,1,0-8.84,6.755,6.755,0,0,1,1.842-2.965,4.019,4.019,0,0,1,2.74-1.053v1.641a2.4,2.4,0,0,0-1.8.844,5.75,5.75,0,0,0-1.215,2.384,14.9,14.9,0,0,0,0,7.137,5.75,5.75,0,0,0,1.215,2.384,2.4,2.4,0,0,0,1.8.844Zm3.948-1.641a2.4,2.4,0,0,0,1.8-.844,5.75,5.75,0,0,0,1.215-2.384,14.9,14.9,0,0,0,0-7.137,5.75,5.75,0,0,0-1.215-2.384,2.4,2.4,0,0,0-1.8-.844V53.275a4.019,4.019,0,0,1,2.74,1.053,6.755,6.755,0,0,1,1.842,2.965,15.348,15.348,0,0,1,0,8.84,6.755,6.755,0,0,1-1.842,2.965,4.019,4.019,0,0,1-2.74,1.053ZM7.872,95.7a5.5,5.5,0,0,1-3.329-.8,3.009,3.009,0,0,1-1.037-2.547,8.332,8.332,0,0,1,.155-1.393A8.144,8.144,0,0,0,3.785,89.9a1.73,1.73,0,0,0-.542-.9q-.542-.6-1.765-1.749,1.223-1.177,1.765-1.78a1.71,1.71,0,0,0,.542-.929,6.3,6.3,0,0,0-.124-.944,7.648,7.648,0,0,1-.155-1.424,3.032,3.032,0,0,1,1.037-2.554,5.461,5.461,0,0,1,3.329-.805v1.657a5.778,5.778,0,0,0-1.548.163,1.373,1.373,0,0,0-.805.542,1.931,1.931,0,0,0-.248,1.06,5.18,5.18,0,0,0,.155,1.192,4.05,4.05,0,0,1,.139.96,2.748,2.748,0,0,1-.418,1.448,5.739,5.739,0,0,1-1.316,1.417,5.507,5.507,0,0,1,1.324,1.378,2.668,2.668,0,0,1,.41,1.424A4.828,4.828,0,0,1,5.442,91a6.165,6.165,0,0,0-.155,1.3,1.9,1.9,0,0,0,.24,1.037,1.351,1.351,0,0,0,.8.534,5.778,5.778,0,0,0,1.548.163Zm29.632,23.3v-9.568h1.78v-.062q.124-.031.464-.093a3.42,3.42,0,0,1,.6-.062,2.19,2.19,0,0,1,.96.17,1.819,1.819,0,0,1,.65.619,2.022,2.022,0,0,1,1.765-.79,2.283,2.283,0,0,1,1.393.372,2.118,2.118,0,0,1,.712,1.223,10.08,10.08,0,0,1,.217,2.369v5.821h-1.78v-5.821a8.249,8.249,0,0,0-.116-1.7q-.116-.472-.426-.472a.847.847,0,0,0-.828.433A3.76,3.76,0,0,0,42.675,113v5.991h-1.78v-5.728a8.434,8.434,0,0,0-.124-1.757q-.124-.5-.418-.5a.864.864,0,0,0-.836.433A3.646,3.646,0,0,0,39.284,113v5.991ZM48.5,122.029a3.146,3.146,0,0,1-1.053-.155,4.11,4.11,0,0,1-.96-.526l.712-1.5A8.173,8.173,0,0,0,48,120.3a1.247,1.247,0,0,0,.5.093,2.193,2.193,0,0,0,.9-.155,1.454,1.454,0,0,0,.6-.534,4.786,4.786,0,0,0,.5-1.122l-3.2-9.15h1.858l2.291,6.812,2.322-6.812h1.873L52.3,118.7a8.486,8.486,0,0,1-.944,1.982,2.978,2.978,0,0,1-1.169,1.03A3.976,3.976,0,0,1,48.5,122.029Zm14.491-3.034L59.5,114.041h-.991v4.954h-1.78V106.61h3.808a5.616,5.616,0,0,1,2.245.372A2.353,2.353,0,0,1,64,108.158a5.152,5.152,0,0,1,.379,2.167,6.028,6.028,0,0,1-.279,2.028,2.191,2.191,0,0,1-.9,1.146,3.881,3.881,0,0,1-1.657.5l3.5,5Zm-4.474-10.744V112.4h2.028a4.219,4.219,0,0,0,1.3-.147.952.952,0,0,0,.588-.573,3.93,3.93,0,0,0,.17-1.355,3.56,3.56,0,0,0-.178-1.277,1.079,1.079,0,0,0-.612-.619,3.494,3.494,0,0,0-1.269-.178Zm11.178,9.32a2.552,2.552,0,0,0,1.324-.317,3.931,3.931,0,0,0,1.107-1.122l1.424.944a5.1,5.1,0,0,1-1.633,1.672,4.543,4.543,0,0,1-2.222.464,5.307,5.307,0,0,1-2.454-.464,2.653,2.653,0,0,1-1.254-1.533,12.081,12.081,0,0,1,0-6.007,2.653,2.653,0,0,1,1.254-1.533,5.307,5.307,0,0,1,2.454-.464,4.791,4.791,0,0,1,2.407.5,2.829,2.829,0,0,1,1.231,1.68,11.442,11.442,0,0,1,.372,3.3H67.4a5.763,5.763,0,0,0,.279,1.718,1.628,1.628,0,0,0,.712.89A2.65,2.65,0,0,0,69.69,117.57Zm0-6.719a2.319,2.319,0,0,0-1.641.488,2.653,2.653,0,0,0-.619,1.711h4.443a3.476,3.476,0,0,0-.2-1.324,1.232,1.232,0,0,0-.673-.673A3.425,3.425,0,0,0,69.69,110.851Zm5.62,8.143v-9.568h1.78v.232a5.394,5.394,0,0,1,2.276-.449,4.6,4.6,0,0,1,2.036.364,2.1,2.1,0,0,1,1.03,1.223,7.439,7.439,0,0,1,.31,2.423v5.775h-1.8V113.22a5.374,5.374,0,0,0-.147-1.432,1.226,1.226,0,0,0-.48-.72,1.745,1.745,0,0,0-.952-.217,4.505,4.505,0,0,0-1.478.178,1.021,1.021,0,0,0-.635.627,4.4,4.4,0,0,0-.163,1.393v5.945Zm12.834.217a4.359,4.359,0,0,1-2.268-.5,2.82,2.82,0,0,1-1.192-1.587,11.762,11.762,0,0,1,0-5.806,2.856,2.856,0,0,1,1.192-1.595,4.305,4.305,0,0,1,2.268-.511,5.778,5.778,0,0,1,2.075.372V106.61H92v12.385h-1.78v-.108A6.08,6.08,0,0,1,88.144,119.212Zm0-1.641a3.854,3.854,0,0,0,1.571-.24.733.733,0,0,0,.5-.658v-3.654a2.354,2.354,0,0,0-.488-1.641,2.077,2.077,0,0,0-1.587-.526,2.111,2.111,0,0,0-1.239.31,1.742,1.742,0,0,0-.619,1.03,8.594,8.594,0,0,0-.186,2.036,8.491,8.491,0,0,0,.186,2.028,1.7,1.7,0,0,0,.619,1.014A2.152,2.152,0,0,0,88.144,117.57Zm9.413,0a2.552,2.552,0,0,0,1.324-.317,3.931,3.931,0,0,0,1.107-1.122l1.424.944a5.1,5.1,0,0,1-1.633,1.672,4.543,4.543,0,0,1-2.222.464,5.307,5.307,0,0,1-2.454-.464,2.653,2.653,0,0,1-1.254-1.533,12.081,12.081,0,0,1,0-6.007,2.653,2.653,0,0,1,1.254-1.533,5.307,5.307,0,0,1,2.454-.464,4.791,4.791,0,0,1,2.407.5,2.829,2.829,0,0,1,1.231,1.68,11.442,11.442,0,0,1,.372,3.3h-6.3a5.763,5.763,0,0,0,.279,1.718,1.628,1.628,0,0,0,.712.89A2.65,2.65,0,0,0,97.557,117.57Zm0-6.719a2.319,2.319,0,0,0-1.641.488,2.653,2.653,0,0,0-.619,1.711H99.74a3.476,3.476,0,0,0-.2-1.324,1.232,1.232,0,0,0-.673-.673A3.425,3.425,0,0,0,97.557,110.851Zm6.038,8.143v-9.568h1.78v.79a3.4,3.4,0,0,1,.96-.7,2.74,2.74,0,0,1,1.269-.3,3.964,3.964,0,0,1,1.486.24,2.488,2.488,0,0,1,1.014.774,5.228,5.228,0,0,1,.766,1.478l-1.595.728a5.547,5.547,0,0,0-.4-1.006,1.011,1.011,0,0,0-.472-.449,2.063,2.063,0,0,0-.8-.124,1.859,1.859,0,0,0-1.718.828,4.628,4.628,0,0,0-.511,2.407v4.908Zm12.54-1.424a2.552,2.552,0,0,0,1.324-.317,3.931,3.931,0,0,0,1.107-1.122l1.424.944a5.1,5.1,0,0,1-1.633,1.672,4.543,4.543,0,0,1-2.222.464,5.307,5.307,0,0,1-2.454-.464,2.653,2.653,0,0,1-1.254-1.533,12.081,12.081,0,0,1,0-6.007,2.653,2.653,0,0,1,1.254-1.533,5.307,5.307,0,0,1,2.454-.464,4.791,4.791,0,0,1,2.407.5,2.829,2.829,0,0,1,1.231,1.68,11.442,11.442,0,0,1,.372,3.3h-6.3a5.763,5.763,0,0,0,.279,1.718,1.628,1.628,0,0,0,.712.89A2.65,2.65,0,0,0,116.135,117.57Zm0-6.719a2.319,2.319,0,0,0-1.641.488,2.653,2.653,0,0,0-.619,1.711h4.443a3.476,3.476,0,0,0-.2-1.324,1.232,1.232,0,0,0-.673-.673A3.425,3.425,0,0,0,116.135,110.851Zm6.038,8.143v-9.568h1.78v.79a3.4,3.4,0,0,1,.96-.7,2.74,2.74,0,0,1,1.269-.3,3.964,3.964,0,0,1,1.486.24,2.488,2.488,0,0,1,1.014.774,5.227,5.227,0,0,1,.766,1.478l-1.595.728a5.547,5.547,0,0,0-.4-1.006,1.011,1.011,0,0,0-.472-.449,2.063,2.063,0,0,0-.8-.124,1.859,1.859,0,0,0-1.718.828,4.628,4.628,0,0,0-.511,2.407v4.908Zm26.272-7.23h-8.979v-1.641h8.979Zm0,3.716h-8.979v-1.641h8.979Zm14.382,3.731a4.931,4.931,0,0,1-2.624-.588,3.288,3.288,0,0,1-1.339-1.966,18.66,18.66,0,0,1,0-7.71,3.288,3.288,0,0,1,1.339-1.966,4.931,4.931,0,0,1,2.624-.588,4.984,4.984,0,0,1,1.982.333,2.69,2.69,0,0,1,1.231,1.115,7.93,7.93,0,0,1,.813,2.191l-1.7.418a6,6,0,0,0-.519-1.455,1.783,1.783,0,0,0-.712-.735,2.332,2.332,0,0,0-1.091-.224,2.459,2.459,0,0,0-1.556.433,2.52,2.52,0,0,0-.79,1.455,17.3,17.3,0,0,0,0,5.744,2.561,2.561,0,0,0,.79,1.463,2.429,2.429,0,0,0,1.556.441,2.052,2.052,0,0,0,1.285-.341,2.66,2.66,0,0,0,.743-1.254v-2h-2.678v-1.641h4.474v3.886a6.365,6.365,0,0,1-.836,1.8,2.622,2.622,0,0,1-1.169.913A5.01,5.01,0,0,1,162.827,119.212Zm9.041-1.641a2.552,2.552,0,0,0,1.324-.317,3.931,3.931,0,0,0,1.107-1.122l1.424.944a5.1,5.1,0,0,1-1.633,1.672,4.543,4.543,0,0,1-2.222.464,5.307,5.307,0,0,1-2.454-.464,2.653,2.653,0,0,1-1.254-1.533,12.081,12.081,0,0,1,0-6.007,2.653,2.653,0,0,1,1.254-1.533,5.307,5.307,0,0,1,2.454-.464,4.791,4.791,0,0,1,2.407.5,2.829,2.829,0,0,1,1.231,1.68,11.443,11.443,0,0,1,.372,3.3h-6.3a5.763,5.763,0,0,0,.279,1.718,1.628,1.628,0,0,0,.712.89A2.65,2.65,0,0,0,171.869,117.57Zm0-6.719a2.319,2.319,0,0,0-1.641.488,2.653,2.653,0,0,0-.619,1.711h4.443a3.476,3.476,0,0,0-.2-1.324,1.232,1.232,0,0,0-.673-.673A3.425,3.425,0,0,0,171.869,110.851Zm10.249,8.36a3.658,3.658,0,0,1-1.811-.387,2.27,2.27,0,0,1-1-1.231,6.436,6.436,0,0,1-.317-2.222v-4.49h-1.92v-1.641h1.92V106.61h1.78v2.632h3.2v1.641h-3.2v4.49a5.57,5.57,0,0,0,.124,1.339,1.1,1.1,0,0,0,.41.666,1.444,1.444,0,0,0,.813.194,3.148,3.148,0,0,0,.828-.077.612.612,0,0,0,.372-.279,3.823,3.823,0,0,0,.271-.7l1.672.573a3.55,3.55,0,0,1-.6,1.262,2.07,2.07,0,0,1-.968.658A5.033,5.033,0,0,1,182.117,119.212Zm8.515,0a4.3,4.3,0,0,1-2.508-.642,3.6,3.6,0,0,1-1.316-2.028,17.637,17.637,0,0,1,0-7.493,3.557,3.557,0,0,1,1.316-2.02,4.336,4.336,0,0,1,2.508-.635,4.733,4.733,0,0,1,1.842.31,2.7,2.7,0,0,1,1.2,1.014,6.749,6.749,0,0,1,.813,1.927l-1.687.588a7.177,7.177,0,0,0-.511-1.386,1.418,1.418,0,0,0-.619-.635,2.45,2.45,0,0,0-1.037-.178,2.251,2.251,0,0,0-1.471.433,2.527,2.527,0,0,0-.751,1.455,18.482,18.482,0,0,0,0,5.744,2.569,2.569,0,0,0,.751,1.463,2.224,2.224,0,0,0,1.471.441,2.45,2.45,0,0,0,1.037-.178,1.431,1.431,0,0,0,.619-.619,6.744,6.744,0,0,0,.511-1.355l1.688.573a6.638,6.638,0,0,1-.813,1.9,2.727,2.727,0,0,1-1.192,1.006A4.721,4.721,0,0,1,190.632,119.212Zm9.057,0a4.305,4.305,0,0,1-2.268-.511,2.856,2.856,0,0,1-1.192-1.595,11.7,11.7,0,0,1,0-5.79,2.856,2.856,0,0,1,1.192-1.595,5.307,5.307,0,0,1,4.544,0,2.844,2.844,0,0,1,1.2,1.595,11.7,11.7,0,0,1,0,5.79,2.844,2.844,0,0,1-1.2,1.595A4.348,4.348,0,0,1,199.689,119.212Zm0-1.641a2.191,2.191,0,0,0,1.246-.3,1.688,1.688,0,0,0,.627-1.022,11.248,11.248,0,0,0,0-4.072,1.688,1.688,0,0,0-.627-1.022,2.191,2.191,0,0,0-1.246-.3,2.152,2.152,0,0,0-1.239.3,1.705,1.705,0,0,0-.619,1.022,11.248,11.248,0,0,0,0,4.072,1.705,1.705,0,0,0,.619,1.022A2.152,2.152,0,0,0,199.689,117.57Zm5.016,1.424v-9.568h1.78v-.062q.124-.031.464-.093a3.42,3.42,0,0,1,.6-.062,2.19,2.19,0,0,1,.96.17,1.819,1.819,0,0,1,.65.619,2.022,2.022,0,0,1,1.765-.79,2.283,2.283,0,0,1,1.393.372,2.118,2.118,0,0,1,.712,1.223,10.08,10.08,0,0,1,.217,2.369v5.821h-1.78v-5.821a8.248,8.248,0,0,0-.116-1.7q-.116-.472-.426-.472a.847.847,0,0,0-.828.433,3.76,3.76,0,0,0-.224,1.564v5.991H208.1v-5.728a8.434,8.434,0,0,0-.124-1.757q-.124-.5-.418-.5a.864.864,0,0,0-.836.433,3.646,3.646,0,0,0-.232,1.564v5.991Zm9.815,2.818V109.427h1.8v.093a6.3,6.3,0,0,1,2.059-.31,4.4,4.4,0,0,1,2.276.5,2.809,2.809,0,0,1,1.2,1.587,11.732,11.732,0,0,1,0,5.8,2.845,2.845,0,0,1-1.2,1.6,4.348,4.348,0,0,1-2.276.511,5.654,5.654,0,0,1-2.059-.372v2.972Zm3.855-4.242a2.149,2.149,0,0,0,1.246-.31,1.725,1.725,0,0,0,.627-1.03,8.594,8.594,0,0,0,.186-2.036,8.491,8.491,0,0,0-.186-2.028,1.683,1.683,0,0,0-.627-1.014,2.191,2.191,0,0,0-1.246-.3q-2.059,0-2.059.9V115.4a2.38,2.38,0,0,0,.48,1.641A2.05,2.05,0,0,0,218.375,117.57Zm9.181,1.641a4.305,4.305,0,0,1-2.268-.511,2.856,2.856,0,0,1-1.192-1.595,11.7,11.7,0,0,1,0-5.79,2.856,2.856,0,0,1,1.192-1.595,5.307,5.307,0,0,1,4.544,0,2.844,2.844,0,0,1,1.2,1.595,11.7,11.7,0,0,1,0,5.79,2.844,2.844,0,0,1-1.2,1.595A4.348,4.348,0,0,1,227.556,119.212Zm0-1.641a2.191,2.191,0,0,0,1.246-.3,1.688,1.688,0,0,0,.627-1.022,11.248,11.248,0,0,0,0-4.072,1.688,1.688,0,0,0-.627-1.022,2.191,2.191,0,0,0-1.246-.3,2.152,2.152,0,0,0-1.239.3,1.705,1.705,0,0,0-.619,1.022,11.248,11.248,0,0,0,0,4.072,1.705,1.705,0,0,0,.619,1.022A2.152,2.152,0,0,0,227.556,117.57Zm5.666,1.424v-9.568H235v.232a5.394,5.394,0,0,1,2.276-.449,4.6,4.6,0,0,1,2.036.364,2.1,2.1,0,0,1,1.03,1.223,7.439,7.439,0,0,1,.31,2.423v5.775h-1.8V113.22a5.374,5.374,0,0,0-.147-1.432,1.226,1.226,0,0,0-.48-.72,1.745,1.745,0,0,0-.952-.217,4.505,4.505,0,0,0-1.478.178,1.021,1.021,0,0,0-.635.627A4.4,4.4,0,0,0,235,113.05v5.945Zm12.958-1.424a2.552,2.552,0,0,0,1.324-.317,3.931,3.931,0,0,0,1.107-1.122l1.424.944a5.1,5.1,0,0,1-1.633,1.672,4.543,4.543,0,0,1-2.222.464,5.307,5.307,0,0,1-2.454-.464,2.653,2.653,0,0,1-1.254-1.533,12.081,12.081,0,0,1,0-6.007,2.653,2.653,0,0,1,1.254-1.533,5.307,5.307,0,0,1,2.454-.464,4.791,4.791,0,0,1,2.407.5,2.829,2.829,0,0,1,1.231,1.68,11.442,11.442,0,0,1,.372,3.3h-6.3a5.764,5.764,0,0,0,.279,1.718,1.628,1.628,0,0,0,.712.89A2.65,2.65,0,0,0,246.18,117.57Zm0-6.719a2.319,2.319,0,0,0-1.641.488,2.653,2.653,0,0,0-.619,1.711h4.443a3.476,3.476,0,0,0-.2-1.324,1.232,1.232,0,0,0-.673-.673A3.425,3.425,0,0,0,246.18,110.851Zm5.62,8.143v-9.568h1.78v.232a5.394,5.394,0,0,1,2.276-.449,4.6,4.6,0,0,1,2.036.364,2.1,2.1,0,0,1,1.03,1.223,7.439,7.439,0,0,1,.31,2.423v5.775h-1.8V113.22a5.374,5.374,0,0,0-.147-1.432,1.226,1.226,0,0,0-.48-.72,1.745,1.745,0,0,0-.952-.217,4.505,4.505,0,0,0-1.478.178,1.021,1.021,0,0,0-.635.627,4.4,4.4,0,0,0-.163,1.393v5.945Zm13.918.217a3.658,3.658,0,0,1-1.811-.387,2.27,2.27,0,0,1-1-1.231,6.436,6.436,0,0,1-.317-2.222v-4.49h-1.92v-1.641h1.92V106.61h1.78v2.632h3.2v1.641h-3.2v4.49a5.571,5.571,0,0,0,.124,1.339,1.1,1.1,0,0,0,.41.666,1.444,1.444,0,0,0,.813.194,3.148,3.148,0,0,0,.828-.077.612.612,0,0,0,.372-.279,3.824,3.824,0,0,0,.271-.7l1.672.573a3.55,3.55,0,0,1-.6,1.262,2.07,2.07,0,0,1-.968.658A5.033,5.033,0,0,1,265.718,119.212Zm12.323-1.533-1.208,1.208-6.92-6.084,6.92-6.084,1.208,1.208L272.5,112.8Zm7.88,1.316-3.483-4.954h-.991v4.954h-1.78V106.61h3.808a5.616,5.616,0,0,1,2.245.372,2.353,2.353,0,0,1,1.215,1.177,5.152,5.152,0,0,1,.379,2.167,6.028,6.028,0,0,1-.279,2.028,2.191,2.191,0,0,1-.9,1.146,3.881,3.881,0,0,1-1.657.5l3.5,5Zm-4.474-10.744V112.4h2.028a4.219,4.219,0,0,0,1.3-.147.951.951,0,0,0,.588-.573,3.93,3.93,0,0,0,.17-1.355,3.56,3.56,0,0,0-.178-1.277,1.079,1.079,0,0,0-.612-.619,3.493,3.493,0,0,0-1.269-.178Zm11.178,9.32a2.552,2.552,0,0,0,1.324-.317,3.931,3.931,0,0,0,1.107-1.122l1.424.944a5.1,5.1,0,0,1-1.633,1.672,4.543,4.543,0,0,1-2.222.464,5.307,5.307,0,0,1-2.454-.464,2.653,2.653,0,0,1-1.254-1.533,12.081,12.081,0,0,1,0-6.007,2.653,2.653,0,0,1,1.254-1.533,5.307,5.307,0,0,1,2.454-.464,4.791,4.791,0,0,1,2.407.5,2.829,2.829,0,0,1,1.231,1.68,11.445,11.445,0,0,1,.372,3.3h-6.3a5.762,5.762,0,0,0,.279,1.718,1.629,1.629,0,0,0,.712.89A2.65,2.65,0,0,0,292.625,117.57Zm0-6.719a2.319,2.319,0,0,0-1.641.488,2.653,2.653,0,0,0-.619,1.711h4.443a3.476,3.476,0,0,0-.2-1.324,1.232,1.232,0,0,0-.673-.673A3.425,3.425,0,0,0,292.625,110.851Zm5.62,8.143v-9.568h1.78v.232a5.394,5.394,0,0,1,2.276-.449,4.6,4.6,0,0,1,2.036.364,2.1,2.1,0,0,1,1.03,1.223,7.439,7.439,0,0,1,.31,2.423v5.775h-1.8V113.22a5.373,5.373,0,0,0-.147-1.432,1.227,1.227,0,0,0-.48-.72,1.745,1.745,0,0,0-.952-.217,4.505,4.505,0,0,0-1.479.178,1.021,1.021,0,0,0-.635.627,4.4,4.4,0,0,0-.163,1.393v5.945Zm12.834.217a4.359,4.359,0,0,1-2.268-.5,2.82,2.82,0,0,1-1.192-1.587,11.762,11.762,0,0,1,0-5.806,2.856,2.856,0,0,1,1.192-1.595,4.305,4.305,0,0,1,2.268-.511,5.777,5.777,0,0,1,2.074.372V106.61h1.78v12.385h-1.78v-.108A6.079,6.079,0,0,1,311.079,119.212Zm0-1.641a3.854,3.854,0,0,0,1.571-.24.733.733,0,0,0,.5-.658v-3.654a2.354,2.354,0,0,0-.488-1.641,2.077,2.077,0,0,0-1.587-.526,2.111,2.111,0,0,0-1.239.31,1.742,1.742,0,0,0-.619,1.03,8.593,8.593,0,0,0-.186,2.036,8.491,8.491,0,0,0,.186,2.028,1.7,1.7,0,0,0,.619,1.014A2.152,2.152,0,0,0,311.079,117.57Zm9.413,0a2.552,2.552,0,0,0,1.324-.317,3.931,3.931,0,0,0,1.107-1.122l1.424.944a5.1,5.1,0,0,1-1.633,1.672,4.543,4.543,0,0,1-2.222.464,5.307,5.307,0,0,1-2.454-.464,2.653,2.653,0,0,1-1.254-1.533,12.08,12.08,0,0,1,0-6.007,2.653,2.653,0,0,1,1.254-1.533,5.307,5.307,0,0,1,2.454-.464,4.791,4.791,0,0,1,2.407.5,2.829,2.829,0,0,1,1.231,1.68,11.443,11.443,0,0,1,.372,3.3h-6.3a5.763,5.763,0,0,0,.279,1.718,1.628,1.628,0,0,0,.712.89A2.65,2.65,0,0,0,320.492,117.57Zm0-6.719a2.319,2.319,0,0,0-1.641.488,2.653,2.653,0,0,0-.619,1.711h4.443a3.476,3.476,0,0,0-.2-1.324,1.232,1.232,0,0,0-.673-.673A3.425,3.425,0,0,0,320.492,110.851Zm6.038,8.143v-9.568h1.78v.79a3.4,3.4,0,0,1,.96-.7,2.74,2.74,0,0,1,1.27-.3,3.964,3.964,0,0,1,1.486.24,2.488,2.488,0,0,1,1.014.774,5.229,5.229,0,0,1,.766,1.478l-1.595.728a5.55,5.55,0,0,0-.4-1.006,1.011,1.011,0,0,0-.472-.449,2.062,2.062,0,0,0-.8-.124,1.859,1.859,0,0,0-1.718.828,4.628,4.628,0,0,0-.511,2.407v4.908Zm12.54-1.424a2.552,2.552,0,0,0,1.324-.317,3.931,3.931,0,0,0,1.107-1.122l1.424.944a5.1,5.1,0,0,1-1.633,1.672,4.543,4.543,0,0,1-2.222.464,5.307,5.307,0,0,1-2.454-.464,2.653,2.653,0,0,1-1.254-1.533,12.08,12.08,0,0,1,0-6.007,2.653,2.653,0,0,1,1.254-1.533,5.307,5.307,0,0,1,2.454-.464,4.791,4.791,0,0,1,2.407.5,2.829,2.829,0,0,1,1.231,1.68,11.441,11.441,0,0,1,.372,3.3h-6.3a5.762,5.762,0,0,0,.279,1.718,1.629,1.629,0,0,0,.712.89A2.65,2.65,0,0,0,339.07,117.57Zm0-6.719a2.319,2.319,0,0,0-1.641.488,2.653,2.653,0,0,0-.619,1.711h4.443a3.476,3.476,0,0,0-.2-1.324,1.232,1.232,0,0,0-.673-.673A3.425,3.425,0,0,0,339.07,110.851Zm6.038,8.143v-9.568h1.78v.79a3.4,3.4,0,0,1,.96-.7,2.74,2.74,0,0,1,1.269-.3,3.964,3.964,0,0,1,1.486.24,2.488,2.488,0,0,1,1.014.774,5.228,5.228,0,0,1,.766,1.478l-1.595.728a5.546,5.546,0,0,0-.4-1.006,1.011,1.011,0,0,0-.472-.449,2.063,2.063,0,0,0-.8-.124,1.859,1.859,0,0,0-1.718.828,4.628,4.628,0,0,0-.511,2.407v4.908Zm16.581-6.193-6.92,6.084-1.192-1.208L359.1,112.8l-5.527-4.877,1.192-1.208Zm7.88,8.437a4.019,4.019,0,0,1-2.74-1.053,6.755,6.755,0,0,1-1.842-2.965,15.348,15.348,0,0,1,0-8.84,6.755,6.755,0,0,1,1.842-2.965,4.019,4.019,0,0,1,2.74-1.053v1.641a2.4,2.4,0,0,0-1.8.844,5.75,5.75,0,0,0-1.215,2.384,14.9,14.9,0,0,0,0,7.137,5.75,5.75,0,0,0,1.215,2.384,2.4,2.4,0,0,0,1.8.844Zm3.948-1.641a2.4,2.4,0,0,0,1.8-.844,5.75,5.75,0,0,0,1.215-2.384,14.9,14.9,0,0,0,0-7.137,5.75,5.75,0,0,0-1.215-2.384,2.4,2.4,0,0,0-1.8-.844v-1.641a4.019,4.019,0,0,1,2.74,1.053,6.755,6.755,0,0,1,1.842,2.965,15.348,15.348,0,0,1,0,8.84,6.755,6.755,0,0,1-1.842,2.965,4.019,4.019,0,0,1-2.74,1.053Zm10.171,2.431a13.215,13.215,0,0,0,1.091-1.687,2.517,2.517,0,0,0,.3-1.115.971.971,0,0,1-.805-.279,1.778,1.778,0,0,1-.217-1.037,1.394,1.394,0,0,1,.3-1.03,2.282,2.282,0,0,1,2.214,0,1.394,1.394,0,0,1,.3,1.03,4.976,4.976,0,0,1-.395,2.036,8.829,8.829,0,0,1-1.432,2.082Zm1.78-10.233a1.621,1.621,0,0,1-1.107-.286,1.368,1.368,0,0,1-.3-1.014,1.394,1.394,0,0,1,.3-1.03,2.282,2.282,0,0,1,2.214,0,1.394,1.394,0,0,1,.3,1.03,1.368,1.368,0,0,1-.3,1.014A1.621,1.621,0,0,1,385.468,111.8ZM1.37,145.128a5.778,5.778,0,0,0,1.548-.163,1.388,1.388,0,0,0,.805-.534,1.857,1.857,0,0,0,.248-1.037,6.165,6.165,0,0,0-.155-1.3,4.828,4.828,0,0,1-.124-.944,2.706,2.706,0,0,1,.4-1.424,5.367,5.367,0,0,1,1.316-1.378,5.393,5.393,0,0,1-1.308-1.4,2.813,2.813,0,0,1-.41-1.463,4.05,4.05,0,0,1,.139-.96,5.179,5.179,0,0,0,.155-1.192,1.931,1.931,0,0,0-.248-1.061,1.376,1.376,0,0,0-.813-.542,5.869,5.869,0,0,0-1.556-.163v-1.657a5.5,5.5,0,0,1,3.336.805,3.021,3.021,0,0,1,1.045,2.554,7.647,7.647,0,0,1-.155,1.424,6.3,6.3,0,0,0-.124.944,1.771,1.771,0,0,0,.542.944q.542.619,1.749,1.765-1.192,1.115-1.742,1.734a1.787,1.787,0,0,0-.55.913,8.144,8.144,0,0,0,.124,1.053,8.332,8.332,0,0,1,.155,1.393,3,3,0,0,1-1.045,2.547,5.539,5.539,0,0,1-3.336.8Zm4.041,50.5H3.8L.364,186.061H2.206l2.4,6.92,2.446-6.92H8.879Zm8.5.217a4.305,4.305,0,0,1-2.268-.511,2.856,2.856,0,0,1-1.192-1.595,11.7,11.7,0,0,1,0-5.79,2.856,2.856,0,0,1,1.192-1.595,4.305,4.305,0,0,1,2.268-.511,4.348,4.348,0,0,1,2.276.511,2.844,2.844,0,0,1,1.2,1.595,11.7,11.7,0,0,1,0,5.79,2.844,2.844,0,0,1-1.2,1.595A4.348,4.348,0,0,1,13.91,195.845Zm0-1.641a2.191,2.191,0,0,0,1.246-.3,1.688,1.688,0,0,0,.627-1.022,11.247,11.247,0,0,0,0-4.072,1.688,1.688,0,0,0-.627-1.022,2.191,2.191,0,0,0-1.246-.3,2.152,2.152,0,0,0-1.239.3,1.7,1.7,0,0,0-.619,1.022,11.248,11.248,0,0,0,0,4.072,1.7,1.7,0,0,0,.619,1.022A2.152,2.152,0,0,0,13.91,194.2ZM24.5,186.061v7.927h2.709v1.641h-7.2v-1.641h2.709V187.7H20.768v-1.641Zm-1.223-1.393a1.561,1.561,0,0,1-1.06-.271,1.884,1.884,0,0,1,0-2,1.561,1.561,0,0,1,1.06-.271,1.594,1.594,0,0,1,1.068.271,1.842,1.842,0,0,1,0,2A1.594,1.594,0,0,1,23.276,184.668Zm9.134,11.178a4.359,4.359,0,0,1-2.268-.5,2.82,2.82,0,0,1-1.192-1.587,11.762,11.762,0,0,1,0-5.806,2.856,2.856,0,0,1,1.192-1.595,4.305,4.305,0,0,1,2.268-.511,5.778,5.778,0,0,1,2.075.372v-2.972h1.78v12.385h-1.78v-.108A6.079,6.079,0,0,1,32.411,195.845Zm0-1.641a3.854,3.854,0,0,0,1.571-.24.734.734,0,0,0,.5-.658v-3.654A2.354,2.354,0,0,0,34,188.012a2.077,2.077,0,0,0-1.587-.526,2.111,2.111,0,0,0-1.239.31,1.742,1.742,0,0,0-.619,1.03,8.594,8.594,0,0,0-.186,2.036,8.492,8.492,0,0,0,.186,2.028,1.7,1.7,0,0,0,.619,1.014A2.152,2.152,0,0,0,32.411,194.2Zm18.655,1.641a4.292,4.292,0,0,1-2.237-.5,2.809,2.809,0,0,1-1.177-1.587,9.559,9.559,0,0,1-.364-2.934v-7.586h1.78v7.586a9.136,9.136,0,0,0,.178,2.067,1.655,1.655,0,0,0,.6,1.014,2.125,2.125,0,0,0,1.215.294,2.164,2.164,0,0,0,1.223-.294A1.639,1.639,0,0,0,52.9,192.9a9.136,9.136,0,0,0,.178-2.067v-7.586h1.78v7.586a9.559,9.559,0,0,1-.364,2.934,2.8,2.8,0,0,1-1.184,1.587A4.335,4.335,0,0,1,51.066,195.845Zm5.542,2.6V186.061h1.8v.093a6.3,6.3,0,0,1,2.059-.31,4.4,4.4,0,0,1,2.276.5,2.808,2.808,0,0,1,1.2,1.587,11.731,11.731,0,0,1,0,5.8,2.845,2.845,0,0,1-1.2,1.6,4.348,4.348,0,0,1-2.276.511,5.654,5.654,0,0,1-2.059-.372v2.972Zm3.855-4.242a2.149,2.149,0,0,0,1.246-.31,1.725,1.725,0,0,0,.627-1.03,8.593,8.593,0,0,0,.186-2.036,8.491,8.491,0,0,0-.186-2.028,1.683,1.683,0,0,0-.627-1.014,2.191,2.191,0,0,0-1.246-.3q-2.059,0-2.059.9v3.654a2.379,2.379,0,0,0,.48,1.641A2.05,2.05,0,0,0,60.463,194.2Zm9.1,1.641a4.359,4.359,0,0,1-2.268-.5,2.82,2.82,0,0,1-1.192-1.587,11.762,11.762,0,0,1,0-5.806,2.856,2.856,0,0,1,1.192-1.595,4.305,4.305,0,0,1,2.268-.511,5.778,5.778,0,0,1,2.075.372v-2.972h1.78v12.385h-1.78v-.108A6.079,6.079,0,0,1,69.566,195.845Zm0-1.641a3.855,3.855,0,0,0,1.571-.24.734.734,0,0,0,.5-.658v-3.654a2.354,2.354,0,0,0-.488-1.641,2.077,2.077,0,0,0-1.587-.526,2.111,2.111,0,0,0-1.239.31,1.742,1.742,0,0,0-.619,1.03,8.594,8.594,0,0,0-.186,2.036,8.492,8.492,0,0,0,.186,2.028,1.7,1.7,0,0,0,.619,1.014A2.152,2.152,0,0,0,69.566,194.2Zm9.119,1.641a6.309,6.309,0,0,1-2.191-.31,2.16,2.16,0,0,1-1.177-.968,3.633,3.633,0,0,1-.364-1.757,4.086,4.086,0,0,1,.364-1.912,1.984,1.984,0,0,1,1.161-.944,7.117,7.117,0,0,1,2.206-.271h1.951v-.341a2.49,2.49,0,0,0-.163-1.006.947.947,0,0,0-.581-.5,3.82,3.82,0,0,0-1.208-.147,2.879,2.879,0,0,0-.991.132,1,1,0,0,0-.526.472,4.528,4.528,0,0,0-.356,1.037l-1.7-.418a6.217,6.217,0,0,1,.7-1.765,2.534,2.534,0,0,1,1.115-.983,4.268,4.268,0,0,1,1.765-.317,3.964,3.964,0,0,1,2.872.859,3.6,3.6,0,0,1,.859,2.64v3.623a1.832,1.832,0,0,0,.124.836.575.575,0,0,0,.526.2q.124,0,.557-.031v1.641q-.186.015-.511.015a2.31,2.31,0,0,1-1.858-.619,2.344,2.344,0,0,1-1.037.642A5.2,5.2,0,0,1,78.685,195.845Zm0-1.641a3.08,3.08,0,0,0,1.208-.186,1.056,1.056,0,0,0,.581-.635,4.008,4.008,0,0,0,.163-1.3v-.759H78.685a6.357,6.357,0,0,0-1.254.085.741.741,0,0,0-.526.387,2.391,2.391,0,0,0-.155,1.014,1.863,1.863,0,0,0,.155.859.9.9,0,0,0,.565.41A4.482,4.482,0,0,0,78.685,194.2Zm10.543,1.641a3.658,3.658,0,0,1-1.811-.387,2.27,2.27,0,0,1-1-1.231,6.436,6.436,0,0,1-.317-2.222v-4.49h-1.92v-1.641H86.1v-2.632h1.78v2.632h3.2v1.641h-3.2v4.49A5.57,5.57,0,0,0,88,193.345a1.1,1.1,0,0,0,.41.666,1.444,1.444,0,0,0,.813.194,3.149,3.149,0,0,0,.828-.077.612.612,0,0,0,.372-.279,3.822,3.822,0,0,0,.271-.7l1.672.573a3.55,3.55,0,0,1-.6,1.262,2.07,2.07,0,0,1-.968.658A5.033,5.033,0,0,1,89.228,195.845Zm8.329-1.641a2.552,2.552,0,0,0,1.324-.317,3.931,3.931,0,0,0,1.107-1.122l1.424.944a5.1,5.1,0,0,1-1.633,1.672,4.543,4.543,0,0,1-2.222.464,5.307,5.307,0,0,1-2.454-.464,2.653,2.653,0,0,1-1.254-1.533,12.081,12.081,0,0,1,0-6.007,2.653,2.653,0,0,1,1.254-1.533,5.307,5.307,0,0,1,2.454-.464,4.791,4.791,0,0,1,2.407.5,2.829,2.829,0,0,1,1.231,1.68,11.442,11.442,0,0,1,.372,3.3h-6.3a5.763,5.763,0,0,0,.279,1.718,1.628,1.628,0,0,0,.712.89A2.65,2.65,0,0,0,97.557,194.2Zm0-6.719a2.319,2.319,0,0,0-1.641.488,2.653,2.653,0,0,0-.619,1.711H99.74a3.476,3.476,0,0,0-.2-1.324,1.232,1.232,0,0,0-.673-.673A3.425,3.425,0,0,0,97.557,187.485Zm11.921,10.388a4.019,4.019,0,0,1-2.74-1.053,6.755,6.755,0,0,1-1.842-2.965,15.348,15.348,0,0,1,0-8.84,6.755,6.755,0,0,1,1.842-2.965,4.019,4.019,0,0,1,2.74-1.053v1.641a2.4,2.4,0,0,0-1.8.844,5.75,5.75,0,0,0-1.215,2.384,14.9,14.9,0,0,0,0,7.137,5.75,5.75,0,0,0,1.215,2.384,2.4,2.4,0,0,0,1.8.844Zm3.948-1.641a2.4,2.4,0,0,0,1.8-.844A5.75,5.75,0,0,0,116.445,193a14.905,14.905,0,0,0,0-7.137,5.75,5.75,0,0,0-1.215-2.384,2.4,2.4,0,0,0-1.8-.844V181a4.019,4.019,0,0,1,2.74,1.053,6.755,6.755,0,0,1,1.842,2.965,15.348,15.348,0,0,1,0,8.84,6.755,6.755,0,0,1-1.842,2.965,4.019,4.019,0,0,1-2.74,1.053ZM7.872,223.418a5.5,5.5,0,0,1-3.329-.8,3.009,3.009,0,0,1-1.037-2.547,8.332,8.332,0,0,1,.155-1.393,8.144,8.144,0,0,0,.124-1.053,1.73,1.73,0,0,0-.542-.9q-.542-.6-1.765-1.749Q2.7,213.8,3.243,213.2a1.71,1.71,0,0,0,.542-.929,6.3,6.3,0,0,0-.124-.944,7.647,7.647,0,0,1-.155-1.424,3.032,3.032,0,0,1,1.037-2.554,5.461,5.461,0,0,1,3.329-.805V208.2a5.778,5.778,0,0,0-1.548.163,1.373,1.373,0,0,0-.805.542,1.93,1.93,0,0,0-.248,1.06,5.18,5.18,0,0,0,.155,1.192,4.05,4.05,0,0,1,.139.96,2.748,2.748,0,0,1-.418,1.448,5.739,5.739,0,0,1-1.316,1.417,5.507,5.507,0,0,1,1.324,1.378,2.668,2.668,0,0,1,.41,1.424,4.828,4.828,0,0,1-.124.944,6.165,6.165,0,0,0-.155,1.3,1.9,1.9,0,0,0,.24,1.037,1.351,1.351,0,0,0,.8.534,5.778,5.778,0,0,0,1.548.163Zm33.9,23.517a4.292,4.292,0,0,1-2.237-.5,2.809,2.809,0,0,1-1.177-1.587A9.559,9.559,0,0,1,38,241.919v-7.586h1.78v7.586a9.136,9.136,0,0,0,.178,2.067,1.656,1.656,0,0,0,.6,1.014,2.125,2.125,0,0,0,1.215.294A2.164,2.164,0,0,0,43,245a1.639,1.639,0,0,0,.612-1.014,9.136,9.136,0,0,0,.178-2.067v-7.586h1.78v7.586a9.559,9.559,0,0,1-.364,2.934,2.8,2.8,0,0,1-1.184,1.587A4.335,4.335,0,0,1,41.777,246.935Zm5.542,2.6V237.15h1.8v.093a6.3,6.3,0,0,1,2.059-.31,4.4,4.4,0,0,1,2.276.5,2.808,2.808,0,0,1,1.2,1.587,11.731,11.731,0,0,1,0,5.8,2.845,2.845,0,0,1-1.2,1.6,4.348,4.348,0,0,1-2.276.511,5.654,5.654,0,0,1-2.059-.372v2.972Zm3.855-4.242a2.149,2.149,0,0,0,1.246-.31,1.725,1.725,0,0,0,.627-1.03,8.594,8.594,0,0,0,.186-2.036,8.491,8.491,0,0,0-.186-2.028,1.683,1.683,0,0,0-.627-1.014,2.191,2.191,0,0,0-1.246-.3q-2.059,0-2.059.9v3.654a2.38,2.38,0,0,0,.48,1.641A2.05,2.05,0,0,0,51.174,245.294Zm9.1,1.641a4.359,4.359,0,0,1-2.268-.5,2.82,2.82,0,0,1-1.192-1.587,11.762,11.762,0,0,1,0-5.806,2.856,2.856,0,0,1,1.192-1.595,4.305,4.305,0,0,1,2.268-.511,5.778,5.778,0,0,1,2.075.372v-2.972h1.78v12.385h-1.78v-.108A6.079,6.079,0,0,1,60.277,246.935Zm0-1.641a3.854,3.854,0,0,0,1.571-.24.734.734,0,0,0,.5-.658v-3.654a2.354,2.354,0,0,0-.488-1.641,2.077,2.077,0,0,0-1.587-.526,2.111,2.111,0,0,0-1.239.31,1.742,1.742,0,0,0-.619,1.03,8.594,8.594,0,0,0-.186,2.036,8.492,8.492,0,0,0,.186,2.028,1.7,1.7,0,0,0,.619,1.014A2.152,2.152,0,0,0,60.277,245.294Zm9.119,1.641a6.309,6.309,0,0,1-2.191-.31,2.16,2.16,0,0,1-1.177-.968,3.633,3.633,0,0,1-.364-1.757,4.086,4.086,0,0,1,.364-1.912,1.984,1.984,0,0,1,1.161-.944,7.117,7.117,0,0,1,2.206-.271h1.951v-.341a2.49,2.49,0,0,0-.163-1.006.947.947,0,0,0-.581-.5,3.82,3.82,0,0,0-1.208-.147,2.879,2.879,0,0,0-.991.132,1,1,0,0,0-.526.472,4.528,4.528,0,0,0-.356,1.037L65.82,240a6.217,6.217,0,0,1,.7-1.765,2.534,2.534,0,0,1,1.115-.983,4.268,4.268,0,0,1,1.765-.317,3.964,3.964,0,0,1,2.872.859,3.6,3.6,0,0,1,.859,2.64v3.623a1.832,1.832,0,0,0,.124.836.575.575,0,0,0,.526.2q.124,0,.557-.031V246.7q-.186.015-.511.015a2.31,2.31,0,0,1-1.858-.619,2.344,2.344,0,0,1-1.037.642A5.2,5.2,0,0,1,69.4,246.935Zm0-1.641a3.08,3.08,0,0,0,1.208-.186,1.056,1.056,0,0,0,.581-.635,4.008,4.008,0,0,0,.163-1.3v-.759H69.4a6.357,6.357,0,0,0-1.254.085.741.741,0,0,0-.526.387,2.391,2.391,0,0,0-.155,1.014,1.863,1.863,0,0,0,.155.859.9.9,0,0,0,.565.41A4.482,4.482,0,0,0,69.4,245.294Zm10.543,1.641a3.658,3.658,0,0,1-1.811-.387,2.27,2.27,0,0,1-1-1.231,6.436,6.436,0,0,1-.317-2.222v-4.49h-1.92v-1.641h1.92v-2.632h1.78v2.632h3.2v1.641h-3.2v4.49a5.57,5.57,0,0,0,.124,1.339,1.1,1.1,0,0,0,.41.666,1.444,1.444,0,0,0,.813.194,3.149,3.149,0,0,0,.828-.077.612.612,0,0,0,.372-.279,3.822,3.822,0,0,0,.271-.7l1.672.573a3.55,3.55,0,0,1-.6,1.262,2.07,2.07,0,0,1-.968.658A5.033,5.033,0,0,1,79.939,246.935Zm8.329-1.641a2.552,2.552,0,0,0,1.324-.317,3.931,3.931,0,0,0,1.107-1.122l1.424.944a5.1,5.1,0,0,1-1.633,1.672,4.543,4.543,0,0,1-2.222.464,5.307,5.307,0,0,1-2.454-.464,2.653,2.653,0,0,1-1.254-1.533,12.081,12.081,0,0,1,0-6.007,2.653,2.653,0,0,1,1.254-1.533,5.307,5.307,0,0,1,2.454-.464,4.791,4.791,0,0,1,2.407.5,2.829,2.829,0,0,1,1.231,1.68,11.442,11.442,0,0,1,.372,3.3h-6.3a5.763,5.763,0,0,0,.279,1.718,1.628,1.628,0,0,0,.712.89A2.65,2.65,0,0,0,88.268,245.294Zm0-6.719a2.319,2.319,0,0,0-1.641.488,2.653,2.653,0,0,0-.619,1.711h4.443a3.476,3.476,0,0,0-.2-1.324,1.232,1.232,0,0,0-.673-.673A3.425,3.425,0,0,0,88.268,238.575Zm13.9-4.242v1.641H98.409v10.744h-1.78V235.974H92.851v-1.641Zm1.424,12.385V237.15h1.78v.79a3.4,3.4,0,0,1,.96-.7,2.74,2.74,0,0,1,1.269-.3,3.964,3.964,0,0,1,1.486.24,2.488,2.488,0,0,1,1.014.774,5.229,5.229,0,0,1,.766,1.479l-1.595.728a5.548,5.548,0,0,0-.4-1.006,1.011,1.011,0,0,0-.472-.449,2.063,2.063,0,0,0-.8-.124,1.859,1.859,0,0,0-1.718.828,4.628,4.628,0,0,0-.511,2.407v4.908Zm12.246.217a6.309,6.309,0,0,1-2.191-.31,2.16,2.16,0,0,1-1.177-.968,3.633,3.633,0,0,1-.364-1.757,4.086,4.086,0,0,1,.364-1.912,1.984,1.984,0,0,1,1.161-.944,7.117,7.117,0,0,1,2.206-.271h1.951v-.341a2.49,2.49,0,0,0-.163-1.006.947.947,0,0,0-.581-.5,3.82,3.82,0,0,0-1.208-.147,2.879,2.879,0,0,0-.991.132,1,1,0,0,0-.526.472,4.528,4.528,0,0,0-.356,1.037l-1.7-.418a6.217,6.217,0,0,1,.7-1.765,2.534,2.534,0,0,1,1.115-.983,4.268,4.268,0,0,1,1.765-.317,3.964,3.964,0,0,1,2.872.859,3.6,3.6,0,0,1,.859,2.64v3.623a1.832,1.832,0,0,0,.124.836.575.575,0,0,0,.526.2q.124,0,.557-.031V246.7q-.186.015-.511.015a2.31,2.31,0,0,1-1.858-.619,2.344,2.344,0,0,1-1.037.642A5.2,5.2,0,0,1,115.841,246.935Zm0-1.641a3.08,3.08,0,0,0,1.208-.186,1.056,1.056,0,0,0,.581-.635,4.008,4.008,0,0,0,.163-1.3v-.759h-1.951a6.357,6.357,0,0,0-1.254.085.741.741,0,0,0-.526.387,2.391,2.391,0,0,0-.155,1.014,1.863,1.863,0,0,0,.155.859.9.9,0,0,0,.565.41A4.482,4.482,0,0,0,115.841,245.294Zm5.914,1.424V237.15h1.78v.232a5.394,5.394,0,0,1,2.276-.449,4.6,4.6,0,0,1,2.036.364,2.1,2.1,0,0,1,1.03,1.223,7.439,7.439,0,0,1,.31,2.423v5.775h-1.8v-5.775a5.374,5.374,0,0,0-.147-1.432,1.226,1.226,0,0,0-.48-.72,1.745,1.745,0,0,0-.952-.217,4.505,4.505,0,0,0-1.478.178,1.021,1.021,0,0,0-.635.627,4.4,4.4,0,0,0-.163,1.393v5.945Zm12.525.217a3.849,3.849,0,0,1-2.036-.464,4.021,4.021,0,0,1-1.355-1.641l1.409-1.161a6.54,6.54,0,0,0,.534,1.037,1.223,1.223,0,0,0,.55.457,2.462,2.462,0,0,0,.9.132,7.777,7.777,0,0,0,1.61-.124,1.194,1.194,0,0,0,.743-.41,1.433,1.433,0,0,0,.2-.828,1.478,1.478,0,0,0-.163-.79,1,1,0,0,0-.581-.372,9.927,9.927,0,0,0-1.409-.248,6.1,6.1,0,0,1-2.709-.828,2.151,2.151,0,0,1-.836-1.881,3.14,3.14,0,0,1,.387-1.664,2.25,2.25,0,0,1,1.239-.921,7.222,7.222,0,0,1,2.291-.294,4.586,4.586,0,0,1,2.121.4,3.739,3.739,0,0,1,1.378,1.424l-1.3,1.27a5.7,5.7,0,0,0-.588-.929,1.306,1.306,0,0,0-.6-.41,3.4,3.4,0,0,0-1.006-.116,6.206,6.206,0,0,0-1.339.108.975.975,0,0,0-.627.372,1.4,1.4,0,0,0-.17.759.757.757,0,0,0,.186.557,1.178,1.178,0,0,0,.557.279q.372.093,1.146.2a10.935,10.935,0,0,1,2.284.534,2.293,2.293,0,0,1,1.177.913,3.127,3.127,0,0,1,.364,1.633,3.165,3.165,0,0,1-.426,1.742,2.441,2.441,0,0,1-1.378.96A8.686,8.686,0,0,1,134.279,246.935Zm10.945-12.819a5.762,5.762,0,0,1,1.68.2,2.109,2.109,0,0,1,1.022.658,3.3,3.3,0,0,1,.6,1.262l-1.672.573a2.453,2.453,0,0,0-.255-.681.724.724,0,0,0-.426-.286,3.736,3.736,0,0,0-.944-.085,2.521,2.521,0,0,0-1.037.163.929.929,0,0,0-.48.573,4.145,4.145,0,0,0-.139,1.246v.9h2.756v1.641h-2.756v6.44h-1.78v-6.44h-1.92v-1.641h1.92v-.9a5.554,5.554,0,0,1,.333-2.129,2.145,2.145,0,0,1,1.084-1.138A4.774,4.774,0,0,1,145.225,234.116Zm8.019,12.819a4.305,4.305,0,0,1-2.268-.511,2.856,2.856,0,0,1-1.192-1.595,11.7,11.7,0,0,1,0-5.79,2.856,2.856,0,0,1,1.192-1.595,5.307,5.307,0,0,1,4.544,0,2.844,2.844,0,0,1,1.2,1.595,11.7,11.7,0,0,1,0,5.79,2.844,2.844,0,0,1-1.2,1.595A4.348,4.348,0,0,1,153.244,246.935Zm0-1.641a2.191,2.191,0,0,0,1.246-.3,1.688,1.688,0,0,0,.627-1.022,11.248,11.248,0,0,0,0-4.072,1.688,1.688,0,0,0-.627-1.022,2.191,2.191,0,0,0-1.246-.3,2.152,2.152,0,0,0-1.239.3,1.7,1.7,0,0,0-.619,1.022,11.247,11.247,0,0,0,0,4.072,1.7,1.7,0,0,0,.619,1.022A2.152,2.152,0,0,0,153.244,245.294Zm6.084,1.424V237.15h1.78v.79a3.4,3.4,0,0,1,.96-.7,2.74,2.74,0,0,1,1.269-.3,3.964,3.964,0,0,1,1.486.24,2.488,2.488,0,0,1,1.014.774,5.229,5.229,0,0,1,.766,1.479l-1.595.728a5.548,5.548,0,0,0-.4-1.006,1.011,1.011,0,0,0-.472-.449,2.063,2.063,0,0,0-.8-.124,1.859,1.859,0,0,0-1.718.828,4.628,4.628,0,0,0-.511,2.407v4.908Zm8.221,0V237.15h1.78v-.062q.124-.031.464-.093a3.421,3.421,0,0,1,.6-.062,2.189,2.189,0,0,1,.96.17,1.819,1.819,0,0,1,.65.619,2.022,2.022,0,0,1,1.765-.79,2.283,2.283,0,0,1,1.393.372,2.118,2.118,0,0,1,.712,1.223,10.08,10.08,0,0,1,.217,2.369v5.821h-1.78V240.9a8.249,8.249,0,0,0-.116-1.7q-.116-.472-.426-.472a.847.847,0,0,0-.828.433,3.76,3.76,0,0,0-.224,1.564v5.991h-1.78V240.99a8.434,8.434,0,0,0-.124-1.757q-.124-.5-.418-.5a.864.864,0,0,0-.836.433,3.646,3.646,0,0,0-.232,1.564v5.991Zm13.871-12.385a5.616,5.616,0,0,1,2.245.372,2.353,2.353,0,0,1,1.215,1.177,5.152,5.152,0,0,1,.379,2.167,5.481,5.481,0,0,1-.372,2.245,2.163,2.163,0,0,1-1.2,1.138,6.245,6.245,0,0,1-2.268.333h-2.028v4.954h-1.78V234.333h1.7l.077-.077v.077Zm0,5.79a4.219,4.219,0,0,0,1.3-.147.952.952,0,0,0,.588-.573,3.929,3.929,0,0,0,.17-1.355,3.559,3.559,0,0,0-.178-1.277,1.079,1.079,0,0,0-.612-.619,3.493,3.493,0,0,0-1.269-.178h-2.028v4.149Zm8.979,6.812a4.305,4.305,0,0,1-2.268-.511,2.856,2.856,0,0,1-1.192-1.595,11.7,11.7,0,0,1,0-5.79,2.856,2.856,0,0,1,1.192-1.595,5.307,5.307,0,0,1,4.544,0,2.844,2.844,0,0,1,1.2,1.595,11.7,11.7,0,0,1,0,5.79,2.844,2.844,0,0,1-1.2,1.595A4.348,4.348,0,0,1,190.4,246.935Zm0-1.641a2.191,2.191,0,0,0,1.246-.3,1.688,1.688,0,0,0,.627-1.022,11.247,11.247,0,0,0,0-4.072,1.688,1.688,0,0,0-.627-1.022,2.191,2.191,0,0,0-1.246-.3,2.152,2.152,0,0,0-1.239.3,1.705,1.705,0,0,0-.619,1.022,11.248,11.248,0,0,0,0,4.072,1.705,1.705,0,0,0,.619,1.022A2.152,2.152,0,0,0,190.4,245.294Zm8.9,1.641a3.849,3.849,0,0,1-2.036-.464,4.021,4.021,0,0,1-1.355-1.641l1.409-1.161a6.539,6.539,0,0,0,.534,1.037,1.223,1.223,0,0,0,.55.457,2.462,2.462,0,0,0,.9.132,7.777,7.777,0,0,0,1.61-.124,1.194,1.194,0,0,0,.743-.41,1.433,1.433,0,0,0,.2-.828,1.478,1.478,0,0,0-.163-.79,1,1,0,0,0-.581-.372,9.927,9.927,0,0,0-1.409-.248,6.1,6.1,0,0,1-2.709-.828,2.151,2.151,0,0,1-.836-1.881,3.14,3.14,0,0,1,.387-1.664,2.25,2.25,0,0,1,1.239-.921,7.222,7.222,0,0,1,2.291-.294,4.586,4.586,0,0,1,2.121.4,3.739,3.739,0,0,1,1.378,1.424l-1.3,1.27a5.7,5.7,0,0,0-.588-.929,1.306,1.306,0,0,0-.6-.41,3.4,3.4,0,0,0-1.006-.116,6.206,6.206,0,0,0-1.339.108.974.974,0,0,0-.627.372,1.4,1.4,0,0,0-.17.759.757.757,0,0,0,.186.557,1.178,1.178,0,0,0,.557.279q.372.093,1.146.2a10.935,10.935,0,0,1,2.284.534,2.293,2.293,0,0,1,1.177.913,3.127,3.127,0,0,1,.364,1.633,3.165,3.165,0,0,1-.426,1.742,2.441,2.441,0,0,1-1.378.96A8.686,8.686,0,0,1,199.3,246.935Zm10.976-9.784v7.927h2.709v1.641h-7.2v-1.641H208.5v-6.286h-1.951V237.15Zm-1.223-1.393a1.561,1.561,0,0,1-1.06-.271,1.884,1.884,0,0,1,0-2,1.561,1.561,0,0,1,1.06-.271,1.594,1.594,0,0,1,1.068.271,1.842,1.842,0,0,1,0,2A1.594,1.594,0,0,1,209.055,235.757Zm10.218,11.178a3.658,3.658,0,0,1-1.811-.387,2.27,2.27,0,0,1-1-1.231,6.436,6.436,0,0,1-.317-2.222v-4.49h-1.92v-1.641h1.92v-2.632h1.78v2.632h3.2v1.641h-3.2v4.49a5.57,5.57,0,0,0,.124,1.339,1.1,1.1,0,0,0,.41.666,1.444,1.444,0,0,0,.813.194,3.149,3.149,0,0,0,.828-.077.613.613,0,0,0,.372-.279,3.824,3.824,0,0,0,.271-.7l1.672.573a3.55,3.55,0,0,1-.6,1.262,2.07,2.07,0,0,1-.968.658A5.033,5.033,0,0,1,219.273,246.935Zm9.583-9.784v7.927h2.709v1.641h-7.2v-1.641h2.709v-6.286h-1.951V237.15Zm-1.223-1.393a1.561,1.561,0,0,1-1.06-.271,1.884,1.884,0,0,1,0-2,1.561,1.561,0,0,1,1.06-.271,1.594,1.594,0,0,1,1.068.271,1.842,1.842,0,0,1,0,2A1.594,1.594,0,0,1,227.633,235.757Zm9.212,11.178a4.305,4.305,0,0,1-2.268-.511,2.856,2.856,0,0,1-1.192-1.595,11.7,11.7,0,0,1,0-5.79,2.856,2.856,0,0,1,1.192-1.595,5.307,5.307,0,0,1,4.544,0,2.844,2.844,0,0,1,1.2,1.595,11.7,11.7,0,0,1,0,5.79,2.844,2.844,0,0,1-1.2,1.595A4.348,4.348,0,0,1,236.845,246.935Zm0-1.641a2.191,2.191,0,0,0,1.246-.3,1.688,1.688,0,0,0,.627-1.022,11.248,11.248,0,0,0,0-4.072,1.688,1.688,0,0,0-.627-1.022,2.191,2.191,0,0,0-1.246-.3,2.152,2.152,0,0,0-1.239.3,1.7,1.7,0,0,0-.619,1.022,11.247,11.247,0,0,0,0,4.072,1.7,1.7,0,0,0,.619,1.022A2.152,2.152,0,0,0,236.845,245.294Zm5.666,1.424V237.15h1.78v.232a5.394,5.394,0,0,1,2.276-.449,4.6,4.6,0,0,1,2.036.364,2.1,2.1,0,0,1,1.03,1.223,7.439,7.439,0,0,1,.31,2.423v5.775h-1.8v-5.775a5.374,5.374,0,0,0-.147-1.432,1.227,1.227,0,0,0-.48-.72,1.745,1.745,0,0,0-.952-.217,4.505,4.505,0,0,0-1.478.178,1.021,1.021,0,0,0-.635.627,4.4,4.4,0,0,0-.163,1.393v5.945Zm15.59,2.245a4.019,4.019,0,0,1-2.74-1.053,6.755,6.755,0,0,1-1.842-2.965,15.348,15.348,0,0,1,0-8.84,6.755,6.755,0,0,1,1.842-2.965,4.019,4.019,0,0,1,2.74-1.053v1.641a2.4,2.4,0,0,0-1.8.844,5.75,5.75,0,0,0-1.215,2.384,14.9,14.9,0,0,0,0,7.137,5.75,5.75,0,0,0,1.215,2.384,2.4,2.4,0,0,0,1.8.844Zm3.948-1.641a2.4,2.4,0,0,0,1.8-.844,5.75,5.75,0,0,0,1.215-2.384,14.9,14.9,0,0,0,0-7.137,5.749,5.749,0,0,0-1.215-2.384,2.4,2.4,0,0,0-1.8-.844v-1.641a4.019,4.019,0,0,1,2.74,1.053,6.755,6.755,0,0,1,1.842,2.965,15.348,15.348,0,0,1,0,8.84,6.756,6.756,0,0,1-1.842,2.965,4.019,4.019,0,0,1-2.74,1.053Zm10.171,2.431a13.207,13.207,0,0,0,1.091-1.687,2.517,2.517,0,0,0,.3-1.115.971.971,0,0,1-.805-.279,1.778,1.778,0,0,1-.217-1.037,1.394,1.394,0,0,1,.3-1.03,2.282,2.282,0,0,1,2.214,0,1.394,1.394,0,0,1,.3,1.03,4.976,4.976,0,0,1-.395,2.036,8.829,8.829,0,0,1-1.432,2.082ZM274,239.519a1.621,1.621,0,0,1-1.107-.286,1.368,1.368,0,0,1-.3-1.014,1.394,1.394,0,0,1,.3-1.03,2.282,2.282,0,0,1,2.214,0,1.394,1.394,0,0,1,.3,1.03,1.368,1.368,0,0,1-.3,1.014A1.621,1.621,0,0,1,274,239.519ZM43.077,288.24v7.927h2.709v1.641h-7.2v-1.641H41.3v-6.286H39.346V288.24Zm-1.223-1.393a1.561,1.561,0,0,1-1.06-.271,1.884,1.884,0,0,1,0-2,1.561,1.561,0,0,1,1.06-.271,1.594,1.594,0,0,1,1.068.271,1.842,1.842,0,0,1,0,2A1.594,1.594,0,0,1,41.854,286.846Zm10.481-1.641a5.761,5.761,0,0,1,1.68.2,2.11,2.11,0,0,1,1.022.658,3.3,3.3,0,0,1,.6,1.262l-1.672.573a2.453,2.453,0,0,0-.255-.681.724.724,0,0,0-.426-.286,3.735,3.735,0,0,0-.944-.085,2.521,2.521,0,0,0-1.037.163.929.929,0,0,0-.48.573,4.145,4.145,0,0,0-.139,1.246v.9h2.756v1.641H50.679v6.44H48.9v-6.44h-1.92v-1.641H48.9v-.9a5.554,5.554,0,0,1,.333-2.129,2.145,2.145,0,0,1,1.084-1.138A4.775,4.775,0,0,1,52.335,285.205Zm19.987,14.847A4.019,4.019,0,0,1,69.582,299a6.755,6.755,0,0,1-1.842-2.965,15.348,15.348,0,0,1,0-8.84,6.755,6.755,0,0,1,1.842-2.965,4.019,4.019,0,0,1,2.74-1.053v1.641a2.4,2.4,0,0,0-1.8.844,5.75,5.75,0,0,0-1.215,2.384,14.9,14.9,0,0,0,0,7.137,5.75,5.75,0,0,0,1.215,2.384,2.4,2.4,0,0,0,1.8.844Zm2.338-2.245V288.24h1.78v-.062q.124-.031.464-.093a3.42,3.42,0,0,1,.6-.062,2.19,2.19,0,0,1,.96.17,1.819,1.819,0,0,1,.65.619,2.023,2.023,0,0,1,1.765-.79,2.283,2.283,0,0,1,1.393.372,2.118,2.118,0,0,1,.712,1.223,10.08,10.08,0,0,1,.217,2.369v5.821h-1.78v-5.821a8.249,8.249,0,0,0-.116-1.7q-.116-.472-.426-.472a.847.847,0,0,0-.828.434,3.76,3.76,0,0,0-.224,1.564v5.991H78.05v-5.728a8.433,8.433,0,0,0-.124-1.757q-.124-.5-.418-.5a.864.864,0,0,0-.836.434,3.646,3.646,0,0,0-.232,1.564v5.991Zm10.992,3.034a3.146,3.146,0,0,1-1.053-.155,4.11,4.11,0,0,1-.96-.526l.712-1.5a8.172,8.172,0,0,0,.805.449,1.247,1.247,0,0,0,.5.093,2.193,2.193,0,0,0,.9-.155,1.454,1.454,0,0,0,.6-.534,4.787,4.787,0,0,0,.5-1.122l-3.2-9.15H86.3l2.291,6.812,2.322-6.812h1.873l-3.329,9.273a8.487,8.487,0,0,1-.944,1.982,2.978,2.978,0,0,1-1.169,1.03A3.976,3.976,0,0,1,85.652,300.842Zm14.491-3.034-3.483-4.954h-.991v4.954h-1.78V285.422H97.7a5.616,5.616,0,0,1,2.245.372,2.353,2.353,0,0,1,1.215,1.177,5.152,5.152,0,0,1,.379,2.167,6.028,6.028,0,0,1-.279,2.028,2.191,2.191,0,0,1-.9,1.146,3.88,3.88,0,0,1-1.657.5l3.5,5Zm-4.474-10.744v4.149H97.7a4.219,4.219,0,0,0,1.3-.147.951.951,0,0,0,.588-.573,3.929,3.929,0,0,0,.17-1.355,3.56,3.56,0,0,0-.178-1.277,1.079,1.079,0,0,0-.612-.619,3.494,3.494,0,0,0-1.269-.178Zm11.178,9.32a2.553,2.553,0,0,0,1.324-.317,3.931,3.931,0,0,0,1.107-1.122l1.424.944a5.1,5.1,0,0,1-1.633,1.672,4.543,4.543,0,0,1-2.222.464,5.307,5.307,0,0,1-2.454-.464,2.653,2.653,0,0,1-1.254-1.533,12.081,12.081,0,0,1,0-6.007,2.653,2.653,0,0,1,1.254-1.533,5.307,5.307,0,0,1,2.454-.464,4.791,4.791,0,0,1,2.407.5,2.829,2.829,0,0,1,1.231,1.68,11.442,11.442,0,0,1,.372,3.3h-6.3a5.763,5.763,0,0,0,.279,1.718,1.628,1.628,0,0,0,.712.89A2.65,2.65,0,0,0,106.846,296.383Zm0-6.719a2.319,2.319,0,0,0-1.641.488,2.653,2.653,0,0,0-.619,1.711h4.443a3.476,3.476,0,0,0-.2-1.324,1.232,1.232,0,0,0-.673-.673A3.425,3.425,0,0,0,106.846,289.664Zm5.62,8.143V288.24h1.78v.232a5.394,5.394,0,0,1,2.276-.449,4.605,4.605,0,0,1,2.036.364,2.1,2.1,0,0,1,1.03,1.223,7.439,7.439,0,0,1,.31,2.423v5.775h-1.8v-5.775a5.374,5.374,0,0,0-.147-1.432,1.227,1.227,0,0,0-.48-.72,1.745,1.745,0,0,0-.952-.217,4.506,4.506,0,0,0-1.478.178,1.021,1.021,0,0,0-.635.627,4.4,4.4,0,0,0-.163,1.393v5.945Zm12.834.217a4.359,4.359,0,0,1-2.268-.5,2.82,2.82,0,0,1-1.192-1.587,11.762,11.762,0,0,1,0-5.806,2.856,2.856,0,0,1,1.192-1.595,4.305,4.305,0,0,1,2.268-.511,5.778,5.778,0,0,1,2.075.372v-2.972h1.78v12.385h-1.78V297.7A6.08,6.08,0,0,1,125.3,298.024Zm0-1.641a3.854,3.854,0,0,0,1.571-.24.734.734,0,0,0,.5-.658v-3.654a2.354,2.354,0,0,0-.488-1.641,2.077,2.077,0,0,0-1.587-.526,2.111,2.111,0,0,0-1.239.31,1.742,1.742,0,0,0-.619,1.029,8.593,8.593,0,0,0-.186,2.036,8.491,8.491,0,0,0,.186,2.028,1.7,1.7,0,0,0,.619,1.014A2.152,2.152,0,0,0,125.3,296.383Zm9.413,0a2.553,2.553,0,0,0,1.324-.317,3.931,3.931,0,0,0,1.107-1.122l1.424.944a5.1,5.1,0,0,1-1.633,1.672,4.543,4.543,0,0,1-2.222.464,5.307,5.307,0,0,1-2.454-.464,2.653,2.653,0,0,1-1.254-1.533,12.081,12.081,0,0,1,0-6.007,2.653,2.653,0,0,1,1.254-1.533,5.307,5.307,0,0,1,2.454-.464,4.791,4.791,0,0,1,2.407.5,2.829,2.829,0,0,1,1.231,1.68,11.442,11.442,0,0,1,.372,3.3h-6.3a5.763,5.763,0,0,0,.279,1.718,1.628,1.628,0,0,0,.712.89A2.65,2.65,0,0,0,134.713,296.383Zm0-6.719a2.319,2.319,0,0,0-1.641.488,2.653,2.653,0,0,0-.619,1.711H136.9a3.477,3.477,0,0,0-.2-1.324,1.232,1.232,0,0,0-.673-.673A3.425,3.425,0,0,0,134.713,289.664Zm6.038,8.143V288.24h1.78v.79a3.4,3.4,0,0,1,.96-.7,2.74,2.74,0,0,1,1.269-.3,3.964,3.964,0,0,1,1.486.24,2.488,2.488,0,0,1,1.014.774,5.227,5.227,0,0,1,.766,1.478l-1.595.728a5.546,5.546,0,0,0-.4-1.006,1.011,1.011,0,0,0-.472-.449,2.063,2.063,0,0,0-.8-.124,1.859,1.859,0,0,0-1.718.828,4.628,4.628,0,0,0-.511,2.407v4.908Zm12.54-1.424a2.553,2.553,0,0,0,1.324-.317,3.931,3.931,0,0,0,1.107-1.122l1.424.944a5.1,5.1,0,0,1-1.633,1.672,4.543,4.543,0,0,1-2.222.464,5.306,5.306,0,0,1-2.454-.464,2.653,2.653,0,0,1-1.254-1.533,12.081,12.081,0,0,1,0-6.007,2.653,2.653,0,0,1,1.254-1.533,5.307,5.307,0,0,1,2.454-.464,4.791,4.791,0,0,1,2.407.5,2.829,2.829,0,0,1,1.231,1.68,11.442,11.442,0,0,1,.372,3.3H151a5.764,5.764,0,0,0,.279,1.718,1.628,1.628,0,0,0,.712.89A2.65,2.65,0,0,0,153.291,296.383Zm0-6.719a2.319,2.319,0,0,0-1.641.488,2.653,2.653,0,0,0-.619,1.711h4.443a3.477,3.477,0,0,0-.2-1.324,1.232,1.232,0,0,0-.673-.673A3.425,3.425,0,0,0,153.291,289.664Zm6.038,8.143V288.24h1.78v.79a3.4,3.4,0,0,1,.96-.7,2.74,2.74,0,0,1,1.269-.3,3.964,3.964,0,0,1,1.486.24,2.488,2.488,0,0,1,1.014.774,5.227,5.227,0,0,1,.766,1.478l-1.595.728a5.547,5.547,0,0,0-.4-1.006,1.011,1.011,0,0,0-.472-.449,2.063,2.063,0,0,0-.8-.124,1.859,1.859,0,0,0-1.718.828,4.628,4.628,0,0,0-.511,2.407v4.908Zm12.494.217a1.621,1.621,0,0,1-1.107-.286,1.368,1.368,0,0,1-.3-1.014,1.394,1.394,0,0,1,.3-1.03,2.282,2.282,0,0,1,2.214,0,1.394,1.394,0,0,1,.3,1.03,1.368,1.368,0,0,1-.3,1.014A1.621,1.621,0,0,1,171.822,298.024Zm10.589-9.784v7.927h2.709v1.641h-7.2v-1.641h2.709v-6.286h-1.951V288.24Zm-1.223-1.393a1.561,1.561,0,0,1-1.06-.271,1.884,1.884,0,0,1,0-2,1.561,1.561,0,0,1,1.06-.271,1.594,1.594,0,0,1,1.068.271,1.842,1.842,0,0,1,0,2A1.594,1.594,0,0,1,181.189,286.846Zm8.825,11.178a3.848,3.848,0,0,1-2.036-.464,4.021,4.021,0,0,1-1.355-1.641l1.409-1.161a6.537,6.537,0,0,0,.534,1.037,1.223,1.223,0,0,0,.55.457,2.462,2.462,0,0,0,.9.132,7.778,7.778,0,0,0,1.61-.124,1.194,1.194,0,0,0,.743-.41,1.433,1.433,0,0,0,.2-.828,1.478,1.478,0,0,0-.163-.79,1,1,0,0,0-.581-.372,9.929,9.929,0,0,0-1.409-.248,6.1,6.1,0,0,1-2.709-.828,2.151,2.151,0,0,1-.836-1.881,3.14,3.14,0,0,1,.387-1.664,2.25,2.25,0,0,1,1.239-.921,7.223,7.223,0,0,1,2.291-.294,4.586,4.586,0,0,1,2.121.4,3.739,3.739,0,0,1,1.378,1.424l-1.3,1.27a5.7,5.7,0,0,0-.588-.929,1.306,1.306,0,0,0-.6-.41,3.4,3.4,0,0,0-1.006-.116,6.208,6.208,0,0,0-1.339.108.975.975,0,0,0-.627.372,1.4,1.4,0,0,0-.17.759.757.757,0,0,0,.186.557,1.178,1.178,0,0,0,.557.279q.372.093,1.146.2a10.935,10.935,0,0,1,2.284.534,2.293,2.293,0,0,1,1.177.913,3.128,3.128,0,0,1,.364,1.633,3.165,3.165,0,0,1-.426,1.742,2.441,2.441,0,0,1-1.378.96A8.688,8.688,0,0,1,190.013,298.024Zm10.512-.217h-1.672l-3.623-12.385h1.889l2.57,9.072,2.57-9.072h1.889Zm9.753-9.568v7.927h2.709v1.641h-7.2v-1.641H208.5v-6.286h-1.951V288.24Zm-1.223-1.393a1.561,1.561,0,0,1-1.06-.271,1.884,1.884,0,0,1,0-2,1.561,1.561,0,0,1,1.06-.271,1.594,1.594,0,0,1,1.068.271,1.842,1.842,0,0,1,0,2A1.594,1.594,0,0,1,209.055,286.846Zm8.825,11.178a3.849,3.849,0,0,1-2.036-.464,4.021,4.021,0,0,1-1.355-1.641l1.409-1.161a6.537,6.537,0,0,0,.534,1.037,1.223,1.223,0,0,0,.55.457,2.462,2.462,0,0,0,.9.132,7.778,7.778,0,0,0,1.61-.124,1.194,1.194,0,0,0,.743-.41,1.433,1.433,0,0,0,.2-.828,1.478,1.478,0,0,0-.163-.79,1,1,0,0,0-.581-.372,9.929,9.929,0,0,0-1.409-.248,6.1,6.1,0,0,1-2.709-.828,2.151,2.151,0,0,1-.836-1.881,3.14,3.14,0,0,1,.387-1.664,2.25,2.25,0,0,1,1.239-.921,7.223,7.223,0,0,1,2.291-.294,4.586,4.586,0,0,1,2.121.4,3.739,3.739,0,0,1,1.378,1.424l-1.3,1.27a5.7,5.7,0,0,0-.588-.929,1.306,1.306,0,0,0-.6-.41,3.4,3.4,0,0,0-1.006-.116,6.208,6.208,0,0,0-1.339.108.975.975,0,0,0-.627.372,1.4,1.4,0,0,0-.17.759.757.757,0,0,0,.186.557,1.178,1.178,0,0,0,.557.279q.372.093,1.146.2a10.935,10.935,0,0,1,2.284.534,2.293,2.293,0,0,1,1.177.913,3.128,3.128,0,0,1,.364,1.633,3.165,3.165,0,0,1-.426,1.742,2.441,2.441,0,0,1-1.378.96A8.688,8.688,0,0,1,217.88,298.024Zm10.976-9.784v7.927h2.709v1.641h-7.2v-1.641h2.709v-6.286h-1.951V288.24Zm-1.223-1.393a1.561,1.561,0,0,1-1.06-.271,1.884,1.884,0,0,1,0-2,1.561,1.561,0,0,1,1.06-.271,1.594,1.594,0,0,1,1.068.271,1.842,1.842,0,0,1,0,2A1.594,1.594,0,0,1,227.633,286.846Zm9.4,11.178a5.52,5.52,0,0,1-2.191-.364,4.073,4.073,0,0,1-1.54-1.277V285.422h1.78v2.941a5.456,5.456,0,0,1,1.951-.341,4.118,4.118,0,0,1,2.206.511,2.847,2.847,0,0,1,1.169,1.595,12.01,12.01,0,0,1,0,5.806,2.81,2.81,0,0,1-1.169,1.587A4.169,4.169,0,0,1,237.031,298.024Zm0-1.641a1.983,1.983,0,0,0,1.177-.3,1.7,1.7,0,0,0,.6-1.014,8.849,8.849,0,0,0,.178-2.028A8.955,8.955,0,0,0,238.8,291a1.748,1.748,0,0,0-.6-1.029,1.946,1.946,0,0,0-1.177-.31,3.192,3.192,0,0,0-1.215.178,1.033,1.033,0,0,0-.573.642,4.418,4.418,0,0,0-.163,1.378v3.948a1.953,1.953,0,0,0,.774.457A4.512,4.512,0,0,0,237.031,296.383Zm10.7,1.641a3.554,3.554,0,0,1-1.68-.325,1.837,1.837,0,0,1-.851-1.084,6.987,6.987,0,0,1-.255-2.136v-7.416h-1.951v-1.641h3.731v9.057a3.542,3.542,0,0,0,.217,1.494.812.812,0,0,0,.79.41,1.19,1.19,0,0,0,.6-.186,7.271,7.271,0,0,0,.89-.666l.991,1.517a4.746,4.746,0,0,1-1.215.766A3.456,3.456,0,0,1,247.728,298.024Zm7.741-1.641a2.553,2.553,0,0,0,1.324-.317,3.931,3.931,0,0,0,1.107-1.122l1.424.944a5.1,5.1,0,0,1-1.633,1.672,4.543,4.543,0,0,1-2.222.464,5.307,5.307,0,0,1-2.454-.464,2.653,2.653,0,0,1-1.254-1.533,12.081,12.081,0,0,1,0-6.007,2.653,2.653,0,0,1,1.254-1.533,5.307,5.307,0,0,1,2.454-.464,4.792,4.792,0,0,1,2.407.5,2.829,2.829,0,0,1,1.231,1.68,11.442,11.442,0,0,1,.372,3.3h-6.3a5.763,5.763,0,0,0,.279,1.718,1.628,1.628,0,0,0,.712.89A2.65,2.65,0,0,0,255.469,296.383Zm0-6.719a2.319,2.319,0,0,0-1.641.488,2.653,2.653,0,0,0-.619,1.711h4.443a3.477,3.477,0,0,0-.2-1.324,1.232,1.232,0,0,0-.673-.673A3.425,3.425,0,0,0,255.469,289.664Zm6.58,8.747a2.4,2.4,0,0,0,1.8-.844,5.749,5.749,0,0,0,1.215-2.384,14.9,14.9,0,0,0,0-7.137,5.75,5.75,0,0,0-1.215-2.384,2.4,2.4,0,0,0-1.8-.844v-1.641a4.019,4.019,0,0,1,2.74,1.053,6.756,6.756,0,0,1,1.842,2.965,15.348,15.348,0,0,1,0,8.84A6.755,6.755,0,0,1,264.789,299a4.019,4.019,0,0,1-2.74,1.053ZM45.028,325.6a5.5,5.5,0,0,1-3.329-.8,3.009,3.009,0,0,1-1.037-2.547,8.332,8.332,0,0,1,.155-1.393,8.144,8.144,0,0,0,.124-1.053,1.731,1.731,0,0,0-.542-.9q-.542-.6-1.765-1.749,1.223-1.177,1.765-1.78a1.71,1.71,0,0,0,.542-.929,6.3,6.3,0,0,0-.124-.944,7.647,7.647,0,0,1-.155-1.424,3.032,3.032,0,0,1,1.037-2.555,5.461,5.461,0,0,1,3.329-.805v1.657a5.779,5.779,0,0,0-1.548.163,1.373,1.373,0,0,0-.805.542,1.931,1.931,0,0,0-.248,1.061,5.18,5.18,0,0,0,.155,1.192,4.05,4.05,0,0,1,.139.96,2.749,2.749,0,0,1-.418,1.448,5.74,5.74,0,0,1-1.316,1.417,5.508,5.508,0,0,1,1.324,1.378,2.668,2.668,0,0,1,.41,1.424,4.828,4.828,0,0,1-.124.944,6.165,6.165,0,0,0-.155,1.3,1.9,1.9,0,0,0,.24,1.037,1.351,1.351,0,0,0,.8.534,5.777,5.777,0,0,0,1.548.163Zm33.9,23.517a4.292,4.292,0,0,1-2.237-.5,2.809,2.809,0,0,1-1.177-1.587,9.559,9.559,0,0,1-.364-2.934v-7.586h1.78V344.1a9.136,9.136,0,0,0,.178,2.067,1.656,1.656,0,0,0,.6,1.014,2.125,2.125,0,0,0,1.215.294,2.164,2.164,0,0,0,1.223-.294,1.639,1.639,0,0,0,.612-1.014,9.135,9.135,0,0,0,.178-2.067v-7.586h1.78V344.1a9.559,9.559,0,0,1-.364,2.934,2.8,2.8,0,0,1-1.184,1.587A4.335,4.335,0,0,1,78.933,349.113Zm5.542,2.6V339.329h1.8v.093a6.3,6.3,0,0,1,2.059-.31,4.4,4.4,0,0,1,2.276.5,2.808,2.808,0,0,1,1.2,1.587,11.732,11.732,0,0,1,0,5.8,2.845,2.845,0,0,1-1.2,1.6,4.348,4.348,0,0,1-2.276.511,5.654,5.654,0,0,1-2.059-.372v2.972Zm3.855-4.242a2.149,2.149,0,0,0,1.246-.31,1.725,1.725,0,0,0,.627-1.03,8.593,8.593,0,0,0,.186-2.036,8.491,8.491,0,0,0-.186-2.028,1.683,1.683,0,0,0-.627-1.014,2.191,2.191,0,0,0-1.246-.3q-2.059,0-2.059.9V345.3a2.38,2.38,0,0,0,.48,1.641A2.051,2.051,0,0,0,88.33,347.472Zm8.933,1.641a6.309,6.309,0,0,1-2.191-.31,2.159,2.159,0,0,1-1.177-.968,3.633,3.633,0,0,1-.364-1.757,4.086,4.086,0,0,1,.364-1.912,1.984,1.984,0,0,1,1.161-.944,7.116,7.116,0,0,1,2.206-.271h1.951v-.341a2.49,2.49,0,0,0-.163-1.006.947.947,0,0,0-.581-.5,3.819,3.819,0,0,0-1.208-.147,2.878,2.878,0,0,0-.991.132,1,1,0,0,0-.526.472,4.527,4.527,0,0,0-.356,1.037l-1.7-.418a6.216,6.216,0,0,1,.7-1.765,2.534,2.534,0,0,1,1.115-.983,4.268,4.268,0,0,1,1.765-.317,3.964,3.964,0,0,1,2.872.859,3.6,3.6,0,0,1,.859,2.64v3.623a1.833,1.833,0,0,0,.124.836.575.575,0,0,0,.526.2q.124,0,.557-.031v1.641q-.186.015-.511.016a2.31,2.31,0,0,1-1.858-.619,2.343,2.343,0,0,1-1.037.642A5.2,5.2,0,0,1,97.263,349.113Zm0-1.641a3.079,3.079,0,0,0,1.208-.186,1.056,1.056,0,0,0,.581-.635,4.008,4.008,0,0,0,.163-1.3v-.759H97.263a6.354,6.354,0,0,0-1.254.085.741.741,0,0,0-.526.387,2.391,2.391,0,0,0-.155,1.014,1.863,1.863,0,0,0,.155.859.9.9,0,0,0,.565.41A4.481,4.481,0,0,0,97.263,347.472Zm10.543,1.641a3.658,3.658,0,0,1-1.811-.387,2.271,2.271,0,0,1-1-1.231,6.436,6.436,0,0,1-.317-2.222v-4.49h-1.92v-1.641h1.92v-2.632h1.78v2.632h3.2v1.641h-3.2v4.49a5.57,5.57,0,0,0,.124,1.339,1.1,1.1,0,0,0,.41.666,1.445,1.445,0,0,0,.813.194,3.148,3.148,0,0,0,.828-.077.612.612,0,0,0,.372-.279,3.823,3.823,0,0,0,.271-.7l1.672.573a3.55,3.55,0,0,1-.6,1.262,2.07,2.07,0,0,1-.968.658A5.033,5.033,0,0,1,107.806,349.113Zm8.329-1.641a2.553,2.553,0,0,0,1.324-.317,3.932,3.932,0,0,0,1.107-1.122l1.424.944a5.1,5.1,0,0,1-1.633,1.672,4.543,4.543,0,0,1-2.222.464,5.307,5.307,0,0,1-2.454-.464,2.653,2.653,0,0,1-1.254-1.533,12.081,12.081,0,0,1,0-6.007,2.653,2.653,0,0,1,1.254-1.533,5.307,5.307,0,0,1,2.454-.464,4.791,4.791,0,0,1,2.407.5,2.829,2.829,0,0,1,1.231,1.68,11.442,11.442,0,0,1,.372,3.3h-6.3a5.763,5.763,0,0,0,.279,1.718,1.628,1.628,0,0,0,.712.89A2.65,2.65,0,0,0,116.135,347.472Zm0-6.719a2.319,2.319,0,0,0-1.641.488,2.653,2.653,0,0,0-.619,1.711h4.443a3.476,3.476,0,0,0-.2-1.324,1.232,1.232,0,0,0-.673-.673A3.425,3.425,0,0,0,116.135,340.753Zm13.639,8.143h-1.842l-.79-2.88h-3.53l-.79,2.88h-1.842l3.468-12.385h1.873Zm-4.4-9.335-1.316,4.815h2.632Zm5.666,9.335v-9.568h1.78v.232a5.394,5.394,0,0,1,2.276-.449,4.6,4.6,0,0,1,2.036.364,2.1,2.1,0,0,1,1.03,1.223,7.439,7.439,0,0,1,.31,2.423V348.9h-1.8v-5.775a5.375,5.375,0,0,0-.147-1.432,1.226,1.226,0,0,0-.48-.72,1.745,1.745,0,0,0-.952-.217,4.506,4.506,0,0,0-1.479.178,1.021,1.021,0,0,0-.635.627,4.4,4.4,0,0,0-.163,1.393V348.9Zm14.212-9.568v7.927h2.709V348.9h-7.2v-1.641h2.709V340.97h-1.951v-1.641Zm-1.223-1.393a1.561,1.561,0,0,1-1.06-.271,1.884,1.884,0,0,1,0-2,1.561,1.561,0,0,1,1.06-.271,1.594,1.594,0,0,1,1.068.271,1.842,1.842,0,0,1,0,2A1.594,1.594,0,0,1,144.033,337.935Zm4.939,10.961v-9.568h1.78v-.062q.124-.031.464-.093a3.42,3.42,0,0,1,.6-.062,2.19,2.19,0,0,1,.96.17,1.819,1.819,0,0,1,.65.619,2.022,2.022,0,0,1,1.765-.79,2.283,2.283,0,0,1,1.393.372,2.118,2.118,0,0,1,.712,1.223,10.08,10.08,0,0,1,.217,2.369V348.9h-1.78v-5.821a8.248,8.248,0,0,0-.116-1.7q-.116-.472-.426-.472a.847.847,0,0,0-.828.434,3.759,3.759,0,0,0-.224,1.564V348.9h-1.78v-5.728a8.434,8.434,0,0,0-.124-1.757q-.124-.5-.418-.5a.864.864,0,0,0-.836.434,3.646,3.646,0,0,0-.232,1.564V348.9Zm13.314.217a6.309,6.309,0,0,1-2.191-.31,2.159,2.159,0,0,1-1.177-.968,3.633,3.633,0,0,1-.364-1.757,4.086,4.086,0,0,1,.364-1.912,1.984,1.984,0,0,1,1.161-.944,7.116,7.116,0,0,1,2.206-.271h1.951v-.341a2.49,2.49,0,0,0-.163-1.006.947.947,0,0,0-.581-.5,3.819,3.819,0,0,0-1.208-.147,2.878,2.878,0,0,0-.991.132,1,1,0,0,0-.526.472,4.527,4.527,0,0,0-.356,1.037l-1.7-.418a6.217,6.217,0,0,1,.7-1.765,2.534,2.534,0,0,1,1.115-.983,4.268,4.268,0,0,1,1.765-.317,3.964,3.964,0,0,1,2.872.859,3.6,3.6,0,0,1,.859,2.64v3.623a1.832,1.832,0,0,0,.124.836.575.575,0,0,0,.526.2q.124,0,.557-.031v1.641q-.186.015-.511.016a2.31,2.31,0,0,1-1.858-.619,2.344,2.344,0,0,1-1.037.642A5.2,5.2,0,0,1,162.286,349.113Zm0-1.641a3.079,3.079,0,0,0,1.208-.186,1.056,1.056,0,0,0,.581-.635,4.008,4.008,0,0,0,.163-1.3v-.759h-1.951a6.354,6.354,0,0,0-1.254.085.741.741,0,0,0-.526.387,2.391,2.391,0,0,0-.155,1.014,1.863,1.863,0,0,0,.155.859.9.9,0,0,0,.565.41A4.481,4.481,0,0,0,162.286,347.472Zm10.543,1.641a3.658,3.658,0,0,1-1.811-.387,2.27,2.27,0,0,1-1-1.231,6.436,6.436,0,0,1-.317-2.222v-4.49h-1.92v-1.641h1.92v-2.632h1.78v2.632h3.2v1.641h-3.2v4.49a5.57,5.57,0,0,0,.124,1.339,1.1,1.1,0,0,0,.41.666,1.445,1.445,0,0,0,.813.194,3.148,3.148,0,0,0,.828-.077.612.612,0,0,0,.372-.279,3.824,3.824,0,0,0,.271-.7l1.672.573a3.55,3.55,0,0,1-.6,1.262,2.07,2.07,0,0,1-.968.658A5.033,5.033,0,0,1,172.829,349.113Zm9.583-9.784v7.927h2.709V348.9h-7.2v-1.641h2.709V340.97h-1.951v-1.641Zm-1.223-1.393a1.561,1.561,0,0,1-1.06-.271,1.884,1.884,0,0,1,0-2,1.561,1.561,0,0,1,1.06-.271,1.594,1.594,0,0,1,1.068.271,1.842,1.842,0,0,1,0,2A1.594,1.594,0,0,1,181.189,337.935Zm9.212,11.178a4.305,4.305,0,0,1-2.268-.511,2.856,2.856,0,0,1-1.192-1.595,11.7,11.7,0,0,1,0-5.79,2.856,2.856,0,0,1,1.192-1.595,5.307,5.307,0,0,1,4.544,0,2.844,2.844,0,0,1,1.2,1.595,11.7,11.7,0,0,1,0,5.79,2.844,2.844,0,0,1-1.2,1.595A4.348,4.348,0,0,1,190.4,349.113Zm0-1.641a2.191,2.191,0,0,0,1.246-.3,1.688,1.688,0,0,0,.627-1.022,11.247,11.247,0,0,0,0-4.072,1.688,1.688,0,0,0-.627-1.022,2.191,2.191,0,0,0-1.246-.3,2.152,2.152,0,0,0-1.239.3,1.7,1.7,0,0,0-.619,1.022,11.248,11.248,0,0,0,0,4.072,1.7,1.7,0,0,0,.619,1.022A2.152,2.152,0,0,0,190.4,347.472Zm5.666,1.424v-9.568h1.78v.232a5.394,5.394,0,0,1,2.276-.449,4.6,4.6,0,0,1,2.036.364,2.1,2.1,0,0,1,1.03,1.223,7.439,7.439,0,0,1,.31,2.423V348.9h-1.8v-5.775a5.374,5.374,0,0,0-.147-1.432,1.226,1.226,0,0,0-.48-.72,1.745,1.745,0,0,0-.952-.217,4.506,4.506,0,0,0-1.478.178,1.021,1.021,0,0,0-.635.627,4.4,4.4,0,0,0-.163,1.393V348.9Zm12.525.217a3.849,3.849,0,0,1-2.036-.464,4.021,4.021,0,0,1-1.355-1.641l1.409-1.161a6.54,6.54,0,0,0,.534,1.037,1.223,1.223,0,0,0,.55.457,2.462,2.462,0,0,0,.9.132,7.775,7.775,0,0,0,1.61-.124,1.194,1.194,0,0,0,.743-.41,1.433,1.433,0,0,0,.2-.828,1.478,1.478,0,0,0-.163-.79,1,1,0,0,0-.581-.372,9.93,9.93,0,0,0-1.409-.248,6.1,6.1,0,0,1-2.709-.828,2.151,2.151,0,0,1-.836-1.881,3.14,3.14,0,0,1,.387-1.664,2.25,2.25,0,0,1,1.239-.921,7.222,7.222,0,0,1,2.291-.294,4.587,4.587,0,0,1,2.121.4,3.739,3.739,0,0,1,1.378,1.424l-1.3,1.269a5.7,5.7,0,0,0-.588-.929,1.306,1.306,0,0,0-.6-.41,3.4,3.4,0,0,0-1.006-.116,6.208,6.208,0,0,0-1.339.108.975.975,0,0,0-.627.372,1.4,1.4,0,0,0-.17.759.757.757,0,0,0,.186.557,1.178,1.178,0,0,0,.557.279q.372.093,1.146.2a10.936,10.936,0,0,1,2.284.534,2.293,2.293,0,0,1,1.177.913,3.127,3.127,0,0,1,.364,1.633,3.165,3.165,0,0,1-.426,1.742,2.441,2.441,0,0,1-1.378.96A8.687,8.687,0,0,1,208.591,349.113Zm12.354,2.028a4.019,4.019,0,0,1-2.74-1.053,6.755,6.755,0,0,1-1.842-2.965,15.348,15.348,0,0,1,0-8.84,6.755,6.755,0,0,1,1.842-2.965,4.019,4.019,0,0,1,2.74-1.053v1.641a2.4,2.4,0,0,0-1.8.844,5.75,5.75,0,0,0-1.215,2.384,14.905,14.905,0,0,0,0,7.137,5.75,5.75,0,0,0,1.215,2.384,2.4,2.4,0,0,0,1.8.844Zm3.948-1.641a2.4,2.4,0,0,0,1.8-.844,5.75,5.75,0,0,0,1.215-2.384,14.9,14.9,0,0,0,0-7.137,5.75,5.75,0,0,0-1.215-2.384,2.4,2.4,0,0,0-1.8-.844v-1.641a4.019,4.019,0,0,1,2.74,1.053,6.755,6.755,0,0,1,1.842,2.965,15.348,15.348,0,0,1,0,8.84,6.755,6.755,0,0,1-1.842,2.965,4.019,4.019,0,0,1-2.74,1.053Zm10.171,2.431a13.214,13.214,0,0,0,1.091-1.688,2.517,2.517,0,0,0,.3-1.115.971.971,0,0,1-.805-.279,1.778,1.778,0,0,1-.217-1.037,1.394,1.394,0,0,1,.3-1.029,2.282,2.282,0,0,1,2.214,0,1.394,1.394,0,0,1,.3,1.029,4.975,4.975,0,0,1-.395,2.036,8.827,8.827,0,0,1-1.432,2.082Zm1.78-10.233a1.621,1.621,0,0,1-1.107-.286,1.368,1.368,0,0,1-.3-1.014,1.394,1.394,0,0,1,.3-1.03,2.282,2.282,0,0,1,2.214,0,1.394,1.394,0,0,1,.3,1.03,1.368,1.368,0,0,1-.3,1.014A1.621,1.621,0,0,1,236.845,341.7ZM38.526,375.029a5.777,5.777,0,0,0,1.548-.163,1.387,1.387,0,0,0,.805-.534,1.857,1.857,0,0,0,.248-1.037,6.165,6.165,0,0,0-.155-1.3,4.828,4.828,0,0,1-.124-.944,2.706,2.706,0,0,1,.4-1.424,5.368,5.368,0,0,1,1.316-1.378,5.393,5.393,0,0,1-1.308-1.4,2.814,2.814,0,0,1-.41-1.463,4.049,4.049,0,0,1,.139-.96,5.18,5.18,0,0,0,.155-1.192,1.93,1.93,0,0,0-.248-1.06,1.377,1.377,0,0,0-.813-.542,5.869,5.869,0,0,0-1.556-.163v-1.657a5.5,5.5,0,0,1,3.336.805,3.021,3.021,0,0,1,1.045,2.554,7.647,7.647,0,0,1-.155,1.424,6.3,6.3,0,0,0-.124.944,1.771,1.771,0,0,0,.542.944q.542.619,1.749,1.765-1.192,1.115-1.742,1.734a1.787,1.787,0,0,0-.55.913,8.144,8.144,0,0,0,.124,1.053,8.332,8.332,0,0,1,.155,1.393,3,3,0,0,1-1.045,2.547,5.539,5.539,0,0,1-3.336.8ZM1.37,400.574a5.778,5.778,0,0,0,1.548-.163,1.388,1.388,0,0,0,.805-.534,1.857,1.857,0,0,0,.248-1.037,6.165,6.165,0,0,0-.155-1.3,4.828,4.828,0,0,1-.124-.944,2.706,2.706,0,0,1,.4-1.424,5.368,5.368,0,0,1,1.316-1.378,5.393,5.393,0,0,1-1.308-1.4,2.814,2.814,0,0,1-.41-1.463,4.05,4.05,0,0,1,.139-.96,5.18,5.18,0,0,0,.155-1.192,1.93,1.93,0,0,0-.248-1.06,1.377,1.377,0,0,0-.813-.542,5.87,5.87,0,0,0-1.556-.163v-1.657a5.5,5.5,0,0,1,3.336.805,3.021,3.021,0,0,1,1.045,2.555,7.647,7.647,0,0,1-.155,1.424,6.3,6.3,0,0,0-.124.944,1.771,1.771,0,0,0,.542.944q.542.619,1.749,1.765-1.192,1.115-1.742,1.734a1.787,1.787,0,0,0-.55.913,8.143,8.143,0,0,0,.124,1.053,8.332,8.332,0,0,1,.155,1.393,3,3,0,0,1-1.045,2.547,5.539,5.539,0,0,1-3.336.8Z" transform="translate(630.636 28046.684)" fill="#12263f"/>
  </g>
</svg>
