<svg xmlns="http://www.w3.org/2000/svg" width="213" height="213" viewBox="0 0 213 213">
  <g id="Grupo_167877" data-name="Grupo 167877" transform="translate(-383.377 -11970)">
    <circle id="Elipse_4404" data-name="Elipse 4404" cx="106.5" cy="106.5" r="106.5" transform="translate(383.377 11970)" fill="#fff"/>
    <g id="tarjeta-de-video" transform="translate(390.013 11973.58)">
      <path id="Trazado_683395" data-name="Trazado 683395" d="M192.233,151.071a91.92,91.92,0,1,1,0-96.3c.352.57-11.534,31.215-11.534,48.151S192.585,150.5,192.233,151.071Z" transform="translate(-13.746 0)" fill="#003278"/>
      <path id="Trazado_683396" data-name="Trazado 683396" d="M217.073,131.036A75.036,75.036,0,1,1,142.036,56,75.036,75.036,0,0,1,217.073,131.036Z" transform="translate(-41.863 -28.117)" fill="#00429c"/>
      <path id="Trazado_683397" data-name="Trazado 683397" d="M10.13,284.871H3.752A3.752,3.752,0,0,1,0,281.12V260.66a3.752,3.752,0,0,1,3.752-3.752H10.13a3.752,3.752,0,0,1,3.752,3.752v20.46A3.752,3.752,0,0,1,10.13,284.871Zm47.178,24.936v-6.378a3.752,3.752,0,0,1,3.752-3.752H81.52a3.752,3.752,0,0,1,3.752,3.752v6.378a3.752,3.752,0,0,1-3.752,3.752H61.06A3.752,3.752,0,0,1,57.308,309.807Zm67.309,0v-6.378a3.752,3.752,0,0,1,3.752-3.752h20.46a3.752,3.752,0,0,1,3.752,3.752v6.378a3.752,3.752,0,0,1-3.752,3.752h-20.46A3.752,3.752,0,0,1,124.617,309.807Z" transform="translate(0 -153.648)" fill="#fa0"/>
      <path id="Trazado_683398" data-name="Trazado 683398" d="M10.13,223.2H3.752A3.752,3.752,0,0,1,0,219.452V184.312a3.752,3.752,0,0,1,3.752-3.752H10.13a3.752,3.752,0,0,1,3.752,3.752v35.141A3.752,3.752,0,0,1,10.13,223.2Zm122.725,38.9v-6.378a3.752,3.752,0,0,1,3.752-3.752h20.46a3.752,3.752,0,0,1,3.752,3.752V262.1a3.752,3.752,0,0,1-3.752,3.752h-20.46A3.752,3.752,0,0,1,132.855,262.1Zm-61.583,0v-6.378a3.752,3.752,0,0,1,3.752-3.752h35.141a3.752,3.752,0,0,1,3.752,3.752V262.1a3.752,3.752,0,0,1-3.752,3.752H75.024A3.752,3.752,0,0,1,71.272,262.1Z" transform="translate(0 -105.944)" fill="#ffc143"/>
      <path id="Trazado_683399" data-name="Trazado 683399" d="M78.711,135.163v81.3c0,4.144-3.709,7.5-8.285,7.5H35.285c-4.576,0-8.285-3.359-8.285-7.5v-81.3c0-4.144,3.709-7.5,8.285-7.5H70.426C75,127.659,78.711,131.018,78.711,135.163Z" transform="translate(-16.87 -72.891)" fill="#0077f0"/>
      <path id="Trazado_683400" data-name="Trazado 683400" d="M266.372,175.81a91.489,91.489,0,0,1-13.606,48.151H126.384a7.5,7.5,0,0,1-7.5-7.5v-81.3a7.5,7.5,0,0,1,7.5-7.5H252.766a91.492,91.492,0,0,1,13.606,48.151Z" transform="translate(-74.278 -72.891)" fill="#0396fd"/>
      <path id="Trazado_683401" data-name="Trazado 683401" d="M231.742,194.9a36.686,36.686,0,1,1-36.686-36.686A36.686,36.686,0,0,1,231.742,194.9ZM116.686,158.219A36.686,36.686,0,1,0,153.371,194.9,36.686,36.686,0,0,0,116.686,158.219Z" transform="translate(-49.985 -91.985)" fill="#0055ca"/>
      <path id="Trazado_683402" data-name="Trazado 683402" d="M122,231.207a36.686,36.686,0,1,1,0-72.606,36.691,36.691,0,0,0,0,72.606Zm47-36.3a36.694,36.694,0,0,1,31.369-36.3,36.686,36.686,0,1,0,0,72.606A36.693,36.693,0,0,1,169,194.9Z" transform="translate(-49.985 -91.984)" fill="#00429c"/>
      <path id="Trazado_683403" data-name="Trazado 683403" d="M19.509,104.752v108.8a3.752,3.752,0,0,1-3.752,3.752H12.006a3.752,3.752,0,0,1-3.752-3.752v-101.3h-4.5A3.752,3.752,0,0,1,0,108.5v-3.752A3.752,3.752,0,0,1,3.752,101H15.758A3.752,3.752,0,0,1,19.509,104.752Z" transform="translate(0 -56.234)" fill="#00d1fc"/>
      <path id="Trazado_683404" data-name="Trazado 683404" d="M156.563,207a2.052,2.052,0,0,1-2.051,2.052H130.827v15.477a10.258,10.258,0,0,1-10.258,10.258,2.051,2.051,0,0,1-2.051-2.051V209.047H103.04a10.258,10.258,0,0,1-10.258-10.258,2.051,2.051,0,0,1,2.052-2.051h23.684V181.26A10.258,10.258,0,0,1,128.775,171a2.051,2.051,0,0,1,2.051,2.051v23.684H146.3A10.257,10.257,0,0,1,156.563,207Zm78.371,0a2.052,2.052,0,0,1-2.051,2.052H209.2v15.477a10.258,10.258,0,0,1-10.258,10.258,2.051,2.051,0,0,1-2.051-2.051V209.047H181.411a10.258,10.258,0,0,1-10.258-10.258,2.051,2.051,0,0,1,2.051-2.051h23.684V181.26A10.258,10.258,0,0,1,207.146,171a2.051,2.051,0,0,1,2.051,2.051v23.684h15.477A10.258,10.258,0,0,1,234.934,207Z" transform="translate(-57.972 -99.972)" fill="#00aaf2"/>
      <path id="Trazado_683405" data-name="Trazado 683405" d="M159.846,195.866,143.1,212.613l10.944,10.944a10.258,10.258,0,0,1,0,14.507,2.051,2.051,0,0,1-2.9,0L134.4,221.317l-10.944,10.944a10.258,10.258,0,0,1-14.507,0,2.052,2.052,0,0,1,0-2.9l16.747-16.747-10.944-10.944a10.258,10.258,0,0,1,0-14.507,2.051,2.051,0,0,1,2.9,0l16.747,16.747,10.944-10.944a10.258,10.258,0,0,1,14.508,0,2.051,2.051,0,0,1,0,2.9Zm78.371,0L221.47,212.613l10.944,10.944a10.258,10.258,0,0,1,0,14.507,2.051,2.051,0,0,1-2.9,0l-16.747-16.747-10.944,10.944a10.258,10.258,0,0,1-14.508,0,2.052,2.052,0,0,1,0-2.9l16.747-16.747-10.944-10.944a10.258,10.258,0,0,1,0-14.507,2.051,2.051,0,0,1,2.9,0l16.747,16.747,10.944-10.944a10.258,10.258,0,0,1,14.508,0,2.051,2.051,0,0,1,0,2.9Z" transform="translate(-67.695 -109.694)" fill="#00c1fb"/>
      <path id="Trazado_683406" data-name="Trazado 683406" d="M171.532,240.358a9.392,9.392,0,1,1-9.392-9.392A9.392,9.392,0,0,1,171.532,240.358Zm78.371,0a9.392,9.392,0,1,1-9.392-9.392A9.392,9.392,0,0,1,249.9,240.358Z" transform="translate(-95.439 -137.439)" fill="#0055ca"/>
      <path id="Trazado_683407" data-name="Trazado 683407" d="M175.325,249.85a3.693,3.693,0,1,1-3.693-3.693,3.693,3.693,0,0,1,3.693,3.693Zm78.371,0A3.693,3.693,0,1,1,250,246.157a3.693,3.693,0,0,1,3.693,3.693Z" transform="translate(-104.931 -146.93)" fill="#00429c"/>
      <path id="Trazado_683408" data-name="Trazado 683408" d="M78.021,149.793a3.693,3.693,0,1,1-3.693-3.693A3.693,3.693,0,0,1,78.021,149.793Zm143.075,0A3.693,3.693,0,1,1,217.4,146.1,3.693,3.693,0,0,1,221.1,149.793ZM78.021,227.711a3.693,3.693,0,1,1-3.693-3.693A3.693,3.693,0,0,1,78.021,227.711Zm143.075,0a3.693,3.693,0,1,1-3.693-3.693A3.693,3.693,0,0,1,221.1,227.711Z" transform="translate(-44.134 -84.413)" fill="#0055ca"/>
    </g>
  </g>
</svg>
