<svg xmlns="http://www.w3.org/2000/svg" width="213" height="213" viewBox="0 0 213 213">
  <g id="Grupo_167878" data-name="Grupo 167878" transform="translate(-1018.801 -11970)">
    <circle id="Elipse_4405" data-name="Elipse 4405" cx="106.5" cy="106.5" r="106.5" transform="translate(1018.801 11970)" fill="#fff"/>
    <g id="procesador" transform="translate(1024.642 11975.98)">
      <g id="Grupo_80181" data-name="Grupo 80181" transform="translate(8.6 8.6)">
        <g id="Grupo_80179" data-name="Grupo 80179">
          <circle id="Elipse_4754" data-name="Elipse 4754" cx="91.71" cy="91.71" r="91.71" fill="#382b73"/>
        </g>
        <g id="Grupo_80180" data-name="Grupo 80180" transform="translate(12.367 12.367)">
          <circle id="Elipse_4755" data-name="Elipse 4755" cx="79.343" cy="79.343" r="79.343" fill="#473080"/>
        </g>
      </g>
      <g id="Grupo_80182" data-name="Grupo 80182" transform="translate(49.227 54.605)">
        <path id="Trazado_683348" data-name="Trazado 683348" d="M162.13,114.487a1.527,1.527,0,0,0,1.527-1.527c0-.023,0-.046,0-.068,0-.006,0-.013,0-.02,0-.022,0-.045-.005-.067,0,0,0,0,0-.007l-.007-.058c0-.008,0-.017,0-.025s-.006-.037-.01-.055,0-.017-.005-.025-.006-.028-.01-.042,0-.019-.008-.029l-.009-.033c-.005-.018-.012-.038-.018-.056a.182.182,0,0,1-.006-.019l-.014-.038a.059.059,0,0,1,0-.011c-.01-.027-.021-.053-.033-.079l0,0a1.527,1.527,0,0,0-1.389-.892h-4.992v-10.18h4.992a1.527,1.527,0,0,0,1.527-1.527c0-.023,0-.046,0-.068,0-.007,0-.013,0-.02,0-.022,0-.045-.005-.067,0,0,0,0,0-.007l-.007-.058c0-.008,0-.017,0-.025s-.006-.037-.01-.055,0-.017-.005-.025-.006-.028-.01-.042,0-.019-.008-.029L163.6,99.3c-.005-.018-.012-.038-.018-.056s0-.013-.006-.019l-.014-.038a.061.061,0,0,1,0-.011c-.01-.027-.021-.053-.033-.079l0,0a1.527,1.527,0,0,0-1.389-.892h-4.992V88.3a14.517,14.517,0,0,0-14.518-14.518h-8.664V70.022a1.527,1.527,0,1,0-3.054,0v3.764h-10.18V70.022a1.527,1.527,0,0,0-3.054,0v3.764h-10.18V70.022a1.527,1.527,0,1,0-3.054,0v3.764H94.254V70.022a1.527,1.527,0,0,0-3.054,0v3.764H82.533A14.517,14.517,0,0,0,68.015,88.3V98.2H63.023a1.527,1.527,0,0,0-1.389.892l0,0c-.012.026-.023.052-.033.079a.06.06,0,0,0,0,.011l-.014.038-.007.019c-.006.018-.012.037-.018.056l-.009.033c0,.009,0,.019-.008.029s-.007.028-.01.042,0,.017-.005.025-.007.036-.01.055,0,.017,0,.025-.005.038-.007.058c0,0,0,0,0,.007,0,.022,0,.045-.005.067,0,.007,0,.013,0,.02,0,.023,0,.045,0,.068a1.527,1.527,0,0,0,1.527,1.527h4.992v10.18H63.022a1.527,1.527,0,0,0-1.389.892l0,0c-.012.026-.023.052-.033.079a.06.06,0,0,0,0,.011l-.014.038-.007.019c-.006.018-.012.037-.018.056l-.009.033c0,.009,0,.019-.008.029s-.007.028-.01.042,0,.017-.005.025-.007.036-.01.055,0,.017,0,.025-.005.038-.007.058c0,0,0,0,0,.007,0,.022,0,.045-.005.067,0,.007,0,.013,0,.02,0,.023,0,.045,0,.068a1.527,1.527,0,0,0,1.527,1.527h4.992v10.18H63.022a1.527,1.527,0,0,0-1.389.892l0,0c-.012.026-.023.052-.033.079a.06.06,0,0,0,0,.011l-.014.038-.007.019c-.006.018-.012.037-.018.056l-.009.033c0,.009,0,.019-.008.029s-.007.028-.01.042,0,.017-.005.025-.007.036-.01.055,0,.017,0,.025-.005.038-.007.058c0,0,0,0,0,.007,0,.022,0,.045-.005.067,0,.007,0,.013,0,.02,0,.022,0,.045,0,.068a1.527,1.527,0,0,0,1.527,1.527h4.992V137.9H63.021a1.527,1.527,0,0,0-1.389.892l0,0c-.012.026-.023.052-.033.078a.06.06,0,0,0,0,.011l-.014.038-.007.019c-.006.018-.012.037-.018.056l-.009.033c0,.009,0,.019-.008.029s-.007.028-.01.042,0,.017-.005.025-.007.036-.01.055,0,.017,0,.025-.005.038-.007.058c0,0,0,0,0,.007,0,.022,0,.045-.005.067,0,.007,0,.013,0,.02,0,.023,0,.045,0,.068a1.527,1.527,0,0,0,1.527,1.527h4.992v10.508a14.517,14.517,0,0,0,14.518,14.518h8.665v3.148a1.527,1.527,0,1,0,3.054,0v-3.148h10.18v3.148a1.527,1.527,0,1,0,3.054,0v-3.148h10.18v3.148a1.527,1.527,0,1,0,3.054,0v-3.148H130.9v3.148a1.527,1.527,0,1,0,3.054,0v-3.148h8.664a14.517,14.517,0,0,0,14.518-14.518V140.957h4.992a1.527,1.527,0,0,0,1.527-1.527c0-.023,0-.046,0-.068,0-.006,0-.013,0-.02,0-.022,0-.045-.005-.067,0,0,0,0,0-.007l-.007-.058c0-.008,0-.017,0-.025s-.006-.037-.01-.055,0-.017-.005-.025-.006-.028-.01-.042,0-.019-.008-.029L163.59,139c-.005-.018-.012-.038-.018-.056s0-.013-.006-.019l-.014-.038a.059.059,0,0,1,0-.011c-.01-.027-.022-.053-.033-.078l0,0a1.527,1.527,0,0,0-1.389-.892h-4.992v-10.18h4.992a1.527,1.527,0,0,0,1.527-1.527c0-.023,0-.046,0-.068,0-.007,0-.013,0-.02,0-.022,0-.045-.005-.067,0,0,0,0,0-.007l-.007-.058c0-.008,0-.017,0-.025s-.006-.036-.01-.055,0-.017-.005-.025-.006-.028-.01-.042,0-.019-.008-.029l-.009-.033c-.005-.018-.012-.038-.018-.056a.187.187,0,0,1-.006-.019l-.014-.038a.061.061,0,0,1,0-.011c-.01-.027-.022-.053-.033-.079l0,0a1.527,1.527,0,0,0-1.389-.892h-4.992v-10.18Z" transform="translate(-61.493 -68.495)" fill="#382b73"/>
      </g>
      <g id="Grupo_80316" data-name="Grupo 80316" transform="translate(49.229 49.229)">
        <g id="Grupo_80183" data-name="Grupo 80183" transform="translate(6.52 8.364)">
          <path id="Trazado_683349" data-name="Trazado 683349" d="M144.589,161.508H84.5A14.517,14.517,0,0,1,69.984,146.99V86.9A14.517,14.517,0,0,1,84.5,72.385h60.088A14.517,14.517,0,0,1,159.107,86.9V146.99A14.518,14.518,0,0,1,144.589,161.508Z" transform="translate(-69.984 -72.385)" fill="#e7ad27"/>
        </g>
        <g id="Grupo_80184" data-name="Grupo 80184" transform="translate(6.52 5.291)">
          <path id="Trazado_683350" data-name="Trazado 683350" d="M144.589,157.508H84.5A14.517,14.517,0,0,1,69.984,142.99V82.9A14.517,14.517,0,0,1,84.5,68.385h60.088A14.517,14.517,0,0,1,159.107,82.9V142.99A14.518,14.518,0,0,1,144.589,157.508Z" transform="translate(-69.984 -68.385)" fill="#fede3a"/>
        </g>
        <g id="Grupo_80243" data-name="Grupo 80243" transform="translate(26.902)">
          <g id="Grupo_80213" data-name="Grupo 80213">
            <g id="Grupo_80190" data-name="Grupo 80190">
              <g id="Grupo_80187" data-name="Grupo 80187" transform="translate(0 10.18)">
                <g id="Grupo_80186" data-name="Grupo 80186">
                  <g id="Grupo_80185" data-name="Grupo 80185">
                    <circle id="Elipse_4756" data-name="Elipse 4756" cx="4.327" cy="4.327" r="4.327" fill="#e7ad27"/>
                  </g>
                </g>
              </g>
              <g id="Grupo_80189" data-name="Grupo 80189" transform="translate(2.8)">
                <g id="Grupo_80188" data-name="Grupo 80188">
                  <path id="Trazado_683351" data-name="Trazado 683351" d="M101.693,77.53A1.527,1.527,0,0,1,100.166,76V63.023a1.527,1.527,0,0,1,3.054,0V76A1.527,1.527,0,0,1,101.693,77.53Z" transform="translate(-100.166 -61.496)" fill="#fff335"/>
                </g>
              </g>
            </g>
            <g id="Grupo_80196" data-name="Grupo 80196" transform="translate(13.235)">
              <g id="Grupo_80193" data-name="Grupo 80193" transform="translate(0 10.18)">
                <g id="Grupo_80192" data-name="Grupo 80192">
                  <g id="Grupo_80191" data-name="Grupo 80191">
                    <circle id="Elipse_4757" data-name="Elipse 4757" cx="4.327" cy="4.327" r="4.327" fill="#e7ad27"/>
                  </g>
                </g>
              </g>
              <g id="Grupo_80195" data-name="Grupo 80195" transform="translate(2.8)">
                <g id="Grupo_80194" data-name="Grupo 80194">
                  <path id="Trazado_683352" data-name="Trazado 683352" d="M118.924,77.53A1.527,1.527,0,0,1,117.4,76V63.023a1.527,1.527,0,1,1,3.054,0V76A1.527,1.527,0,0,1,118.924,77.53Z" transform="translate(-117.397 -61.496)" fill="#fff335"/>
                </g>
              </g>
            </g>
            <g id="Grupo_80202" data-name="Grupo 80202" transform="translate(26.469)">
              <g id="Grupo_80199" data-name="Grupo 80199" transform="translate(0 10.18)">
                <g id="Grupo_80198" data-name="Grupo 80198">
                  <g id="Grupo_80197" data-name="Grupo 80197">
                    <circle id="Elipse_4758" data-name="Elipse 4758" cx="4.327" cy="4.327" r="4.327" fill="#e7ad27"/>
                  </g>
                </g>
              </g>
              <g id="Grupo_80201" data-name="Grupo 80201" transform="translate(2.8)">
                <g id="Grupo_80200" data-name="Grupo 80200">
                  <path id="Trazado_683353" data-name="Trazado 683353" d="M136.154,77.53A1.527,1.527,0,0,1,134.627,76V63.023a1.527,1.527,0,0,1,3.054,0V76A1.527,1.527,0,0,1,136.154,77.53Z" transform="translate(-134.627 -61.496)" fill="#fff335"/>
                </g>
              </g>
            </g>
            <g id="Grupo_80212" data-name="Grupo 80212" transform="translate(2.8)">
              <g id="Grupo_80205" data-name="Grupo 80205" transform="translate(36.904 10.18)">
                <g id="Grupo_80204" data-name="Grupo 80204">
                  <g id="Grupo_80203" data-name="Grupo 80203">
                    <circle id="Elipse_4759" data-name="Elipse 4759" cx="4.327" cy="4.327" r="4.327" fill="#e7ad27"/>
                  </g>
                </g>
              </g>
              <g id="Grupo_80207" data-name="Grupo 80207" transform="translate(39.704)">
                <g id="Grupo_80206" data-name="Grupo 80206">
                  <path id="Trazado_683354" data-name="Trazado 683354" d="M153.385,77.53A1.527,1.527,0,0,1,151.858,76V63.023a1.527,1.527,0,0,1,3.054,0V76A1.527,1.527,0,0,1,153.385,77.53Z" transform="translate(-151.858 -61.496)" fill="#fff335"/>
                </g>
              </g>
              <g id="Grupo_80208" data-name="Grupo 80208" transform="translate(0 6.826)">
                <path id="Trazado_683355" data-name="Trazado 683355" d="M101.693,71.91a1.527,1.527,0,0,1-1.527-1.527v7.681a1.527,1.527,0,0,0,3.054,0V70.383A1.527,1.527,0,0,1,101.693,71.91Z" transform="translate(-100.166 -70.383)" fill="#f7cb15"/>
              </g>
              <g id="Grupo_80209" data-name="Grupo 80209" transform="translate(13.235 6.826)">
                <path id="Trazado_683356" data-name="Trazado 683356" d="M118.924,71.91a1.527,1.527,0,0,1-1.527-1.527v7.681a1.527,1.527,0,0,0,3.054,0V70.383A1.527,1.527,0,0,1,118.924,71.91Z" transform="translate(-117.397 -70.383)" fill="#f7cb15"/>
              </g>
              <g id="Grupo_80210" data-name="Grupo 80210" transform="translate(26.469 6.826)">
                <path id="Trazado_683357" data-name="Trazado 683357" d="M136.154,71.91a1.527,1.527,0,0,1-1.527-1.527v7.681a1.527,1.527,0,0,0,3.054,0V70.383A1.527,1.527,0,0,1,136.154,71.91Z" transform="translate(-134.627 -70.383)" fill="#f7cb15"/>
              </g>
              <g id="Grupo_80211" data-name="Grupo 80211" transform="translate(39.704 6.826)">
                <path id="Trazado_683358" data-name="Trazado 683358" d="M153.385,71.91a1.527,1.527,0,0,1-1.527-1.527v7.681a1.527,1.527,0,0,0,3.054,0V70.383A1.527,1.527,0,0,1,153.385,71.91Z" transform="translate(-151.858 -70.383)" fill="#f7cb15"/>
              </g>
            </g>
          </g>
          <g id="Grupo_80242" data-name="Grupo 80242" transform="translate(0 83.329)">
            <g id="Grupo_80219" data-name="Grupo 80219">
              <g id="Grupo_80216" data-name="Grupo 80216">
                <g id="Grupo_80215" data-name="Grupo 80215">
                  <g id="Grupo_80214" data-name="Grupo 80214">
                    <circle id="Elipse_4760" data-name="Elipse 4760" cx="4.327" cy="4.327" r="4.327" fill="#e7ad27"/>
                  </g>
                </g>
              </g>
              <g id="Grupo_80218" data-name="Grupo 80218" transform="translate(2.8 2.8)">
                <g id="Grupo_80217" data-name="Grupo 80217">
                  <path id="Trazado_683359" data-name="Trazado 683359" d="M101.693,189.663a1.527,1.527,0,0,1-1.527-1.527V175.157a1.527,1.527,0,0,1,3.054,0v12.979A1.527,1.527,0,0,1,101.693,189.663Z" transform="translate(-100.166 -173.63)" fill="#fff335"/>
                </g>
              </g>
            </g>
            <g id="Grupo_80225" data-name="Grupo 80225" transform="translate(13.235)">
              <g id="Grupo_80222" data-name="Grupo 80222">
                <g id="Grupo_80221" data-name="Grupo 80221">
                  <g id="Grupo_80220" data-name="Grupo 80220">
                    <circle id="Elipse_4761" data-name="Elipse 4761" cx="4.327" cy="4.327" r="4.327" fill="#e7ad27"/>
                  </g>
                </g>
              </g>
              <g id="Grupo_80224" data-name="Grupo 80224" transform="translate(2.8 2.8)">
                <g id="Grupo_80223" data-name="Grupo 80223">
                  <path id="Trazado_683360" data-name="Trazado 683360" d="M118.924,189.663a1.527,1.527,0,0,1-1.527-1.527V175.157a1.527,1.527,0,0,1,3.054,0v12.979A1.527,1.527,0,0,1,118.924,189.663Z" transform="translate(-117.397 -173.63)" fill="#fff335"/>
                </g>
              </g>
            </g>
            <g id="Grupo_80231" data-name="Grupo 80231" transform="translate(26.469)">
              <g id="Grupo_80228" data-name="Grupo 80228">
                <g id="Grupo_80227" data-name="Grupo 80227">
                  <g id="Grupo_80226" data-name="Grupo 80226">
                    <circle id="Elipse_4762" data-name="Elipse 4762" cx="4.327" cy="4.327" r="4.327" fill="#e7ad27"/>
                  </g>
                </g>
              </g>
              <g id="Grupo_80230" data-name="Grupo 80230" transform="translate(2.8 2.8)">
                <g id="Grupo_80229" data-name="Grupo 80229">
                  <path id="Trazado_683361" data-name="Trazado 683361" d="M136.154,189.663a1.527,1.527,0,0,1-1.527-1.527V175.157a1.527,1.527,0,0,1,3.054,0v12.979A1.527,1.527,0,0,1,136.154,189.663Z" transform="translate(-134.627 -173.63)" fill="#fff335"/>
                </g>
              </g>
            </g>
            <g id="Grupo_80241" data-name="Grupo 80241" transform="translate(2.8)">
              <g id="Grupo_80234" data-name="Grupo 80234" transform="translate(36.904)">
                <g id="Grupo_80233" data-name="Grupo 80233">
                  <g id="Grupo_80232" data-name="Grupo 80232">
                    <circle id="Elipse_4763" data-name="Elipse 4763" cx="4.327" cy="4.327" r="4.327" fill="#e7ad27"/>
                  </g>
                </g>
              </g>
              <g id="Grupo_80236" data-name="Grupo 80236" transform="translate(39.704 2.8)">
                <g id="Grupo_80235" data-name="Grupo 80235">
                  <path id="Trazado_683362" data-name="Trazado 683362" d="M153.385,189.663a1.527,1.527,0,0,1-1.527-1.527V175.157a1.527,1.527,0,0,1,3.054,0v12.979A1.527,1.527,0,0,1,153.385,189.663Z" transform="translate(-151.858 -173.63)" fill="#fff335"/>
                </g>
              </g>
              <g id="Grupo_80237" data-name="Grupo 80237" transform="translate(0 9.626)">
                <path id="Trazado_683363" data-name="Trazado 683363" d="M101.693,184.043a1.527,1.527,0,0,1-1.527-1.527V190.2a1.527,1.527,0,1,0,3.054,0v-7.681A1.527,1.527,0,0,1,101.693,184.043Z" transform="translate(-100.166 -182.516)" fill="#f7cb15"/>
              </g>
              <g id="Grupo_80238" data-name="Grupo 80238" transform="translate(13.235 9.626)">
                <path id="Trazado_683364" data-name="Trazado 683364" d="M118.924,184.043a1.527,1.527,0,0,1-1.527-1.527V190.2a1.527,1.527,0,1,0,3.054,0v-7.681A1.527,1.527,0,0,1,118.924,184.043Z" transform="translate(-117.397 -182.516)" fill="#f7cb15"/>
              </g>
              <g id="Grupo_80239" data-name="Grupo 80239" transform="translate(26.469 9.626)">
                <path id="Trazado_683365" data-name="Trazado 683365" d="M136.154,184.043a1.527,1.527,0,0,1-1.527-1.527V190.2a1.527,1.527,0,1,0,3.054,0v-7.681A1.527,1.527,0,0,1,136.154,184.043Z" transform="translate(-134.627 -182.516)" fill="#f7cb15"/>
              </g>
              <g id="Grupo_80240" data-name="Grupo 80240" transform="translate(39.704 9.626)">
                <path id="Trazado_683366" data-name="Trazado 683366" d="M153.385,184.043a1.527,1.527,0,0,1-1.527-1.527V190.2a1.527,1.527,0,1,0,3.054,0v-7.681A1.527,1.527,0,0,1,153.385,184.043Z" transform="translate(-151.858 -182.516)" fill="#f7cb15"/>
              </g>
            </g>
          </g>
        </g>
        <g id="Grupo_80302" data-name="Grupo 80302" transform="translate(0 26.902)">
          <g id="Grupo_80272" data-name="Grupo 80272" transform="translate(83.329)">
            <g id="Grupo_80250" data-name="Grupo 80250">
              <g id="Grupo_80246" data-name="Grupo 80246">
                <g id="Grupo_80245" data-name="Grupo 80245">
                  <g id="Grupo_80244" data-name="Grupo 80244">
                    <circle id="Elipse_4764" data-name="Elipse 4764" cx="4.327" cy="4.327" r="4.327" fill="#e7ad27"/>
                  </g>
                </g>
              </g>
              <g id="Grupo_80248" data-name="Grupo 80248" transform="translate(2.8 2.8)">
                <g id="Grupo_80247" data-name="Grupo 80247">
                  <path id="Trazado_683367" data-name="Trazado 683367" d="M188.136,103.22H175.157a1.527,1.527,0,0,1,0-3.054h12.979a1.527,1.527,0,1,1,0,3.054Z" transform="translate(-173.63 -100.166)" fill="#fff335"/>
                </g>
              </g>
              <g id="Grupo_80249" data-name="Grupo 80249" transform="translate(2.8 3.563)">
                <path id="Trazado_683368" data-name="Trazado 683368" d="M188.136,101.923H175.157a1.527,1.527,0,0,1-1.323-.763,1.526,1.526,0,0,0,1.322,2.29h12.979a1.526,1.526,0,0,0,1.322-2.29A1.524,1.524,0,0,1,188.136,101.923Z" transform="translate(-173.629 -101.16)" fill="#f7cb15"/>
              </g>
            </g>
            <g id="Grupo_80257" data-name="Grupo 80257" transform="translate(0 13.235)">
              <g id="Grupo_80253" data-name="Grupo 80253">
                <g id="Grupo_80252" data-name="Grupo 80252">
                  <g id="Grupo_80251" data-name="Grupo 80251">
                    <path id="Trazado_683369" data-name="Trazado 683369" d="M174.311,122.405a4.327,4.327,0,1,1,4.327-4.327A4.327,4.327,0,0,1,174.311,122.405Z" transform="translate(-169.984 -113.752)" fill="#e7ad27"/>
                  </g>
                </g>
              </g>
              <g id="Grupo_80255" data-name="Grupo 80255" transform="translate(2.8 2.8)">
                <g id="Grupo_80254" data-name="Grupo 80254">
                  <path id="Trazado_683370" data-name="Trazado 683370" d="M188.136,120.451H175.157a1.527,1.527,0,0,1,0-3.054h12.979a1.527,1.527,0,1,1,0,3.054Z" transform="translate(-173.63 -117.397)" fill="#fff335"/>
                </g>
              </g>
              <g id="Grupo_80256" data-name="Grupo 80256" transform="translate(2.8 3.562)">
                <path id="Trazado_683371" data-name="Trazado 683371" d="M188.136,119.153H175.157a1.527,1.527,0,0,1-1.323-.763,1.526,1.526,0,0,0,1.322,2.29h12.979a1.526,1.526,0,0,0,1.322-2.29A1.524,1.524,0,0,1,188.136,119.153Z" transform="translate(-173.629 -118.39)" fill="#f7cb15"/>
              </g>
            </g>
            <g id="Grupo_80264" data-name="Grupo 80264" transform="translate(0 26.469)">
              <g id="Grupo_80260" data-name="Grupo 80260">
                <g id="Grupo_80259" data-name="Grupo 80259">
                  <g id="Grupo_80258" data-name="Grupo 80258">
                    <circle id="Elipse_4765" data-name="Elipse 4765" cx="4.327" cy="4.327" r="4.327" fill="#e7ad27"/>
                  </g>
                </g>
              </g>
              <g id="Grupo_80262" data-name="Grupo 80262" transform="translate(2.8 2.8)">
                <g id="Grupo_80261" data-name="Grupo 80261">
                  <path id="Trazado_683372" data-name="Trazado 683372" d="M188.136,137.682H175.157a1.527,1.527,0,0,1,0-3.054h12.979a1.527,1.527,0,1,1,0,3.054Z" transform="translate(-173.63 -134.628)" fill="#fff335"/>
                </g>
              </g>
              <g id="Grupo_80263" data-name="Grupo 80263" transform="translate(2.8 3.563)">
                <path id="Trazado_683373" data-name="Trazado 683373" d="M188.136,136.384H175.157a1.527,1.527,0,0,1-1.323-.763,1.526,1.526,0,0,0,1.322,2.29h12.979a1.526,1.526,0,0,0,1.322-2.29A1.524,1.524,0,0,1,188.136,136.384Z" transform="translate(-173.629 -135.621)" fill="#f7cb15"/>
              </g>
            </g>
            <g id="Grupo_80271" data-name="Grupo 80271" transform="translate(0 39.704)">
              <g id="Grupo_80267" data-name="Grupo 80267">
                <g id="Grupo_80266" data-name="Grupo 80266">
                  <g id="Grupo_80265" data-name="Grupo 80265">
                    <circle id="Elipse_4766" data-name="Elipse 4766" cx="4.327" cy="4.327" r="4.327" fill="#e7ad27"/>
                  </g>
                </g>
              </g>
              <g id="Grupo_80269" data-name="Grupo 80269" transform="translate(2.8 2.8)">
                <g id="Grupo_80268" data-name="Grupo 80268">
                  <path id="Trazado_683374" data-name="Trazado 683374" d="M188.136,154.913H175.157a1.527,1.527,0,0,1,0-3.054h12.979a1.527,1.527,0,1,1,0,3.054Z" transform="translate(-173.63 -151.859)" fill="#fff335"/>
                </g>
              </g>
              <g id="Grupo_80270" data-name="Grupo 80270" transform="translate(2.8 3.563)">
                <path id="Trazado_683375" data-name="Trazado 683375" d="M188.136,153.615H175.157a1.527,1.527,0,0,1-1.323-.763,1.526,1.526,0,0,0,1.322,2.29h12.979a1.526,1.526,0,0,0,1.322-2.29A1.524,1.524,0,0,1,188.136,153.615Z" transform="translate(-173.629 -152.852)" fill="#f7cb15"/>
              </g>
            </g>
          </g>
          <g id="Grupo_80301" data-name="Grupo 80301">
            <g id="Grupo_80279" data-name="Grupo 80279">
              <g id="Grupo_80275" data-name="Grupo 80275" transform="translate(10.18)">
                <g id="Grupo_80274" data-name="Grupo 80274">
                  <g id="Grupo_80273" data-name="Grupo 80273">
                    <circle id="Elipse_4767" data-name="Elipse 4767" cx="4.327" cy="4.327" r="4.327" fill="#e7ad27"/>
                  </g>
                </g>
              </g>
              <g id="Grupo_80277" data-name="Grupo 80277" transform="translate(0 2.8)">
                <g id="Grupo_80276" data-name="Grupo 80276">
                  <path id="Trazado_683376" data-name="Trazado 683376" d="M63.023,103.22H76a1.527,1.527,0,0,0,0-3.054H63.023a1.527,1.527,0,0,0,0,3.054Z" transform="translate(-61.496 -100.166)" fill="#fff335"/>
                </g>
              </g>
              <g id="Grupo_80278" data-name="Grupo 80278" transform="translate(0 3.563)">
                <path id="Trazado_683377" data-name="Trazado 683377" d="M63.023,101.923H76a1.527,1.527,0,0,0,1.323-.763A1.526,1.526,0,0,1,76,103.45H63.023a1.526,1.526,0,0,1-1.322-2.29A1.525,1.525,0,0,0,63.023,101.923Z" transform="translate(-61.496 -101.16)" fill="#f7cb15"/>
              </g>
            </g>
            <g id="Grupo_80286" data-name="Grupo 80286" transform="translate(0 13.235)">
              <g id="Grupo_80282" data-name="Grupo 80282" transform="translate(10.18)">
                <g id="Grupo_80281" data-name="Grupo 80281">
                  <g id="Grupo_80280" data-name="Grupo 80280">
                    <path id="Trazado_683378" data-name="Trazado 683378" d="M79.077,122.405a4.327,4.327,0,1,0-4.327-4.327A4.327,4.327,0,0,0,79.077,122.405Z" transform="translate(-74.75 -113.752)" fill="#e7ad27"/>
                  </g>
                </g>
              </g>
              <g id="Grupo_80284" data-name="Grupo 80284" transform="translate(0 2.8)">
                <g id="Grupo_80283" data-name="Grupo 80283">
                  <path id="Trazado_683379" data-name="Trazado 683379" d="M63.023,120.451H76a1.527,1.527,0,0,0,0-3.054H63.023a1.527,1.527,0,0,0,0,3.054Z" transform="translate(-61.496 -117.397)" fill="#fff335"/>
                </g>
              </g>
              <g id="Grupo_80285" data-name="Grupo 80285" transform="translate(0 3.562)">
                <path id="Trazado_683380" data-name="Trazado 683380" d="M63.023,119.153H76a1.527,1.527,0,0,0,1.323-.763A1.526,1.526,0,0,1,76,120.68H63.023a1.526,1.526,0,0,1-1.322-2.29A1.525,1.525,0,0,0,63.023,119.153Z" transform="translate(-61.496 -118.39)" fill="#f7cb15"/>
              </g>
            </g>
            <g id="Grupo_80293" data-name="Grupo 80293" transform="translate(0 26.469)">
              <g id="Grupo_80289" data-name="Grupo 80289" transform="translate(10.18)">
                <g id="Grupo_80288" data-name="Grupo 80288">
                  <g id="Grupo_80287" data-name="Grupo 80287">
                    <circle id="Elipse_4768" data-name="Elipse 4768" cx="4.327" cy="4.327" r="4.327" fill="#e7ad27"/>
                  </g>
                </g>
              </g>
              <g id="Grupo_80291" data-name="Grupo 80291" transform="translate(0 2.8)">
                <g id="Grupo_80290" data-name="Grupo 80290">
                  <path id="Trazado_683381" data-name="Trazado 683381" d="M63.023,137.682H76a1.527,1.527,0,0,0,0-3.054H63.023a1.527,1.527,0,0,0,0,3.054Z" transform="translate(-61.496 -134.628)" fill="#fff335"/>
                </g>
              </g>
              <g id="Grupo_80292" data-name="Grupo 80292" transform="translate(0 3.563)">
                <path id="Trazado_683382" data-name="Trazado 683382" d="M63.023,136.384H76a1.527,1.527,0,0,0,1.323-.763A1.526,1.526,0,0,1,76,137.911H63.023a1.526,1.526,0,0,1-1.322-2.29A1.526,1.526,0,0,0,63.023,136.384Z" transform="translate(-61.496 -135.621)" fill="#f7cb15"/>
              </g>
            </g>
            <g id="Grupo_80300" data-name="Grupo 80300" transform="translate(0 39.704)">
              <g id="Grupo_80296" data-name="Grupo 80296" transform="translate(10.18)">
                <g id="Grupo_80295" data-name="Grupo 80295">
                  <g id="Grupo_80294" data-name="Grupo 80294">
                    <circle id="Elipse_4769" data-name="Elipse 4769" cx="4.327" cy="4.327" r="4.327" fill="#e7ad27"/>
                  </g>
                </g>
              </g>
              <g id="Grupo_80298" data-name="Grupo 80298" transform="translate(0 2.8)">
                <g id="Grupo_80297" data-name="Grupo 80297">
                  <path id="Trazado_683383" data-name="Trazado 683383" d="M63.023,154.913H76a1.527,1.527,0,0,0,0-3.054H63.023a1.527,1.527,0,0,0,0,3.054Z" transform="translate(-61.496 -151.859)" fill="#fff335"/>
                </g>
              </g>
              <g id="Grupo_80299" data-name="Grupo 80299" transform="translate(0 3.563)">
                <path id="Trazado_683384" data-name="Trazado 683384" d="M63.023,153.615H76a1.527,1.527,0,0,0,1.323-.763A1.526,1.526,0,0,1,76,155.142H63.023a1.526,1.526,0,0,1-1.322-2.29A1.525,1.525,0,0,0,63.023,153.615Z" transform="translate(-61.496 -152.852)" fill="#f7cb15"/>
              </g>
            </g>
          </g>
        </g>
        <g id="Grupo_80315" data-name="Grupo 80315" transform="translate(22.958 21.729)">
          <g id="Grupo_80303" data-name="Grupo 80303" transform="translate(0 4.591)">
            <path id="Trazado_683385" data-name="Trazado 683385" d="M138.469,152.009H100.548a9.162,9.162,0,0,1-9.162-9.163V104.925a9.162,9.162,0,0,1,9.162-9.162h37.921a9.162,9.162,0,0,1,9.162,9.162v37.921A9.162,9.162,0,0,1,138.469,152.009Z" transform="translate(-91.386 -95.763)" fill="#f7cb15"/>
          </g>
          <g id="Grupo_80304" data-name="Grupo 80304" transform="translate(0 3.055)">
            <path id="Trazado_683386" data-name="Trazado 683386" d="M138.469,150.009H100.548a9.162,9.162,0,0,1-9.162-9.163V102.925a9.162,9.162,0,0,1,9.162-9.162h37.921a9.162,9.162,0,0,1,9.162,9.162v37.921A9.162,9.162,0,0,1,138.469,150.009Z" transform="translate(-91.386 -93.763)" fill="#136da0"/>
          </g>
          <g id="Grupo_80305" data-name="Grupo 80305">
            <path id="Trazado_683387" data-name="Trazado 683387" d="M138.469,146.032H100.548a9.162,9.162,0,0,1-9.162-9.163V98.949a9.163,9.163,0,0,1,9.162-9.163h37.921a9.162,9.162,0,0,1,9.162,9.163V136.87A9.162,9.162,0,0,1,138.469,146.032Z" transform="translate(-91.386 -89.786)" fill="#1caee4"/>
          </g>
          <g id="Grupo_80306" data-name="Grupo 80306" transform="translate(6.235 6.237)">
            <path id="Trazado_683388" data-name="Trazado 683388" d="M140.225,141.68H102.558a3.054,3.054,0,0,1-3.054-3.054V100.96a3.054,3.054,0,0,1,3.054-3.054h37.666a3.054,3.054,0,0,1,3.054,3.054v37.666A3.053,3.053,0,0,1,140.225,141.68Z" transform="translate(-99.504 -97.906)" fill="#d1d3d4"/>
          </g>
          <g id="Grupo_80307" data-name="Grupo 80307" transform="translate(9.735 9.736)">
            <path id="Trazado_683389" data-name="Trazado 683389" d="M138.27,139.236H106.625a2.566,2.566,0,0,1-2.565-2.565V105.026a2.565,2.565,0,0,1,2.565-2.565H138.27a2.565,2.565,0,0,1,2.565,2.565v31.645A2.565,2.565,0,0,1,138.27,139.236Z" transform="translate(-104.06 -102.461)" fill="#fff"/>
          </g>
          <g id="Grupo_80310" data-name="Grupo 80310" transform="translate(20.587 13.998)">
            <g id="Grupo_80308" data-name="Grupo 80308" transform="translate(0 1.536)">
              <path id="Trazado_683390" data-name="Trazado 683390" d="M127.447,120.269l2.83-8.235a1.527,1.527,0,0,0-1.444-2.023h-4.918a1.527,1.527,0,0,0-1.444,1.031l-4.2,12.215a1.527,1.527,0,0,0,1.444,2.023h2.842A1.527,1.527,0,0,1,124,127.3l-2.83,8.235a1.527,1.527,0,0,0,1.444,2.023h.814a1.526,1.526,0,0,0,1.293-.714l7.678-12.214a1.527,1.527,0,0,0-1.293-2.34h-2.217A1.527,1.527,0,0,1,127.447,120.269Z" transform="translate(-118.189 -110.011)" fill="#d1d3d4"/>
            </g>
            <g id="Grupo_80309" data-name="Grupo 80309">
              <path id="Trazado_683391" data-name="Trazado 683391" d="M127.447,118.269l2.83-8.235a1.527,1.527,0,0,0-1.444-2.023h-4.918a1.527,1.527,0,0,0-1.444,1.031l-4.2,12.215a1.527,1.527,0,0,0,1.444,2.023h2.842A1.527,1.527,0,0,1,124,125.3l-2.83,8.235a1.527,1.527,0,0,0,1.444,2.023h.814a1.526,1.526,0,0,0,1.293-.714l7.678-12.214a1.527,1.527,0,0,0-1.293-2.34h-2.217A1.527,1.527,0,0,1,127.447,118.269Z" transform="translate(-118.189 -108.011)" fill="#fede3a"/>
            </g>
          </g>
          <g id="Grupo_80314" data-name="Grupo 80314" transform="translate(20.587 14.386)">
            <g id="Grupo_80311" data-name="Grupo 80311" transform="translate(8.286)">
              <path id="Trazado_683392" data-name="Trazado 683392" d="M131.085,120.378a1.528,1.528,0,0,1-1.136-1.992l2.83-8.235h0q.014-.04.025-.081l.005-.019c.007-.027.014-.053.019-.08,0-.005,0-.01,0-.015.005-.025.009-.049.013-.074l0-.013c0-.027.007-.054.009-.08,0-.006,0-.012,0-.018q0-.04,0-.081v-.007c0-.025,0-.049,0-.075,0-.006,0-.012,0-.018,0-.025,0-.05-.005-.075l0-.021c0-.022-.005-.043-.008-.065l0-.015c0-.025-.008-.048-.014-.073l0-.022c-.005-.024-.011-.047-.018-.07,0-.007,0-.015-.006-.022s-.011-.036-.017-.054-.005-.016-.008-.025-.015-.043-.025-.064l-.011-.026c-.007-.016-.014-.032-.021-.048s-.01-.021-.015-.031-.016-.031-.025-.048l-.016-.03-.031-.053-.019-.029-.021-.032-.021-.029q-.017-.024-.037-.048l-.024-.029-.025-.03-.037-.041-.027-.028-.027-.027c-.015-.014-.028-.028-.044-.041l-3.158,9.209C128.335,120.128,130.265,120.378,131.085,120.378Z" transform="translate(-128.977 -108.515)" fill="#e7ad27"/>
            </g>
            <g id="Grupo_80312" data-name="Grupo 80312" transform="translate(2.9 12.124)">
              <path id="Trazado_683393" data-name="Trazado 683393" d="M132.793,124.3,125.6,135.744a1.527,1.527,0,0,1-1.293.714h-.814a1.512,1.512,0,0,1-1.016-.387l-.428,1.244a1.527,1.527,0,0,0,1.444,2.023h.814a1.526,1.526,0,0,0,1.293-.714l7.678-12.214A1.529,1.529,0,0,0,132.793,124.3Z" transform="translate(-121.964 -124.299)" fill="#e7ad27"/>
            </g>
            <g id="Grupo_80313" data-name="Grupo 80313" transform="translate(0 11.614)">
              <path id="Trazado_683394" data-name="Trazado 683394" d="M124.036,128.814h0s2-4.791-1.478-4.791h-2.842a1.512,1.512,0,0,1-1.016-.387l-.428,1.244a1.549,1.549,0,0,0-.084.464c0,.031,0,.061,0,.091a1.524,1.524,0,0,0,.19.68,1.569,1.569,0,0,0,.094.149c.017.024.035.048.053.07a1.468,1.468,0,0,0,.118.131,1.513,1.513,0,0,0,1.072.439h2.842A1.526,1.526,0,0,1,124.036,128.814Z" transform="translate(-118.188 -123.636)" fill="#e7ad27"/>
            </g>
          </g>
        </g>
      </g>
    </g>
  </g>
</svg>
