<svg xmlns="http://www.w3.org/2000/svg" width="610" height="436.162" viewBox="0 0 610 436.162">
  <g id="Grupo_155893" data-name="Grupo 155893" transform="translate(-180 -17525.004)">
    <g id="Grupo_12" data-name="Grupo 12" transform="translate(197.505 17525.004)">
      <path id="Trazado_140" data-name="Trazado 140" d="M649.791,363.94A42.428,42.428,0,1,1,601.6,399.688a42.429,42.429,0,0,1,48.191-35.748M780.44,124.283a25.577,25.577,0,1,1-29.05,21.549A25.577,25.577,0,0,1,780.44,124.283Zm266.48,42.266a15.792,15.792,0,1,1-17.937,13.306A15.792,15.792,0,0,1,1046.919,166.549ZM698.65,451.243a17.718,17.718,0,1,1-20.124,14.928A17.718,17.718,0,0,1,698.65,451.243Zm387.612-283.106a8.154,8.154,0,1,1-9.261,6.87A8.153,8.153,0,0,1,1086.261,168.137Zm-156.667-9.7A200.519,200.519,0,0,1,1045.079,217.9a30.308,30.308,0,1,1,34.746,48.9A201.534,201.534,0,0,1,1059.952,480.2,43.864,43.864,0,1,1,995.4,535.109a200.493,200.493,0,0,1-124.881,21.808C767.5,541.645,694.338,450.888,698.814,349.075a85.341,85.341,0,1,1,78.852-151.346A200.806,200.806,0,0,1,929.594,158.438Z" transform="translate(-601.136 -124.003)" fill="#ebf5ff" fill-rule="evenodd"/>
    </g>
    <g id="Grupo_13" data-name="Grupo 13" transform="translate(180 17538.055)">
      <path id="Trazado_141" data-name="Trazado 141" d="M1276.377,529a20.148,20.148,0,1,1,16.708,23.08A20.148,20.148,0,0,1,1276.377,529m61.292-20.534a47.444,47.444,0,0,0-5.932-8.208l6.075-8.746a1.582,1.582,0,0,0-.3-2.125l-7.784-6.326a1.577,1.577,0,0,0-2.138.136l-7.37,7.729a48.048,48.048,0,0,0-9.2-4.109l.888-10.626a1.575,1.575,0,0,0-1.323-1.69l-9.9-1.586a1.583,1.583,0,0,0-1.784,1.187l-2.516,10.365a47.43,47.43,0,0,0-10.025,1.048l-4.54-9.641a1.578,1.578,0,0,0-1.992-.8l-9.37,3.578a1.576,1.576,0,0,0-.952,1.919l3.006,10.241a47.429,47.429,0,0,0-8.167,5.909l-8.746-6.074a1.583,1.583,0,0,0-2.125.3l-6.325,7.785a1.575,1.575,0,0,0,.136,2.137l7.728,7.371a48.043,48.043,0,0,0-4.108,9.2l-10.626-.889a1.577,1.577,0,0,0-1.69,1.323l-1.586,9.9a1.581,1.581,0,0,0,1.186,1.783l10.365,2.516A47.442,47.442,0,0,0,1249.6,542.1l-9.641,4.541a1.576,1.576,0,0,0-.8,1.991l3.578,9.37a1.576,1.576,0,0,0,1.919.951l10.241-3.005a47.481,47.481,0,0,0,5.877,8.13l-6.049,8.784a1.581,1.581,0,0,0,.3,2.12l7.784,6.326a1.576,1.576,0,0,0,2.141-.141l7.329-7.745a47.984,47.984,0,0,0,9.192,4.117l-.848,10.647a1.577,1.577,0,0,0,1.324,1.684l9.9,1.586a1.58,1.58,0,0,0,1.785-1.191l2.471-10.359a47.425,47.425,0,0,0,10.026-1.038l4.586,9.637a1.576,1.576,0,0,0,1.988.8l9.37-3.579a1.575,1.575,0,0,0,.949-1.925l-3.041-10.213a47.405,47.405,0,0,0,8.172-5.9l8.785,6.049a1.581,1.581,0,0,0,2.12-.3l6.325-7.784a1.575,1.575,0,0,0-.14-2.141l-7.745-7.328a47.989,47.989,0,0,0,4.117-9.193l10.647.848a1.575,1.575,0,0,0,1.684-1.323l1.587-9.9a1.582,1.582,0,0,0-1.193-1.785l-10.358-2.47a47.4,47.4,0,0,0-1.039-10.027l9.638-4.585a1.576,1.576,0,0,0,.8-1.988l-3.578-9.37a1.577,1.577,0,0,0-1.926-.95Z" transform="translate(-777.252 -243.296)" fill="#b7d9f9" fill-rule="evenodd"/>
      <path id="Trazado_142" data-name="Trazado 142" d="M1073.17,336.169a12.751,12.751,0,1,1,10.574,14.607,12.751,12.751,0,0,1-10.574-14.607m38.791-13a30.033,30.033,0,0,0-3.754-5.195l3.845-5.535a1,1,0,0,0-.191-1.345l-4.926-4a1,1,0,0,0-1.353.086l-4.665,4.891a30.406,30.406,0,0,0-5.82-2.6l.563-6.725a1,1,0,0,0-.837-1.07l-6.268-1a1,1,0,0,0-1.129.75l-1.592,6.561a30.018,30.018,0,0,0-6.344.663l-2.874-6.1a1,1,0,0,0-1.261-.507l-5.93,2.265a1,1,0,0,0-.6,1.214l1.9,6.481a30.015,30.015,0,0,0-5.168,3.74l-5.535-3.845a1,1,0,0,0-1.345.191l-4,4.926a1,1,0,0,0,.086,1.353l4.891,4.665a30.345,30.345,0,0,0-2.6,5.821l-6.725-.563a1,1,0,0,0-1.07.837l-1,6.268a1,1,0,0,0,.75,1.129l6.56,1.592a29.967,29.967,0,0,0,.664,6.344l-6.1,2.874a1,1,0,0,0-.508,1.26l2.265,5.93a1,1,0,0,0,1.214.6l6.482-1.9a29.99,29.99,0,0,0,3.72,5.146l-3.829,5.56a1,1,0,0,0,.193,1.342l4.926,4a1,1,0,0,0,1.356-.089l4.638-4.9a30.392,30.392,0,0,0,5.818,2.605l-.537,6.739a1,1,0,0,0,.838,1.065l6.268,1a1,1,0,0,0,1.13-.755l1.563-6.556a29.981,29.981,0,0,0,6.346-.657l2.9,6.1a1,1,0,0,0,1.259.5l5.93-2.265a1,1,0,0,0,.6-1.218l-1.925-6.464a30.041,30.041,0,0,0,5.172-3.735l5.56,3.829a1,1,0,0,0,1.341-.193l4-4.926a1,1,0,0,0-.088-1.355l-4.9-4.638a30.372,30.372,0,0,0,2.605-5.818l6.738.537a1,1,0,0,0,1.066-.837l1-6.268a1,1,0,0,0-.755-1.129l-6.556-1.564a29.977,29.977,0,0,0-.657-6.346l6.1-2.9a1,1,0,0,0,.5-1.259l-2.265-5.93a1,1,0,0,0-1.218-.6Z" transform="translate(-719.778 -190.85)" fill="#b7d9f9" fill-rule="evenodd"/>
      <path id="Trazado_143" data-name="Trazado 143" d="M1301.772,429.187a7.206,7.206,0,1,1,5.976,8.255,7.206,7.206,0,0,1-5.976-8.255m21.922-7.344a16.949,16.949,0,0,0-2.122-2.936l2.173-3.128a.565.565,0,0,0-.108-.76l-2.784-2.263a.565.565,0,0,0-.764.049l-2.636,2.765a17.171,17.171,0,0,0-3.29-1.47l.318-3.8a.564.564,0,0,0-.473-.6l-3.543-.567a.566.566,0,0,0-.638.424l-.9,3.708a16.979,16.979,0,0,0-3.585.374l-1.624-3.448a.564.564,0,0,0-.712-.287l-3.352,1.28a.564.564,0,0,0-.34.686l1.075,3.663a17,17,0,0,0-2.921,2.113l-3.128-2.172a.566.566,0,0,0-.76.107l-2.262,2.785a.563.563,0,0,0,.049.764l2.764,2.636a17.189,17.189,0,0,0-1.469,3.29l-3.8-.318a.563.563,0,0,0-.6.473l-.567,3.543a.567.567,0,0,0,.424.638l3.708.9a16.954,16.954,0,0,0,.375,3.586l-3.448,1.624a.564.564,0,0,0-.287.712l1.28,3.351a.565.565,0,0,0,.686.341l3.663-1.075a16.946,16.946,0,0,0,2.1,2.908l-2.164,3.142a.565.565,0,0,0,.109.758l2.784,2.263a.564.564,0,0,0,.766-.05l2.621-2.77a17.2,17.2,0,0,0,3.288,1.472l-.3,3.808a.564.564,0,0,0,.473.6l3.543.567a.565.565,0,0,0,.638-.426l.883-3.7a16.924,16.924,0,0,0,3.586-.371l1.64,3.447a.564.564,0,0,0,.712.285l3.352-1.28a.564.564,0,0,0,.339-.689l-1.088-3.653a16.953,16.953,0,0,0,2.923-2.111l3.142,2.164a.565.565,0,0,0,.758-.108l2.262-2.784a.564.564,0,0,0-.05-.766l-2.77-2.621a17.206,17.206,0,0,0,1.472-3.288l3.808.3a.564.564,0,0,0,.6-.474l.567-3.542a.566.566,0,0,0-.426-.639l-3.7-.883a16.886,16.886,0,0,0-.371-3.586l3.448-1.641a.563.563,0,0,0,.284-.711l-1.28-3.352a.564.564,0,0,0-.689-.339Z" transform="translate(-792.691 -223.877)" fill="#b7d9f9" fill-rule="evenodd"/>
      <path id="Trazado_144" data-name="Trazado 144" d="M929.1,634.361a12.926,12.926,0,1,1,10.719,14.808A12.925,12.925,0,0,1,929.1,634.361m39.323-13.173a30.4,30.4,0,0,0-3.807-5.266l3.9-5.611a1.015,1.015,0,0,0-.193-1.364l-4.994-4.058a1.011,1.011,0,0,0-1.371.087l-4.729,4.959a30.8,30.8,0,0,0-5.9-2.636l.57-6.817a1.011,1.011,0,0,0-.848-1.084l-6.355-1.017a1.015,1.015,0,0,0-1.144.761l-1.614,6.65a30.477,30.477,0,0,0-6.431.673l-2.913-6.185a1.012,1.012,0,0,0-1.278-.515l-6.012,2.3a1.011,1.011,0,0,0-.61,1.231l1.929,6.57a30.446,30.446,0,0,0-5.239,3.791l-5.611-3.9a1.016,1.016,0,0,0-1.364.193l-4.058,4.994a1.011,1.011,0,0,0,.087,1.371l4.958,4.729a30.784,30.784,0,0,0-2.635,5.9l-6.817-.57a1.011,1.011,0,0,0-1.085.849l-1.017,6.355a1.015,1.015,0,0,0,.761,1.144l6.65,1.614a30.477,30.477,0,0,0,.672,6.432l-6.185,2.913a1.012,1.012,0,0,0-.515,1.278l2.3,6.011a1.011,1.011,0,0,0,1.231.611l6.571-1.929a30.368,30.368,0,0,0,3.771,5.216L915.21,662.5a1.014,1.014,0,0,0,.2,1.36l4.994,4.059a1.012,1.012,0,0,0,1.374-.09l4.7-4.969a30.819,30.819,0,0,0,5.9,2.641l-.545,6.83a1.012,1.012,0,0,0,.85,1.081l6.354,1.018a1.015,1.015,0,0,0,1.145-.765l1.584-6.645a30.48,30.48,0,0,0,6.433-.666l2.943,6.183a1.01,1.01,0,0,0,1.276.511l6.012-2.3a1.011,1.011,0,0,0,.609-1.234l-1.951-6.553a30.413,30.413,0,0,0,5.242-3.786l5.636,3.881a1.014,1.014,0,0,0,1.36-.2l4.058-4.994a1.011,1.011,0,0,0-.09-1.374l-4.969-4.7a30.781,30.781,0,0,0,2.641-5.9l6.83.544a1.011,1.011,0,0,0,1.081-.848l1.018-6.355a1.014,1.014,0,0,0-.765-1.145l-6.646-1.586a30.44,30.44,0,0,0-.666-6.433L978,627.133a1.01,1.01,0,0,0,.51-1.276l-2.3-6.012a1.013,1.013,0,0,0-1.236-.609Z" transform="translate(-675.803 -281.504)" fill="#b7d9f9" fill-rule="evenodd"/>
      <path id="Trazado_145" data-name="Trazado 145" d="M807.507,596.155a6.706,6.706,0,1,1,5.561,7.682,6.706,6.706,0,0,1-5.561-7.682m20.4-6.835a15.775,15.775,0,0,0-1.974-2.732l2.022-2.911a.527.527,0,0,0-.1-.707l-2.591-2.106a.525.525,0,0,0-.711.045l-2.453,2.573a16,16,0,0,0-3.062-1.367l.3-3.537a.525.525,0,0,0-.44-.563l-3.3-.528a.527.527,0,0,0-.594.394l-.837,3.45a15.781,15.781,0,0,0-3.336.349l-1.511-3.209a.525.525,0,0,0-.663-.267l-3.119,1.191a.526.526,0,0,0-.316.639l1,3.409a15.745,15.745,0,0,0-2.718,1.967l-2.911-2.022a.526.526,0,0,0-.707.1l-2.105,2.591a.524.524,0,0,0,.045.711l2.572,2.454a16.005,16.005,0,0,0-1.367,3.061l-3.537-.3a.525.525,0,0,0-.563.44l-.528,3.3a.527.527,0,0,0,.4.593l3.45.837a15.783,15.783,0,0,0,.349,3.337l-3.209,1.511a.525.525,0,0,0-.267.663l1.191,3.119a.525.525,0,0,0,.638.317l3.409-1a15.786,15.786,0,0,0,1.956,2.707l-2.013,2.923a.526.526,0,0,0,.1.706l2.591,2.106a.525.525,0,0,0,.713-.047l2.439-2.578a15.982,15.982,0,0,0,3.059,1.37l-.282,3.543a.524.524,0,0,0,.44.561l3.3.528a.526.526,0,0,0,.594-.4l.823-3.447a15.785,15.785,0,0,0,3.337-.346l1.526,3.208a.525.525,0,0,0,.662.266l3.119-1.191a.524.524,0,0,0,.316-.641l-1.013-3.4a15.768,15.768,0,0,0,2.72-1.964l2.924,2.013a.526.526,0,0,0,.705-.1l2.106-2.591a.525.525,0,0,0-.047-.713l-2.578-2.439a15.96,15.96,0,0,0,1.37-3.059l3.544.282a.525.525,0,0,0,.561-.441l.528-3.3a.525.525,0,0,0-.4-.594l-3.448-.822a15.783,15.783,0,0,0-.346-3.338l3.208-1.526a.525.525,0,0,0,.265-.662l-1.191-3.119a.525.525,0,0,0-.641-.316Z" transform="translate(-642.48 -275.144)" fill="#b7d9f9" fill-rule="evenodd"/>
      <path id="Trazado_146" data-name="Trazado 146" d="M706.517,411.162a7.206,7.206,0,1,1,5.976,8.255,7.206,7.206,0,0,1-5.976-8.255m21.922-7.344a17,17,0,0,0-2.122-2.936l2.173-3.128a.565.565,0,0,0-.108-.759l-2.784-2.262a.563.563,0,0,0-.764.048l-2.636,2.765a17.167,17.167,0,0,0-3.289-1.47l.318-3.8a.564.564,0,0,0-.474-.6l-3.542-.568a.566.566,0,0,0-.638.424l-.9,3.707a16.977,16.977,0,0,0-3.585.376l-1.624-3.449a.564.564,0,0,0-.712-.286l-3.352,1.28a.564.564,0,0,0-.34.686l1.075,3.662a17.012,17.012,0,0,0-2.921,2.114l-3.128-2.173a.567.567,0,0,0-.76.108l-2.262,2.785a.562.562,0,0,0,.049.764l2.764,2.636a17.15,17.15,0,0,0-1.47,3.29l-3.8-.318a.564.564,0,0,0-.6.473l-.568,3.542a.566.566,0,0,0,.424.638l3.708.9a16.985,16.985,0,0,0,.374,3.586l-3.448,1.624a.564.564,0,0,0-.287.712l1.28,3.351a.564.564,0,0,0,.686.34l3.663-1.075a16.944,16.944,0,0,0,2.1,2.908l-2.164,3.142a.567.567,0,0,0,.109.759l2.784,2.262a.564.564,0,0,0,.766-.051l2.621-2.77a17.206,17.206,0,0,0,3.288,1.473l-.3,3.808a.565.565,0,0,0,.473.6l3.543.567a.565.565,0,0,0,.638-.426l.884-3.7a16.977,16.977,0,0,0,3.586-.371l1.64,3.447a.565.565,0,0,0,.711.285l3.352-1.28a.564.564,0,0,0,.339-.689l-1.088-3.653a16.932,16.932,0,0,0,2.922-2.11l3.142,2.164a.566.566,0,0,0,.759-.109l2.262-2.783a.565.565,0,0,0-.05-.766l-2.771-2.621a17.138,17.138,0,0,0,1.473-3.288l3.808.3a.563.563,0,0,0,.6-.474l.568-3.542a.565.565,0,0,0-.426-.638l-3.7-.883a16.915,16.915,0,0,0-.372-3.586l3.448-1.641a.563.563,0,0,0,.284-.711l-1.28-3.352a.563.563,0,0,0-.689-.339Z" transform="translate(-611.43 -218.388)" fill="#b7d9f9" fill-rule="evenodd"/>
      <path id="Trazado_147" data-name="Trazado 147" d="M891.206,706.04c159.451,0,288.711,1.81,288.711,4.044s-129.26,4.044-288.711,4.044S602.5,712.318,602.5,710.084s129.26-4.044,288.711-4.044" transform="translate(-584.045 -314.292)" fill="#b7d9f9" fill-rule="evenodd"/>
      <path id="Trazado_148" data-name="Trazado 148" d="M663.863,424.265l6.581-5.985L672,412.906A85.482,85.482,0,0,1,702.66,370.5l3.516-2.44-6.58,5.985-3.516,2.44a85.046,85.046,0,0,0-32.217,47.784m149.2-33.834,6.58-5.985.643-36.915-6.58,5.985ZM852.472,340.7c-3.561-3.383-6.759-6.444-10.6-9.571-47.469-38.66-116.664-42.64-166.184-5.979,4.133-2.3,7.858-4.382,12.184-6.38,50.685-23.421,111.318-14.493,152.814,22.971l5.2,4.945,3.567,3.567,6.58-5.985Z" transform="translate(-602.732 -190.579)" fill="#f20010" fill-rule="evenodd"/>
      <path id="Trazado_149" data-name="Trazado 149" d="M851.688,523.094l6.58-5.985A84.745,84.745,0,0,1,828.9,534.048l-1.18.385-6.58,5.985a84.588,84.588,0,0,0,30.551-17.323m209.784-132.053,6.58-5.985,4.319-32.92-38.224-9.308-6.58,5.985,38.224,9.308Z" transform="translate(-650.624 -203.69)" fill="#ff7200" fill-rule="evenodd"/>
      <path id="Trazado_150" data-name="Trazado 150" d="M1116.039,348.814l6.58-5.985-.4.317-.4.319-.4.321-.4.322-.4.324-.4.325-.4.327-.395.329-.394.331-.393.332-.392.334-6.58,5.985.392-.334.393-.332.394-.331.395-.329.4-.327.4-.326.4-.324.4-.322.4-.321.4-.319Z" transform="translate(-739.095 -203.69)" fill="#0b3961" fill-rule="evenodd"/>
      <path id="Trazado_151" data-name="Trazado 151" d="M1149.036,570.969l-33.325,3.041L1109.13,580l33.326-3.041a88.54,88.54,0,0,0,13.41,10.5c37.108,23.464,86.957,15.1,114-20l.935-1.237,6.58-5.985a85.249,85.249,0,0,1-55.875,33.5,86.361,86.361,0,0,1-69.277-19.857Zm168.77,22.559c12.963-11.791,19.772-28.08,24.779-44.634l-32.308,12.771-18.054-34.273-6.58,5.985L1303.7,567.65l32.308-12.771-1.935,6.063A138.649,138.649,0,0,1,1317.806,593.528Z" transform="translate(-738.32 -259.892)" fill="#f20010" fill-rule="evenodd"/>
      <path id="Trazado_152" data-name="Trazado 152" d="M1344.786,476.14l6.58-5.985,1.6-8.516c8.965-57.361-18.026-114.576-68.66-143.416a141.182,141.182,0,0,0-142.594,2.146l-5.156,3.308-6.58,5.985a153.458,153.458,0,0,1,15.8-9.18c51.5-25.545,114.325-17.023,156.9,21.885a140.223,140.223,0,0,1,42.981,129.525Z" transform="translate(-744.668 -190.634)" fill="#4512b1" fill-rule="evenodd"/>
      <path id="Trazado_153" data-name="Trazado 153" d="M1068.585,523.041l6.58-5.985-55.011-54.965-6.257,6.257ZM1034.1,565.128l6.58-5.985.679-39-6.58,5.985ZM932.316,374.2l-35.249,3.216-6.58,5.985,35.249-3.216,49.876,49.876,6.282-6.283Z" transform="translate(-671.741 -213.243)" fill="#217dc5" fill-rule="evenodd"/>
      <path id="Trazado_154" data-name="Trazado 154" d="M775.325,620.8l6.58-5.985,5.4-31.906-46.7-13.23c-15.435,1.528-29.931-.364-44.225-6.561a85.514,85.514,0,0,1-50.717-88.343l.308-2.431L615.718,484.3l-19.665-37.332-6.58,5.985,19.665,37.332,30.255-11.96c-.273.525-.786,8.513-.821,9.754a85.451,85.451,0,0,0,93.093,87.814l2.362-.234,46.7,13.23Z" transform="translate(-580.08 -235.402)" fill="#4512b1" fill-rule="evenodd"/>
      <path id="Trazado_155" data-name="Trazado 155" d="M665,387.634c33.317-33.317,88.11-33.317,121.426,0l5.458,5.457.643-36.915,35.753-3.262-3.566-3.567c-54.45-54.449-143.549-54.449-198,0a138.713,138.713,0,0,0-32.4,50.871L614.3,438.147l28.389-11.221A84.971,84.971,0,0,1,665,387.634" transform="translate(-581.555 -193.24)" fill="#fb394b" fill-rule="evenodd"/>
      <path id="Trazado_156" data-name="Trazado 156" d="M661.307,553.842a85.951,85.951,0,0,1-24.134-72.9L606.918,492.9l-19.665-37.332c-12.973,47.078-1.05,99.737,35.768,136.555,40.391,40.391,99.847,50.82,150.083,31.288l5.4-31.907-46.7-13.23a85.885,85.885,0,0,1-70.5-24.437" transform="translate(-577.86 -238.022)" fill="#7433ee" fill-rule="evenodd"/>
      <path id="Trazado_157" data-name="Trazado 157" d="M1012.884,547.861l58.487,58.488.679-39,33.806-3.085-54.687-54.692Z" transform="translate(-709.012 -254.464)" fill="#369aec" fill-rule="evenodd"/>
      <path id="Trazado_158" data-name="Trazado 158" d="M975.326,432.682,925.45,382.806,890.2,386.022l-.652,37.457,47.49,47.5Z" transform="translate(-671.456 -215.864)" fill="#369aec" fill-rule="evenodd"/>
      <path id="Trazado_159" data-name="Trazado 159" d="M1164.267,374.632c32.923-19.527,76.5-15.192,104.694,13a85.747,85.747,0,0,1,24.852,65.581l19.916,37.808,31.058-12.276a140.221,140.221,0,0,0-37.54-129.4c-47.989-47.989-122.9-53.683-177.271-17.08l38.615,9.4Z" transform="translate(-744.668 -193.24)" fill="#7433ee" fill-rule="evenodd"/>
      <path id="Trazado_160" data-name="Trazado 160" d="M1262.314,578.332c-32.9,32.9-86.732,33.311-120.157,1.242l-33.326,3.041-.683,39.256c54.793,49.137,139.814,47.386,192.452-5.252a138.791,138.791,0,0,0,35.106-59.119L1303.4,570.27,1285.344,536a85.048,85.048,0,0,1-23.03,42.335" transform="translate(-738.021 -262.512)" fill="#fb394b" fill-rule="evenodd"/>
      <path id="Trazado_161" data-name="Trazado 161" d="M893.784,560.418l60.711-60.71,38.286-38.292,60.71-60.711a85.215,85.215,0,0,1,7.981-7.043l4.319-32.92-38.224-9.308a139.875,139.875,0,0,0-12.362,10.984l-60.71,60.711-38.287,38.292L855.5,522.131a84.874,84.874,0,0,1-34.36,20.906l39.118,11.082L854.519,588a138.782,138.782,0,0,0,39.265-27.582" transform="translate(-650.624 -206.311)" fill="#ffa000" fill-rule="evenodd"/>
      <path id="Trazado_162" data-name="Trazado 162" d="M1181.779,361.593s1.958,4.736,1.379,6.195c-.228.572.586,3.624.611,5.189.011.668-.587.581-.708.708-.319.337-1.724-3.461-1.724-3.461s-1.169-1.286-4.172,6.393c0,0,.055,3.468-5.8,4.407,0,0-2.83,1.273-4.841-.811,0,0-.831-1.243.267-3.279a15.872,15.872,0,0,0,4.235-8.461,13.526,13.526,0,0,1,3.16-5.473s1.883-1.552,2.7-.954,4.893-.453,4.893-.453" transform="translate(-755.706 -209.404)" fill="#1a1840" fill-rule="evenodd"/>
      <path id="Trazado_163" data-name="Trazado 163" d="M1219.993,373.139s3.733,4.851,4,6.56a2.907,2.907,0,0,1-.115,1.271,24.778,24.778,0,0,0,.712,5.075c.161.684-.392.556-.487.693-.329.476-1.7-3.283-1.7-3.283s-.69-1.045-.741,8.269c0,0,1.465,3.634-4.326,7,0,0-2.468,2.491-5.433,1.109,0,0-1.381-.973-1.048-3.565a17.94,17.94,0,0,0,1.033-10.639,15.276,15.276,0,0,1,1.112-7.052s.131-2.781.873-3.356c2.132-1.655,4.966.257,6.114-2.081" transform="translate(-769.283 -212.92)" fill="#1a1840" fill-rule="evenodd"/>
      <path id="Trazado_164" data-name="Trazado 164" d="M1203.4,277.806l-23.536,12.255c-5.4,2.809-6.982,7.28-6.5,13.655.748,9.939,4.164,23.269,3.589,33.209a19.749,19.749,0,0,0,7.52-.268s1.778-22.082,1.1-28.051c0,0-.85-5.249-1.172-6.184l24.616-8.409,8.262-16.686Z" transform="translate(-757.854 -183.744)" fill="#2b2468" fill-rule="evenodd"/>
      <path id="Trazado_165" data-name="Trazado 165" d="M1183.555,337.132a23.036,23.036,0,0,0,3.7-.476s1.778-22.082,1.1-28.051c0,0-.85-5.249-1.172-6.184l24.616-8.409,8.262-16.686-.908.031c-11.843,9.738-25.289,19.154-36.726,23.425,0,0,2.967,21.868,1.127,36.35" transform="translate(-760.64 -183.744)" fill="#221e54" fill-rule="evenodd"/>
      <path id="Trazado_166" data-name="Trazado 166" d="M1232.675,294.588l-25.39,11.446s5.51,6.34,8.451,35.188c-.539,1.344-3.4,4.978-7.237,4.441,0,0-9.159-32.818-12.556-37.075-2.975-7.082,1.414-10.428,5.751-14.341l18.483-15.12.915-4.315,16.494-6.378c6.672,7.2,8.405,18.482-4.91,26.154" transform="translate(-764.459 -181.036)" fill="#2b2468" fill-rule="evenodd"/>
      <path id="Trazado_167" data-name="Trazado 167" d="M1236.311,294.588l-25.39,11.446s5.51,6.34,8.451,35.188a8.609,8.609,0,0,1-2.923,3.326c-1.2-16.019-9.235-39.6-9.539-40.876,5.335-2.03,23.955-9.538,31.542-16.827,5.414-5.2,4.156-11.917.39-17.492l2.379-.919c6.672,7.2,8.405,18.482-4.91,26.154" transform="translate(-768.095 -181.036)" fill="#221e54" fill-rule="evenodd"/>
      <path id="Trazado_168" data-name="Trazado 168" d="M1193.96,203.761c1.125-2.207,2.564-4.09,1.612-6.4,1.307-1.047.179-2.943-.682-3.9a4.1,4.1,0,0,0-5.417.821c-1.457,1.469-2.807,3.242-.09,8.979.516,8.036-3.111,14.213.574,22.946,6.054,1.666,17.722-5.834,20.355-6.341,9.514-2.538,8.582-8.315,5.058-11.795-.952-.869-13.869,7.375-20.731,11.526.663-3.815-.719-7.966-.679-15.836" transform="translate(-762.282 -158.002)" fill="#fdddb6" fill-rule="evenodd"/>
      <path id="Trazado_169" data-name="Trazado 169" d="M1224.8,210.089c-5.085-2.971-12.062.913-14.781,3.683-6.666,6.8-7.057,6.3-10.065,9.523l6.384,7.376,15.568-12.166Z" transform="translate(-765.977 -162.945)" fill="#ff8622" fill-rule="evenodd"/>
      <path id="Trazado_170" data-name="Trazado 170" d="M1225.29,203.43c-2.175,4.452-18.079,17.236-9.768,25.328,3.442,3.352,2.772,10.588,1.827,17.39,0,0-4.636,6.753-1.441,10.215,4.129,2.216,13.065,1.118,17.477,1.519,0,0,9.548,2.2,12.561-2,2.7-3.767.438-4.513-.148-9.908-1.459-13.44,3.46-28.419,3.237-35.928-1.486-2.675-8.547-8.219-10.084-7.632Z" transform="translate(-769.991 -160.92)" fill="#ffa000" fill-rule="evenodd"/>
      <path id="Trazado_171" data-name="Trazado 171" d="M1250.247,242.034s-7.378,6.617-10.66,11.939l-4.5,4.186,11.22-9.511,9.471-9.2,2.914-12.346-5.275-9.13-2.856-7.218c-10.985,13.568,4.008,21.534-.316,31.276" transform="translate(-776.676 -163.473)" fill="#ff5a1f" fill-rule="evenodd"/>
      <path id="Trazado_172" data-name="Trazado 172" d="M1234.469,270.268c-1.475.555-3.681.532-6.985-.542-.726-.236-3.5-4.359-1.824-3.783a15.388,15.388,0,0,0,4.063.81c.757-.1,2.062-.255,2.352-.963.09-.22-.5-1.934-1.306-1.844-.307.035-1.292.125-1.588.209-.259.074-1.288-.262-1.063-.394a5.838,5.838,0,0,0,1.518-1.164c.321-.444,5.33-.363,5.834-.566,4.124-1.661,8.715-8.052,13.782-9.395-.229-2.609-.286-5.193-.581-8.755l8.569-.837c-.228,2.744-.911,6.464-1.027,10.546-4.562,7.382-12.338,6.551-18.057,12.046a32.367,32.367,0,0,0-3.687,4.632" transform="translate(-773.644 -173.305)" fill="#fdddb6" fill-rule="evenodd"/>
      <path id="Trazado_173" data-name="Trazado 173" d="M1257.1,234.943c-.386-5.859-4.351-10.835-4.442-13.9,1.948-26.468,13.479-5.981,13.019,11.821-4.151.22-6.257.669-8.577,2.079" transform="translate(-782.026 -162.748)" fill="#ffae2b" fill-rule="evenodd"/>
      <path id="Trazado_174" data-name="Trazado 174" d="M1226.582,198.254s2.552,2.324,1.23,5.127c0,0,1.5,3.6,6.523,2.614,2.68-.568,9.021-5.97,8.316-9.458,0,0-1.168.1-1.556-.606a19.219,19.219,0,0,1-1.195-8.28Z" transform="translate(-774.086 -156.437)" fill="#fcbe72" fill-rule="evenodd"/>
      <path id="Trazado_175" data-name="Trazado 175" d="M1221.452,179.36a41.994,41.994,0,0,0-.187,7.7c-.26,2,2.837,6.4,4.521,6.918.893.275,3.581.387,9.094-3.186a16.855,16.855,0,0,0,3.427-3.772s6.131-8.945,4.638-12.5c0,0-2.361-8.286-9.889-8.411,0,0-8.632-1.553-10.1,2.685-2.888,3.932-1.876,7.282-1.507,10.562" transform="translate(-772.379 -149.794)" fill="#fdddb6" fill-rule="evenodd"/>
      <path id="Trazado_176" data-name="Trazado 176" d="M1230.984,196.156s4.785-8.792,5.078-15.171c-3.2.883-13.126-4.178-13.423-8.932,0,0-3.958,3.639-3.629,20.783,0,0-5.126.184-5.972-4.923.351-8.821,5.511-26.605,16.208-25.9,9.078.6,12.6,5.7,13.561,12.781,1.409,10.438-1.337,24.62-11.823,21.364" transform="translate(-769.961 -148.623)" fill="#221e54" fill-rule="evenodd"/>
      <path id="Trazado_177" data-name="Trazado 177" d="M1150.483,142.9h0a.72.72,0,0,1,1,.184l10.443,15.176a.719.719,0,0,1-.184,1h0a.72.72,0,0,1-1-.184L1150.3,143.894a.719.719,0,0,1,.184-1" transform="translate(-750.818 -142.771)" fill="#1a1840" fill-rule="evenodd"/>
      <path id="Trazado_178" data-name="Trazado 178" d="M1135.8,160.9h0a.72.72,0,0,1,.956-.339l16.632,7.921a.72.72,0,0,1,.339.956h0a.719.719,0,0,1-.956.339l-16.633-7.921a.72.72,0,0,1-.339-.956" transform="translate(-746.419 -148.166)" fill="#1a1840" fill-rule="evenodd"/>
      <path id="Trazado_179" data-name="Trazado 179" d="M1132.077,183.189h0a.719.719,0,0,1,.659-.772l18.365-1.456a.72.72,0,0,1,.772.659h0a.719.719,0,0,1-.659.772l-18.364,1.456a.72.72,0,0,1-.772-.659" transform="translate(-745.307 -154.399)" fill="#1a1840" fill-rule="evenodd"/>
      <path id="Trazado_180" data-name="Trazado 180" d="M1200.114,196.271a7.422,7.422,0,0,1-2.517,2.212,3.572,3.572,0,0,1-1.814-.261l-5.655,5.307a5.226,5.226,0,0,1-2.114-3.094c.942-1.5,4-2.561,5.367-4.3q-.038-1.455-.076-2.911a3.668,3.668,0,0,1,2.486-.031c-.009.967,1.71,1.949,4.323,3.082" transform="translate(-762.341 -158.063)" fill="#bcbbe2" fill-rule="evenodd"/>
      <path id="Trazado_181" data-name="Trazado 181" d="M1201.455,196.766a7.421,7.421,0,0,1-2.517,2.212,3.579,3.579,0,0,1-1.814-.26l-5.655,5.307a5.23,5.23,0,0,1-2.114-3.095c.942-1.5,4-2.562,5.367-4.3q-.039-1.455-.076-2.911a3.667,3.667,0,0,1,2.486-.031c-.009.967,1.71,1.949,4.323,3.082" transform="translate(-762.75 -158.214)" fill="#dcdcf4" fill-rule="evenodd"/>
      <path id="Trazado_182" data-name="Trazado 182" d="M1188.014,203.694l.933.344a5.6,5.6,0,0,0,2.114,3.095l-.933-.345a5.374,5.374,0,0,1-2.114-3.094" transform="translate(-762.341 -161.322)" fill="#9592c5" fill-rule="evenodd"/>
      <path id="Trazado_183" data-name="Trazado 183" d="M1208.522,186.9l-7.65-3.225-3.258,7.727,7.65,3.225a3.6,3.6,0,0,0,4.7-1.913l.469-1.114a3.6,3.6,0,0,0-1.912-4.7" transform="translate(-765.265 -155.226)" fill="#f61d2d" fill-rule="evenodd"/>
      <path id="Trazado_184" data-name="Trazado 184" d="M1191.456,186.1c-8.251-2.563-13.28-1.1-20.078.529l9.742-23.109c3.578,6.006,6.044,10.626,13.64,14.743h0a11.849,11.849,0,0,1-3.3,7.835Z" transform="translate(-757.275 -149.089)" fill="#e5e5f7" fill-rule="evenodd"/>
      <path id="Trazado_185" data-name="Trazado 185" d="M1178.337,161.833c-2.856-1.2-7.454,3.234-10.27,9.912s-2.782,13.069.074,14.273,7.455-3.233,10.271-9.912,2.782-13.068-.074-14.273" transform="translate(-755.631 -148.515)" fill="#1a1840" fill-rule="evenodd"/>
      <path id="Trazado_186" data-name="Trazado 186" d="M1178.34,162.061c-2.771-1.168-7.27,3.229-10.049,9.822s-2.786,12.884-.015,14.052,7.269-3.229,10.048-9.822,2.786-12.884.016-14.052" transform="translate(-755.699 -148.587)" fill="#332a7c" fill-rule="evenodd"/>
      <path id="Trazado_187" data-name="Trazado 187" d="M1178.353,163.937c-2.062-.869-5.745,3.2-8.225,9.08s-2.82,11.358-.758,12.227,5.745-3.2,8.225-9.08,2.82-11.358.758-12.227" transform="translate(-756.253 -149.18)" fill="#c7aef9" fill-rule="evenodd"/>
      <path id="Trazado_188" data-name="Trazado 188" d="M1178.693,175.067l-.008,0h0c-.755-.3-1.786,1.06-2.579,2.942s-1.05,3.571-.306,3.9h0s-.027-.011.009,0a.8.8,0,0,0,.218.048l2.374.578a32.6,32.6,0,0,0,2.576-6.134l-2.13-1.241a.842.842,0,0,0-.154-.093" transform="translate(-758.487 -152.591)" fill="#2b2468" fill-rule="evenodd"/>
      <path id="Trazado_189" data-name="Trazado 189" d="M1178.607,175.017c-.582-.245-1.7,1.088-2.495,2.978s-.971,3.62-.39,3.865,1.7-1.088,2.495-2.977.971-3.62.39-3.866" transform="translate(-758.494 -152.581)" fill="#1a1840" fill-rule="evenodd"/>
      <path id="Trazado_190" data-name="Trazado 190" d="M794.186,375.74s-2.089,4.156-1.69,5.839a7.463,7.463,0,0,0,2.313,3.235s1.48-1.214,3.521,7.638c0,0-.616,3.771,5.613,5.734,0,0,2.881,1.842,5.407-.107,0,0,1.105-1.221.234-3.617a17.493,17.493,0,0,1-3.26-9.9,14.89,14.89,0,0,0-2.566-6.472s-.721-2.618-1.549-3.007a23.559,23.559,0,0,0-4.594-.036c-.386.138.487-.127-.806.07a21.119,21.119,0,0,0-2.625.625" transform="translate(-641.887 -213.471)" fill="#1a1840" fill-rule="evenodd"/>
      <path id="Trazado_191" data-name="Trazado 191" d="M830.018,359.26s-.851,4.925.014,6.189a6.608,6.608,0,0,0,2.939,1.938s.837-1.474,5.337,5.191c0,0,.689,3.311,6.46,2.953,0,0,2.966.605,4.433-1.808,0,0,.525-1.36-.956-3.063a15.484,15.484,0,0,1-5.841-7.145,13.191,13.191,0,0,0-4.178-4.531s-2.123-1.074-2.77-.331-5.439.606-5.439.606" transform="translate(-653.214 -208.429)" fill="#1a1840" fill-rule="evenodd"/>
      <path id="Trazado_192" data-name="Trazado 192" d="M789.009,279.952l24.46,9.409c5.609,2.156,7.662,6.368,7.9,12.677.372,9.837-.052,22.579,1.619,32.27,0,0-6.92,2.861-11.37,2.437,0,0-3.782-23.629-3.782-29.562,0,0,.106-4.45.318-5.4l-22.855-5.3-9.964-15.456Z" transform="translate(-636.677 -184.544)" fill="#221e54" fill-rule="evenodd"/>
      <path id="Trazado_193" data-name="Trazado 193" d="M791.68,279.952l24.46,9.408c5.608,2.157,7.662,6.369,7.9,12.678.372,9.837-.052,22.579,1.619,32.27a41.454,41.454,0,0,1-7.214,2.147c-1.118-8.465-3.617-27.906-3.617-32.513,0,0,.106-4.45.318-5.4l-22.855-5.3-8.183-12.694Z" transform="translate(-639.348 -184.544)" fill="#2b2468" fill-rule="evenodd"/>
      <path id="Trazado_194" data-name="Trazado 194" d="M750.012,282.656s-1.2,14.55,11.193,18.152l24.745,8.337s-6.145,9.217-6.04,36.555c0,0,6.993,3.5,10.7,2.543,0,0,5.337-33.226,8.2-37.782,2.131-7.281-2.548-10.076-7.239-13.433l-19.821-12.782-1.377-4.133-18.7-2.764Z" transform="translate(-628.956 -183.751)" fill="#221e54" fill-rule="evenodd"/>
      <path id="Trazado_195" data-name="Trazado 195" d="M786.133,347.678c2.134.7,4.619,1.241,6.371.791,0,0,5.337-33.226,8.2-37.782,2.131-7.281-2.548-10.076-7.239-13.433l-19.821-12.782-1.377-4.133-15.217-2.249-.823,2.631s-1.2,14.55,11.193,18.153l24.746,8.336s-5.761,14.719-6.031,40.468" transform="translate(-630.848 -183.977)" fill="#2b2468" fill-rule="evenodd"/>
      <path id="Trazado_196" data-name="Trazado 196" d="M788.529,208.841s5.355-1,9.729,10.016A41.649,41.649,0,0,1,800.7,237.49l-10.028-.12Z" transform="translate(-640.694 -162.882)" fill="#4512b1" fill-rule="evenodd"/>
      <path id="Trazado_197" data-name="Trazado 197" d="M774.616,204.368c5.915,1.4,12.4,12.887,7.312,37.924,0,0-2.731,11.992-5.681,15.046l-10.49,1.483s-12.551-.01-14.6-3.018c-.691-1.013-1.712-2.886-.28-6.521,4.466-11.339,1.3-34.655,1.659-41.418,1.394-2.381,8.419-5.252,9.792-4.691Z" transform="translate(-629.008 -161.142)" fill="#631aec" fill-rule="evenodd"/>
      <path id="Trazado_198" data-name="Trazado 198" d="M756.879,240.409s8.153,6.752,11.5,12.184l3.967,4.272L760.9,247.159l-9.665-9.386-2.973-12.6,5.383-9.317,2.591-7.336c10.179,8.437-.727,22,.646,31.888" transform="translate(-628.431 -162.792)" fill="#4512b1" fill-rule="evenodd"/>
      <path id="Trazado_199" data-name="Trazado 199" d="M767.143,269.9l4.141-3.975c.36-.345-.833-.559-1.234-.862-5.854-4.416-10.318-11.568-15.547-13.977a27.561,27.561,0,0,0,.839-8.656l-9.5-.449c-.208,3.276.361,6.653.466,10.363,4.919,7.961,16.246,10.237,20.835,17.555" transform="translate(-627.682 -172.98)" fill="#fdddb6" fill-rule="evenodd"/>
      <path id="Trazado_200" data-name="Trazado 200" d="M754.835,233.662c.958-5.236,3.436-10.982,3.528-14.109-.257-11.752-4.466-13.008-8.363-10.571-2.164,1.354-3.982,4.617-3.991,10.051-.006,3.83-2.172,8.284-2.723,12.739,4.236.224,9.182.451,11.549,1.89" transform="translate(-626.917 -162.618)" fill="#631aec" fill-rule="evenodd"/>
      <path id="Trazado_201" data-name="Trazado 201" d="M783.9,198.983s-2.175,2.553-.558,5.093c0,0-1.008,3.651-5.967,3.319-2.653-.22-9.427-4.65-9.174-8.1,0,0,1.138-.045,1.425-.775a18.669,18.669,0,0,0,.138-8.128Z" transform="translate(-634.502 -157.272)" fill="#fdcb90" fill-rule="evenodd"/>
      <path id="Trazado_202" data-name="Trazado 202" d="M789.063,184.893s-1.732,5.853-2.833,8.514c0,0-1.065,2.342-6.168,4.214a3.33,3.33,0,0,1-.788.213c-.979.042-1.251.185-5.892-4.9a17.645,17.645,0,0,1-2.474-4.731s-3.441-10.647-.986-13.856c0,0,2.511-6.1,10.175-4.234,0,0,9.161.715,9.523,5.4,1.885,4.751.686,6.151-.557,9.378" transform="translate(-634.759 -150.989)" fill="#fdddb6" fill-rule="evenodd"/>
      <path id="Trazado_203" data-name="Trazado 203" d="M785.694,196.027c-1.212.716-5.846-.284-6.874-1.246a2.513,2.513,0,0,0,1.04,1.83,8.341,8.341,0,0,0,2.217.565,19.652,19.652,0,0,0,2.776.01,1.061,1.061,0,0,0,.841-1.159m3.37-4.495c-.215.631-.432,3.008-2,2.688-.033-.767-1.112-1.078-1.808-.637.1-.249-1.353-1.45-3.243-.17a2.139,2.139,0,0,0-3.2-.538c-.681-.835-3.147-1.134-3.61-.111-2.431-.974-1.907-3.642-1.873-4.461l-.481-.113a14.518,14.518,0,0,1-.92,3.024c-2.043.8-1.683,4.084-.36,4.263-.91,1.748.767,4.547,2.213,4.677.479,2.242,1.63,2.612,1.63,2.612a7.163,7.163,0,0,0,7.027.772,2.809,2.809,0,0,0,2.889-1.78c.757-.022,2.8-2.175,2.022-4.345a4.331,4.331,0,0,0,1.688-3.3,11.718,11.718,0,0,0,.3-2.721Z" transform="translate(-635.199 -156.601)" fill="#221e54" fill-rule="evenodd"/>
      <path id="Trazado_204" data-name="Trazado 204" d="M787.712,177.617a4.117,4.117,0,0,1-6.041-1.922,3.743,3.743,0,0,1-4.955-1.593c.119.841-1.664,2.765-3.436,2.436,0,0-1.193,3.038-1.513,3.7l-.4-.056.314-3.429c.028-.307-2.43-1.4-2.645.857a14.135,14.135,0,0,0,.561,4.64,1.049,1.049,0,0,0,1.481.394c.034-.2-1.3,5.664-.857,6.5,0,0-2.222-1.745-2.166-3.4-.261.165-2.068-.97-1.612-2.773-.284-.059-1.4-2.725-.246-3.354a3.458,3.458,0,0,1-1.109-2.982s.072-3.1,1.842-2.783c-.211-.026-1.6-3.555,1.451-4.818-.611-1.506,1.743-4.455,4.076-2.422-.3-1.335,2.43-2.466,3.267-.631.2-1.782,4.005-2.084,3.618-.145.424-1.353,3.059-1.988,4.263.316.974-1.118,5.036.191,4.572,3.793a1.207,1.207,0,0,1,2.276.321c.542-1.071,3.441-.806,3.6,1.794.73.151,2.372,3.9-1.28,4.609.056,1.808-3.934,3.527-5.069.954" transform="translate(-633.546 -149.388)" fill="#221e54" fill-rule="evenodd"/>
      <path id="Trazado_205" data-name="Trazado 205" d="M765.717,284.819l6.647,3.716L815.22,286.3l-6.519-3.338Z" transform="translate(-633.748 -185.461)" fill="#217dc5" fill-rule="evenodd"/>
      <path id="Trazado_206" data-name="Trazado 206" d="M765.716,285.63l6.636,3.5.122,2.341-6.229-4.177a1.17,1.17,0,0,1-.532-1Z" transform="translate(-633.747 -186.273)" fill="#3091d8" fill-rule="evenodd"/>
      <path id="Trazado_207" data-name="Trazado 207" d="M818.115,287.459l-42.856,2.233.122,2.341,41.656-2.17a1.2,1.2,0,0,0,1.137-1.262Z" transform="translate(-636.653 -186.83)" fill="#3091d8" fill-rule="evenodd"/>
      <path id="Trazado_208" data-name="Trazado 208" d="M783.011,247.416l-9.638,29.034,1.323.739,11.323-31.482-.939.063a2.333,2.333,0,0,0-2.069,1.646" transform="translate(-636.079 -174.116)" fill="#3091d8" fill-rule="evenodd"/>
      <path id="Trazado_209" data-name="Trazado 209" d="M825.027,243.351,786.114,245a1.4,1.4,0,0,0-1.284.973l-10,30.511,43.317-2.256,8.3-29.08a1.413,1.413,0,0,0-1.419-1.8" transform="translate(-636.523 -173.398)" fill="#1369b1" fill-rule="evenodd"/>
      <path id="Trazado_210" data-name="Trazado 210" d="M825.167,243.656l-38.913,1.653a1.183,1.183,0,0,0-1.091.826l-9.9,30.217,42.856-2.233,8.258-28.934a1.2,1.2,0,0,0-1.207-1.53" transform="translate(-636.653 -173.491)" fill="#3ea5ec" fill-rule="evenodd"/>
      <path id="Trazado_211" data-name="Trazado 211" d="M1225.6,691.721s2.5,5.39,2.394,7.066a2.809,2.809,0,0,1-.38,1.18,24.05,24.05,0,0,0-.406,4.959c.007.682-.49.444-.609.554-.413.38-.908-3.471-.908-3.471s-.431-1.136-2.463,7.675c0,0,.614,3.754-5.589,5.708,0,0-2.868,1.833-5.382-.106,0,0-1.1-1.216-.234-3.6a17.412,17.412,0,0,0,3.245-9.858,14.828,14.828,0,0,1,2.554-6.443s.717-2.607,1.542-2.993c2.373-1.114,4.65,1.3,6.235-.669" transform="translate(-769.55 -309.931)" fill="#1a1840" fill-rule="evenodd"/>
      <path id="Trazado_212" data-name="Trazado 212" d="M1190.05,676.885s.847,4.9-.014,6.162c-.337.492-.217,3.557-.526,5.046-.132.634-.68.424-.822.52-.374.252-.9-3.646-.9-3.646s-.833-1.468-5.313,5.167c0,0-.686,3.3-6.431,2.939,0,0-2.953.6-4.413-1.8,0,0-.523-1.354.951-3.049a15.416,15.416,0,0,0,5.815-7.113,13.124,13.124,0,0,1,4.159-4.511s2.113-1.068,2.757-.329,4.732.613,4.732.613" transform="translate(-757.326 -305.148)" fill="#1a1840" fill-rule="evenodd"/>
      <path id="Trazado_213" data-name="Trazado 213" d="M1219.983,597.923l-24.351,9.365c-5.583,2.147-7.628,6.339-7.865,12.622-.37,9.792,1.491,23.194-.172,32.841a19.424,19.424,0,0,0,7.377.571s4.182-21.377,4.182-27.283c0,0-.249-5.222-.46-6.171l24.981-5.49,9.92-15.386Z" transform="translate(-762.214 -281.369)" fill="#631aec" fill-rule="evenodd"/>
      <path id="Trazado_214" data-name="Trazado 214" d="M1192.93,653.814a22.725,22.725,0,0,0,3.667-.055s4.182-21.377,4.182-27.283c0,0-.249-5.222-.46-6.171l24.981-5.49,9.92-15.386-.89-.07c-12.65,8.2-26.828,15.911-38.474,18.817,0,0,.477,21.693-2.924,35.638" transform="translate(-763.838 -281.806)" fill="#4512b1" fill-rule="evenodd"/>
      <path id="Trazado_215" data-name="Trazado 215" d="M1246.287,617.961l-26.073,8.371s4.681,6.8,4.359,35.313c-.675,1.253-3.87,4.487-7.562,3.538,0,0-5.313-33.076-8.162-37.612-2.121-7.248,2.536-10.032,7.207-13.374l19.733-12.725,1.371-4.114,16.82-4.405c5.721,7.773,6.165,18.988-7.693,25.008" transform="translate(-768.525 -279.855)" fill="#631aec" fill-rule="evenodd"/>
      <path id="Trazado_216" data-name="Trazado 216" d="M1249.892,617.961l-26.073,8.371s4.681,6.8,4.36,35.313a8.47,8.47,0,0,1-3.224,2.926c.6-15.783-4.637-39.71-4.793-40.992,5.437-1.392,24.459-6.665,32.679-12.946,5.865-4.481,5.381-11.181,2.319-17.045l2.425-.636c5.721,7.773,6.165,18.988-7.693,25.008" transform="translate(-772.131 -279.855)" fill="#4512b1" fill-rule="evenodd"/>
      <path id="Trazado_217" data-name="Trazado 217" d="M1227.2,532.407s-8.248-.259-11.78,12.023a41.8,41.8,0,0,0-.734,19.462s-3.989,10.112-.677,10.247l13.113.537Z" transform="translate(-769.856 -261.418)" fill="#f20010" fill-rule="evenodd"/>
      <path id="Trazado_218" data-name="Trazado 218" d="M1229.8,528.051c-1.578,4.549-16.16,18.909-7.2,25.746,3.713,2.832,4.508,7.076,6.367,13.564,0,0-2.694,5.51.792,8.476l11.049,1.6s15.61.19,17.478-3.262c2.143-3.963-1.135-2.517-2.331-7.653-2.979-12.793-1.389-27.646-2.482-34.864-1.746-2.406-9.205-6.929-10.619-6.183Z" transform="translate(-771.993 -259.283)" fill="#fb394b" fill-rule="evenodd"/>
      <path id="Trazado_219" data-name="Trazado 219" d="M1260.041,562.918s-6.344,7.245-8.888,12.762l-3.849,4.563,9.711-10.485,8.061-9.978,1.368-12.249-6.155-8.19-3.6-6.629c-9.009,14.372,6.383,20.3,3.35,30.206" transform="translate(-780.396 -261.512)" fill="#f20010" fill-rule="evenodd"/>
      <path id="Trazado_220" data-name="Trazado 220" d="M1248.106,592.789a3.879,3.879,0,0,1-3.6,3.728c-2.5.235-3.163-.17-3.6-.651-.5-.551-1.835.41-2.275.773-1.035.852-3.713-.426-3.713-.426a4.663,4.663,0,0,1,2.07-3.834,43.259,43.259,0,0,1,7.211-3.708c5.707-4.726,8.68-13.263,13.667-16.336a38.013,38.013,0,0,1-.766-7.929l7.91-1.67c.572,3.073-.23,7.157.342,10.589-4.835,7.183-13.194,12.5-17.238,19.463" transform="translate(-776.621 -270.654)" fill="#fdddb6" fill-rule="evenodd"/>
      <path id="Trazado_221" data-name="Trazado 221" d="M1264.158,555.741c-1.057-5.606-5.609-9.854-6.055-12.8-1.214-25.758,12.3-7.344,13.939,9.881-3.978.7-5.811,1.286-7.884,2.918" transform="translate(-783.661 -260.741)" fill="#fb394b" fill-rule="evenodd"/>
      <path id="Trazado_222" data-name="Trazado 222" d="M1239.834,607.457l-6.094,3.407-39.286-2.046,5.976-3.06Z" transform="translate(-764.302 -283.755)" fill="#217dc5" fill-rule="evenodd"/>
      <path id="Trazado_223" data-name="Trazado 223" d="M1256.99,608.2l-6.084,3.212-.111,2.146,5.709-3.829a1.071,1.071,0,0,0,.488-.919Z" transform="translate(-781.459 -284.499)" fill="#3091d8" fill-rule="evenodd"/>
      <path id="Trazado_224" data-name="Trazado 224" d="M1194.444,609.878l39.286,2.046-.112,2.146-38.186-1.989a1.1,1.1,0,0,1-1.043-1.157Z" transform="translate(-764.282 -285.009)" fill="#3091d8" fill-rule="evenodd"/>
      <path id="Trazado_225" data-name="Trazado 225" d="M1238.774,573.17l8.836,26.615-1.213.678L1236.017,571.6l.86.057a2.14,2.14,0,0,1,1.9,1.509" transform="translate(-776.959 -273.354)" fill="#3091d8" fill-rule="evenodd"/>
      <path id="Trazado_226" data-name="Trazado 226" d="M1184.594,569.444l35.672,1.516a1.278,1.278,0,0,1,1.177.891l9.167,27.97-39.708-2.068-7.609-26.658a1.3,1.3,0,0,1,1.3-1.65" transform="translate(-760.888 -272.697)" fill="#1369b1" fill-rule="evenodd"/>
      <path id="Trazado_227" data-name="Trazado 227" d="M1184.67,569.724l35.672,1.515a1.084,1.084,0,0,1,1,.757l9.079,27.7-39.286-2.046-7.57-26.524a1.1,1.1,0,0,1,1.106-1.4" transform="translate(-760.973 -272.782)" fill="#3ea5ec" fill-rule="evenodd"/>
      <path id="Trazado_228" data-name="Trazado 228" d="M1235.9,499.025s-9.665-4.155-6.3-8.5c-4.784-10.032,23.673-16.435,22.942,10.367-.081,2.991,1.317,13.416,7.176,10.639-.81,8.2-19.838,10.016-23.821-12.5" transform="translate(-774.789 -246.025)" fill="#221e54" fill-rule="evenodd"/>
      <path id="Trazado_229" data-name="Trazado 229" d="M1232.575,488.383a3.824,3.824,0,1,0,4.592,3.235,3.977,3.977,0,0,0-4.592-3.235" transform="translate(-774.809 -248.001)" fill="#217dc5" fill-rule="evenodd"/>
      <path id="Trazado_230" data-name="Trazado 230" d="M1232.047,489.345c-2.558.341-4.406,2.309-4.128,4.4s2.577,3.5,5.135,3.163,4.407-2.309,4.128-4.4-2.577-3.5-5.135-3.163" transform="translate(-774.484 -248.29)" fill="#3ea5ec" fill-rule="evenodd"/>
      <path id="Trazado_231" data-name="Trazado 231" d="M1246.133,510.479c-1.348-.4-2.909.83-3.487,2.758s.045,3.818,1.392,4.222,2.909-.83,3.487-2.758-.045-3.818-1.392-4.222" transform="translate(-778.911 -254.718)" fill="#fdddb6" fill-rule="evenodd"/>
      <path id="Trazado_232" data-name="Trazado 232" d="M1228.574,526.366s2.429,2.194,1.185,4.857c0,0,1.438,3.405,6.195,2.456,2.541-.549,8.534-5.694,7.853-9,0,0-1.107.1-1.477-.57a18.214,18.214,0,0,1-1.163-7.848Z" transform="translate(-774.692 -256.503)" fill="#fdcb90" fill-rule="evenodd"/>
      <path id="Trazado_233" data-name="Trazado 233" d="M1220.047,512.473a39.78,39.78,0,0,0,3.079,6.627c.619,1.809,5.1,4.246,6.751,3.98.875-.14,3.207-1.177,6.392-6.531a15.989,15.989,0,0,0,1.327-4.647s1.451-10.18-1.312-12.574c0,0-5.491-6.052-11.941-2.993,0,0-7.552,2.267-7.016,6.487-.8,4.555,1.028,7.02,2.721,9.653" transform="translate(-771.208 -250.171)" fill="#fdddb6" fill-rule="evenodd"/>
      <path id="Trazado_234" data-name="Trazado 234" d="M1220.516,514.017c-.4-1.53-.487-1.791-.992-3.675,3.964.17,10.635-2.618,11.889-8.418a5.77,5.77,0,0,0,5.414,4.961l.545,4.146.7-6.562c1.255-6.524-.607-14.436-8.367-13.939-9.786-.533-14.961,7.244-12.489,15.783.835,2.886,2.822,7.766,3.3,7.7" transform="translate(-771.048 -248.659)" fill="#2b2468" fill-rule="evenodd"/>
      <path id="Trazado_235" data-name="Trazado 235" d="M1130.387,475.788h46.2a2.069,2.069,0,0,1,2.063,2.062v30.261a2.069,2.069,0,0,1-2.063,2.062h-46.2a2.068,2.068,0,0,1-2.063-2.062V477.85a2.068,2.068,0,0,1,2.063-2.062" transform="translate(-744.165 -244.178)" fill="#b7d9f9" fill-rule="evenodd"/>
      <path id="Trazado_236" data-name="Trazado 236" d="M1124.882,507.335a2.305,2.305,0,0,1-2.3-2.3v-31.22a2.305,2.305,0,0,1,2.3-2.3h47.663a2.3,2.3,0,0,1,2.3,2.3v31.22a2.3,2.3,0,0,1-2.3,2.3h-47.663" transform="translate(-742.417 -242.877)" fill="#7433ee" fill-rule="evenodd"/>
      <path id="Trazado_237" data-name="Trazado 237" d="M1124.956,471.763h47.663a2.134,2.134,0,0,1,2.128,2.128v31.22a2.134,2.134,0,0,1-2.128,2.128h-47.663a2.134,2.134,0,0,1-2.128-2.128v-31.22a2.134,2.134,0,0,1,2.128-2.128" transform="translate(-742.491 -242.952)" fill="#fff" fill-rule="evenodd"/>
      <path id="Trazado_238" data-name="Trazado 238" d="M1163.916,500.031a3.827,3.827,0,0,1-.467,2.093,2.7,2.7,0,0,1-1.546,1.032,10.627,10.627,0,0,1-2.984.33v-2.8a2.277,2.277,0,0,0,1.558-.449,1.753,1.753,0,0,0,.428-1.3V495.1a2.327,2.327,0,0,1,.674-1.729,3.566,3.566,0,0,1,1.986-.871v-.152q-2.594-.418-2.66-2.748v-3.7a1.752,1.752,0,0,0-.421-1.285,2.322,2.322,0,0,0-1.565-.46v-2.786a10.727,10.727,0,0,1,2.991.33,2.652,2.652,0,0,1,1.546,1.04,3.829,3.829,0,0,1,.46,2.071v4.063a1.809,1.809,0,0,0,.705,1.56,3.748,3.748,0,0,0,2.216.52v2.964a3.866,3.866,0,0,0-2.173.508,1.914,1.914,0,0,0-.748,1.708Zm-17.936-3.9a1.948,1.948,0,0,0-.748-1.649,3.563,3.563,0,0,0-2.173-.567v-2.964a3.677,3.677,0,0,0,2.178-.541,1.824,1.824,0,0,0,.744-1.564v-4.038a3.025,3.025,0,0,1,1.106-2.668,7.129,7.129,0,0,1,3.891-.773v2.786a2.263,2.263,0,0,0-1.558.474,1.737,1.737,0,0,0-.428,1.272v3.7q-.07,2.327-2.672,2.748v.152q2.67.431,2.672,2.625v3.813a1.769,1.769,0,0,0,.421,1.277,2.3,2.3,0,0,0,1.566.469v2.8a7.121,7.121,0,0,1-3.891-.774,3.038,3.038,0,0,1-1.106-2.68Z" transform="translate(-748.652 -245.876)" fill="#631aec"/>
      <path id="Trazado_239" data-name="Trazado 239" d="M861.307,188.423h47.882a2.145,2.145,0,0,1,2.139,2.138v31.364a2.145,2.145,0,0,1-2.139,2.138H861.307a2.144,2.144,0,0,1-2.138-2.138V190.561a2.144,2.144,0,0,1,2.138-2.138" transform="translate(-662.205 -156.672)" fill="#b7d9f9" fill-rule="evenodd"/>
      <path id="Trazado_240" data-name="Trazado 240" d="M855.6,221.12a2.389,2.389,0,0,1-2.382-2.383V186.38A2.389,2.389,0,0,1,855.6,184H905a2.389,2.389,0,0,1,2.383,2.382v32.358A2.389,2.389,0,0,1,905,221.12H855.6" transform="translate(-660.393 -155.325)" fill="#7433ee" fill-rule="evenodd"/>
      <path id="Trazado_241" data-name="Trazado 241" d="M855.678,184.251h49.4a2.213,2.213,0,0,1,2.206,2.206v32.358a2.212,2.212,0,0,1-2.206,2.206h-49.4a2.213,2.213,0,0,1-2.206-2.206V186.457a2.213,2.213,0,0,1,2.206-2.206" transform="translate(-660.47 -155.402)" fill="#fff" fill-rule="evenodd"/>
      <path id="Trazado_242" data-name="Trazado 242" d="M890.281,210.292l8.707-3.574-8.707-4.035V199.63l12.637,6.31v1.819l-12.637,5.572Zm-1.251-12.981-6.935,18.6h-3.522l6.931-18.6Zm-11.752,16.021-12.638-5.572V205.94l12.638-6.31v3.053l-8.708,4.035,8.708,3.574Z" transform="translate(-663.871 -159.379)" fill="#631aec"/>
      <path id="Trazado_243" data-name="Trazado 243" d="M583.911,354.862h42.446a1.9,1.9,0,0,1,1.9,1.9v27.8a1.9,1.9,0,0,1-1.9,1.9H583.911a1.9,1.9,0,0,1-1.9-1.9v-27.8a1.9,1.9,0,0,1,1.9-1.9" transform="translate(-577.809 -207.354)" fill="#b7d9f9" fill-rule="evenodd"/>
      <path id="Trazado_244" data-name="Trazado 244" d="M578.079,382.764a2.118,2.118,0,0,1-2.112-2.112V351.967a2.117,2.117,0,0,1,2.112-2.112h43.792a2.117,2.117,0,0,1,2.112,2.112v28.684a2.118,2.118,0,0,1-2.112,2.112H578.079" transform="translate(-575.967 -205.83)" fill="#7433ee" fill-rule="evenodd"/>
      <path id="Trazado_245" data-name="Trazado 245" d="M578.148,350.08h43.792a1.961,1.961,0,0,1,1.955,1.956V380.72a1.961,1.961,0,0,1-1.955,1.955H578.148a1.961,1.961,0,0,1-1.956-1.955V352.036a1.962,1.962,0,0,1,1.956-1.956" transform="translate(-576.035 -205.898)" fill="#fff" fill-rule="evenodd"/>
      <path id="Trazado_246" data-name="Trazado 246" d="M618.2,364.771l3.2-3.387a12.019,12.019,0,0,1,1.713,14.669l-3.89-2.559a7.368,7.368,0,0,0-1.019-8.724" transform="translate(-588.826 -209.34)" fill="#fb394b" fill-rule="evenodd"/>
      <path id="Trazado_247" data-name="Trazado 247" d="M601.179,378.639a7.366,7.366,0,0,0,9.949-1.749l3.89,2.558a12.017,12.017,0,0,1-21.579-9.306l4.531,1.074a7.366,7.366,0,0,0,3.209,7.424" transform="translate(-581.217 -212.007)" fill="#7433ee" fill-rule="evenodd"/>
      <path id="Trazado_248" data-name="Trazado 248" d="M605.405,360.888a7.374,7.374,0,0,0-7.045,5.245l-4.532-1.074a12.032,12.032,0,0,1,11.848-8.819Z" transform="translate(-581.406 -207.773)" fill="#332a7c" fill-rule="evenodd"/>
      <path id="Trazado_249" data-name="Trazado 249" d="M611.726,360.961l.271-4.648a11.96,11.96,0,0,1,5.469,1.924,12.2,12.2,0,0,1,1.321,1l-3.2,3.388a7.578,7.578,0,0,0-.681-.506,7.345,7.345,0,0,0-3.184-1.162" transform="translate(-586.856 -207.796)" fill="#ffa000" fill-rule="evenodd"/>
      <path id="Trazado_250" data-name="Trazado 250" d="M1293.464,257.141h38.692a1.732,1.732,0,0,1,1.728,1.728v25.344a1.733,1.733,0,0,1-1.728,1.728h-38.692a1.732,1.732,0,0,1-1.727-1.728V258.869a1.732,1.732,0,0,1,1.727-1.728" transform="translate(-793.926 -177.598)" fill="#b7d9f9" fill-rule="evenodd"/>
      <path id="Trazado_251" data-name="Trazado 251" d="M1288.854,283.563a1.931,1.931,0,0,1-1.925-1.925V255.49a1.93,1.93,0,0,1,1.925-1.924h39.918a1.93,1.93,0,0,1,1.925,1.924v26.148a1.931,1.931,0,0,1-1.925,1.925h-39.918" transform="translate(-792.462 -176.509)" fill="#7433ee" fill-rule="evenodd"/>
      <path id="Trazado_252" data-name="Trazado 252" d="M1288.917,253.77h39.918a1.788,1.788,0,0,1,1.783,1.783V281.7a1.788,1.788,0,0,1-1.783,1.782h-39.918a1.787,1.787,0,0,1-1.782-1.782V255.553a1.788,1.788,0,0,1,1.782-1.783" transform="translate(-792.524 -176.571)" fill="#fff" fill-rule="evenodd"/>
      <path id="Trazado_253" data-name="Trazado 253" d="M1316.877,274.812l7.035-2.888-7.035-3.26V266.2l10.211,5.1v1.47l-10.211,4.5Zm-1.011-10.489-5.6,15.034h-2.846l5.6-15.034Zm-9.5,12.946-10.212-4.5V271.3l10.212-5.1v2.467l-7.036,3.26,7.036,2.888Z" transform="translate(-795.272 -179.784)" fill="#631aec"/>
      <path id="Trazado_254" data-name="Trazado 254" d="M743.241,691.29l-.472,7.629-7.8.093-.451-8.291Z" transform="translate(-624.247 -309.627)" fill="#332a7c" fill-rule="evenodd"/>
      <path id="Trazado_255" data-name="Trazado 255" d="M714.139,691.119l-.564,7.261-8.039-.023-.262-7.506Z" transform="translate(-615.342 -309.667)" fill="#332a7c" fill-rule="evenodd"/>
      <path id="Trazado_256" data-name="Trazado 256" d="M739.42,655.792s-11.289,1.506-11.062-.687c1.189-11.471-.888-26.234.64-32.94,1.011-4.437-2.971-9.317-3.473-14.258l-7.235-38.984,22.312.8c1.236,8.762,4.636,31.817,2.575,51.41-.887,8.431-3.32,24.272-3.758,34.66" transform="translate(-619.306 -272.538)" fill="#2b2468" fill-rule="evenodd"/>
      <path id="Trazado_257" data-name="Trazado 257" d="M733.61,661.689c-2.286,0-4.231-.268-4.135-1.191,1.189-11.471-.887-26.234.641-32.94,1.01-4.437-2.971-9.317-3.474-14.258l-4.681-25.23,10.118-1.44s-.591,23.8,2.36,36.2c0,0,.633,23.445-.828,38.863" transform="translate(-620.423 -277.93)" fill="#221e54" fill-rule="evenodd"/>
      <path id="Trazado_258" data-name="Trazado 258" d="M705.161,568.507c-1.8,4.946-2.676,13.559-.072,23.213-.287,7.554,2.145,19.138,2.119,26.471-.019,5.439-3.989,23.474-4.493,36.719a23.271,23.271,0,0,0,12.049.205c1.773-13.989,4.293-22.628,6.624-34.964,1.335-7.065,2.377-16.727,3.67-23.387,1.177-6.068.758-8.175,4.846-12.99,3.119-3.674,6.659-10.32,6.4-14.639Z" transform="translate(-614.563 -272.411)" fill="#2b2468" fill-rule="evenodd"/>
      <path id="Trazado_259" data-name="Trazado 259" d="M705.161,568.507c-1.8,4.946-2.676,13.559-.072,23.213-.287,7.554,2.145,19.138,2.119,26.471-.019,5.439-3.989,23.474-4.493,36.718a17.879,17.879,0,0,0,4.182.814c1.633-11.35,6.6-36.46,6.6-36.46.2-3.344-1.77-28.523-1.77-28.523-1.6-5.107-1.166-15.437-.351-22.113Z" transform="translate(-614.563 -272.411)" fill="#221e54" fill-rule="evenodd"/>
      <path id="Trazado_260" data-name="Trazado 260" d="M737.768,707.621c3.6.04,5.892-.414,9.759-.042,10.6,1.019,12.342-.063,11.949-3.082,0-.886-11.87-4.813-16.126-9.11-.536-.54-2.514.139-2.911.862a2.894,2.894,0,0,0-.157,1.955c-1.73.642-4.355-.106-5.937-.469-.789-.181-.928,1.263-.967,2.974-.113,4.867-.525,6.858,4.391,6.913" transform="translate(-623.882 -310.988)" fill="#1a1840" fill-rule="evenodd"/>
      <path id="Trazado_261" data-name="Trazado 261" d="M715.693,708.333c5.018.019,6.295-.974,5.748-3.6-.251-1.376-6.187-5.008-7.285-8.37a4.8,4.8,0,0,0-1.26-.2,24.409,24.409,0,0,0-5.2.205,5,5,0,0,0-1.013,2.417,1.48,1.48,0,0,1-1.415-.41c-.969-.638-.715,5.873-.415,7.485.588,3.164,6.636,2.457,10.841,2.473" transform="translate(-615.131 -311.271)" fill="#1a1840" fill-rule="evenodd"/>
      <path id="Trazado_262" data-name="Trazado 262" d="M774.075,514.308a7.019,7.019,0,0,1,7.166-1.976c4.1,1.544,6.33-3.3,7.448-3.891,2.3,2.121-3.975,13.159-11.911,10.226-3.758,1.124-10.928,16.886-19.8,17.321-2.771-1.857-22.623-21.305-23.009-24.474-1.447-7.757,5.214-8.952,8.943-6.351.943.716,12.173,18.056,15.381,21.784,2.926-4.405,10.395-7.619,15.787-12.641" transform="translate(-624.017 -252.745)" fill="#fdddb6" fill-rule="evenodd"/>
      <path id="Trazado_263" data-name="Trazado 263" d="M732.818,505.724c-2.216-4.3,4.737-10.581,10.357-3.7,2.85,3.488,8.113,13.263,14.475,23.309,1.527-3.091,5.317-5.252,14.3-11.206,1.392,1.4,2.5,4.47,2.855,6.628,0,0-12.361,14.836-18.847,13.789-9.4-7.376-19.579-19.112-23.137-28.816" transform="translate(-623.601 -251.235)" fill="#3ea5ec" fill-rule="evenodd"/>
      <path id="Trazado_264" data-name="Trazado 264" d="M732.818,507.576a3.883,3.883,0,0,1-.349-2.53l24.844,28.2s9.256-6.213,17.163-12.132a15.114,15.114,0,0,1,.326,1.49s-12.361,14.836-18.847,13.79c-9.4-7.376-19.579-19.112-23.137-28.816" transform="translate(-623.601 -253.087)" fill="#3091d8" fill-rule="evenodd"/>
      <path id="Trazado_265" data-name="Trazado 265" d="M723.678,494.822c9.562,1.066,14.83,10.513,11,39.81,0,0,5.232,17.213.992,18.883l-13.509,1.7c-6.971,1.166-20.121,1.983-18.057-8.892,2.6-13.687-1.566-37.806-2.03-45.43.156-3.833,8.9-8.363,11.659-7.732,4.709-.74,5.3,1.735,9.945,1.659" transform="translate(-614.368 -249.426)" fill="#3ea5ec" fill-rule="evenodd"/>
      <path id="Trazado_266" data-name="Trazado 266" d="M737.15,552.869a2.869,2.869,0,0,1-1.479,2.346l-13.509,1.7c-6.972,1.166-20.121,1.983-18.057-8.892,2.6-13.687-1.566-37.806-2.029-45.43.054-1.328,1.138-2.739,2.648-3.99l6.331,2.643c.851.355-.887,26.957-1.2,30.35a34.759,34.759,0,0,0,.1,7.383c2.1,16.364,13.428,17.544,27.192,13.888" transform="translate(-614.368 -251.126)" fill="#3091d8" fill-rule="evenodd"/>
      <path id="Trazado_267" data-name="Trazado 267" d="M688.758,525.9c4.526,1.883,8.959,8.669,16.076,17.461,0,0,5.053-.515,5.688,1.029,0,0,1.732,3.216.855,4.326,0,0-.525.638-1.093.562,0,0-1.673,1.9-2.788,2.046-.333.392-2.856,0-3.932-1.891a3.684,3.684,0,0,1-3.473-3.29c-2.093-1.933-22.811-15.388-19.289-21.28,6-8.057,9.1-16.934,16.608-24.556,5.717-.159,8.106,3.434,5.282,12.413-5.185,4.96-8.749,8.221-13.934,13.181" transform="translate(-607.768 -251.642)" fill="#fdddb6" fill-rule="evenodd"/>
      <path id="Trazado_268" data-name="Trazado 268" d="M699.212,497.609c-8.282.625-16.68,20.854-19.355,26.045-.9,8.779,12.97,15.379,16.775,20.861a6.728,6.728,0,0,0,6.469-4.337c-2.954-3.863-9.345-12.156-13.687-15.057,0,0,12.239-10.266,13.616-13.944,0,0,5.65-13.031-3.818-13.567" transform="translate(-607.59 -250.822)" fill="#3ea5ec" fill-rule="evenodd"/>
      <path id="Trazado_269" data-name="Trazado 269" d="M705.224,544.489a7.153,7.153,0,0,0,.836-1.507c-2.954-3.863-9.345-12.156-13.687-15.057,0,0,12.239-10.266,13.616-13.944a22.359,22.359,0,0,0,1.669-7.159c-6.23,8.679-18.125,21.342-18.125,21.342,2.517.431,10.688,10.126,15.691,16.325" transform="translate(-610.549 -253.628)" fill="#3091d8" fill-rule="evenodd"/>
      <path id="Trazado_270" data-name="Trazado 270" d="M732.285,489.342s-2.025,2.621-.31,5.051c0,0-.822,3.649-5.729,3.556-2.629-.09-9.521-4.141-9.434-7.555,0,0,1.12-.1,1.369-.832a18.451,18.451,0,0,0-.249-8.025Z" transform="translate(-618.855 -245.928)" fill="#fcbe72" fill-rule="evenodd"/>
      <path id="Trazado_271" data-name="Trazado 271" d="M790.944,615.929a5.227,5.227,0,1,0,4.613,5.19,5.228,5.228,0,0,0-4.613-5.19M780.114,446.856a22.957,22.957,0,0,0-.069,40.745V620.994a10.286,10.286,0,0,0,20.572,0V487.927a22.958,22.958,0,0,0,.579-41.071v23.192H780.114Z" transform="translate(-634.353 -235.368)" fill="#d7c6fb" fill-rule="evenodd"/>
      <path id="Trazado_272" data-name="Trazado 272" d="M790.33,616.292a5.227,5.227,0,1,0,5.227,5.227,5.227,5.227,0,0,0-5.227-5.227m-8.008-127.258V621.393a8.008,8.008,0,0,0,16.016,0V488.638a22.954,22.954,0,0,0,2.857-40.471v22.281h-22.68V448.167a22.955,22.955,0,0,0,3.807,40.867Z" transform="translate(-634.353 -235.767)" fill="#f7f5ff" fill-rule="evenodd"/>
      <path id="Trazado_273" data-name="Trazado 273" d="M787.752,617.724a4.9,4.9,0,1,1-1.235,3.251,4.881,4.881,0,0,1,1.235-3.251m3-2.263a5.554,5.554,0,0,0,.009,11.031.333.333,0,0,0,.083,0,5.554,5.554,0,0,0-.009-11.031A.305.305,0,0,0,790.755,615.461Zm-19.584-160.1a22.737,22.737,0,0,1,8.47-8.1V469.9a.329.329,0,0,0,.329.329h21.082a.329.329,0,0,0,.328-.329V447.259a22.629,22.629,0,0,1-1.029,40.22.328.328,0,0,0-.206.3V620.85a9.958,9.958,0,0,1-19.915,0V487.458a.33.33,0,0,0-.177-.29,22.635,22.635,0,0,1-8.882-31.807Zm8.628-8.928a23.282,23.282,0,0,0-.225,41.221v133.2a10.614,10.614,0,0,0,21.228,0V487.988a23.283,23.283,0,0,0,.4-41.567.329.329,0,0,0-.479.291v22.863H780.3V446.712a.328.328,0,0,0-.5-.28Z" transform="translate(-634.209 -235.224)" fill="#7433ee"/>
      <path id="Trazado_274" data-name="Trazado 274" d="M734.7,467.562s.285,6.3.109,9.267c0,0-.248,2.645-4.6,6.2a3.4,3.4,0,0,1-.7.474c-.941.372-2.783.972-9.03-2.422a18.218,18.218,0,0,1-4.012-3.784s-7.36-9.139-6.047-13.1a12.565,12.565,0,0,1,10.534-8.029s9.184-2.4,11.119,2.056c3.444,4,2.747,5.773,2.622,9.343" transform="translate(-616.864 -238.006)" fill="#fdddb6" fill-rule="evenodd"/>
      <path id="Trazado_275" data-name="Trazado 275" d="M739.521,457.243s-3.508,1.017-5.9.1c0,0,1.691-.463,2.871-3.193-5.559,3.574-14.614-10.974-25.261.592a4.378,4.378,0,0,1-.453-2.646,8.688,8.688,0,0,0-1.582,4.754l-2.375-1.006,1.191,2.987c-4.549,4.032,2.16,11.774,4.553,14.7.982,2.648,2.855,3.79,4.254,4.774l-.949-2.97c-2.251-1.02-5.59-6.211-1.27-5.372a17.8,17.8,0,0,0,2.1,3.9l.453-.193a9.609,9.609,0,0,1-.573-3.361,4.05,4.05,0,0,0,.4-4.667c3.524.133,21.32-1.315,22.538-8.395" transform="translate(-615.704 -236.382)" fill="#221e54" fill-rule="evenodd"/>
    </g>
  </g>
</svg>
