<svg xmlns="http://www.w3.org/2000/svg" xmlns:xlink="http://www.w3.org/1999/xlink" width="505" height="216.045" viewBox="0 0 505 216.045">
  <defs>
    <clipPath id="clip-path">
      <rect id="Rectángulo_338008" data-name="Rectángulo 338008" width="191.94" height="216.045" fill="none"/>
    </clipPath>
  </defs>
  <g id="Grupo_155898" data-name="Grupo 155898" transform="translate(-495 -18578.688)">
    <g id="c" transform="translate(495 18578.688)">
      <path id="Trazado_684056" data-name="Trazado 684056" d="M216.045,108.023a107.519,107.519,0,0,1-13.655,52.609v0q-2.467,4.411-5.322,8.558a108.085,108.085,0,0,1-177.823.384q-3.009-4.319-5.591-8.942v0a108.031,108.031,0,1,1,202.391-52.609Z" fill="#2d3a3e"/>
      <path id="Trazado_684057" data-name="Trazado 684057" d="M221.076,93.835v82.318q0,.78-.053,1.561A108.224,108.224,0,0,1,206.367,198l-56.516,32.623a108.881,108.881,0,0,1-46.4,0L57.009,203.816,46.947,198a108.068,108.068,0,0,1-14.66-20.291q-.053-.78-.053-1.561V93.835A23.15,23.15,0,0,1,43.795,73.8l71.3-41.159a23.1,23.1,0,0,1,23.121,0l57.032,32.927L209.514,73.8A23.151,23.151,0,0,1,221.076,93.835Z" transform="translate(-18.632 -17.078)" fill="#004284"/>
      <path id="Trazado_684058" data-name="Trazado 684058" d="M218.154,82.592,37.879,186.656q-3.009-4.319-5.591-8.942v0c-.035-.516-.053-1.036-.053-1.556V93.835A23.142,23.142,0,0,1,43.8,73.8l71.3-41.159a23.087,23.087,0,0,1,23.117,0l57.036,32.927L209.516,73.8A23.169,23.169,0,0,1,218.154,82.592Z" transform="translate(-18.634 -17.078)" fill="#6399d4"/>
      <path id="Trazado_684059" data-name="Trazado 684059" d="M351.061,166.5v82.318c0,.52-.018,1.041-.053,1.556v0q-2.467,4.411-5.322,8.558l-88.579-51.132,91.03-52.548A23.082,23.082,0,0,1,351.061,166.5Z" transform="translate(-148.618 -89.745)" fill="#00579e"/>
      <g id="Grupo_155895" data-name="Grupo 155895" transform="translate(44.036 54.438)">
        <path id="Trazado_684060" data-name="Trazado 684060" d="M196.054,208.355a31.665,31.665,0,1,1-.316-31.265l28-16.163a64,64,0,1,0,.316,63.59Z" transform="translate(-104.36 -129.01)" fill="#f2f2f2"/>
        <path id="Trazado_684061" data-name="Trazado 684061" d="M375.307,259.79h-7.275v-7.275h-7.054v7.275H353.7v7.054h7.275v7.275h7.054v-7.275h7.275Z" transform="translate(-248.489 -200.4)" fill="#f2f2f2"/>
        <path id="Trazado_684062" data-name="Trazado 684062" d="M438,259.79h-7.275v-7.275h-7.054v7.275H416.4v7.054h7.275v7.275h7.054v-7.275H438Z" transform="translate(-284.728 -200.4)" fill="#f2f2f2"/>
      </g>
    </g>
    <g id="Grupo_155897" data-name="Grupo 155897" transform="translate(808.06 18578.688)">
      <g id="Grupo_155896" data-name="Grupo 155896" transform="translate(0 0)" clip-path="url(#clip-path)">
        <path id="Trazado_684063" data-name="Trazado 684063" d="M2.687,162.149a17.3,17.3,0,0,1-2.5-7.29,46.576,46.576,0,0,1-.149-6.038c-.014-19.884-.1-39.769.037-59.653.061-8.988-.09-17.978.138-26.962A16.572,16.572,0,0,1,8.559,47.752c10.2-6.1,20.559-11.933,30.852-17.877Q55.7,20.469,71.983,11.063C77.4,7.937,82.812,4.8,88.252,1.717A14.569,14.569,0,0,1,94.29.073a20.184,20.184,0,0,1,12.178,3.065Q143.229,24.5,180.09,45.684c2.387,1.378,4.849,2.647,6.71,4.769a18,18,0,0,1,2.713,3.607c-1.648,1.171-3.454,2.076-5.2,3.087q-8.779,5.093-17.568,10.171-7.048,4.085-14.1,8.162c-.4.23-.766.587-1.295.5a15.539,15.539,0,0,1-2.319-3.24,69.212,69.212,0,0,0-17.819-17.868,60.763,60.763,0,0,0-26.133-9.993,57.587,57.587,0,0,0-10.649-.568A68.844,68.844,0,0,0,78.051,47a65.838,65.838,0,0,0-17.332,7.97,64.651,64.651,0,0,0-9.266,7.341A61.4,61.4,0,0,0,41.186,75.008a60.554,60.554,0,0,0-8.363,24.314,59.247,59.247,0,0,0-.479,10.119A69.637,69.637,0,0,0,37.792,133.8a40.366,40.366,0,0,0,2.515,5.109,2.113,2.113,0,0,1,.406,1.069c-.135.458-.569.584-.915.786-5.37,3.143-10.766,6.242-16.147,9.366q-9.264,5.377-18.541,10.733a10.823,10.823,0,0,1-2.422,1.282" transform="translate(0 -0.004)" fill="#9765d2"/>
        <path id="Trazado_684064" data-name="Trazado 684064" d="M466.754,325.239q7.966-4.592,15.931-9.186,10.734-6.2,21.461-12.415c.23-.133.441-.31.735-.249a18.706,18.706,0,0,1,2.428,9.52q-.052,44.7-.014,89.4a17,17,0,0,1-2.543,9.193c-12.359-7.229-24.783-14.346-37.168-21.532-.282-.164-.585-.289-.866-.455-4.242-2.556-8.564-4.974-12.843-7.466q-6.534-3.806-13.092-7.571c-1.98-1.133-1.412-1.13-2.649.627a34.239,34.239,0,0,1-12.954,11.39,29.666,29.666,0,0,1-11.007,2.976,32.24,32.24,0,0,1-23.889-8,29.844,29.844,0,0,1-6.169-7.205,1.557,1.557,0,0,1-.377-1.063,19.986,19.986,0,0,1,3.238-2.01q11.078-6.434,22.173-12.841c9.4-5.42,18.777-10.894,28.2-16.289.643-.369,1.267-.77,1.932-1.1q9.661-5.641,19.355-11.223c2.409-1.391,4.8-2.807,7.231-4.168.279-.157.532-.391.894-.323" transform="translate(-315.369 -249.334)" fill="#390088"/>
        <path id="Trazado_684065" data-name="Trazado 684065" d="M361.91,786.089a38.717,38.717,0,0,1,4.9,2.67c3.987,2.258,7.937,4.581,11.9,6.883q6.441,3.742,12.879,7.491c2.482,1.438,4.977,2.852,7.462,4.285.346.2.778.325.881.8a16.486,16.486,0,0,1-6.148,6.153q-39.27,22.7-78.583,45.332a16.719,16.719,0,0,1-17.326-.046c-13.55-7.688-27-15.546-40.494-23.339-.356-.205-.695-.439-1.042-.659-.444-.783.18-1.152.642-1.523,1.732-1.389,3.487-2.751,5.237-4.119,6.393-5,12.8-9.969,19.164-15A5.051,5.051,0,0,1,284.4,813.7c1.607.414,3.159,1.006,4.759,1.447a69.5,69.5,0,0,0,12.669,2.3c1.773.15,3.561.286,5.318.262a67.885,67.885,0,0,0,13.935-1.524,61.218,61.218,0,0,0,20.239-8.48,59.613,59.613,0,0,0,12.172-10.464,68.694,68.694,0,0,0,7.636-10.371c.189-.318.316-.726.782-.778" transform="translate(-210.546 -646.056)" fill="#2b0069"/>
        <path id="Trazado_684066" data-name="Trazado 684066" d="M86.179,814.05c-2.015.11-3.186,1.67-4.6,2.755-4.847,3.709-9.643,7.486-14.454,11.241q-4.15,3.239-8.288,6.492a1.329,1.329,0,0,0-.647,1.277c-3.135-1.791-6.277-3.571-9.4-5.375q-13.509-7.789-27.011-15.589a18.354,18.354,0,0,1-6.685-6.5,17.421,17.421,0,0,1,3.074-1.912q17.15-9.952,34.317-19.874c.179-.1.365-.2.548-.293.374.062.512.376.676.652a60.074,60.074,0,0,0,9.21,11.923,62.769,62.769,0,0,0,13.5,10.344,61.235,61.235,0,0,0,8.9,4.222c.328.121.783.144.864.634" transform="translate(-12.397 -646.21)" fill="#340083"/>
        <path id="Trazado_684067" data-name="Trazado 684067" d="M221.9,371.066a81.364,81.364,0,0,1-9.619-4.5,62.169,62.169,0,0,1-23.335-22.982c-.059-.1-.135-.192-.2-.288a67.085,67.085,0,0,1-5.907-14.248,70.778,70.778,0,0,1-2.494-14.947,61.716,61.716,0,0,1,6.62-32.161,60.94,60.94,0,0,1,16.505-20.144,65.755,65.755,0,0,1,30.151-13.558,62.35,62.35,0,0,1,18.682-.471c15.52,1.944,28.383,8.937,38.923,20.364a71.727,71.727,0,0,1,8.279,11q-6.552,3.816-13.1,7.631-7.134,4.14-14.279,8.262c-.524.18-.756-.193-.971-.542a32.419,32.419,0,0,0-4.585-5.777,31.048,31.048,0,0,0-9.437-6.585,30.532,30.532,0,0,0-14.832-2.684,31.184,31.184,0,0,0-19.249,8.082,31.955,31.955,0,0,0-10.374,20.78,29.948,29.948,0,0,0,2.988,16.679,6.976,6.976,0,0,1,.914,2.107,26.28,26.28,0,0,0,5.419,6.993,31.785,31.785,0,0,0,22.046,9.149c9.836.138,17.846-3.9,24.255-11.264a32.473,32.473,0,0,0,3.176-4.284c.276-.448.492-.519.964-.244q13.292,7.726,26.6,15.42c.178.1.377.183.448.4a71.326,71.326,0,0,1-8.731,11.87,60.7,60.7,0,0,1-33.828,18.8,65.3,65.3,0,0,1-34.431-2.7c-.193-.068-.4-.109-.593-.162" transform="translate(-148.115 -203.226)" fill="#fefefe"/>
        <path id="Trazado_684068" data-name="Trazado 684068" d="M364.417,474.092a24.979,24.979,0,0,1-3.374-8.164c-2.533-11.159.13-21.051,7.669-29.561a29.946,29.946,0,0,1,19.345-9.951,30.723,30.723,0,0,1,25.481,8.157,33.641,33.641,0,0,1,5.715,6.9c.17.268.287.609.71.557q-27.453,15.885-54.908,31.768a6.987,6.987,0,0,1-.639.291" transform="translate(-295.962 -350.234)" fill="#9a6bd4"/>
        <path id="Trazado_684069" data-name="Trazado 684069" d="M734.47,538.735c.3-2.859.567-5.632.886-8.4.061-.531-.05-.673-.573-.658-1.127.032-2.256-.008-3.383.019-.453.011-.625-.108-.614-.591q.046-1.958,0-3.917c-.013-.505.2-.579.631-.573,1.306.02,2.612-.011,3.917.017.487.011.649-.136.7-.637.183-1.978.407-3.953.651-5.924.069-.56-.022-.8-.659-.767-1.066.052-2.136,0-3.2.022-.414.009-.576-.109-.569-.548.023-1.335.03-2.671,0-4.006-.012-.491.167-.593.614-.582,1.127.028,2.264-.077,3.381.035.96.1,1.112-.337,1.181-1.126.189-2.156.475-4.3.658-6.46.051-.6.278-.711.811-.7q1.869.051,3.739,0c.579-.016.825.045.732.758-.293,2.263-.474,4.541-.738,6.809-.064.549.047.717.623.7,1.572-.04,3.146-.033,4.718,0,.5.01.645-.166.69-.65.216-2.332.489-4.659.7-6.992.048-.519.263-.63.729-.622,1.306.023,2.613.041,3.917-.006.623-.022.73.188.664.76-.26,2.238-.428,4.488-.733,6.72-.107.778.176.808.772.789,1.067-.034,2.137.014,3.2-.02.509-.016.742.073.72.665-.048,1.274-.038,2.552,0,3.827.014.516-.159.657-.657.645-1.335-.03-2.671.006-4.006-.018-.475-.009-.66.11-.7.631-.171,2.009-.375,4.016-.632,6.015-.08.622.141.691.654.677,1.038-.029,2.078.02,3.115-.02.563-.021.789.117.765.731-.048,1.245-.031,2.493-.005,3.739.01.463-.138.622-.606.613-1.276-.025-2.553.019-3.828-.021-.543-.017-.689.157-.739.687-.242,2.568-.552,5.13-.8,7.7-.049.509-.154.711-.717.691-1.334-.048-2.672-.053-4.005,0-.642.026-.722-.218-.659-.762.288-2.474.527-4.954.836-7.425.088-.7-.063-.924-.8-.894-1.452.059-2.909.052-4.362,0-.6-.022-.76.226-.81.747-.24,2.479-.54,4.954-.728,7.437-.057.758-.311.921-1.01.9-1.476-.051-2.956-.016-4.467-.016" transform="translate(-600.604 -414.169)" fill="#fefefe"/>
        <path id="Trazado_684070" data-name="Trazado 684070" d="M792.923,586.31c-.8,0-1.6-.022-2.4.009-.448.017-.569-.156-.523-.57.23-2.088.457-4.176.663-6.266.038-.38.182-.491.552-.488q2.443.025,4.885,0c.416,0,.574.1.523.551q-.349,3.086-.642,6.179c-.048.513-.294.613-.751.594-.768-.032-1.539-.009-2.309-.009" transform="translate(-649.264 -475.853)" fill="#3a0095"/>
      </g>
    </g>
  </g>
</svg>
