<svg id="Grupo_167827" data-name="Grupo 167827" xmlns="http://www.w3.org/2000/svg" xmlns:xlink="http://www.w3.org/1999/xlink" width="400" height="391.238" viewBox="0 0 400 391.238">
  <defs>
    <clipPath id="clip-path">
      <rect id="Rectángulo_342077" data-name="Rectángulo 342077" width="400" height="391.239" fill="none"/>
    </clipPath>
    <clipPath id="clip-path-2">
      <rect id="Rectángulo_342066" data-name="Rectángulo 342066" width="400" height="391.238" fill="none"/>
    </clipPath>
    <clipPath id="clip-path-3">
      <path id="Trazado_688255" data-name="Trazado 688255" d="M54.619,163.564,94.471,498.992c.6,5.03,5.9,9.978,15.585,9.376l158.1-17.357a8.313,8.313,0,0,0,7.259-9.424l-37.958-315.5a10.056,10.056,0,0,0-9.416-8.7L68.5,154.032c-9.726,0-14.478,4.53-13.884,9.532" transform="translate(-54.57 -154.032)" fill="none"/>
    </clipPath>
    <linearGradient id="linear-gradient" x1="0.044" y1="1.009" x2="0.044" y2="1.009" gradientUnits="objectBoundingBox">
      <stop offset="0" stop-color="#444b8c"/>
      <stop offset="0.996" stop-color="#26264f"/>
      <stop offset="1" stop-color="#26264f"/>
    </linearGradient>
    <clipPath id="clip-path-4">
      <path id="Trazado_688256" data-name="Trazado 688256" d="M99.39,162.841,139.465,500a9.582,9.582,0,0,0,10.449,8.262l163.9-16.319a8.352,8.352,0,0,0,7.283-9.473L282.936,165.4a10.1,10.1,0,0,0-9.453-8.74l-165.721-2.8H107.6a7.942,7.942,0,0,0-8.206,8.983" transform="translate(-99.328 -153.858)" fill="none"/>
    </clipPath>
    <linearGradient id="linear-gradient-2" x1="0.19" y1="1.111" x2="0.19" y2="1.111" xlink:href="#linear-gradient"/>
    <clipPath id="clip-path-5">
      <path id="Trazado_688257" data-name="Trazado 688257" d="M156.075,297.017l37.035,311.458a8.937,8.937,0,0,0,9.714,7.712L356.972,601.2a7.789,7.789,0,0,0,6.82-8.834L328.417,298.377a9.374,9.374,0,0,0-8.84-8.12L163.848,288.6h-.1a7.445,7.445,0,0,0-7.676,8.419" transform="translate(-156.017 -288.598)" fill="none"/>
    </clipPath>
    <linearGradient id="linear-gradient-3" x1="0.161" y1="1.14" x2="0.162" y2="1.14" gradientUnits="objectBoundingBox">
      <stop offset="0" stop-color="#ebeff2"/>
      <stop offset="0.494" stop-color="#ebeff2"/>
      <stop offset="1" stop-color="#fff"/>
    </linearGradient>
    <clipPath id="clip-path-6">
      <path id="Trazado_688258" data-name="Trazado 688258" d="M740.978,214.407a3.614,3.614,0,0,0,3.446,3.1,2.623,2.623,0,0,0,2.708-3.018,3.615,3.615,0,0,0-3.439-3.1h-.046a2.621,2.621,0,0,0-2.668,3.018" transform="translate(-740.956 -211.389)" fill="none"/>
    </clipPath>
    <linearGradient id="linear-gradient-4" x1="-13.066" y1="43.751" x2="-13.049" y2="43.751" gradientUnits="objectBoundingBox">
      <stop offset="0" stop-color="#311944"/>
      <stop offset="1" stop-color="#893976"/>
    </linearGradient>
    <clipPath id="clip-path-8">
      <rect id="Rectángulo_342071" data-name="Rectángulo 342071" width="179.483" height="354.453" fill="none"/>
    </clipPath>
    <clipPath id="clip-path-9">
      <path id="Trazado_688260" data-name="Trazado 688260" d="M287.53,398.578l9.158,74.882c.593,4.85,5.338,8.654,10.58,8.5l206.364-6.212a7.34,7.34,0,0,0,7.21-8.382L512.36,398a9.517,9.517,0,0,0-9.231-8.137L296,389.8h0c-5.26,0-9.057,3.93-8.464,8.779" transform="translate(-287.469 -389.799)" fill="none"/>
    </clipPath>
    <linearGradient id="linear-gradient-5" x1="-0.412" y1="1.649" x2="-0.411" y2="1.649" gradientUnits="objectBoundingBox">
      <stop offset="0" stop-color="#ffc444"/>
      <stop offset="0.996" stop-color="#f36f56"/>
      <stop offset="1" stop-color="#f36f56"/>
    </linearGradient>
    <clipPath id="clip-path-11">
      <rect id="Rectángulo_342074" data-name="Rectángulo 342074" width="231.571" height="106.2" fill="none"/>
    </clipPath>
    <clipPath id="clip-path-12">
      <path id="Trazado_688262" data-name="Trazado 688262" d="M688.813,1820.261l-204.647,20.252c-5.2.515-9.908-3-10.5-7.849l-9.158-74.881c-.593-4.85,3.17-9.071,8.388-9.426l205.415-13.973a8.736,8.736,0,0,1,9.162,7.579l8.483,69.359a7.958,7.958,0,0,1-7.142,8.94" transform="translate(-464.445 -1734.364)" fill="none"/>
    </clipPath>
    <linearGradient id="linear-gradient-6" x1="-0.283" y1="1.307" x2="-0.282" y2="1.307" gradientUnits="objectBoundingBox">
      <stop offset="0" stop-color="#aa80f9"/>
      <stop offset="0.996" stop-color="#6165d7"/>
      <stop offset="1" stop-color="#6165d7"/>
    </linearGradient>
    <clipPath id="clip-path-13">
      <rect id="Rectángulo_342075" data-name="Rectángulo 342075" width="232.503" height="99.136" fill="none"/>
    </clipPath>
    <clipPath id="clip-path-14">
      <path id="Trazado_688264" data-name="Trazado 688264" d="M601.223,1148.234l-205.505,13.232c-5.221.336-9.948-3.322-10.541-8.173l-9.158-74.881c-.593-4.85,3.187-8.926,8.428-9.1l206.273-6.953a9.116,9.116,0,0,1,9.2,7.858l8.483,69.359a7.64,7.64,0,0,1-7.176,8.661" transform="translate(-375.957 -1062.351)" fill="none"/>
    </clipPath>
    <linearGradient id="linear-gradient-7" x1="-0.228" y1="2.316" x2="-0.227" y2="2.316" xlink:href="#linear-gradient-6"/>
  </defs>
  <g id="Grupo_167856" data-name="Grupo 167856" clip-path="url(#clip-path)">
    <g id="Grupo_167828" data-name="Grupo 167828" transform="translate(0 0.001)">
      <g id="Grupo_167827-2" data-name="Grupo 167827" clip-path="url(#clip-path-2)">
        <path id="Trazado_688252" data-name="Trazado 688252" d="M394.118,163.372c-7.885-51.613-14.216-87.282-42.69-106.828C303.4,23.576,249.76,77.1,181.724,41.184,148.226,23.5,146.971,3,118.6.279,68.408-4.535,27.3,55.365,23.741,60.5,2.1,91.713-5.133,129.771,3.642,166.055c5.7,23.567,9.55,47.957,8.493,72.173-1.839,42.146-.781,81.486,40.121,106.62,36.52,22.443,82.482,42.236,126.329,45.7,29.8,2.356,63.216-1.457,91.936-9.215,146.365-39.538,134.439-147,123.6-217.964" transform="translate(0 -0.004)" fill="#f4f7fa"/>
        <path id="Trazado_688253" data-name="Trazado 688253" d="M982.158,119.679l-3.714-17.938a5.286,5.286,0,0,0-6.211-4.133l-10.107,2.061a83.057,83.057,0,0,0-6.513-13.126L963.29,79.7a5.274,5.274,0,0,0,.425-7.424l-12-13.581a5.212,5.212,0,0,0-7.372-.454l-7.726,6.866a82.686,82.686,0,0,0-12.062-7.99l3.281-9.832a5.226,5.226,0,0,0-3.287-6.61L907.506,34.96a5.211,5.211,0,0,0-6.59,3.29L897.6,48.106a80.942,80.942,0,0,0-14.329-.817l-2.031-10.243a5.166,5.166,0,0,0-6.106-4.064l-17.594,3.588a5.252,5.252,0,0,0-4.1,6.144l2.017,10.332a81.8,81.8,0,0,0-12.828,6.409l-6.892-7.914a5.169,5.169,0,0,0-7.326-.452L814.848,63.044a5.269,5.269,0,0,0-.533,7.388l6.952,8.023a84.415,84.415,0,0,0-7.973,11.984l-10.068-3.423a5.256,5.256,0,0,0-6.632,3.311l-5.941,17.241a5.231,5.231,0,0,0,3.2,6.685l10.1,3.452a83.947,83.947,0,0,0-1.012,14.427l-10.569,2.156a5.375,5.375,0,0,0-4.168,6.25l3.358,18.01a5.182,5.182,0,0,0,6.127,4.176l10.6-2.162a83.138,83.138,0,0,0,6.209,13.079l-8.151,7.245a5.438,5.438,0,0,0-.546,7.562L817.7,202.377a5.19,5.19,0,0,0,7.435.489l8.15-7.266a82.7,82.7,0,0,0,11.938,8.175L841.711,214.2a5.4,5.4,0,0,0,3.277,6.843l17.278,5.988a5.277,5.277,0,0,0,6.718-3.387l3.451-10.344a81.042,81.042,0,0,0,14.495.963l2.09,10.707a5.3,5.3,0,0,0,6.234,4.249l17.95-3.661a5.393,5.393,0,0,0,4.145-6.366l-2.1-10.615a81.8,81.8,0,0,0,13.1-6.535l6.992,8.07a5.233,5.233,0,0,0,7.481.492l13.68-12.3a5.445,5.445,0,0,0,.435-7.6l-6.97-8a84.411,84.411,0,0,0,8.061-12.349l9.923,3.39a5.234,5.234,0,0,0,6.677-3.366l5.7-17.516a5.392,5.392,0,0,0-3.364-6.765l-9.828-3.342a83.953,83.953,0,0,0,.81-14.747l10.137-2.067a5.27,5.27,0,0,0,4.075-6.257m-86.437,63.233c-28.854,5.884-56.785-13.1-62.356-42.246C827.828,111.7,846.5,83.623,875.04,77.8s56.393,12.766,62.243,41.671c5.885,29.08-12.708,57.554-41.562,63.438" transform="translate(-675.529 -28.181)" fill="#d8dee8"/>
        <path id="Trazado_688254" data-name="Trazado 688254" d="M1908.472,1244.383l-2.605-12.584a3.709,3.709,0,0,0-4.357-2.9l-7.091,1.446a58.266,58.266,0,0,0-4.569-9.208l5.386-4.8a3.7,3.7,0,0,0,.3-5.209l-8.422-9.528a3.657,3.657,0,0,0-5.172-.319l-5.42,4.817a58.011,58.011,0,0,0-8.463-5.606l2.3-6.9a3.666,3.666,0,0,0-2.306-4.637l-11.954-4.008a3.656,3.656,0,0,0-4.623,2.308l-2.327,6.914a56.762,56.762,0,0,0-10.053-.573l-1.425-7.187a3.624,3.624,0,0,0-4.283-2.851l-12.344,2.517a3.685,3.685,0,0,0-2.875,4.311l1.415,7.248a57.423,57.423,0,0,0-9,4.5l-4.835-5.552a3.626,3.626,0,0,0-5.14-.317l-9.516,8.386a3.7,3.7,0,0,0-.374,5.183l4.877,5.629a59.193,59.193,0,0,0-5.594,8.408l-7.063-2.4a3.687,3.687,0,0,0-4.652,2.323l-4.168,12.1a3.67,3.67,0,0,0,2.245,4.69l7.088,2.422a58.876,58.876,0,0,0-.71,10.121l-7.414,1.512a3.771,3.771,0,0,0-2.924,4.385l2.356,12.635a3.636,3.636,0,0,0,4.3,2.93l7.437-1.516a58.344,58.344,0,0,0,4.356,9.176l-5.718,5.083a3.815,3.815,0,0,0-.383,5.305l8.34,9.772a3.641,3.641,0,0,0,5.216.343l5.718-5.1a58.041,58.041,0,0,0,8.375,5.735l-2.461,7.313a3.788,3.788,0,0,0,2.3,4.8l12.122,4.2a3.7,3.7,0,0,0,4.713-2.376l2.421-7.256a56.845,56.845,0,0,0,10.169.676l1.466,7.511a3.721,3.721,0,0,0,4.373,2.981l12.593-2.568a3.783,3.783,0,0,0,2.908-4.466l-1.476-7.447a57.383,57.383,0,0,0,9.191-4.585l4.906,5.661a3.672,3.672,0,0,0,5.249.345l9.6-8.63a3.82,3.82,0,0,0,.305-5.332l-4.89-5.614a59.243,59.243,0,0,0,5.656-8.663l6.962,2.378a3.671,3.671,0,0,0,4.684-2.362l4-12.288a3.783,3.783,0,0,0-2.36-4.746l-6.9-2.344a58.864,58.864,0,0,0,.569-10.346l7.112-1.45a3.7,3.7,0,0,0,2.859-4.39m-60.64,44.362a37.075,37.075,0,0,1-43.747-29.638,37.713,37.713,0,0,1,29.238-44.1,37.088,37.088,0,0,1,43.667,29.235,37.7,37.7,0,0,1-29.158,44.506" transform="translate(-1519.15 -1014.417)" fill="#d8dee8"/>
      </g>
    </g>
    <g id="Grupo_167830" data-name="Grupo 167830" transform="translate(7.796 22.005)">
      <g id="Grupo_167829" data-name="Grupo 167829" clip-path="url(#clip-path-3)">
        <rect id="Rectángulo_342067" data-name="Rectángulo 342067" width="259.141" height="376.915" transform="matrix(0.994, -0.108, 0.108, 0.994, -38.81, 4.174)" fill="url(#linear-gradient)"/>
      </g>
    </g>
    <g id="Grupo_167832" data-name="Grupo 167832" transform="translate(14.19 21.98)">
      <g id="Grupo_167831" data-name="Grupo 167831" clip-path="url(#clip-path-4)">
        <rect id="Rectángulo_342068" data-name="Rectángulo 342068" width="403.344" height="313.867" transform="matrix(0.282, -0.959, 0.959, 0.282, -96.5, 326.727)" fill="url(#linear-gradient-2)"/>
      </g>
    </g>
    <g id="Grupo_167834" data-name="Grupo 167834" transform="translate(22.288 41.228)">
      <g id="Grupo_167833" data-name="Grupo 167833" clip-path="url(#clip-path-5)">
        <rect id="Rectángulo_342069" data-name="Rectángulo 342069" width="372.636" height="290.525" transform="translate(-86.753 303.542) rotate(-74.136)" fill="url(#linear-gradient-3)"/>
      </g>
    </g>
    <g id="Grupo_167836" data-name="Grupo 167836" transform="translate(105.851 30.198)">
      <g id="Grupo_167835" data-name="Grupo 167835" clip-path="url(#clip-path-6)">
        <rect id="Rectángulo_342070" data-name="Rectángulo 342070" width="8.031" height="8.277" transform="matrix(0.346, -0.938, 0.938, 0.346, -2.174, 5.404)" fill="url(#linear-gradient-4)"/>
      </g>
    </g>
    <g id="Grupo_167841" data-name="Grupo 167841" transform="translate(0 0.001)">
      <g id="Grupo_167840" data-name="Grupo 167840" clip-path="url(#clip-path-2)">
        <g id="Grupo_167839" data-name="Grupo 167839" transform="translate(14.19 21.979)" opacity="0.5" style="mix-blend-mode: soft-light;isolation: isolate">
          <g id="Grupo_167838" data-name="Grupo 167838">
            <g id="Grupo_167837" data-name="Grupo 167837" clip-path="url(#clip-path-8)">
              <path id="Trazado_688259" data-name="Trazado 688259" d="M253.176,380.232c-31.557-58.345-78.7-75.809-92.892-135.94-7.672-32.5-2.445-63.613,6.359-89.439l-58.88-.994a7.953,7.953,0,0,0-8.372,8.982L139.466,500a9.582,9.582,0,0,0,10.449,8.262L278.76,495.436c.953-52.279-11.517-89.2-25.584-115.2" transform="translate(-99.328 -153.858)" fill="#fff"/>
            </g>
          </g>
        </g>
      </g>
    </g>
    <g id="Grupo_167843" data-name="Grupo 167843" transform="translate(41.067 55.686)">
      <g id="Grupo_167842" data-name="Grupo 167842" clip-path="url(#clip-path-9)">
        <rect id="Rectángulo_342073" data-name="Rectángulo 342073" width="172.982" height="251.97" transform="translate(-32.436 79.514) rotate(-68.138)" fill="url(#linear-gradient-5)"/>
      </g>
    </g>
    <g id="Grupo_167855" data-name="Grupo 167855" transform="translate(0 0.001)">
      <g id="Grupo_167854" data-name="Grupo 167854" clip-path="url(#clip-path-2)">
        <g id="Grupo_167848" data-name="Grupo 167848" transform="translate(66.349 247.765)" opacity="0.3">
          <g id="Grupo_167847" data-name="Grupo 167847">
            <g id="Grupo_167846" data-name="Grupo 167846" clip-path="url(#clip-path-11)">
              <g id="Grupo_167845" data-name="Grupo 167845" transform="translate(0 0.001)">
                <g id="Grupo_167844" data-name="Grupo 167844" clip-path="url(#clip-path-12)">
                  <path id="Trazado_688261" data-name="Trazado 688261" d="M460.724,1717.626l232.591-2.454v109.406l-232.591,2.454Z" transform="translate(-461.256 -1717.914)" fill="url(#linear-gradient-6)"/>
                </g>
              </g>
            </g>
          </g>
        </g>
        <g id="Grupo_167853" data-name="Grupo 167853" transform="translate(53.708 151.764)" opacity="0.3">
          <g id="Grupo_167852" data-name="Grupo 167852">
            <g id="Grupo_167851" data-name="Grupo 167851" clip-path="url(#clip-path-13)">
              <g id="Grupo_167850" data-name="Grupo 167850" transform="translate(0 0)">
                <g id="Grupo_167849" data-name="Grupo 167849" clip-path="url(#clip-path-14)">
                  <path id="Trazado_688263" data-name="Trazado 688263" d="M372.233,1046.533l233.523-2.464v102.063L372.233,1148.6Z" transform="translate(-372.765 -1046.681)" fill="url(#linear-gradient-7)"/>
                </g>
              </g>
            </g>
          </g>
        </g>
        <path id="Trazado_688265" data-name="Trazado 688265" d="M569.1,1262.013c-17.393.988-32.754-12.029-34.054-29.084-1.305-17.118,12.054-31.6,29.59-32.222,17.324-.613,32.214,12.567,33.378,29.319,1.159,16.691-11.73,31.012-28.914,31.988m-4.309-59.19c-16.321.589-28.749,14.074-27.538,30,1.207,15.876,15.5,28,31.7,27.1,16.016-.9,28.035-14.241,26.951-29.8-1.088-15.612-14.971-27.882-31.108-27.3" transform="translate(-458.539 -1029.16)" fill="#fff"/>
        <path id="Trazado_688266" data-name="Trazado 688266" d="M650.482,1317.184c-1.434-6.293-3.828-9.473-5.491-11.057a4.7,4.7,0,0,0-3.381-1.241l-.23,0a10.517,10.517,0,0,0-5.157,1.387l-.539.374a11.853,11.853,0,0,1-5.724,1.674l-.59.016-.457.013a11,11,0,0,1-1.56-.072,13.709,13.709,0,0,1-4.484-1.352l-.6-.272a12.006,12.006,0,0,0-5.586-1.211l-.245.005a4.646,4.646,0,0,0-3.408,1.445c-1.547,1.73-3.651,5.214-4.239,11.879-.554,6.305.032,10.183.629,12.355a4.47,4.47,0,0,0,2.818,2.956l.048.013a4.818,4.818,0,0,0,4.581-.682l5.021-3.816a11.8,11.8,0,0,1,6.718-2.375l1.388-.072,3-.145a11.8,11.8,0,0,1,6.837,1.683l5.259,3.23a4.358,4.358,0,0,0,4.3.157l.042-.033a4.029,4.029,0,0,0,2.15-3.094c.244-2.1.248-5.845-1.1-11.771m-35.378-.034a1.9,1.9,0,0,1-1.994-1.674,1.718,1.718,0,0,1,1.735-1.8,1.893,1.893,0,0,1,1.985,1.675,1.717,1.717,0,0,1-1.726,1.8m4.1,6.6a2.905,2.905,0,0,1-3.077-2.574,2.679,2.679,0,0,1,2.679-2.806,2.9,2.9,0,0,1,3.058,2.574,2.679,2.679,0,0,1-2.66,2.806m8.488-.75a.866.866,0,0,1-.914-.774.8.8,0,0,1,.8-.843.864.864,0,0,1,.911.772.8.8,0,0,1-.793.844m4.495-.193a.86.86,0,0,1-.9-.769.8.8,0,0,1,.787-.841.857.857,0,0,1,.9.769.8.8,0,0,1-.784.841m14.2-5.841a.877.877,0,0,1-.809.935l-2.427.093.155,2.177a.882.882,0,0,1-.767.975l-.883.037a1.032,1.032,0,0,1-.994-.9l-.157-2.186-2.624.1a.986.986,0,0,1-.977-.876l-.064-.894c-.032-.443.352-.722.812-.738l2.674-.095-.168-2.344a.81.81,0,0,1,.856-.817l.9-.028a.816.816,0,0,1,.888.758l.167,2.339,2.429-.086a.82.82,0,0,1,.926.715Z" transform="translate(-521.627 -1118.473)" fill="#fff"/>
        <path id="Trazado_688267" data-name="Trazado 688267" d="M1177.11,1216.32l-107.708,4.118a3.286,3.286,0,0,0-3.182,3.516l.591,8.695a3.5,3.5,0,0,0,3.635,3.228l107.5-4.7a3.151,3.151,0,0,0,2.963-3.38l-.464-8.348a3.272,3.272,0,0,0-3.33-3.13" transform="translate(-913.896 -1042.559)" fill="#f4f7fa"/>
        <path id="Trazado_688268" data-name="Trazado 688268" d="M1125.8,1395.578l-46.976,2.19a2.047,2.047,0,0,0-1.965,2.184l.174,2.565a2.146,2.146,0,0,0,2.246,1.98l46.935-2.3a2.01,2.01,0,0,0,1.905-2.146l-.157-2.52a2.083,2.083,0,0,0-2.162-1.953" transform="translate(-923.021 -1196.208)" fill="#f4f7fa"/>
        <path id="Trazado_688269" data-name="Trazado 688269" d="M1132.34,1491.482l-46.891,2.419a2.055,2.055,0,0,0-1.962,2.188l.174,2.558a2.129,2.129,0,0,0,2.242,1.964l46.85-2.528a2.017,2.017,0,0,0,1.9-2.15l-.157-2.512a2.066,2.066,0,0,0-2.158-1.938" transform="translate(-928.699 -1278.411)" fill="#f4f7fa"/>
        <path id="Trazado_688270" data-name="Trazado 688270" d="M471.567,544.3c-17.393.988-32.754-12.029-34.054-29.084-1.305-17.118,12.054-31.6,29.59-32.222,17.324-.613,32.214,12.567,33.378,29.319C501.64,529,488.75,543.323,471.567,544.3m-4.309-59.19c-16.321.589-28.749,14.074-27.538,30,1.207,15.875,15.5,28,31.7,27.1,16.016-.9,28.035-14.241,26.951-29.8-1.088-15.612-14.971-27.882-31.108-27.3" transform="translate(-374.935 -413.977)" fill="#fff"/>
        <path id="Trazado_688271" data-name="Trazado 688271" d="M552.944,599.471c-1.434-6.293-3.828-9.473-5.491-11.057a4.7,4.7,0,0,0-3.381-1.241l-.23,0a10.514,10.514,0,0,0-5.157,1.387l-.539.374a11.859,11.859,0,0,1-5.725,1.674l-.59.016-.457.013a11.014,11.014,0,0,1-1.56-.072,13.717,13.717,0,0,1-4.484-1.352l-.6-.272a12.007,12.007,0,0,0-5.586-1.211l-.245.006a4.646,4.646,0,0,0-3.408,1.445c-1.547,1.73-3.651,5.214-4.239,11.879-.554,6.305.032,10.183.629,12.355a4.471,4.471,0,0,0,2.818,2.956l.048.013a4.818,4.818,0,0,0,4.581-.681l5.021-3.816a11.8,11.8,0,0,1,6.718-2.375l1.388-.071,3-.145a11.8,11.8,0,0,1,6.837,1.683l5.259,3.23a4.358,4.358,0,0,0,4.3.157l.042-.034a4.029,4.029,0,0,0,2.15-3.095c.244-2.1.248-5.845-1.1-11.771m-35.378-.034a1.9,1.9,0,0,1-1.994-1.674,1.718,1.718,0,0,1,1.735-1.8,1.893,1.893,0,0,1,1.984,1.675,1.717,1.717,0,0,1-1.726,1.8m4.1,6.6a2.906,2.906,0,0,1-3.077-2.574,2.679,2.679,0,0,1,2.679-2.806,2.9,2.9,0,0,1,3.058,2.575,2.679,2.679,0,0,1-2.66,2.806m8.488-.75a.866.866,0,0,1-.914-.774.8.8,0,0,1,.8-.843.864.864,0,0,1,.911.772.8.8,0,0,1-.793.845m4.495-.193a.859.859,0,0,1-.9-.769.8.8,0,0,1,.787-.841.857.857,0,0,1,.9.769.8.8,0,0,1-.784.841m14.2-5.84a.877.877,0,0,1-.809.935l-2.428.093.155,2.177a.882.882,0,0,1-.767.975l-.883.037a1.032,1.032,0,0,1-.994-.9l-.157-2.186-2.624.1a.987.987,0,0,1-.977-.876l-.064-.894c-.032-.443.352-.722.812-.738l2.674-.095-.168-2.343a.809.809,0,0,1,.856-.817l.9-.028a.816.816,0,0,1,.887.758l.167,2.339,2.429-.086a.82.82,0,0,1,.926.715Z" transform="translate(-438.023 -503.291)" fill="#fff"/>
        <path id="Trazado_688272" data-name="Trazado 688272" d="M1079.572,498.607l-107.708,4.118a3.285,3.285,0,0,0-3.182,3.516l.591,8.695a3.5,3.5,0,0,0,3.635,3.228l107.5-4.7a3.152,3.152,0,0,0,2.963-3.38l-.464-8.348a3.272,3.272,0,0,0-3.33-3.13" transform="translate(-830.292 -427.376)" fill="#f4f7fa"/>
        <path id="Trazado_688273" data-name="Trazado 688273" d="M1028.267,677.864l-46.976,2.19a2.047,2.047,0,0,0-1.965,2.184l.174,2.565a2.146,2.146,0,0,0,2.246,1.98l46.935-2.3a2.01,2.01,0,0,0,1.905-2.146l-.157-2.52a2.083,2.083,0,0,0-2.162-1.954" transform="translate(-839.417 -581.025)" fill="#f4f7fa"/>
        <path id="Trazado_688274" data-name="Trazado 688274" d="M1034.8,773.768l-46.891,2.419a2.054,2.054,0,0,0-1.962,2.188l.174,2.558a2.129,2.129,0,0,0,2.242,1.964l46.85-2.528a2.018,2.018,0,0,0,1.9-2.15l-.157-2.512a2.067,2.067,0,0,0-2.158-1.938" transform="translate(-845.095 -663.228)" fill="#f4f7fa"/>
        <path id="Trazado_688275" data-name="Trazado 688275" d="M674.494,1986.877c-17.393.988-32.754-12.029-34.054-29.084-1.305-17.118,12.054-31.6,29.59-32.222,17.324-.613,32.214,12.567,33.378,29.318,1.159,16.691-11.73,31.012-28.914,31.988m-4.309-59.19c-16.321.589-28.749,14.074-27.538,30,1.207,15.875,15.5,28,31.7,27.1,16.016-.9,28.035-14.241,26.951-29.8-1.088-15.612-14.971-27.882-31.108-27.3" transform="translate(-548.873 -1650.472)" fill="#fff"/>
        <path id="Trazado_688276" data-name="Trazado 688276" d="M755.872,2042.047c-1.434-6.293-3.828-9.473-5.491-11.056A4.7,4.7,0,0,0,747,2029.75l-.23.005a10.517,10.517,0,0,0-5.157,1.387l-.539.374a11.858,11.858,0,0,1-5.724,1.674l-.59.016-.457.013a11.022,11.022,0,0,1-1.56-.072,13.72,13.72,0,0,1-4.484-1.352l-.6-.272a12.01,12.01,0,0,0-5.586-1.211l-.245.006a4.645,4.645,0,0,0-3.408,1.445c-1.547,1.729-3.651,5.214-4.239,11.879-.554,6.305.032,10.183.629,12.355a4.471,4.471,0,0,0,2.818,2.957l.048.012a4.818,4.818,0,0,0,4.581-.681l5.021-3.816a11.8,11.8,0,0,1,6.718-2.375l1.388-.072,3-.145a11.8,11.8,0,0,1,6.837,1.683l5.259,3.23a4.359,4.359,0,0,0,4.3.158l.042-.034a4.029,4.029,0,0,0,2.15-3.095c.244-2.1.248-5.845-1.1-11.771m-35.378-.034a1.9,1.9,0,0,1-1.994-1.674,1.718,1.718,0,0,1,1.735-1.8,1.893,1.893,0,0,1,1.985,1.675,1.717,1.717,0,0,1-1.726,1.8m4.1,6.6a2.906,2.906,0,0,1-3.077-2.574,2.678,2.678,0,0,1,2.679-2.806,2.9,2.9,0,0,1,3.058,2.574,2.68,2.68,0,0,1-2.66,2.806m8.488-.75a.866.866,0,0,1-.914-.774.8.8,0,0,1,.8-.843.864.864,0,0,1,.911.772.8.8,0,0,1-.793.845m4.495-.193a.859.859,0,0,1-.9-.769.8.8,0,0,1,.787-.841.857.857,0,0,1,.9.769.8.8,0,0,1-.784.841m14.2-5.84a.878.878,0,0,1-.809.935l-2.427.093.155,2.177a.882.882,0,0,1-.767.975l-.883.037a1.032,1.032,0,0,1-.994-.9l-.157-2.186-2.624.1a.987.987,0,0,1-.977-.876l-.064-.894c-.032-.443.352-.722.812-.738l2.674-.095-.168-2.344a.809.809,0,0,1,.856-.817l.9-.028a.816.816,0,0,1,.888.757l.167,2.339,2.429-.086a.82.82,0,0,1,.926.715Z" transform="translate(-611.962 -1739.785)" fill="#fff"/>
        <path id="Trazado_688277" data-name="Trazado 688277" d="M1282.5,1941.184l-107.708,4.118a3.285,3.285,0,0,0-3.182,3.516l.591,8.695a3.5,3.5,0,0,0,3.635,3.228l107.5-4.7a3.151,3.151,0,0,0,2.963-3.38l-.464-8.348a3.272,3.272,0,0,0-3.33-3.13" transform="translate(-1004.229 -1663.871)" fill="#f4f7fa"/>
        <path id="Trazado_688278" data-name="Trazado 688278" d="M1231.194,2120.441l-46.976,2.191a2.047,2.047,0,0,0-1.965,2.184l.174,2.565a2.146,2.146,0,0,0,2.246,1.98l46.935-2.3a2.01,2.01,0,0,0,1.9-2.146l-.157-2.52a2.084,2.084,0,0,0-2.162-1.954" transform="translate(-1013.355 -1817.52)" fill="#f4f7fa"/>
        <path id="Trazado_688279" data-name="Trazado 688279" d="M1237.729,2216.346l-46.891,2.419a2.055,2.055,0,0,0-1.962,2.188l.174,2.558a2.129,2.129,0,0,0,2.242,1.964l46.851-2.529a2.017,2.017,0,0,0,1.9-2.15l-.157-2.512a2.066,2.066,0,0,0-2.158-1.938" transform="translate(-1019.032 -1899.723)" fill="#f4f7fa"/>
      </g>
    </g>
  </g>
</svg>
