<svg xmlns="http://www.w3.org/2000/svg" width="610" height="385" viewBox="0 0 610 385">
  <g id="Grupo_167869" data-name="Grupo 167869" transform="translate(-519 -22052)">
    <g id="Rectángulo_341993" data-name="Rectángulo 341993" transform="translate(519 22052)" fill="#8979f3" stroke="#707070" stroke-width="1" opacity="0.25">
      <rect width="610" height="385" rx="25" stroke="none"/>
      <rect x="0.5" y="0.5" width="609" height="384" rx="24.5" fill="none"/>
    </g>
    <path id="Trazado_688141" data-name="Trazado 688141" d="M.87,19.495V7.215H2.651v.092A6.25,6.25,0,0,1,4.692,7a4.365,4.365,0,0,1,2.256.5,2.785,2.785,0,0,1,1.19,1.573,9.275,9.275,0,0,1,.361,2.87,9.352,9.352,0,0,1-.361,2.878,2.821,2.821,0,0,1-1.19,1.589,4.311,4.311,0,0,1-2.256.507,5.606,5.606,0,0,1-2.041-.368v2.947Zm3.822-4.206a2.13,2.13,0,0,0,1.236-.307,1.71,1.71,0,0,0,.622-1.021,8.52,8.52,0,0,0,.184-2.018,8.419,8.419,0,0,0-.184-2.011,1.669,1.669,0,0,0-.622-1.005,2.172,2.172,0,0,0-1.236-.3q-2.041,0-2.041.89V13.14a2.359,2.359,0,0,0,.476,1.627A2.033,2.033,0,0,0,4.692,15.289ZM10.617,16.7V7.215h1.765V8a3.375,3.375,0,0,1,.952-.7A2.717,2.717,0,0,1,14.593,7a3.93,3.93,0,0,1,1.474.238,2.467,2.467,0,0,1,1.005.767,5.184,5.184,0,0,1,.76,1.466l-1.581.721a5.5,5.5,0,0,0-.4-1,1,1,0,0,0-.468-.445,2.045,2.045,0,0,0-.79-.123,1.843,1.843,0,0,0-1.7.821,4.589,4.589,0,0,0-.507,2.387V16.7ZM24.293,7.215v7.859H26.98V16.7H19.842V15.074h2.686V8.842H20.594V7.215ZM23.081,5.834a1.547,1.547,0,0,1-1.051-.269,1.346,1.346,0,0,1-.284-.99,1.346,1.346,0,0,1,.284-.99,1.547,1.547,0,0,1,1.051-.269,1.58,1.58,0,0,1,1.059.269,1.322,1.322,0,0,1,.292.99,1.322,1.322,0,0,1-.292.99A1.58,1.58,0,0,1,23.081,5.834ZM33,16.7H31.4L27.993,7.215h1.827L32.2,14.076l2.425-6.861h1.811Zm8.181.215a6.255,6.255,0,0,1-2.172-.307,2.141,2.141,0,0,1-1.167-.959,3.6,3.6,0,0,1-.361-1.742,4.051,4.051,0,0,1,.361-1.9,1.967,1.967,0,0,1,1.151-.936,7.056,7.056,0,0,1,2.187-.269h1.934v-.338a2.469,2.469,0,0,0-.161-1,.939.939,0,0,0-.576-.5,3.787,3.787,0,0,0-1.2-.146,2.854,2.854,0,0,0-.982.13.989.989,0,0,0-.522.468,4.489,4.489,0,0,0-.353,1.028l-1.688-.414a6.164,6.164,0,0,1,.691-1.75,2.513,2.513,0,0,1,1.105-.975A4.232,4.232,0,0,1,41.178,7a3.93,3.93,0,0,1,2.847.852,3.564,3.564,0,0,1,.852,2.617v3.592A1.817,1.817,0,0,0,45,14.89a.57.57,0,0,0,.522.2q.123,0,.553-.031v1.627q-.184.015-.507.015a2.29,2.29,0,0,1-1.842-.614,2.323,2.323,0,0,1-1.028.637A5.16,5.16,0,0,1,41.178,16.916Zm0-1.627a3.053,3.053,0,0,0,1.2-.184,1.047,1.047,0,0,0,.576-.629,3.974,3.974,0,0,0,.161-1.289v-.752H41.178a6.3,6.3,0,0,0-1.243.084.735.735,0,0,0-.522.384,2.371,2.371,0,0,0-.153,1.005,1.847,1.847,0,0,0,.153.852.888.888,0,0,0,.56.407A4.443,4.443,0,0,0,41.178,15.289Zm10.453,1.627a3.627,3.627,0,0,1-1.8-.384,2.251,2.251,0,0,1-.99-1.22,6.381,6.381,0,0,1-.315-2.2V8.658h-1.9V7.031h1.9V4.422H50.3V7.031h3.177V8.658H50.3v4.451a5.523,5.523,0,0,0,.123,1.328,1.091,1.091,0,0,0,.407.66,1.432,1.432,0,0,0,.806.192,3.121,3.121,0,0,0,.821-.077.607.607,0,0,0,.368-.276,3.79,3.79,0,0,0,.269-.691l1.658.568a3.519,3.519,0,0,1-.6,1.251,2.052,2.052,0,0,1-.959.652A4.991,4.991,0,0,1,51.631,16.916Zm8.258-1.627a2.53,2.53,0,0,0,1.312-.315,3.9,3.9,0,0,0,1.1-1.113l1.412.936a5.061,5.061,0,0,1-1.619,1.658,4.5,4.5,0,0,1-2.2.46,5.262,5.262,0,0,1-2.433-.46,2.63,2.63,0,0,1-1.243-1.52,9.262,9.262,0,0,1-.376-2.978,9.262,9.262,0,0,1,.376-2.978,2.63,2.63,0,0,1,1.243-1.52A5.262,5.262,0,0,1,59.889,7a4.75,4.75,0,0,1,2.387.5A2.8,2.8,0,0,1,63.5,9.165a11.345,11.345,0,0,1,.368,3.269H57.617a5.714,5.714,0,0,0,.276,1.7,1.614,1.614,0,0,0,.706.883A2.627,2.627,0,0,0,59.889,15.289Zm0-6.662a2.3,2.3,0,0,0-1.627.484,2.631,2.631,0,0,0-.614,1.7h4.405a3.447,3.447,0,0,0-.2-1.312,1.221,1.221,0,0,0-.668-.668A3.4,3.4,0,0,0,59.889,8.627ZM79.552,7.215v7.859h2.686V16.7H75.1V15.074h2.686V8.842H75.852V7.215ZM78.339,5.834a1.547,1.547,0,0,1-1.051-.269A1.346,1.346,0,0,1,77,4.575a1.346,1.346,0,0,1,.284-.99,1.547,1.547,0,0,1,1.051-.269,1.58,1.58,0,0,1,1.059.269,1.322,1.322,0,0,1,.292.99,1.322,1.322,0,0,1-.292.99A1.58,1.58,0,0,1,78.339,5.834ZM83.88,16.7V7.215h1.765v.23A5.348,5.348,0,0,1,87.9,7a4.565,4.565,0,0,1,2.018.361,2.078,2.078,0,0,1,1.021,1.213,7.376,7.376,0,0,1,.307,2.4V16.7H89.467V10.976a5.328,5.328,0,0,0-.146-1.42,1.216,1.216,0,0,0-.476-.714,1.73,1.73,0,0,0-.944-.215,4.467,4.467,0,0,0-1.466.177,1.012,1.012,0,0,0-.629.622,4.359,4.359,0,0,0-.161,1.381V16.7Zm13.8.215a3.627,3.627,0,0,1-1.8-.384,2.251,2.251,0,0,1-.99-1.22,6.381,6.381,0,0,1-.315-2.2V8.658h-1.9V7.031h1.9V4.422h1.765V7.031h3.177V8.658H96.344v4.451a5.523,5.523,0,0,0,.123,1.328,1.091,1.091,0,0,0,.407.66,1.432,1.432,0,0,0,.806.192,3.121,3.121,0,0,0,.821-.077.607.607,0,0,0,.368-.276,3.79,3.79,0,0,0,.269-.691l1.658.568a3.52,3.52,0,0,1-.6,1.251,2.053,2.053,0,0,1-.959.652A4.991,4.991,0,0,1,97.679,16.916Zm17.038,0a3.816,3.816,0,0,1-2.018-.46,3.987,3.987,0,0,1-1.343-1.627l1.4-1.151a6.484,6.484,0,0,0,.53,1.028,1.213,1.213,0,0,0,.545.453,2.441,2.441,0,0,0,.89.13,7.71,7.71,0,0,0,1.6-.123,1.184,1.184,0,0,0,.737-.407,1.421,1.421,0,0,0,.2-.821,1.466,1.466,0,0,0-.161-.783.993.993,0,0,0-.576-.368,9.842,9.842,0,0,0-1.4-.246,6.046,6.046,0,0,1-2.686-.821,2.133,2.133,0,0,1-.829-1.865,3.114,3.114,0,0,1,.384-1.65,2.231,2.231,0,0,1,1.228-.913A7.161,7.161,0,0,1,115.485,7a4.547,4.547,0,0,1,2.1.4,3.707,3.707,0,0,1,1.366,1.412l-1.289,1.259a5.654,5.654,0,0,0-.583-.921,1.3,1.3,0,0,0-.6-.407,3.367,3.367,0,0,0-1-.115,6.154,6.154,0,0,0-1.328.107.966.966,0,0,0-.622.368,1.388,1.388,0,0,0-.169.752.751.751,0,0,0,.184.553,1.168,1.168,0,0,0,.553.276q.368.092,1.136.2a10.842,10.842,0,0,1,2.264.53,2.274,2.274,0,0,1,1.167.906,3.1,3.1,0,0,1,.361,1.619,3.138,3.138,0,0,1-.422,1.727,2.42,2.42,0,0,1-1.366.952A8.613,8.613,0,0,1,114.717,16.916Zm9.87,0a4.978,4.978,0,0,1-2.425-.5,2.835,2.835,0,0,1-1.282-1.573,8.654,8.654,0,0,1-.391-2.886,8.654,8.654,0,0,1,.391-2.886,2.818,2.818,0,0,1,1.3-1.573,5.148,5.148,0,0,1,2.471-.5,4.146,4.146,0,0,1,2.134.476,4.823,4.823,0,0,1,1.535,1.688l-1.474.875a6.25,6.25,0,0,0-.66-.89,1.509,1.509,0,0,0-.622-.407,3.717,3.717,0,0,0-2.379.184,1.629,1.629,0,0,0-.721,1.005,7.594,7.594,0,0,0-.207,2.026,7.594,7.594,0,0,0,.207,2.026,1.661,1.661,0,0,0,.7,1.005,2.772,2.772,0,0,0,1.427.3,2.876,2.876,0,0,0,.913-.123,1.71,1.71,0,0,0,.66-.422,6.069,6.069,0,0,0,.7-.9l1.458.89a5,5,0,0,1-1.573,1.7A4.224,4.224,0,0,1,124.587,16.916Zm8.933,0a4.269,4.269,0,0,1-2.249-.507,2.832,2.832,0,0,1-1.182-1.581,9.276,9.276,0,0,1-.361-2.87,9.276,9.276,0,0,1,.361-2.87,2.832,2.832,0,0,1,1.182-1.581,5.262,5.262,0,0,1,4.505,0,2.82,2.82,0,0,1,1.19,1.581,9.276,9.276,0,0,1,.361,2.87,9.276,9.276,0,0,1-.361,2.87,2.82,2.82,0,0,1-1.19,1.581A4.311,4.311,0,0,1,133.52,16.916Zm0-1.627a2.172,2.172,0,0,0,1.236-.3,1.674,1.674,0,0,0,.622-1.013,8.52,8.52,0,0,0,.184-2.018,8.52,8.52,0,0,0-.184-2.018,1.674,1.674,0,0,0-.622-1.013,2.172,2.172,0,0,0-1.236-.3,2.134,2.134,0,0,0-1.228.3,1.69,1.69,0,0,0-.614,1.013,8.52,8.52,0,0,0-.184,2.018,8.52,8.52,0,0,0,.184,2.018,1.69,1.69,0,0,0,.614,1.013A2.134,2.134,0,0,0,133.52,15.289Zm6.032,1.412V7.215h1.765V8a3.374,3.374,0,0,1,.952-.7,2.717,2.717,0,0,1,1.259-.3A3.93,3.93,0,0,1,145,7.238a2.467,2.467,0,0,1,1.005.767,5.183,5.183,0,0,1,.76,1.466l-1.581.721a5.5,5.5,0,0,0-.4-1,1,1,0,0,0-.468-.445,2.045,2.045,0,0,0-.79-.123,1.843,1.843,0,0,0-1.7.821,4.589,4.589,0,0,0-.507,2.387V16.7Zm12.433-1.412a2.53,2.53,0,0,0,1.312-.315,3.9,3.9,0,0,0,1.1-1.113l1.412.936a5.061,5.061,0,0,1-1.619,1.658,4.5,4.5,0,0,1-2.2.46,5.262,5.262,0,0,1-2.433-.46,2.63,2.63,0,0,1-1.243-1.52,9.262,9.262,0,0,1-.376-2.978,9.262,9.262,0,0,1,.376-2.978,2.63,2.63,0,0,1,1.243-1.52A5.262,5.262,0,0,1,151.986,7a4.75,4.75,0,0,1,2.387.5,2.8,2.8,0,0,1,1.22,1.665,11.345,11.345,0,0,1,.368,3.269h-6.247a5.714,5.714,0,0,0,.276,1.7,1.615,1.615,0,0,0,.706.883A2.627,2.627,0,0,0,151.986,15.289Zm0-6.662a2.3,2.3,0,0,0-1.627.484,2.631,2.631,0,0,0-.614,1.7h4.405a3.447,3.447,0,0,0-.2-1.312,1.221,1.221,0,0,0-.668-.668A3.4,3.4,0,0,0,151.986,8.627Zm7.4,11.082a13.1,13.1,0,0,0,1.082-1.673,2.5,2.5,0,0,0,.3-1.105.963.963,0,0,1-.8-.276,1.763,1.763,0,0,1-.215-1.028,1.382,1.382,0,0,1,.3-1.021,2.263,2.263,0,0,1,2.195,0,1.382,1.382,0,0,1,.3,1.021,4.933,4.933,0,0,1-.391,2.018,8.752,8.752,0,0,1-1.42,2.065Zm1.765-10.146a1.607,1.607,0,0,1-1.1-.284,1.357,1.357,0,0,1-.3-1.005,1.382,1.382,0,0,1,.3-1.021,2.263,2.263,0,0,1,2.195,0,1.382,1.382,0,0,1,.3,1.021,1.357,1.357,0,0,1-.3,1.005A1.607,1.607,0,0,1,161.149,9.564ZM.87,70.148V57.868H2.651v.092a6.251,6.251,0,0,1,2.041-.307,4.365,4.365,0,0,1,2.256.5,2.785,2.785,0,0,1,1.19,1.573A9.275,9.275,0,0,1,8.5,62.6a9.352,9.352,0,0,1-.361,2.878,2.821,2.821,0,0,1-1.19,1.589,4.311,4.311,0,0,1-2.256.507A5.606,5.606,0,0,1,2.651,67.2v2.947Zm3.822-4.206a2.13,2.13,0,0,0,1.236-.307,1.71,1.71,0,0,0,.622-1.021A8.52,8.52,0,0,0,6.734,62.6a8.419,8.419,0,0,0-.184-2.011,1.669,1.669,0,0,0-.622-1.005,2.172,2.172,0,0,0-1.236-.3q-2.041,0-2.041.89v3.622a2.359,2.359,0,0,0,.476,1.627A2.033,2.033,0,0,0,4.692,65.942Zm8.841,1.627a4.288,4.288,0,0,1-1.965-.376,2.2,2.2,0,0,1-1.044-1.22,6.638,6.638,0,0,1-.322-2.3v-5.8h1.765v5.8A5.8,5.8,0,0,0,12.1,65.1a1.016,1.016,0,0,0,.46.66,2.046,2.046,0,0,0,.975.184,4.88,4.88,0,0,0,1.42-.153,1.035,1.035,0,0,0,.652-.545,2.828,2.828,0,0,0,.184-1.159V57.868H17.57v9.486H15.79V67.2A5.529,5.529,0,0,1,13.533,67.569Zm9.655,0a5.472,5.472,0,0,1-2.172-.361,4.037,4.037,0,0,1-1.527-1.266V55.075h1.765v2.916a5.409,5.409,0,0,1,1.934-.338,4.083,4.083,0,0,1,2.187.507,2.822,2.822,0,0,1,1.159,1.581,11.907,11.907,0,0,1,0,5.756,2.786,2.786,0,0,1-1.159,1.573A4.133,4.133,0,0,1,23.188,67.569Zm0-1.627a1.966,1.966,0,0,0,1.167-.3,1.69,1.69,0,0,0,.591-1.005,8.773,8.773,0,0,0,.177-2.011,8.878,8.878,0,0,0-.177-2.018,1.733,1.733,0,0,0-.591-1.021,1.929,1.929,0,0,0-1.167-.307,3.164,3.164,0,0,0-1.2.177,1.024,1.024,0,0,0-.568.637,4.381,4.381,0,0,0-.161,1.366v3.914a1.937,1.937,0,0,0,.767.453A4.473,4.473,0,0,0,23.188,65.942Zm10.606,1.627a3.524,3.524,0,0,1-1.665-.322,1.821,1.821,0,0,1-.844-1.074,6.928,6.928,0,0,1-.253-2.118V56.7H29.1V55.075h3.7v8.979a3.512,3.512,0,0,0,.215,1.481.805.805,0,0,0,.783.407,1.18,1.18,0,0,0,.591-.184,7.21,7.21,0,0,0,.883-.66l.982,1.5a4.705,4.705,0,0,1-1.2.76A3.426,3.426,0,0,1,33.795,67.569Zm8.918-9.7v7.859H45.4v1.627H38.261V65.727h2.686V59.5H39.014V57.868ZM41.5,56.487a1.547,1.547,0,0,1-1.051-.269,1.868,1.868,0,0,1,0-1.98A1.547,1.547,0,0,1,41.5,53.97a1.58,1.58,0,0,1,1.059.269,1.826,1.826,0,0,1,0,1.98A1.58,1.58,0,0,1,41.5,56.487Zm9.409,11.082a4.978,4.978,0,0,1-2.425-.5A2.835,2.835,0,0,1,47.2,65.5a10.833,10.833,0,0,1,0-5.771,2.818,2.818,0,0,1,1.3-1.573,5.148,5.148,0,0,1,2.471-.5,4.146,4.146,0,0,1,2.134.476,4.823,4.823,0,0,1,1.535,1.688l-1.474.875a6.251,6.251,0,0,0-.66-.89,1.51,1.51,0,0,0-.622-.407,3.717,3.717,0,0,0-2.379.184,1.629,1.629,0,0,0-.721,1.005,10.009,10.009,0,0,0,0,4.052,1.661,1.661,0,0,0,.7,1.005,2.772,2.772,0,0,0,1.427.3,2.876,2.876,0,0,0,.913-.123,1.71,1.71,0,0,0,.66-.422,6.07,6.07,0,0,0,.7-.9l1.458.89a5,5,0,0,1-1.573,1.7A4.224,4.224,0,0,1,50.909,67.569Zm18.926-.215h-1.6l-3.408-9.486h1.827l2.379,6.861,2.425-6.861h1.811Zm8.427.215a4.269,4.269,0,0,1-2.249-.507,2.832,2.832,0,0,1-1.182-1.581,11.6,11.6,0,0,1,0-5.741,2.832,2.832,0,0,1,1.182-1.581,5.262,5.262,0,0,1,4.505,0,2.82,2.82,0,0,1,1.19,1.581,11.6,11.6,0,0,1,0,5.741,2.82,2.82,0,0,1-1.19,1.581A4.311,4.311,0,0,1,78.262,67.569Zm0-1.627a2.172,2.172,0,0,0,1.236-.3,1.674,1.674,0,0,0,.622-1.013,11.152,11.152,0,0,0,0-4.037A1.674,1.674,0,0,0,79.5,59.58a2.172,2.172,0,0,0-1.236-.3,2.134,2.134,0,0,0-1.228.3,1.69,1.69,0,0,0-.614,1.013,11.151,11.151,0,0,0,0,4.037,1.69,1.69,0,0,0,.614,1.013A2.134,2.134,0,0,0,78.262,65.942Zm10.5-8.074v7.859h2.686v1.627H84.31V65.727H87V59.5H85.062V57.868Zm-1.213-1.381a1.547,1.547,0,0,1-1.051-.269,1.868,1.868,0,0,1,0-1.98,1.547,1.547,0,0,1,1.051-.269,1.58,1.58,0,0,1,1.059.269,1.826,1.826,0,0,1,0,1.98A1.58,1.58,0,0,1,87.549,56.487ZM96.6,67.569a4.322,4.322,0,0,1-2.249-.5A2.8,2.8,0,0,1,93.174,65.5a11.662,11.662,0,0,1,0-5.756,2.832,2.832,0,0,1,1.182-1.581,4.269,4.269,0,0,1,2.249-.507,5.728,5.728,0,0,1,2.057.368V55.075h1.765v12.28H98.662v-.107A6.028,6.028,0,0,1,96.6,67.569Zm0-1.627a3.821,3.821,0,0,0,1.558-.238.727.727,0,0,0,.5-.652V61.429a2.334,2.334,0,0,0-.484-1.627,2.06,2.06,0,0,0-1.573-.522,2.093,2.093,0,0,0-1.228.307,1.727,1.727,0,0,0-.614,1.021,8.52,8.52,0,0,0-.184,2.018,8.419,8.419,0,0,0,.184,2.011,1.685,1.685,0,0,0,.614,1.005A2.134,2.134,0,0,0,96.6,65.942Zm21.873-10.867V56.7h-2.487v9.025h2.487v1.627h-6.738V65.727h2.487V56.7h-2.487V55.075Zm2.241,12.28V57.868h1.765v.23a5.348,5.348,0,0,1,2.256-.445,4.565,4.565,0,0,1,2.018.361,2.078,2.078,0,0,1,1.021,1.213,7.376,7.376,0,0,1,.307,2.4v5.725h-1.781V61.629a5.328,5.328,0,0,0-.146-1.42,1.216,1.216,0,0,0-.476-.714,1.73,1.73,0,0,0-.944-.215,4.467,4.467,0,0,0-1.466.177,1.012,1.012,0,0,0-.629.622,4.359,4.359,0,0,0-.161,1.381v5.894Zm13.078.215a4.978,4.978,0,0,1-2.425-.5A2.835,2.835,0,0,1,130.09,65.5a10.833,10.833,0,0,1,0-5.771,2.818,2.818,0,0,1,1.3-1.573,5.148,5.148,0,0,1,2.471-.5,4.146,4.146,0,0,1,2.134.476,4.823,4.823,0,0,1,1.535,1.688l-1.474.875a6.249,6.249,0,0,0-.66-.89,1.51,1.51,0,0,0-.622-.407,3.717,3.717,0,0,0-2.379.184,1.629,1.629,0,0,0-.721,1.005,10.009,10.009,0,0,0,0,4.052,1.661,1.661,0,0,0,.7,1.005,2.772,2.772,0,0,0,1.427.3,2.876,2.876,0,0,0,.913-.123,1.71,1.71,0,0,0,.66-.422,6.071,6.071,0,0,0,.7-.9l1.458.89a5,5,0,0,1-1.573,1.7A4.224,4.224,0,0,1,133.8,67.569Zm5.756-.215V57.868h1.765v.783a3.374,3.374,0,0,1,.952-.7,2.717,2.717,0,0,1,1.259-.3,3.93,3.93,0,0,1,1.474.238,2.467,2.467,0,0,1,1.005.767,5.183,5.183,0,0,1,.76,1.466l-1.581.721a5.5,5.5,0,0,0-.4-1,1,1,0,0,0-.468-.445,2.045,2.045,0,0,0-.79-.123,1.843,1.843,0,0,0-1.7.821,4.589,4.589,0,0,0-.507,2.387v4.866Zm12.433-1.412a2.53,2.53,0,0,0,1.312-.315,3.9,3.9,0,0,0,1.1-1.113l1.412.936a5.061,5.061,0,0,1-1.619,1.658,4.5,4.5,0,0,1-2.2.46,5.262,5.262,0,0,1-2.433-.46,2.63,2.63,0,0,1-1.243-1.52,9.262,9.262,0,0,1-.376-2.978,9.262,9.262,0,0,1,.376-2.978,2.63,2.63,0,0,1,1.243-1.52,5.262,5.262,0,0,1,2.433-.46,4.75,4.75,0,0,1,2.387.5,2.8,2.8,0,0,1,1.22,1.665,11.346,11.346,0,0,1,.368,3.269h-6.247a5.714,5.714,0,0,0,.276,1.7,1.615,1.615,0,0,0,.706.883A2.627,2.627,0,0,0,151.986,65.942Zm0-6.662a2.3,2.3,0,0,0-1.627.484,2.631,2.631,0,0,0-.614,1.7h4.405a3.447,3.447,0,0,0-.2-1.312,1.221,1.221,0,0,0-.668-.668A3.4,3.4,0,0,0,151.986,59.281Zm4.927,8.074V57.868h1.765v-.061q.123-.031.46-.092a3.391,3.391,0,0,1,.6-.061,2.171,2.171,0,0,1,.952.169,1.8,1.8,0,0,1,.645.614,2.005,2.005,0,0,1,1.75-.783,2.263,2.263,0,0,1,1.381.368,2.1,2.1,0,0,1,.706,1.213,9.994,9.994,0,0,1,.215,2.348v5.771h-1.765V61.583a8.177,8.177,0,0,0-.115-1.681q-.115-.468-.422-.468a.84.84,0,0,0-.821.43,3.728,3.728,0,0,0-.223,1.55v5.94h-1.765V61.675a8.362,8.362,0,0,0-.123-1.742q-.123-.5-.414-.5a.857.857,0,0,0-.829.43,3.615,3.615,0,0,0-.23,1.55v5.94Zm13.492-1.412a2.53,2.53,0,0,0,1.312-.315,3.9,3.9,0,0,0,1.1-1.113l1.412.936a5.061,5.061,0,0,1-1.619,1.658,4.5,4.5,0,0,1-2.2.46,5.262,5.262,0,0,1-2.433-.46,2.63,2.63,0,0,1-1.243-1.52,9.262,9.262,0,0,1-.376-2.978,9.262,9.262,0,0,1,.376-2.978,2.63,2.63,0,0,1,1.243-1.52,5.262,5.262,0,0,1,2.433-.46,4.75,4.75,0,0,1,2.387.5,2.8,2.8,0,0,1,1.22,1.665,11.344,11.344,0,0,1,.368,3.269h-6.247a5.714,5.714,0,0,0,.276,1.7,1.614,1.614,0,0,0,.706.883A2.627,2.627,0,0,0,170.405,65.942Zm0-6.662a2.3,2.3,0,0,0-1.627.484,2.631,2.631,0,0,0-.614,1.7h4.405a3.447,3.447,0,0,0-.2-1.312,1.221,1.221,0,0,0-.668-.668A3.4,3.4,0,0,0,170.405,59.281Zm5.572,8.074V57.868h1.765v.23A5.348,5.348,0,0,1,180,57.654a4.565,4.565,0,0,1,2.018.361,2.078,2.078,0,0,1,1.021,1.213,7.376,7.376,0,0,1,.307,2.4v5.725h-1.781V61.629a5.328,5.328,0,0,0-.146-1.42,1.216,1.216,0,0,0-.476-.714,1.73,1.73,0,0,0-.944-.215,4.467,4.467,0,0,0-1.466.177,1.012,1.012,0,0,0-.629.622,4.359,4.359,0,0,0-.161,1.381v5.894Zm13.8.215a3.627,3.627,0,0,1-1.8-.384,2.251,2.251,0,0,1-.99-1.22,6.381,6.381,0,0,1-.315-2.2V59.311h-1.9V57.684h1.9V55.075h1.765v2.609h3.177v1.627h-3.177v4.451a5.523,5.523,0,0,0,.123,1.328,1.091,1.091,0,0,0,.407.66,1.432,1.432,0,0,0,.806.192,3.121,3.121,0,0,0,.821-.077.607.607,0,0,0,.368-.276,3.791,3.791,0,0,0,.269-.691l1.658.568a3.52,3.52,0,0,1-.6,1.251,2.053,2.053,0,0,1-.959.652A4.991,4.991,0,0,1,189.776,67.569Zm8.212,0a7.48,7.48,0,0,1-1.926-.207,2.96,2.96,0,0,1-1.274-.691,4.354,4.354,0,0,1-.913-1.328l1.366-1.289a4.771,4.771,0,0,0,.553,1.182,1.486,1.486,0,0,0,.767.545,4.831,4.831,0,0,0,1.427.161,3.67,3.67,0,0,0,1.351-.192,1.144,1.144,0,0,0,.645-.637,3.567,3.567,0,0,0,.184-1.3,1.92,1.92,0,0,0-.2-.967,1.577,1.577,0,0,0-.66-.576,11.236,11.236,0,0,0-1.474-.576,11.923,11.923,0,0,1-2.141-.89,2.854,2.854,0,0,1-1.082-1.013,3.011,3.011,0,0,1-.338-1.52,4.6,4.6,0,0,1,.361-1.988A2.181,2.181,0,0,1,195.8,55.2a5.785,5.785,0,0,1,2.187-.338,7.111,7.111,0,0,1,1.773.184,2.948,2.948,0,0,1,1.19.606,4,4,0,0,1,.89,1.174l-1.259,1.366a4.811,4.811,0,0,0-.553-1.082,1.366,1.366,0,0,0-.721-.484,4.844,4.844,0,0,0-1.32-.138,3.66,3.66,0,0,0-1.22.153.954.954,0,0,0-.568.53,2.9,2.9,0,0,0-.161,1.1,1.581,1.581,0,0,0,.169.814,1.294,1.294,0,0,0,.576.468,11.514,11.514,0,0,0,1.343.484,11.921,11.921,0,0,1,2.279.921,2.922,2.922,0,0,1,1.167,1.128,3.62,3.62,0,0,1,.361,1.727A5.215,5.215,0,0,1,201.549,66a2.379,2.379,0,0,1-1.236,1.19A5.876,5.876,0,0,1,197.988,67.569Zm9.486,0a4.978,4.978,0,0,1-2.425-.5,2.835,2.835,0,0,1-1.282-1.573,10.833,10.833,0,0,1,0-5.771,2.818,2.818,0,0,1,1.3-1.573,5.148,5.148,0,0,1,2.471-.5,4.146,4.146,0,0,1,2.134.476,4.823,4.823,0,0,1,1.535,1.688l-1.474.875a6.251,6.251,0,0,0-.66-.89,1.51,1.51,0,0,0-.622-.407,3.717,3.717,0,0,0-2.379.184,1.629,1.629,0,0,0-.721,1.005,10.009,10.009,0,0,0,0,4.052,1.661,1.661,0,0,0,.7,1.005,2.772,2.772,0,0,0,1.428.3,2.876,2.876,0,0,0,.913-.123,1.71,1.71,0,0,0,.66-.422,6.07,6.07,0,0,0,.7-.9l1.458.89a5,5,0,0,1-1.573,1.7A4.224,4.224,0,0,1,207.474,67.569Zm8.933,0a4.269,4.269,0,0,1-2.249-.507,2.832,2.832,0,0,1-1.182-1.581,11.6,11.6,0,0,1,0-5.741,2.832,2.832,0,0,1,1.182-1.581,5.262,5.262,0,0,1,4.505,0,2.82,2.82,0,0,1,1.19,1.581,11.6,11.6,0,0,1,0,5.741,2.82,2.82,0,0,1-1.19,1.581A4.311,4.311,0,0,1,216.408,67.569Zm0-1.627a2.173,2.173,0,0,0,1.236-.3,1.674,1.674,0,0,0,.622-1.013,11.152,11.152,0,0,0,0-4.037,1.674,1.674,0,0,0-.622-1.013,2.172,2.172,0,0,0-1.236-.3,2.134,2.134,0,0,0-1.228.3,1.69,1.69,0,0,0-.614,1.013,11.152,11.152,0,0,0,0,4.037,1.69,1.69,0,0,0,.614,1.013A2.134,2.134,0,0,0,216.408,65.942Zm6.032,1.412V57.868h1.765v.783a3.374,3.374,0,0,1,.952-.7,2.717,2.717,0,0,1,1.259-.3,3.93,3.93,0,0,1,1.474.238,2.467,2.467,0,0,1,1.005.767,5.183,5.183,0,0,1,.76,1.466l-1.581.721a5.5,5.5,0,0,0-.4-1,1,1,0,0,0-.468-.445,2.045,2.045,0,0,0-.79-.123,1.843,1.843,0,0,0-1.7.821,4.589,4.589,0,0,0-.507,2.387v4.866Zm12.433-1.412a2.53,2.53,0,0,0,1.312-.315,3.9,3.9,0,0,0,1.1-1.113l1.412.936a5.061,5.061,0,0,1-1.619,1.658,4.5,4.5,0,0,1-2.2.46,5.262,5.262,0,0,1-2.433-.46,2.63,2.63,0,0,1-1.243-1.52,9.263,9.263,0,0,1-.376-2.978,9.263,9.263,0,0,1,.376-2.978,2.63,2.63,0,0,1,1.243-1.52,5.262,5.262,0,0,1,2.433-.46,4.75,4.75,0,0,1,2.387.5,2.8,2.8,0,0,1,1.22,1.665,11.345,11.345,0,0,1,.368,3.269H232.6a5.715,5.715,0,0,0,.276,1.7,1.615,1.615,0,0,0,.706.883A2.627,2.627,0,0,0,234.873,65.942Zm0-6.662a2.3,2.3,0,0,0-1.627.484,2.63,2.63,0,0,0-.614,1.7h4.405a3.447,3.447,0,0,0-.2-1.312,1.221,1.221,0,0,0-.668-.668A3.4,3.4,0,0,0,234.873,59.281Zm11.819,10.3a3.984,3.984,0,0,1-2.717-1.044,6.7,6.7,0,0,1-1.827-2.939,15.217,15.217,0,0,1,0-8.765,6.7,6.7,0,0,1,1.827-2.939,3.984,3.984,0,0,1,2.717-1.044v1.627a2.375,2.375,0,0,0-1.788.837,5.7,5.7,0,0,0-1.2,2.364,14.778,14.778,0,0,0,0,7.076,5.7,5.7,0,0,0,1.2,2.364,2.375,2.375,0,0,0,1.788.837Zm7.844-11.712v7.859h2.686v1.627h-7.137V65.727h2.686V59.5h-1.934V57.868Zm-1.213-1.381a1.547,1.547,0,0,1-1.051-.269,1.868,1.868,0,0,1,0-1.98,1.547,1.547,0,0,1,1.051-.269,1.581,1.581,0,0,1,1.059.269,1.826,1.826,0,0,1,0,1.98A1.581,1.581,0,0,1,253.323,56.487Zm5.541,10.867V57.868h1.765v.23a5.348,5.348,0,0,1,2.256-.445,4.565,4.565,0,0,1,2.018.361,2.078,2.078,0,0,1,1.021,1.213,7.377,7.377,0,0,1,.307,2.4v5.725h-1.781V61.629a5.329,5.329,0,0,0-.146-1.42,1.216,1.216,0,0,0-.476-.714,1.73,1.73,0,0,0-.944-.215,4.467,4.467,0,0,0-1.466.177,1.012,1.012,0,0,0-.629.622,4.359,4.359,0,0,0-.161,1.381v5.894Zm13.8.215a3.627,3.627,0,0,1-1.8-.384,2.251,2.251,0,0,1-.99-1.22,6.381,6.381,0,0,1-.315-2.2V59.311h-1.9V57.684h1.9V55.075h1.765v2.609h3.177v1.627h-3.177v4.451a5.522,5.522,0,0,0,.123,1.328,1.091,1.091,0,0,0,.407.66,1.432,1.432,0,0,0,.806.192,3.122,3.122,0,0,0,.821-.077.607.607,0,0,0,.368-.276,3.794,3.794,0,0,0,.269-.691l1.658.568a3.519,3.519,0,0,1-.6,1.251,2.053,2.053,0,0,1-.959.652A4.991,4.991,0,0,1,272.663,67.569ZM5.874,83.2v7.859H8.56v1.627H1.423V91.054H4.109V84.822H2.175V83.2ZM4.661,81.814a1.547,1.547,0,0,1-1.051-.269,1.868,1.868,0,0,1,0-1.98A1.547,1.547,0,0,1,4.661,79.3a1.58,1.58,0,0,1,1.059.269,1.826,1.826,0,0,1,0,1.98A1.58,1.58,0,0,1,4.661,81.814ZM10.2,92.681V83.2h1.765v.23a5.348,5.348,0,0,1,2.256-.445,4.565,4.565,0,0,1,2.018.361,2.078,2.078,0,0,1,1.021,1.213,7.376,7.376,0,0,1,.307,2.4v5.725H15.79V86.956a5.328,5.328,0,0,0-.146-1.42,1.216,1.216,0,0,0-.476-.714,1.73,1.73,0,0,0-.944-.215,4.467,4.467,0,0,0-1.466.177,1.012,1.012,0,0,0-.629.622,4.359,4.359,0,0,0-.161,1.381v5.894ZM23.28,92.9a4.978,4.978,0,0,1-2.425-.5,2.835,2.835,0,0,1-1.282-1.573,10.833,10.833,0,0,1,0-5.771,2.818,2.818,0,0,1,1.3-1.573,5.148,5.148,0,0,1,2.471-.5,4.146,4.146,0,0,1,2.134.476,4.823,4.823,0,0,1,1.535,1.688l-1.474.875a6.25,6.25,0,0,0-.66-.89,1.51,1.51,0,0,0-.622-.407,2.963,2.963,0,0,0-.913-.115,2.944,2.944,0,0,0-1.466.3,1.629,1.629,0,0,0-.721,1.005,10.009,10.009,0,0,0,0,4.052,1.661,1.661,0,0,0,.7,1.005,2.772,2.772,0,0,0,1.428.3,2.876,2.876,0,0,0,.913-.123,1.71,1.71,0,0,0,.66-.422,6.07,6.07,0,0,0,.7-.9l1.458.89a5,5,0,0,1-1.573,1.7A4.224,4.224,0,0,1,23.28,92.9Zm5.756-.215V83.2H30.8v.783a3.375,3.375,0,0,1,.952-.7,2.717,2.717,0,0,1,1.259-.3,3.93,3.93,0,0,1,1.474.238,2.467,2.467,0,0,1,1.005.767,5.184,5.184,0,0,1,.76,1.466l-1.581.721a5.5,5.5,0,0,0-.4-1,1,1,0,0,0-.468-.445,2.045,2.045,0,0,0-.791-.123,1.843,1.843,0,0,0-1.7.821,4.589,4.589,0,0,0-.507,2.387v4.866ZM41.47,91.269a2.53,2.53,0,0,0,1.312-.315,3.9,3.9,0,0,0,1.1-1.113l1.412.936a5.061,5.061,0,0,1-1.619,1.658,4.5,4.5,0,0,1-2.2.46,5.262,5.262,0,0,1-2.433-.46,2.63,2.63,0,0,1-1.243-1.52,11.978,11.978,0,0,1,0-5.956,2.63,2.63,0,0,1,1.243-1.52,5.262,5.262,0,0,1,2.433-.46,4.75,4.75,0,0,1,2.387.5,2.8,2.8,0,0,1,1.22,1.665,11.345,11.345,0,0,1,.368,3.269H39.2a5.714,5.714,0,0,0,.276,1.7A1.614,1.614,0,0,0,40.18,91,2.627,2.627,0,0,0,41.47,91.269Zm0-6.662a2.3,2.3,0,0,0-1.627.484,2.631,2.631,0,0,0-.614,1.7h4.405a3.447,3.447,0,0,0-.2-1.312,1.221,1.221,0,0,0-.668-.668A3.4,3.4,0,0,0,41.47,84.607ZM46.4,92.681V83.2h1.765v-.061q.123-.031.46-.092a3.391,3.391,0,0,1,.6-.061,2.171,2.171,0,0,1,.952.169,1.8,1.8,0,0,1,.645.614,2.005,2.005,0,0,1,1.75-.783,2.263,2.263,0,0,1,1.381.368,2.1,2.1,0,0,1,.706,1.213,9.993,9.993,0,0,1,.215,2.348v5.771H53.1V86.91a8.179,8.179,0,0,0-.115-1.681q-.115-.468-.422-.468a.84.84,0,0,0-.821.43,3.728,3.728,0,0,0-.223,1.55v5.94H49.758V87a8.362,8.362,0,0,0-.123-1.742q-.123-.5-.414-.5a.857.857,0,0,0-.829.43,3.615,3.615,0,0,0-.23,1.55v5.94Zm13.492-1.412a2.53,2.53,0,0,0,1.312-.315,3.9,3.9,0,0,0,1.1-1.113l1.412.936a5.061,5.061,0,0,1-1.619,1.658,4.5,4.5,0,0,1-2.2.46,5.262,5.262,0,0,1-2.433-.46,2.63,2.63,0,0,1-1.243-1.52,11.978,11.978,0,0,1,0-5.956,2.63,2.63,0,0,1,1.243-1.52,5.262,5.262,0,0,1,2.433-.46,4.75,4.75,0,0,1,2.387.5,2.8,2.8,0,0,1,1.22,1.665,11.345,11.345,0,0,1,.368,3.269H57.617a5.714,5.714,0,0,0,.276,1.7A1.614,1.614,0,0,0,58.6,91,2.627,2.627,0,0,0,59.889,91.269Zm0-6.662a2.3,2.3,0,0,0-1.627.484,2.631,2.631,0,0,0-.614,1.7h4.405a3.447,3.447,0,0,0-.2-1.312,1.221,1.221,0,0,0-.668-.668A3.4,3.4,0,0,0,59.889,84.607Zm5.572,8.074V83.2h1.765v.23a5.348,5.348,0,0,1,2.256-.445,4.565,4.565,0,0,1,2.018.361,2.078,2.078,0,0,1,1.021,1.213,7.375,7.375,0,0,1,.307,2.4v5.725H71.048V86.956a5.329,5.329,0,0,0-.146-1.42,1.216,1.216,0,0,0-.476-.714,1.73,1.73,0,0,0-.944-.215,4.467,4.467,0,0,0-1.466.177,1.012,1.012,0,0,0-.629.622,4.359,4.359,0,0,0-.161,1.381v5.894Zm13.8.215a3.627,3.627,0,0,1-1.8-.384,2.251,2.251,0,0,1-.99-1.22,6.381,6.381,0,0,1-.315-2.2V84.638h-1.9V83.011h1.9V80.4h1.765v2.609H81.1v1.627H77.925v4.451a5.523,5.523,0,0,0,.123,1.328,1.091,1.091,0,0,0,.407.66,1.432,1.432,0,0,0,.806.192,3.121,3.121,0,0,0,.821-.077.607.607,0,0,0,.368-.276,3.79,3.79,0,0,0,.269-.691l1.658.568a3.519,3.519,0,0,1-.6,1.251,2.052,2.052,0,0,1-.959.652A4.991,4.991,0,0,1,79.26,92.9Zm4.559-.215V80.4h3.408a6.15,6.15,0,0,1,2.226.33,2.246,2.246,0,0,1,1.2,1.036,4.03,4.03,0,0,1,.376,1.888,4.284,4.284,0,0,1-.2,1.474,2.195,2.195,0,0,1-.691.921,2.443,2.443,0,0,1,.982,1.09,4.827,4.827,0,0,1,.292,1.888,5.1,5.1,0,0,1-.368,2.126,2.3,2.3,0,0,1-1.2,1.159,5.616,5.616,0,0,1-2.241.368Zm3.408-7.306a5.591,5.591,0,0,0,1.3-.107.84.84,0,0,0,.576-.46,2.86,2.86,0,0,0,.169-1.151,2.305,2.305,0,0,0-.169-1,.982.982,0,0,0-.6-.484,4.206,4.206,0,0,0-1.274-.146H85.584v3.346Zm.384,5.679a3.464,3.464,0,0,0,1.259-.177,1.071,1.071,0,0,0,.606-.606,3.408,3.408,0,0,0,.177-1.243,3.9,3.9,0,0,0-.169-1.343.9.9,0,0,0-.583-.553A4.649,4.649,0,0,0,87.61,87H85.584v4.052Zm6.524,4.636a3.12,3.12,0,0,1-1.044-.153,4.076,4.076,0,0,1-.952-.522l.706-1.489a8.1,8.1,0,0,0,.8.445,1.237,1.237,0,0,0,.491.092,2.174,2.174,0,0,0,.89-.153,1.441,1.441,0,0,0,.591-.53,4.746,4.746,0,0,0,.5-1.113L92.936,83.2h1.842l2.272,6.754,2.3-6.754h1.857l-3.3,9.194a8.413,8.413,0,0,1-.936,1.965,2.952,2.952,0,0,1-1.159,1.021A3.942,3.942,0,0,1,94.134,95.69Zm9.118-2.41a2.375,2.375,0,0,0,1.788-.837,5.7,5.7,0,0,0,1.2-2.364,14.778,14.778,0,0,0,0-7.076,5.7,5.7,0,0,0-1.2-2.364,2.375,2.375,0,0,0-1.788-.837V78.176a3.984,3.984,0,0,1,2.717,1.044,6.7,6.7,0,0,1,1.827,2.939,15.217,15.217,0,0,1,0,8.765,6.7,6.7,0,0,1-1.827,2.939,3.984,3.984,0,0,1-2.717,1.044ZM7.808,120.233a5.454,5.454,0,0,1-3.3-.791,2.984,2.984,0,0,1-1.028-2.525,8.261,8.261,0,0,1,.153-1.381,8.074,8.074,0,0,0,.123-1.044,1.716,1.716,0,0,0-.537-.89q-.537-.6-1.75-1.734,1.213-1.167,1.75-1.765a1.7,1.7,0,0,0,.537-.921,6.244,6.244,0,0,0-.123-.936,7.582,7.582,0,0,1-.153-1.412A3.006,3.006,0,0,1,4.508,104.3a5.414,5.414,0,0,1,3.3-.8v1.642a5.729,5.729,0,0,0-1.535.161,1.361,1.361,0,0,0-.8.537,1.914,1.914,0,0,0-.246,1.051,5.135,5.135,0,0,0,.153,1.182,4.015,4.015,0,0,1,.138.952,2.725,2.725,0,0,1-.414,1.435,5.69,5.69,0,0,1-1.3,1.4,5.46,5.46,0,0,1,1.312,1.366,2.645,2.645,0,0,1,.407,1.412,4.787,4.787,0,0,1-.123.936,6.113,6.113,0,0,0-.153,1.289,1.888,1.888,0,0,0,.238,1.028,1.34,1.34,0,0,0,.79.53,5.729,5.729,0,0,0,1.535.161ZM41.04,143.549a3.816,3.816,0,0,1-2.018-.46,3.987,3.987,0,0,1-1.343-1.627l1.4-1.151a6.483,6.483,0,0,0,.53,1.028,1.213,1.213,0,0,0,.545.453,2.441,2.441,0,0,0,.89.13,7.71,7.71,0,0,0,1.6-.123,1.184,1.184,0,0,0,.737-.407,1.421,1.421,0,0,0,.2-.821,1.466,1.466,0,0,0-.161-.783.993.993,0,0,0-.576-.368,9.842,9.842,0,0,0-1.4-.246,6.046,6.046,0,0,1-2.686-.821,2.133,2.133,0,0,1-.829-1.865,3.114,3.114,0,0,1,.384-1.65,2.231,2.231,0,0,1,1.228-.913,7.161,7.161,0,0,1,2.272-.292,4.547,4.547,0,0,1,2.1.4,3.707,3.707,0,0,1,1.366,1.412L43.987,136.7a5.653,5.653,0,0,0-.583-.921,1.3,1.3,0,0,0-.6-.407,3.368,3.368,0,0,0-1-.115,6.152,6.152,0,0,0-1.328.107.966.966,0,0,0-.622.368,1.388,1.388,0,0,0-.169.752.75.75,0,0,0,.184.553,1.168,1.168,0,0,0,.553.276q.368.092,1.136.2a10.841,10.841,0,0,1,2.264.53,2.273,2.273,0,0,1,1.167.906,3.1,3.1,0,0,1,.361,1.619,3.138,3.138,0,0,1-.422,1.727,2.42,2.42,0,0,1-1.366.952A8.612,8.612,0,0,1,41.04,143.549Zm9.87,0a4.978,4.978,0,0,1-2.425-.5,2.835,2.835,0,0,1-1.282-1.573,10.833,10.833,0,0,1,0-5.771,2.818,2.818,0,0,1,1.3-1.573,5.148,5.148,0,0,1,2.471-.5,4.146,4.146,0,0,1,2.134.476,4.822,4.822,0,0,1,1.535,1.688l-1.474.875a6.25,6.25,0,0,0-.66-.89,1.51,1.51,0,0,0-.622-.407,3.717,3.717,0,0,0-2.379.184,1.629,1.629,0,0,0-.721,1.005,10.009,10.009,0,0,0,0,4.052,1.661,1.661,0,0,0,.7,1.005,2.772,2.772,0,0,0,1.427.3,2.876,2.876,0,0,0,.913-.123,1.71,1.71,0,0,0,.66-.422,6.069,6.069,0,0,0,.7-.9l1.458.89a5,5,0,0,1-1.573,1.7A4.224,4.224,0,0,1,50.909,143.549Zm8.933,0a4.269,4.269,0,0,1-2.249-.507,2.832,2.832,0,0,1-1.182-1.581,11.6,11.6,0,0,1,0-5.741,2.832,2.832,0,0,1,1.182-1.581,5.262,5.262,0,0,1,4.505,0,2.82,2.82,0,0,1,1.19,1.581,11.6,11.6,0,0,1,0,5.741,2.82,2.82,0,0,1-1.19,1.581A4.311,4.311,0,0,1,59.843,143.549Zm0-1.627a2.173,2.173,0,0,0,1.236-.3,1.674,1.674,0,0,0,.622-1.013,11.152,11.152,0,0,0,0-4.037,1.674,1.674,0,0,0-.622-1.013,2.173,2.173,0,0,0-1.236-.3,2.134,2.134,0,0,0-1.228.3A1.69,1.69,0,0,0,58,136.573a11.152,11.152,0,0,0,0,4.037,1.691,1.691,0,0,0,.614,1.013A2.134,2.134,0,0,0,59.843,141.922Zm6.032,1.412v-9.486H67.64v.783a3.374,3.374,0,0,1,.952-.7,2.717,2.717,0,0,1,1.259-.3,3.93,3.93,0,0,1,1.474.238,2.467,2.467,0,0,1,1.005.767,5.184,5.184,0,0,1,.76,1.466l-1.581.721a5.5,5.5,0,0,0-.4-1,1,1,0,0,0-.468-.445,2.045,2.045,0,0,0-.791-.123,1.843,1.843,0,0,0-1.7.821,4.589,4.589,0,0,0-.507,2.387v4.866Zm12.433-1.412a2.53,2.53,0,0,0,1.312-.315,3.9,3.9,0,0,0,1.1-1.113l1.412.936a5.061,5.061,0,0,1-1.619,1.658,4.5,4.5,0,0,1-2.2.46,5.262,5.262,0,0,1-2.433-.46,2.63,2.63,0,0,1-1.243-1.52,11.978,11.978,0,0,1,0-5.956,2.63,2.63,0,0,1,1.243-1.52,5.262,5.262,0,0,1,2.433-.46,4.75,4.75,0,0,1,2.387.5,2.8,2.8,0,0,1,1.22,1.665,11.345,11.345,0,0,1,.368,3.269H76.037a5.713,5.713,0,0,0,.276,1.7,1.615,1.615,0,0,0,.706.883A2.627,2.627,0,0,0,78.308,141.922Zm0-6.662a2.3,2.3,0,0,0-1.627.484,2.631,2.631,0,0,0-.614,1.7h4.405a3.447,3.447,0,0,0-.2-1.312,1.221,1.221,0,0,0-.668-.668A3.4,3.4,0,0,0,78.308,135.26ZM97.5,136.381h3.638v1.627H97.5v3.622H95.868v-3.622H92.23v-1.627h3.638v-3.638H97.5Zm12.848-.215h-8.9v-1.627h8.9Zm0,3.684h-8.9v-1.627h8.9Zm15.257-6v7.859h2.686v1.627h-7.138v-1.627h2.686v-6.232H121.9v-1.627Zm-1.213-1.381a1.547,1.547,0,0,1-1.051-.269,1.868,1.868,0,0,1,0-1.98,1.547,1.547,0,0,1,1.051-.269,1.58,1.58,0,0,1,1.059.269,1.826,1.826,0,0,1,0,1.98A1.58,1.58,0,0,1,124.387,132.467Zm5.541,10.867v-9.486h1.765v.23a5.349,5.349,0,0,1,2.256-.445,4.565,4.565,0,0,1,2.018.361,2.078,2.078,0,0,1,1.021,1.213,7.375,7.375,0,0,1,.307,2.4v5.725h-1.781v-5.725a5.328,5.328,0,0,0-.146-1.42,1.216,1.216,0,0,0-.476-.714,1.73,1.73,0,0,0-.944-.215,4.467,4.467,0,0,0-1.466.177,1.012,1.012,0,0,0-.629.622,4.359,4.359,0,0,0-.161,1.381v5.894Zm13.078.215a4.978,4.978,0,0,1-2.425-.5,2.835,2.835,0,0,1-1.282-1.573,10.833,10.833,0,0,1,0-5.771,2.818,2.818,0,0,1,1.3-1.573,5.148,5.148,0,0,1,2.471-.5,4.146,4.146,0,0,1,2.134.476,4.823,4.823,0,0,1,1.535,1.688l-1.474.875a6.248,6.248,0,0,0-.66-.89,1.51,1.51,0,0,0-.622-.407,3.717,3.717,0,0,0-2.379.184,1.629,1.629,0,0,0-.721,1.005,10.009,10.009,0,0,0,0,4.052,1.661,1.661,0,0,0,.7,1.005,2.772,2.772,0,0,0,1.428.3,2.876,2.876,0,0,0,.913-.123,1.709,1.709,0,0,0,.66-.422,6.068,6.068,0,0,0,.7-.9l1.458.89a5,5,0,0,1-1.573,1.7A4.224,4.224,0,0,1,143.006,143.549Zm5.756-.215v-9.486h1.765v.783a3.374,3.374,0,0,1,.952-.7,2.717,2.717,0,0,1,1.259-.3,3.93,3.93,0,0,1,1.474.238,2.467,2.467,0,0,1,1.005.767,5.183,5.183,0,0,1,.76,1.466l-1.581.721a5.5,5.5,0,0,0-.4-1,1,1,0,0,0-.468-.445,2.045,2.045,0,0,0-.79-.123,1.843,1.843,0,0,0-1.7.821,4.589,4.589,0,0,0-.507,2.387v4.866Zm12.433-1.412a2.53,2.53,0,0,0,1.312-.315,3.9,3.9,0,0,0,1.1-1.113l1.412.936a5.061,5.061,0,0,1-1.619,1.658,4.5,4.5,0,0,1-2.2.46,5.262,5.262,0,0,1-2.433-.46,2.63,2.63,0,0,1-1.243-1.52,11.978,11.978,0,0,1,0-5.956,2.63,2.63,0,0,1,1.243-1.52,5.262,5.262,0,0,1,2.433-.46,4.75,4.75,0,0,1,2.387.5,2.8,2.8,0,0,1,1.22,1.665,11.345,11.345,0,0,1,.368,3.269h-6.247a5.714,5.714,0,0,0,.276,1.7,1.615,1.615,0,0,0,.706.883A2.627,2.627,0,0,0,161.2,141.922Zm0-6.662a2.3,2.3,0,0,0-1.627.484,2.631,2.631,0,0,0-.614,1.7h4.405a3.447,3.447,0,0,0-.2-1.312,1.221,1.221,0,0,0-.668-.668A3.4,3.4,0,0,0,161.2,135.26Zm4.927,8.074v-9.486h1.765v-.061q.123-.031.46-.092a3.391,3.391,0,0,1,.6-.061,2.171,2.171,0,0,1,.952.169,1.8,1.8,0,0,1,.645.614,2.005,2.005,0,0,1,1.75-.783,2.263,2.263,0,0,1,1.381.368,2.1,2.1,0,0,1,.706,1.213,9.994,9.994,0,0,1,.215,2.348v5.771H172.83v-5.771a8.178,8.178,0,0,0-.115-1.681q-.115-.468-.422-.468a.84.84,0,0,0-.821.43,3.727,3.727,0,0,0-.223,1.55v5.94h-1.765v-5.679a8.362,8.362,0,0,0-.123-1.742q-.123-.5-.414-.5a.857.857,0,0,0-.829.43,3.615,3.615,0,0,0-.23,1.55v5.94Zm13.492-1.412a2.53,2.53,0,0,0,1.312-.315,3.9,3.9,0,0,0,1.1-1.113l1.412.936a5.061,5.061,0,0,1-1.619,1.658,4.5,4.5,0,0,1-2.2.46,5.262,5.262,0,0,1-2.433-.46,2.63,2.63,0,0,1-1.243-1.52,11.978,11.978,0,0,1,0-5.956,2.63,2.63,0,0,1,1.243-1.52,5.262,5.262,0,0,1,2.433-.46,4.75,4.75,0,0,1,2.387.5,2.8,2.8,0,0,1,1.22,1.665,11.345,11.345,0,0,1,.368,3.269h-6.247a5.714,5.714,0,0,0,.276,1.7,1.615,1.615,0,0,0,.706.883A2.627,2.627,0,0,0,179.615,141.922Zm0-6.662a2.3,2.3,0,0,0-1.627.484,2.631,2.631,0,0,0-.614,1.7h4.405a3.447,3.447,0,0,0-.2-1.312,1.221,1.221,0,0,0-.668-.668A3.4,3.4,0,0,0,179.615,135.26Zm5.572,8.074v-9.486h1.765v.23a5.349,5.349,0,0,1,2.256-.445,4.565,4.565,0,0,1,2.018.361,2.078,2.078,0,0,1,1.021,1.213,7.376,7.376,0,0,1,.307,2.4v5.725h-1.781v-5.725a5.329,5.329,0,0,0-.146-1.42,1.216,1.216,0,0,0-.476-.714,1.73,1.73,0,0,0-.944-.215,4.467,4.467,0,0,0-1.466.177,1.012,1.012,0,0,0-.629.622,4.359,4.359,0,0,0-.161,1.381v5.894Zm13.8.215a3.627,3.627,0,0,1-1.8-.384,2.251,2.251,0,0,1-.99-1.22,6.381,6.381,0,0,1-.315-2.2v-4.451h-1.9v-1.627h1.9v-2.609h1.765v2.609h3.177v1.627H197.65v4.451a5.523,5.523,0,0,0,.123,1.328,1.091,1.091,0,0,0,.407.66,1.432,1.432,0,0,0,.806.192,3.121,3.121,0,0,0,.821-.077.607.607,0,0,0,.368-.276,3.791,3.791,0,0,0,.269-.691l1.658.568a3.519,3.519,0,0,1-.6,1.251,2.052,2.052,0,0,1-.959.652A4.99,4.99,0,0,1,198.986,143.549Zm4.559-.215v-12.28h3.408a6.15,6.15,0,0,1,2.226.33,2.246,2.246,0,0,1,1.2,1.036,4.03,4.03,0,0,1,.376,1.888,4.284,4.284,0,0,1-.2,1.474,2.195,2.195,0,0,1-.691.921,2.443,2.443,0,0,1,.982,1.09,4.826,4.826,0,0,1,.292,1.888,5.1,5.1,0,0,1-.368,2.126,2.3,2.3,0,0,1-1.2,1.159,5.615,5.615,0,0,1-2.241.368Zm3.408-7.306a5.59,5.59,0,0,0,1.3-.107.84.84,0,0,0,.576-.46,2.859,2.859,0,0,0,.169-1.151,2.305,2.305,0,0,0-.169-1,.982.982,0,0,0-.6-.484,4.206,4.206,0,0,0-1.274-.146H205.31v3.346Zm.384,5.679a3.464,3.464,0,0,0,1.259-.176,1.071,1.071,0,0,0,.606-.606,3.409,3.409,0,0,0,.177-1.243,3.9,3.9,0,0,0-.169-1.343.9.9,0,0,0-.583-.553,4.65,4.65,0,0,0-1.289-.13H205.31v4.052Zm6.524,4.636a3.119,3.119,0,0,1-1.044-.154,4.075,4.075,0,0,1-.952-.522l.706-1.489a8.1,8.1,0,0,0,.8.445,1.237,1.237,0,0,0,.491.092,2.174,2.174,0,0,0,.89-.154,1.441,1.441,0,0,0,.591-.53,4.745,4.745,0,0,0,.5-1.113l-3.177-9.072H214.5l2.272,6.754,2.3-6.754h1.857l-3.3,9.194a8.413,8.413,0,0,1-.936,1.965,2.952,2.952,0,0,1-1.159,1.021A3.942,3.942,0,0,1,213.86,146.343Zm9.992,0a13.1,13.1,0,0,0,1.082-1.673,2.5,2.5,0,0,0,.3-1.105.963.963,0,0,1-.8-.276,1.763,1.763,0,0,1-.215-1.028,1.382,1.382,0,0,1,.3-1.021,2.263,2.263,0,0,1,2.195,0,1.382,1.382,0,0,1,.3,1.021,4.933,4.933,0,0,1-.391,2.018,8.751,8.751,0,0,1-1.42,2.065Zm1.765-10.146a1.607,1.607,0,0,1-1.1-.284,1.357,1.357,0,0,1-.3-1.005,1.382,1.382,0,0,1,.3-1.021,2.263,2.263,0,0,1,2.195,0,1.382,1.382,0,0,1,.3,1.021,1.357,1.357,0,0,1-.3,1.005A1.607,1.607,0,0,1,225.617,136.2ZM1.361,169.244a5.728,5.728,0,0,0,1.535-.161,1.376,1.376,0,0,0,.8-.53,1.841,1.841,0,0,0,.246-1.028,6.113,6.113,0,0,0-.153-1.289,4.787,4.787,0,0,1-.123-.936,2.683,2.683,0,0,1,.4-1.412,5.322,5.322,0,0,1,1.3-1.366,5.346,5.346,0,0,1-1.3-1.389,2.79,2.79,0,0,1-.407-1.451,4.015,4.015,0,0,1,.138-.952,5.136,5.136,0,0,0,.153-1.182A1.914,1.914,0,0,0,3.71,156.5a1.365,1.365,0,0,0-.806-.537,5.819,5.819,0,0,0-1.543-.161v-1.642a5.451,5.451,0,0,1,3.308.8,3,3,0,0,1,1.036,2.533,7.582,7.582,0,0,1-.153,1.412,6.244,6.244,0,0,0-.123.936,1.755,1.755,0,0,0,.537.936q.537.614,1.734,1.75-1.182,1.105-1.727,1.719a1.771,1.771,0,0,0-.545.906,8.075,8.075,0,0,0,.123,1.044,8.26,8.26,0,0,1,.153,1.381A2.973,2.973,0,0,1,4.669,170.1a5.492,5.492,0,0,1-3.308.79Zm4.006,50.07h-1.6L.364,209.828H2.19l2.379,6.861,2.425-6.861H8.806Zm8.427.215a4.268,4.268,0,0,1-2.249-.507,2.832,2.832,0,0,1-1.182-1.581,11.6,11.6,0,0,1,0-5.741,2.832,2.832,0,0,1,1.182-1.581,4.269,4.269,0,0,1,2.249-.507,4.311,4.311,0,0,1,2.256.507,2.82,2.82,0,0,1,1.19,1.581,11.6,11.6,0,0,1,0,5.741,2.82,2.82,0,0,1-1.19,1.581A4.311,4.311,0,0,1,13.794,219.529Zm0-1.627a2.172,2.172,0,0,0,1.236-.3,1.674,1.674,0,0,0,.622-1.013,11.152,11.152,0,0,0,0-4.037,1.674,1.674,0,0,0-.622-1.013,2.173,2.173,0,0,0-1.236-.3,2.134,2.134,0,0,0-1.228.3,1.691,1.691,0,0,0-.614,1.013,11.152,11.152,0,0,0,0,4.037,1.69,1.69,0,0,0,.614,1.013A2.134,2.134,0,0,0,13.794,217.9Zm10.5-8.074v7.859H26.98v1.627H19.842v-1.627h2.686v-6.232H20.594v-1.627Zm-1.213-1.381a1.547,1.547,0,0,1-1.051-.269,1.868,1.868,0,0,1,0-1.98,1.548,1.548,0,0,1,1.051-.269,1.581,1.581,0,0,1,1.059.269,1.826,1.826,0,0,1,0,1.98A1.58,1.58,0,0,1,23.081,208.447Zm9.056,11.082a4.322,4.322,0,0,1-2.249-.5,2.8,2.8,0,0,1-1.182-1.573,11.662,11.662,0,0,1,0-5.756,2.832,2.832,0,0,1,1.182-1.581,4.269,4.269,0,0,1,2.249-.507,5.729,5.729,0,0,1,2.057.368v-2.947h1.765v12.28H34.194v-.107A6.028,6.028,0,0,1,32.137,219.529Zm0-1.627a3.821,3.821,0,0,0,1.558-.238.727.727,0,0,0,.5-.652v-3.622a2.334,2.334,0,0,0-.484-1.627,2.06,2.06,0,0,0-1.573-.522,2.093,2.093,0,0,0-1.228.307,1.727,1.727,0,0,0-.614,1.021,8.52,8.52,0,0,0-.184,2.018A8.419,8.419,0,0,0,30.3,216.6a1.685,1.685,0,0,0,.614,1.005A2.134,2.134,0,0,0,32.137,217.9Zm18.5,1.627a4.255,4.255,0,0,1-2.218-.491,2.785,2.785,0,0,1-1.167-1.573,9.478,9.478,0,0,1-.361-2.909v-7.521h1.765v7.521a9.058,9.058,0,0,0,.177,2.049,1.641,1.641,0,0,0,.6,1.005,2.107,2.107,0,0,0,1.2.292,2.145,2.145,0,0,0,1.213-.292,1.625,1.625,0,0,0,.606-1.005,9.058,9.058,0,0,0,.177-2.049v-7.521h1.765v7.521a9.478,9.478,0,0,1-.361,2.909,2.773,2.773,0,0,1-1.174,1.573A4.3,4.3,0,0,1,50.633,219.529Zm5.5,2.579v-12.28h1.781v.092a6.25,6.25,0,0,1,2.041-.307,4.365,4.365,0,0,1,2.256.5,2.785,2.785,0,0,1,1.19,1.573,11.631,11.631,0,0,1,0,5.748,2.821,2.821,0,0,1-1.19,1.589,4.311,4.311,0,0,1-2.256.507,5.605,5.605,0,0,1-2.041-.368v2.947ZM59.95,217.9a2.13,2.13,0,0,0,1.236-.307,1.71,1.71,0,0,0,.622-1.021,8.52,8.52,0,0,0,.184-2.018,8.419,8.419,0,0,0-.184-2.011,1.669,1.669,0,0,0-.622-1.005,2.173,2.173,0,0,0-1.236-.3q-2.041,0-2.041.89v3.622a2.359,2.359,0,0,0,.476,1.627A2.033,2.033,0,0,0,59.95,217.9Zm9.026,1.627a4.322,4.322,0,0,1-2.249-.5,2.8,2.8,0,0,1-1.182-1.573,11.662,11.662,0,0,1,0-5.756,2.832,2.832,0,0,1,1.182-1.581,4.269,4.269,0,0,1,2.249-.507,5.729,5.729,0,0,1,2.057.368v-2.947H72.8v12.28H71.033v-.107A6.028,6.028,0,0,1,68.976,219.529Zm0-1.627a3.821,3.821,0,0,0,1.558-.238.727.727,0,0,0,.5-.652v-3.622a2.334,2.334,0,0,0-.484-1.627,2.06,2.06,0,0,0-1.573-.522,2.093,2.093,0,0,0-1.228.307,1.728,1.728,0,0,0-.614,1.021,8.521,8.521,0,0,0-.184,2.018,8.42,8.42,0,0,0,.184,2.011,1.685,1.685,0,0,0,.614,1.005A2.134,2.134,0,0,0,68.976,217.9Zm9.041,1.627a6.255,6.255,0,0,1-2.172-.307,2.141,2.141,0,0,1-1.167-.959,3.6,3.6,0,0,1-.361-1.742,4.051,4.051,0,0,1,.361-1.9,1.967,1.967,0,0,1,1.151-.936,7.056,7.056,0,0,1,2.187-.269h1.934v-.338a2.469,2.469,0,0,0-.161-1,.939.939,0,0,0-.576-.5,3.788,3.788,0,0,0-1.2-.146,2.854,2.854,0,0,0-.982.13.989.989,0,0,0-.522.468,4.49,4.49,0,0,0-.353,1.028l-1.688-.414a6.164,6.164,0,0,1,.691-1.75,2.513,2.513,0,0,1,1.105-.975,4.232,4.232,0,0,1,1.75-.315,3.93,3.93,0,0,1,2.847.852,3.564,3.564,0,0,1,.852,2.617v3.592a1.817,1.817,0,0,0,.123.829.57.57,0,0,0,.522.2q.123,0,.553-.031V219.3q-.184.015-.507.015a2.29,2.29,0,0,1-1.842-.614,2.324,2.324,0,0,1-1.028.637A5.16,5.16,0,0,1,78.017,219.529Zm0-1.627a3.054,3.054,0,0,0,1.2-.184,1.047,1.047,0,0,0,.576-.629,3.974,3.974,0,0,0,.161-1.289v-.752H78.017a6.3,6.3,0,0,0-1.243.084.735.735,0,0,0-.522.384,2.371,2.371,0,0,0-.153,1.005,1.847,1.847,0,0,0,.153.852.888.888,0,0,0,.56.407A4.443,4.443,0,0,0,78.017,217.9Zm10.453,1.627a3.627,3.627,0,0,1-1.8-.384,2.251,2.251,0,0,1-.99-1.22,6.382,6.382,0,0,1-.315-2.2v-4.451h-1.9v-1.627h1.9v-2.609h1.765v2.609h3.177v1.627H87.134v4.451a5.523,5.523,0,0,0,.123,1.328,1.091,1.091,0,0,0,.407.66,1.432,1.432,0,0,0,.806.192,3.121,3.121,0,0,0,.821-.077.607.607,0,0,0,.368-.276,3.789,3.789,0,0,0,.269-.691l1.658.568a3.519,3.519,0,0,1-.6,1.251,2.053,2.053,0,0,1-.959.652A4.99,4.99,0,0,1,88.47,219.529Zm8.258-1.627a2.53,2.53,0,0,0,1.312-.315,3.9,3.9,0,0,0,1.1-1.113l1.412.936a5.061,5.061,0,0,1-1.619,1.658,4.5,4.5,0,0,1-2.2.461,5.262,5.262,0,0,1-2.433-.461,2.63,2.63,0,0,1-1.243-1.52,11.978,11.978,0,0,1,0-5.956,2.63,2.63,0,0,1,1.243-1.52,5.262,5.262,0,0,1,2.433-.46,4.75,4.75,0,0,1,2.387.5,2.8,2.8,0,0,1,1.22,1.665,11.345,11.345,0,0,1,.368,3.269H94.456a5.713,5.713,0,0,0,.276,1.7,1.615,1.615,0,0,0,.706.883A2.627,2.627,0,0,0,96.728,217.9Zm0-6.662a2.3,2.3,0,0,0-1.627.484,2.631,2.631,0,0,0-.614,1.7h4.405a3.447,3.447,0,0,0-.2-1.312,1.221,1.221,0,0,0-.668-.668A3.4,3.4,0,0,0,96.728,211.24Zm11.819,10.3a3.984,3.984,0,0,1-2.717-1.044A6.7,6.7,0,0,1,104,217.557a15.217,15.217,0,0,1,0-8.765,6.7,6.7,0,0,1,1.827-2.939,3.984,3.984,0,0,1,2.717-1.044v1.627a2.375,2.375,0,0,0-1.788.837,5.7,5.7,0,0,0-1.2,2.364,14.778,14.778,0,0,0,0,7.076,5.7,5.7,0,0,0,1.2,2.364,2.375,2.375,0,0,0,1.788.837Zm3.914-1.627a2.375,2.375,0,0,0,1.788-.837,5.7,5.7,0,0,0,1.2-2.364,14.778,14.778,0,0,0,0-7.076,5.7,5.7,0,0,0-1.2-2.364,2.375,2.375,0,0,0-1.788-.837v-1.627a3.984,3.984,0,0,1,2.717,1.044A6.7,6.7,0,0,1,117,208.792a15.217,15.217,0,0,1,0,8.765,6.7,6.7,0,0,1-1.827,2.939,3.984,3.984,0,0,1-2.717,1.044ZM7.808,246.867a5.455,5.455,0,0,1-3.3-.791,2.984,2.984,0,0,1-1.028-2.525,8.261,8.261,0,0,1,.153-1.381,8.074,8.074,0,0,0,.123-1.044,1.716,1.716,0,0,0-.537-.89q-.537-.6-1.75-1.734,1.213-1.167,1.75-1.765a1.7,1.7,0,0,0,.537-.921,6.244,6.244,0,0,0-.123-.936,7.582,7.582,0,0,1-.153-1.412,3.006,3.006,0,0,1,1.028-2.533,5.414,5.414,0,0,1,3.3-.8v1.642a5.729,5.729,0,0,0-1.535.161,1.361,1.361,0,0,0-.8.537,1.914,1.914,0,0,0-.246,1.051,5.136,5.136,0,0,0,.153,1.182,4.015,4.015,0,0,1,.138.952,2.725,2.725,0,0,1-.414,1.435,5.69,5.69,0,0,1-1.3,1.4,5.46,5.46,0,0,1,1.312,1.366,2.645,2.645,0,0,1,.407,1.412,4.787,4.787,0,0,1-.123.936,6.112,6.112,0,0,0-.153,1.289,1.888,1.888,0,0,0,.238,1.028,1.34,1.34,0,0,0,.79.53,5.729,5.729,0,0,0,1.535.161Zm33.815,10.821a4.04,4.04,0,0,1,2.371.614,3.446,3.446,0,0,1,1.251,1.942,16.93,16.93,0,0,1,0,7.168,3.446,3.446,0,0,1-1.251,1.942,4.04,4.04,0,0,1-2.371.614H37.632v-12.28Zm0,10.653a2,2,0,0,0,1.343-.414,2.442,2.442,0,0,0,.691-1.381,17.914,17.914,0,0,0,0-5.434,2.442,2.442,0,0,0-.691-1.381,2,2,0,0,0-1.343-.414H39.4v9.025Zm10.3-7.859v7.859h2.686v1.627H47.471V268.34h2.686v-6.232H48.223v-1.627ZM50.71,259.1a1.548,1.548,0,0,1-1.051-.269,1.868,1.868,0,0,1,0-1.98,1.547,1.547,0,0,1,1.051-.269,1.58,1.58,0,0,1,1.059.269,1.826,1.826,0,0,1,0,1.98A1.581,1.581,0,0,1,50.71,259.1Zm8.749,11.082a3.816,3.816,0,0,1-2.018-.46,3.987,3.987,0,0,1-1.343-1.627l1.4-1.151a6.483,6.483,0,0,0,.53,1.028,1.213,1.213,0,0,0,.545.453,2.441,2.441,0,0,0,.89.13,7.708,7.708,0,0,0,1.6-.123,1.183,1.183,0,0,0,.737-.407,1.421,1.421,0,0,0,.2-.821,1.466,1.466,0,0,0-.161-.783.993.993,0,0,0-.576-.368,9.842,9.842,0,0,0-1.4-.246,6.046,6.046,0,0,1-2.686-.821,2.133,2.133,0,0,1-.829-1.865,3.114,3.114,0,0,1,.384-1.65,2.231,2.231,0,0,1,1.228-.913,7.161,7.161,0,0,1,2.272-.292,4.547,4.547,0,0,1,2.1.4,3.707,3.707,0,0,1,1.366,1.412l-1.289,1.259a5.655,5.655,0,0,0-.583-.921,1.3,1.3,0,0,0-.6-.407,3.367,3.367,0,0,0-1-.115A6.152,6.152,0,0,0,58.9,262a.966.966,0,0,0-.622.368,1.388,1.388,0,0,0-.169.752.75.75,0,0,0,.184.553,1.167,1.167,0,0,0,.553.276q.368.092,1.136.2a10.841,10.841,0,0,1,2.264.53,2.273,2.273,0,0,1,1.167.906,3.1,3.1,0,0,1,.361,1.619,3.138,3.138,0,0,1-.422,1.727,2.421,2.421,0,0,1-1.366.952A8.613,8.613,0,0,1,59.459,270.182Zm5.879,2.579v-12.28h1.781v.092a6.251,6.251,0,0,1,2.041-.307,4.365,4.365,0,0,1,2.256.5,2.784,2.784,0,0,1,1.19,1.573,11.631,11.631,0,0,1,0,5.748,2.821,2.821,0,0,1-1.19,1.589,4.311,4.311,0,0,1-2.256.507,5.605,5.605,0,0,1-2.041-.368v2.947Zm3.822-4.206a2.13,2.13,0,0,0,1.236-.307,1.71,1.71,0,0,0,.622-1.021,8.52,8.52,0,0,0,.184-2.018,8.419,8.419,0,0,0-.184-2.011,1.669,1.669,0,0,0-.622-1.005,2.172,2.172,0,0,0-1.236-.3q-2.041,0-2.041.89v3.622a2.359,2.359,0,0,0,.476,1.627A2.033,2.033,0,0,0,69.16,268.555Zm10.683,1.627a3.524,3.524,0,0,1-1.665-.322,1.821,1.821,0,0,1-.844-1.074,6.928,6.928,0,0,1-.253-2.118v-7.352H75.146v-1.627h3.7v8.979a3.512,3.512,0,0,0,.215,1.481.805.805,0,0,0,.783.407,1.179,1.179,0,0,0,.591-.184,7.21,7.21,0,0,0,.883-.66l.982,1.5a4.705,4.705,0,0,1-1.2.76A3.426,3.426,0,0,1,79.843,270.182Zm7.383,0a6.255,6.255,0,0,1-2.172-.307,2.141,2.141,0,0,1-1.167-.959,3.6,3.6,0,0,1-.361-1.742,4.051,4.051,0,0,1,.361-1.9,1.967,1.967,0,0,1,1.151-.936,7.056,7.056,0,0,1,2.187-.269H89.16v-.338a2.469,2.469,0,0,0-.161-1,.939.939,0,0,0-.576-.5,3.787,3.787,0,0,0-1.2-.146,2.853,2.853,0,0,0-.982.13.989.989,0,0,0-.522.468,4.49,4.49,0,0,0-.353,1.028l-1.688-.414a6.164,6.164,0,0,1,.691-1.75,2.513,2.513,0,0,1,1.105-.975,4.232,4.232,0,0,1,1.75-.315,3.93,3.93,0,0,1,2.847.852,3.564,3.564,0,0,1,.852,2.617v3.592a1.817,1.817,0,0,0,.123.829.57.57,0,0,0,.522.2q.123,0,.553-.031v1.627q-.184.015-.507.015a2.29,2.29,0,0,1-1.842-.614,2.324,2.324,0,0,1-1.028.637A5.159,5.159,0,0,1,87.226,270.182Zm0-1.627a3.053,3.053,0,0,0,1.2-.184,1.047,1.047,0,0,0,.576-.629,3.974,3.974,0,0,0,.161-1.289V265.7H87.226a6.3,6.3,0,0,0-1.243.084.735.735,0,0,0-.522.384,2.371,2.371,0,0,0-.153,1.005,1.847,1.847,0,0,0,.153.852.888.888,0,0,0,.56.407A4.442,4.442,0,0,0,87.226,268.555Zm6.907,4.421a3.119,3.119,0,0,1-1.044-.154,4.075,4.075,0,0,1-.952-.522l.706-1.489a8.1,8.1,0,0,0,.8.445,1.237,1.237,0,0,0,.491.092,2.175,2.175,0,0,0,.89-.153,1.441,1.441,0,0,0,.591-.53,4.746,4.746,0,0,0,.5-1.113l-3.177-9.072h1.842l2.272,6.754,2.3-6.754h1.857l-3.3,9.194a8.413,8.413,0,0,1-.936,1.965,2.952,2.952,0,0,1-1.159,1.021A3.942,3.942,0,0,1,94.134,272.976Zm11.758-2.794a7.48,7.48,0,0,1-1.926-.207,2.96,2.96,0,0,1-1.274-.691,4.354,4.354,0,0,1-.913-1.328l1.366-1.289a4.772,4.772,0,0,0,.553,1.182,1.486,1.486,0,0,0,.767.545,4.832,4.832,0,0,0,1.428.161,3.67,3.67,0,0,0,1.351-.192,1.144,1.144,0,0,0,.645-.637,3.566,3.566,0,0,0,.184-1.3,1.92,1.92,0,0,0-.2-.967,1.577,1.577,0,0,0-.66-.576,11.233,11.233,0,0,0-1.474-.576,11.924,11.924,0,0,1-2.141-.89,2.854,2.854,0,0,1-1.082-1.013,3.011,3.011,0,0,1-.338-1.52,4.6,4.6,0,0,1,.361-1.988,2.181,2.181,0,0,1,1.167-1.082,5.785,5.785,0,0,1,2.187-.338,7.11,7.11,0,0,1,1.773.184,2.948,2.948,0,0,1,1.19.606,4,4,0,0,1,.89,1.174l-1.259,1.366a4.81,4.81,0,0,0-.553-1.082,1.366,1.366,0,0,0-.721-.483,4.843,4.843,0,0,0-1.32-.138,3.66,3.66,0,0,0-1.22.154.954.954,0,0,0-.568.53,2.9,2.9,0,0,0-.161,1.1,1.581,1.581,0,0,0,.169.814,1.294,1.294,0,0,0,.576.468,11.512,11.512,0,0,0,1.343.483,11.922,11.922,0,0,1,2.279.921,2.922,2.922,0,0,1,1.167,1.128,3.62,3.62,0,0,1,.361,1.727,5.214,5.214,0,0,1-.384,2.195,2.379,2.379,0,0,1-1.236,1.19A5.876,5.876,0,0,1,105.891,270.182Zm9.486,0a4.978,4.978,0,0,1-2.425-.5,2.835,2.835,0,0,1-1.282-1.573,10.833,10.833,0,0,1,0-5.771,2.818,2.818,0,0,1,1.3-1.573,5.148,5.148,0,0,1,2.471-.5,4.146,4.146,0,0,1,2.134.476,4.823,4.823,0,0,1,1.535,1.688l-1.474.875a6.251,6.251,0,0,0-.66-.89,1.51,1.51,0,0,0-.622-.407,3.717,3.717,0,0,0-2.379.184,1.629,1.629,0,0,0-.721,1.005,10.009,10.009,0,0,0,0,4.052,1.661,1.661,0,0,0,.7,1.005,2.772,2.772,0,0,0,1.427.3,2.876,2.876,0,0,0,.913-.123,1.709,1.709,0,0,0,.66-.422,6.068,6.068,0,0,0,.7-.9l1.458.89a5,5,0,0,1-1.573,1.7A4.224,4.224,0,0,1,115.377,270.182Zm8.933,0a4.268,4.268,0,0,1-2.249-.507,2.832,2.832,0,0,1-1.182-1.581,11.6,11.6,0,0,1,0-5.741,2.832,2.832,0,0,1,1.182-1.581,5.261,5.261,0,0,1,4.505,0,2.82,2.82,0,0,1,1.19,1.581,11.6,11.6,0,0,1,0,5.741,2.82,2.82,0,0,1-1.19,1.581A4.311,4.311,0,0,1,124.311,270.182Zm0-1.627a2.173,2.173,0,0,0,1.236-.3,1.674,1.674,0,0,0,.622-1.013,11.152,11.152,0,0,0,0-4.037,1.674,1.674,0,0,0-.622-1.013,2.172,2.172,0,0,0-1.236-.3,2.134,2.134,0,0,0-1.228.3,1.69,1.69,0,0,0-.614,1.013,11.152,11.152,0,0,0,0,4.037,1.691,1.691,0,0,0,.614,1.013A2.134,2.134,0,0,0,124.311,268.555Zm6.032,1.412v-9.486h1.765v.783a3.374,3.374,0,0,1,.952-.7,2.717,2.717,0,0,1,1.259-.3,3.93,3.93,0,0,1,1.474.238,2.467,2.467,0,0,1,1.005.767,5.185,5.185,0,0,1,.76,1.466l-1.581.721a5.5,5.5,0,0,0-.4-1,1,1,0,0,0-.468-.445,2.046,2.046,0,0,0-.79-.123,1.843,1.843,0,0,0-1.7.821,4.589,4.589,0,0,0-.507,2.387v4.866Zm12.433-1.412a2.53,2.53,0,0,0,1.312-.315,3.9,3.9,0,0,0,1.1-1.113l1.412.936a5.06,5.06,0,0,1-1.619,1.658,4.5,4.5,0,0,1-2.2.46,5.261,5.261,0,0,1-2.433-.46,2.63,2.63,0,0,1-1.243-1.52,11.977,11.977,0,0,1,0-5.956,2.63,2.63,0,0,1,1.243-1.52,5.261,5.261,0,0,1,2.433-.461,4.751,4.751,0,0,1,2.387.5,2.8,2.8,0,0,1,1.22,1.665,11.345,11.345,0,0,1,.368,3.269H140.5a5.713,5.713,0,0,0,.276,1.7,1.614,1.614,0,0,0,.706.883A2.627,2.627,0,0,0,142.776,268.555Zm0-6.662a2.3,2.3,0,0,0-1.627.483,2.631,2.631,0,0,0-.614,1.7h4.405a3.447,3.447,0,0,0-.2-1.312,1.221,1.221,0,0,0-.668-.668A3.4,3.4,0,0,0,142.776,261.894Zm11.819,10.3a3.985,3.985,0,0,1-2.717-1.044,6.7,6.7,0,0,1-1.827-2.939,15.217,15.217,0,0,1,0-8.765,6.7,6.7,0,0,1,1.827-2.939,3.984,3.984,0,0,1,2.717-1.044v1.627a2.375,2.375,0,0,0-1.788.837,5.7,5.7,0,0,0-1.2,2.364,14.777,14.777,0,0,0,0,7.076,5.7,5.7,0,0,0,1.2,2.364,2.375,2.375,0,0,0,1.788.837Zm6.17-2.011a3.815,3.815,0,0,1-2.018-.46,3.987,3.987,0,0,1-1.343-1.627l1.4-1.151a6.482,6.482,0,0,0,.53,1.028,1.213,1.213,0,0,0,.545.453,2.441,2.441,0,0,0,.89.13,7.708,7.708,0,0,0,1.6-.123,1.183,1.183,0,0,0,.737-.407,1.421,1.421,0,0,0,.2-.821,1.466,1.466,0,0,0-.161-.783.993.993,0,0,0-.576-.368,9.842,9.842,0,0,0-1.4-.246,6.046,6.046,0,0,1-2.686-.821,2.133,2.133,0,0,1-.829-1.865,3.114,3.114,0,0,1,.384-1.65,2.231,2.231,0,0,1,1.228-.913,7.161,7.161,0,0,1,2.272-.292,4.547,4.547,0,0,1,2.1.4A3.707,3.707,0,0,1,165,262.078l-1.289,1.259a5.655,5.655,0,0,0-.583-.921,1.3,1.3,0,0,0-.6-.407,3.367,3.367,0,0,0-1-.115,6.152,6.152,0,0,0-1.328.107.966.966,0,0,0-.622.368,1.388,1.388,0,0,0-.169.752.75.75,0,0,0,.184.553,1.167,1.167,0,0,0,.553.276q.368.092,1.136.2a10.841,10.841,0,0,1,2.264.53,2.273,2.273,0,0,1,1.167.906,3.1,3.1,0,0,1,.361,1.619,3.138,3.138,0,0,1-.422,1.727,2.421,2.421,0,0,1-1.366.952A8.613,8.613,0,0,1,160.766,270.182Zm9.87,0a4.978,4.978,0,0,1-2.425-.5,2.835,2.835,0,0,1-1.282-1.573,10.833,10.833,0,0,1,0-5.771,2.818,2.818,0,0,1,1.3-1.573,5.148,5.148,0,0,1,2.471-.5,4.146,4.146,0,0,1,2.134.476,4.823,4.823,0,0,1,1.535,1.688l-1.474.875a6.25,6.25,0,0,0-.66-.89,1.51,1.51,0,0,0-.622-.407,3.717,3.717,0,0,0-2.379.184,1.629,1.629,0,0,0-.721,1.005,10.009,10.009,0,0,0,0,4.052,1.661,1.661,0,0,0,.7,1.005,2.772,2.772,0,0,0,1.428.3,2.876,2.876,0,0,0,.913-.123,1.709,1.709,0,0,0,.66-.422,6.068,6.068,0,0,0,.7-.9l1.458.89a5,5,0,0,1-1.573,1.7A4.224,4.224,0,0,1,170.635,270.182Zm8.933,0a4.268,4.268,0,0,1-2.249-.507,2.832,2.832,0,0,1-1.182-1.581,11.6,11.6,0,0,1,0-5.741,2.832,2.832,0,0,1,1.182-1.581,5.261,5.261,0,0,1,4.505,0,2.82,2.82,0,0,1,1.19,1.581,11.6,11.6,0,0,1,0,5.741,2.82,2.82,0,0,1-1.19,1.581A4.311,4.311,0,0,1,179.569,270.182Zm0-1.627a2.173,2.173,0,0,0,1.236-.3,1.674,1.674,0,0,0,.622-1.013,11.152,11.152,0,0,0,0-4.037,1.674,1.674,0,0,0-.622-1.013,2.172,2.172,0,0,0-1.236-.3,2.134,2.134,0,0,0-1.228.3,1.69,1.69,0,0,0-.614,1.013,11.152,11.152,0,0,0,0,4.037,1.691,1.691,0,0,0,.614,1.013A2.134,2.134,0,0,0,179.569,268.555Zm6.032,1.412v-9.486h1.765v.783a3.375,3.375,0,0,1,.952-.7,2.716,2.716,0,0,1,1.259-.3,3.93,3.93,0,0,1,1.474.238,2.467,2.467,0,0,1,1.005.767,5.185,5.185,0,0,1,.76,1.466l-1.581.721a5.5,5.5,0,0,0-.4-1,1,1,0,0,0-.468-.445,2.046,2.046,0,0,0-.79-.123,1.843,1.843,0,0,0-1.7.821,4.588,4.588,0,0,0-.507,2.387v4.866Zm12.433-1.412a2.53,2.53,0,0,0,1.312-.315,3.9,3.9,0,0,0,1.1-1.113l1.412.936a5.06,5.06,0,0,1-1.619,1.658,4.5,4.5,0,0,1-2.2.46,5.261,5.261,0,0,1-2.433-.46,2.63,2.63,0,0,1-1.243-1.52,11.978,11.978,0,0,1,0-5.956,2.63,2.63,0,0,1,1.243-1.52,5.261,5.261,0,0,1,2.433-.461,4.751,4.751,0,0,1,2.387.5,2.8,2.8,0,0,1,1.22,1.665,11.345,11.345,0,0,1,.368,3.269h-6.247a5.713,5.713,0,0,0,.276,1.7,1.614,1.614,0,0,0,.706.883A2.627,2.627,0,0,0,198.034,268.555Zm0-6.662a2.3,2.3,0,0,0-1.627.483,2.631,2.631,0,0,0-.614,1.7H200.2a3.447,3.447,0,0,0-.2-1.312,1.221,1.221,0,0,0-.668-.668A3.4,3.4,0,0,0,198.034,261.894Zm6.524,8.672a2.375,2.375,0,0,0,1.788-.837,5.7,5.7,0,0,0,1.2-2.364,14.777,14.777,0,0,0,0-7.076,5.7,5.7,0,0,0-1.2-2.364,2.375,2.375,0,0,0-1.788-.837v-1.627a3.984,3.984,0,0,1,2.717,1.044,6.7,6.7,0,0,1,1.827,2.939,15.217,15.217,0,0,1,0,8.765,6.7,6.7,0,0,1-1.827,2.939,3.985,3.985,0,0,1-2.717,1.044Zm10.085,2.41a13.1,13.1,0,0,0,1.082-1.673,2.5,2.5,0,0,0,.3-1.105.963.963,0,0,1-.8-.276,1.763,1.763,0,0,1-.215-1.028,1.382,1.382,0,0,1,.3-1.021,2.263,2.263,0,0,1,2.195,0,1.382,1.382,0,0,1,.3,1.021,4.933,4.933,0,0,1-.391,2.018,8.752,8.752,0,0,1-1.42,2.065Zm1.765-10.146a1.607,1.607,0,0,1-1.1-.284,1.357,1.357,0,0,1-.3-1.005,1.382,1.382,0,0,1,.3-1.021,2.263,2.263,0,0,1,2.195,0,1.382,1.382,0,0,1,.3,1.021,1.357,1.357,0,0,1-.3,1.005A1.607,1.607,0,0,1,216.408,262.83ZM1.361,295.877a5.727,5.727,0,0,0,1.535-.161,1.376,1.376,0,0,0,.8-.53,1.841,1.841,0,0,0,.246-1.028,6.112,6.112,0,0,0-.153-1.289,4.788,4.788,0,0,1-.123-.936,2.683,2.683,0,0,1,.4-1.412,5.322,5.322,0,0,1,1.3-1.366,5.346,5.346,0,0,1-1.3-1.389,2.789,2.789,0,0,1-.407-1.451,4.015,4.015,0,0,1,.138-.952,5.135,5.135,0,0,0,.153-1.182,1.914,1.914,0,0,0-.246-1.051,1.365,1.365,0,0,0-.806-.537,5.821,5.821,0,0,0-1.543-.161v-1.642a5.451,5.451,0,0,1,3.308.8,3,3,0,0,1,1.036,2.533,7.582,7.582,0,0,1-.153,1.412,6.244,6.244,0,0,0-.123.936,1.755,1.755,0,0,0,.537.936q.537.614,1.734,1.75-1.182,1.105-1.727,1.719a1.772,1.772,0,0,0-.545.906,8.075,8.075,0,0,0,.123,1.044,8.26,8.26,0,0,1,.153,1.381,2.973,2.973,0,0,1-1.036,2.525,5.491,5.491,0,0,1-3.308.79Z" transform="translate(685.636 22093.684)" fill="#12263f"/>
  </g>
</svg>
