<svg xmlns="http://www.w3.org/2000/svg" width="610" height="223" viewBox="0 0 610 223">
  <g id="Grupo_167871" data-name="Grupo 167871" transform="translate(-519 -23246)">
    <g id="Rectángulo_341996" data-name="Rectángulo 341996" transform="translate(519 23246)" fill="#8979f3" stroke="#707070" stroke-width="1" opacity="0.25">
      <rect width="610" height="223" rx="25" stroke="none"/>
      <rect x="0.5" y="0.5" width="609" height="222" rx="24.5" fill="none"/>
    </g>
    <path id="Trazado_688144" data-name="Trazado 688144" d="M5.709,17.748H4L.364,7.616H2.315l2.541,7.329,2.59-7.329H9.381Zm9,.23a4.559,4.559,0,0,1-2.4-.541,3.025,3.025,0,0,1-1.262-1.689,9.907,9.907,0,0,1-.385-3.066,9.907,9.907,0,0,1,.385-3.066,3.025,3.025,0,0,1,1.262-1.689,4.559,4.559,0,0,1,2.4-.541,4.6,4.6,0,0,1,2.41.541A3.012,3.012,0,0,1,18.39,9.616a9.907,9.907,0,0,1,.385,3.066,9.907,9.907,0,0,1-.385,3.066,3.012,3.012,0,0,1-1.271,1.689A4.6,4.6,0,0,1,14.71,17.978Zm0-1.738a2.32,2.32,0,0,0,1.32-.32,1.788,1.788,0,0,0,.664-1.082,9.1,9.1,0,0,0,.2-2.156,9.1,9.1,0,0,0-.2-2.156,1.788,1.788,0,0,0-.664-1.082,2.32,2.32,0,0,0-1.32-.32,2.279,2.279,0,0,0-1.312.32,1.806,1.806,0,0,0-.656,1.082,9.1,9.1,0,0,0-.2,2.156,9.1,9.1,0,0,0,.2,2.156A1.806,1.806,0,0,0,13.4,15.92,2.279,2.279,0,0,0,14.71,16.24ZM25.924,7.616V16.01h2.869v1.738H21.169V16.01h2.869V9.354H21.973V7.616Zm-1.3-1.476a1.653,1.653,0,0,1-1.123-.287A1.438,1.438,0,0,1,23.2,4.8a1.438,1.438,0,0,1,.3-1.058,1.653,1.653,0,0,1,1.123-.287,1.688,1.688,0,0,1,1.131.287A1.412,1.412,0,0,1,26.072,4.8a1.412,1.412,0,0,1-.312,1.058A1.688,1.688,0,0,1,24.629,6.14ZM34.3,17.978a4.616,4.616,0,0,1-2.4-.533,2.986,2.986,0,0,1-1.262-1.681,9.907,9.907,0,0,1-.385-3.066,9.974,9.974,0,0,1,.385-3.082A3.025,3.025,0,0,1,31.9,7.927a4.559,4.559,0,0,1,2.4-.541,6.119,6.119,0,0,1,2.2.393V4.632h1.885V17.748H36.5v-.115A6.439,6.439,0,0,1,34.3,17.978Zm0-1.738a4.082,4.082,0,0,0,1.664-.254.777.777,0,0,0,.533-.7V11.42a2.493,2.493,0,0,0-.516-1.738A2.2,2.2,0,0,0,34.3,9.124a2.235,2.235,0,0,0-1.312.328,1.845,1.845,0,0,0-.656,1.09,9.1,9.1,0,0,0-.2,2.156,8.993,8.993,0,0,0,.2,2.148,1.8,1.8,0,0,0,.656,1.074A2.279,2.279,0,0,0,34.3,16.24Zm19.756,1.738a4.545,4.545,0,0,1-2.369-.525,2.974,2.974,0,0,1-1.246-1.681,10.124,10.124,0,0,1-.385-3.107V4.632h1.885v8.034a9.675,9.675,0,0,0,.189,2.189,1.753,1.753,0,0,0,.639,1.074,2.25,2.25,0,0,0,1.287.312,2.292,2.292,0,0,0,1.3-.312A1.736,1.736,0,0,0,56,14.854a9.675,9.675,0,0,0,.189-2.189V4.632h1.885v8.034a10.124,10.124,0,0,1-.385,3.107,2.962,2.962,0,0,1-1.254,1.681A4.591,4.591,0,0,1,54.058,17.978Zm5.87,2.754V7.616h1.9v.1a6.676,6.676,0,0,1,2.181-.328,4.662,4.662,0,0,1,2.41.533A2.974,2.974,0,0,1,67.691,9.6a9.907,9.907,0,0,1,.385,3.066,9.989,9.989,0,0,1-.385,3.074,3.013,3.013,0,0,1-1.271,1.7,4.6,4.6,0,0,1-2.41.541,5.988,5.988,0,0,1-2.181-.393v3.148ZM64.01,16.24a2.275,2.275,0,0,0,1.32-.328,1.826,1.826,0,0,0,.664-1.09,9.1,9.1,0,0,0,.2-2.156,8.992,8.992,0,0,0-.2-2.148,1.782,1.782,0,0,0-.664-1.074,2.32,2.32,0,0,0-1.32-.32q-2.181,0-2.181.951v3.869a2.52,2.52,0,0,0,.508,1.738A2.172,2.172,0,0,0,64.01,16.24Zm9.64,1.738a4.616,4.616,0,0,1-2.4-.533,2.986,2.986,0,0,1-1.262-1.681A9.908,9.908,0,0,1,69.6,12.7a9.975,9.975,0,0,1,.385-3.082,3.025,3.025,0,0,1,1.262-1.689,4.559,4.559,0,0,1,2.4-.541,6.119,6.119,0,0,1,2.2.393V4.632h1.885V17.748H75.848v-.115A6.439,6.439,0,0,1,73.651,17.978Zm0-1.738a4.082,4.082,0,0,0,1.664-.254.777.777,0,0,0,.533-.7V11.42a2.493,2.493,0,0,0-.516-1.738,2.2,2.2,0,0,0-1.681-.557,2.235,2.235,0,0,0-1.312.328,1.845,1.845,0,0,0-.656,1.09,9.1,9.1,0,0,0-.2,2.156,8.993,8.993,0,0,0,.2,2.148,1.8,1.8,0,0,0,.656,1.074A2.279,2.279,0,0,0,73.651,16.24Zm9.657,1.738a6.681,6.681,0,0,1-2.32-.328,2.287,2.287,0,0,1-1.246-1.025,3.847,3.847,0,0,1-.385-1.861,4.327,4.327,0,0,1,.385-2.025,2.1,2.1,0,0,1,1.23-1,7.537,7.537,0,0,1,2.336-.287h2.066v-.361a2.637,2.637,0,0,0-.172-1.066,1,1,0,0,0-.615-.533,4.045,4.045,0,0,0-1.279-.156,3.049,3.049,0,0,0-1.049.139,1.056,1.056,0,0,0-.557.5,4.8,4.8,0,0,0-.377,1.1l-1.8-.443a6.584,6.584,0,0,1,.738-1.869,2.684,2.684,0,0,1,1.18-1.041,4.52,4.52,0,0,1,1.869-.336,4.2,4.2,0,0,1,3.041.91,3.807,3.807,0,0,1,.91,2.8v3.837a1.941,1.941,0,0,0,.131.885.609.609,0,0,0,.557.213q.131,0,.59-.033v1.738q-.2.016-.541.016a2.446,2.446,0,0,1-1.967-.656,2.482,2.482,0,0,1-1.1.68A5.511,5.511,0,0,1,83.308,17.978Zm0-1.738a3.261,3.261,0,0,0,1.279-.2,1.118,1.118,0,0,0,.615-.672,4.244,4.244,0,0,0,.172-1.377v-.8H83.308a6.732,6.732,0,0,0-1.328.09.785.785,0,0,0-.557.41,2.532,2.532,0,0,0-.164,1.074,1.973,1.973,0,0,0,.164.91.949.949,0,0,0,.6.434A4.746,4.746,0,0,0,83.308,16.24Zm11.165,1.738a3.874,3.874,0,0,1-1.918-.41,2.4,2.4,0,0,1-1.058-1.3,6.816,6.816,0,0,1-.336-2.353V9.157H89.128V7.419h2.033V4.632h1.885V7.419H96.44V9.157H93.047v4.755a5.9,5.9,0,0,0,.131,1.418,1.165,1.165,0,0,0,.434.7,1.53,1.53,0,0,0,.861.2,3.334,3.334,0,0,0,.877-.082.649.649,0,0,0,.393-.3,4.049,4.049,0,0,0,.287-.738l1.771.607a3.759,3.759,0,0,1-.639,1.336,2.192,2.192,0,0,1-1.025.7A5.33,5.33,0,0,1,94.473,17.978Zm8.821-1.738a2.7,2.7,0,0,0,1.4-.336,4.163,4.163,0,0,0,1.172-1.189l1.508,1a5.405,5.405,0,0,1-1.73,1.771,4.812,4.812,0,0,1-2.353.492,5.62,5.62,0,0,1-2.6-.492,2.809,2.809,0,0,1-1.328-1.623,9.893,9.893,0,0,1-.4-3.181,9.893,9.893,0,0,1,.4-3.181A2.809,2.809,0,0,1,100.7,7.878a5.62,5.62,0,0,1,2.6-.492,5.074,5.074,0,0,1,2.549.533,3,3,0,0,1,1.3,1.779,12.118,12.118,0,0,1,.393,3.492h-6.673a6.1,6.1,0,0,0,.3,1.82,1.724,1.724,0,0,0,.754.943A2.806,2.806,0,0,0,103.294,16.24Zm0-7.116a2.456,2.456,0,0,0-1.738.516,2.81,2.81,0,0,0-.656,1.812h4.705a3.681,3.681,0,0,0-.213-1.4,1.3,1.3,0,0,0-.713-.713A3.627,3.627,0,0,0,103.294,9.124Zm12.624,11a4.256,4.256,0,0,1-2.9-1.115,7.154,7.154,0,0,1-1.951-3.14,14.529,14.529,0,0,1-.689-4.681,14.529,14.529,0,0,1,.689-4.681,7.154,7.154,0,0,1,1.951-3.14,4.256,4.256,0,0,1,2.9-1.115V3.992a2.536,2.536,0,0,0-1.91.894,6.089,6.089,0,0,0-1.287,2.525,14,14,0,0,0-.459,3.779,14,14,0,0,0,.459,3.779,6.089,6.089,0,0,0,1.287,2.525,2.536,2.536,0,0,0,1.91.894Zm4.181-1.738a2.536,2.536,0,0,0,1.91-.894,6.089,6.089,0,0,0,1.287-2.525,14,14,0,0,0,.459-3.779,14,14,0,0,0-.459-3.779,6.089,6.089,0,0,0-1.287-2.525,2.536,2.536,0,0,0-1.91-.894V2.255A4.256,4.256,0,0,1,123,3.369a7.154,7.154,0,0,1,1.951,3.14,14.529,14.529,0,0,1,.689,4.681,14.529,14.529,0,0,1-.689,4.681A7.154,7.154,0,0,1,123,19.011a4.256,4.256,0,0,1-2.9,1.115ZM8.315,47.178a5.826,5.826,0,0,1-3.525-.844,3.187,3.187,0,0,1-1.1-2.7,8.824,8.824,0,0,1,.164-1.476,8.625,8.625,0,0,0,.131-1.115,1.833,1.833,0,0,0-.574-.951q-.574-.639-1.869-1.853Q2.839,37,3.413,36.357a1.811,1.811,0,0,0,.574-.984,6.67,6.67,0,0,0-.131-1,8.1,8.1,0,0,1-.164-1.508,3.211,3.211,0,0,1,1.1-2.705,5.783,5.783,0,0,1,3.525-.853v1.754a6.119,6.119,0,0,0-1.64.172,1.454,1.454,0,0,0-.853.574,2.044,2.044,0,0,0-.262,1.123,5.486,5.486,0,0,0,.164,1.262,4.288,4.288,0,0,1,.148,1.017,2.911,2.911,0,0,1-.443,1.533,6.078,6.078,0,0,1-1.394,1.5,5.832,5.832,0,0,1,1.4,1.459,2.826,2.826,0,0,1,.434,1.508,5.113,5.113,0,0,1-.131,1,6.529,6.529,0,0,0-.164,1.377,2.017,2.017,0,0,0,.254,1.1,1.431,1.431,0,0,0,.844.566,6.119,6.119,0,0,0,1.64.172ZM48.468,58.737v1.738H42.336v3.574h3.935v1.738H42.336v4.328h6.132v1.738H40.45V58.737Zm7.853,2.984h2.164l-3.345,5.066,3.345,5.066H56.321l-2.263-3.427L51.8,71.853H49.632l3.345-5.066-3.345-5.066H51.8l2.263,3.427Zm7.312,10.362a6.681,6.681,0,0,1-2.32-.328,2.287,2.287,0,0,1-1.246-1.025,3.847,3.847,0,0,1-.385-1.861,4.327,4.327,0,0,1,.385-2.025,2.1,2.1,0,0,1,1.23-1,7.537,7.537,0,0,1,2.336-.287H65.7V65.2a2.637,2.637,0,0,0-.172-1.066,1,1,0,0,0-.615-.533,4.045,4.045,0,0,0-1.279-.156,3.049,3.049,0,0,0-1.049.139,1.056,1.056,0,0,0-.557.5,4.8,4.8,0,0,0-.377,1.1l-1.8-.443a6.584,6.584,0,0,1,.738-1.869,2.684,2.684,0,0,1,1.18-1.041,4.52,4.52,0,0,1,1.869-.336,4.2,4.2,0,0,1,3.041.91,3.807,3.807,0,0,1,.91,2.8v3.837a1.941,1.941,0,0,0,.131.885.609.609,0,0,0,.557.213q.131,0,.59-.033v1.738q-.2.016-.541.016a2.446,2.446,0,0,1-1.967-.656,2.482,2.482,0,0,1-1.1.68A5.512,5.512,0,0,1,63.633,72.082Zm0-1.738a3.261,3.261,0,0,0,1.279-.2,1.118,1.118,0,0,0,.615-.672A4.245,4.245,0,0,0,65.7,68.1v-.8H63.633a6.733,6.733,0,0,0-1.328.09.785.785,0,0,0-.557.41,2.533,2.533,0,0,0-.164,1.074,1.973,1.973,0,0,0,.164.91.949.949,0,0,0,.6.434A4.746,4.746,0,0,0,63.633,70.345Zm5.574,1.508V61.721h1.885v-.066q.131-.033.492-.1a3.622,3.622,0,0,1,.639-.066,2.319,2.319,0,0,1,1.017.18,1.926,1.926,0,0,1,.689.656,2.142,2.142,0,0,1,1.869-.836,2.417,2.417,0,0,1,1.476.393,2.243,2.243,0,0,1,.754,1.3,10.675,10.675,0,0,1,.23,2.508v6.165H76.373V65.688a8.736,8.736,0,0,0-.123-1.8q-.123-.5-.451-.5a.9.9,0,0,0-.877.459,3.982,3.982,0,0,0-.238,1.656v6.345H72.8V65.787a8.931,8.931,0,0,0-.131-1.861q-.131-.533-.443-.533a.915.915,0,0,0-.885.459,3.862,3.862,0,0,0-.246,1.656v6.345ZM79.6,74.837V61.721h1.9v.1a6.676,6.676,0,0,1,2.181-.328,4.662,4.662,0,0,1,2.41.533A2.974,2.974,0,0,1,87.366,63.7a12.424,12.424,0,0,1,0,6.14,3.013,3.013,0,0,1-1.271,1.7,4.6,4.6,0,0,1-2.41.541,5.988,5.988,0,0,1-2.181-.393v3.148Zm4.082-4.492A2.275,2.275,0,0,0,85,70.017a1.826,1.826,0,0,0,.664-1.09,9.1,9.1,0,0,0,.2-2.156,8.993,8.993,0,0,0-.2-2.148A1.782,1.782,0,0,0,85,63.549a2.32,2.32,0,0,0-1.32-.32q-2.181,0-2.181.951v3.869a2.52,2.52,0,0,0,.508,1.738A2.172,2.172,0,0,0,83.685,70.345ZM95.1,72.082a3.764,3.764,0,0,1-1.779-.344,1.945,1.945,0,0,1-.9-1.148,7.4,7.4,0,0,1-.271-2.263V60.474H90.079V58.737H94.03v9.591a3.751,3.751,0,0,0,.23,1.582.86.86,0,0,0,.836.434,1.26,1.26,0,0,0,.631-.2,7.7,7.7,0,0,0,.943-.705l1.049,1.607a5.026,5.026,0,0,1-1.287.812A3.66,3.66,0,0,1,95.1,72.082Zm8.2-1.738a2.7,2.7,0,0,0,1.4-.336,4.163,4.163,0,0,0,1.172-1.189l1.508,1a5.405,5.405,0,0,1-1.73,1.771,4.812,4.812,0,0,1-2.353.492,5.62,5.62,0,0,1-2.6-.492,2.809,2.809,0,0,1-1.328-1.623,9.893,9.893,0,0,1-.4-3.181,9.893,9.893,0,0,1,.4-3.181,2.809,2.809,0,0,1,1.328-1.623,5.62,5.62,0,0,1,2.6-.492,5.074,5.074,0,0,1,2.549.533,3,3,0,0,1,1.3,1.779,12.118,12.118,0,0,1,.393,3.492h-6.673a6.1,6.1,0,0,0,.3,1.82,1.724,1.724,0,0,0,.754.943A2.806,2.806,0,0,0,103.294,70.345Zm0-7.116a2.456,2.456,0,0,0-1.738.516,2.81,2.81,0,0,0-.656,1.812h4.705a3.681,3.681,0,0,0-.213-1.4,1.3,1.3,0,0,0-.713-.713A3.627,3.627,0,0,0,103.294,63.229Zm14.034-4.492v1.738H111.2v3.574h3.935v1.738H111.2v4.328h6.132v1.738h-8.017V58.737Zm7.853,2.984h2.164L124,66.787l3.345,5.066h-2.164l-2.263-3.427-2.263,3.427h-2.164l3.345-5.066-3.345-5.066h2.164l2.263,3.427Zm3.607,13.116V61.721h1.9v.1a6.676,6.676,0,0,1,2.181-.328,4.662,4.662,0,0,1,2.41.533,2.974,2.974,0,0,1,1.271,1.681,12.424,12.424,0,0,1,0,6.14,3.013,3.013,0,0,1-1.271,1.7,4.6,4.6,0,0,1-2.41.541,5.988,5.988,0,0,1-2.181-.393v3.148Zm4.082-4.492a2.275,2.275,0,0,0,1.32-.328,1.826,1.826,0,0,0,.664-1.09,9.1,9.1,0,0,0,.2-2.156,8.994,8.994,0,0,0-.2-2.148,1.782,1.782,0,0,0-.664-1.074,2.32,2.32,0,0,0-1.32-.32q-2.181,0-2.181.951v3.869a2.52,2.52,0,0,0,.508,1.738A2.172,2.172,0,0,0,132.871,70.345Zm9.772,0a2.7,2.7,0,0,0,1.4-.336,4.163,4.163,0,0,0,1.172-1.189l1.508,1A5.405,5.405,0,0,1,145,71.591a4.811,4.811,0,0,1-2.353.492,5.62,5.62,0,0,1-2.6-.492,2.809,2.809,0,0,1-1.328-1.623,9.893,9.893,0,0,1-.4-3.181,9.893,9.893,0,0,1,.4-3.181,2.809,2.809,0,0,1,1.328-1.623,5.62,5.62,0,0,1,2.6-.492,5.074,5.074,0,0,1,2.549.533,3,3,0,0,1,1.3,1.779,12.118,12.118,0,0,1,.393,3.492h-6.673a6.1,6.1,0,0,0,.3,1.82,1.724,1.724,0,0,0,.754.943A2.806,2.806,0,0,0,142.643,70.345Zm0-7.116a2.456,2.456,0,0,0-1.738.516,2.81,2.81,0,0,0-.656,1.812h4.705a3.682,3.682,0,0,0-.213-1.4,1.3,1.3,0,0,0-.713-.713A3.627,3.627,0,0,0,142.643,63.229Zm5.952,8.624V61.721h1.885v.246a5.713,5.713,0,0,1,2.41-.475,4.876,4.876,0,0,1,2.156.385,2.219,2.219,0,0,1,1.09,1.3,7.878,7.878,0,0,1,.328,2.566v6.115h-1.9V65.737a5.691,5.691,0,0,0-.156-1.517,1.3,1.3,0,0,0-.508-.762,1.848,1.848,0,0,0-1.008-.23,4.771,4.771,0,0,0-1.566.189,1.081,1.081,0,0,0-.672.664,4.656,4.656,0,0,0-.172,1.476v6.3Zm13.264.23a4.076,4.076,0,0,1-2.156-.492,4.259,4.259,0,0,1-1.435-1.738l1.492-1.23a6.926,6.926,0,0,0,.566,1.1,1.3,1.3,0,0,0,.582.484,2.607,2.607,0,0,0,.951.139,8.235,8.235,0,0,0,1.705-.131,1.264,1.264,0,0,0,.787-.434,1.517,1.517,0,0,0,.213-.877,1.566,1.566,0,0,0-.172-.836,1.06,1.06,0,0,0-.615-.393,10.51,10.51,0,0,0-1.492-.262,6.458,6.458,0,0,1-2.869-.877,2.278,2.278,0,0,1-.885-1.992,3.326,3.326,0,0,1,.41-1.763,2.383,2.383,0,0,1,1.312-.976,7.649,7.649,0,0,1,2.427-.312,4.857,4.857,0,0,1,2.246.426,3.959,3.959,0,0,1,1.459,1.508l-1.377,1.344a6.039,6.039,0,0,0-.623-.984,1.383,1.383,0,0,0-.639-.434,3.6,3.6,0,0,0-1.066-.123,6.573,6.573,0,0,0-1.418.115,1.032,1.032,0,0,0-.664.393,1.482,1.482,0,0,0-.18.8.8.8,0,0,0,.2.59,1.247,1.247,0,0,0,.59.3q.393.1,1.213.213a11.581,11.581,0,0,1,2.418.566,2.428,2.428,0,0,1,1.246.967,3.312,3.312,0,0,1,.385,1.73,3.351,3.351,0,0,1-.451,1.844,2.585,2.585,0,0,1-1.459,1.017A9.2,9.2,0,0,1,161.858,72.082Zm11.624-10.362v8.394h2.869v1.738h-7.624V70.115H171.6V63.458h-2.066V61.721Zm-1.3-1.476a1.653,1.653,0,0,1-1.123-.287,2,2,0,0,1,0-2.115,1.653,1.653,0,0,1,1.123-.287,1.688,1.688,0,0,1,1.131.287,1.951,1.951,0,0,1,0,2.115A1.688,1.688,0,0,1,172.187,60.245Zm10.591,11.608h-1.705l-3.64-10.132h1.951l2.541,7.329,2.59-7.329h1.935Zm9.05-1.508a2.7,2.7,0,0,0,1.4-.336A4.163,4.163,0,0,0,194.4,68.82l1.508,1a5.405,5.405,0,0,1-1.73,1.771,4.811,4.811,0,0,1-2.353.492,5.62,5.62,0,0,1-2.6-.492,2.809,2.809,0,0,1-1.328-1.623,9.894,9.894,0,0,1-.4-3.181,9.894,9.894,0,0,1,.4-3.181,2.809,2.809,0,0,1,1.328-1.623,5.62,5.62,0,0,1,2.6-.492,5.074,5.074,0,0,1,2.549.533,3,3,0,0,1,1.3,1.779,12.118,12.118,0,0,1,.393,3.492H189.4a6.1,6.1,0,0,0,.3,1.82,1.724,1.724,0,0,0,.754.943A2.806,2.806,0,0,0,191.829,70.345Zm0-7.116a2.456,2.456,0,0,0-1.738.516,2.81,2.81,0,0,0-.656,1.812h4.705a3.682,3.682,0,0,0-.213-1.4,1.3,1.3,0,0,0-.713-.713A3.627,3.627,0,0,0,191.829,63.229Zm14.051-4.492v1.738h-6.132V64.8h3.918v1.738h-3.918v5.312h-1.885V58.737Zm5.3,13.346a4.58,4.58,0,0,1-2.1-.4,2.346,2.346,0,0,1-1.115-1.3,7.09,7.09,0,0,1-.344-2.459v-6.2H209.5v6.2a6.194,6.194,0,0,0,.139,1.525,1.085,1.085,0,0,0,.492.705,2.186,2.186,0,0,0,1.041.2,5.213,5.213,0,0,0,1.517-.164,1.105,1.105,0,0,0,.7-.582,3.021,3.021,0,0,0,.2-1.238v-6.64h1.9V71.853h-1.9v-.164A5.906,5.906,0,0,1,211.175,72.082Zm6.279-.23V61.721h1.885v.246a5.713,5.713,0,0,1,2.41-.475,4.877,4.877,0,0,1,2.156.385,2.219,2.219,0,0,1,1.09,1.3,7.878,7.878,0,0,1,.328,2.566v6.115h-1.9V65.737a5.692,5.692,0,0,0-.156-1.517,1.3,1.3,0,0,0-.508-.762,1.848,1.848,0,0,0-1.008-.23,4.771,4.771,0,0,0-1.566.189,1.081,1.081,0,0,0-.672.664,4.656,4.656,0,0,0-.172,1.476v6.3Zm13.969.23a5.317,5.317,0,0,1-2.59-.533,3.029,3.029,0,0,1-1.369-1.681,11.572,11.572,0,0,1,0-6.165,3.01,3.01,0,0,1,1.385-1.681,5.5,5.5,0,0,1,2.64-.533,4.428,4.428,0,0,1,2.279.508,5.151,5.151,0,0,1,1.64,1.8l-1.574.935a6.676,6.676,0,0,0-.705-.951,1.612,1.612,0,0,0-.664-.434,3.97,3.97,0,0,0-2.541.2,1.74,1.74,0,0,0-.771,1.074,10.691,10.691,0,0,0,0,4.328,1.774,1.774,0,0,0,.746,1.074,2.961,2.961,0,0,0,1.525.32,3.072,3.072,0,0,0,.976-.131,1.826,1.826,0,0,0,.705-.451,6.485,6.485,0,0,0,.746-.959l1.558.951a5.34,5.34,0,0,1-1.681,1.82A4.512,4.512,0,0,1,231.424,72.082Zm10.608,0a3.874,3.874,0,0,1-1.918-.41,2.4,2.4,0,0,1-1.057-1.3,6.816,6.816,0,0,1-.336-2.353V63.262h-2.033V61.524h2.033V58.737H240.6v2.787H244v1.738H240.6v4.755a5.9,5.9,0,0,0,.131,1.418,1.165,1.165,0,0,0,.434.705,1.53,1.53,0,0,0,.861.2,3.334,3.334,0,0,0,.877-.082.649.649,0,0,0,.394-.3,4.05,4.05,0,0,0,.287-.738l1.771.607a3.759,3.759,0,0,1-.639,1.336,2.192,2.192,0,0,1-1.025.7A5.331,5.331,0,0,1,242.031,72.082ZM252.18,61.721v8.394h2.869v1.738h-7.624V70.115h2.869V63.458h-2.066V61.721Zm-1.3-1.476a1.653,1.653,0,0,1-1.123-.287,2,2,0,0,1,0-2.115,1.653,1.653,0,0,1,1.123-.287,1.688,1.688,0,0,1,1.131.287,1.951,1.951,0,0,1,0,2.115A1.688,1.688,0,0,1,250.885,60.245Zm9.755,11.837a4.559,4.559,0,0,1-2.4-.541,3.025,3.025,0,0,1-1.262-1.689,12.391,12.391,0,0,1,0-6.132,3.025,3.025,0,0,1,1.262-1.689,5.62,5.62,0,0,1,4.812,0,3.012,3.012,0,0,1,1.271,1.689,12.39,12.39,0,0,1,0,6.132,3.012,3.012,0,0,1-1.271,1.689A4.6,4.6,0,0,1,260.64,72.082Zm0-1.738a2.321,2.321,0,0,0,1.32-.32,1.788,1.788,0,0,0,.664-1.082,11.911,11.911,0,0,0,0-4.312,1.788,1.788,0,0,0-.664-1.082,2.321,2.321,0,0,0-1.32-.32,2.279,2.279,0,0,0-1.312.32,1.806,1.806,0,0,0-.656,1.082,11.911,11.911,0,0,0,0,4.312,1.806,1.806,0,0,0,.656,1.082A2.279,2.279,0,0,0,260.64,70.345Zm6,1.508V61.721h1.885v.246a5.713,5.713,0,0,1,2.41-.475,4.877,4.877,0,0,1,2.156.385,2.219,2.219,0,0,1,1.09,1.3,7.878,7.878,0,0,1,.328,2.566v6.115h-1.9V65.737a5.691,5.691,0,0,0-.156-1.517,1.3,1.3,0,0,0-.508-.762,1.848,1.848,0,0,0-1.008-.23,4.771,4.771,0,0,0-1.566.189,1.081,1.081,0,0,0-.672.664,4.656,4.656,0,0,0-.172,1.476v6.3Zm16.51,2.377a4.256,4.256,0,0,1-2.9-1.115,7.154,7.154,0,0,1-1.951-3.14,16.254,16.254,0,0,1,0-9.362,7.154,7.154,0,0,1,1.951-3.14,4.256,4.256,0,0,1,2.9-1.115V58.1a2.536,2.536,0,0,0-1.91.894,6.089,6.089,0,0,0-1.287,2.525,15.785,15.785,0,0,0,0,7.558,6.089,6.089,0,0,0,1.287,2.525,2.536,2.536,0,0,0,1.91.894Zm4.181-1.738a2.536,2.536,0,0,0,1.91-.894,6.09,6.09,0,0,0,1.287-2.525,15.785,15.785,0,0,0,0-7.558,6.09,6.09,0,0,0-1.287-2.525,2.536,2.536,0,0,0-1.91-.894V56.359a4.256,4.256,0,0,1,2.9,1.115,7.153,7.153,0,0,1,1.951,3.14,16.254,16.254,0,0,1,0,9.362,7.153,7.153,0,0,1-1.951,3.14,4.256,4.256,0,0,1-2.9,1.115ZM298.1,75.066a14,14,0,0,0,1.156-1.787,2.665,2.665,0,0,0,.32-1.18,1.029,1.029,0,0,1-.853-.3,1.883,1.883,0,0,1-.23-1.1,1.476,1.476,0,0,1,.32-1.09,2.417,2.417,0,0,1,2.345,0,1.476,1.476,0,0,1,.32,1.09,5.269,5.269,0,0,1-.418,2.156,9.349,9.349,0,0,1-1.517,2.205Zm1.885-10.837a1.717,1.717,0,0,1-1.172-.3,1.449,1.449,0,0,1-.32-1.074,1.476,1.476,0,0,1,.32-1.09,2.417,2.417,0,0,1,2.345,0,1.476,1.476,0,0,1,.32,1.09,1.449,1.449,0,0,1-.32,1.074A1.717,1.717,0,0,1,299.989,64.229ZM1.429,99.528a6.12,6.12,0,0,0,1.64-.172,1.47,1.47,0,0,0,.853-.566,1.967,1.967,0,0,0,.262-1.1,6.529,6.529,0,0,0-.164-1.377,5.113,5.113,0,0,1-.131-1,2.866,2.866,0,0,1,.426-1.508,5.684,5.684,0,0,1,1.394-1.459,5.711,5.711,0,0,1-1.385-1.484,2.98,2.98,0,0,1-.434-1.549A4.289,4.289,0,0,1,4.036,88.3,5.485,5.485,0,0,0,4.2,87.035a2.044,2.044,0,0,0-.262-1.123,1.458,1.458,0,0,0-.861-.574,6.215,6.215,0,0,0-1.648-.172V83.412a5.822,5.822,0,0,1,3.533.853,3.2,3.2,0,0,1,1.107,2.705,8.1,8.1,0,0,1-.164,1.508,6.67,6.67,0,0,0-.131,1,1.875,1.875,0,0,0,.574,1q.574.656,1.853,1.869-1.262,1.18-1.844,1.836a1.892,1.892,0,0,0-.582.967,8.625,8.625,0,0,0,.131,1.115,8.823,8.823,0,0,1,.164,1.476,3.176,3.176,0,0,1-1.107,2.7,5.866,5.866,0,0,1-3.533.844Z" transform="translate(672.636 23305.746)" fill="#12263f"/>
  </g>
</svg>
