<svg xmlns="http://www.w3.org/2000/svg" width="610" height="223" viewBox="0 0 610 223">
  <g id="Grupo_167872" data-name="Grupo 167872" transform="translate(-519 -23668)">
    <g id="Rectángulo_341997" data-name="Rectángulo 341997" transform="translate(519 23668)" fill="#8979f3" stroke="#707070" stroke-width="1" opacity="0.25">
      <rect width="610" height="223" rx="25" stroke="none"/>
      <rect x="0.5" y="0.5" width="609" height="222" rx="24.5" fill="none"/>
    </g>
    <path id="Trazado_688145" data-name="Trazado 688145" d="M5.333,16.658H3.747L.364,7.239H2.177L4.54,14.052,6.948,7.239h1.8Zm8.368.213a4.239,4.239,0,0,1-2.233-.5,2.812,2.812,0,0,1-1.174-1.57,9.211,9.211,0,0,1-.358-2.85,9.211,9.211,0,0,1,.358-2.85,2.812,2.812,0,0,1,1.174-1.57,4.239,4.239,0,0,1,2.233-.5,4.281,4.281,0,0,1,2.241.5A2.8,2.8,0,0,1,17.122,9.1a9.211,9.211,0,0,1,.358,2.85,9.211,9.211,0,0,1-.358,2.85,2.8,2.8,0,0,1-1.181,1.57A4.281,4.281,0,0,1,13.7,16.872Zm0-1.616a2.157,2.157,0,0,0,1.227-.3,1.662,1.662,0,0,0,.617-1.006,8.461,8.461,0,0,0,.183-2,8.461,8.461,0,0,0-.183-2,1.662,1.662,0,0,0-.617-1.006,2.157,2.157,0,0,0-1.227-.3,2.119,2.119,0,0,0-1.219.3,1.679,1.679,0,0,0-.61,1.006,8.461,8.461,0,0,0-.183,2,8.461,8.461,0,0,0,.183,2,1.679,1.679,0,0,0,.61,1.006A2.119,2.119,0,0,0,13.7,15.256ZM24.126,7.239v7.8h2.667v1.616H19.706V15.043h2.667V8.854h-1.92V7.239Zm-1.2-1.372A1.537,1.537,0,0,1,21.878,5.6a1.337,1.337,0,0,1-.282-.983,1.337,1.337,0,0,1,.282-.983,1.537,1.537,0,0,1,1.044-.267,1.569,1.569,0,0,1,1.052.267,1.313,1.313,0,0,1,.29.983,1.313,1.313,0,0,1-.29.983A1.569,1.569,0,0,1,22.922,5.867Zm8.993,11a4.292,4.292,0,0,1-2.233-.5,2.776,2.776,0,0,1-1.174-1.562,9.211,9.211,0,0,1-.358-2.85A9.273,9.273,0,0,1,28.508,9.1a2.812,2.812,0,0,1,1.174-1.57,4.239,4.239,0,0,1,2.233-.5,5.688,5.688,0,0,1,2.042.366V4.465H35.71V16.658H33.957v-.107A5.986,5.986,0,0,1,31.915,16.872Zm0-1.616a3.794,3.794,0,0,0,1.547-.236.722.722,0,0,0,.5-.648v-3.6a2.317,2.317,0,0,0-.48-1.616,2.045,2.045,0,0,0-1.562-.518,2.078,2.078,0,0,0-1.219.3,1.715,1.715,0,0,0-.61,1.014,8.461,8.461,0,0,0-.183,2,8.36,8.36,0,0,0,.183,2,1.673,1.673,0,0,0,.61,1A2.119,2.119,0,0,0,31.915,15.256Zm18.367,1.616a4.226,4.226,0,0,1-2.2-.488,2.765,2.765,0,0,1-1.158-1.562,9.411,9.411,0,0,1-.358-2.888V4.465h1.753v7.469a8.995,8.995,0,0,0,.175,2.035,1.63,1.63,0,0,0,.594,1,2.092,2.092,0,0,0,1.2.29,2.13,2.13,0,0,0,1.2-.29,1.614,1.614,0,0,0,.6-1,8.995,8.995,0,0,0,.175-2.035V4.465h1.753v7.469a9.411,9.411,0,0,1-.358,2.888,2.754,2.754,0,0,1-1.166,1.562A4.268,4.268,0,0,1,50.281,16.872Zm5.457,2.561V7.239h1.768V7.33a6.207,6.207,0,0,1,2.027-.3,4.334,4.334,0,0,1,2.241.5,2.765,2.765,0,0,1,1.181,1.562,9.211,9.211,0,0,1,.358,2.85,9.286,9.286,0,0,1-.358,2.858,2.8,2.8,0,0,1-1.181,1.578,4.281,4.281,0,0,1-2.241.5,5.567,5.567,0,0,1-2.027-.366v2.926Zm3.8-4.176a2.115,2.115,0,0,0,1.227-.3,1.7,1.7,0,0,0,.617-1.014,8.461,8.461,0,0,0,.183-2,8.36,8.36,0,0,0-.183-2,1.657,1.657,0,0,0-.617-1,2.157,2.157,0,0,0-1.227-.3q-2.027,0-2.027.884v3.6a2.343,2.343,0,0,0,.473,1.616A2.019,2.019,0,0,0,59.533,15.256ZM68.5,16.872a4.292,4.292,0,0,1-2.233-.5,2.776,2.776,0,0,1-1.174-1.562,9.211,9.211,0,0,1-.358-2.85A9.273,9.273,0,0,1,65.089,9.1a2.812,2.812,0,0,1,1.174-1.57,4.239,4.239,0,0,1,2.233-.5,5.688,5.688,0,0,1,2.042.366V4.465h1.753V16.658H70.538v-.107A5.986,5.986,0,0,1,68.5,16.872Zm0-1.616a3.794,3.794,0,0,0,1.547-.236.722.722,0,0,0,.5-.648v-3.6a2.317,2.317,0,0,0-.48-1.616A2.045,2.045,0,0,0,68.5,8.641a2.078,2.078,0,0,0-1.219.3,1.715,1.715,0,0,0-.61,1.014,8.461,8.461,0,0,0-.183,2,8.36,8.36,0,0,0,.183,2,1.673,1.673,0,0,0,.61,1A2.119,2.119,0,0,0,68.5,15.256Zm8.978,1.616a6.211,6.211,0,0,1-2.157-.3,2.126,2.126,0,0,1-1.158-.953,3.577,3.577,0,0,1-.358-1.73A4.023,4.023,0,0,1,74.158,12a1.953,1.953,0,0,1,1.143-.93,7.007,7.007,0,0,1,2.172-.267h1.92V10.47a2.451,2.451,0,0,0-.16-.991.932.932,0,0,0-.572-.5,3.761,3.761,0,0,0-1.189-.145,2.834,2.834,0,0,0-.975.13.982.982,0,0,0-.518.465,4.458,4.458,0,0,0-.351,1.021l-1.677-.412a6.121,6.121,0,0,1,.686-1.738,2.5,2.5,0,0,1,1.1-.968,4.2,4.2,0,0,1,1.738-.312,3.9,3.9,0,0,1,2.827.846,3.539,3.539,0,0,1,.846,2.6v3.567a1.8,1.8,0,0,0,.122.823.566.566,0,0,0,.518.2q.122,0,.549-.03v1.616q-.183.015-.5.015A2.274,2.274,0,0,1,80,16.049a2.307,2.307,0,0,1-1.021.633A5.124,5.124,0,0,1,77.473,16.872Zm0-1.616a3.032,3.032,0,0,0,1.189-.183,1.04,1.04,0,0,0,.572-.625,3.946,3.946,0,0,0,.16-1.28v-.747h-1.92a6.259,6.259,0,0,0-1.235.084.73.73,0,0,0-.518.381,2.354,2.354,0,0,0-.152,1,1.834,1.834,0,0,0,.152.846.882.882,0,0,0,.556.4A4.412,4.412,0,0,0,77.473,15.256Zm10.38,1.616a3.6,3.6,0,0,1-1.783-.381,2.235,2.235,0,0,1-.983-1.212,6.337,6.337,0,0,1-.312-2.187V8.671h-1.89V7.056h1.89V4.465h1.753V7.056h3.155V8.671H86.527v4.42a5.484,5.484,0,0,0,.122,1.318,1.083,1.083,0,0,0,.4.655,1.422,1.422,0,0,0,.8.191,3.1,3.1,0,0,0,.815-.076.6.6,0,0,0,.366-.274,3.764,3.764,0,0,0,.267-.686l1.646.564a3.5,3.5,0,0,1-.594,1.242,2.038,2.038,0,0,1-.953.648A4.956,4.956,0,0,1,87.853,16.872Zm8.2-1.616a2.513,2.513,0,0,0,1.3-.312,3.87,3.87,0,0,0,1.09-1.105l1.4.93a5.025,5.025,0,0,1-1.608,1.646,4.473,4.473,0,0,1-2.187.457,5.225,5.225,0,0,1-2.416-.457A2.612,2.612,0,0,1,92.4,14.905a9.2,9.2,0,0,1-.373-2.957A9.2,9.2,0,0,1,92.4,8.992a2.612,2.612,0,0,1,1.235-1.509,5.225,5.225,0,0,1,2.416-.457,4.717,4.717,0,0,1,2.37.5,2.785,2.785,0,0,1,1.212,1.654A11.265,11.265,0,0,1,100,12.421H93.8a5.674,5.674,0,0,0,.274,1.692,1.6,1.6,0,0,0,.7.876A2.609,2.609,0,0,0,96.053,15.256Zm0-6.615a2.283,2.283,0,0,0-1.616.48,2.612,2.612,0,0,0-.61,1.684H98.2A3.422,3.422,0,0,0,98,9.5a1.213,1.213,0,0,0-.663-.663A3.372,3.372,0,0,0,96.053,8.641ZM107.79,18.868a3.957,3.957,0,0,1-2.7-1.036,6.651,6.651,0,0,1-1.814-2.919,13.507,13.507,0,0,1-.64-4.352,13.507,13.507,0,0,1,.64-4.352,6.651,6.651,0,0,1,1.814-2.919,3.957,3.957,0,0,1,2.7-1.036V3.87a2.358,2.358,0,0,0-1.776.831,5.661,5.661,0,0,0-1.2,2.347,13.018,13.018,0,0,0-.427,3.513,13.018,13.018,0,0,0,.427,3.513,5.661,5.661,0,0,0,1.2,2.347,2.358,2.358,0,0,0,1.776.831Zm3.887-1.616a2.358,2.358,0,0,0,1.776-.831,5.661,5.661,0,0,0,1.2-2.347,13.019,13.019,0,0,0,.427-3.513,13.019,13.019,0,0,0-.427-3.513,5.661,5.661,0,0,0-1.2-2.347,2.358,2.358,0,0,0-1.776-.831V2.255a3.957,3.957,0,0,1,2.7,1.036,6.651,6.651,0,0,1,1.814,2.919,13.507,13.507,0,0,1,.64,4.352,13.507,13.507,0,0,1-.64,4.352,6.651,6.651,0,0,1-1.814,2.919,3.957,3.957,0,0,1-2.7,1.036ZM7.756,44.018a5.416,5.416,0,0,1-3.277-.785,2.963,2.963,0,0,1-1.021-2.507,8.2,8.2,0,0,1,.152-1.372,8.018,8.018,0,0,0,.122-1.036,1.7,1.7,0,0,0-.533-.884q-.533-.594-1.738-1.722,1.2-1.158,1.738-1.753a1.684,1.684,0,0,0,.533-.915,6.2,6.2,0,0,0-.122-.93,7.529,7.529,0,0,1-.152-1.4A2.985,2.985,0,0,1,4.479,28.2,5.376,5.376,0,0,1,7.756,27.4v1.631a5.689,5.689,0,0,0-1.524.16,1.352,1.352,0,0,0-.793.533A1.9,1.9,0,0,0,5.2,30.772a5.1,5.1,0,0,0,.152,1.174,3.987,3.987,0,0,1,.137.945,2.706,2.706,0,0,1-.412,1.425,5.65,5.65,0,0,1-1.3,1.395,5.422,5.422,0,0,1,1.3,1.357,2.627,2.627,0,0,1,.4,1.4,4.754,4.754,0,0,1-.122.93,6.07,6.07,0,0,0-.152,1.28A1.875,1.875,0,0,0,5.447,41.7a1.33,1.33,0,0,0,.785.526,5.689,5.689,0,0,0,1.524.16Zm34.66,13.52v7.8h2.667v1.616H38V65.341h2.667V59.153h-1.92V57.537Zm-1.2-1.372a1.537,1.537,0,0,1-1.044-.267,1.855,1.855,0,0,1,0-1.966,1.537,1.537,0,0,1,1.044-.267,1.569,1.569,0,0,1,1.052.267,1.813,1.813,0,0,1,0,1.966A1.569,1.569,0,0,1,41.212,56.166ZM51.531,54.55a5.672,5.672,0,0,1,1.654.2,2.077,2.077,0,0,1,1.006.648,3.253,3.253,0,0,1,.587,1.242l-1.646.564a2.415,2.415,0,0,0-.251-.671.713.713,0,0,0-.419-.282,3.678,3.678,0,0,0-.93-.084,2.482,2.482,0,0,0-1.021.16.915.915,0,0,0-.473.564,4.081,4.081,0,0,0-.137,1.227V59h2.713v1.616H49.9v6.341H48.147V60.616h-1.89V59h1.89v-.884a5.468,5.468,0,0,1,.328-2.1,2.112,2.112,0,0,1,1.067-1.12A4.7,4.7,0,0,1,51.531,54.55ZM71.209,69.167a3.957,3.957,0,0,1-2.7-1.036A6.65,6.65,0,0,1,66.7,65.212a15.11,15.11,0,0,1,0-8.7,6.651,6.651,0,0,1,1.814-2.919,3.957,3.957,0,0,1,2.7-1.036v1.616A2.358,2.358,0,0,0,69.433,55a5.661,5.661,0,0,0-1.2,2.347,14.674,14.674,0,0,0,0,7.027,5.661,5.661,0,0,0,1.2,2.347,2.358,2.358,0,0,0,1.776.831Zm11.1-14.4v1.616H78.6V66.957H76.848V56.379H73.129V54.763Zm5.838,2.774v7.8H90.81v1.616H83.722V65.341H86.39V59.153h-1.92V57.537Zm-1.2-1.372a1.537,1.537,0,0,1-1.044-.267,1.855,1.855,0,0,1,0-1.966,1.537,1.537,0,0,1,1.044-.267,1.569,1.569,0,0,1,1.052.267,1.814,1.814,0,0,1,0,1.966A1.569,1.569,0,0,1,86.938,56.166ZM91.8,66.957v-9.42h1.753v-.061q.122-.03.457-.091a3.367,3.367,0,0,1,.594-.061,2.156,2.156,0,0,1,.945.168,1.791,1.791,0,0,1,.64.61,1.991,1.991,0,0,1,1.738-.777,2.247,2.247,0,0,1,1.372.366,2.086,2.086,0,0,1,.7,1.2,9.924,9.924,0,0,1,.213,2.332v5.731H98.461V61.226a8.122,8.122,0,0,0-.114-1.669q-.114-.465-.419-.465a.834.834,0,0,0-.815.427,3.7,3.7,0,0,0-.221,1.539v5.9H95.139v-5.64a8.3,8.3,0,0,0-.122-1.73q-.122-.5-.412-.5a.851.851,0,0,0-.823.427,3.59,3.59,0,0,0-.229,1.539v5.9Zm13.4-1.4a2.513,2.513,0,0,0,1.3-.312,3.87,3.87,0,0,0,1.09-1.105l1.4.93a5.025,5.025,0,0,1-1.608,1.646,4.473,4.473,0,0,1-2.187.457,5.225,5.225,0,0,1-2.416-.457,2.612,2.612,0,0,1-1.235-1.509,9.2,9.2,0,0,1-.373-2.957,9.2,9.2,0,0,1,.373-2.957,2.612,2.612,0,0,1,1.235-1.509,5.225,5.225,0,0,1,2.416-.457,4.717,4.717,0,0,1,2.37.5,2.785,2.785,0,0,1,1.212,1.654,11.265,11.265,0,0,1,.366,3.247h-6.2a5.673,5.673,0,0,0,.274,1.692,1.6,1.6,0,0,0,.7.876A2.609,2.609,0,0,0,105.2,65.555Zm0-6.615a2.283,2.283,0,0,0-1.616.48,2.612,2.612,0,0,0-.61,1.684h4.374a3.423,3.423,0,0,0-.2-1.3,1.213,1.213,0,0,0-.663-.663A3.372,3.372,0,0,0,105.2,58.94Zm9.1,8.231a1.6,1.6,0,0,1-1.09-.282,1.347,1.347,0,0,1-.3-1,1.372,1.372,0,0,1,.3-1.014,2.247,2.247,0,0,1,2.18,0,1.372,1.372,0,0,1,.3,1.014,1.347,1.347,0,0,1-.3,1A1.6,1.6,0,0,1,114.3,67.17Zm10.4-12.62a5.672,5.672,0,0,1,1.654.2,2.077,2.077,0,0,1,1.006.648,3.253,3.253,0,0,1,.587,1.242l-1.646.564a2.415,2.415,0,0,0-.251-.671.713.713,0,0,0-.419-.282,3.678,3.678,0,0,0-.93-.084,2.482,2.482,0,0,0-1.021.16.915.915,0,0,0-.473.564,4.081,4.081,0,0,0-.137,1.227V59h2.713v1.616h-2.713v6.341h-1.753V60.616h-1.89V59h1.89v-.884a5.468,5.468,0,0,1,.328-2.1A2.112,2.112,0,0,1,122.7,54.9,4.7,4.7,0,0,1,124.693,54.55Zm4.74,12.407v-9.42h1.753v.777a3.351,3.351,0,0,1,.945-.694,2.7,2.7,0,0,1,1.25-.3,3.9,3.9,0,0,1,1.463.236,2.45,2.45,0,0,1,1,.762,5.147,5.147,0,0,1,.754,1.456l-1.57.716a5.462,5.462,0,0,0-.4-.991,1,1,0,0,0-.465-.442,2.031,2.031,0,0,0-.785-.122,1.83,1.83,0,0,0-1.692.815,4.557,4.557,0,0,0-.5,2.37v4.832Zm12.056.213a6.211,6.211,0,0,1-2.157-.3,2.126,2.126,0,0,1-1.158-.953,3.577,3.577,0,0,1-.358-1.73,4.023,4.023,0,0,1,.358-1.882,1.953,1.953,0,0,1,1.143-.93,7.007,7.007,0,0,1,2.172-.267h1.921v-.335a2.451,2.451,0,0,0-.16-.991.932.932,0,0,0-.572-.5,3.761,3.761,0,0,0-1.189-.145,2.834,2.834,0,0,0-.975.13.982.982,0,0,0-.518.465,4.459,4.459,0,0,0-.351,1.021l-1.677-.412a6.12,6.12,0,0,1,.686-1.738,2.5,2.5,0,0,1,1.1-.968,4.2,4.2,0,0,1,1.738-.312,3.9,3.9,0,0,1,2.827.846,3.539,3.539,0,0,1,.846,2.6v3.567a1.8,1.8,0,0,0,.122.823.566.566,0,0,0,.518.2q.122,0,.549-.03v1.616q-.183.015-.5.015a2.274,2.274,0,0,1-1.829-.61A2.307,2.307,0,0,1,143,66.98,5.124,5.124,0,0,1,141.49,67.17Zm0-1.616a3.032,3.032,0,0,0,1.189-.183,1.04,1.04,0,0,0,.572-.625,3.946,3.946,0,0,0,.16-1.28V62.72H141.49a6.259,6.259,0,0,0-1.235.084.73.73,0,0,0-.518.381,2.355,2.355,0,0,0-.152,1,1.834,1.834,0,0,0,.152.846.882.882,0,0,0,.556.4A4.412,4.412,0,0,0,141.49,65.555Zm5.182,1.4v-9.42h1.753v-.061q.122-.03.457-.091a3.368,3.368,0,0,1,.594-.061,2.156,2.156,0,0,1,.945.168,1.791,1.791,0,0,1,.64.61,1.991,1.991,0,0,1,1.738-.777,2.247,2.247,0,0,1,1.372.366,2.086,2.086,0,0,1,.7,1.2,9.924,9.924,0,0,1,.213,2.332v5.731h-1.753V61.226a8.121,8.121,0,0,0-.114-1.669q-.114-.465-.419-.465a.834.834,0,0,0-.815.427,3.7,3.7,0,0,0-.221,1.539v5.9H150.01v-5.64a8.3,8.3,0,0,0-.122-1.73q-.122-.5-.412-.5a.851.851,0,0,0-.823.427,3.59,3.59,0,0,0-.229,1.539v5.9Zm13.4-1.4a2.513,2.513,0,0,0,1.3-.312,3.87,3.87,0,0,0,1.09-1.105l1.4.93a5.025,5.025,0,0,1-1.608,1.646,4.473,4.473,0,0,1-2.187.457,5.225,5.225,0,0,1-2.416-.457,2.612,2.612,0,0,1-1.235-1.509,9.2,9.2,0,0,1-.373-2.957,9.2,9.2,0,0,1,.373-2.957,2.612,2.612,0,0,1,1.235-1.509,5.225,5.225,0,0,1,2.416-.457,4.717,4.717,0,0,1,2.37.5,2.785,2.785,0,0,1,1.212,1.654,11.265,11.265,0,0,1,.366,3.247h-6.2a5.674,5.674,0,0,0,.274,1.692,1.6,1.6,0,0,0,.7.876A2.609,2.609,0,0,0,160.07,65.555Zm0-6.615a2.283,2.283,0,0,0-1.616.48,2.612,2.612,0,0,0-.61,1.684h4.374a3.423,3.423,0,0,0-.2-1.3,1.212,1.212,0,0,0-.663-.663A3.372,3.372,0,0,0,160.07,58.94ZM169.4,67.17a4.229,4.229,0,0,1-2.469-.633,3.54,3.54,0,0,1-1.3-2,13.748,13.748,0,0,1-.4-3.7,13.675,13.675,0,0,1,.4-3.681,3.5,3.5,0,0,1,1.3-1.989,4.269,4.269,0,0,1,2.469-.625,4.659,4.659,0,0,1,1.814.3,2.661,2.661,0,0,1,1.181,1,6.645,6.645,0,0,1,.8,1.9l-1.661.579a7.067,7.067,0,0,0-.5-1.364,1.4,1.4,0,0,0-.61-.625,2.412,2.412,0,0,0-1.021-.175,2.216,2.216,0,0,0-1.448.427,2.488,2.488,0,0,0-.739,1.433,13.873,13.873,0,0,0-.221,2.82,13.973,13.973,0,0,0,.221,2.835,2.529,2.529,0,0,0,.739,1.44,2.189,2.189,0,0,0,1.448.434,2.412,2.412,0,0,0,1.021-.175,1.409,1.409,0,0,0,.61-.61,6.64,6.64,0,0,0,.5-1.334l1.661.564a6.535,6.535,0,0,1-.8,1.875,2.685,2.685,0,0,1-1.174.991A4.648,4.648,0,0,1,169.4,67.17Zm8.917,0a4.239,4.239,0,0,1-2.233-.5,2.812,2.812,0,0,1-1.174-1.57,11.519,11.519,0,0,1,0-5.7,2.812,2.812,0,0,1,1.174-1.57,5.225,5.225,0,0,1,4.474,0,2.8,2.8,0,0,1,1.181,1.57,11.519,11.519,0,0,1,0,5.7,2.8,2.8,0,0,1-1.181,1.57A4.281,4.281,0,0,1,178.314,67.17Zm0-1.616a2.157,2.157,0,0,0,1.227-.3,1.662,1.662,0,0,0,.617-1.006,11.073,11.073,0,0,0,0-4.009,1.662,1.662,0,0,0-.617-1.006,2.157,2.157,0,0,0-1.227-.3,2.119,2.119,0,0,0-1.219.3,1.679,1.679,0,0,0-.61,1.006,11.074,11.074,0,0,0,0,4.009,1.679,1.679,0,0,0,.61,1.006A2.119,2.119,0,0,0,178.314,65.555ZM187.2,67.17a4.258,4.258,0,0,1-1.951-.373,2.181,2.181,0,0,1-1.036-1.212,6.591,6.591,0,0,1-.32-2.286V57.537h1.753V63.3a5.758,5.758,0,0,0,.13,1.418,1.009,1.009,0,0,0,.457.655,2.032,2.032,0,0,0,.968.183,4.846,4.846,0,0,0,1.41-.152,1.028,1.028,0,0,0,.648-.541,2.808,2.808,0,0,0,.183-1.151V57.537h1.768v9.42h-1.768V66.8A5.49,5.49,0,0,1,187.2,67.17Zm5.838-.213v-9.42h1.753v.229a5.311,5.311,0,0,1,2.241-.442,4.533,4.533,0,0,1,2,.358,2.063,2.063,0,0,1,1.014,1.2,7.324,7.324,0,0,1,.3,2.385v5.685h-1.768V61.272a5.291,5.291,0,0,0-.145-1.41,1.208,1.208,0,0,0-.473-.709,1.718,1.718,0,0,0-.937-.213,4.436,4.436,0,0,0-1.456.175,1,1,0,0,0-.625.617,4.328,4.328,0,0,0-.16,1.372v5.853Zm13.7.213a3.6,3.6,0,0,1-1.783-.381,2.235,2.235,0,0,1-.983-1.212,6.336,6.336,0,0,1-.312-2.187V58.97h-1.89V57.355h1.89V54.763h1.753v2.591h3.155V58.97h-3.155v4.42a5.484,5.484,0,0,0,.122,1.318,1.083,1.083,0,0,0,.4.655,1.422,1.422,0,0,0,.8.191,3.1,3.1,0,0,0,.815-.076.6.6,0,0,0,.366-.274,3.764,3.764,0,0,0,.267-.686l1.646.564a3.5,3.5,0,0,1-.594,1.242,2.038,2.038,0,0,1-.953.648A4.955,4.955,0,0,1,206.741,67.17Zm15.12-7.377a3.943,3.943,0,0,1-1.555-.244,1.472,1.472,0,0,1-.785-.815,5.591,5.591,0,0,1,0-3.216,1.472,1.472,0,0,1,.785-.815,3.943,3.943,0,0,1,1.555-.244,4,4,0,0,1,1.562.244,1.5,1.5,0,0,1,.8.815,5.423,5.423,0,0,1,0,3.216,1.5,1.5,0,0,1-.8.815A4,4,0,0,1,221.861,59.793Zm-.335,6.158H219.27l7.286-10.182h2.256Zm.335-7.773a.82.82,0,0,0,.671-.229,1.96,1.96,0,0,0,0-1.654.837.837,0,0,0-.671-.221.789.789,0,0,0-.648.221,2.056,2.056,0,0,0,0,1.661A.789.789,0,0,0,221.861,58.178Zm4.329,9.084a3.953,3.953,0,0,1-1.547-.244,1.469,1.469,0,0,1-.793-.815,5.59,5.59,0,0,1,0-3.216,1.469,1.469,0,0,1,.793-.815,3.953,3.953,0,0,1,1.547-.244,4,4,0,0,1,1.562.244,1.5,1.5,0,0,1,.8.815,5.423,5.423,0,0,1,0,3.216,1.5,1.5,0,0,1-.8.815A4,4,0,0,1,226.19,67.262Zm0-1.616a.82.82,0,0,0,.671-.229,1.96,1.96,0,0,0,0-1.654.837.837,0,0,0-.671-.221.789.789,0,0,0-.648.221,2.056,2.056,0,0,0,0,1.661A.789.789,0,0,0,226.19,65.646Zm17.422-8.109v7.8h2.667v1.616h-7.088V65.341h2.667V59.153h-1.92V57.537Zm-1.2-1.372a1.537,1.537,0,0,1-1.044-.267,1.855,1.855,0,0,1,0-1.966,1.537,1.537,0,0,1,1.044-.267,1.569,1.569,0,0,1,1.052.267,1.814,1.814,0,0,1,0,1.966A1.569,1.569,0,0,1,242.407,56.166Zm5.5,10.791v-9.42h1.753v.229a5.311,5.311,0,0,1,2.241-.442,4.533,4.533,0,0,1,2,.358,2.063,2.063,0,0,1,1.014,1.2,7.324,7.324,0,0,1,.3,2.385v5.685h-1.768V61.272a5.291,5.291,0,0,0-.145-1.41,1.207,1.207,0,0,0-.473-.709,1.718,1.718,0,0,0-.937-.213,4.436,4.436,0,0,0-1.456.175,1,1,0,0,0-.625.617,4.329,4.329,0,0,0-.16,1.372v5.853Zm13.7.213a3.6,3.6,0,0,1-1.783-.381,2.235,2.235,0,0,1-.983-1.212,6.336,6.336,0,0,1-.312-2.187V58.97h-1.89V57.355h1.89V54.763h1.753v2.591h3.155V58.97h-3.155v4.42a5.484,5.484,0,0,0,.122,1.318,1.083,1.083,0,0,0,.4.655,1.422,1.422,0,0,0,.8.191,3.1,3.1,0,0,0,.815-.076.6.6,0,0,0,.366-.274,3.763,3.763,0,0,0,.267-.686l1.646.564a3.5,3.5,0,0,1-.594,1.242,2.038,2.038,0,0,1-.953.648A4.955,4.955,0,0,1,261.612,67.17Zm8.2-1.616a2.513,2.513,0,0,0,1.3-.312,3.87,3.87,0,0,0,1.09-1.105l1.4.93A5.025,5.025,0,0,1,272,66.713a4.473,4.473,0,0,1-2.187.457,5.225,5.225,0,0,1-2.416-.457,2.612,2.612,0,0,1-1.235-1.509,9.2,9.2,0,0,1-.373-2.957,9.2,9.2,0,0,1,.373-2.957,2.612,2.612,0,0,1,1.235-1.509,5.225,5.225,0,0,1,2.416-.457,4.717,4.717,0,0,1,2.37.5,2.785,2.785,0,0,1,1.212,1.654,11.267,11.267,0,0,1,.366,3.247h-6.2a5.673,5.673,0,0,0,.274,1.692,1.6,1.6,0,0,0,.7.876A2.609,2.609,0,0,0,269.812,65.555Zm0-6.615a2.283,2.283,0,0,0-1.616.48,2.612,2.612,0,0,0-.61,1.684h4.374a3.422,3.422,0,0,0-.2-1.3,1.213,1.213,0,0,0-.663-.663A3.372,3.372,0,0,0,269.812,58.94Zm5.944,8.017v-9.42h1.753v.777a3.351,3.351,0,0,1,.945-.694,2.7,2.7,0,0,1,1.25-.3,3.9,3.9,0,0,1,1.463.236,2.45,2.45,0,0,1,1,.762,5.148,5.148,0,0,1,.754,1.456l-1.57.716a5.464,5.464,0,0,0-.4-.991,1,1,0,0,0-.465-.442,2.031,2.031,0,0,0-.785-.122,1.83,1.83,0,0,0-1.692.815,4.556,4.556,0,0,0-.5,2.37v4.832Zm13.078,0h-1.585l-3.384-9.42h1.814l2.363,6.813,2.408-6.813h1.8Zm8.124.213a6.211,6.211,0,0,1-2.157-.3,2.126,2.126,0,0,1-1.158-.953,3.577,3.577,0,0,1-.358-1.73,4.023,4.023,0,0,1,.358-1.882,1.953,1.953,0,0,1,1.143-.93,7.007,7.007,0,0,1,2.172-.267h1.92v-.335a2.451,2.451,0,0,0-.16-.991.932.932,0,0,0-.572-.5,3.761,3.761,0,0,0-1.189-.145,2.834,2.834,0,0,0-.975.13.982.982,0,0,0-.518.465,4.457,4.457,0,0,0-.351,1.021l-1.677-.412a6.121,6.121,0,0,1,.686-1.738,2.5,2.5,0,0,1,1.1-.968,4.2,4.2,0,0,1,1.738-.312,3.9,3.9,0,0,1,2.827.846,3.539,3.539,0,0,1,.846,2.6v3.567a1.8,1.8,0,0,0,.122.823.566.566,0,0,0,.518.2q.122,0,.549-.03v1.616q-.183.015-.5.015a2.274,2.274,0,0,1-1.829-.61,2.307,2.307,0,0,1-1.021.633A5.124,5.124,0,0,1,296.958,67.17Zm0-1.616a3.032,3.032,0,0,0,1.189-.183,1.04,1.04,0,0,0,.572-.625,3.946,3.946,0,0,0,.16-1.28V62.72h-1.92a6.259,6.259,0,0,0-1.235.084.73.73,0,0,0-.518.381,2.354,2.354,0,0,0-.152,1,1.833,1.833,0,0,0,.152.846.882.882,0,0,0,.556.4A4.412,4.412,0,0,0,296.958,65.555Zm10.959,1.616a3.5,3.5,0,0,1-1.654-.32,1.808,1.808,0,0,1-.838-1.067,6.879,6.879,0,0,1-.252-2.1v-7.3h-1.92V54.763h3.673V63.68a3.487,3.487,0,0,0,.213,1.471.8.8,0,0,0,.777.4,1.171,1.171,0,0,0,.587-.183,7.161,7.161,0,0,0,.876-.655l.975,1.494a4.672,4.672,0,0,1-1.2.754A3.4,3.4,0,0,1,307.917,67.17ZM338.2,59.839H320.218V58.223H338.2Zm0,3.658H320.218V61.881H338.2Zm13.87,3.673a3.034,3.034,0,0,1-2.058-.823,5.44,5.44,0,0,1-1.456-2.271,10.1,10.1,0,0,1,0-6.432,5.44,5.44,0,0,1,1.456-2.271,2.984,2.984,0,0,1,4.115,0,5.5,5.5,0,0,1,1.463,2.271,9.961,9.961,0,0,1,0,6.432,5.5,5.5,0,0,1-1.463,2.271A3.034,3.034,0,0,1,352.074,67.17Zm0-1.616a1.492,1.492,0,0,0,1.113-.625,4.626,4.626,0,0,0,.854-1.707,8.878,8.878,0,0,0,0-4.725,4.626,4.626,0,0,0-.854-1.707,1.3,1.3,0,0,0-2.225,0,4.626,4.626,0,0,0-.854,1.707,8.879,8.879,0,0,0,0,4.725,4.626,4.626,0,0,0,.854,1.707A1.492,1.492,0,0,0,352.074,65.555Zm0-3.521a1.264,1.264,0,0,1-.9-.328,1.106,1.106,0,0,1-.351-.846,1.064,1.064,0,0,1,.351-.823,1.282,1.282,0,0,1,.9-.32,1.31,1.31,0,0,1,.907.32,1.054,1.054,0,0,1,.358.823,1.094,1.094,0,0,1-.358.846A1.292,1.292,0,0,1,352.074,62.034Zm6.524,5.518a2.358,2.358,0,0,0,1.776-.831,5.661,5.661,0,0,0,1.2-2.347,14.674,14.674,0,0,0,0-7.027,5.661,5.661,0,0,0-1.2-2.347,2.358,2.358,0,0,0-1.776-.831V52.553a3.957,3.957,0,0,1,2.7,1.036,6.65,6.65,0,0,1,1.814,2.919,15.111,15.111,0,0,1,0,8.7,6.65,6.65,0,0,1-1.814,2.919,3.957,3.957,0,0,1-2.7,1.036ZM44.337,94.316a5.416,5.416,0,0,1-3.277-.785,2.963,2.963,0,0,1-1.021-2.507,8.2,8.2,0,0,1,.152-1.372,8.018,8.018,0,0,0,.122-1.036,1.7,1.7,0,0,0-.533-.884q-.533-.594-1.738-1.722,1.2-1.158,1.738-1.753a1.684,1.684,0,0,0,.533-.915,6.2,6.2,0,0,0-.122-.93,7.529,7.529,0,0,1-.152-1.4A2.985,2.985,0,0,1,41.06,78.5a5.376,5.376,0,0,1,3.277-.793v1.631a5.689,5.689,0,0,0-1.524.16,1.352,1.352,0,0,0-.793.533,1.9,1.9,0,0,0-.244,1.044,5.1,5.1,0,0,0,.152,1.174,3.987,3.987,0,0,1,.137.945,2.706,2.706,0,0,1-.412,1.425,5.65,5.65,0,0,1-1.3,1.395,5.422,5.422,0,0,1,1.3,1.357,2.627,2.627,0,0,1,.4,1.4,4.754,4.754,0,0,1-.122.93,6.07,6.07,0,0,0-.152,1.28A1.875,1.875,0,0,0,42.028,92a1.33,1.33,0,0,0,.785.526,5.689,5.689,0,0,0,1.524.16Zm37.328,10.746v1.616h-5.7V110h3.658v1.616H75.964v4.024h5.7v1.616H74.211V105.062Zm7.3,2.774h2.012l-3.109,4.71,3.109,4.71H88.966l-2.1-3.186-2.1,3.186H82.747l3.109-4.71-3.109-4.71h2.012l2.1,3.186Zm6.8,9.633a6.211,6.211,0,0,1-2.157-.3,2.126,2.126,0,0,1-1.158-.953,3.577,3.577,0,0,1-.358-1.73,4.023,4.023,0,0,1,.358-1.882,1.953,1.953,0,0,1,1.143-.93,7.007,7.007,0,0,1,2.172-.267h1.92v-.335a2.451,2.451,0,0,0-.16-.991.932.932,0,0,0-.572-.5,3.761,3.761,0,0,0-1.189-.145,2.834,2.834,0,0,0-.975.13.982.982,0,0,0-.518.465,4.458,4.458,0,0,0-.351,1.021l-1.677-.412a6.121,6.121,0,0,1,.686-1.738,2.5,2.5,0,0,1,1.1-.968,4.2,4.2,0,0,1,1.738-.312,3.9,3.9,0,0,1,2.827.846,3.539,3.539,0,0,1,.846,2.6v3.567a1.8,1.8,0,0,0,.122.823.566.566,0,0,0,.518.2q.122,0,.549-.03v1.616q-.183.015-.5.015a2.274,2.274,0,0,1-1.829-.61,2.307,2.307,0,0,1-1.021.633A5.124,5.124,0,0,1,95.764,117.469Zm0-1.616a3.032,3.032,0,0,0,1.189-.183,1.04,1.04,0,0,0,.572-.625,3.946,3.946,0,0,0,.16-1.28v-.747h-1.92a6.259,6.259,0,0,0-1.235.084.73.73,0,0,0-.518.381,2.354,2.354,0,0,0-.152,1,1.834,1.834,0,0,0,.152.846.882.882,0,0,0,.556.4A4.412,4.412,0,0,0,95.764,115.853Zm5.182,1.4v-9.42H102.7v-.061q.122-.03.457-.091a3.368,3.368,0,0,1,.594-.061,2.156,2.156,0,0,1,.945.168,1.791,1.791,0,0,1,.64.61,1.991,1.991,0,0,1,1.738-.777,2.247,2.247,0,0,1,1.372.366,2.086,2.086,0,0,1,.7,1.2,9.924,9.924,0,0,1,.213,2.332v5.731h-1.753v-5.731a8.122,8.122,0,0,0-.114-1.669q-.114-.465-.419-.465a.834.834,0,0,0-.815.427,3.7,3.7,0,0,0-.221,1.539v5.9h-1.753v-5.64a8.3,8.3,0,0,0-.122-1.73q-.122-.5-.412-.5a.851.851,0,0,0-.823.427,3.59,3.59,0,0,0-.229,1.539v5.9Zm9.663,2.774V107.836h1.768v.091a6.207,6.207,0,0,1,2.027-.3,4.334,4.334,0,0,1,2.241.5,2.765,2.765,0,0,1,1.181,1.562,11.55,11.55,0,0,1,0,5.708,2.8,2.8,0,0,1-1.181,1.578,4.281,4.281,0,0,1-2.241.5,5.566,5.566,0,0,1-2.027-.366v2.926Zm3.8-4.176a2.115,2.115,0,0,0,1.227-.3,1.7,1.7,0,0,0,.617-1.014,8.461,8.461,0,0,0,.183-2,8.36,8.36,0,0,0-.183-2,1.657,1.657,0,0,0-.617-1,2.157,2.157,0,0,0-1.227-.3q-2.027,0-2.027.884v3.6a2.343,2.343,0,0,0,.473,1.616A2.019,2.019,0,0,0,114.4,115.853Zm10.608,1.616a3.5,3.5,0,0,1-1.654-.32,1.808,1.808,0,0,1-.838-1.067,6.88,6.88,0,0,1-.251-2.1v-7.3h-1.92v-1.616h3.673v8.917a3.487,3.487,0,0,0,.213,1.471.8.8,0,0,0,.777.4,1.171,1.171,0,0,0,.587-.183,7.161,7.161,0,0,0,.876-.655l.975,1.494a4.673,4.673,0,0,1-1.2.754A3.4,3.4,0,0,1,125.013,117.469Zm7.621-1.616a2.513,2.513,0,0,0,1.3-.312,3.87,3.87,0,0,0,1.09-1.105l1.4.93a5.025,5.025,0,0,1-1.608,1.646,4.473,4.473,0,0,1-2.187.457,5.225,5.225,0,0,1-2.416-.457,2.612,2.612,0,0,1-1.235-1.509,11.894,11.894,0,0,1,0-5.914,2.612,2.612,0,0,1,1.235-1.509,5.225,5.225,0,0,1,2.416-.457,4.717,4.717,0,0,1,2.37.5,2.785,2.785,0,0,1,1.212,1.654,11.266,11.266,0,0,1,.366,3.247h-6.2a5.674,5.674,0,0,0,.274,1.692,1.6,1.6,0,0,0,.7.876A2.609,2.609,0,0,0,132.634,115.853Zm0-6.615a2.283,2.283,0,0,0-1.616.48,2.612,2.612,0,0,0-.61,1.684h4.374a3.423,3.423,0,0,0-.2-1.3,1.212,1.212,0,0,0-.663-.663A3.372,3.372,0,0,0,132.634,109.238Zm13.047-4.176v1.616h-5.7V110h3.658v1.616h-3.658v4.024h5.7v1.616h-7.453V105.062Zm7.3,2.774h2.012l-3.109,4.71,3.109,4.71h-2.012l-2.1-3.186-2.1,3.186h-2.012l3.109-4.71-3.109-4.71h2.012l2.1,3.186Zm3.353,12.194V107.836H158.1v.091a6.207,6.207,0,0,1,2.027-.3,4.334,4.334,0,0,1,2.241.5,2.765,2.765,0,0,1,1.181,1.562,11.55,11.55,0,0,1,0,5.708,2.8,2.8,0,0,1-1.181,1.578,4.281,4.281,0,0,1-2.241.5,5.566,5.566,0,0,1-2.027-.366v2.926Zm3.8-4.176a2.115,2.115,0,0,0,1.227-.3,1.7,1.7,0,0,0,.617-1.014,8.46,8.46,0,0,0,.183-2,8.359,8.359,0,0,0-.183-2,1.657,1.657,0,0,0-.617-1,2.157,2.157,0,0,0-1.227-.3q-2.027,0-2.027.884v3.6a2.343,2.343,0,0,0,.472,1.616A2.019,2.019,0,0,0,160.131,115.853Zm9.084,0a2.513,2.513,0,0,0,1.3-.312,3.87,3.87,0,0,0,1.09-1.105l1.4.93a5.025,5.025,0,0,1-1.608,1.646,4.473,4.473,0,0,1-2.187.457,5.225,5.225,0,0,1-2.416-.457,2.612,2.612,0,0,1-1.235-1.509,11.894,11.894,0,0,1,0-5.914,2.612,2.612,0,0,1,1.235-1.509,5.225,5.225,0,0,1,2.416-.457,4.717,4.717,0,0,1,2.37.5,2.785,2.785,0,0,1,1.212,1.654,11.266,11.266,0,0,1,.366,3.247h-6.2a5.675,5.675,0,0,0,.274,1.692,1.6,1.6,0,0,0,.7.876A2.609,2.609,0,0,0,169.215,115.853Zm0-6.615a2.283,2.283,0,0,0-1.616.48,2.612,2.612,0,0,0-.61,1.684h4.374a3.423,3.423,0,0,0-.2-1.3,1.212,1.212,0,0,0-.663-.663A3.372,3.372,0,0,0,169.215,109.238Zm5.533,8.017v-9.42H176.5v.229a5.311,5.311,0,0,1,2.241-.442,4.533,4.533,0,0,1,2,.358,2.063,2.063,0,0,1,1.014,1.2,7.324,7.324,0,0,1,.3,2.385v5.685H180.3V111.57a5.291,5.291,0,0,0-.145-1.41,1.208,1.208,0,0,0-.473-.709,1.718,1.718,0,0,0-.937-.213,4.436,4.436,0,0,0-1.456.175,1,1,0,0,0-.625.617,4.329,4.329,0,0,0-.16,1.372v5.853Zm12.331.213a3.789,3.789,0,0,1-2-.457,3.959,3.959,0,0,1-1.334-1.616l1.387-1.143a6.436,6.436,0,0,0,.526,1.021,1.2,1.2,0,0,0,.541.45,2.424,2.424,0,0,0,.884.13,7.656,7.656,0,0,0,1.585-.122,1.175,1.175,0,0,0,.732-.4,1.411,1.411,0,0,0,.2-.815,1.455,1.455,0,0,0-.16-.777.986.986,0,0,0-.572-.366,9.772,9.772,0,0,0-1.387-.244,6,6,0,0,1-2.667-.815,2.118,2.118,0,0,1-.823-1.852,3.092,3.092,0,0,1,.381-1.639,2.215,2.215,0,0,1,1.219-.907,7.111,7.111,0,0,1,2.256-.29,4.515,4.515,0,0,1,2.088.4,3.681,3.681,0,0,1,1.357,1.4l-1.28,1.25a5.613,5.613,0,0,0-.579-.915,1.286,1.286,0,0,0-.594-.4,3.343,3.343,0,0,0-.991-.114,6.111,6.111,0,0,0-1.318.107.959.959,0,0,0-.617.366,1.378,1.378,0,0,0-.168.747.745.745,0,0,0,.183.549,1.16,1.16,0,0,0,.549.274q.366.091,1.128.2a10.766,10.766,0,0,1,2.248.526,2.257,2.257,0,0,1,1.158.9,3.079,3.079,0,0,1,.358,1.608,3.116,3.116,0,0,1-.419,1.715,2.4,2.4,0,0,1-1.357.945A8.552,8.552,0,0,1,187.079,117.469Zm10.807-9.633v7.8h2.667v1.616h-7.088V115.64h2.667v-6.188h-1.921v-1.616Zm-1.2-1.372a1.537,1.537,0,0,1-1.044-.267,1.855,1.855,0,0,1,0-1.966,1.537,1.537,0,0,1,1.044-.267,1.569,1.569,0,0,1,1.052.267,1.813,1.813,0,0,1,0,1.966A1.569,1.569,0,0,1,196.681,106.464Zm9.846,10.791h-1.585l-3.384-9.42h1.814l2.363,6.813,2.408-6.813h1.8Zm8.414-1.4a2.513,2.513,0,0,0,1.3-.312,3.87,3.87,0,0,0,1.09-1.105l1.4.93a5.025,5.025,0,0,1-1.608,1.646,4.473,4.473,0,0,1-2.187.457,5.225,5.225,0,0,1-2.416-.457,2.612,2.612,0,0,1-1.235-1.509,11.894,11.894,0,0,1,0-5.914,2.612,2.612,0,0,1,1.235-1.509,5.225,5.225,0,0,1,2.416-.457,4.717,4.717,0,0,1,2.37.5,2.785,2.785,0,0,1,1.212,1.654,11.266,11.266,0,0,1,.366,3.247h-6.2a5.674,5.674,0,0,0,.274,1.692,1.6,1.6,0,0,0,.7.876A2.609,2.609,0,0,0,214.941,115.853Zm0-6.615a2.283,2.283,0,0,0-1.616.48,2.612,2.612,0,0,0-.61,1.684h4.374a3.423,3.423,0,0,0-.2-1.3,1.213,1.213,0,0,0-.663-.663A3.372,3.372,0,0,0,214.941,109.238ZM228,105.062v1.616h-5.7V110.7h3.643v1.616H222.3v4.938H220.55V105.062Zm4.923,12.407a4.258,4.258,0,0,1-1.951-.373,2.181,2.181,0,0,1-1.036-1.212,6.591,6.591,0,0,1-.32-2.286v-5.761h1.753V113.6a5.758,5.758,0,0,0,.13,1.418,1.009,1.009,0,0,0,.457.655,2.032,2.032,0,0,0,.968.183,4.846,4.846,0,0,0,1.41-.152,1.028,1.028,0,0,0,.648-.541,2.808,2.808,0,0,0,.183-1.151v-6.173h1.768v9.42h-1.768V117.1A5.49,5.49,0,0,1,232.927,117.469Zm5.838-.213v-9.42h1.753v.229a5.311,5.311,0,0,1,2.241-.442,4.533,4.533,0,0,1,2,.358,2.063,2.063,0,0,1,1.014,1.2,7.324,7.324,0,0,1,.3,2.385v5.685h-1.768V111.57a5.291,5.291,0,0,0-.145-1.41,1.208,1.208,0,0,0-.473-.709,1.718,1.718,0,0,0-.937-.213,4.436,4.436,0,0,0-1.456.175,1,1,0,0,0-.625.617,4.328,4.328,0,0,0-.16,1.372v5.853Zm12.986.213a4.943,4.943,0,0,1-2.408-.5,2.815,2.815,0,0,1-1.273-1.562,10.757,10.757,0,0,1,0-5.731,2.8,2.8,0,0,1,1.288-1.562,5.112,5.112,0,0,1,2.454-.5,4.117,4.117,0,0,1,2.119.472,4.789,4.789,0,0,1,1.524,1.677l-1.463.869a6.207,6.207,0,0,0-.655-.884,1.5,1.5,0,0,0-.617-.4,3.691,3.691,0,0,0-2.363.183,1.618,1.618,0,0,0-.716,1,9.938,9.938,0,0,0,0,4.024,1.65,1.65,0,0,0,.693,1,2.753,2.753,0,0,0,1.418.3,2.856,2.856,0,0,0,.907-.122,1.7,1.7,0,0,0,.655-.419,6.029,6.029,0,0,0,.694-.892l1.448.884A4.964,4.964,0,0,1,253.892,117,4.2,4.2,0,0,1,251.751,117.469Zm9.862,0a3.6,3.6,0,0,1-1.783-.381,2.235,2.235,0,0,1-.983-1.212,6.336,6.336,0,0,1-.312-2.187v-4.42h-1.89v-1.616h1.89v-2.591h1.753v2.591h3.155v1.616h-3.155v4.42a5.484,5.484,0,0,0,.122,1.318,1.083,1.083,0,0,0,.4.655,1.422,1.422,0,0,0,.8.191,3.1,3.1,0,0,0,.815-.076.6.6,0,0,0,.366-.274,3.763,3.763,0,0,0,.267-.686l1.646.564a3.5,3.5,0,0,1-.594,1.242,2.038,2.038,0,0,1-.953.648A4.956,4.956,0,0,1,261.612,117.469Zm9.435-9.633v7.8h2.667v1.616h-7.088V115.64h2.667v-6.188h-1.921v-1.616Zm-1.2-1.372a1.537,1.537,0,0,1-1.044-.267,1.855,1.855,0,0,1,0-1.966,1.537,1.537,0,0,1,1.044-.267,1.569,1.569,0,0,1,1.052.267,1.814,1.814,0,0,1,0,1.966A1.569,1.569,0,0,1,269.843,106.464Zm9.069,11a4.239,4.239,0,0,1-2.233-.5,2.812,2.812,0,0,1-1.174-1.57,11.52,11.52,0,0,1,0-5.7,2.812,2.812,0,0,1,1.174-1.57,5.225,5.225,0,0,1,4.474,0,2.8,2.8,0,0,1,1.181,1.57,11.519,11.519,0,0,1,0,5.7,2.8,2.8,0,0,1-1.181,1.57A4.281,4.281,0,0,1,278.912,117.469Zm0-1.616a2.157,2.157,0,0,0,1.227-.3,1.662,1.662,0,0,0,.617-1.006,11.072,11.072,0,0,0,0-4.009,1.662,1.662,0,0,0-.617-1.006,2.157,2.157,0,0,0-1.227-.3,2.119,2.119,0,0,0-1.219.3,1.679,1.679,0,0,0-.61,1.006,11.072,11.072,0,0,0,0,4.009,1.679,1.679,0,0,0,.61,1.006A2.119,2.119,0,0,0,278.912,115.853Zm5.579,1.4v-9.42h1.753v.229a5.311,5.311,0,0,1,2.241-.442,4.533,4.533,0,0,1,2,.358,2.063,2.063,0,0,1,1.014,1.2,7.324,7.324,0,0,1,.3,2.385v5.685h-1.768V111.57a5.291,5.291,0,0,0-.145-1.41,1.208,1.208,0,0,0-.473-.709,1.718,1.718,0,0,0-.937-.213,4.435,4.435,0,0,0-1.456.175,1,1,0,0,0-.625.617,4.328,4.328,0,0,0-.16,1.372v5.853Zm15.349,2.21a3.957,3.957,0,0,1-2.7-1.036,6.651,6.651,0,0,1-1.814-2.919,15.11,15.11,0,0,1,0-8.7,6.651,6.651,0,0,1,1.814-2.919,3.957,3.957,0,0,1,2.7-1.036v1.616a2.358,2.358,0,0,0-1.776.831,5.661,5.661,0,0,0-1.2,2.347,14.673,14.673,0,0,0,0,7.027,5.661,5.661,0,0,0,1.2,2.347,2.358,2.358,0,0,0,1.776.831Zm3.887-1.616a2.358,2.358,0,0,0,1.776-.831,5.66,5.66,0,0,0,1.2-2.347,14.674,14.674,0,0,0,0-7.027,5.661,5.661,0,0,0-1.2-2.347,2.358,2.358,0,0,0-1.776-.831v-1.616a3.957,3.957,0,0,1,2.7,1.036,6.65,6.65,0,0,1,1.814,2.919,15.11,15.11,0,0,1,0,8.7,6.65,6.65,0,0,1-1.814,2.919,3.957,3.957,0,0,1-2.7,1.036Zm10.014,2.393a13.008,13.008,0,0,0,1.075-1.661,2.478,2.478,0,0,0,.3-1.1.956.956,0,0,1-.793-.274,1.751,1.751,0,0,1-.213-1.021,1.373,1.373,0,0,1,.3-1.014,2.247,2.247,0,0,1,2.18,0,1.372,1.372,0,0,1,.3,1.014,4.9,4.9,0,0,1-.389,2,8.692,8.692,0,0,1-1.41,2.05Zm1.753-10.075a1.6,1.6,0,0,1-1.09-.282,1.347,1.347,0,0,1-.3-1,1.372,1.372,0,0,1,.3-1.014,2.247,2.247,0,0,1,2.18,0,1.372,1.372,0,0,1,.3,1.014,1.347,1.347,0,0,1-.3,1A1.6,1.6,0,0,1,315.493,110.168ZM37.935,142.984a5.689,5.689,0,0,0,1.524-.16,1.366,1.366,0,0,0,.793-.526,1.828,1.828,0,0,0,.244-1.021,6.07,6.07,0,0,0-.152-1.28,4.753,4.753,0,0,1-.122-.93,2.664,2.664,0,0,1,.4-1.4,5.284,5.284,0,0,1,1.3-1.357,5.309,5.309,0,0,1-1.288-1.379,2.77,2.77,0,0,1-.4-1.44,3.987,3.987,0,0,1,.137-.945,5.1,5.1,0,0,0,.152-1.174,1.9,1.9,0,0,0-.244-1.044,1.355,1.355,0,0,0-.8-.533,5.778,5.778,0,0,0-1.532-.16V128a5.413,5.413,0,0,1,3.285.793,2.975,2.975,0,0,1,1.029,2.515,7.529,7.529,0,0,1-.152,1.4,6.2,6.2,0,0,0-.122.93,1.743,1.743,0,0,0,.533.93q.533.61,1.722,1.738-1.174,1.1-1.715,1.707a1.759,1.759,0,0,0-.541.9,8.018,8.018,0,0,0,.122,1.036,8.2,8.2,0,0,1,.152,1.372,2.953,2.953,0,0,1-1.029,2.507,5.453,5.453,0,0,1-3.285.785ZM1.354,168.134a5.688,5.688,0,0,0,1.524-.16,1.366,1.366,0,0,0,.793-.526,1.828,1.828,0,0,0,.244-1.021,6.07,6.07,0,0,0-.152-1.28,4.754,4.754,0,0,1-.122-.93,2.664,2.664,0,0,1,.4-1.4,5.285,5.285,0,0,1,1.3-1.357,5.309,5.309,0,0,1-1.288-1.379,2.77,2.77,0,0,1-.4-1.44,3.987,3.987,0,0,1,.137-.945,5.1,5.1,0,0,0,.152-1.174,1.9,1.9,0,0,0-.244-1.044,1.355,1.355,0,0,0-.8-.533,5.778,5.778,0,0,0-1.532-.16v-1.631a5.413,5.413,0,0,1,3.285.793,2.975,2.975,0,0,1,1.029,2.515,7.529,7.529,0,0,1-.152,1.4,6.2,6.2,0,0,0-.122.93,1.743,1.743,0,0,0,.533.93q.533.61,1.722,1.738-1.174,1.1-1.715,1.707a1.759,1.759,0,0,0-.541.9,8.018,8.018,0,0,0,.122,1.036,8.2,8.2,0,0,1,.152,1.372,2.953,2.953,0,0,1-1.029,2.507,5.453,5.453,0,0,1-3.285.785Z" transform="translate(641.637 23693.746)" fill="#12263f"/>
  </g>
</svg>
