<svg xmlns="http://www.w3.org/2000/svg" width="610" height="213" viewBox="0 0 610 213">
  <g id="Grupo_167877" data-name="Grupo 167877" transform="translate(-810 -25667)">
    <g id="Rectángulo_342041" data-name="Rectángulo 342041" transform="translate(810 25667)" fill="#8979f3" stroke="#707070" stroke-width="1" opacity="0.25">
      <rect width="610" height="213" rx="25" stroke="none"/>
      <rect x="0.5" y="0.5" width="609" height="212" rx="24.5" fill="none"/>
    </g>
    <path id="Trazado_688218" data-name="Trazado 688218" d="M5.5,17.15H3.863L.364,7.409H2.239l2.443,7.046,2.49-7.046h1.86Zm8.653.221a4.383,4.383,0,0,1-2.309-.52,2.908,2.908,0,0,1-1.214-1.624,9.525,9.525,0,0,1-.37-2.948,9.525,9.525,0,0,1,.37-2.948,2.908,2.908,0,0,1,1.214-1.624,4.383,4.383,0,0,1,2.309-.52,4.427,4.427,0,0,1,2.317.52,2.9,2.9,0,0,1,1.222,1.624,9.525,9.525,0,0,1,.37,2.948,9.525,9.525,0,0,1-.37,2.948,2.9,2.9,0,0,1-1.222,1.624A4.427,4.427,0,0,1,14.156,17.371Zm0-1.671a2.231,2.231,0,0,0,1.269-.307,1.719,1.719,0,0,0,.638-1.04,8.75,8.75,0,0,0,.189-2.073,8.75,8.75,0,0,0-.189-2.073,1.719,1.719,0,0,0-.638-1.04,2.231,2.231,0,0,0-1.269-.307,2.191,2.191,0,0,0-1.261.307,1.736,1.736,0,0,0-.63,1.04,8.75,8.75,0,0,0-.189,2.073,8.75,8.75,0,0,0,.189,2.073,1.736,1.736,0,0,0,.63,1.04A2.191,2.191,0,0,0,14.156,15.7ZM24.937,7.409v8.07H27.7V17.15H20.366V15.479h2.758V9.08H21.138V7.409ZM23.692,5.99a1.589,1.589,0,0,1-1.08-.276A1.382,1.382,0,0,1,22.32,4.7a1.382,1.382,0,0,1,.292-1.017,1.589,1.589,0,0,1,1.08-.276,1.623,1.623,0,0,1,1.088.276,1.358,1.358,0,0,1,.3,1.017,1.358,1.358,0,0,1-.3,1.017A1.623,1.623,0,0,1,23.692,5.99Zm9.3,11.38a4.438,4.438,0,0,1-2.309-.512,2.871,2.871,0,0,1-1.214-1.616A9.525,9.525,0,0,1,29.1,12.3a9.589,9.589,0,0,1,.37-2.963,2.908,2.908,0,0,1,1.214-1.624,4.383,4.383,0,0,1,2.309-.52,5.882,5.882,0,0,1,2.112.378V4.54h1.813V17.15H35.1v-.11A6.19,6.19,0,0,1,32.991,17.371Zm0-1.671a3.924,3.924,0,0,0,1.6-.244.747.747,0,0,0,.512-.67v-3.72a2.4,2.4,0,0,0-.5-1.671,2.115,2.115,0,0,0-1.616-.536,2.149,2.149,0,0,0-1.261.315,1.774,1.774,0,0,0-.63,1.048,8.75,8.75,0,0,0-.189,2.073A8.646,8.646,0,0,0,31.1,14.36a1.731,1.731,0,0,0,.63,1.032A2.191,2.191,0,0,0,32.991,15.7Zm18.994,1.671a4.37,4.37,0,0,1-2.278-.5,2.86,2.86,0,0,1-1.2-1.616,9.733,9.733,0,0,1-.37-2.987V4.54h1.813v7.724a9.3,9.3,0,0,0,.181,2.1,1.686,1.686,0,0,0,.615,1.032,2.163,2.163,0,0,0,1.237.3,2.2,2.2,0,0,0,1.245-.3,1.669,1.669,0,0,0,.623-1.032,9.3,9.3,0,0,0,.181-2.1V4.54h1.813v7.724a9.733,9.733,0,0,1-.37,2.987,2.848,2.848,0,0,1-1.206,1.616A4.414,4.414,0,0,1,51.985,17.371Zm5.643,2.648V7.409h1.828V7.5a6.419,6.419,0,0,1,2.1-.315A4.482,4.482,0,0,1,63.87,7.7a2.859,2.859,0,0,1,1.222,1.616,9.525,9.525,0,0,1,.37,2.948,9.6,9.6,0,0,1-.37,2.955A2.9,2.9,0,0,1,63.87,16.85a4.427,4.427,0,0,1-2.317.52,5.757,5.757,0,0,1-2.1-.378v3.026ZM61.553,15.7a2.188,2.188,0,0,0,1.269-.315,1.756,1.756,0,0,0,.638-1.048,8.749,8.749,0,0,0,.189-2.073A8.645,8.645,0,0,0,63.46,10.2a1.713,1.713,0,0,0-.638-1.032,2.231,2.231,0,0,0-1.269-.307q-2.1,0-2.1.914v3.72a2.423,2.423,0,0,0,.489,1.671A2.088,2.088,0,0,0,61.553,15.7Zm9.268,1.671a4.438,4.438,0,0,1-2.309-.512A2.871,2.871,0,0,1,67.3,15.243a9.525,9.525,0,0,1-.37-2.948,9.589,9.589,0,0,1,.37-2.963,2.908,2.908,0,0,1,1.214-1.624,4.383,4.383,0,0,1,2.309-.52,5.882,5.882,0,0,1,2.112.378V4.54h1.813V17.15H72.933v-.11A6.19,6.19,0,0,1,70.821,17.371Zm0-1.671a3.924,3.924,0,0,0,1.6-.244.747.747,0,0,0,.512-.67v-3.72a2.4,2.4,0,0,0-.5-1.671,2.115,2.115,0,0,0-1.616-.536,2.149,2.149,0,0,0-1.261.315,1.774,1.774,0,0,0-.63,1.048A8.749,8.749,0,0,0,68.74,12.3a8.645,8.645,0,0,0,.189,2.065,1.731,1.731,0,0,0,.63,1.032A2.191,2.191,0,0,0,70.821,15.7ZM80.1,17.371a6.423,6.423,0,0,1-2.23-.315,2.2,2.2,0,0,1-1.2-.985,3.7,3.7,0,0,1-.37-1.789,4.16,4.16,0,0,1,.37-1.947,2.02,2.02,0,0,1,1.182-.961A7.246,7.246,0,0,1,80.1,11.1h1.986V10.75a2.535,2.535,0,0,0-.166-1.025.964.964,0,0,0-.591-.512,3.889,3.889,0,0,0-1.229-.15A2.931,2.931,0,0,0,79.1,9.2a1.016,1.016,0,0,0-.536.481,4.61,4.61,0,0,0-.363,1.056l-1.734-.426a6.33,6.33,0,0,1,.709-1.8,2.58,2.58,0,0,1,1.135-1,4.346,4.346,0,0,1,1.8-.323,4.036,4.036,0,0,1,2.924.875A3.66,3.66,0,0,1,83.9,10.75v3.688a1.866,1.866,0,0,0,.126.851.585.585,0,0,0,.536.2q.126,0,.567-.032v1.671q-.189.016-.52.016a2.352,2.352,0,0,1-1.891-.63,2.386,2.386,0,0,1-1.056.654A5.3,5.3,0,0,1,80.1,17.371Zm0-1.671a3.135,3.135,0,0,0,1.229-.189,1.075,1.075,0,0,0,.591-.646,4.081,4.081,0,0,0,.166-1.324v-.772H80.1a6.472,6.472,0,0,0-1.277.087.755.755,0,0,0-.536.394,2.435,2.435,0,0,0-.158,1.032,1.9,1.9,0,0,0,.158.875.912.912,0,0,0,.575.418A4.563,4.563,0,0,0,80.1,15.7Zm10.734,1.671a3.724,3.724,0,0,1-1.844-.394,2.312,2.312,0,0,1-1.017-1.253,6.553,6.553,0,0,1-.323-2.262V8.89H85.7V7.22h1.955V4.54h1.813V7.22H92.73V8.89H89.468v4.571a5.671,5.671,0,0,0,.126,1.363,1.12,1.12,0,0,0,.418.678,1.471,1.471,0,0,0,.828.2,3.205,3.205,0,0,0,.843-.079.623.623,0,0,0,.378-.284,3.891,3.891,0,0,0,.276-.709l1.7.583a3.614,3.614,0,0,1-.615,1.285,2.108,2.108,0,0,1-.985.67A5.125,5.125,0,0,1,90.839,17.371Zm8.48-1.671a2.6,2.6,0,0,0,1.348-.323,4,4,0,0,0,1.127-1.143l1.45.961a5.2,5.2,0,0,1-1.663,1.7,4.626,4.626,0,0,1-2.262.473,5.4,5.4,0,0,1-2.5-.473,2.7,2.7,0,0,1-1.277-1.56,9.511,9.511,0,0,1-.386-3.058,9.511,9.511,0,0,1,.386-3.058,2.7,2.7,0,0,1,1.277-1.56,5.4,5.4,0,0,1,2.5-.473,4.878,4.878,0,0,1,2.451.512,2.88,2.88,0,0,1,1.253,1.71,11.65,11.65,0,0,1,.378,3.357H96.986a5.867,5.867,0,0,0,.284,1.75,1.658,1.658,0,0,0,.725.906A2.7,2.7,0,0,0,99.319,15.7Zm0-6.841a2.361,2.361,0,0,0-1.671.5,2.7,2.7,0,0,0-.63,1.742h4.524a3.539,3.539,0,0,0-.2-1.348,1.254,1.254,0,0,0-.686-.686A3.487,3.487,0,0,0,99.319,8.859Zm12.137,10.576a4.092,4.092,0,0,1-2.79-1.072,6.878,6.878,0,0,1-1.876-3.018,13.968,13.968,0,0,1-.662-4.5,13.968,13.968,0,0,1,.662-4.5,6.878,6.878,0,0,1,1.876-3.018,4.092,4.092,0,0,1,2.79-1.072V3.925a2.438,2.438,0,0,0-1.836.859,5.854,5.854,0,0,0-1.237,2.427,13.462,13.462,0,0,0-.441,3.633,13.462,13.462,0,0,0,.441,3.633,5.854,5.854,0,0,0,1.237,2.427,2.438,2.438,0,0,0,1.836.859Zm4.019-1.671a2.438,2.438,0,0,0,1.836-.859,5.854,5.854,0,0,0,1.237-2.427,13.463,13.463,0,0,0,.441-3.633,13.463,13.463,0,0,0-.441-3.633,5.854,5.854,0,0,0-1.237-2.427,2.438,2.438,0,0,0-1.836-.859V2.255a4.092,4.092,0,0,1,2.79,1.072,6.878,6.878,0,0,1,1.876,3.018,13.968,13.968,0,0,1,.662,4.5,13.968,13.968,0,0,1-.662,4.5,6.878,6.878,0,0,1-1.876,3.018,4.092,4.092,0,0,1-2.79,1.072ZM8.008,45.443a5.6,5.6,0,0,1-3.389-.812,3.064,3.064,0,0,1-1.056-2.593,8.483,8.483,0,0,1,.158-1.419,8.292,8.292,0,0,0,.126-1.072,1.762,1.762,0,0,0-.552-.914q-.552-.615-1.8-1.781,1.245-1.2,1.8-1.813a1.741,1.741,0,0,0,.552-.946,6.412,6.412,0,0,0-.126-.961,7.786,7.786,0,0,1-.158-1.45,3.087,3.087,0,0,1,1.056-2.6,5.56,5.56,0,0,1,3.389-.82v1.687a5.883,5.883,0,0,0-1.576.166,1.4,1.4,0,0,0-.82.552,1.966,1.966,0,0,0-.252,1.08,5.274,5.274,0,0,0,.158,1.214,4.123,4.123,0,0,1,.142.977,2.8,2.8,0,0,1-.426,1.474,5.843,5.843,0,0,1-1.34,1.442,5.607,5.607,0,0,1,1.348,1.4,2.716,2.716,0,0,1,.418,1.45,4.916,4.916,0,0,1-.126.961,6.277,6.277,0,0,0-.158,1.324,1.939,1.939,0,0,0,.244,1.056,1.376,1.376,0,0,0,.812.544,5.883,5.883,0,0,0,1.576.166Zm37.2,23.722-3.547-5.044H40.652v5.044H38.839V56.555h3.878A5.718,5.718,0,0,1,45,56.934a2.4,2.4,0,0,1,1.237,1.2,5.245,5.245,0,0,1,.386,2.207,6.137,6.137,0,0,1-.284,2.065,2.231,2.231,0,0,1-.914,1.166,3.951,3.951,0,0,1-1.687.5L47.3,69.165ZM40.652,58.226v4.224h2.065a4.3,4.3,0,0,0,1.324-.15.969.969,0,0,0,.6-.583,4,4,0,0,0,.173-1.379,3.624,3.624,0,0,0-.181-1.3,1.1,1.1,0,0,0-.623-.63,3.557,3.557,0,0,0-1.293-.181Zm11.38,9.489a2.6,2.6,0,0,0,1.348-.323,4,4,0,0,0,1.127-1.143l1.45.962a5.2,5.2,0,0,1-1.663,1.7,4.626,4.626,0,0,1-2.262.473,5.4,5.4,0,0,1-2.5-.473,2.7,2.7,0,0,1-1.277-1.56,9.511,9.511,0,0,1-.386-3.058,9.511,9.511,0,0,1,.386-3.058,2.7,2.7,0,0,1,1.277-1.56,5.4,5.4,0,0,1,2.5-.473,4.878,4.878,0,0,1,2.451.512,2.88,2.88,0,0,1,1.253,1.71,11.65,11.65,0,0,1,.378,3.357H49.7a5.867,5.867,0,0,0,.284,1.75,1.658,1.658,0,0,0,.725.906A2.7,2.7,0,0,0,52.032,67.715Zm0-6.841a2.361,2.361,0,0,0-1.671.5,2.7,2.7,0,0,0-.63,1.742h4.524a3.539,3.539,0,0,0-.2-1.348,1.254,1.254,0,0,0-.686-.686A3.487,3.487,0,0,0,52.032,60.874Zm5.722,8.291V59.424h1.813v.236a5.492,5.492,0,0,1,2.317-.457,4.688,4.688,0,0,1,2.073.37A2.134,2.134,0,0,1,65,60.819a7.574,7.574,0,0,1,.315,2.467v5.879H63.491V63.286a5.472,5.472,0,0,0-.15-1.458,1.249,1.249,0,0,0-.489-.733,1.777,1.777,0,0,0-.969-.221,4.587,4.587,0,0,0-1.505.181,1.04,1.04,0,0,0-.646.638,4.476,4.476,0,0,0-.166,1.419v6.053Zm13.067.221a4.438,4.438,0,0,1-2.309-.512A2.871,2.871,0,0,1,67.3,67.258a11.975,11.975,0,0,1,0-5.911,2.908,2.908,0,0,1,1.214-1.624,4.383,4.383,0,0,1,2.309-.52,5.882,5.882,0,0,1,2.112.378V56.555h1.813v12.61H72.933v-.11A6.19,6.19,0,0,1,70.821,69.386Zm0-1.671a3.924,3.924,0,0,0,1.6-.244.747.747,0,0,0,.512-.67v-3.72a2.4,2.4,0,0,0-.5-1.671,2.115,2.115,0,0,0-1.616-.536,2.149,2.149,0,0,0-1.261.315,1.774,1.774,0,0,0-.63,1.048,8.749,8.749,0,0,0-.189,2.073,8.645,8.645,0,0,0,.189,2.065,1.731,1.731,0,0,0,.63,1.032A2.191,2.191,0,0,0,70.821,67.715Zm9.583,0a2.6,2.6,0,0,0,1.348-.323,4,4,0,0,0,1.127-1.143l1.45.962a5.2,5.2,0,0,1-1.663,1.7,4.626,4.626,0,0,1-2.262.473,5.4,5.4,0,0,1-2.5-.473,2.7,2.7,0,0,1-1.277-1.56,9.511,9.511,0,0,1-.386-3.058,9.511,9.511,0,0,1,.386-3.058,2.7,2.7,0,0,1,1.277-1.56,5.4,5.4,0,0,1,2.5-.473,4.878,4.878,0,0,1,2.451.512,2.88,2.88,0,0,1,1.253,1.71,11.65,11.65,0,0,1,.378,3.357H78.072a5.867,5.867,0,0,0,.284,1.75,1.658,1.658,0,0,0,.725.906A2.7,2.7,0,0,0,80.4,67.715Zm0-6.841a2.361,2.361,0,0,0-1.671.5,2.7,2.7,0,0,0-.63,1.742h4.524a3.539,3.539,0,0,0-.2-1.348,1.254,1.254,0,0,0-.686-.686A3.487,3.487,0,0,0,80.4,60.874Zm6.147,8.291V59.424h1.813v.8a3.465,3.465,0,0,1,.977-.717,2.79,2.79,0,0,1,1.293-.307,4.036,4.036,0,0,1,1.513.244,2.534,2.534,0,0,1,1.032.788,5.323,5.323,0,0,1,.78,1.505l-1.624.741a5.648,5.648,0,0,0-.41-1.025A1.029,1.029,0,0,0,91.446,61a2.1,2.1,0,0,0-.812-.126,1.893,1.893,0,0,0-1.75.843,4.712,4.712,0,0,0-.52,2.451v5Zm12.767-1.45a2.6,2.6,0,0,0,1.348-.323,4,4,0,0,0,1.127-1.143l1.45.962a5.2,5.2,0,0,1-1.663,1.7,4.626,4.626,0,0,1-2.262.473,5.4,5.4,0,0,1-2.5-.473,2.7,2.7,0,0,1-1.277-1.56,9.511,9.511,0,0,1-.386-3.058,9.511,9.511,0,0,1,.386-3.058,2.7,2.7,0,0,1,1.277-1.56,5.4,5.4,0,0,1,2.5-.473,4.878,4.878,0,0,1,2.451.512,2.88,2.88,0,0,1,1.253,1.71,11.65,11.65,0,0,1,.378,3.357H96.986a5.867,5.867,0,0,0,.284,1.75,1.658,1.658,0,0,0,.725.906A2.7,2.7,0,0,0,99.319,67.715Zm0-6.841a2.361,2.361,0,0,0-1.671.5,2.7,2.7,0,0,0-.63,1.742h4.524a3.539,3.539,0,0,0-.2-1.348,1.254,1.254,0,0,0-.686-.686A3.487,3.487,0,0,0,99.319,60.874Zm6.147,8.291V59.424h1.813v.8a3.465,3.465,0,0,1,.977-.717,2.79,2.79,0,0,1,1.293-.307,4.036,4.036,0,0,1,1.513.244,2.534,2.534,0,0,1,1.032.788,5.323,5.323,0,0,1,.78,1.505l-1.624.741a5.647,5.647,0,0,0-.41-1.025A1.029,1.029,0,0,0,110.36,61a2.1,2.1,0,0,0-.812-.126,1.893,1.893,0,0,0-1.75.843,4.712,4.712,0,0,0-.52,2.451v5Zm17.827,0V59.424h1.813v-.063q.126-.032.473-.095a3.482,3.482,0,0,1,.615-.063,2.229,2.229,0,0,1,.977.173,1.852,1.852,0,0,1,.662.63,2.059,2.059,0,0,1,1.8-.8,2.324,2.324,0,0,1,1.419.378,2.157,2.157,0,0,1,.725,1.245,10.262,10.262,0,0,1,.221,2.412v5.927h-1.813V63.239a8.4,8.4,0,0,0-.118-1.726q-.118-.481-.433-.481a.862.862,0,0,0-.843.441,3.828,3.828,0,0,0-.229,1.592v6.1h-1.813V63.333a8.586,8.586,0,0,0-.126-1.789q-.126-.512-.426-.512a.88.88,0,0,0-.851.441,3.713,3.713,0,0,0-.236,1.592v6.1Zm11.191,3.089a3.2,3.2,0,0,1-1.072-.158,4.185,4.185,0,0,1-.977-.536l.725-1.529a8.323,8.323,0,0,0,.82.457,1.27,1.27,0,0,0,.5.095,2.233,2.233,0,0,0,.914-.158,1.48,1.48,0,0,0,.607-.544,4.873,4.873,0,0,0,.512-1.143l-3.263-9.315h1.891l2.333,6.935,2.364-6.935h1.907l-3.389,9.442a8.639,8.639,0,0,1-.962,2.018,3.032,3.032,0,0,1-1.19,1.048A4.048,4.048,0,0,1,134.485,72.255Zm14.753-3.089-3.547-5.044h-1.009v5.044H142.87V56.555h3.878a5.718,5.718,0,0,1,2.286.378,2.4,2.4,0,0,1,1.237,1.2,5.245,5.245,0,0,1,.386,2.207,6.137,6.137,0,0,1-.284,2.065,2.231,2.231,0,0,1-.914,1.166,3.951,3.951,0,0,1-1.687.5l3.562,5.091Zm-4.555-10.939v4.224h2.065a4.3,4.3,0,0,0,1.324-.15.969.969,0,0,0,.6-.583,4,4,0,0,0,.173-1.379,3.624,3.624,0,0,0-.181-1.3,1.1,1.1,0,0,0-.623-.63,3.557,3.557,0,0,0-1.293-.181Zm11.38,9.489a2.6,2.6,0,0,0,1.348-.323,4,4,0,0,0,1.127-1.143l1.45.962a5.2,5.2,0,0,1-1.663,1.7,4.626,4.626,0,0,1-2.262.473,5.4,5.4,0,0,1-2.5-.473,2.7,2.7,0,0,1-1.277-1.56,9.511,9.511,0,0,1-.386-3.058,9.511,9.511,0,0,1,.386-3.058,2.7,2.7,0,0,1,1.277-1.56,5.4,5.4,0,0,1,2.5-.473,4.878,4.878,0,0,1,2.451.512,2.88,2.88,0,0,1,1.253,1.71,11.65,11.65,0,0,1,.378,3.357H153.73a5.868,5.868,0,0,0,.284,1.75,1.658,1.658,0,0,0,.725.906A2.7,2.7,0,0,0,156.063,67.715Zm0-6.841a2.361,2.361,0,0,0-1.671.5,2.7,2.7,0,0,0-.63,1.742h4.524a3.54,3.54,0,0,0-.2-1.348,1.254,1.254,0,0,0-.686-.686A3.487,3.487,0,0,0,156.063,60.874Zm5.722,8.291V59.424H163.6v.236a5.492,5.492,0,0,1,2.317-.457,4.688,4.688,0,0,1,2.073.37,2.134,2.134,0,0,1,1.048,1.245,7.574,7.574,0,0,1,.315,2.467v5.879h-1.828V63.286a5.472,5.472,0,0,0-.15-1.458,1.249,1.249,0,0,0-.489-.733,1.777,1.777,0,0,0-.969-.221,4.587,4.587,0,0,0-1.505.181,1.04,1.04,0,0,0-.646.638,4.476,4.476,0,0,0-.166,1.419v6.053Zm13.067.221a4.438,4.438,0,0,1-2.309-.512,2.871,2.871,0,0,1-1.214-1.616,11.976,11.976,0,0,1,0-5.911,2.908,2.908,0,0,1,1.214-1.624,4.383,4.383,0,0,1,2.309-.52,5.882,5.882,0,0,1,2.112.378V56.555h1.813v12.61h-1.813v-.11A6.19,6.19,0,0,1,174.852,69.386Zm0-1.671a3.924,3.924,0,0,0,1.6-.244.747.747,0,0,0,.512-.67v-3.72a2.4,2.4,0,0,0-.5-1.671,2.115,2.115,0,0,0-1.616-.536,2.149,2.149,0,0,0-1.261.315,1.774,1.774,0,0,0-.63,1.048,8.75,8.75,0,0,0-.189,2.073,8.646,8.646,0,0,0,.189,2.065,1.731,1.731,0,0,0,.63,1.032A2.191,2.191,0,0,0,174.852,67.715Zm9.583,0a2.6,2.6,0,0,0,1.348-.323,4,4,0,0,0,1.127-1.143l1.45.962a5.2,5.2,0,0,1-1.663,1.7,4.626,4.626,0,0,1-2.262.473,5.4,5.4,0,0,1-2.5-.473,2.7,2.7,0,0,1-1.277-1.56,9.512,9.512,0,0,1-.386-3.058,9.512,9.512,0,0,1,.386-3.058,2.7,2.7,0,0,1,1.277-1.56,5.4,5.4,0,0,1,2.5-.473,4.878,4.878,0,0,1,2.451.512,2.88,2.88,0,0,1,1.253,1.71,11.651,11.651,0,0,1,.378,3.357H182.1a5.868,5.868,0,0,0,.284,1.75,1.658,1.658,0,0,0,.725.906A2.7,2.7,0,0,0,184.435,67.715Zm0-6.841a2.361,2.361,0,0,0-1.671.5,2.7,2.7,0,0,0-.63,1.742h4.524a3.54,3.54,0,0,0-.2-1.348,1.254,1.254,0,0,0-.686-.686A3.487,3.487,0,0,0,184.435,60.874Zm6.147,8.291V59.424H192.4v.8a3.466,3.466,0,0,1,.977-.717,2.79,2.79,0,0,1,1.292-.307,4.036,4.036,0,0,1,1.513.244,2.534,2.534,0,0,1,1.032.788,5.322,5.322,0,0,1,.78,1.505l-1.624.741a5.649,5.649,0,0,0-.41-1.025,1.029,1.029,0,0,0-.481-.457,2.1,2.1,0,0,0-.812-.126,1.893,1.893,0,0,0-1.75.843,4.712,4.712,0,0,0-.52,2.451v5Zm12.767-1.45a2.6,2.6,0,0,0,1.348-.323,4,4,0,0,0,1.127-1.143l1.45.962a5.2,5.2,0,0,1-1.663,1.7,4.626,4.626,0,0,1-2.262.473,5.4,5.4,0,0,1-2.5-.473,2.7,2.7,0,0,1-1.277-1.56,9.512,9.512,0,0,1-.386-3.058,9.512,9.512,0,0,1,.386-3.058,2.7,2.7,0,0,1,1.277-1.56,5.4,5.4,0,0,1,2.5-.473,4.878,4.878,0,0,1,2.451.512,2.88,2.88,0,0,1,1.253,1.71,11.65,11.65,0,0,1,.378,3.357h-6.415a5.868,5.868,0,0,0,.284,1.75,1.658,1.658,0,0,0,.725.906A2.7,2.7,0,0,0,203.35,67.715Zm0-6.841a2.361,2.361,0,0,0-1.671.5,2.7,2.7,0,0,0-.63,1.742h4.524a3.54,3.54,0,0,0-.2-1.348,1.254,1.254,0,0,0-.686-.686A3.487,3.487,0,0,0,203.35,60.874Zm6.147,8.291V59.424h1.813v.8a3.466,3.466,0,0,1,.977-.717,2.79,2.79,0,0,1,1.292-.307,4.036,4.036,0,0,1,1.513.244,2.534,2.534,0,0,1,1.032.788,5.323,5.323,0,0,1,.78,1.505l-1.624.741a5.648,5.648,0,0,0-.41-1.025,1.029,1.029,0,0,0-.481-.457,2.1,2.1,0,0,0-.812-.126,1.893,1.893,0,0,0-1.75.843,4.712,4.712,0,0,0-.52,2.451v5ZM236.246,61.8H227.1V60.134h9.142Zm0,3.783H227.1V63.916h9.142Zm14.643,3.8a5.02,5.02,0,0,1-2.672-.6,3.348,3.348,0,0,1-1.363-2,14.657,14.657,0,0,1-.41-3.925,14.658,14.658,0,0,1,.41-3.925,3.348,3.348,0,0,1,1.363-2,5.02,5.02,0,0,1,2.672-.6,5.074,5.074,0,0,1,2.018.339,2.739,2.739,0,0,1,1.253,1.135,8.074,8.074,0,0,1,.827,2.23l-1.734.426a6.109,6.109,0,0,0-.528-1.482,1.815,1.815,0,0,0-.725-.749,2.374,2.374,0,0,0-1.111-.229,2.5,2.5,0,0,0-1.584.441,2.565,2.565,0,0,0-.8,1.482,13.542,13.542,0,0,0-.244,2.932,13.446,13.446,0,0,0,.244,2.916,2.607,2.607,0,0,0,.8,1.49,2.472,2.472,0,0,0,1.584.449,2.09,2.09,0,0,0,1.308-.347,2.708,2.708,0,0,0,.757-1.277V64.058h-2.727V62.388h4.555v3.956a6.481,6.481,0,0,1-.851,1.828,2.67,2.67,0,0,1-1.19.93A5.1,5.1,0,0,1,250.889,69.386Zm9.205-1.671a2.6,2.6,0,0,0,1.348-.323,4,4,0,0,0,1.127-1.143l1.45.962a5.2,5.2,0,0,1-1.663,1.7,4.626,4.626,0,0,1-2.262.473,5.4,5.4,0,0,1-2.5-.473,2.7,2.7,0,0,1-1.277-1.56,9.512,9.512,0,0,1-.386-3.058,9.512,9.512,0,0,1,.386-3.058,2.7,2.7,0,0,1,1.277-1.56,5.4,5.4,0,0,1,2.5-.473,4.878,4.878,0,0,1,2.451.512,2.88,2.88,0,0,1,1.253,1.71,11.651,11.651,0,0,1,.378,3.357h-6.415a5.867,5.867,0,0,0,.284,1.75,1.658,1.658,0,0,0,.725.906A2.7,2.7,0,0,0,260.094,67.715Zm0-6.841a2.361,2.361,0,0,0-1.671.5,2.7,2.7,0,0,0-.63,1.742h4.524a3.54,3.54,0,0,0-.2-1.348,1.254,1.254,0,0,0-.686-.686A3.487,3.487,0,0,0,260.094,60.874Zm10.435,8.512a3.724,3.724,0,0,1-1.844-.394,2.312,2.312,0,0,1-1.017-1.253,6.553,6.553,0,0,1-.323-2.262V60.906H265.39V59.235h1.954v-2.68h1.813v2.68h3.263v1.671h-3.263v4.571a5.672,5.672,0,0,0,.126,1.363,1.12,1.12,0,0,0,.418.678,1.471,1.471,0,0,0,.828.2,3.2,3.2,0,0,0,.843-.079.624.624,0,0,0,.378-.284,3.892,3.892,0,0,0,.276-.709l1.7.583a3.614,3.614,0,0,1-.615,1.285,2.108,2.108,0,0,1-.985.67A5.125,5.125,0,0,1,270.529,69.386Zm8.669,0a4.374,4.374,0,0,1-2.553-.654,3.66,3.66,0,0,1-1.34-2.065,14.218,14.218,0,0,1-.41-3.822,14.143,14.143,0,0,1,.41-3.807,3.621,3.621,0,0,1,1.34-2.057,4.414,4.414,0,0,1,2.553-.646,4.818,4.818,0,0,1,1.876.315,2.752,2.752,0,0,1,1.222,1.032,6.871,6.871,0,0,1,.828,1.962l-1.718.6a7.309,7.309,0,0,0-.52-1.411,1.444,1.444,0,0,0-.63-.646,2.5,2.5,0,0,0-1.056-.181,2.292,2.292,0,0,0-1.5.441,2.573,2.573,0,0,0-.764,1.482,14.348,14.348,0,0,0-.229,2.916,14.45,14.45,0,0,0,.229,2.932,2.615,2.615,0,0,0,.764,1.49,2.264,2.264,0,0,0,1.5.449,2.5,2.5,0,0,0,1.056-.181,1.457,1.457,0,0,0,.63-.63,6.868,6.868,0,0,0,.52-1.379l1.718.583a6.758,6.758,0,0,1-.828,1.939,2.777,2.777,0,0,1-1.214,1.025A4.806,4.806,0,0,1,279.2,69.386Zm9.221,0a4.383,4.383,0,0,1-2.309-.52,2.908,2.908,0,0,1-1.214-1.624,11.912,11.912,0,0,1,0-5.9,2.908,2.908,0,0,1,1.214-1.624,5.4,5.4,0,0,1,4.626,0,2.9,2.9,0,0,1,1.222,1.624,11.912,11.912,0,0,1,0,5.9,2.9,2.9,0,0,1-1.222,1.624A4.427,4.427,0,0,1,288.419,69.386Zm0-1.671a2.231,2.231,0,0,0,1.269-.307,1.719,1.719,0,0,0,.638-1.04,11.451,11.451,0,0,0,0-4.145,1.719,1.719,0,0,0-.638-1.04,2.231,2.231,0,0,0-1.269-.307,2.191,2.191,0,0,0-1.261.307,1.736,1.736,0,0,0-.63,1.04,11.45,11.45,0,0,0,0,4.145,1.736,1.736,0,0,0,.63,1.04A2.191,2.191,0,0,0,288.419,67.715Zm5.107,1.45V59.424h1.813v-.063q.126-.032.473-.095a3.482,3.482,0,0,1,.615-.063,2.229,2.229,0,0,1,.977.173,1.852,1.852,0,0,1,.662.63,2.059,2.059,0,0,1,1.8-.8,2.324,2.324,0,0,1,1.419.378,2.157,2.157,0,0,1,.725,1.245,10.262,10.262,0,0,1,.221,2.412v5.927h-1.813V63.239a8.4,8.4,0,0,0-.118-1.726q-.118-.481-.434-.481a.862.862,0,0,0-.843.441,3.828,3.828,0,0,0-.229,1.592v6.1h-1.813V63.333a8.588,8.588,0,0,0-.126-1.789q-.126-.512-.426-.512a.88.88,0,0,0-.851.441,3.713,3.713,0,0,0-.236,1.592v6.1Zm9.993,2.869V59.424h1.828v.095a6.418,6.418,0,0,1,2.1-.315,4.482,4.482,0,0,1,2.317.512,2.859,2.859,0,0,1,1.222,1.616,11.944,11.944,0,0,1,0,5.9,2.9,2.9,0,0,1-1.222,1.631,4.427,4.427,0,0,1-2.317.52,5.756,5.756,0,0,1-2.1-.378v3.026Zm3.925-4.319a2.187,2.187,0,0,0,1.269-.315,1.756,1.756,0,0,0,.638-1.048,8.75,8.75,0,0,0,.189-2.073,8.645,8.645,0,0,0-.189-2.065,1.713,1.713,0,0,0-.638-1.032,2.231,2.231,0,0,0-1.269-.307q-2.1,0-2.1.914v3.72a2.423,2.423,0,0,0,.489,1.671A2.088,2.088,0,0,0,307.444,67.715Zm9.347,1.671a4.383,4.383,0,0,1-2.309-.52,2.908,2.908,0,0,1-1.214-1.624,11.912,11.912,0,0,1,0-5.9,2.908,2.908,0,0,1,1.214-1.624,5.4,5.4,0,0,1,4.626,0,2.9,2.9,0,0,1,1.222,1.624,11.912,11.912,0,0,1,0,5.9,2.9,2.9,0,0,1-1.222,1.624A4.427,4.427,0,0,1,316.791,69.386Zm0-1.671a2.231,2.231,0,0,0,1.269-.307,1.719,1.719,0,0,0,.638-1.04,11.45,11.45,0,0,0,0-4.145,1.719,1.719,0,0,0-.638-1.04,2.231,2.231,0,0,0-1.269-.307,2.191,2.191,0,0,0-1.261.307,1.736,1.736,0,0,0-.63,1.04,11.45,11.45,0,0,0,0,4.145,1.736,1.736,0,0,0,.63,1.04A2.191,2.191,0,0,0,316.791,67.715Zm5.769,1.45V59.424h1.813v.236a5.492,5.492,0,0,1,2.317-.457,4.688,4.688,0,0,1,2.073.37,2.134,2.134,0,0,1,1.048,1.245,7.575,7.575,0,0,1,.315,2.467v5.879H328.3V63.286a5.47,5.47,0,0,0-.15-1.458,1.249,1.249,0,0,0-.489-.733,1.777,1.777,0,0,0-.969-.221,4.587,4.587,0,0,0-1.505.181,1.039,1.039,0,0,0-.646.638,4.475,4.475,0,0,0-.166,1.419v6.053Zm13.193-1.45a2.6,2.6,0,0,0,1.348-.323,4,4,0,0,0,1.127-1.143l1.45.962a5.2,5.2,0,0,1-1.663,1.7,4.626,4.626,0,0,1-2.262.473,5.4,5.4,0,0,1-2.5-.473,2.7,2.7,0,0,1-1.277-1.56,9.511,9.511,0,0,1-.386-3.058,9.511,9.511,0,0,1,.386-3.058,2.7,2.7,0,0,1,1.277-1.56,5.4,5.4,0,0,1,2.5-.473,4.878,4.878,0,0,1,2.451.512,2.88,2.88,0,0,1,1.253,1.71,11.651,11.651,0,0,1,.378,3.357H333.42a5.867,5.867,0,0,0,.284,1.75,1.658,1.658,0,0,0,.725.906A2.7,2.7,0,0,0,335.753,67.715Zm0-6.841a2.361,2.361,0,0,0-1.671.5,2.7,2.7,0,0,0-.63,1.742h4.524a3.539,3.539,0,0,0-.2-1.348,1.254,1.254,0,0,0-.686-.686A3.487,3.487,0,0,0,335.753,60.874Zm5.722,8.291V59.424h1.813v.236A5.492,5.492,0,0,1,345.6,59.2a4.688,4.688,0,0,1,2.073.37,2.134,2.134,0,0,1,1.048,1.245,7.575,7.575,0,0,1,.315,2.467v5.879h-1.828V63.286a5.47,5.47,0,0,0-.15-1.458,1.249,1.249,0,0,0-.489-.733,1.777,1.777,0,0,0-.969-.221,4.587,4.587,0,0,0-1.505.181,1.039,1.039,0,0,0-.646.638,4.476,4.476,0,0,0-.166,1.419v6.053Zm14.17.221a3.724,3.724,0,0,1-1.844-.394,2.312,2.312,0,0,1-1.017-1.253,6.553,6.553,0,0,1-.323-2.262V60.906h-1.955V59.235h1.955v-2.68h1.813v2.68h3.263v1.671h-3.263v4.571a5.671,5.671,0,0,0,.126,1.363,1.12,1.12,0,0,0,.418.678,1.471,1.471,0,0,0,.828.2,3.205,3.205,0,0,0,.843-.079.624.624,0,0,0,.378-.284,3.893,3.893,0,0,0,.276-.709l1.7.583a3.614,3.614,0,0,1-.615,1.285,2.108,2.108,0,0,1-.985.67A5.125,5.125,0,0,1,355.645,69.386Zm12.547-1.56-1.229,1.229-7.046-6.195,7.046-6.195,1.229,1.229-5.643,4.965Zm8.023,1.34-3.547-5.044h-1.009v5.044h-1.813V56.555h3.878a5.718,5.718,0,0,1,2.286.378,2.4,2.4,0,0,1,1.237,1.2,5.245,5.245,0,0,1,.386,2.207,6.137,6.137,0,0,1-.284,2.065,2.23,2.23,0,0,1-.914,1.166,3.952,3.952,0,0,1-1.687.5l3.562,5.091Zm-4.555-10.939v4.224h2.065a4.3,4.3,0,0,0,1.324-.15.969.969,0,0,0,.6-.583,4,4,0,0,0,.173-1.379,3.624,3.624,0,0,0-.181-1.3,1.1,1.1,0,0,0-.623-.63,3.556,3.556,0,0,0-1.292-.181Zm11.38,9.489a2.6,2.6,0,0,0,1.348-.323,4,4,0,0,0,1.127-1.143l1.45.962a5.2,5.2,0,0,1-1.663,1.7,4.626,4.626,0,0,1-2.262.473,5.4,5.4,0,0,1-2.5-.473,2.7,2.7,0,0,1-1.277-1.56,9.51,9.51,0,0,1-.386-3.058,9.51,9.51,0,0,1,.386-3.058,2.7,2.7,0,0,1,1.277-1.56,5.4,5.4,0,0,1,2.5-.473,4.878,4.878,0,0,1,2.451.512,2.881,2.881,0,0,1,1.253,1.71,11.651,11.651,0,0,1,.378,3.357h-6.415a5.868,5.868,0,0,0,.284,1.75,1.658,1.658,0,0,0,.725.906A2.7,2.7,0,0,0,383.039,67.715Zm0-6.841a2.361,2.361,0,0,0-1.671.5,2.7,2.7,0,0,0-.63,1.742h4.524a3.539,3.539,0,0,0-.2-1.348,1.254,1.254,0,0,0-.686-.686A3.487,3.487,0,0,0,383.039,60.874Zm5.722,8.291V59.424h1.813v.236a5.492,5.492,0,0,1,2.317-.457,4.688,4.688,0,0,1,2.073.37,2.134,2.134,0,0,1,1.048,1.245,7.574,7.574,0,0,1,.315,2.467v5.879H394.5V63.286a5.472,5.472,0,0,0-.15-1.458,1.249,1.249,0,0,0-.489-.733,1.777,1.777,0,0,0-.969-.221,4.587,4.587,0,0,0-1.505.181,1.039,1.039,0,0,0-.646.638,4.476,4.476,0,0,0-.166,1.419v6.053Zm13.067.221a4.438,4.438,0,0,1-2.309-.512,2.871,2.871,0,0,1-1.214-1.616,11.975,11.975,0,0,1,0-5.911,2.908,2.908,0,0,1,1.214-1.624,4.383,4.383,0,0,1,2.309-.52,5.882,5.882,0,0,1,2.112.378V56.555h1.813v12.61H403.94v-.11A6.19,6.19,0,0,1,401.828,69.386Zm0-1.671a3.924,3.924,0,0,0,1.6-.244.747.747,0,0,0,.512-.67v-3.72a2.4,2.4,0,0,0-.5-1.671,2.115,2.115,0,0,0-1.616-.536,2.149,2.149,0,0,0-1.261.315,1.774,1.774,0,0,0-.63,1.048,8.75,8.75,0,0,0-.189,2.073,8.646,8.646,0,0,0,.189,2.065,1.731,1.731,0,0,0,.63,1.032A2.192,2.192,0,0,0,401.828,67.715Zm9.583,0a2.6,2.6,0,0,0,1.348-.323,4,4,0,0,0,1.127-1.143l1.45.962a5.2,5.2,0,0,1-1.663,1.7,4.626,4.626,0,0,1-2.262.473,5.4,5.4,0,0,1-2.5-.473,2.7,2.7,0,0,1-1.277-1.56,9.511,9.511,0,0,1-.386-3.058,9.511,9.511,0,0,1,.386-3.058,2.7,2.7,0,0,1,1.277-1.56,5.4,5.4,0,0,1,2.5-.473,4.878,4.878,0,0,1,2.451.512,2.881,2.881,0,0,1,1.253,1.71,11.651,11.651,0,0,1,.378,3.357h-6.415a5.867,5.867,0,0,0,.284,1.75,1.658,1.658,0,0,0,.725.906A2.7,2.7,0,0,0,411.411,67.715Zm0-6.841a2.361,2.361,0,0,0-1.671.5,2.7,2.7,0,0,0-.63,1.742h4.524a3.54,3.54,0,0,0-.2-1.348,1.254,1.254,0,0,0-.686-.686A3.487,3.487,0,0,0,411.411,60.874Zm6.147,8.291V59.424h1.813v.8a3.465,3.465,0,0,1,.977-.717,2.79,2.79,0,0,1,1.293-.307,4.036,4.036,0,0,1,1.513.244,2.533,2.533,0,0,1,1.032.788,5.324,5.324,0,0,1,.78,1.505l-1.624.741a5.648,5.648,0,0,0-.41-1.025,1.029,1.029,0,0,0-.481-.457,2.1,2.1,0,0,0-.812-.126,1.893,1.893,0,0,0-1.75.843,4.712,4.712,0,0,0-.52,2.451v5Zm12.767-1.45a2.6,2.6,0,0,0,1.348-.323,4,4,0,0,0,1.127-1.143l1.45.962a5.2,5.2,0,0,1-1.663,1.7,4.626,4.626,0,0,1-2.262.473,5.4,5.4,0,0,1-2.5-.473,2.7,2.7,0,0,1-1.277-1.56,9.511,9.511,0,0,1-.386-3.058,9.511,9.511,0,0,1,.386-3.058,2.7,2.7,0,0,1,1.277-1.56,5.4,5.4,0,0,1,2.5-.473,4.878,4.878,0,0,1,2.451.512,2.88,2.88,0,0,1,1.253,1.71,11.651,11.651,0,0,1,.378,3.357h-6.415a5.867,5.867,0,0,0,.284,1.75,1.658,1.658,0,0,0,.725.906A2.7,2.7,0,0,0,430.326,67.715Zm0-6.841a2.361,2.361,0,0,0-1.671.5,2.7,2.7,0,0,0-.63,1.742h4.524a3.54,3.54,0,0,0-.2-1.348,1.254,1.254,0,0,0-.686-.686A3.487,3.487,0,0,0,430.326,60.874Zm6.147,8.291V59.424h1.813v.8a3.464,3.464,0,0,1,.977-.717,2.79,2.79,0,0,1,1.292-.307,4.036,4.036,0,0,1,1.513.244,2.533,2.533,0,0,1,1.032.788,5.324,5.324,0,0,1,.78,1.505l-1.624.741a5.649,5.649,0,0,0-.41-1.025,1.029,1.029,0,0,0-.481-.457,2.1,2.1,0,0,0-.812-.126,1.893,1.893,0,0,0-1.75.843,4.712,4.712,0,0,0-.52,2.451v5Zm16.881-6.3-7.046,6.195L445.1,67.825l5.627-4.965L445.1,57.9l1.214-1.229Zm8.023,8.59a4.092,4.092,0,0,1-2.79-1.072,6.877,6.877,0,0,1-1.876-3.018,15.625,15.625,0,0,1,0-9,6.877,6.877,0,0,1,1.876-3.018,4.092,4.092,0,0,1,2.79-1.072v1.671a2.438,2.438,0,0,0-1.836.859,5.854,5.854,0,0,0-1.237,2.427,15.174,15.174,0,0,0,0,7.266,5.854,5.854,0,0,0,1.237,2.427,2.438,2.438,0,0,0,1.836.859ZM465.4,69.78a2.438,2.438,0,0,0,1.836-.859,5.854,5.854,0,0,0,1.237-2.427,15.175,15.175,0,0,0,0-7.266,5.854,5.854,0,0,0-1.237-2.427,2.439,2.439,0,0,0-1.836-.859V54.27a4.092,4.092,0,0,1,2.79,1.072,6.877,6.877,0,0,1,1.876,3.018,15.626,15.626,0,0,1,0,9,6.877,6.877,0,0,1-1.876,3.018,4.092,4.092,0,0,1-2.79,1.072Zm10.356,2.475a13.45,13.45,0,0,0,1.111-1.718,2.563,2.563,0,0,0,.307-1.135.989.989,0,0,1-.82-.284,1.811,1.811,0,0,1-.221-1.056,1.419,1.419,0,0,1,.307-1.048,2.324,2.324,0,0,1,2.254,0A1.419,1.419,0,0,1,479,68.062a5.065,5.065,0,0,1-.4,2.073,8.988,8.988,0,0,1-1.458,2.12Zm1.813-10.419a1.65,1.65,0,0,1-1.127-.292,1.393,1.393,0,0,1-.307-1.032,1.419,1.419,0,0,1,.307-1.048,2.324,2.324,0,0,1,2.254,0A1.419,1.419,0,0,1,479,60.512a1.393,1.393,0,0,1-.307,1.032A1.65,1.65,0,0,1,477.566,61.836ZM46.61,82.563v1.671h-5.9V87.67H44.5v1.671H40.715V93.5h5.9v1.671H38.9V82.563Zm7.55,2.869h2.081L53.025,90.3l3.215,4.871H54.16l-2.175-3.294L49.81,95.173H47.729L50.945,90.3l-3.215-4.871H49.81l2.175,3.294Zm7.03,9.962a6.423,6.423,0,0,1-2.23-.315,2.2,2.2,0,0,1-1.2-.985,3.7,3.7,0,0,1-.37-1.789,4.16,4.16,0,0,1,.37-1.947,2.02,2.02,0,0,1,1.182-.962,7.246,7.246,0,0,1,2.246-.276h1.986v-.347a2.535,2.535,0,0,0-.166-1.025.964.964,0,0,0-.591-.512,3.889,3.889,0,0,0-1.229-.15,2.931,2.931,0,0,0-1.009.134,1.016,1.016,0,0,0-.536.481,4.61,4.61,0,0,0-.363,1.056l-1.734-.426a6.33,6.33,0,0,1,.709-1.8,2.58,2.58,0,0,1,1.135-1,4.346,4.346,0,0,1,1.8-.323,4.036,4.036,0,0,1,2.924.875,3.66,3.66,0,0,1,.875,2.687v3.688a1.866,1.866,0,0,0,.126.851.585.585,0,0,0,.536.2q.126,0,.567-.032v1.671q-.189.016-.52.016a2.352,2.352,0,0,1-1.891-.63,2.386,2.386,0,0,1-1.056.654A5.3,5.3,0,0,1,61.19,95.394Zm0-1.671a3.135,3.135,0,0,0,1.229-.189,1.075,1.075,0,0,0,.591-.646,4.081,4.081,0,0,0,.166-1.324v-.772H61.19a6.472,6.472,0,0,0-1.277.087.755.755,0,0,0-.536.394A2.435,2.435,0,0,0,59.22,92.3a1.9,1.9,0,0,0,.158.875.912.912,0,0,0,.575.418A4.563,4.563,0,0,0,61.19,93.723Zm5.359,1.45V85.432h1.813v-.063q.126-.032.473-.095a3.483,3.483,0,0,1,.615-.063,2.229,2.229,0,0,1,.977.173,1.852,1.852,0,0,1,.662.63,2.059,2.059,0,0,1,1.8-.8,2.324,2.324,0,0,1,1.419.378,2.157,2.157,0,0,1,.725,1.245,10.263,10.263,0,0,1,.221,2.412v5.927H73.437V89.246a8.4,8.4,0,0,0-.118-1.726q-.118-.481-.433-.481a.862.862,0,0,0-.843.441,3.828,3.828,0,0,0-.229,1.592v6.1H70V89.341a8.587,8.587,0,0,0-.126-1.789q-.126-.512-.426-.512a.88.88,0,0,0-.851.441,3.712,3.712,0,0,0-.236,1.592v6.1Zm9.993,2.869V85.432h1.828v.095a6.418,6.418,0,0,1,2.1-.315,4.482,4.482,0,0,1,2.317.512,2.859,2.859,0,0,1,1.222,1.616,11.944,11.944,0,0,1,0,5.9,2.9,2.9,0,0,1-1.222,1.631,4.427,4.427,0,0,1-2.317.52,5.756,5.756,0,0,1-2.1-.378v3.026Zm3.925-4.319a2.187,2.187,0,0,0,1.269-.315,1.756,1.756,0,0,0,.638-1.048,8.75,8.75,0,0,0,.189-2.073,8.646,8.646,0,0,0-.189-2.065,1.713,1.713,0,0,0-.638-1.032,2.231,2.231,0,0,0-1.269-.307q-2.1,0-2.1.914v3.72a2.423,2.423,0,0,0,.489,1.671A2.088,2.088,0,0,0,80.467,93.723Zm10.971,1.671a3.618,3.618,0,0,1-1.71-.331,1.87,1.87,0,0,1-.867-1.1,7.114,7.114,0,0,1-.26-2.175v-7.55H86.615V82.563h3.8v9.221a3.606,3.606,0,0,0,.221,1.521.827.827,0,0,0,.8.418,1.211,1.211,0,0,0,.607-.189,7.4,7.4,0,0,0,.906-.678L93.96,94.4a4.832,4.832,0,0,1-1.237.78A3.519,3.519,0,0,1,91.438,95.394Zm7.881-1.671a2.6,2.6,0,0,0,1.348-.323,4,4,0,0,0,1.127-1.143l1.45.962a5.2,5.2,0,0,1-1.663,1.7,4.626,4.626,0,0,1-2.262.473,5.4,5.4,0,0,1-2.5-.473,2.7,2.7,0,0,1-1.277-1.56,12.3,12.3,0,0,1,0-6.116,2.7,2.7,0,0,1,1.277-1.56,5.4,5.4,0,0,1,2.5-.473,4.878,4.878,0,0,1,2.451.512,2.88,2.88,0,0,1,1.253,1.71,11.65,11.65,0,0,1,.378,3.357H96.986a5.867,5.867,0,0,0,.284,1.75,1.658,1.658,0,0,0,.725.906A2.7,2.7,0,0,0,99.319,93.723Zm0-6.841a2.361,2.361,0,0,0-1.671.5,2.7,2.7,0,0,0-.63,1.742h4.524a3.539,3.539,0,0,0-.2-1.348,1.254,1.254,0,0,0-.686-.686A3.487,3.487,0,0,0,99.319,86.882Zm13.508-4.319v1.671h-5.9V88.4H110.7v1.671h-3.767v5.107H105.12V82.563Zm5.091,12.83a4.4,4.4,0,0,1-2.018-.386,2.255,2.255,0,0,1-1.072-1.253,6.816,6.816,0,0,1-.331-2.364V85.432h1.813V91.39a5.955,5.955,0,0,0,.134,1.466,1.043,1.043,0,0,0,.473.678,2.1,2.1,0,0,0,1,.189,5.011,5.011,0,0,0,1.458-.158,1.063,1.063,0,0,0,.67-.56,2.9,2.9,0,0,0,.189-1.19V85.432h1.828v9.741h-1.828v-.158A5.678,5.678,0,0,1,117.918,95.394Zm6.037-.221V85.432h1.813v.236a5.492,5.492,0,0,1,2.317-.457,4.688,4.688,0,0,1,2.073.37,2.134,2.134,0,0,1,1.048,1.245,7.574,7.574,0,0,1,.315,2.467v5.879h-1.828V89.294a5.472,5.472,0,0,0-.15-1.458,1.249,1.249,0,0,0-.489-.733,1.777,1.777,0,0,0-.969-.221,4.587,4.587,0,0,0-1.505.181,1.04,1.04,0,0,0-.646.638,4.476,4.476,0,0,0-.166,1.419v6.053Zm13.429.221a5.112,5.112,0,0,1-2.49-.512,2.912,2.912,0,0,1-1.316-1.616,11.125,11.125,0,0,1,0-5.927,2.894,2.894,0,0,1,1.332-1.616,5.286,5.286,0,0,1,2.538-.512,4.257,4.257,0,0,1,2.191.489,4.952,4.952,0,0,1,1.576,1.734l-1.513.9a6.417,6.417,0,0,0-.678-.914,1.55,1.55,0,0,0-.638-.418,3.817,3.817,0,0,0-2.443.189,1.673,1.673,0,0,0-.741,1.032,10.278,10.278,0,0,0,0,4.161,1.706,1.706,0,0,0,.717,1.032,2.846,2.846,0,0,0,1.466.307,2.953,2.953,0,0,0,.938-.126,1.756,1.756,0,0,0,.678-.433,6.234,6.234,0,0,0,.717-.922l1.5.914a5.133,5.133,0,0,1-1.616,1.75A4.338,4.338,0,0,1,137.385,95.394Zm10.2,0A3.724,3.724,0,0,1,145.739,95a2.312,2.312,0,0,1-1.017-1.253,6.553,6.553,0,0,1-.323-2.262V86.914h-1.955V85.243H144.4v-2.68h1.813v2.68h3.263v1.671h-3.263v4.571a5.671,5.671,0,0,0,.126,1.363,1.12,1.12,0,0,0,.418.678,1.471,1.471,0,0,0,.828.2,3.205,3.205,0,0,0,.843-.079.623.623,0,0,0,.378-.284,3.893,3.893,0,0,0,.276-.709l1.7.583a3.614,3.614,0,0,1-.615,1.285,2.108,2.108,0,0,1-.985.67A5.125,5.125,0,0,1,147.583,95.394Zm9.757-9.962V93.5H160.1v1.671h-7.329V93.5h2.758V87.1h-1.986V85.432Zm-1.245-1.419a1.589,1.589,0,0,1-1.08-.276,1.918,1.918,0,0,1,0-2.033,1.589,1.589,0,0,1,1.08-.276,1.623,1.623,0,0,1,1.088.276,1.875,1.875,0,0,1,0,2.033A1.623,1.623,0,0,1,156.095,84.013Zm9.379,11.38a4.383,4.383,0,0,1-2.309-.52,2.908,2.908,0,0,1-1.214-1.624,11.912,11.912,0,0,1,0-5.9,2.908,2.908,0,0,1,1.214-1.624,5.4,5.4,0,0,1,4.626,0,2.9,2.9,0,0,1,1.222,1.624,11.913,11.913,0,0,1,0,5.9,2.9,2.9,0,0,1-1.222,1.624A4.427,4.427,0,0,1,165.473,95.394Zm0-1.671a2.231,2.231,0,0,0,1.269-.307,1.719,1.719,0,0,0,.638-1.04,11.451,11.451,0,0,0,0-4.145,1.719,1.719,0,0,0-.638-1.04,2.231,2.231,0,0,0-1.269-.307,2.191,2.191,0,0,0-1.261.307,1.736,1.736,0,0,0-.63,1.04,11.451,11.451,0,0,0,0,4.145,1.736,1.736,0,0,0,.63,1.04A2.191,2.191,0,0,0,165.473,93.723Zm5.769,1.45V85.432h1.813v.236a5.492,5.492,0,0,1,2.317-.457,4.688,4.688,0,0,1,2.073.37,2.134,2.134,0,0,1,1.048,1.245,7.574,7.574,0,0,1,.315,2.467v5.879H176.98V89.294a5.471,5.471,0,0,0-.15-1.458,1.249,1.249,0,0,0-.489-.733,1.777,1.777,0,0,0-.969-.221,4.587,4.587,0,0,0-1.505.181,1.04,1.04,0,0,0-.646.638,4.476,4.476,0,0,0-.166,1.419v6.053Zm15.873,2.286a4.092,4.092,0,0,1-2.79-1.072,6.878,6.878,0,0,1-1.876-3.018,15.626,15.626,0,0,1,0-9,6.878,6.878,0,0,1,1.876-3.018,4.092,4.092,0,0,1,2.79-1.072v1.671a2.438,2.438,0,0,0-1.836.859,5.854,5.854,0,0,0-1.237,2.427,15.175,15.175,0,0,0,0,7.266,5.854,5.854,0,0,0,1.237,2.427,2.438,2.438,0,0,0,1.836.859Zm2.38-2.286V85.432h1.813v-.063q.126-.032.473-.095a3.483,3.483,0,0,1,.615-.063,2.229,2.229,0,0,1,.977.173,1.852,1.852,0,0,1,.662.63,2.059,2.059,0,0,1,1.8-.8,2.324,2.324,0,0,1,1.419.378,2.157,2.157,0,0,1,.725,1.245,10.263,10.263,0,0,1,.221,2.412v5.927h-1.813V89.246a8.4,8.4,0,0,0-.118-1.726q-.118-.481-.433-.481a.862.862,0,0,0-.843.441,3.828,3.828,0,0,0-.229,1.592v6.1h-1.813V89.341a8.586,8.586,0,0,0-.126-1.789q-.126-.512-.426-.512a.88.88,0,0,0-.851.441,3.713,3.713,0,0,0-.236,1.592v6.1Zm11.191,3.089a3.2,3.2,0,0,1-1.072-.158,4.185,4.185,0,0,1-.977-.536l.725-1.529a8.32,8.32,0,0,0,.82.457,1.27,1.27,0,0,0,.5.095,2.233,2.233,0,0,0,.914-.158,1.48,1.48,0,0,0,.607-.544,4.873,4.873,0,0,0,.512-1.143l-3.263-9.315h1.891l2.333,6.935,2.364-6.935h1.907l-3.389,9.442a8.639,8.639,0,0,1-.961,2.018,3.032,3.032,0,0,1-1.19,1.048A4.048,4.048,0,0,1,200.686,98.262Zm14.753-3.089-3.547-5.044h-1.009v5.044h-1.813V82.563h3.878a5.718,5.718,0,0,1,2.286.378,2.4,2.4,0,0,1,1.237,1.2,5.246,5.246,0,0,1,.386,2.207,6.137,6.137,0,0,1-.284,2.065,2.231,2.231,0,0,1-.914,1.166,3.951,3.951,0,0,1-1.687.5l3.562,5.091Zm-4.555-10.939v4.224h2.065a4.3,4.3,0,0,0,1.324-.15.969.969,0,0,0,.6-.583,4,4,0,0,0,.173-1.379,3.624,3.624,0,0,0-.181-1.3,1.1,1.1,0,0,0-.623-.63,3.557,3.557,0,0,0-1.293-.181Zm11.38,9.489a2.6,2.6,0,0,0,1.348-.323,4,4,0,0,0,1.127-1.143l1.45.962a5.2,5.2,0,0,1-1.663,1.7,4.626,4.626,0,0,1-2.262.473,5.4,5.4,0,0,1-2.5-.473,2.7,2.7,0,0,1-1.277-1.56,12.3,12.3,0,0,1,0-6.116,2.7,2.7,0,0,1,1.277-1.56,5.4,5.4,0,0,1,2.5-.473,4.878,4.878,0,0,1,2.451.512,2.88,2.88,0,0,1,1.253,1.71,11.65,11.65,0,0,1,.378,3.357h-6.415a5.868,5.868,0,0,0,.284,1.75,1.658,1.658,0,0,0,.725.906A2.7,2.7,0,0,0,222.265,93.723Zm0-6.841a2.361,2.361,0,0,0-1.671.5,2.7,2.7,0,0,0-.63,1.742h4.524a3.54,3.54,0,0,0-.2-1.348,1.254,1.254,0,0,0-.686-.686A3.487,3.487,0,0,0,222.265,86.882Zm5.722,8.291V85.432H229.8v.236a5.492,5.492,0,0,1,2.317-.457,4.688,4.688,0,0,1,2.073.37,2.134,2.134,0,0,1,1.048,1.245,7.574,7.574,0,0,1,.315,2.467v5.879h-1.828V89.294a5.472,5.472,0,0,0-.15-1.458,1.249,1.249,0,0,0-.489-.733,1.777,1.777,0,0,0-.969-.221,4.587,4.587,0,0,0-1.505.181,1.04,1.04,0,0,0-.646.638,4.476,4.476,0,0,0-.166,1.419v6.053Zm13.067.221a4.438,4.438,0,0,1-2.309-.512,2.871,2.871,0,0,1-1.214-1.616,11.976,11.976,0,0,1,0-5.911,2.908,2.908,0,0,1,1.214-1.624,4.383,4.383,0,0,1,2.309-.52,5.882,5.882,0,0,1,2.112.378V82.563h1.813v12.61h-1.813v-.11A6.19,6.19,0,0,1,241.053,95.394Zm0-1.671a3.924,3.924,0,0,0,1.6-.244.747.747,0,0,0,.512-.67v-3.72a2.4,2.4,0,0,0-.5-1.671,2.115,2.115,0,0,0-1.616-.536,2.149,2.149,0,0,0-1.261.315,1.774,1.774,0,0,0-.63,1.048,8.75,8.75,0,0,0-.189,2.073,8.645,8.645,0,0,0,.189,2.065,1.731,1.731,0,0,0,.63,1.032A2.191,2.191,0,0,0,241.053,93.723Zm9.583,0a2.6,2.6,0,0,0,1.348-.323,4,4,0,0,0,1.127-1.143l1.45.962a5.2,5.2,0,0,1-1.663,1.7,4.626,4.626,0,0,1-2.262.473,5.4,5.4,0,0,1-2.5-.473,2.7,2.7,0,0,1-1.277-1.56,12.3,12.3,0,0,1,0-6.116,2.7,2.7,0,0,1,1.277-1.56,5.4,5.4,0,0,1,2.5-.473,4.878,4.878,0,0,1,2.451.512,2.88,2.88,0,0,1,1.253,1.71,11.65,11.65,0,0,1,.378,3.357H248.3a5.868,5.868,0,0,0,.284,1.75,1.658,1.658,0,0,0,.725.906A2.7,2.7,0,0,0,250.637,93.723Zm0-6.841a2.361,2.361,0,0,0-1.671.5,2.7,2.7,0,0,0-.63,1.742h4.524a3.54,3.54,0,0,0-.2-1.348,1.254,1.254,0,0,0-.686-.686A3.487,3.487,0,0,0,250.637,86.882Zm6.147,8.291V85.432H258.6v.8a3.465,3.465,0,0,1,.977-.717,2.79,2.79,0,0,1,1.293-.307,4.036,4.036,0,0,1,1.513.244,2.533,2.533,0,0,1,1.032.788,5.322,5.322,0,0,1,.78,1.505l-1.624.741a5.647,5.647,0,0,0-.41-1.025,1.029,1.029,0,0,0-.481-.457,2.1,2.1,0,0,0-.812-.126,1.893,1.893,0,0,0-1.75.843,4.712,4.712,0,0,0-.52,2.451v5Zm12.767-1.45A2.6,2.6,0,0,0,270.9,93.4a4,4,0,0,0,1.127-1.143l1.45.962a5.2,5.2,0,0,1-1.663,1.7,4.626,4.626,0,0,1-2.262.473,5.4,5.4,0,0,1-2.5-.473,2.7,2.7,0,0,1-1.277-1.56,12.3,12.3,0,0,1,0-6.116,2.7,2.7,0,0,1,1.277-1.56,5.4,5.4,0,0,1,2.5-.473,4.878,4.878,0,0,1,2.451.512,2.88,2.88,0,0,1,1.253,1.71,11.65,11.65,0,0,1,.378,3.357h-6.415a5.867,5.867,0,0,0,.284,1.75,1.658,1.658,0,0,0,.725.906A2.7,2.7,0,0,0,269.551,93.723Zm0-6.841a2.361,2.361,0,0,0-1.671.5,2.7,2.7,0,0,0-.63,1.742h4.524a3.54,3.54,0,0,0-.2-1.348,1.254,1.254,0,0,0-.686-.686A3.487,3.487,0,0,0,269.551,86.882Zm6.147,8.291V85.432h1.813v.8a3.465,3.465,0,0,1,.977-.717,2.79,2.79,0,0,1,1.293-.307,4.036,4.036,0,0,1,1.513.244,2.533,2.533,0,0,1,1.032.788,5.323,5.323,0,0,1,.78,1.505l-1.623.741a5.648,5.648,0,0,0-.41-1.025,1.029,1.029,0,0,0-.481-.457,2.1,2.1,0,0,0-.812-.126,1.893,1.893,0,0,0-1.75.843,4.712,4.712,0,0,0-.52,2.451v5Zm10.009.615a2.438,2.438,0,0,0,1.836-.859,5.854,5.854,0,0,0,1.237-2.427,15.174,15.174,0,0,0,0-7.266,5.854,5.854,0,0,0-1.237-2.427,2.438,2.438,0,0,0-1.836-.859V80.278a4.092,4.092,0,0,1,2.79,1.072,6.877,6.877,0,0,1,1.876,3.018,15.626,15.626,0,0,1,0,9,6.877,6.877,0,0,1-1.876,3.018,4.092,4.092,0,0,1-2.79,1.072Zm10.356,2.475a13.45,13.45,0,0,0,1.111-1.718,2.563,2.563,0,0,0,.307-1.135.989.989,0,0,1-.82-.284,1.811,1.811,0,0,1-.221-1.056,1.419,1.419,0,0,1,.307-1.048,2.324,2.324,0,0,1,2.254,0,1.419,1.419,0,0,1,.307,1.048,5.065,5.065,0,0,1-.4,2.073,8.988,8.988,0,0,1-1.458,2.12Zm1.813-10.419a1.65,1.65,0,0,1-1.127-.292,1.393,1.393,0,0,1-.307-1.032,1.419,1.419,0,0,1,.307-1.048,2.324,2.324,0,0,1,2.254,0,1.419,1.419,0,0,1,.307,1.048A1.393,1.393,0,0,1,299,87.552,1.65,1.65,0,0,1,297.876,87.844ZM1.388,121.78a5.883,5.883,0,0,0,1.576-.166,1.413,1.413,0,0,0,.82-.544,1.891,1.891,0,0,0,.252-1.056,6.277,6.277,0,0,0-.158-1.324,4.916,4.916,0,0,1-.126-.962,2.755,2.755,0,0,1,.41-1.45,5.465,5.465,0,0,1,1.34-1.4,5.49,5.49,0,0,1-1.332-1.426,2.865,2.865,0,0,1-.418-1.49,4.123,4.123,0,0,1,.142-.977,5.274,5.274,0,0,0,.158-1.214,1.966,1.966,0,0,0-.252-1.08,1.4,1.4,0,0,0-.828-.552,5.975,5.975,0,0,0-1.584-.165v-1.687a5.6,5.6,0,0,1,3.4.82,3.076,3.076,0,0,1,1.064,2.6,7.786,7.786,0,0,1-.158,1.45,6.412,6.412,0,0,0-.126.962,1.8,1.8,0,0,0,.552.961q.552.63,1.781,1.8-1.214,1.135-1.773,1.765a1.819,1.819,0,0,0-.56.93,8.292,8.292,0,0,0,.126,1.072,8.483,8.483,0,0,1,.158,1.419,3.053,3.053,0,0,1-1.064,2.593,5.639,5.639,0,0,1-3.4.812Z" transform="translate(875.636 25710.746)" fill="#12263f"/>
  </g>
</svg>
